<svg width="242" height="198" viewBox="0 0 242 198" fill="none" xmlns="http://www.w3.org/2000/svg">
<path fill-rule="evenodd" clip-rule="evenodd" d="M197.516 14.8966C198.071 14.9347 198.483 15.3301 198.436 15.7798C195.662 42.3848 183.842 62.4451 171.247 76.1625C161.963 86.2738 152.241 92.9565 145.383 96.2737C145.326 99.584 145.206 102.981 145.017 106.463C143.616 132.265 138.432 162.689 126.811 196.545C126.662 196.98 126.106 197.234 125.57 197.113C125.033 196.992 124.719 196.541 124.868 196.107C136.377 162.579 141.545 132.441 142.976 106.859C137.227 103.837 129.962 99.4524 122.152 93.9329C113.947 88.1335 105.13 81.0739 96.8324 73.0145C94.0582 70.3198 91.3416 67.5129 88.7251 64.6035C76.9564 51.5177 67.1917 36.3352 63.341 19.9502C63.2368 19.5068 63.5958 19.0789 64.1429 18.9945C64.6899 18.91 65.2179 19.201 65.3221 19.6444C69.1002 35.7207 78.6999 50.6814 90.3547 63.6407C92.9436 66.5194 95.6329 69.2982 98.3808 71.9672C106.601 79.9518 115.341 86.9504 123.478 92.701C130.776 97.8592 137.58 102.007 143.076 104.958C143.23 101.832 143.328 98.7762 143.375 95.7921C143.923 60.9047 133.838 13.7567 128.286 2.05642C128.086 1.63514 128.345 1.16228 128.865 1.00025C129.385 0.838222 129.968 1.04838 130.168 1.46966C135.759 13.2508 145.761 60.0791 145.41 94.3413C151.942 90.9872 160.956 84.6326 169.629 75.1867C182.021 61.6905 193.687 41.9161 196.427 15.6422C196.474 15.1924 196.962 14.8586 197.516 14.8966Z" fill="#586687"/>
<path fill-rule="evenodd" clip-rule="evenodd" d="M178.36 1.29586C178.751 1.46877 178.895 1.86592 178.681 2.18291C177.265 6.72105 177.454 6.94837 175.685 16.7873C174.182 25.145 173.141 34.5545 172.448 43.6992C175.592 36.371 179.836 26.9418 184.09 18.4081C186.684 13.2051 184.953 16.5502 187.316 12.6794C188.497 10.7444 189.623 9.05245 190.663 7.6946C191.694 6.34942 192.675 5.28545 193.575 4.64684C193.911 4.40906 194.42 4.4366 194.714 4.70834C195.007 4.98009 194.973 5.39314 194.638 5.63092C193.925 6.13648 193.047 7.06287 192.034 8.38444C191.031 9.69332 189.93 11.3445 188.762 13.2591C186.425 17.0876 188.174 13.7082 185.586 18.898C180.432 29.237 175.288 40.9035 172.111 48.5251C171.448 58.9259 171.219 68.6522 171.245 75.6726C171.246 76.0337 170.886 76.3273 170.44 76.3283C169.995 76.3294 169.633 76.0375 169.631 75.6764C169.606 68.6125 169.836 58.8264 170.506 48.3675C171.184 37.7669 172.314 26.4639 174.088 16.5987C175.857 6.76243 175.248 6.72105 177.265 1.55676C177.478 1.23976 177.968 1.12295 178.36 1.29586ZM48.8065 19.2296C49.1933 19.0504 49.686 19.1594 49.9071 19.4729C53.1359 24.0526 65.9453 45.4949 72.0247 55.7744C78.8658 59.5919 85.4236 62.1877 89.8204 63.509C90.2382 63.6346 90.4512 64.0108 90.2964 64.3494C90.1415 64.6879 89.6773 64.8606 89.2596 64.7351C84.6927 63.3626 77.9408 60.6817 70.9311 56.7514C60.6744 51.0005 49.7767 42.5242 44.4225 31.478C44.2596 31.1419 44.4637 30.7624 44.8784 30.6304C45.293 30.4983 45.7612 30.6637 45.9241 30.9998C50.6809 40.8135 59.9904 48.5968 69.3005 54.1961C62.8524 43.3216 51.4905 24.3543 48.5063 20.1216C48.2853 19.8081 48.4196 19.4087 48.8065 19.2296ZM82.9449 29.1224C83.2733 28.8784 83.7836 28.8964 84.0846 29.1626C86.4048 31.214 88.377 34.2761 90.051 37.8316C91.7303 41.3982 93.1331 45.5131 94.2852 49.7129C96.5892 58.1123 97.9047 66.9045 98.4111 72.4425C98.4441 72.8026 98.1106 73.1161 97.6663 73.1428C97.222 73.1695 96.8351 72.8992 96.8022 72.5391C96.3003 67.0506 94.9941 58.3225 92.7103 49.9967C91.5684 45.8339 90.1856 41.7851 88.5437 38.2978C86.8965 34.7994 85.0119 31.9176 82.8954 30.0462C82.5943 29.78 82.6165 29.3664 82.9449 29.1224ZM108.655 37.9414C109.1 37.9219 109.48 38.1984 109.504 38.559C110.301 50.5101 116.351 62.461 123.634 72.569C130.914 82.6723 139.387 90.8815 144.95 95.3374C145.267 95.5913 145.27 96.0052 144.957 96.262C144.643 96.5189 144.133 96.5213 143.816 96.2675C138.156 91.7336 129.594 83.434 122.241 73.2284C114.89 63.0275 108.709 50.8693 107.893 38.6295C107.869 38.269 108.21 37.9609 108.655 37.9414ZM195.057 57.8218C195.321 58.113 195.243 58.5222 194.884 58.7357C188.993 62.2367 183.808 68.5903 179.711 75.1947C176.226 80.8116 173.568 86.5439 171.954 90.7067C180.052 85.3581 188.73 78.7264 196.812 70.8661C197.097 70.5887 197.606 70.5512 197.948 70.7824C198.29 71.0135 198.337 71.4258 198.051 71.7032C189.212 80.3009 179.67 87.4372 170.939 93.0458C159.664 100.289 149.718 104.998 144.349 107.02C143.945 107.172 143.465 107.03 143.278 106.702C143.09 106.375 143.265 105.986 143.669 105.834C148.872 103.875 158.623 99.2684 169.733 92.1516C171.243 87.8821 174.198 81.1698 178.27 74.6073C182.395 67.9585 187.72 61.3721 193.93 57.6812C194.289 57.4677 194.794 57.5306 195.057 57.8218ZM67.6236 67.758C67.7991 67.4261 68.2733 67.2724 68.6828 67.4146C70.2152 67.947 72.4956 69.288 75.1197 71.0376C77.7715 72.8058 80.8545 75.0469 84.0156 77.4413C90.2512 82.1645 96.8192 87.5061 101.036 91.0437C110.081 92.468 118.111 92.7995 122.786 92.6635C123.231 92.6505 123.605 92.9325 123.621 93.2934C123.637 93.6543 123.289 93.9573 122.844 93.9702C117.997 94.1113 109.739 93.7635 100.476 92.2874C90.8607 90.7552 80.1105 87.9991 70.9569 83.2779C70.5811 83.084 70.4703 82.6799 70.7095 82.3753C70.9486 82.0706 71.4472 81.9808 71.8231 82.1747C79.9516 86.3672 89.4175 88.9908 98.2175 90.5693C94.0616 87.1212 88.3581 82.5203 82.914 78.3966C79.7646 76.0111 76.7094 73.7908 74.0947 72.0475C71.4524 70.2856 69.3381 69.0649 68.0472 68.6165C67.6378 68.4743 67.4481 68.0899 67.6236 67.758Z" fill="#586687"/>
<ellipse cx="49.4086" cy="19.7968" rx="5.04167" ry="4.0863" fill="#FC766A"/>
<ellipse cx="81.675" cy="27.9698" rx="5.04167" ry="4.0863" fill="#FC766A"/>
<ellipse cx="107.892" cy="37.7765" rx="5.04167" ry="4.0863" fill="#FC766A"/>
<ellipse cx="194.608" cy="57.391" rx="5.04167" ry="4.0863" fill="#FC766A"/>
<ellipse cx="198.641" cy="70.4672" rx="5.04167" ry="4.0863" fill="#FC766A"/>
<ellipse cx="69.5751" cy="67.1981" rx="5.04167" ry="4.0863" fill="#FC766A"/>
<ellipse cx="71.5917" cy="81.9088" rx="5.04167" ry="4.0863" fill="#FC766A"/>
<ellipse cx="44.3666" cy="30.4214" rx="6.05" ry="4.90356" fill="#FC766A"/>
<ellipse cx="176.458" cy="5.0863" rx="5.04167" ry="4.0863" fill="#FC766A"/>
<ellipse cx="194.608" cy="6.72082" rx="5.04167" ry="4.0863" fill="#FC766A"/>
</svg>
