<svg width="379" height="267" viewBox="0 0 379 267" fill="none" xmlns="http://www.w3.org/2000/svg">
<path d="M220.973 0.758667C215.812 1.98758 210.194 4.23468 206.577 6.552C206.016 6.90314 205.278 7.32446 204.997 7.4649C204.717 7.57022 202.645 9.08002 200.433 10.7654C196.009 14.1711 191.409 18.4547 188.46 21.9658C187.407 23.1947 186.353 24.4587 186.108 24.7045C185.897 24.9502 184.949 26.1791 184.071 27.4431L182.456 29.6902H177.119C171.712 29.6902 169.36 30.0414 164.83 31.5862C158.265 33.8333 151.207 39.3107 147.275 45.2445C142.781 52.0911 139.691 61.6765 139.691 68.8391C139.691 78.284 143.729 88.08 151.032 96.4364C154.859 100.79 162.934 107.637 164.304 107.637C164.514 107.637 164.62 107.918 164.549 108.234C164.479 108.655 162.864 109.638 160.231 110.972C156.649 112.763 153.805 114.308 150.505 116.239C146.959 118.311 139.094 123.893 136.004 126.562C131.721 130.284 123.61 138.921 120.38 143.275C118.343 146.013 116.482 148.541 116.272 148.892C114.937 150.999 112.304 155.458 112.304 155.599C112.304 155.669 111.848 156.722 111.321 157.916C105.809 170.064 106.265 180.071 112.725 188.182C113.673 189.34 114.411 190.394 114.411 190.534C114.411 190.675 114.06 191.201 113.638 191.693L112.831 192.606L103.175 192.957C97.8734 193.132 90.6054 193.448 87.0241 193.624C83.4428 193.835 75.4725 194.256 69.293 194.537C63.1134 194.818 53.8792 195.309 48.753 195.59C43.6268 195.906 38.1143 196.117 36.4641 196.117C34.8139 196.117 30.2494 196.363 26.2819 196.644C22.3143 196.924 17.3988 197.17 15.3623 197.17C11.6054 197.17 3.24899 197.732 1.77432 198.048C0.861433 198.259 0.720989 199.312 1.52854 199.979C1.98499 200.365 4.12677 200.33 13.045 199.839C19.0841 199.523 28.6694 199.031 34.3574 198.75C40.0454 198.469 47.8752 198.083 51.7374 197.872C55.5997 197.662 62.4814 197.346 67.0108 197.17C71.5401 196.995 77.2281 196.679 79.6508 196.503C82.0734 196.292 85.8654 196.117 88.0774 196.117C90.2894 196.117 95.2752 195.871 99.1374 195.59C107.283 194.993 112.164 194.923 112.48 195.415C112.655 195.696 110.549 200.962 106.476 210.407C105.352 213.005 104.896 214.094 104.439 215.147C103.597 217.219 101.981 220.94 101.279 222.556C101.033 223.152 99.5588 226.593 98.0841 230.175C96.6094 233.756 95.1348 237.197 94.889 237.794C94.2219 239.268 93.4494 241.059 92.8174 242.639C92.5365 243.306 92.045 244.43 91.7641 245.097C91.4832 245.764 91.0268 246.888 90.7459 247.555C90.4299 248.257 89.9734 249.345 89.6925 250.012C89.3765 250.715 88.9201 251.768 88.6392 252.4C86.2517 257.877 83.1619 265.461 83.1619 265.883C83.1619 266.339 83.4779 266.409 85.1983 266.199C86.2868 266.058 89.9032 265.812 93.1685 265.637C96.469 265.461 101.525 265.145 104.404 264.935C107.318 264.724 113.077 264.338 117.22 264.057C121.363 263.776 127.226 263.355 130.211 263.144C133.195 262.933 138.111 262.617 141.095 262.477C144.08 262.336 148.749 262.02 151.453 261.81C154.157 261.599 160.161 261.213 164.795 260.897C169.43 260.616 175.364 260.195 177.962 259.984C180.56 259.773 185.23 259.492 188.32 259.317C191.409 259.176 196.22 258.86 199.029 258.65C201.837 258.439 206.648 258.088 209.737 257.877C212.827 257.667 215.987 257.421 216.76 257.351C218.024 257.175 218.34 257.316 219.744 258.615C222.202 260.897 223.922 261.494 227.469 261.318C230.699 261.178 232.033 260.792 234.456 259.212C236.106 258.158 238.002 257.737 245.726 256.719C250.817 256.052 257.137 255.209 261.877 254.577C263.914 254.296 267.46 253.84 269.777 253.524C288.035 251.101 289.65 250.89 292.073 250.504C293.337 250.293 295.619 250.012 297.164 249.837C298.709 249.696 301.097 249.38 302.431 249.17C303.8 248.994 306.714 248.573 308.926 248.292C320.337 246.782 320.232 246.817 320.689 244.676C320.829 244.114 321.11 243.131 321.391 242.464C321.637 241.796 322.198 240.111 322.62 238.777C323.533 235.828 324.129 235.09 325.569 235.09C327.254 235.09 329.291 233.545 329.291 232.246C329.291 231.895 327.36 229.683 325.007 227.296C318.617 220.905 316.861 218.869 310.998 211.039C307.697 206.685 304.853 202.542 301.272 196.995C299.622 194.467 299.797 194.186 303.133 194.116C304.678 194.045 308.751 193.764 312.192 193.484C315.668 193.203 319.6 192.957 320.969 192.957C322.374 192.957 327.044 192.746 331.397 192.43C335.751 192.149 343.405 191.658 348.426 191.377C353.447 191.096 361.101 190.604 365.455 190.324C369.809 190.008 374.303 189.797 375.497 189.797C377.814 189.797 378.938 189.235 378.727 188.182C378.622 187.55 378.306 187.515 373.18 187.585C370.195 187.655 363.945 187.901 359.311 188.217C354.676 188.498 346.776 188.989 341.755 189.27C336.734 189.551 330.169 189.972 327.184 190.183C324.2 190.359 318.582 190.675 314.72 190.85C310.857 191.026 306.293 191.342 304.537 191.517C302.501 191.728 301.237 191.728 301.026 191.517C300.816 191.307 300.71 189.446 300.781 186.883C300.991 180.317 299.13 168.906 297.129 164.236C296.848 163.604 296.637 162.867 296.637 162.586C296.637 162.305 296.427 161.568 296.146 160.936C295.865 160.304 295.303 158.899 294.882 157.846C289.475 144.398 280.1 131.864 266.266 119.75C264.721 118.381 262.861 116.731 262.088 116.028L260.684 114.764L262.79 112.693C267.601 107.953 269.777 103.74 270.655 97.56C271.498 91.9422 269.497 83.6911 266.056 78.3191C265.705 77.7222 265.283 77.02 265.143 76.7391C264.897 76.1773 261.983 72.28 261.281 71.5427C260.965 71.2267 260.824 69.8573 260.824 67.1538C260.824 64.0991 260.684 62.8351 260.157 61.4658C259.279 59.1836 258.401 57.4982 257.98 57.2525C257.805 57.112 257.664 56.6556 257.664 56.2342C257.664 55.3916 258.401 54.9702 260.017 54.9702C261.386 54.9702 266.442 52.5476 270.129 50.1249C272.762 48.3693 279.012 42.4356 279.819 40.8556C283.225 34.3951 283.997 30.9191 283.295 25.7578C281.961 16.0671 275.465 7.00845 267.846 4.12933C266.021 3.42712 261.913 2.65466 260.122 2.65466C256.821 2.68979 251.133 3.98889 248.711 5.2529C247.166 6.06046 246.78 5.99023 243.058 4.05911C241.197 3.07602 239.441 2.30356 239.196 2.30356C238.95 2.30356 238.213 2.0929 237.581 1.81201C233.718 0.196899 225.573 -0.329773 220.973 0.758667ZM220.376 40.3991C222.237 45.2094 227.82 50.4058 235.123 54.0925C236.492 54.7947 237.651 55.4618 237.651 55.5671C237.651 55.6725 237.194 56.3396 236.668 57.0418C235.72 58.2707 234.772 60.2018 234.28 61.9925C233.929 63.2213 233.508 63.432 231.506 63.1862C228.803 62.8351 228.627 62.6596 228.381 59.9911C228.136 57.7089 227.293 54.8298 226.345 53.1445C224.484 49.844 220.973 47 217.673 46.052C216.514 45.736 215.531 45.2796 215.531 45.104C215.531 44.8933 215.917 44.2262 216.373 43.6293C216.83 42.9973 217.637 41.6631 218.164 40.6449C218.691 39.6267 219.288 38.8542 219.498 38.9245C219.674 38.9596 220.06 39.6618 220.376 40.3991ZM219.288 49.3173C221.886 50.6867 223.887 53.2498 225.221 56.9364C227.012 61.8871 225.783 68.5582 222.483 71.7885C221.394 72.8418 220.797 72.912 220.797 71.9991C220.797 71.2267 218.726 69.7169 217.637 69.7169C217.041 69.7169 216.233 70.1031 215.566 70.7351C214.583 71.648 214.477 71.964 214.477 73.7196C214.477 75.9667 214.302 76.072 211.528 75.124C209.176 74.3165 206.297 71.5778 205.068 68.9093C202.469 63.4671 202.961 57.5685 206.332 52.7934C207.525 51.0729 210.51 48.8609 212.02 48.5449C213.986 48.1236 217.813 48.5449 219.288 49.3173ZM251.765 54.6893C254.645 56.1991 256.892 59.2538 258.015 63.2916C259.139 67.1538 258.823 70.384 256.927 74.492C255.909 76.7391 253.626 79.0565 251.52 80.0396C250.501 80.5662 249.483 80.9525 249.273 80.9525C249.062 80.9525 249.027 80.2151 249.132 79.0916C249.308 77.4413 249.202 77.1253 248.36 76.1071C247.587 75.1591 247.166 74.9836 245.937 74.9836C244.006 74.9836 243.128 75.6858 242.566 77.6169C242.321 78.4947 241.934 79.1969 241.689 79.1969C241.057 79.1969 238.529 76.3178 237.616 74.5622C236.703 72.7716 235.93 69.4711 235.93 67.2591C235.93 61.0093 240.003 55.0405 245.024 53.8818C246.885 53.4604 250.185 53.8818 251.765 54.6893ZM186.424 54.268C187.688 54.9702 189.724 58.692 190.145 61.1147C190.391 62.4489 190.848 63.0458 191.655 63.0458C192.463 63.0458 192.779 62.2031 192.498 60.7636C192.393 60.0965 192.463 59.5347 192.673 59.3942C192.954 59.1836 199.134 62.168 200.293 63.0809C200.503 63.2565 200.96 64.4502 201.276 65.7493C202.224 69.436 203.839 72.3151 206.261 74.5973C209.141 77.3009 211.633 78.2489 215.215 78.0382C218.269 77.8627 219.639 77.3711 222.132 75.5805C224.273 74.0356 226.696 70.5245 227.679 67.54L228.346 65.5036H230.207C232.981 65.5036 233.437 65.8547 233.437 68.1018C233.437 71.964 235.72 77.1956 238.599 79.9342C241.302 82.4973 243.585 83.4102 247.306 83.4102C250.08 83.4102 250.572 83.3049 252.784 82.1814C255.347 80.9173 255.593 80.9876 254.785 82.9538C253.486 86.1489 252.117 88.7822 250.747 90.9591C248.676 94.1542 242.566 100.264 241.443 100.264C240.67 100.264 238.493 99.3156 237.545 98.5782C237.3 98.4027 236.281 98.0516 235.298 97.8058C233.367 97.3845 231.998 97.56 228.206 98.7187C227.328 98.9996 226.24 99.2102 225.748 99.2102C223.993 99.2102 221.956 101.036 220.692 103.775C219.463 106.373 218.831 107.11 217.813 107.04C214.829 106.9 209.667 104.688 205.173 101.633C202.399 99.7369 198.256 95.6289 196.711 93.2413C193.235 87.7991 191.304 81.9707 191.304 76.8445C191.304 73.6844 190.742 72.5258 189.127 72.5258C187.372 72.5258 183.685 70.9107 182.07 69.4009C178.629 66.2058 179.085 59.2187 182.983 55.0405C184.106 53.8818 185.195 53.636 186.424 54.268ZM239.687 102.616C242.145 103.88 244.989 105.39 246.007 105.916C247.025 106.443 249.027 107.918 250.396 109.147C253.837 112.201 258.261 116.099 261.667 119.048C263.247 120.382 265.248 122.138 266.091 122.91C268.373 124.947 275.536 132.109 277.291 134.146C278.801 135.866 283.401 141.94 284.243 143.275C291.827 155.493 294.812 162.551 297.129 173.997C297.866 177.684 298.533 185.864 298.253 187.796C298.007 189.516 297.164 190.078 296.778 188.814C296.532 188.182 292.845 180.703 290.353 175.893C289.053 173.33 288.737 172.979 287.403 172.452C286.561 172.136 285.648 171.89 285.297 171.89C284.945 171.89 283.787 171.68 282.663 171.399C277.748 170.17 272.937 169.748 264.16 169.819C259.42 169.819 255.417 169.748 255.312 169.643C255.206 169.538 255.136 168.309 255.171 166.904C255.277 163.077 254.574 151.526 253.942 147.312C252.889 139.904 251.765 135.866 249.518 131.161C245.832 123.542 242.953 121.822 238.072 124.42C236.281 125.403 235.579 125.579 234.069 125.473C232.314 125.368 232.209 125.298 232.103 124.385C231.857 122.278 236.422 119.399 239.301 119.82C241.267 120.136 241.794 117.749 239.898 117.257C237.686 116.696 234.315 117.924 231.577 120.277C230.172 121.471 229.47 121.681 228.487 121.19C227.785 120.839 227.644 120.523 227.679 119.329C227.679 118.521 227.96 117.468 228.276 116.976C229.294 115.467 231.857 114.203 234.456 113.992C236.352 113.816 236.773 113.676 236.878 113.114C237.089 112.061 236.492 111.815 233.824 111.815C231.05 111.815 230.348 112.096 227.047 114.554C224.554 116.45 223.957 116.485 223.957 114.835C223.957 112.833 225.818 110.411 229.329 107.812C230.664 106.829 231.015 105.741 230.137 105.425C229.329 105.109 228.101 105.6 226.24 106.935C224.273 108.409 222.729 108.901 222.026 108.339C221.429 107.848 221.71 106.864 223.15 104.442C224.344 102.335 225.818 101.352 227.714 101.282C228.241 101.282 229.259 101.036 229.926 100.79C230.593 100.544 232.068 100.299 233.192 100.299C235.088 100.264 235.649 100.474 239.687 102.616ZM201.767 102.265C205.278 104.933 212.195 108.69 213.6 108.69C213.916 108.69 214.513 108.866 214.899 109.076C215.285 109.287 216.444 109.603 217.427 109.744C219.182 110.024 221.64 110.797 222.026 111.218C222.167 111.324 222.061 112.096 221.851 112.939C221.605 113.781 221.535 115.116 221.675 115.993C221.886 117.328 222.097 117.644 223.431 118.451C224.695 119.224 224.976 119.61 225.011 120.452C225.046 121.752 226.205 123.226 227.714 123.858C228.452 124.139 229.119 124.841 229.681 125.86C231.155 128.704 234.421 129.055 238.774 126.808C240.109 126.105 241.478 125.544 241.829 125.544C243.093 125.579 245.691 128.739 247.412 132.39C250.817 139.553 252.503 150.086 252.327 162.937L252.222 170.661L251.344 170.767C248.711 171.048 240.67 173.295 237.651 174.594C236.984 174.91 235.86 175.366 235.193 175.682C234.034 176.174 232.454 176.946 230.593 177.964C228.241 179.228 224.309 182.037 221.675 184.32C221.113 184.811 220.517 185.232 220.376 185.232C220.236 185.232 219.569 184.53 218.831 183.652C217.427 181.932 213.284 178.386 210.51 176.49C209.562 175.858 206.999 174.418 204.752 173.295C194.324 167.993 180.139 165.64 167.604 167.115C160.793 167.923 154.613 169.081 150.575 170.31C146.959 171.434 146.643 171.364 145.484 169.608C144.993 168.8 144.817 167.923 144.852 165.921C144.852 162.761 145.554 161.216 148.363 158.162C150.4 155.985 150.645 154.932 149.206 154.756C147.556 154.51 143.623 159.391 142.57 162.972C141.727 165.816 142.184 169.011 143.799 171.609C145.238 173.962 146.257 174.313 148.995 173.365C150.154 172.944 153.068 172.206 156.544 171.399C168.973 168.59 182.07 168.59 192.884 171.434C195.517 172.136 198.888 173.224 199.661 173.611C199.977 173.786 200.96 174.208 201.837 174.559C204.26 175.542 210.58 179.369 212.546 181.054C215.215 183.336 218.34 186.742 218.515 187.515C218.761 188.779 220.306 200.12 221.324 208.055C222.342 216.06 222.939 220.484 223.466 223.855C223.747 225.68 223.957 227.717 223.957 228.349C223.957 229.227 224.133 229.578 224.765 229.788C226.591 230.491 226.731 229.192 225.537 220.87C225.257 218.939 224.8 215.498 224.484 213.216C224.203 210.969 223.712 207.247 223.396 204.965C223.115 202.718 222.623 199.031 222.342 196.819C222.061 194.607 221.675 191.833 221.535 190.675C221.289 189.06 221.359 188.392 221.71 187.76C222.167 187.058 228.346 182.108 229.891 181.23C232.876 179.544 240.179 176.104 240.776 176.104C240.986 176.104 241.653 175.893 242.285 175.612C244.778 174.524 251.344 173.119 256.611 172.557C265.74 171.539 277.467 172.347 285.297 174.559L287.122 175.085L288.913 178.667C299.341 199.277 299.868 200.155 308.189 211.425C312.929 217.851 317.388 223.188 322.339 228.279C324.235 230.21 325.78 232 325.78 232.211C325.78 232.422 325.393 232.703 324.902 232.843C323.603 233.159 313.034 232.808 309.98 232.316C303.449 231.263 300.5 230.772 298.217 230.315C294.285 229.508 290.669 228.735 288.386 228.244C273.85 224.943 265.318 224.943 253.451 228.314C244.568 230.807 235.404 236.424 228.487 243.657L226.485 245.764L223.361 243.657C219.92 241.34 219.814 241.305 217.216 239.865C212.757 237.408 208.052 235.266 203.242 233.51C202.575 233.264 201.381 232.808 200.609 232.527C199.836 232.246 198.186 231.72 196.922 231.404C195.658 231.052 193.937 230.596 193.06 230.35C188.565 229.086 181.297 227.892 175.153 227.366C159.388 226.067 141.973 228.384 126.349 233.861C124.909 234.388 123.329 234.88 122.837 234.985C122.346 235.09 121.784 235.301 121.609 235.476C121.222 235.757 118.273 236.846 117.852 236.846C117.43 236.846 117.536 235.792 118.062 234.212C118.343 233.44 118.8 231.79 119.151 230.526C119.467 229.262 119.923 227.436 120.204 226.488C120.906 223.82 121.644 221.116 122.276 218.588C122.627 217.324 123.083 215.498 123.364 214.55C123.61 213.567 124.101 211.776 124.417 210.512C125.19 207.493 125.962 204.649 126.454 203.139C126.665 202.472 126.945 201.138 127.051 200.155C127.261 198.083 127.718 197.872 130.351 198.715C133.406 199.628 138.041 200.4 140.042 200.26C141.833 200.155 141.973 200.084 141.973 199.277C141.973 198.259 141.517 198.083 137.057 197.521C133.371 197.03 131.194 196.468 131.018 195.906C130.737 195.028 138.637 188.112 143.026 185.338C144.325 184.495 148.293 182.634 150.049 182.002C152.577 181.124 157.352 181.16 159.458 182.072C162.408 183.372 167.148 189.376 168.377 193.273C168.973 195.274 168.728 196.117 167.534 196.117C166.2 196.117 164.549 194.677 162.689 191.904C161.776 190.534 160.863 189.235 160.617 188.989C160.406 188.779 159.599 187.796 158.861 186.883C157.773 185.548 157.281 185.232 156.579 185.303C154.999 185.478 155.315 186.602 157.597 189.27C161.144 193.413 163.882 198.926 162.373 198.926C161.495 198.926 158.545 195.976 155.807 192.29C154.297 190.218 152.893 188.357 152.682 188.112C152.155 187.515 151.348 187.585 150.961 188.322C150.505 189.165 151.839 191.447 155.14 195.555C156.509 197.24 157.597 198.891 157.527 199.207C157.387 200.014 156.333 200.155 154.718 199.593C153.665 199.242 153.033 198.68 152.05 197.205C151.348 196.117 149.768 194.221 148.539 192.957L146.362 190.675L145.66 191.517C144.852 192.465 144.712 192.184 148.293 196.468C150.013 198.54 150.716 199.979 149.943 199.979C149.101 199.979 146.046 197.486 144.641 195.625C143.764 194.467 142.64 193.132 142.184 192.641C141.376 191.798 141.341 191.798 140.849 192.465C139.937 193.729 141.13 195.906 144.677 199.382C147.521 202.121 150.47 203.139 152.296 202.016C152.822 201.7 153.173 201.7 153.911 202.016C155.491 202.753 157.597 202.542 159.072 201.524C160.125 200.787 160.512 200.681 160.898 200.997C161.179 201.243 162.021 201.384 162.759 201.313C163.847 201.243 164.233 200.997 164.971 199.874C165.743 198.645 165.919 198.54 167.007 198.75C169.641 199.242 171.537 197.24 171.221 194.326C170.975 192.22 169.465 189.095 167.148 185.97C163.672 181.265 161.565 179.72 157.352 178.912C150.54 177.578 139.796 182.88 130.878 191.974C129.228 193.694 127.613 195.064 127.261 195.064C126.91 195.064 126.173 194.818 125.611 194.537C125.049 194.256 124.066 193.764 123.469 193.413C117.185 190.218 112.62 185.092 110.759 179.123C109.987 176.7 109.987 169.292 110.759 166.659C112.374 161.111 115.429 154.37 117.781 151.28C118.238 150.683 118.624 150.086 118.624 149.981C118.624 149.77 121.854 145.276 123.821 142.748C127.718 137.762 135.583 129.932 139.866 126.737C140.849 126 141.692 125.298 141.797 125.192C142.254 124.666 150.189 119.224 150.505 119.224C150.61 119.224 150.961 119.013 151.242 118.732C152.506 117.644 161.881 112.798 166.726 110.727C170.834 108.971 172.906 108.164 175.855 107.251C177.119 106.829 178.699 106.303 179.366 106.057C181.613 105.249 187.231 103.74 190.953 102.967C192.393 102.651 194.605 102.16 195.869 101.914C199.38 101.141 200.363 101.176 201.767 102.265ZM118.905 193.589C119.993 194.361 122.135 195.555 123.68 196.292C126.278 197.592 126.384 197.662 125.752 198.188C125.365 198.504 124.804 199.628 124.488 200.681C123.961 202.542 123.645 203.701 122.346 208.757C121.995 210.021 121.538 211.812 121.257 212.795C121.012 213.743 120.52 215.568 120.169 216.832C119.151 220.8 118.062 224.838 117.079 228.489C116.798 229.508 116.307 231.368 115.956 232.632C114.411 238.601 114.867 237.899 107.88 245.097C104.369 248.748 101.349 251.663 101.244 251.522C101.104 251.417 101.209 250.609 101.42 249.767C101.63 248.959 102.052 247.309 102.368 246.15C102.649 244.992 103.105 243.236 103.351 242.288C103.632 241.305 104.088 239.514 104.404 238.25C104.72 236.986 105.177 235.16 105.457 234.212C105.703 233.229 106.195 231.474 106.476 230.245C106.792 229.051 107.283 227.085 107.599 225.856C107.88 224.662 108.372 222.872 108.617 221.924C108.898 220.94 109.355 219.15 109.671 217.886C109.987 216.622 110.443 214.796 110.724 213.848C110.97 212.865 111.461 211.074 111.777 209.81C112.093 208.546 112.55 206.72 112.831 205.772C113.077 204.789 113.568 202.999 113.884 201.735C114.2 200.471 114.692 198.645 114.973 197.662C115.253 196.679 115.464 195.625 115.464 195.309C115.464 194.748 116.517 192.255 116.763 192.255C116.833 192.255 117.781 192.852 118.905 193.589ZM281.75 229.297C283.26 229.613 285.402 230.069 286.455 230.35C288.492 230.842 291.581 231.509 295.935 232.387C300.781 233.37 302.782 233.721 305.064 234.037C306.328 234.212 308.154 234.493 309.102 234.669C310.085 234.88 313.034 235.125 315.668 235.266C319.038 235.441 320.513 235.652 320.653 235.968C320.829 236.495 318.441 243.938 317.95 244.254C317.809 244.36 316.054 244.711 314.088 245.027C310.155 245.624 304.959 246.326 289.966 248.292C287.754 248.573 284.91 248.994 283.646 249.17C282.382 249.38 280.1 249.661 278.555 249.837C277.01 249.977 274.658 250.293 273.289 250.504C271.954 250.715 268.935 251.136 266.617 251.417C264.3 251.733 260.824 252.189 258.893 252.47C256.962 252.751 253.416 253.208 250.993 253.524C248.57 253.84 245.024 254.296 243.093 254.577C241.162 254.858 238.774 255.139 237.791 255.244C236.527 255.349 235.298 255.806 233.753 256.754C231.331 258.228 228.311 259.317 226.801 259.282C225.292 259.282 222.974 258.158 221.149 256.578C219.112 254.823 217.883 254.261 214.477 253.559C204.576 251.557 167.148 251.557 132.669 253.524C127.542 253.84 122.276 254.05 120.906 254.05C119.572 254.05 115.921 254.296 112.831 254.577C106.476 255.174 102.017 255.244 102.192 254.788C102.227 254.612 105.282 251.382 108.898 247.625C116.096 240.146 115.605 240.497 122.837 237.724C123.715 237.408 124.944 236.916 125.576 236.635C126.208 236.354 126.945 236.144 127.226 236.144C127.507 236.144 128.245 235.933 128.877 235.652C129.965 235.196 130.808 234.95 135.934 233.51C140.077 232.352 144.817 231.439 152.331 230.315C158.019 229.472 174.416 229.472 179.893 230.315C189.584 231.79 196.29 233.475 203.242 236.144C204.295 236.565 205.489 237.021 205.875 237.162C208.895 238.25 215.461 241.586 218.515 243.552C219.112 243.903 219.814 244.324 220.095 244.465C220.797 244.781 224.66 247.73 224.66 247.941C224.66 248.046 224.273 248.713 223.782 249.416C222.729 250.96 222.658 251.803 223.571 252.295C224.519 252.786 224.449 252.821 225.537 251.241C226.064 250.469 226.731 249.837 227.012 249.837C227.293 249.837 228.241 250.469 229.119 251.241C229.997 252.014 230.839 252.646 230.98 252.646C231.12 252.646 231.506 252.33 231.857 251.944C232.454 251.276 232.419 251.206 230.664 249.451C229.681 248.432 228.873 247.414 228.873 247.168C228.873 246.642 232.419 243.06 235.228 240.708C238.353 238.11 242.18 235.652 246.077 233.826C247.131 233.335 248.325 232.738 248.676 232.562C251.098 231.298 259.104 229.227 263.282 228.77C267.285 228.314 278.52 228.665 281.75 229.297Z" fill="#243252"/>
</svg>
