<svg width="476" height="382" viewBox="0 0 476 382" fill="none" xmlns="http://www.w3.org/2000/svg">
<path d="M222.553 0.383705C222.553 0.594376 222.132 0.910378 221.605 1.12104C218.761 2.2446 217.497 3.05215 215.776 4.7726L213.845 6.70371H211.388C208.965 6.70371 206.016 7.44104 203.698 8.59971C202.329 9.30193 200.328 11.5139 199.45 13.2695C198.572 14.9899 197.87 19.0277 198.186 20.5726C198.396 21.6962 198.256 21.977 196.641 23.6975C191.515 29.3153 191.48 35.6353 196.5 41.569L198.221 43.6055L198.396 47.1868C198.642 52.0321 199.801 54.4548 202.856 56.7019C205.208 58.4575 208.157 59.3704 211.247 59.3704H213.845L215.882 61.2313C219.463 64.5668 223.044 65.7957 226.696 64.9881C229.47 64.3913 230.839 63.6188 233.543 61.161C235.86 59.0544 235.965 59.0193 237.932 59.0193C241.969 58.9841 245.164 57.8255 247.482 55.5081C249.553 53.4366 250.326 51.365 250.536 47.1517L250.747 43.5353L252.608 41.7446C253.626 40.7615 254.96 39.041 255.557 37.8824C256.54 36.0566 256.681 35.4597 256.681 33.0019C256.681 31.0006 256.505 29.7366 256.049 28.7184C255.276 26.9277 252.643 23.3815 251.555 22.6793C250.817 22.1877 250.712 21.7664 250.536 18.501C250.291 14.0419 249.272 11.5842 246.78 9.44238C244.427 7.40593 242.32 6.70371 238.774 6.70371C235.825 6.70371 235.825 6.70371 234.245 5.29926C231.963 3.29793 229.645 1.82327 228.1 1.40193C227.328 1.22637 226.626 0.805038 226.52 0.524155C226.31 -0.0727386 222.553 -0.213181 222.553 0.383705ZM228.943 4.42149C229.786 4.87793 231.471 6.21215 232.735 7.40593C234.772 9.30193 235.123 9.5126 236.071 9.30193C239.512 8.52948 243.198 9.44238 245.375 11.6193C247.517 13.761 248.184 15.7975 248.184 20.0459V23.3815L249.413 24.189C251.941 25.9446 254.504 30.2984 254.504 32.8966C254.504 35.0033 252.643 38.3739 250.291 40.5157L248.184 42.4117V45.7122C248.184 50.9086 246.78 53.7526 243.304 55.5081C242.075 56.1401 241.092 56.2806 238.353 56.3157L234.947 56.3859L232.489 58.6681C229.189 61.8281 227.714 62.5304 224.66 62.5304C221.64 62.5304 220.025 61.7579 217.146 58.949L215.109 56.9126H212.406C206.683 56.9126 203.277 55.0517 201.451 50.9788C200.924 49.785 200.784 48.6615 200.784 45.9579V42.4468L198.853 40.3753C196.29 37.6015 195.517 35.7406 195.517 32.4753C195.517 29.3504 196.22 27.7704 198.923 24.9966L200.784 23.0655V19.6597C200.784 17.0615 200.96 15.9028 201.451 14.7442C202.224 13.0237 203.909 11.2682 205.524 10.4957C207.244 9.65304 210.896 9.09126 213.073 9.33704C214.969 9.54771 215.109 9.5126 215.706 8.59971C217.216 6.28238 220.516 3.75438 222.412 3.43837C224.379 3.08727 227.398 3.57882 228.943 4.42149Z" fill="#243252"/>
<path d="M221.851 14.9547C218.585 16.1134 215.671 21.38 217.497 22.8898C218.34 23.5569 219.147 22.8898 219.569 21.1342C220.341 18.0796 222.939 16.5698 226.31 17.2018C229.084 17.7285 230.242 19.1329 230.277 21.9769C230.277 24.0485 230.242 24.1187 228.171 26.5414C227.012 27.8756 225.573 29.9471 225.011 31.1058C224.028 32.9667 223.922 33.4934 224.028 35.6702C224.133 38.0227 224.168 38.128 225.046 38.2334C225.959 38.3387 225.994 38.2685 226.134 36.3022C226.345 33.6689 227.609 31.0356 230.207 28.016C232.911 24.856 233.613 22.4334 232.63 19.6947C231.225 15.6218 226.169 13.4098 221.851 14.9547Z" fill="#243252"/>
<path d="M224.028 42.7277C222.904 43.5002 223.115 45.1855 224.414 46.1335L225.362 46.8708L226.345 46.1335C227.539 45.2557 227.749 43.8513 226.801 42.9033C225.924 42.0255 225.081 41.9553 224.028 42.7277Z" fill="#243252"/>
<path d="M220.973 115.759C215.812 116.988 210.194 119.235 206.577 121.552C206.016 121.903 205.278 122.325 204.997 122.465C204.717 122.57 202.645 124.08 200.433 125.765C196.009 129.171 191.409 133.455 188.46 136.966C187.407 138.195 186.353 139.459 186.108 139.705C185.897 139.95 184.949 141.179 184.071 142.443L182.456 144.69H177.119C171.712 144.69 169.36 145.041 164.83 146.586C158.265 148.833 151.207 154.311 147.275 160.245C142.781 167.091 139.691 176.677 139.691 183.839C139.691 193.284 143.729 203.08 151.032 211.437C154.859 215.79 162.934 222.637 164.304 222.637C164.514 222.637 164.62 222.918 164.549 223.234C164.479 223.655 162.864 224.638 160.231 225.973C156.649 227.763 153.805 229.308 150.505 231.239C146.959 233.311 139.094 238.893 136.004 241.562C131.721 245.284 123.61 253.921 120.38 258.275C118.343 261.013 116.482 263.541 116.272 263.893C114.937 265.999 112.304 270.458 112.304 270.599C112.304 270.669 111.848 271.722 111.321 272.916C105.809 285.065 106.265 295.071 112.725 303.182C113.673 304.341 114.411 305.394 114.411 305.534C114.411 305.675 114.06 306.201 113.638 306.693L112.831 307.606L103.175 307.957C97.8734 308.133 90.6054 308.449 87.0241 308.624C83.4428 308.835 75.4725 309.256 69.293 309.537C63.1134 309.818 53.8792 310.309 48.753 310.59C43.6268 310.906 38.1143 311.117 36.4641 311.117C34.8139 311.117 30.2494 311.363 26.2819 311.644C22.3143 311.925 17.3988 312.17 15.3623 312.17C11.6054 312.17 3.24899 312.732 1.77432 313.048C0.861433 313.259 0.720989 314.312 1.52854 314.979C1.98499 315.365 4.12677 315.33 13.045 314.839C19.0841 314.523 28.6694 314.031 34.3574 313.75C40.0454 313.469 47.8752 313.083 51.7374 312.873C55.5997 312.662 62.4814 312.346 67.0108 312.17C71.5401 311.995 77.2281 311.679 79.6508 311.503C82.0734 311.293 85.8654 311.117 88.0774 311.117C90.2894 311.117 95.2752 310.871 99.1374 310.59C107.283 309.993 112.164 309.923 112.48 310.415C112.655 310.696 110.549 315.962 106.476 325.407C105.352 328.005 104.896 329.094 104.439 330.147C103.597 332.219 101.981 335.941 101.279 337.556C101.033 338.153 99.5588 341.593 98.0841 345.175C96.6094 348.756 95.1348 352.197 94.889 352.794C94.2219 354.269 93.4494 356.059 92.8174 357.639C92.5365 358.306 92.045 359.43 91.7641 360.097C91.4832 360.764 91.0268 361.888 90.7459 362.555C90.4299 363.257 89.9734 364.345 89.6925 365.013C89.3765 365.715 88.9201 366.768 88.6392 367.4C86.2517 372.877 83.1619 380.461 83.1619 380.883C83.1619 381.339 83.4779 381.409 85.1983 381.199C86.2868 381.058 89.9032 380.813 93.1685 380.637C96.469 380.461 101.525 380.145 104.404 379.935C107.318 379.724 113.077 379.338 117.22 379.057C121.363 378.776 127.226 378.355 130.211 378.144C133.195 377.933 138.111 377.617 141.095 377.477C144.08 377.337 148.749 377.021 151.453 376.81C154.157 376.599 160.161 376.213 164.795 375.897C169.43 375.616 175.364 375.195 177.962 374.984C180.56 374.773 185.23 374.493 188.32 374.317C191.409 374.177 196.22 373.861 199.029 373.65C201.837 373.439 206.648 373.088 209.737 372.877C212.827 372.667 215.987 372.421 216.76 372.351C218.024 372.175 218.34 372.316 219.744 373.615C222.202 375.897 223.922 376.494 227.469 376.318C230.699 376.178 232.033 375.792 234.456 374.212C236.106 373.158 238.002 372.737 245.726 371.719C250.817 371.052 257.137 370.209 261.877 369.577C263.914 369.296 267.46 368.84 269.777 368.524C288.035 366.101 289.65 365.89 292.073 365.504C293.337 365.293 295.619 365.013 297.164 364.837C298.709 364.697 301.097 364.381 302.431 364.17C303.8 363.994 306.714 363.573 308.926 363.292C320.337 361.782 320.232 361.817 320.689 359.676C320.829 359.114 321.11 358.131 321.391 357.464C321.637 356.797 322.198 355.111 322.62 353.777C323.533 350.828 324.129 350.09 325.569 350.09C327.254 350.09 329.291 348.545 329.291 347.246C329.291 346.895 327.36 344.683 325.007 342.296C318.617 335.905 316.861 333.869 310.998 326.039C307.697 321.685 304.853 317.542 301.272 311.995C299.622 309.467 299.797 309.186 303.133 309.116C304.678 309.045 308.751 308.765 312.192 308.484C315.668 308.203 319.6 307.957 320.969 307.957C322.374 307.957 327.044 307.746 331.397 307.43C335.751 307.149 343.405 306.658 348.426 306.377C353.447 306.096 361.101 305.605 365.455 305.324C369.809 305.008 374.303 304.797 375.497 304.797C377.814 304.797 378.938 304.235 378.727 303.182C378.622 302.55 378.306 302.515 373.18 302.585C370.195 302.655 363.945 302.901 359.311 303.217C354.676 303.498 346.776 303.989 341.755 304.27C336.734 304.551 330.169 304.973 327.184 305.183C324.2 305.359 318.582 305.675 314.72 305.85C310.857 306.026 306.293 306.342 304.537 306.517C302.501 306.728 301.237 306.728 301.026 306.517C300.816 306.307 300.71 304.446 300.781 301.883C300.991 295.317 299.13 283.906 297.129 279.236C296.848 278.604 296.637 277.867 296.637 277.586C296.637 277.305 296.427 276.568 296.146 275.936C295.865 275.304 295.303 273.899 294.882 272.846C289.475 259.398 280.1 246.864 266.266 234.75C264.721 233.381 262.861 231.731 262.088 231.029L260.684 229.765L262.79 227.693C267.601 222.953 269.777 218.74 270.655 212.56C271.498 206.942 269.497 198.691 266.056 193.319C265.705 192.722 265.283 192.02 265.143 191.739C264.897 191.177 261.983 187.28 261.281 186.543C260.965 186.227 260.824 184.857 260.824 182.154C260.824 179.099 260.684 177.835 260.157 176.466C259.279 174.184 258.401 172.498 257.98 172.253C257.805 172.112 257.664 171.656 257.664 171.234C257.664 170.392 258.401 169.97 260.017 169.97C261.386 169.97 266.442 167.548 270.129 165.125C272.762 163.369 279.012 157.436 279.819 155.856C283.225 149.395 283.997 145.919 283.295 140.758C281.961 131.067 275.465 122.009 267.846 119.129C266.021 118.427 261.913 117.655 260.122 117.655C256.821 117.69 251.133 118.989 248.711 120.253C247.166 121.061 246.78 120.99 243.058 119.059C241.197 118.076 239.441 117.304 239.196 117.304C238.95 117.304 238.213 117.093 237.581 116.812C233.718 115.197 225.573 114.67 220.973 115.759ZM220.376 155.399C222.237 160.209 227.82 165.406 235.123 169.093C236.492 169.795 237.651 170.462 237.651 170.567C237.651 170.673 237.194 171.34 236.668 172.042C235.72 173.271 234.772 175.202 234.28 176.993C233.929 178.221 233.508 178.432 231.506 178.186C228.803 177.835 228.627 177.66 228.381 174.991C228.136 172.709 227.293 169.83 226.345 168.145C224.484 164.844 220.973 162 217.673 161.052C216.514 160.736 215.531 160.28 215.531 160.104C215.531 159.893 215.917 159.226 216.373 158.629C216.83 157.997 217.637 156.663 218.164 155.645C218.691 154.627 219.288 153.854 219.498 153.925C219.674 153.96 220.06 154.662 220.376 155.399ZM219.288 164.317C221.886 165.687 223.887 168.25 225.221 171.937C227.012 176.887 225.783 183.558 222.483 186.789C221.394 187.842 220.797 187.912 220.797 186.999C220.797 186.227 218.726 184.717 217.637 184.717C217.041 184.717 216.233 185.103 215.566 185.735C214.583 186.648 214.477 186.964 214.477 188.72C214.477 190.967 214.302 191.072 211.528 190.124C209.176 189.317 206.297 186.578 205.068 183.909C202.469 178.467 202.961 172.569 206.332 167.793C207.525 166.073 210.51 163.861 212.02 163.545C213.986 163.124 217.813 163.545 219.288 164.317ZM251.765 169.689C254.645 171.199 256.892 174.254 258.015 178.292C259.139 182.154 258.823 185.384 256.927 189.492C255.909 191.739 253.626 194.057 251.52 195.04C250.501 195.566 249.483 195.953 249.273 195.953C249.062 195.953 249.027 195.215 249.132 194.092C249.308 192.441 249.202 192.125 248.36 191.107C247.587 190.159 247.166 189.984 245.937 189.984C244.006 189.984 243.128 190.686 242.566 192.617C242.321 193.495 241.934 194.197 241.689 194.197C241.057 194.197 238.529 191.318 237.616 189.562C236.703 187.772 235.93 184.471 235.93 182.259C235.93 176.009 240.003 170.041 245.024 168.882C246.885 168.461 250.185 168.882 251.765 169.689ZM186.424 169.268C187.688 169.97 189.724 173.692 190.145 176.115C190.391 177.449 190.848 178.046 191.655 178.046C192.463 178.046 192.779 177.203 192.498 175.764C192.393 175.097 192.463 174.535 192.673 174.394C192.954 174.184 199.134 177.168 200.293 178.081C200.503 178.257 200.96 179.45 201.276 180.749C202.224 184.436 203.839 187.315 206.261 189.597C209.141 192.301 211.633 193.249 215.215 193.038C218.269 192.863 219.639 192.371 222.132 190.581C224.273 189.036 226.696 185.525 227.679 182.54L228.346 180.504H230.207C232.981 180.504 233.437 180.855 233.437 183.102C233.437 186.964 235.72 192.196 238.599 194.934C241.302 197.497 243.585 198.41 247.306 198.41C250.08 198.41 250.572 198.305 252.784 197.181C255.347 195.917 255.593 195.988 254.785 197.954C253.486 201.149 252.117 203.782 250.747 205.959C248.676 209.154 242.566 215.264 241.443 215.264C240.67 215.264 238.493 214.316 237.545 213.578C237.3 213.403 236.281 213.052 235.298 212.806C233.367 212.385 231.998 212.56 228.206 213.719C227.328 214 226.24 214.21 225.748 214.21C223.993 214.21 221.956 216.036 220.692 218.775C219.463 221.373 218.831 222.11 217.813 222.04C214.829 221.9 209.667 219.688 205.173 216.633C202.399 214.737 198.256 210.629 196.711 208.241C193.235 202.799 191.304 196.971 191.304 191.845C191.304 188.685 190.742 187.526 189.127 187.526C187.372 187.526 183.685 185.911 182.07 184.401C178.629 181.206 179.085 174.219 182.983 170.041C184.106 168.882 185.195 168.636 186.424 169.268ZM239.687 217.616C242.145 218.88 244.989 220.39 246.007 220.917C247.025 221.443 249.027 222.918 250.396 224.147C253.837 227.201 258.261 231.099 261.667 234.048C263.247 235.382 265.248 237.138 266.091 237.91C268.373 239.947 275.536 247.109 277.291 249.146C278.801 250.866 283.401 256.941 284.243 258.275C291.827 270.493 294.812 277.551 297.129 288.997C297.866 292.684 298.533 300.865 298.253 302.796C298.007 304.516 297.164 305.078 296.778 303.814C296.532 303.182 292.845 295.703 290.353 290.893C289.053 288.33 288.737 287.979 287.403 287.452C286.561 287.136 285.648 286.89 285.297 286.89C284.945 286.89 283.787 286.68 282.663 286.399C277.748 285.17 272.937 284.749 264.16 284.819C259.42 284.819 255.417 284.749 255.312 284.643C255.206 284.538 255.136 283.309 255.171 281.905C255.277 278.077 254.574 266.526 253.942 262.313C252.889 254.904 251.765 250.866 249.518 246.161C245.832 238.542 242.953 236.822 238.072 239.42C236.281 240.403 235.579 240.579 234.069 240.473C232.314 240.368 232.209 240.298 232.103 239.385C231.857 237.278 236.422 234.399 239.301 234.821C241.267 235.137 241.794 232.749 239.898 232.257C237.686 231.696 234.315 232.925 231.577 235.277C230.172 236.471 229.47 236.681 228.487 236.19C227.785 235.839 227.644 235.523 227.679 234.329C227.679 233.521 227.96 232.468 228.276 231.977C229.294 230.467 231.857 229.203 234.456 228.992C236.352 228.817 236.773 228.676 236.878 228.114C237.089 227.061 236.492 226.815 233.824 226.815C231.05 226.815 230.348 227.096 227.047 229.554C224.554 231.45 223.957 231.485 223.957 229.835C223.957 227.833 225.818 225.411 229.329 222.813C230.664 221.829 231.015 220.741 230.137 220.425C229.329 220.109 228.101 220.601 226.24 221.935C224.273 223.409 222.729 223.901 222.026 223.339C221.429 222.848 221.71 221.865 223.15 219.442C224.344 217.335 225.818 216.352 227.714 216.282C228.241 216.282 229.259 216.036 229.926 215.79C230.593 215.545 232.068 215.299 233.192 215.299C235.088 215.264 235.649 215.474 239.687 217.616ZM201.767 217.265C205.278 219.933 212.195 223.69 213.6 223.69C213.916 223.69 214.513 223.866 214.899 224.077C215.285 224.287 216.444 224.603 217.427 224.744C219.182 225.025 221.64 225.797 222.026 226.218C222.167 226.324 222.061 227.096 221.851 227.939C221.605 228.781 221.535 230.116 221.675 230.993C221.886 232.328 222.097 232.644 223.431 233.451C224.695 234.224 224.976 234.61 225.011 235.453C225.046 236.752 226.205 238.226 227.714 238.858C228.452 239.139 229.119 239.841 229.681 240.86C231.155 243.704 234.421 244.055 238.774 241.808C240.109 241.105 241.478 240.544 241.829 240.544C243.093 240.579 245.691 243.739 247.412 247.39C250.817 254.553 252.503 265.086 252.327 277.937L252.222 285.661L251.344 285.767C248.711 286.048 240.67 288.295 237.651 289.594C236.984 289.91 235.86 290.366 235.193 290.682C234.034 291.174 232.454 291.946 230.593 292.965C228.241 294.229 224.309 297.037 221.675 299.32C221.113 299.811 220.517 300.233 220.376 300.233C220.236 300.233 219.569 299.53 218.831 298.653C217.427 296.932 213.284 293.386 210.51 291.49C209.562 290.858 206.999 289.418 204.752 288.295C194.324 282.993 180.139 280.641 167.604 282.115C160.793 282.923 154.613 284.081 150.575 285.31C146.959 286.434 146.643 286.364 145.484 284.608C144.993 283.801 144.817 282.923 144.852 280.921C144.852 277.761 145.554 276.217 148.363 273.162C150.4 270.985 150.645 269.932 149.206 269.756C147.556 269.51 143.623 274.391 142.57 277.972C141.727 280.816 142.184 284.011 143.799 286.609C145.238 288.962 146.257 289.313 148.995 288.365C150.154 287.944 153.068 287.206 156.544 286.399C168.973 283.59 182.07 283.59 192.884 286.434C195.517 287.136 198.888 288.225 199.661 288.611C199.977 288.786 200.96 289.208 201.837 289.559C204.26 290.542 210.58 294.369 212.546 296.054C215.215 298.337 218.34 301.742 218.515 302.515C218.761 303.779 220.306 315.12 221.324 323.055C222.342 331.06 222.939 335.484 223.466 338.855C223.747 340.681 223.957 342.717 223.957 343.349C223.957 344.227 224.133 344.578 224.765 344.789C226.591 345.491 226.731 344.192 225.537 335.87C225.257 333.939 224.8 330.498 224.484 328.216C224.203 325.969 223.712 322.247 223.396 319.965C223.115 317.718 222.623 314.031 222.342 311.819C222.061 309.607 221.675 306.833 221.535 305.675C221.289 304.06 221.359 303.393 221.71 302.761C222.167 302.058 228.346 297.108 229.891 296.23C232.876 294.545 240.179 291.104 240.776 291.104C240.986 291.104 241.653 290.893 242.285 290.612C244.778 289.524 251.344 288.119 256.611 287.557C265.74 286.539 277.467 287.347 285.297 289.559L287.122 290.085L288.913 293.667C299.341 314.277 299.868 315.155 308.189 326.425C312.929 332.851 317.388 338.188 322.339 343.279C324.235 345.21 325.78 347.001 325.78 347.211C325.78 347.422 325.393 347.703 324.902 347.843C323.603 348.159 313.034 347.808 309.98 347.317C303.449 346.263 300.5 345.772 298.217 345.315C294.285 344.508 290.669 343.735 288.386 343.244C273.85 339.943 265.318 339.943 253.451 343.314C244.568 345.807 235.404 351.425 228.487 358.657L226.485 360.764L223.361 358.657C219.92 356.34 219.814 356.305 217.216 354.865C212.757 352.408 208.052 350.266 203.242 348.51C202.575 348.265 201.381 347.808 200.609 347.527C199.836 347.246 198.186 346.72 196.922 346.404C195.658 346.053 193.937 345.596 193.06 345.35C188.565 344.086 181.297 342.893 175.153 342.366C159.388 341.067 141.973 343.384 126.349 348.861C124.909 349.388 123.329 349.88 122.837 349.985C122.346 350.09 121.784 350.301 121.609 350.477C121.222 350.757 118.273 351.846 117.852 351.846C117.43 351.846 117.536 350.793 118.062 349.213C118.343 348.44 118.8 346.79 119.151 345.526C119.467 344.262 119.923 342.436 120.204 341.488C120.906 338.82 121.644 336.116 122.276 333.588C122.627 332.324 123.083 330.498 123.364 329.55C123.61 328.567 124.101 326.777 124.417 325.513C125.19 322.493 125.962 319.649 126.454 318.139C126.665 317.472 126.945 316.138 127.051 315.155C127.261 313.083 127.718 312.873 130.351 313.715C133.406 314.628 138.041 315.401 140.042 315.26C141.833 315.155 141.973 315.085 141.973 314.277C141.973 313.259 141.517 313.083 137.057 312.521C133.371 312.03 131.194 311.468 131.018 310.906C130.737 310.029 138.637 303.112 143.026 300.338C144.325 299.495 148.293 297.634 150.049 297.002C152.577 296.125 157.352 296.16 159.458 297.073C162.408 298.372 167.148 304.376 168.377 308.273C168.973 310.274 168.728 311.117 167.534 311.117C166.2 311.117 164.549 309.677 162.689 306.904C161.776 305.534 160.863 304.235 160.617 303.989C160.406 303.779 159.599 302.796 158.861 301.883C157.773 300.549 157.281 300.233 156.579 300.303C154.999 300.478 155.315 301.602 157.597 304.27C161.144 308.413 163.882 313.926 162.373 313.926C161.495 313.926 158.545 310.977 155.807 307.29C154.297 305.218 152.893 303.357 152.682 303.112C152.155 302.515 151.348 302.585 150.961 303.322C150.505 304.165 151.839 306.447 155.14 310.555C156.509 312.241 157.597 313.891 157.527 314.207C157.387 315.014 156.333 315.155 154.718 314.593C153.665 314.242 153.033 313.68 152.05 312.205C151.348 311.117 149.768 309.221 148.539 307.957L146.362 305.675L145.66 306.517C144.852 307.465 144.712 307.185 148.293 311.468C150.013 313.54 150.716 314.979 149.943 314.979C149.101 314.979 146.046 312.486 144.641 310.625C143.764 309.467 142.64 308.133 142.184 307.641C141.376 306.798 141.341 306.798 140.849 307.465C139.937 308.729 141.13 310.906 144.677 314.382C147.521 317.121 150.47 318.139 152.296 317.016C152.822 316.7 153.173 316.7 153.911 317.016C155.491 317.753 157.597 317.542 159.072 316.524C160.125 315.787 160.512 315.681 160.898 315.997C161.179 316.243 162.021 316.384 162.759 316.313C163.847 316.243 164.233 315.997 164.971 314.874C165.743 313.645 165.919 313.54 167.007 313.75C169.641 314.242 171.537 312.241 171.221 309.326C170.975 307.22 169.465 304.095 167.148 300.97C163.672 296.265 161.565 294.72 157.352 293.913C150.54 292.578 139.796 297.88 130.878 306.974C129.228 308.694 127.613 310.064 127.261 310.064C126.91 310.064 126.173 309.818 125.611 309.537C125.049 309.256 124.066 308.765 123.469 308.413C117.185 305.218 112.62 300.092 110.759 294.123C109.987 291.701 109.987 284.292 110.759 281.659C112.374 276.111 115.429 269.37 117.781 266.28C118.238 265.683 118.624 265.086 118.624 264.981C118.624 264.77 121.854 260.276 123.821 257.748C127.718 252.762 135.583 244.933 139.866 241.737C140.849 241 141.692 240.298 141.797 240.193C142.254 239.666 150.189 234.224 150.505 234.224C150.61 234.224 150.961 234.013 151.242 233.732C152.506 232.644 161.881 227.798 166.726 225.727C170.834 223.971 172.906 223.164 175.855 222.251C177.119 221.829 178.699 221.303 179.366 221.057C181.613 220.249 187.231 218.74 190.953 217.967C192.393 217.651 194.605 217.16 195.869 216.914C199.38 216.141 200.363 216.177 201.767 217.265ZM118.905 308.589C119.993 309.361 122.135 310.555 123.68 311.293C126.278 312.592 126.384 312.662 125.752 313.189C125.365 313.505 124.804 314.628 124.488 315.681C123.961 317.542 123.645 318.701 122.346 323.757C121.995 325.021 121.538 326.812 121.257 327.795C121.012 328.743 120.52 330.569 120.169 331.833C119.151 335.8 118.062 339.838 117.079 343.489C116.798 344.508 116.307 346.369 115.956 347.633C114.411 353.601 114.867 352.899 107.88 360.097C104.369 363.749 101.349 366.663 101.244 366.522C101.104 366.417 101.209 365.609 101.42 364.767C101.63 363.959 102.052 362.309 102.368 361.15C102.649 359.992 103.105 358.236 103.351 357.288C103.632 356.305 104.088 354.514 104.404 353.25C104.72 351.986 105.177 350.161 105.457 349.213C105.703 348.229 106.195 346.474 106.476 345.245C106.792 344.051 107.283 342.085 107.599 340.856C107.88 339.662 108.372 337.872 108.617 336.924C108.898 335.941 109.355 334.15 109.671 332.886C109.987 331.622 110.443 329.796 110.724 328.848C110.97 327.865 111.461 326.074 111.777 324.81C112.093 323.546 112.55 321.721 112.831 320.773C113.077 319.789 113.568 317.999 113.884 316.735C114.2 315.471 114.692 313.645 114.973 312.662C115.253 311.679 115.464 310.625 115.464 310.309C115.464 309.748 116.517 307.255 116.763 307.255C116.833 307.255 117.781 307.852 118.905 308.589ZM281.75 344.297C283.26 344.613 285.402 345.069 286.455 345.35C288.492 345.842 291.581 346.509 295.935 347.387C300.781 348.37 302.782 348.721 305.064 349.037C306.328 349.213 308.154 349.493 309.102 349.669C310.085 349.88 313.034 350.125 315.668 350.266C319.038 350.441 320.513 350.652 320.653 350.968C320.829 351.495 318.441 358.938 317.95 359.254C317.809 359.36 316.054 359.711 314.088 360.027C310.155 360.624 304.959 361.326 289.966 363.292C287.754 363.573 284.91 363.994 283.646 364.17C282.382 364.381 280.1 364.661 278.555 364.837C277.01 364.977 274.658 365.293 273.289 365.504C271.954 365.715 268.935 366.136 266.617 366.417C264.3 366.733 260.824 367.189 258.893 367.47C256.962 367.751 253.416 368.208 250.993 368.524C248.57 368.84 245.024 369.296 243.093 369.577C241.162 369.858 238.774 370.139 237.791 370.244C236.527 370.349 235.298 370.806 233.753 371.754C231.331 373.229 228.311 374.317 226.801 374.282C225.292 374.282 222.974 373.158 221.149 371.578C219.112 369.823 217.883 369.261 214.477 368.559C204.576 366.557 167.148 366.557 132.669 368.524C127.542 368.84 122.276 369.05 120.906 369.05C119.572 369.05 115.921 369.296 112.831 369.577C106.476 370.174 102.017 370.244 102.192 369.788C102.227 369.612 105.282 366.382 108.898 362.625C116.096 355.146 115.605 355.497 122.837 352.724C123.715 352.408 124.944 351.916 125.576 351.635C126.208 351.354 126.945 351.144 127.226 351.144C127.507 351.144 128.245 350.933 128.877 350.652C129.965 350.196 130.808 349.95 135.934 348.51C140.077 347.352 144.817 346.439 152.331 345.315C158.019 344.473 174.416 344.473 179.893 345.315C189.584 346.79 196.29 348.475 203.242 351.144C204.295 351.565 205.489 352.021 205.875 352.162C208.895 353.25 215.461 356.586 218.515 358.552C219.112 358.903 219.814 359.325 220.095 359.465C220.797 359.781 224.66 362.73 224.66 362.941C224.66 363.046 224.273 363.713 223.782 364.416C222.729 365.961 222.658 366.803 223.571 367.295C224.519 367.786 224.449 367.821 225.537 366.241C226.064 365.469 226.731 364.837 227.012 364.837C227.293 364.837 228.241 365.469 229.119 366.241C229.997 367.014 230.839 367.646 230.98 367.646C231.12 367.646 231.506 367.33 231.857 366.944C232.454 366.277 232.419 366.206 230.664 364.451C229.681 363.433 228.873 362.414 228.873 362.169C228.873 361.642 232.419 358.061 235.228 355.708C238.353 353.11 242.18 350.652 246.077 348.826C247.131 348.335 248.325 347.738 248.676 347.562C251.098 346.298 259.104 344.227 263.282 343.77C267.285 343.314 278.52 343.665 281.75 344.297Z" fill="#243252"/>
<path d="M211.212 178.081C208.544 179.486 207.139 183.348 209.211 183.594C209.948 183.664 210.194 183.418 210.721 182.259C211.423 180.714 212.792 179.802 214.407 179.802C214.934 179.802 215.706 179.591 216.057 179.31C216.725 178.818 216.725 178.783 216.093 178.081C215.215 177.133 213.038 177.133 211.212 178.081Z" fill="#243252"/>
<path d="M244.146 179.029C241.689 179.872 240.109 180.89 239.898 181.803C239.441 183.523 240.53 183.769 242.531 182.4C245.094 180.714 247.868 180.855 251.098 182.891C251.941 183.418 252.117 183.418 252.397 182.961C252.573 182.68 252.749 182.224 252.749 181.978C252.749 180.784 248.746 178.432 246.78 178.432C246.288 178.432 245.129 178.713 244.146 179.029Z" fill="#243252"/>
<path d="M185.897 174.921C184.738 176.29 184.212 178.362 184.668 179.766C185.195 181.417 186.002 182.329 186.845 182.189C187.969 182.013 188.39 181.03 187.688 180.223C186.88 179.345 186.95 177.87 187.793 176.466C188.179 175.834 188.39 175.061 188.285 174.745C187.969 173.938 186.669 174.043 185.897 174.921Z" fill="#243252"/>
<path d="M229.681 185.314C228.978 185.595 229.154 186.753 230.172 188.895C231.893 192.477 232.49 195.847 231.647 197.462C231.155 198.375 229.891 199.429 229.33 199.464C228.382 199.464 226.415 200.693 226.415 201.254C226.415 202.062 227.328 202.764 228.066 202.518C232.841 201.009 234.491 199.183 234.491 195.356C234.491 191.95 231.682 184.928 230.348 185.103C230.207 185.103 229.891 185.209 229.681 185.314Z" fill="#243252"/>
<path d="M219.99 208.136C219.077 209.014 220.517 211.437 222.553 212.455C224.309 213.333 225.713 213.333 227.504 212.42C228.592 211.893 228.908 211.542 228.803 210.945C228.662 210.032 227.188 209.716 225.713 210.348C224.519 210.84 222.974 210.173 222.061 208.803C221.5 207.926 220.481 207.61 219.99 208.136Z" fill="#243252"/>
<path d="M256.786 301.146C252.538 302.164 248.676 303.533 246.288 304.902C245.34 305.429 244.497 305.85 244.427 305.85C244.111 305.85 239.863 309.186 238.248 310.731C235.72 313.118 233.438 316.208 233.438 317.226C233.438 319.087 234.947 318.806 236.317 316.665C237.475 314.804 241.794 310.59 244.076 309.081C246.183 307.676 252.117 304.797 252.924 304.797C253.24 304.797 253.802 304.622 254.153 304.446C255.452 303.744 261.035 302.971 264.686 302.936C268.478 302.901 272.165 303.393 275.606 304.341C278.099 305.008 278.871 304.867 279.012 303.709C279.117 302.936 278.906 302.726 277.607 302.269C272.867 300.584 261.667 299.987 256.786 301.146Z" fill="#FC766A"/>
<path d="M187.828 308.624C185.089 309.432 184.282 310.345 185.651 311.082C186.108 311.328 187.231 311.293 189.408 310.906C194.815 309.958 201.1 311.152 207.701 314.382C209.527 315.295 209.948 315.366 210.405 315.014C211.809 313.856 210.299 312.522 205.524 310.661C199.029 308.168 192.112 307.36 187.828 308.624Z" fill="#FC766A"/>
<path d="M264.335 316.981C259.349 318.104 253.626 320.281 250.115 322.458C246.534 324.67 240.53 330.112 238.915 332.605C238.177 333.729 238.388 335.344 239.266 335.344C239.582 335.344 240.249 334.817 240.741 334.22C242.707 331.833 247.377 327.303 249.202 326.074C261.386 317.613 275.852 316.454 292.073 322.704C296.111 324.249 295.97 324.249 296.497 323.687C297.269 322.914 296.743 322.107 294.952 321.264C294.039 320.878 292.845 320.316 292.319 320.035C291.757 319.754 291.09 319.544 290.844 319.544C290.563 319.544 289.826 319.333 289.194 319.052C287.825 318.455 284.875 317.683 281.083 316.946C277.537 316.208 267.601 316.243 264.335 316.981Z" fill="#FC766A"/>
<path d="M156.72 325.372C152.752 326.074 148.925 326.917 146.889 327.549C140.569 329.48 139.621 329.936 139.761 331.13C139.866 331.868 140.042 332.008 140.92 331.973C141.517 331.938 143.097 331.516 144.431 331.025C151.839 328.392 159.704 327.092 168.482 327.092C173.433 327.092 180.174 327.654 183.755 328.392C184.738 328.567 186.318 328.848 187.266 329.024C192.533 329.866 203.066 332.921 207.385 334.852C207.982 335.098 209.035 335.554 209.667 335.835C210.264 336.116 211.809 336.853 213.038 337.45C215.285 338.539 215.32 338.539 216.022 337.836C216.97 336.853 216.444 336.327 212.757 334.606C207.771 332.289 205.91 331.481 204.471 331.13C203.488 330.849 202.575 330.568 199.731 329.55C199.064 329.304 197.484 328.848 196.22 328.497C194.956 328.181 193.13 327.689 192.147 327.408C191.164 327.128 190.075 326.917 189.689 326.917C189.338 326.917 188.004 326.706 186.74 326.425C181.297 325.196 176.803 324.81 168.131 324.845C162.513 324.88 158.545 325.056 156.72 325.372Z" fill="#FC766A"/>
<path d="M258.893 352.583C258.121 352.759 256.786 353.04 255.909 353.18C251.098 354.093 243.655 358.447 240.846 361.993C238.318 365.188 240.354 365.996 243.339 362.941C246.464 359.816 249.905 357.709 254.68 356.094C256.821 355.392 262.72 354.69 265.88 354.795C267.952 354.83 268.794 354.023 267.741 353.005C267.249 352.478 266.442 352.373 263.703 352.302C261.842 352.267 259.665 352.408 258.893 352.583Z" fill="#243252"/>
<path d="M316.651 181.592C313.842 182.575 311.103 183.488 310.506 183.664C309.945 183.804 308.891 184.155 308.224 184.401C307.557 184.612 306.433 184.998 305.766 185.244C305.099 185.489 303.976 185.876 303.309 186.086C302.641 186.332 301.623 186.648 301.026 186.824C298.358 187.561 297.691 187.982 297.691 189.001C297.691 191.318 306.188 200.763 311.735 204.66C315.808 207.539 320.197 209.505 324.726 210.489C330.239 211.682 332.451 211.085 337.998 206.907C340.245 205.187 344.494 202.097 347.373 200.025C353.342 195.707 354.571 194.653 354.571 193.811C354.571 193.109 352.253 192.09 350.638 192.09C349.199 192.09 344.564 190.932 339.473 189.246C333.925 187.456 328.237 184.401 324.551 181.206C323.673 180.433 322.655 179.801 322.339 179.837C322.023 179.837 319.46 180.644 316.651 181.592ZM323.708 182.47C325.429 184.296 329.747 186.894 335.435 189.457C337.928 190.581 346.144 192.968 348.777 193.319C349.761 193.46 350.884 193.776 351.341 194.057L352.148 194.583L350.287 195.917C349.269 196.62 344.915 199.85 340.667 203.045C333.048 208.733 332.837 208.838 330.73 209.084C323.006 209.962 314.649 206.205 306.609 198.235C303.379 195.005 299.446 190.265 299.446 189.597C299.446 189.211 302.045 187.877 302.747 187.877C303.063 187.877 303.8 187.666 304.432 187.385C305.907 186.789 307.733 186.157 309.102 185.77C310.401 185.419 312.227 184.752 313.737 184.12C314.333 183.874 315.071 183.664 315.352 183.664C315.633 183.664 316.335 183.418 316.861 183.137C317.423 182.856 318.125 182.61 318.441 182.61C318.757 182.61 319.495 182.365 320.021 182.084C321.531 181.311 322.725 181.417 323.708 182.47Z" fill="#243252"/>
<path d="M319.284 189.036C318.055 189.949 316.3 190.721 313.315 191.564C310.647 192.336 310.577 192.406 311.068 193.003C311.595 193.635 313.14 193.389 316.37 192.196C319.319 191.107 321.04 189.984 321.04 189.106C321.04 188.158 320.478 188.123 319.284 189.036Z" fill="#FC766A"/>
<path d="M323.568 194.689C322.795 195.812 320.092 197.357 318.793 197.357C317.564 197.357 317.072 197.919 317.739 198.621C319.144 199.99 325.885 196.128 325.183 194.337C324.902 193.6 324.165 193.741 323.568 194.689Z" fill="#FC766A"/>
<path d="M332.872 195.672C332.626 195.918 332.451 196.304 332.451 196.55C332.451 197.603 329.431 200.061 327.079 200.903C324.516 201.816 323.989 202.624 325.92 202.624C327.465 202.624 329.817 201.535 331.608 200.026C333.118 198.726 334.733 196.163 334.382 195.566C334.101 195.11 333.364 195.18 332.872 195.672Z" fill="#FC766A"/>
<path d="M325.078 221.057C321.321 221.303 316.089 221.513 313.456 221.548C309.804 221.584 308.575 221.689 308.259 222.075C307.943 222.426 307.943 224.287 308.189 229.343C308.575 236.646 309.172 244.476 309.453 245.635C309.558 246.021 310.366 246.793 311.314 247.39C312.227 247.952 314.404 249.602 316.124 251.042C317.88 252.446 319.986 254.202 320.829 254.904C321.707 255.606 323.814 257.362 325.569 258.801C330.801 263.085 331.889 263.963 332.451 264.138C332.732 264.208 333.75 263.998 334.733 263.612C335.681 263.26 336.98 262.804 337.542 262.664C338.139 262.488 340.175 261.786 342.106 261.084C344.038 260.381 346.109 259.679 346.671 259.504C347.268 259.363 348.602 258.872 349.655 258.45C350.709 258.029 352.078 257.537 352.64 257.397C355.238 256.624 359.943 254.869 360.996 254.237L362.12 253.535H360.821C358.784 253.535 358.819 253.71 360.364 246.688C360.961 243.914 361.804 239.982 362.471 236.506C363.278 232.538 364.016 229.132 364.648 226.569C365.034 225.024 365.069 224.217 364.823 223.971C364.437 223.585 360.996 223.128 354.395 222.637C351.902 222.461 348.321 222.145 346.495 221.935C344.67 221.759 341.264 221.443 338.946 221.232C336.629 221.022 334.101 220.811 333.329 220.741C332.556 220.671 328.834 220.811 325.078 221.057ZM331.678 223.971C331.889 226.183 330.941 226.429 326.587 225.235C325.604 224.954 324.41 224.744 323.919 224.744C323.427 224.744 322.269 224.498 321.356 224.252C320.408 223.971 319.179 223.62 318.582 223.48C316.3 222.988 319.003 222.672 325.253 222.742L331.573 222.812L331.678 223.971ZM342.809 223.164C345.126 223.444 348.216 223.69 349.655 223.725C352.78 223.76 354.395 224.182 352.464 224.498C347.654 225.235 333.926 226.324 333.574 226.008C333.469 225.867 333.364 224.006 333.469 223.058C333.504 222.461 337.542 222.496 342.809 223.164ZM314.72 224.392C315.878 224.603 317.704 225.024 318.758 225.27C321.215 225.867 324.41 226.499 326.658 226.85C327.641 226.991 329.08 227.307 329.923 227.552L331.398 228.009V242.194C331.398 253.289 331.292 256.344 330.976 256.344C330.73 256.308 329.888 255.922 329.115 255.466C328.343 255.009 327.325 254.412 326.833 254.132C322.304 251.709 320.162 250.515 319.284 249.988C318.722 249.637 317.599 249.04 316.826 248.619C312.262 246.126 311.525 245.705 311.103 245.284C310.752 245.003 310.542 242.966 310.331 238.402C310.155 234.856 309.839 230.291 309.629 228.29C309.418 226.288 309.313 224.428 309.453 224.147C309.664 223.55 311.033 223.62 314.72 224.392ZM362.857 225.972C363.068 226.464 362.857 227.623 361.418 234.048C360.996 236.084 360.434 238.683 359.276 244.406C358.644 247.355 357.696 251.709 357.52 252.411C357.38 252.938 357.345 252.973 352.991 253.675C351.06 253.991 348.391 254.518 347.022 254.799C345.688 255.08 344.178 255.29 343.686 255.29C343.195 255.29 341.72 255.501 340.351 255.782C335.084 256.87 333.715 257.046 333.329 256.66C332.837 256.168 332.802 228.676 333.294 228.29C333.855 227.904 339.543 227.201 345.618 226.85C348.532 226.675 351.165 226.429 351.481 226.324C351.938 226.148 356.607 225.762 361.698 225.481C362.26 225.481 362.752 225.656 362.857 225.972Z" fill="#243252"/>
<path d="M346.671 233.416C343.476 234.083 342.493 237.349 344.985 238.999C345.723 239.455 346.39 239.526 348.532 239.35C351.341 239.069 352.956 238.472 353.307 237.559C353.798 236.26 353.517 234.926 352.569 234.048C351.727 233.311 351.305 233.17 349.48 233.206C348.321 233.241 347.057 233.311 346.671 233.416ZM351.621 235.418C352.148 235.839 352.218 236.05 351.902 236.576C351.376 237.454 346.46 238.086 345.617 237.384C344.669 236.576 345.126 235.488 346.495 235.242C348.777 234.821 350.919 234.926 351.621 235.418Z" fill="#243252"/>
<path d="M436.38 262.172C435.116 262.418 433.325 262.629 432.342 262.664C431.394 262.664 429.884 262.839 429.006 263.05C428.129 263.261 426.022 263.541 424.266 263.717C422.546 263.857 419.772 264.173 418.122 264.419C416.472 264.63 413.417 265.016 411.275 265.297C409.169 265.578 405.693 266.034 403.551 266.35C401.444 266.631 399.127 266.877 398.389 266.877C396.529 266.877 392.912 268.106 392.105 269.019C391.297 269.932 391.297 270.318 391.964 271.231C392.701 272.214 392.631 274.005 391.789 275.058C391.262 275.725 391.086 276.392 391.157 277.481L391.262 278.99L387.049 279.341C380.448 279.938 379.886 280.465 379.886 286.013C379.886 290.472 379.781 290.296 384.415 294.299C389.085 298.301 388.734 297.845 388.488 299.636C388.348 300.513 387.997 301.426 387.751 301.637C386.697 302.515 387.189 303.568 389.682 305.991C391.051 307.29 392.14 308.659 392.14 308.975C392.14 309.326 391.367 309.958 390.173 310.59C389.12 311.187 387.961 311.784 387.645 311.995C387.329 312.17 386.171 312.837 385.117 313.469C382.379 315.049 381.29 317.542 380.518 324.178C379.921 329.445 380.799 337.38 382.098 338.469C382.344 338.679 384.907 338.995 387.786 339.206C390.665 339.417 396.107 339.803 399.864 340.084C403.621 340.4 407.589 340.61 408.642 340.61C409.695 340.61 413.663 340.821 417.42 341.137C431.921 342.225 439.434 342.717 441.33 342.717C443.332 342.717 448.563 341.734 450.775 340.926C453.409 339.978 455.27 338.293 463.942 329.024L466.4 326.39L466.575 322.001L466.751 317.613L469.911 317.507C473.598 317.402 473.949 317.156 473.949 314.593C473.949 312.697 474.23 311.749 474.686 312.03C474.862 312.135 475.002 310.204 475.002 307.571C475.002 305.008 474.897 303.006 474.791 303.147C474.651 303.252 473.984 302.971 473.282 302.515C472.614 302.023 471.912 301.637 471.772 301.637C471.631 301.637 470.332 301.075 468.858 300.373C465.873 298.969 465.978 299.285 466.435 293.842L466.681 291.174L468.12 290.401C470.192 289.243 471.105 288.33 471.947 286.539C472.614 285.135 472.685 284.327 472.685 279.693C472.685 275.058 472.579 274.215 471.912 272.53C470.859 270.002 469.209 267.649 467.91 266.877C466.014 265.753 460.817 264.384 453.76 263.225C452.039 262.945 449.16 262.453 447.405 262.172C443.648 261.505 439.54 261.505 436.38 262.172ZM445.474 264.419C460.922 266.842 465.873 268.001 465.873 269.124C465.873 269.475 465.346 269.721 464.223 269.861C463.275 269.967 461.449 270.318 460.08 270.564C458.745 270.845 456.288 271.301 454.638 271.617C452.987 271.933 450.635 272.389 449.371 272.67C448.107 272.986 446.773 273.197 446.386 273.197C446 273.197 444.666 273.408 443.402 273.724C442.138 274.005 439.785 274.496 438.135 274.777C436.485 275.093 433.957 275.585 432.517 275.901C431.078 276.181 428.866 276.638 427.602 276.884C421.422 278.183 417.806 279.025 414.049 280.079C413.066 280.36 411.24 280.57 409.976 280.57C407.799 280.57 407.553 280.465 405.693 279.061C397.09 272.565 394.984 270.88 394.984 270.493C394.949 270.037 397.406 269.44 400.496 269.159C401.585 269.054 404.253 268.738 406.36 268.457C410.011 267.965 413.277 267.579 423.143 266.35C425.495 266.034 429.182 265.578 431.289 265.297C441.576 263.963 442.138 263.928 445.474 264.419ZM466.61 273.548C467.558 275.269 467.558 281.167 466.61 283.239C465.346 285.977 466.716 285.837 444.455 285.837C433.536 285.872 421.598 286.013 417.911 286.153C410.327 286.504 407.448 286.188 405.447 284.784C402.954 282.993 397.161 278.464 395.932 277.305C394.597 276.076 394.352 275.514 394.913 274.672C395.124 274.321 396.248 274.988 399.478 277.481C407.237 283.414 406.079 282.853 410.187 282.853C412.504 282.853 414.4 282.642 415.664 282.256C417.981 281.553 420.861 280.851 424.618 280.044C426.162 279.728 428.445 279.236 429.709 278.99C430.973 278.709 433.325 278.253 434.975 277.937C436.625 277.586 439.083 277.129 440.417 276.884C441.787 276.603 444.21 276.146 445.86 275.83C452.425 274.566 453.83 274.321 455.866 273.899C457.025 273.653 458.851 273.337 459.904 273.197C460.958 273.021 462.327 272.741 462.889 272.53C464.82 271.898 465.908 272.179 466.61 273.548ZM470.402 281.834C470.438 284.854 468.752 287.944 467.067 287.944C466.646 287.944 466.224 288.154 466.154 288.365C466.014 288.716 462.257 288.857 449.195 288.927C439.961 288.997 432.166 288.892 431.85 288.751C431.534 288.611 439.048 288.4 448.528 288.295L465.733 288.119L467.032 286.89C467.734 286.223 468.331 285.521 468.331 285.345C468.331 285.17 468.577 284.749 468.822 284.468C469.174 284.117 469.454 282.642 469.595 280.57C469.841 277.656 469.911 277.41 470.122 278.639C470.262 279.412 470.402 280.851 470.402 281.834ZM397.863 284.749C399.969 286.785 401.269 288.365 401.128 288.611C400.988 288.821 399.969 288.997 398.811 288.997C397.09 288.997 396.458 288.821 395.229 287.979C394.387 287.417 392.105 285.907 390.103 284.608C388.102 283.309 386.592 282.115 386.768 281.94C386.908 281.799 388.313 281.589 389.857 281.518C391.402 281.483 393.053 281.378 393.509 281.343C394.141 281.273 395.194 282.115 397.863 284.749ZM385.469 284.608C386.487 285.275 387.329 285.837 387.4 285.837C387.435 285.837 389.225 286.996 391.297 288.4C394.527 290.542 395.124 291.069 395.089 291.806C395.019 293.526 394.527 298.301 394.387 298.793C394.281 299.144 393.895 299.004 392.912 298.266C392.21 297.74 391.543 297.213 391.437 297.073C391.332 296.967 389.436 295.317 387.224 293.386C385.012 291.455 383.011 289.629 382.765 289.348C382.519 289.032 382.344 287.698 382.309 286.083C382.309 282.853 382.625 282.677 385.469 284.608ZM436.134 291.595L463.802 291.63L464.012 292.473C464.328 293.667 463.837 301.707 463.415 302.129C463.205 302.339 458.219 302.304 449.652 302.023C442.243 301.813 432.728 301.637 428.48 301.637C418.262 301.637 397.301 300.97 396.95 300.584C396.774 300.443 396.95 298.372 397.301 295.984L397.933 291.63L399.162 291.385C399.829 291.279 402.217 291.244 404.429 291.349C406.641 291.455 420.931 291.56 436.134 291.595ZM392.385 301.04C392.526 301.286 393.228 301.918 393.895 302.409C394.949 303.217 395.616 303.357 398.741 303.568C403.024 303.884 403.2 304.06 402.954 307.571C402.743 310.239 401.725 312.697 400.847 312.697C400.496 312.697 398.003 310.59 395.3 307.992C390.209 303.147 389.717 302.339 390.946 301.145C391.613 300.478 391.999 300.443 392.385 301.04ZM436.204 304.27C445.087 304.551 456.463 304.797 461.484 304.797C466.505 304.797 470.824 304.937 471.07 305.113C471.456 305.324 471.561 306.482 471.526 309.923C471.491 312.416 471.35 314.558 471.21 314.698C470.859 315.049 414.506 315.752 409.344 315.506C403.059 315.19 403.094 315.19 404.464 312.17C405.025 311.012 405.236 309.713 405.306 307.255C405.377 305.429 405.447 303.884 405.447 303.814C405.517 303.568 421.949 303.814 436.204 304.27ZM397.617 313.61C399.021 315.014 400.777 316.384 401.514 316.735C405.025 318.315 410.608 318.385 451.758 317.542C460.431 317.367 463.064 317.437 463.064 317.753C463.064 317.964 462.257 318.912 461.274 319.825C460.255 320.737 459.026 321.896 458.535 322.388C458.043 322.879 456.042 324.67 454.111 326.39C452.18 328.111 450.53 329.585 450.424 329.726C450.319 329.866 449.757 330.253 449.125 330.569C447.756 331.271 445.684 331.306 443.297 330.639C442.278 330.393 440.277 329.901 438.838 329.585C435.713 328.883 432.658 328.111 430.2 327.409C429.217 327.128 428.129 326.917 427.778 326.917C427.426 326.917 426.338 326.706 425.355 326.425C424.372 326.145 422.616 325.688 421.458 325.372C420.299 325.091 418.403 324.635 417.244 324.319C416.085 324.038 414.049 323.546 412.68 323.23C411.345 322.914 409.274 322.423 408.115 322.142C406.957 321.826 405.096 321.369 404.007 321.089C399.021 319.86 397.441 319.473 395.651 318.947C394.597 318.631 392.526 318.385 391.051 318.385C387.54 318.35 386.381 319.017 384.766 322.072C383.678 324.073 383.783 329.269 384.907 331.727C386.311 334.712 387.4 335.168 393.895 335.695C396.88 335.905 402.743 336.221 406.886 336.397C411.029 336.537 417.841 336.853 421.984 337.064C443.367 338.153 446.07 338.223 447.44 337.837C449.195 337.345 451.478 337.345 451.478 337.801C451.478 338.012 451.267 338.223 451.056 338.293C450.81 338.363 450.038 338.609 449.371 338.855C448.704 339.101 446.632 339.522 444.806 339.768C441.295 340.294 441.717 340.294 422.686 339.03C418.333 338.749 413.522 338.433 411.978 338.363C401.444 337.837 384.521 336.502 383.994 336.186C382.905 335.484 382.589 324.108 383.573 320.632C384.556 317.156 385.117 316.349 387.575 314.874C388.839 314.137 390.173 313.399 390.56 313.189C390.946 313.013 391.894 312.486 392.666 311.995C393.439 311.538 394.281 311.152 394.562 311.117C394.808 311.117 396.213 312.241 397.617 313.61ZM393.72 321.124C394.492 321.405 395.44 321.65 395.791 321.65C396.177 321.65 397.266 321.861 398.249 322.142C399.232 322.423 401.023 322.914 402.252 323.195C403.445 323.511 405.377 324.003 406.535 324.284C407.694 324.565 409.555 325.056 410.678 325.337C411.767 325.583 413.803 326.074 415.138 326.39C417.701 326.987 419.913 327.549 423.669 328.462C428.093 329.585 429.954 330.042 432.342 330.604C434.694 331.13 436.52 331.587 440.417 332.535C443.086 333.202 446.562 333.553 448.318 333.342C450.53 333.061 451.372 332.394 461.133 323.265C462.292 322.212 463.45 321.299 463.696 321.299C463.977 321.299 464.118 321.931 464.118 323.265C464.118 325.197 464.082 325.302 462.116 327.338C458.465 331.095 455.586 332.991 450.951 334.641C449.09 335.273 448.072 335.379 442.524 335.379C439.048 335.379 431.534 335.133 425.846 334.852C403.656 333.693 399.864 333.483 394.773 333.272C388.664 333.026 388.032 332.745 387.013 330.147C385.785 326.917 386.487 322.563 388.418 321.299C389.717 320.492 391.718 320.421 393.72 321.124Z" fill="#243252"/>
<path d="M403.937 295.984C403.2 296.792 403.305 297.704 404.183 298.266C404.92 298.723 405.938 298.196 406.114 297.283C406.254 296.686 405.306 295.317 404.78 295.317C404.639 295.317 404.253 295.633 403.937 295.984Z" fill="#243252"/>
<path d="M456.393 295.844C455.691 296.686 456.393 297.599 457.657 297.599C458.57 297.599 458.675 297.459 458.675 296.546C458.675 295.668 458.535 295.457 457.762 295.387C457.236 295.317 456.674 295.528 456.393 295.844Z" fill="#243252"/>
<path d="M411.802 308.8C411.591 309.081 411.451 309.677 411.521 310.134C411.591 310.766 411.837 310.941 412.68 310.941C413.522 310.941 413.768 310.766 413.838 310.134C413.979 309.256 413.382 308.308 412.68 308.308C412.434 308.308 412.048 308.554 411.802 308.8Z" fill="#243252"/>
<path d="M465.311 309.502C464.995 310.309 465.276 311.187 465.943 311.609C466.435 311.889 466.716 311.819 467.313 311.257C467.91 310.625 467.98 310.38 467.664 309.748C467.207 308.905 465.592 308.729 465.311 309.502Z" fill="#243252"/>
</svg>
