<svg width="58" height="43" viewBox="0 0 58 43" fill="none" xmlns="http://www.w3.org/2000/svg">
<path d="M8.99945 14.9266C12.7086 14.9266 15.7128 11.9207 15.7128 8.21332C15.7128 4.50589 12.7086 1.5 8.99945 1.5C5.29034 1.5 2.28613 4.50589 2.28613 8.21332C2.28613 11.9207 5.29034 14.9266 8.99945 14.9266Z" stroke="#FC766A" stroke-width="2.90211"/>
<path d="M22.1914 2.33917C27.1089 2.33917 41.1677 2.33917 47.7803 2.33917C53.1342 2.33917 55.7133 3.52407 55.7133 11.8173C55.7133 19.8749 55.6461 30.3124 55.7133 34.525C55.758 37.4867 54.2867 40.7645 49.3636 41.2384C44.4461 41.7122 24.7034 41.4358 15.4446 41.2384C12.004 41.2384 5.92285 39.2893 5.92285 31.3653V22.4797" stroke="#243252" stroke-width="2.90211" stroke-linecap="round"/>
<path d="M18.79 16.3252L31.0978 24.7169" stroke="#243252" stroke-width="2.90211" stroke-linecap="round"/>
<path d="M31.0972 24.7169L53.4749 4.01749" stroke="#243252" stroke-width="2.90211" stroke-linecap="round"/>
<path d="M36.77 19.6819L42.8847 25.8358L48.9994 31.9896" stroke="#243252" stroke-width="2.90211" stroke-linecap="round"/>
<path d="M14.314 31.9896L23.3378 19.6819" stroke="#243252" stroke-width="2.90211" stroke-linecap="round"/>
</svg>
