<svg width="32" height="39" viewBox="0 0 32 39" fill="none" xmlns="http://www.w3.org/2000/svg">
<path fill-rule="evenodd" clip-rule="evenodd" d="M14.7988 38.617C11.3058 35.5589 0.0830078 25.0979 0.0830078 16.9347C0.0830078 7.26695 6.3793 0.821777 15.8237 0.821777C25.2682 0.821777 31.5645 8.87824 31.5645 16.9347C31.5645 23.7702 20.233 35.2456 16.7986 38.5666C16.2385 39.1083 15.3844 39.1297 14.7988 38.617ZM21.0707 14.7863C21.0707 17.7526 18.7215 20.1573 15.8237 20.1573C12.926 20.1573 10.5768 17.7526 10.5768 14.7863C10.5768 11.82 12.926 9.41534 15.8237 9.41534C18.7215 9.41534 21.0707 11.82 21.0707 14.7863Z" fill="#243252"/>
</svg>
