<svg width="39" height="39" viewBox="0 0 39 39" fill="none" xmlns="http://www.w3.org/2000/svg">
<path fill-rule="evenodd" clip-rule="evenodd" d="M14.5313 13.5839H21.6056V17.1077C22.6247 15.081 25.238 13.26 29.1637 13.26C36.6894 13.26 38.4761 17.2943 38.4761 24.6962V38.4048H30.857V26.382C30.857 22.1667 29.838 19.7896 27.2437 19.7896C23.6456 19.7896 22.1504 22.3515 22.1504 26.38V38.4048H14.5313V13.5839ZM1.46657 38.081H9.08562V13.26H1.46657V38.081ZM10.1771 5.16671C10.1773 5.80533 10.0507 6.43764 9.80445 7.02688C9.55823 7.61612 9.19734 8.15055 8.74276 8.5991C7.82162 9.51457 6.57478 10.027 5.2761 10.0239C3.9797 10.023 2.73574 9.51186 1.81324 8.601C1.36031 8.15093 1.00064 7.6159 0.754847 7.02658C0.509053 6.43726 0.381962 5.80524 0.380859 5.16671C0.380859 3.87719 0.895145 2.6429 1.81515 1.73243C2.73683 0.820348 3.98132 0.309 5.278 0.309571C6.57705 0.309571 7.82276 0.821952 8.74276 1.73243C9.66086 2.6429 10.1771 3.87719 10.1771 5.16671Z" fill="#243252"/>
</svg>
