<svg width="103" height="60" viewBox="0 0 103 60" fill="none" xmlns="http://www.w3.org/2000/svg">
<path fill-rule="evenodd" clip-rule="evenodd" d="M85.7988 38.6169C82.3058 35.5588 71.083 25.0979 71.083 16.9346C71.083 7.26689 77.3793 0.821716 86.8237 0.821716C96.2682 0.821716 102.564 8.87818 102.564 16.9346C102.564 23.7702 91.233 35.2456 87.7986 38.5666C87.2385 39.1083 86.3844 39.1297 85.7988 38.6169ZM92.0707 14.7863C92.0707 17.7525 89.7215 20.1572 86.8237 20.1572C83.926 20.1572 81.5768 17.7525 81.5768 14.7863C81.5768 11.82 83.926 9.41528 86.8237 9.41528C89.7215 9.41528 92.0707 11.82 92.0707 14.7863Z" fill="#243252"/>
<path d="M62.3821 50.9273L63.0438 50.0761L62.3821 50.9273ZM39.2062 54.5087L39.7018 53.5512L39.2062 54.5087ZM2.12305 54.8438C1.66439 54.4641 0.984759 54.5281 0.605061 54.9867C0.225362 55.4454 0.289377 56.125 0.748042 56.5047L2.12305 54.8438ZM87.6373 49.2182C88.028 48.7688 87.9804 48.0879 87.531 47.6972C87.0817 47.3065 86.4007 47.3541 86.01 47.8035L87.6373 49.2182ZM0.748042 56.5047C1.59784 57.2082 2.76543 57.7156 4.07552 58.0929L4.67216 56.0208C3.48985 55.6803 2.6453 55.2761 2.12305 54.8438L0.748042 56.5047ZM7.44606 58.7812C9.45524 59.0638 11.7331 59.2072 14.1168 59.2456L14.1516 57.0897C11.8252 57.0522 9.6411 56.9124 7.74642 56.6459L7.44606 58.7812ZM17.4382 59.2356C19.6393 59.19 21.881 59.0716 24.0519 58.9016L23.8836 56.752C21.749 56.9191 19.5489 57.0352 17.3936 57.0798L17.4382 59.2356ZM27.3482 58.5996C29.7671 58.3452 32.0194 58.0346 33.927 57.7005L33.555 55.5766C31.704 55.9007 29.5014 56.205 27.1227 56.4551L27.3482 58.5996ZM37.2179 57.014C38.2516 56.7501 39.1567 56.454 39.714 56.1101C39.8624 56.0185 40.0308 55.8971 40.1771 55.7372C40.3201 55.5811 40.5042 55.3192 40.5458 54.9557C40.6427 54.1071 39.9497 53.6796 39.7018 53.5512L38.7106 55.4662C38.8534 55.5401 38.3327 55.3303 38.4034 54.7109C38.4319 54.462 38.5534 54.3176 38.5865 54.2814C38.623 54.2415 38.6346 54.2424 38.5816 54.2751C38.3334 54.4283 37.7203 54.6603 36.6844 54.9248L37.2179 57.014ZM39.7018 53.5512C38.7064 53.036 37.9819 52.5582 37.4782 52.1287L36.0792 53.7695C36.7468 54.3387 37.6229 54.9032 38.7106 55.4662L39.7018 53.5512ZM36.591 50.7589C36.6313 50.5721 36.8393 50.2204 37.554 49.8001C38.2408 49.3963 39.2345 49.0276 40.4851 48.7332L39.991 46.6343C38.6255 46.9557 37.4034 47.3872 36.461 47.9414C35.5465 48.4792 34.7121 49.2434 34.4832 50.304L36.591 50.7589ZM43.1922 48.2689C44.9056 48.0673 46.8076 47.9957 48.7543 48.0762L48.8434 45.9218C46.7901 45.8368 44.7739 45.9117 42.9403 46.1274L43.1922 48.2689ZM51.5331 48.2952C53.4188 48.5166 55.2647 48.8871 56.9456 49.4195L57.5967 47.3639C55.7628 46.7831 53.7798 46.3879 51.7845 46.1537L51.5331 48.2952ZM59.4727 50.4103C60.3148 50.8164 61.0698 51.2728 61.7205 51.7786L63.0438 50.0761C62.2534 49.4617 61.364 48.9285 60.4094 48.4681L59.4727 50.4103ZM61.7205 51.7786C62.5478 52.4216 63.5106 52.9153 64.5501 53.2868L65.2758 51.2564C64.4048 50.9451 63.6551 50.5512 63.0438 50.0761L61.7205 51.7786ZM67.5415 54.0197C69.4372 54.308 71.4911 54.3392 73.5307 54.1818L73.3648 52.0319C71.4493 52.1797 69.5643 52.1463 67.8657 51.888L67.5415 54.0197ZM76.4792 53.8259C78.5294 53.4906 80.5101 52.9844 82.243 52.3646L81.5169 50.3343C79.9174 50.9063 78.0643 51.3817 76.1312 51.6979L76.4792 53.8259ZM85.0231 51.1569C86.082 50.5931 87.005 49.9455 87.6373 49.2182L86.01 47.8035C85.6205 48.2515 84.9531 48.7513 84.0098 49.2536L85.0231 51.1569Z" fill="#FC766A"/>
</svg>
