<svg width="457" height="433" viewBox="0 0 457 433" fill="none" xmlns="http://www.w3.org/2000/svg">
<g clip-path="url(#clip0_188_4823)">
<path d="M19.6989 198.754C22.2471 198.754 24.3128 196.688 24.3128 194.14C24.3128 191.592 22.2471 189.526 19.6989 189.526C17.1507 189.526 15.085 191.592 15.085 194.14C15.085 196.688 17.1507 198.754 19.6989 198.754Z" stroke="#FC766A" stroke-width="1.77459"/>
<path d="M28.739 194.61C38.0455 193.652 52.6482 194.785 54.3742 201.984C56.1002 209.183 49.5093 211.815 45.9985 212.232C32.6309 214.357 14.9062 213.357 14.9062 201.984" stroke="#243252" stroke-width="1.77459" stroke-linecap="round"/>
<path d="M25.3773 205.498C25.9653 205.498 26.442 205.021 26.442 204.433C26.442 203.845 25.9653 203.368 25.3773 203.368C24.7892 203.368 24.3125 203.845 24.3125 204.433C24.3125 205.021 24.7892 205.498 25.3773 205.498Z" stroke="#243252" stroke-width="1.77459"/>
<path d="M35.6698 204.433C35.6698 204.95 35.1881 205.498 34.4278 205.498C33.6675 205.498 33.1855 204.95 33.1855 204.433C33.1855 203.916 33.6675 203.368 34.4278 203.368C35.1881 203.368 35.6698 203.916 35.6698 204.433Z" stroke="#243252" stroke-width="1.77459"/>
<path d="M43.4778 205.498C44.0659 205.498 44.5426 205.021 44.5426 204.433C44.5426 203.845 44.0659 203.368 43.4778 203.368C42.8901 203.368 42.4131 203.845 42.4131 204.433C42.4131 205.021 42.8901 205.498 43.4778 205.498Z" stroke="#243252" stroke-width="1.77459"/>
<path d="M369.824 68.8541C372.178 68.8541 374.083 66.9471 374.083 64.5951C374.083 62.2431 372.178 60.3361 369.824 60.3361C367.471 60.3361 365.565 62.2431 365.565 64.5951C365.565 66.9471 367.471 68.8541 369.824 68.8541Z" stroke="#FC766A" stroke-width="1.77459"/>
<path d="M378.193 60.8684C381.313 60.8684 390.232 60.8684 394.427 60.8684C397.824 60.8684 399.46 61.6202 399.46 66.8815C399.46 71.9933 399.417 78.615 399.46 81.2876C399.488 83.1665 398.555 85.246 395.431 85.5466C392.312 85.8472 379.787 85.6719 373.913 85.5466C371.73 85.5466 367.872 84.3101 367.872 79.283V73.6458" stroke="#243252" stroke-width="1.77459" stroke-linecap="round"/>
<path d="M376.036 69.7414L383.844 75.0652" stroke="#243252" stroke-width="1.77459" stroke-linecap="round"/>
<path d="M383.844 75.0652L398.04 61.9332" stroke="#243252" stroke-width="1.77459" stroke-linecap="round"/>
<path d="M387.443 71.8709L391.323 75.775L395.202 79.6791" stroke="#243252" stroke-width="1.77459" stroke-linecap="round"/>
<path d="M373.196 79.6791L378.921 71.8709" stroke="#243252" stroke-width="1.77459" stroke-linecap="round"/>
<path d="M401.037 335.036C399.859 336.217 398.84 337.236 398.141 337.937C396.313 339.766 394.396 338.699 393.665 337.937L382.017 326.712C380.296 325.113 378.84 323.534 372.342 317.332C371.675 316.666 370.62 314.964 371.728 313.488C372.832 312.012 379.046 304.262 382.017 300.571C382.915 299.267 384.874 297.715 387.369 300.036C389.52 302.035 396.891 308.954 403.188 314.215" stroke="#243252" stroke-width="1.77459" stroke-linecap="round"/>
<path d="M381.893 300.97C382.258 307.703 384.728 318.541 397.509 322.62" stroke="#243252" stroke-width="1.77459" stroke-linecap="round"/>
<path d="M414.299 323.142C414.161 324.402 414.072 325.724 414.093 326.847L414.299 323.142ZM414.672 321.07C414.54 321.847 414.406 322.174 414.299 323.142L414.672 321.07ZM419.868 330.745C419.371 332.254 416.13 335.478 410.15 335.396C404.166 335.314 402.335 330.038 402.143 327.582C401.969 325.336 402.839 321.007 406.022 318.304C409.227 315.58 413.302 315.503 416.915 318.304C419.91 320.623 419.907 324.171 419.374 326.024C419.055 327.125 417.855 328.206 415.634 329.523C414.526 330.18 414.136 328.819 414.093 326.847L419.868 330.745ZM414.299 323.142C413.713 321.653 409.217 319.919 407.517 323.142C405.763 326.465 407.105 329.265 408.244 329.814C409.699 330.515 411.836 330.882 414.093 326.847L414.299 323.142Z" stroke="#FC766A" stroke-width="1.77459" stroke-linecap="round"/>
<path d="M99.3775 278.813C98.1015 273.887 93.8645 264.802 87.1268 267.873C80.3887 270.944 84.319 276.445 87.1268 278.813C89.016 280.092 93.0777 281.461 94.2092 276.701C95.3406 271.942 90.5723 269.984 89.2321 272.095C88.5255 272.927 87.7273 275.013 90.1894 276.701" stroke="#243252" stroke-width="1.77459" stroke-linecap="round"/>
<path d="M129.109 36.4699C129.09 36.4128 129.097 36.3794 129.104 36.3585C129.114 36.3312 129.135 36.2982 129.172 36.2712C129.209 36.2442 129.247 36.2332 129.276 36.2322C129.298 36.2311 129.332 36.235 129.381 36.2701L136.62 41.4665C137.307 41.9598 138.233 41.9545 138.915 41.4534L146.094 36.1743C146.143 36.1388 146.176 36.1346 146.198 36.1353C146.227 36.136 146.265 36.1466 146.303 36.1732C146.34 36.1999 146.362 36.2325 146.372 36.2598C146.38 36.2808 146.386 36.3138 146.368 36.3713L143.663 44.862C143.406 45.6676 143.698 46.5471 144.385 47.0401L144.902 46.3193L144.385 47.0401L151.624 52.2368C151.673 52.272 151.687 52.3025 151.694 52.3238C151.702 52.3518 151.703 52.3912 151.689 52.4349C151.675 52.4782 151.651 52.5094 151.629 52.5275C151.611 52.5413 151.582 52.558 151.521 52.5584L142.61 52.6095C141.765 52.6141 141.018 53.1632 140.761 53.9688L138.056 62.4595C138.038 62.517 138.013 62.5401 137.995 62.5525C137.971 62.5692 137.934 62.5827 137.888 62.583C137.842 62.5834 137.806 62.5699 137.781 62.5539C137.763 62.5415 137.738 62.5184 137.719 62.4613L134.917 54.0022C134.651 53.1994 133.898 52.6592 133.053 52.6641L124.142 52.7153C124.081 52.7156 124.051 52.6989 124.034 52.6854C124.011 52.6677 123.986 52.6368 123.972 52.5935C123.958 52.5502 123.959 52.5108 123.967 52.4828C123.973 52.4611 123.987 52.4303 124.035 52.3948L131.214 47.1157C131.896 46.6146 132.177 45.7319 131.911 44.9291L129.109 36.4699Z" stroke="#FC766A" stroke-width="1.77459"/>
<path d="M239.037 198.724V228.892" stroke="#243252" stroke-width="1.77459" stroke-linecap="round"/>
<path d="M261.752 202.273V231.021" stroke="#243252" stroke-width="1.77459" stroke-linecap="round"/>
<path d="M208.624 332.913C201.124 333.847 183.565 337.291 179.719 344.295C178.565 346.397 177.226 351.51 181.103 355.152C184.981 358.794 192.066 357.839 195.123 356.902L212.951 349.724" stroke="#243252" stroke-width="1.77459" stroke-linecap="round"/>
<path d="M310.837 280.057C296.842 280.508 235.028 310.433 205.871 325.34C203.389 341.765 213.866 353.559 219.415 357.402C248.478 348.965 308.128 331.865 314.223 330.965C320.318 330.065 326.356 325.715 328.613 323.652C344.414 305.202 332.752 289.527 324.945 283.995C319.388 280.057 314.59 279.936 310.837 280.057Z" fill="#243252"/>
<path d="M179.742 275.871C189.658 276.533 232.916 293.298 253.412 302.085L206.538 325.507C185.56 331.659 172.673 329.633 168.738 328.307C146.02 317.362 154.921 290.361 163.947 280.358C169.764 275.407 176.189 275.635 179.742 275.871Z" fill="#243252"/>
<path d="M290.105 336.107C296.303 339.086 299.654 342.988 301.353 346.188C304.994 354.521 298.456 359.528 290.992 357.175C286.867 355.873 285.895 355 283.71 353.189C282.601 352.27 277.424 347.459 271.513 341.777" stroke="#243252" stroke-width="1.77459" stroke-linecap="round"/>
<path d="M171.096 193.9L175.855 280.372C175.958 282.254 177.514 283.727 179.399 283.727H312.15C314.111 283.727 315.699 282.138 315.699 280.178V191.851C315.699 189.872 314.081 188.276 312.102 188.302L174.592 190.156C172.575 190.183 170.985 191.885 171.096 193.9Z" fill="#243252"/>
<path d="M312.328 284.969H178.524C176.662 284.969 175.152 286.479 175.152 288.341C175.152 290.203 176.662 291.712 178.524 291.712H312.328C314.19 291.712 315.7 290.203 315.7 288.341C315.7 286.479 314.19 284.969 312.328 284.969Z" fill="#243252"/>
<path d="M262.107 150.81C274.47 150.633 301.681 160.038 312.506 189.674" stroke="#243252" stroke-width="1.77459" stroke-linecap="round"/>
<path d="M234.956 150.633C206.74 156.134 193.253 168.201 182.605 191.448" stroke="#243252" stroke-width="1.77459" stroke-linecap="round"/>
<path d="M329.364 178.701L336.285 167.166" stroke="#243252" stroke-width="1.77459" stroke-linecap="round"/>
<path d="M336.285 181.895L345.69 174.087" stroke="#243252" stroke-width="1.77459" stroke-linecap="round"/>
<path d="M337.705 187.219C339.539 187.929 343.703 188.603 345.691 185.622" stroke="#243252" stroke-width="1.77459" stroke-linecap="round"/>
<path d="M156.164 176.542L145.517 165.539" stroke="#243252" stroke-width="1.77459" stroke-linecap="round"/>
<path d="M166.99 174.767L160.602 158.263" stroke="#243252" stroke-width="1.77459" stroke-linecap="round"/>
<path d="M153.502 182.753L145.517 179.736" stroke="#243252" stroke-width="1.77459" stroke-linecap="round"/>
<path d="M319.604 209.579C326.169 219.872 333.623 232.116 319.604 255.156" stroke="#243252" stroke-width="1.77459" stroke-linecap="round"/>
<path d="M262.285 151.697C263.882 147.083 262.427 143.979 261.007 143.387C252.489 151.195 239.57 148.296 234.779 143.564C233.075 145.126 234.069 149.745 234.779 151.165C244.006 161.387 257.138 155.66 262.285 151.697Z" fill="#243252"/>
<path d="M224.485 180.091L227.335 175.716C230.113 171.453 235.519 169.751 240.238 171.654L247.03 174.392C251.268 176.101 256.123 174.916 259.097 171.447L266.898 162.345" stroke="#243252" stroke-width="1.77459" stroke-linecap="round"/>
<path d="M168.941 216.115C166.279 222.385 163.12 237.587 171.78 248.235" stroke="#243252" stroke-width="1.77459" stroke-linecap="round"/>
<path d="M286.753 79.1542C282.849 93.1735 280.897 94.4157 275.219 100.627C275.219 94.4884 274.164 84.1852 274.164 79.8949C255.57 79.8949 239.878 72.3046 234.356 68.5095C234.554 81.3799 222.488 89.7953 222.488 89.7953C222.488 89.7953 224.219 94.9931 225.208 106.626C225.999 115.933 223.724 114.134 222.488 112.071C218.928 100.587 213.092 103.656 210.619 106.626C180.278 57.3267 226.938 47.8007 235.839 48.7083C242.565 42.966 251.944 38.466 258.537 37.8062C282.317 35.4257 293.084 56.4224 286.753 79.1542Z" fill="#243252"/>
<path d="M222.904 120.846C226.099 140.347 247.538 154.37 263.01 138.573C278.482 122.775 275.386 93.8595 273.732 80.3662" stroke="#243252" stroke-width="1.77459" stroke-linecap="round"/>
<path d="M210.269 105.418C208.317 110.209 210.148 120.827 222.904 120.827" stroke="#243252" stroke-width="1.77459" stroke-linecap="round"/>
<path d="M215.895 108.05C215.613 109.075 215.838 111.504 219 113.019" stroke="#243252" stroke-width="1.77459" stroke-linecap="round"/>
<path d="M273.303 118.342C277.466 116.607 280.401 110.179 279.272 99.8867" stroke="#243252" stroke-width="1.77459" stroke-linecap="round"/>
<path d="M249.878 130.055C253.959 131.119 253.701 128.189 256.799 125.618" stroke="#243252" stroke-width="1.77459" stroke-linecap="round"/>
<path d="M262.062 107.925C263.532 107.925 264.724 106.733 264.724 105.263C264.724 103.793 263.532 102.601 262.062 102.601C260.592 102.601 259.4 103.793 259.4 105.263C259.4 106.733 260.592 107.925 262.062 107.925Z" fill="#243252"/>
<path d="M238.637 108.28C240.108 108.28 241.299 107.088 241.299 105.618C241.299 104.148 240.108 102.956 238.637 102.956C237.167 102.956 235.976 104.148 235.976 105.618C235.976 107.088 237.167 108.28 238.637 108.28Z" fill="#243252"/>
<path d="M232.842 99.5318C233.402 97.8825 235.819 94.8313 241.005 95.8208" stroke="#243252" stroke-width="1.77459" stroke-linecap="round"/>
<path d="M257.687 96.3375C258.923 95.266 262.288 93.7661 265.85 96.3375" stroke="#243252" stroke-width="1.77459" stroke-linecap="round"/>
<path d="M249.1 103.791C248.686 107.295 248.405 114.402 250.588 114.793" stroke="#243252" stroke-width="1.77459" stroke-linecap="round"/>
<path d="M351.369 264.769C398.751 277.901 483.86 292.984 445.245 248.265C433.061 236.257 415.077 222.179 386.151 209.757" stroke="#243252" stroke-width="1.77459" stroke-linecap="round"/>
<path d="M402.655 173.018C432.113 154.148 479.566 115.167 433.71 110.198C387.855 105.229 345.986 122.442 330.784 131.67" stroke="#243252" stroke-width="1.77459" stroke-linecap="round"/>
<path d="M288.548 145.443C308.069 103.385 339.656 16.2174 309.843 4.00822C272.577 -11.2533 224.308 32.7566 184.912 137.812" stroke="#243252" stroke-width="1.77459" stroke-linecap="round"/>
<path d="M141.498 109.213C97.8435 85.3152 8.72348 48.5574 1.48315 92.7092C-5.75718 136.861 82.7002 173.69 127.834 186.585" stroke="#243252" stroke-width="1.77459" stroke-linecap="round"/>
<path d="M139.423 209.757C75.715 242.232 -4.10979 287.145 40.1061 310.553C58.2065 320.136 104.523 314.28 125.818 305.584" stroke="#243252" stroke-width="1.77459" stroke-linecap="round"/>
<path d="M243.651 433C292.165 433 331.493 428.233 331.493 422.352C331.493 416.472 292.165 411.705 243.651 411.705C195.137 411.705 155.809 416.472 155.809 422.352C155.809 428.233 195.137 433 243.651 433Z" fill="#243252"/>
</g>
<defs>
<clipPath id="clip0_188_4823">
<rect width="456.07" height="433" fill="white"/>
</clipPath>
</defs>
</svg>
