<svg width="320" height="272" viewBox="0 0 320 272" fill="none" xmlns="http://www.w3.org/2000/svg">
<path d="M72.8311 171.18L59.728 119.894L230.211 76.3369L232.711 86.1195" stroke="#243252" stroke-width="1.16787"/>
<path d="M79.0475 195.51L89.0233 234.555L92.7047 233.615" stroke="#243252" stroke-width="1.16787"/>
<path d="M152.266 227.152L159.468 225.4" stroke="#243252" stroke-width="1.16787" stroke-linecap="round"/>
<path d="M170.952 222.675L230.416 208.35" stroke="#243252" stroke-width="1.16787" stroke-linecap="round"/>
<path d="M147.984 228.125L94.3304 240.73L82.1938 189.779" stroke="#243252" stroke-width="1.16787" stroke-linecap="round"/>
<path d="M77.9046 171.872L66.8702 125.616L238.027 84.7866L254.382 153.345" stroke="#243252" stroke-width="1.16787" stroke-linecap="round"/>
<path d="M24.9848 104.636C23.2775 105.002 21.648 105.539 20.1071 106.212L20.9344 110.069C18.8807 111.056 17.0381 112.329 15.4311 113.857L12.1193 111.715C10.9202 112.941 9.87577 114.302 8.94789 115.737C8.01998 117.171 7.20723 118.682 6.58078 120.278L9.89258 122.42C9.15784 124.513 8.7529 126.715 8.69462 128.993L4.83802 129.82C4.85619 131.502 5.03495 133.208 5.40117 134.915C5.76738 136.623 6.30416 138.252 6.97715 139.793L10.8337 138.966C11.8212 141.019 13.0938 142.862 14.6221 144.469L12.4801 147.781C13.7062 148.98 15.067 150.024 16.5017 150.952C17.9363 151.88 19.447 152.693 21.0435 153.319L23.1854 150.008C25.2778 150.742 27.4803 151.147 29.7583 151.206L30.5855 155.062C32.2668 155.044 33.9731 154.865 35.6804 154.499C37.3877 154.133 39.0172 153.596 40.5581 152.923L39.7309 149.066C41.7845 148.079 43.6271 146.806 45.2342 145.278L48.546 147.42C49.7451 146.194 50.7894 144.833 51.7173 143.398C52.6452 141.964 53.458 140.453 54.0844 138.857L50.7727 136.715C51.5074 134.622 51.9123 132.42 51.9706 130.142L55.8272 129.315C55.809 127.633 55.6303 125.927 55.2641 124.22C54.8978 122.512 54.3611 120.883 53.6881 119.342L49.8315 120.169C48.844 118.116 47.5714 116.273 46.0432 114.666L48.1851 111.354C46.959 110.155 45.5982 109.111 44.1635 108.183C42.7289 107.255 41.2183 106.442 39.6218 105.816L37.4798 109.127C35.3874 108.393 33.1849 107.988 30.9069 107.929L30.0797 104.073C28.3984 104.091 26.6921 104.27 24.9848 104.636ZM27.6587 117.102C34.5398 115.626 41.3223 120.013 42.7983 126.894C44.2743 133.775 39.8876 140.557 33.0065 142.033C26.1254 143.509 19.3429 139.122 17.8669 132.241C16.3909 125.36 20.7776 118.578 27.6587 117.102Z" fill="#243252"/>
<path d="M124.27 137.322C122.572 137.727 120.955 138.301 119.43 139.009L120.345 142.846C118.314 143.88 116.501 145.194 114.93 146.759L111.57 144.693C110.399 145.947 109.386 147.331 108.491 148.786C107.596 150.242 106.818 151.771 106.229 153.381L109.588 155.447C108.902 157.555 108.547 159.767 108.541 162.045L104.704 162.961C104.761 164.641 104.979 166.343 105.384 168.041C105.789 169.74 106.363 171.357 107.071 172.882L110.908 171.966C111.942 173.997 113.256 175.81 114.821 177.382L112.755 180.742C114.009 181.912 115.393 182.925 116.848 183.82C118.304 184.715 119.833 185.493 121.443 186.083L123.509 182.723C125.617 183.41 127.829 183.764 130.107 183.77L131.023 187.607C132.703 187.55 134.405 187.332 136.103 186.927C137.802 186.522 139.418 185.948 140.944 185.24L140.028 181.404C142.059 180.369 143.872 179.055 145.444 177.49L148.803 179.556C149.974 178.303 150.987 176.918 151.882 175.463C152.777 174.007 153.555 172.479 154.145 170.868L150.785 168.803C151.471 166.694 151.826 164.483 151.832 162.204L155.669 161.289C155.612 159.608 155.394 157.907 154.989 156.208C154.584 154.51 154.01 152.893 153.302 151.368L149.465 152.283C148.431 150.252 147.117 148.439 145.552 146.868L147.618 143.508C146.365 142.337 144.98 141.324 143.525 140.429C142.069 139.534 140.541 138.756 138.93 138.167L136.865 141.527C134.756 140.84 132.545 140.485 130.266 140.479L129.351 136.643C127.67 136.699 125.968 136.917 124.27 137.322V137.322ZM127.228 149.723C134.074 148.09 140.955 152.321 142.588 159.166C144.221 166.012 139.99 172.893 133.145 174.526C126.299 176.159 119.418 171.928 117.785 165.083C116.152 158.237 120.383 151.356 127.228 149.723Z" stroke="#243252" stroke-width="1.94645" stroke-linecap="round" stroke-linejoin="round"/>
<path d="M137.899 194.021C137.082 194.216 136.305 194.492 135.571 194.832L136.012 196.677C135.035 197.175 134.163 197.807 133.407 198.559L131.791 197.566C131.228 198.169 130.741 198.834 130.311 199.534C129.881 200.234 129.506 200.97 129.223 201.744L130.839 202.737C130.508 203.752 130.338 204.815 130.335 205.911L128.49 206.351C128.517 207.159 128.622 207.977 128.817 208.794C129.011 209.611 129.287 210.389 129.628 211.122L131.473 210.682C131.97 211.658 132.603 212.53 133.355 213.286L132.362 214.902C132.964 215.465 133.63 215.952 134.33 216.383C135.03 216.813 135.765 217.187 136.54 217.471L137.533 215.855C138.547 216.185 139.611 216.356 140.706 216.359L141.147 218.204C141.955 218.176 142.773 218.072 143.59 217.877C144.407 217.682 145.184 217.406 145.918 217.066L145.478 215.22C146.454 214.723 147.326 214.091 148.082 213.339L149.698 214.332C150.261 213.729 150.748 213.063 151.178 212.364C151.609 211.664 151.983 210.928 152.266 210.154L150.651 209.16C150.981 208.146 151.151 207.083 151.154 205.987L152.999 205.547C152.972 204.739 152.867 203.92 152.673 203.104C152.478 202.287 152.202 201.509 151.861 200.776L150.016 201.216C149.519 200.239 148.887 199.367 148.134 198.612L149.128 196.996C148.525 196.433 147.859 195.946 147.159 195.515C146.459 195.085 145.724 194.711 144.949 194.427L143.956 196.043C142.942 195.713 141.879 195.542 140.783 195.539L140.343 193.694C139.534 193.721 138.716 193.826 137.899 194.021V194.021ZM139.322 199.985C142.614 199.2 145.923 201.234 146.709 204.526C147.494 207.818 145.459 211.128 142.167 211.913C138.875 212.698 135.566 210.664 134.781 207.372C133.995 204.079 136.03 200.77 139.322 199.985Z" stroke="#FC766A" stroke-width="1.16787" stroke-linecap="round" stroke-linejoin="round"/>
<path d="M231.867 188.828L240.352 169.106C248.25 150.748 270.598 143.672 287.623 154.139C304.677 164.624 308.429 187.815 295.55 203.143L281.739 219.58C272.3 230.813 256.058 233.441 243.559 225.756C231.035 218.056 226.056 202.333 231.867 188.828Z" stroke="#243252" stroke-width="1.94645"/>
<path d="M237.071 178.67L240.453 170.232C247.881 151.698 270.21 144.318 287.221 154.776C304.265 165.255 307.733 188.575 294.474 203.559L288.45 210.367C278.588 221.513 262.141 223.958 249.463 216.164C236.754 208.35 231.521 192.518 237.071 178.67Z" fill="#243252"/>
<circle cx="130.165" cy="161.944" r="6.03401" transform="rotate(-13.417 130.165 161.944)" stroke="#243252" stroke-width="0.778582"/>
<circle cx="130.166" cy="161.944" r="8.75904" transform="rotate(-13.417 130.166 161.944)" stroke="#243252" stroke-width="0.778582"/>
<path d="M121.384 122.617C121.334 122.407 121.124 122.278 120.915 122.328C120.706 122.378 120.577 122.588 120.627 122.797L121.384 122.617ZM144.293 222.008C144.343 222.217 144.553 222.346 144.762 222.296C144.971 222.246 145.101 222.036 145.051 221.827L144.293 222.008ZM120.627 122.797L121.165 125.052L121.922 124.871L121.384 122.617L120.627 122.797ZM122.241 129.562L123.316 134.071L124.074 133.89L122.998 129.381L122.241 129.562ZM124.392 138.581L125.468 143.09L126.225 142.91L125.149 138.4L124.392 138.581ZM126.544 147.6L127.619 152.109L128.377 151.929L127.301 147.419L126.544 147.6ZM128.695 156.619L129.771 161.129L130.528 160.948L129.452 156.438L128.695 156.619ZM130.847 165.638L131.922 170.148L132.68 169.967L131.604 165.457L130.847 165.638ZM132.998 174.657L134.074 179.167L134.831 178.986L133.755 174.477L132.998 174.657ZM135.149 183.676L136.225 188.186L136.983 188.005L135.907 183.496L135.149 183.676ZM137.301 192.696L138.377 197.205L139.134 197.024L138.058 192.515L137.301 192.696ZM139.452 201.715L140.528 206.224L141.286 206.044L140.21 201.534L139.452 201.715ZM141.604 210.734L142.68 215.243L143.437 215.063L142.361 210.553L141.604 210.734ZM143.755 219.753L144.293 222.008L145.051 221.827L144.513 219.572L143.755 219.753Z" fill="#243252"/>
<path d="M164.01 110.047C163.96 109.838 163.75 109.709 163.541 109.759C163.332 109.808 163.203 110.018 163.253 110.228L164.01 110.047ZM180.054 180.659C180.104 180.869 180.314 180.998 180.523 180.948C180.732 180.898 180.861 180.688 180.812 180.479L180.054 180.659ZM163.253 110.228L163.778 112.429L164.535 112.248L164.01 110.047L163.253 110.228ZM164.828 116.831L165.878 121.233L166.635 121.052L165.585 116.65L164.828 116.831ZM166.928 125.635L167.978 130.037L168.736 129.856L167.686 125.454L166.928 125.635ZM169.028 134.438L170.078 138.84L170.836 138.66L169.786 134.258L169.028 134.438ZM171.129 143.242L172.179 147.644L172.936 147.464L171.886 143.062L171.129 143.242ZM173.229 152.046L174.279 156.448L175.036 156.268L173.986 151.866L173.229 152.046ZM175.329 160.85L176.379 165.252L177.136 165.072L176.086 160.67L175.329 160.85ZM177.429 169.654L178.479 174.056L179.236 173.876L178.186 169.474L177.429 169.654ZM179.529 178.458L180.054 180.659L180.812 180.479L180.287 178.278L179.529 178.458Z" fill="#243252"/>
<path d="M189.822 105.798C189.772 105.589 189.562 105.46 189.353 105.51C189.144 105.559 189.015 105.769 189.064 105.979L189.822 105.798ZM208.214 186.256C208.264 186.465 208.474 186.594 208.683 186.544C208.892 186.494 209.022 186.284 208.972 186.075L208.214 186.256ZM189.064 105.979L189.596 108.208L190.354 108.028L189.822 105.798L189.064 105.979ZM190.66 112.668L191.724 117.128L192.481 116.947L191.418 112.488L190.66 112.668ZM192.788 121.588L193.852 126.048L194.609 125.867L193.545 121.407L192.788 121.588ZM194.916 130.508L195.98 134.968L196.737 134.787L195.673 130.327L194.916 130.508ZM197.044 139.427L198.107 143.887L198.865 143.707L197.801 139.247L197.044 139.427ZM199.171 148.347L200.235 152.807L200.993 152.626L199.929 148.166L199.171 148.347ZM201.299 157.267L202.363 161.727L203.12 161.546L202.056 157.086L201.299 157.267ZM203.427 166.186L204.491 170.646L205.248 170.466L204.184 166.006L203.427 166.186ZM205.555 175.106L206.619 179.566L207.376 179.385L206.312 174.925L205.555 175.106ZM207.682 184.026L208.214 186.256L208.972 186.075L208.44 183.845L207.682 184.026Z" fill="#243252"/>
<path d="M217.857 107.607C217.807 107.398 217.597 107.269 217.388 107.319C217.179 107.369 217.05 107.579 217.1 107.788L217.857 107.607ZM232.366 171.783C232.415 171.992 232.625 172.121 232.835 172.071C233.044 172.021 233.173 171.811 233.123 171.602L232.366 171.783ZM217.1 107.788L217.645 110.074L218.402 109.893L217.857 107.607L217.1 107.788ZM218.735 114.645L219.826 119.216L220.583 119.035L219.493 114.464L218.735 114.645ZM220.916 123.787L222.007 128.358L222.764 128.177L221.674 123.606L220.916 123.787ZM223.097 132.929L224.188 137.5L224.945 137.319L223.854 132.748L223.097 132.929ZM225.278 142.071L226.368 146.642L227.126 146.461L226.035 141.89L225.278 142.071ZM227.459 151.213L228.549 155.784L229.306 155.603L228.216 151.032L227.459 151.213ZM229.64 160.355L230.73 164.926L231.487 164.745L230.397 160.174L229.64 160.355ZM231.82 169.497L232.366 171.783L233.123 171.602L232.578 169.316L231.82 169.497Z" fill="#243252"/>
<path d="M116.644 211.794C116.434 211.844 116.305 212.054 116.355 212.263C116.405 212.473 116.615 212.602 116.824 212.552L116.644 211.794ZM163.4 201.441C163.609 201.391 163.738 201.181 163.688 200.972C163.639 200.763 163.429 200.634 163.219 200.684L163.4 201.441ZM116.824 212.552L119.153 211.996L118.972 211.239L116.644 211.794L116.824 212.552ZM123.811 210.885L128.468 209.774L128.288 209.017L123.63 210.128L123.811 210.885ZM133.126 208.663L137.783 207.552L137.603 206.795L132.945 207.906L133.126 208.663ZM142.441 206.441L147.099 205.33L146.918 204.573L142.26 205.684L142.441 206.441ZM151.756 204.219L156.414 203.108L156.233 202.35L151.575 203.462L151.756 204.219ZM161.071 201.997L163.4 201.441L163.219 200.684L160.891 201.239L161.071 201.997Z" fill="#243252"/>
<path d="M92.443 170.742C92.2339 170.792 92.1048 171.002 92.1547 171.211C92.2045 171.421 92.4145 171.55 92.6237 171.5L92.443 170.742ZM235.759 137.355C235.969 137.305 236.098 137.095 236.048 136.886C235.998 136.677 235.788 136.548 235.579 136.598L235.759 137.355ZM92.6237 171.5L94.8602 170.966L94.6795 170.209L92.443 170.742L92.6237 171.5ZM99.3331 169.899L103.806 168.832L103.625 168.075L99.1525 169.142L99.3331 169.899ZM108.279 167.765L112.752 166.698L112.571 165.941L108.098 167.008L108.279 167.765ZM117.225 165.631L121.698 164.564L121.517 163.807L117.044 164.874L117.225 165.631ZM126.171 163.497L130.644 162.43L130.463 161.673L125.99 162.74L126.171 163.497ZM135.117 161.363L139.59 160.296L139.409 159.539L134.936 160.606L135.117 161.363ZM144.063 159.229L148.536 158.162L148.355 157.405L143.882 158.472L144.063 159.229ZM153.009 157.095L157.482 156.028L157.301 155.271L152.828 156.338L153.009 157.095ZM161.955 154.961L166.428 153.894L166.247 153.137L161.774 154.204L161.955 154.961ZM170.901 152.827L175.374 151.76L175.193 151.003L170.72 152.07L170.901 152.827ZM179.847 150.693L184.32 149.626L184.139 148.869L179.666 149.936L179.847 150.693ZM188.793 148.559L193.266 147.492L193.085 146.734L188.612 147.802L188.793 148.559ZM197.739 146.425L202.212 145.358L202.031 144.6L197.558 145.667L197.739 146.425ZM206.685 144.291L211.158 143.224L210.977 142.466L206.504 143.533L206.685 144.291ZM215.631 142.157L220.104 141.09L219.923 140.332L215.45 141.399L215.631 142.157ZM224.577 140.023L229.05 138.956L228.869 138.198L224.396 139.265L224.577 140.023ZM233.523 137.889L235.759 137.355L235.579 136.598L233.342 137.131L233.523 137.889Z" fill="#243252"/>
<path d="M117.773 216.528C117.459 216.603 117.265 216.918 117.34 217.231C117.415 217.545 117.73 217.739 118.044 217.664L117.773 216.528ZM122.966 216.49C123.28 216.415 123.474 216.1 123.399 215.786C123.324 215.472 123.009 215.279 122.695 215.354L122.966 216.49ZM118.044 217.664L122.966 216.49L122.695 215.354L117.773 216.528L118.044 217.664Z" fill="#243252"/>
<path d="M170.838 199.067C170.524 199.141 170.331 199.456 170.405 199.77C170.48 200.084 170.795 200.277 171.109 200.203L170.838 199.067ZM203.674 192.434C203.988 192.359 204.181 192.044 204.107 191.731C204.032 191.417 203.717 191.223 203.403 191.298L203.674 192.434ZM171.109 200.203L203.674 192.434L203.403 191.298L170.838 199.067L171.109 200.203Z" fill="#243252"/>
<path d="M171.922 203.611C171.608 203.685 171.415 204 171.489 204.314C171.564 204.628 171.879 204.821 172.193 204.747L171.922 203.611ZM202.107 197.611C202.421 197.536 202.615 197.221 202.54 196.907C202.465 196.593 202.15 196.4 201.836 196.475L202.107 197.611ZM172.193 204.747L202.107 197.611L201.836 196.475L171.922 203.611L172.193 204.747Z" fill="#243252"/>
<path d="M172.554 206.261C172.241 206.336 172.047 206.651 172.122 206.965C172.197 207.279 172.511 207.472 172.825 207.397L172.554 206.261ZM189.108 203.513C189.422 203.438 189.615 203.123 189.54 202.81C189.466 202.496 189.151 202.302 188.837 202.377L189.108 203.513ZM172.825 207.397L189.108 203.513L188.837 202.377L172.554 206.261L172.825 207.397Z" fill="#243252"/>
<path d="M118.54 219.746L128.764 217.307" stroke="#243252" stroke-width="1.16787" stroke-linecap="round"/>
<path d="M176.873 138.636L182.352 129.725" stroke="#FC766A" stroke-width="1.16787" stroke-linecap="round"/>
<path d="M174.02 153.684L194.491 120.385" stroke="#FC766A" stroke-width="1.16787" stroke-linecap="round"/>
<path d="M178.999 155.991L185.648 145.17M198.689 124.148L191.871 135.054" stroke="#FC766A" stroke-width="1.16787" stroke-linecap="round"/>
<path d="M182.729 160.331L187.835 152.025M204.642 124.687L199.656 132.796" stroke="#FC766A" stroke-width="1.16787" stroke-linecap="round"/>
<path d="M184.824 167.328L191.713 156.123M211.342 123.953L204.918 134.659" stroke="#FC766A" stroke-width="1.16787" stroke-linecap="round"/>
<path d="M191.485 166.899L196.629 158.532M214.066 130.377L209.2 137.968" stroke="#FC766A" stroke-width="1.16787" stroke-linecap="round"/>
<path d="M197.57 167.408L202.928 158.586M216.986 135.437L211.341 144.975" stroke="#FC766A" stroke-width="1.16787" stroke-linecap="round"/>
<path d="M201.924 170.732L222.436 136.995" stroke="#FC766A" stroke-width="1.16787" stroke-linecap="round"/>
<path d="M213.487 162.33L219.711 152.177" stroke="#FC766A" stroke-width="1.16787" stroke-linecap="round"/>
<path d="M192.559 121.082C190.861 121.487 189.244 122.061 187.719 122.769L188.634 126.606C186.604 127.64 184.791 128.955 183.219 130.519L179.859 128.453C178.688 129.707 177.675 131.091 176.78 132.547C175.886 134.002 175.108 135.531 174.518 137.141L177.878 139.207C177.191 141.316 176.837 143.527 176.83 145.805L172.994 146.721C173.05 148.401 173.268 150.103 173.673 151.801C174.078 153.5 174.652 155.117 175.36 156.642L179.197 155.727C180.231 157.757 181.546 159.57 183.11 161.142L181.044 164.502C182.298 165.672 183.682 166.685 185.138 167.58C186.593 168.475 188.122 169.253 189.732 169.843L191.798 166.483C193.907 167.17 196.118 167.524 198.396 167.53L199.312 171.367C200.992 171.31 202.694 171.093 204.392 170.687C206.091 170.282 207.708 169.708 209.233 169L208.318 165.164C210.348 164.13 212.161 162.815 213.733 161.25L217.093 163.316C218.263 162.063 219.276 160.679 220.171 159.223C221.066 157.768 221.844 156.239 222.434 154.628L219.074 152.563C219.761 150.454 220.115 148.243 220.121 145.964L223.958 145.049C223.901 143.368 223.684 141.667 223.278 139.968C222.873 138.27 222.299 136.653 221.591 135.128L217.755 136.043C216.72 134.013 215.406 132.2 213.841 130.628L215.907 127.268C214.654 126.097 213.27 125.084 211.814 124.189C210.359 123.295 208.83 122.517 207.219 121.927L205.154 125.287C203.045 124.6 200.834 124.245 198.555 124.239L197.64 120.403C195.959 120.459 194.258 120.677 192.559 121.082V121.082ZM195.518 133.483C202.363 131.851 209.244 136.081 210.877 142.927C212.51 149.772 208.28 156.653 201.434 158.286C194.589 159.919 187.707 155.689 186.075 148.843C184.442 141.998 188.672 135.116 195.518 133.483Z" stroke="#243252" stroke-width="1.94645" stroke-linecap="round" stroke-linejoin="round"/>
<path d="M85.0118 146.301L142.001 132.706" stroke="#243252" stroke-width="1.16787" stroke-linecap="round"/>
<path d="M118.285 190.992L153.501 182.592" stroke="#243252" stroke-width="1.16787" stroke-linecap="round"/>
<path d="M164.292 180.017L221.66 166.332" stroke="#243252" stroke-width="1.16787" stroke-linecap="round"/>
<path d="M175.937 124.811L210.774 116.501" stroke="#243252" stroke-width="1.16787" stroke-linecap="round"/>
<path d="M177.028 233.923C177.385 234.325 178 234.361 178.402 234.004C178.803 233.647 178.84 233.032 178.483 232.63L177.028 233.923ZM174.057 226.269L173.093 226.407L174.057 226.269ZM170.502 222.183C169.965 222.211 169.553 222.669 169.581 223.206C169.61 223.743 170.068 224.155 170.604 224.127L170.502 222.183ZM178.483 232.63C176.965 230.923 175.369 228.57 175.02 226.132L173.093 226.407C173.524 229.419 175.431 232.126 177.028 233.923L178.483 232.63ZM175.02 226.132C174.842 224.887 174.102 223.888 173.276 223.225C172.471 222.58 171.434 222.134 170.502 222.183L170.604 224.127C170.905 224.111 171.486 224.285 172.058 224.744C172.609 225.186 173.003 225.776 173.093 226.407L175.02 226.132Z" fill="#243252"/>
<path d="M170.748 226.269C170.748 224.842 170.865 222.026 167.439 222.182" stroke="#243252" stroke-width="1.94645" stroke-linecap="round"/>
<path d="M168.217 224.907C167.698 223.414 166.228 220.586 163.581 221.987" stroke="#243252" stroke-width="1.94645" stroke-linecap="round"/>
<path d="M165.566 227.487C166.024 227.769 166.624 227.626 166.905 227.169C167.187 226.711 167.044 226.111 166.586 225.83L165.566 227.487ZM156.539 215.174L156.149 216.066L156.152 216.067L156.539 215.174ZM153.424 217.121L154.398 217.121V217.121H153.424ZM159.458 230.162L160.329 230.597L160.347 230.561L160.362 230.524L159.458 230.162ZM149.921 227.437L149.653 226.501L149.633 226.507L149.613 226.514L149.921 227.437ZM149.921 231.33L150.518 230.562L149.921 231.33ZM164.147 244.199C164.482 244.619 165.094 244.689 165.515 244.354C165.935 244.019 166.005 243.407 165.67 242.987L164.147 244.199ZM166.586 225.83C166.528 225.794 166.388 225.675 166.186 225.403C165.994 225.143 165.78 224.791 165.558 224.351C165.114 223.472 164.665 222.301 164.289 220.948L162.414 221.469C162.816 222.919 163.308 224.213 163.821 225.229C164.077 225.736 164.346 226.189 164.622 226.561C164.889 226.921 165.203 227.264 165.566 227.487L166.586 225.83ZM164.289 220.948C163.812 219.232 162.382 217.771 160.978 216.686C159.542 215.577 157.961 214.73 156.926 214.281L156.152 216.067C157.063 216.462 158.499 217.231 159.788 218.227C161.109 219.247 162.112 220.382 162.414 221.469L164.289 220.948ZM156.929 214.283C156.311 214.012 155.265 213.74 154.289 214.06C153.767 214.231 153.279 214.57 152.937 215.125C152.604 215.665 152.451 216.338 152.451 217.121H154.398C154.398 216.58 154.504 216.291 154.593 216.147C154.673 216.018 154.769 215.951 154.895 215.909C155.217 215.804 155.728 215.882 156.149 216.066L156.929 214.283ZM152.451 217.121C152.451 218.099 153.041 218.902 153.617 219.51C154.209 220.136 154.998 220.765 155.701 221.352C156.436 221.966 157.116 222.561 157.632 223.19C158.144 223.816 158.436 224.405 158.489 224.995L160.428 224.819C160.326 223.696 159.785 222.747 159.137 221.956C158.492 221.17 157.683 220.471 156.948 219.858C156.182 219.218 155.521 218.69 155.03 218.172C154.523 217.636 154.398 217.31 154.398 217.121L152.451 217.121ZM158.489 224.995C158.642 226.68 158.672 227.873 158.651 228.671C158.64 229.071 158.617 229.363 158.591 229.564C158.563 229.788 158.539 229.84 158.555 229.801L160.362 230.524C160.443 230.322 160.49 230.064 160.522 229.808C160.558 229.528 160.585 229.169 160.597 228.723C160.621 227.831 160.586 226.559 160.428 224.819L158.489 224.995ZM158.588 229.727C158.549 229.804 158.46 229.893 158.301 229.9C158.112 229.909 157.568 229.815 156.643 228.89L155.267 230.266C156.366 231.365 157.411 231.888 158.387 231.845C159.393 231.8 160.043 231.169 160.329 230.597L158.588 229.727ZM156.643 228.89C155.51 227.757 154.2 227.045 152.973 226.672C151.768 226.304 150.567 226.24 149.653 226.501L150.188 228.373C150.637 228.244 151.441 228.239 152.406 228.533C153.35 228.821 154.376 229.375 155.267 230.266L156.643 228.89ZM149.613 226.514C149.237 226.639 148.813 226.842 148.436 227.135C148.062 227.426 147.683 227.848 147.503 228.421C147.108 229.682 147.836 230.941 149.323 232.098L150.518 230.562C149.203 229.539 149.347 229.046 149.36 229.003C149.385 228.924 149.459 228.806 149.631 228.671C149.802 228.538 150.02 228.43 150.229 228.36L149.613 226.514ZM149.323 232.098C151.642 233.901 158.162 236.679 164.147 244.199L165.67 242.987C159.509 235.246 152.365 231.998 150.518 230.562L149.323 232.098Z" fill="#243252"/>
<path d="M183.698 234.742V235.716V234.742ZM230.751 264.273C231.141 264.643 231.757 264.628 232.127 264.238C232.498 263.849 232.482 263.233 232.093 262.862L230.751 264.273ZM194.072 271.765C194.524 272.056 195.126 271.925 195.417 271.473C195.708 271.021 195.577 270.418 195.125 270.128L194.072 271.765ZM169.155 247.845L168.434 248.498L169.155 247.845ZM169.059 247.71L169.909 247.237L169.059 247.71ZM183.698 235.716C185.898 235.716 188.943 236.514 192.588 238.022C196.211 239.52 200.343 241.681 204.688 244.322C213.38 249.606 222.862 256.77 230.751 264.273L232.093 262.862C224.099 255.261 214.506 248.012 205.7 242.659C201.296 239.982 197.073 237.77 193.332 236.223C189.614 234.686 186.285 233.769 183.698 233.769V235.716ZM168.434 248.498C173.336 253.915 185.266 266.104 194.072 271.765L195.125 270.128C186.556 264.62 174.776 252.606 169.877 247.192L168.434 248.498ZM169.909 247.237C168.779 245.204 168.228 242.385 169.719 240.123C171.215 237.852 175.04 235.716 183.698 235.716V233.769C174.859 233.769 170.15 235.931 168.093 239.052C166.031 242.18 166.909 245.845 168.208 248.183L169.909 247.237ZM169.877 247.192C169.881 247.196 169.887 247.203 169.894 247.213C169.9 247.222 169.906 247.231 169.909 247.237L168.208 248.183C168.272 248.299 168.347 248.402 168.434 248.498L169.877 247.192Z" fill="#243252"/>
<path d="M41.5129 218.587L40.5611 218.384L40.5611 218.384L41.5129 218.587ZM35.6735 232.541L36.5104 233.038L35.6735 232.541ZM18.7559 260.158C18.4459 260.597 17.8386 260.702 17.3995 260.392C16.9604 260.082 16.8557 259.475 17.1657 259.036L18.7559 260.158ZM61.172 216.251L61.9496 215.666L61.9496 215.666L61.172 216.251ZM55.3546 250.194C55.1084 250.671 54.5214 250.859 54.0436 250.613C53.5659 250.367 53.3782 249.78 53.6244 249.302L55.3546 250.194ZM42.4646 218.79C41.652 222.595 39.4391 228.104 36.5104 233.038L34.8366 232.044C37.6842 227.247 39.8025 221.935 40.5611 218.384L42.4646 218.79ZM36.5104 233.038C32.2757 240.173 22.5019 254.851 18.7559 260.158L17.1657 259.036C20.894 253.754 30.6367 239.121 34.8366 232.044L36.5104 233.038ZM40.5611 218.384C40.9561 216.534 41.5437 214.275 42.4318 212.216C43.3096 210.18 44.5379 208.203 46.2915 207.078C48.1331 205.896 50.3918 205.755 53.012 207.087C55.5683 208.385 58.5105 211.097 61.9496 215.666L60.3944 216.836C57.0209 212.354 54.2942 209.921 52.1303 208.822C50.0303 207.755 48.5178 207.962 47.3425 208.716C46.079 209.527 45.0446 211.072 44.2192 212.986C43.4042 214.876 42.8482 216.994 42.4646 218.79L40.5611 218.384ZM61.9496 215.666C62.7437 216.721 63.6264 217.869 64.2256 219.373C64.834 220.9 65.1329 222.739 64.8988 225.208C64.4364 230.085 61.8804 237.532 55.3546 250.194L53.6244 249.302C60.1398 236.66 62.5367 229.5 62.961 225.024C63.1702 222.818 62.8959 221.295 62.4174 220.093C61.9298 218.869 61.2119 217.923 60.3944 216.836L61.9496 215.666Z" fill="#243252"/>
<path d="M67.2202 212.815C66.8813 213.232 66.2683 213.295 65.8512 212.956C65.434 212.617 65.3706 212.004 65.7096 211.587L67.2202 212.815ZM76.5438 199.383L75.6885 198.919L75.6959 198.905L75.7037 198.892L76.5438 199.383ZM79.9399 193.577L79.0999 193.086L79.1066 193.074L79.1137 193.063L79.9399 193.577ZM84.1044 185.234L83.2474 184.772L83.2474 184.772L84.1044 185.234ZM85.2795 182.877L86.1495 183.313L85.2795 182.877ZM85.8599 180.096L84.9635 180.475L84.9634 180.475L85.8599 180.096ZM77.8929 182.44L78.7434 182.914L78.7234 182.949L78.7005 182.984L77.8929 182.44ZM74.6708 186.416L75.3571 187.106L74.6708 186.416ZM61.8016 190.865C61.3791 190.533 61.3059 189.921 61.6382 189.498C61.9704 189.076 62.5823 189.002 63.0048 189.335L61.8016 190.865ZM65.7096 211.587C67.1222 209.849 69.1875 207.523 71.0439 205.293C72.9484 203.005 74.6986 200.742 75.6885 198.919L77.3991 199.848C76.3075 201.858 74.4424 204.252 72.5399 206.538C70.5893 208.881 68.656 211.048 67.2202 212.815L65.7096 211.587ZM79.1137 193.063C80.2337 191.263 81.0354 189.627 81.6689 188.23C82.2833 186.875 82.7877 185.627 83.2474 184.772L84.9614 185.695C84.5419 186.474 84.1144 187.55 83.4416 189.034C82.7878 190.476 81.9468 192.194 80.7662 194.091L79.1137 193.063ZM83.2474 184.772C83.6318 184.058 83.8447 183.567 84.4095 182.44L86.1495 183.313C85.6321 184.345 85.3585 184.957 84.9614 185.695L83.2474 184.772ZM84.4095 182.44C84.6547 181.951 84.8442 181.537 84.9426 181.171C85.0397 180.809 85.0176 180.603 84.9635 180.475L86.7564 179.717C87.0452 180.401 86.9784 181.095 86.8224 181.676C86.6677 182.252 86.3955 182.822 86.1495 183.313L84.4095 182.44ZM84.9634 180.475C84.905 180.337 84.3245 179.444 82.4772 179.947L81.966 178.069C84.6802 177.33 86.29 178.613 86.7565 179.718L84.9634 180.475ZM82.4772 179.947C80.5414 180.474 79.1638 182.158 78.7434 182.914L77.0424 181.967C77.6072 180.952 79.3404 178.784 81.966 178.069L82.4772 179.947ZM78.7005 182.984C78.426 183.392 77.7397 184.273 77.0736 185.096C76.4125 185.914 75.6953 186.77 75.3571 187.106L73.9846 185.726C74.233 185.479 74.8802 184.713 75.5601 183.873C76.235 183.038 76.8665 182.223 77.0853 181.897L78.7005 182.984ZM75.3571 187.106C74.6253 187.834 72.5206 189.652 70.0248 190.875C67.5871 192.07 64.3692 192.884 61.8016 190.865L63.0048 189.335C64.6257 190.609 66.8599 190.259 69.1681 189.127C71.4182 188.024 73.3531 186.354 73.9846 185.726L75.3571 187.106ZM75.7037 198.892L79.0999 193.086L80.78 194.068L77.3839 199.875L75.7037 198.892Z" fill="#243252"/>
<path d="M62.0432 185.517C61.568 185.768 60.9791 185.586 60.7279 185.111C60.4767 184.636 60.6582 184.047 61.1334 183.796L62.0432 185.517ZM74.1717 177.229L73.4951 176.529L73.7029 176.328L73.9867 176.273L74.1717 177.229ZM81.9528 174.339L82.9093 174.159L81.9528 174.339ZM76.6033 171.454L76.7756 170.496L76.6033 171.454ZM70.8591 171.895L70.3985 171.038L70.3985 171.038L70.8591 171.895ZM65.4408 175.177L64.8895 174.375L65.4408 175.177ZM62.1269 179.17C61.736 179.539 61.12 179.521 60.7512 179.13C60.3823 178.739 60.4002 178.123 60.7911 177.754L62.1269 179.17ZM68.0141 173.573L68.5526 174.384L68.4829 174.43L68.4065 174.464L68.0141 173.573ZM61.1334 183.796C62.8976 182.863 65.4219 181.593 67.8289 180.256C70.2615 178.904 72.425 177.564 73.4951 176.529L74.8482 177.928C73.5656 179.169 71.1758 180.623 68.7741 181.957C66.3468 183.305 63.7557 184.611 62.0432 185.517L61.1334 183.796ZM73.9867 176.273C74.6756 176.14 75.584 176.1 76.4451 176.058C77.3454 176.015 78.2467 175.971 79.0467 175.848C79.8723 175.721 80.4352 175.532 80.7467 175.298C80.8843 175.195 80.9491 175.1 80.9823 175.014C81.0159 174.927 81.0448 174.776 80.9964 174.519L82.9093 174.159C83.0114 174.702 82.9856 175.228 82.7987 175.714C82.6114 176.2 82.2899 176.573 81.915 176.855C81.2015 177.39 80.2346 177.635 79.3417 177.772C78.4232 177.913 77.4173 177.961 76.538 178.003C75.6195 178.047 74.8759 178.084 74.3566 178.184L73.9867 176.273ZM80.9964 174.519C81.0158 174.622 81.0504 174.652 81.0122 174.596C80.9819 174.552 80.9224 174.479 80.8224 174.381C80.623 174.186 80.3133 173.942 79.8957 173.688C79.0631 173.18 77.8698 172.67 76.431 172.412L76.7756 170.496C78.4599 170.799 79.8787 171.398 80.9087 172.026C81.4224 172.339 81.8567 172.669 82.1841 172.99C82.3475 173.15 82.4971 173.32 82.6179 173.496C82.7308 173.661 82.8585 173.889 82.9093 174.159L80.9964 174.519ZM76.431 172.412C74.2115 172.012 72.874 171.917 71.3198 172.752L70.3985 171.038C72.5784 169.866 74.5001 170.086 76.7756 170.496L76.431 172.412ZM65.9921 175.979C65.1437 176.562 63.8937 177.503 62.1269 179.17L60.7911 177.754C62.6303 176.019 63.9581 175.015 64.8895 174.375L65.9921 175.979ZM71.3198 172.752C70.2648 173.319 69.8789 173.503 68.5526 174.384L67.4756 172.763C68.8826 171.828 69.3365 171.608 70.3985 171.038L71.3198 172.752ZM68.4065 174.464C67.4557 174.883 66.9283 175.335 65.9921 175.979L64.8895 174.375C65.6857 173.827 66.4508 173.199 67.6217 172.683L68.4065 174.464Z" fill="#243252"/>
<path d="M68.4792 172.718C68.9514 172.975 69.1258 173.566 68.8689 174.038C68.612 174.511 68.021 174.685 67.5489 174.428L68.4792 172.718ZM62.1076 174.716L62.5396 175.588L62.1076 174.716ZM52.5681 180.873L51.9542 180.118L52.5681 180.873ZM48.7236 184.584L47.9067 184.055L47.9296 184.019L47.9555 183.986L48.7236 184.584ZM50.7231 190.125C50.9721 190.602 50.7878 191.19 50.3114 191.439C49.8351 191.688 49.2471 191.503 48.9981 191.027L50.7231 190.125ZM67.5489 174.428C67.6055 174.459 67.5278 174.41 67.2057 174.392C66.924 174.377 66.5376 174.39 66.0656 174.456C65.1236 174.587 63.8894 174.919 62.5396 175.588L61.6757 173.843C63.2147 173.081 64.6502 172.688 65.7975 172.528C66.37 172.449 66.8832 172.425 67.3107 172.449C67.6979 172.469 68.1391 172.533 68.4792 172.718L67.5489 174.428ZM62.5396 175.588C59.4554 177.115 59.003 177.647 57.7268 178.489L56.6549 176.864C57.8227 176.094 58.4485 175.442 61.6757 173.843L62.5396 175.588ZM57.7268 178.489C56.4798 179.312 54.0909 180.89 53.1821 181.628L51.9542 180.118C52.959 179.301 55.458 177.654 56.6549 176.864L57.7268 178.489ZM53.1821 181.628C51.5214 182.979 50.0392 184.478 49.4917 185.182L47.9555 183.986C48.626 183.124 50.2292 181.521 51.9542 180.118L53.1821 181.628ZM49.5405 185.113C49.3265 185.443 49.2232 185.71 49.1809 185.953C49.1388 186.194 49.1475 186.465 49.2321 186.818C49.4145 187.58 49.8966 188.544 50.7231 190.125L48.9981 191.027C48.2128 189.525 47.5903 188.321 47.3391 187.271C47.2068 186.719 47.1664 186.174 47.2635 185.618C47.3604 185.063 47.5845 184.552 47.9067 184.055L49.5405 185.113Z" fill="#243252"/>
<path d="M50.8269 196.301C50.8269 198.354 50.3606 203.218 48.9364 207.271" stroke="#243252" stroke-width="1.94645" stroke-linecap="round"/>
<path d="M79.0788 180.874L51.5929 195.892C48.2721 197.191 45.9621 192.639 49.4465 191.102L61.5692 184.639M82.9021 178.733L87.9851 175.985L85.5779 172.136L82.1369 173.874" stroke="#243252" stroke-width="1.94645" stroke-linecap="round"/>
<path d="M88.6708 175.612L91.5367 171.37" stroke="#243252" stroke-width="1.94645" stroke-linecap="round"/>
<path d="M86.2606 171.777L91.5367 171.37" stroke="#243252" stroke-width="1.94645" stroke-linecap="round"/>
<path d="M90.4345 38.2034L91.4077 38.1884L91.4076 38.1835L90.4345 38.2034ZM91.2498 90.953L90.2767 90.968L90.277 90.9865L90.278 91.005L91.2498 90.953ZM99.3756 90.6647L98.4026 90.6825L98.4033 90.7202L98.4069 90.7576L99.3756 90.6647ZM98.4153 38.2039L99.3883 38.1861L99.3882 38.1788L99.3879 38.1714L98.4153 38.2039ZM108.342 38.2039L107.37 38.2491L107.37 38.2508L108.342 38.2039ZM107.681 23.9583L106.709 24.0034L107.681 23.9583ZM106.903 23.2158L106.903 24.1891L106.903 23.2158ZM90.923 23.2158L90.923 24.1891L90.923 23.2158ZM90.1446 24.0103L89.1716 24.0302L90.1446 24.0103ZM110.056 90.6647L110.056 89.6915L110.056 90.6647ZM110.833 89.8486L109.861 89.8955L110.833 89.8486ZM89.4614 38.2185L90.2767 90.968L92.2229 90.9379L91.4076 38.1884L89.4614 38.2185ZM90.278 91.005C90.3789 92.8901 91.0504 94.3364 92.0965 95.2846C93.1364 96.2274 94.4675 96.6042 95.7422 96.494C98.3129 96.2717 100.68 94.0673 100.344 90.5718L98.4069 90.7576C98.634 93.1263 97.1175 94.4213 95.5745 94.5547C94.7923 94.6224 94.009 94.3912 93.4038 93.8425C92.8046 93.2994 92.3003 92.3711 92.2216 90.9009L90.278 91.005ZM100.349 90.6469L99.3883 38.1861L97.4422 38.2217L98.4026 90.6825L100.349 90.6469ZM99.3756 91.6379L110.056 91.6379L110.056 89.6915L99.3756 89.6915L99.3756 91.6379ZM111.805 89.8017L109.314 38.157L107.37 38.2508L109.861 89.8955L111.805 89.8017ZM97.9143 22.2426L90.923 22.2426L90.923 24.1891L97.9143 24.1891L97.9143 22.2426ZM89.1716 24.0302L89.4615 38.2233L91.4076 38.1835L91.1176 23.9904L89.1716 24.0302ZM109.314 38.1588L108.653 23.9132L106.709 24.0034L107.37 38.2491L109.314 38.1588ZM99.3879 38.1714L98.887 23.1833L96.9416 23.2483L97.4426 38.2364L99.3879 38.1714ZM106.903 22.2426L97.9143 22.2426L97.9143 24.1891L106.903 24.1891L106.903 22.2426ZM108.653 23.9132C108.61 22.9783 107.839 22.2426 106.903 22.2426L106.903 24.1891C106.799 24.1891 106.714 24.1073 106.709 24.0034L108.653 23.9132ZM90.923 22.2426C89.9415 22.2426 89.1515 23.0489 89.1716 24.0302L91.1176 23.9904C91.1198 24.0995 91.0321 24.1891 90.923 24.1891L90.923 22.2426ZM110.056 91.6379C111.056 91.6379 111.853 90.8012 111.805 89.8017L109.861 89.8955C109.856 89.7845 109.944 89.6915 110.056 89.6915L110.056 91.6379Z" fill="#243252"/>
<rect x="108.632" y="44.4324" width="88.7583" height="55.2793" rx="2.91968" transform="rotate(-30 108.632 44.4324)" stroke="#243252" stroke-width="1.94645"/>
<ellipse cx="120.234" cy="47.3988" rx="2.1411" ry="2.33575" transform="rotate(-30 120.234 47.3988)" fill="#243252"/>
<path d="M190.476 49.5487L202.613 42.5415M196.654 50.4772L204.559 45.9128" stroke="#243252" stroke-width="1.94645" stroke-linecap="round"/>
<path d="M134.178 68.9438C133.739 69.2537 133.634 69.8609 133.944 70.3001C134.253 70.7393 134.861 70.8441 135.3 70.5342L134.178 68.9438ZM176.692 26.853C177.044 27.2594 177.659 27.3036 178.065 26.9518C178.471 26.6 178.516 25.9854 178.164 25.579L176.692 26.853ZM168.557 21.2034L168.326 20.2579L168.557 21.2034ZM168.258 20.5699L167.704 19.7703L168.258 20.5699ZM172.476 20.9855L171.691 20.4114L172.476 20.9855ZM172.068 20.347L171.838 19.4015L172.068 20.347ZM176.702 49.2406L176.677 50.2135L176.702 49.2406ZM176.972 48.4535L177.539 47.6619L176.972 48.4535ZM154.163 71.2961L155.135 71.2467L154.163 71.2961ZM135.3 70.5342C137.507 68.9769 144.335 66.9004 153.021 72.4651L154.071 70.8261C144.763 64.8627 137.074 66.9006 134.178 68.9438L135.3 70.5342ZM155.135 71.2467C154.853 65.7016 154.862 60.3754 157.521 56.4722C160.114 52.6651 165.466 49.9233 176.677 50.2135L176.727 48.2677C165.254 47.9708 159.057 50.7584 155.912 55.3765C152.832 59.8987 152.914 65.8938 153.191 71.3455L155.135 71.2467ZM177.539 47.6619C174.594 45.5556 171.296 42.0458 169.85 37.5827C168.423 33.1793 168.756 27.7281 173.262 21.5595L171.691 20.4114C166.841 27.0505 166.366 33.1471 167.998 38.1827C169.61 43.1585 173.238 46.9789 176.406 49.2451L177.539 47.6619ZM171.838 19.4015L168.326 20.2579L168.787 22.1489L172.299 21.2925L171.838 19.4015ZM168.813 21.3695C170.405 20.2648 172.308 19.1588 173.707 18.6798C174.05 18.5622 174.335 18.4924 174.558 18.464C174.792 18.4343 174.894 18.4585 174.91 18.4642C174.911 18.4646 174.887 18.4561 174.855 18.4278C174.822 18.398 174.802 18.3654 174.793 18.3449C174.781 18.3164 174.821 18.3879 174.777 18.6533L176.697 18.9732C176.774 18.5107 176.773 18.0211 176.582 17.5768C176.374 17.0922 175.99 16.7778 175.545 16.6241C175.135 16.4829 174.7 16.4838 174.313 16.533C173.916 16.5835 173.496 16.6945 173.076 16.8384C171.421 17.4053 169.342 18.6333 167.704 19.7703L168.813 21.3695ZM174.777 18.6533C174.48 20.4332 174.409 21.8849 174.709 23.2112C175.014 24.5598 175.681 25.685 176.692 26.853L178.164 25.579C177.288 24.5675 176.821 23.7235 176.608 22.7817C176.39 21.8175 176.416 20.6575 176.697 18.9732L174.777 18.6533ZM168.326 20.2579C168.59 20.1936 168.883 20.3368 169.006 20.5967C169.064 20.7176 169.086 20.8676 169.047 21.0221C169.005 21.1856 168.908 21.3036 168.813 21.3695L167.704 19.7703C167.123 20.1733 166.986 20.8786 167.247 21.4295C167.504 21.9713 168.118 22.3122 168.787 22.1489L168.326 20.2579ZM173.262 21.5595C173.637 21.0468 173.581 20.427 173.311 20.0005C173.037 19.5682 172.481 19.2444 171.838 19.4015L172.299 21.2925C172.014 21.3619 171.772 21.208 171.667 21.0422C171.565 20.8822 171.534 20.6254 171.691 20.4114L173.262 21.5595ZM176.677 50.2135C177.395 50.2321 177.868 49.7319 178.032 49.2563C178.196 48.7793 178.131 48.0859 177.539 47.6619L176.406 49.2451C176.142 49.056 176.144 48.7614 176.192 48.6218C176.239 48.4837 176.413 48.2596 176.727 48.2677L176.677 50.2135ZM153.021 72.4651C153.929 73.0462 155.193 72.3949 155.135 71.2467L153.191 71.3455C153.165 70.8402 153.706 70.5922 154.071 70.8261L153.021 72.4651Z" fill="#243252"/>
</svg>
