<svg width="272" height="258" viewBox="0 0 272 258" fill="none" xmlns="http://www.w3.org/2000/svg">
<path d="M128.299 234.116C131.912 234.957 142.163 235.528 144.18 229.075" stroke="#243252" stroke-width="2.52078" stroke-linecap="round"/>
<path d="M133.593 220C139.643 225.798 149.222 235.125 154.263 227.562L157.288 222.521" stroke="#243252" stroke-width="2.52078" stroke-linecap="round"/>
<path d="M133.593 204.371C140.483 210.925 161.624 226.655 170.9 221.008C172.581 219.916 175.992 216.42 176.194 211.177" stroke="#243252" stroke-width="2.52078" stroke-linecap="round"/>
<path d="M151.006 194.556C150.458 194.127 149.666 194.224 149.237 194.772C148.808 195.321 148.905 196.113 149.453 196.542L151.006 194.556ZM179.722 191.768L178.929 192.747L178.962 192.774L178.997 192.798L179.722 191.768ZM150.014 166.085C149.474 165.646 148.68 165.73 148.242 166.271C147.804 166.812 147.887 167.605 148.428 168.043L150.014 166.085ZM149.453 196.542C153.744 199.898 160.633 204.583 167.374 207.726C170.74 209.295 174.135 210.512 177.188 210.959C180.219 211.402 183.138 211.118 185.299 209.389L183.725 207.42C182.357 208.515 180.286 208.865 177.554 208.464C174.844 208.068 171.7 206.962 168.439 205.441C161.925 202.404 155.201 197.838 151.006 194.556L149.453 196.542ZM185.299 209.389C187.27 207.812 188.335 205.997 188.626 204.059C188.912 202.151 188.424 200.282 187.595 198.607C185.952 195.288 182.803 192.394 180.448 190.737L178.997 192.798C181.179 194.334 183.954 196.935 185.336 199.725C186.019 201.105 186.319 202.443 186.133 203.685C185.951 204.897 185.283 206.174 183.725 207.42L185.299 209.389ZM180.516 190.788L150.014 166.085L148.428 168.043L178.929 192.747L180.516 190.788Z" fill="#243252"/>
<path d="M63.0929 170.485C62.4767 170.162 61.7147 170.399 61.391 171.015C61.0673 171.631 61.3045 172.393 61.9207 172.717L63.0929 170.485ZM71.8337 183.449L73.0437 183.096L71.8337 183.449ZM79.8938 197.308C80.448 197.729 81.2388 197.622 81.66 197.067C82.0812 196.513 81.9733 195.722 81.4191 195.301L79.8938 197.308ZM61.9207 172.717C63.61 173.604 65.4699 175.252 67.086 177.287C68.6977 179.317 69.9929 181.639 70.6237 183.802L73.0437 183.096C72.3006 180.548 70.8229 177.94 69.06 175.72C67.3015 173.505 65.1849 171.584 63.0929 170.485L61.9207 172.717ZM70.6237 183.802C71.5636 187.024 73.3371 189.978 75.117 192.311C76.8939 194.641 78.7363 196.428 79.8938 197.308L81.4191 195.301C80.476 194.584 78.7893 192.969 77.1212 190.782C75.4559 188.599 73.8684 185.923 73.0437 183.096L70.6237 183.802Z" fill="#243252"/>
<path d="M137.662 138.993C138.308 139.251 139.042 138.937 139.3 138.291C139.559 137.644 139.245 136.911 138.598 136.652L137.662 138.993ZM92.5041 128.748L91.845 129.822L91.8617 129.832L91.8787 129.842L92.5041 128.748ZM63.1659 109.272C62.5725 108.908 61.7965 109.094 61.4325 109.687C61.0685 110.28 61.2544 111.057 61.8478 111.421L63.1659 109.272ZM138.598 136.652C135.999 135.613 131.131 134.065 125.508 133.005C119.896 131.946 113.43 131.352 107.677 132.294L108.084 134.781C113.423 133.908 119.561 134.448 125.041 135.482C130.509 136.513 135.22 138.016 137.662 138.993L138.598 136.652ZM107.677 132.294C102.219 133.187 100.063 132.69 98.6527 131.869C97.8901 131.424 97.2825 130.855 96.4182 130.086C95.5742 129.335 94.5673 128.475 93.1294 127.654L91.8787 129.842C93.0876 130.533 93.9398 131.255 94.7423 131.969C95.5244 132.665 96.3504 133.445 97.3839 134.047C99.5658 135.318 102.451 135.703 108.084 134.781L107.677 132.294ZM93.1631 127.674L63.1659 109.272L61.8478 111.421L91.845 129.822L93.1631 127.674Z" fill="#243252"/>
<path d="M178.462 136.31L189.554 130.512M188.293 201.599C192.932 200.389 200.645 193.532 203.922 190.255L216.778 183.449" stroke="#243252" stroke-width="2.52078" stroke-linecap="round"/>
<path d="M179.471 163.283C172.077 167.736 153.557 173.214 138.634 161.518" stroke="#243252" stroke-width="2.52078" stroke-linecap="round"/>
<path d="M139.662 162.247C140.065 161.68 139.932 160.893 139.364 160.49C138.796 160.087 138.01 160.221 137.607 160.789L139.662 162.247ZM110.906 166.56L111.933 167.29L111.99 167.211L112.033 167.123L110.906 166.56ZM178.018 137.49C178.67 137.735 179.397 137.406 179.642 136.755C179.888 136.104 179.559 135.377 178.908 135.131L178.018 137.49ZM137.607 160.789C134.87 164.645 130.294 170.25 125.484 174.522C123.076 176.661 120.661 178.419 118.43 179.471C116.179 180.532 114.31 180.786 112.854 180.249L111.983 182.615C114.359 183.49 116.989 182.937 119.505 181.751C122.043 180.554 124.663 178.622 127.158 176.407C132.154 171.969 136.854 166.205 139.662 162.247L137.607 160.789ZM112.854 180.249C111.166 179.627 110.202 178.753 109.663 177.819C109.115 176.869 108.929 175.729 109.036 174.461C109.254 171.881 110.657 169.085 111.933 167.29L109.879 165.829C108.466 167.816 106.794 171.044 106.524 174.249C106.388 175.874 106.606 177.566 107.48 179.079C108.362 180.608 109.84 181.825 111.983 182.615L112.854 180.249ZM112.033 167.123C115.861 159.469 123.786 148.774 135.054 141.648C146.274 134.554 160.797 130.995 178.018 137.49L178.908 135.131C160.838 128.316 145.49 132.067 133.707 139.518C121.973 146.937 113.766 158.021 109.779 165.996L112.033 167.123Z" fill="#243252"/>
<path d="M125.022 236.385L124.397 235.291L125.022 236.385ZM118.216 221.513L117.017 221.125L118.216 221.513ZM114.699 230.523L113.588 229.926L113.563 229.973L113.542 230.022L114.699 230.523ZM125.648 237.48C126.573 236.951 127.612 235.697 128.438 233.752C129.284 231.762 129.959 228.934 130.063 225.076L127.543 225.008C127.446 228.611 126.819 231.118 126.118 232.767C125.399 234.46 124.648 235.147 124.397 235.291L125.648 237.48ZM130.063 225.076C130.182 220.693 127.458 218.121 124.437 217.452C121.57 216.818 118.059 217.898 117.017 221.125L119.415 221.9C119.92 220.337 121.803 219.451 123.893 219.914C125.83 220.342 127.627 221.929 127.543 225.008L130.063 225.076ZM113.542 230.022C112.312 232.86 113.992 235.731 116.354 237.275C118.794 238.869 122.327 239.377 125.648 237.48L124.397 235.291C121.983 236.67 119.466 236.296 117.733 235.164C115.923 233.982 115.309 232.284 115.855 231.024L113.542 230.022ZM117.017 221.125C116.348 223.196 114.746 227.772 113.588 229.926L115.809 231.119C117.09 228.734 118.755 223.945 119.415 221.9L117.017 221.125Z" fill="#243252"/>
<path d="M103.092 221.009L102.147 220.175H102.147L103.092 221.009ZM118.216 214.959L117.063 215.466L118.216 214.959ZM102.147 220.175C100.028 222.576 98.9426 226.217 99.669 229.145C100.043 230.655 100.919 232.024 102.426 232.843C103.914 233.651 105.839 233.827 108.145 233.332L107.617 230.868C105.688 231.281 104.425 231.06 103.629 230.628C102.854 230.207 102.352 229.493 102.116 228.538C101.619 226.538 102.375 223.726 104.037 221.842L102.147 220.175ZM108.145 233.332C112.978 232.297 116.047 228.11 117.754 224.204C118.622 222.22 119.18 220.217 119.457 218.545C119.596 217.709 119.668 216.935 119.667 216.271C119.666 215.647 119.603 214.98 119.37 214.451L117.063 215.466C117.061 215.463 117.068 215.478 117.078 215.518C117.088 215.557 117.1 215.612 117.11 215.685C117.132 215.832 117.146 216.028 117.146 216.274C117.147 216.765 117.092 217.397 116.97 218.133C116.727 219.603 116.227 221.405 115.445 223.195C113.852 226.839 111.254 230.088 107.617 230.868L108.145 233.332ZM119.37 214.451C118.912 213.41 117.912 212.005 116.32 211.35C114.602 210.644 112.545 210.947 110.363 212.72L111.953 214.676C113.603 213.335 114.697 213.409 115.361 213.682C116.151 214.007 116.765 214.789 117.063 215.466L119.37 214.451ZM110.363 212.72C106.515 215.849 103.428 218.723 102.147 220.175L104.037 221.842C105.179 220.548 108.138 217.778 111.953 214.676L110.363 212.72Z" fill="#243252"/>
<path d="M88.723 210.169L89.583 211.09L89.6117 211.064L89.6386 211.035L88.723 210.169ZM109.141 213.95L108.014 213.386L108.004 213.407L107.994 213.429L109.141 213.95ZM87.863 209.248C85.6893 211.276 84.4314 214.631 85.1188 217.623C85.4709 219.155 86.334 220.574 87.8074 221.608C89.2665 222.633 91.2401 223.222 93.7372 223.277L93.7919 220.756C91.6508 220.71 90.2024 220.21 89.2558 219.545C88.3234 218.89 87.7969 218.022 87.5755 217.058C87.116 215.058 87.9755 212.591 89.583 211.09L87.863 209.248ZM93.7372 223.277C103.576 223.491 108.845 217.648 110.289 214.472L107.994 213.429C106.917 215.798 102.506 220.946 93.7919 220.756L93.7372 223.277ZM110.269 214.514C111.078 212.894 111.923 210.375 111.614 207.919C111.457 206.665 110.993 205.403 110.05 204.318C109.108 203.233 107.756 202.404 105.953 201.897L105.271 204.324C106.695 204.725 107.587 205.326 108.147 205.971C108.707 206.616 109.006 207.384 109.113 208.234C109.334 209.988 108.717 211.981 108.014 213.386L110.269 214.514ZM105.953 201.897C102.272 200.862 98.4295 202.013 95.2639 203.678C92.0733 205.356 89.3563 207.665 87.8074 209.303L89.6386 211.035C91.0306 209.564 93.5316 207.437 96.4371 205.909C99.3676 204.368 102.499 203.544 105.271 204.324L105.953 201.897Z" fill="#243252"/>
<path d="M75.6148 200.842L74.6768 200L74.6449 200.036L74.6158 200.073L75.6148 200.842ZM93.0082 206.388L93.6203 207.489L93.6297 207.484L93.639 207.479L93.0082 206.388ZM74.1024 207.648L72.8905 207.994L72.9082 208.056L72.9321 208.116L74.1024 207.648ZM76.5529 201.684C79.3373 198.581 87.2465 192.996 96.4895 195.26L97.0892 192.812C86.5693 190.235 77.7742 196.549 74.6768 200L76.5529 201.684ZM96.4895 195.26C98.8678 195.842 99.7337 196.603 100.003 197.126C100.229 197.567 100.214 198.234 99.5542 199.282C98.9073 200.31 97.7986 201.428 96.4648 202.506C95.1457 203.573 93.6755 204.546 92.3774 205.297L93.639 207.479C95.0297 206.675 96.6117 205.629 98.0497 204.467C99.4731 203.316 100.826 201.993 101.688 200.625C102.536 199.276 103.075 197.589 102.244 195.973C101.456 194.439 99.6516 193.439 97.0892 192.812L96.4895 195.26ZM92.3961 205.286C89.8144 206.72 85.8257 208.481 82.2459 209.151C80.4503 209.486 78.872 209.525 77.6596 209.2C76.5058 208.89 75.7068 208.265 75.2726 207.18L72.9321 208.116C73.7079 210.056 75.2154 211.154 77.0062 211.634C78.7384 212.099 80.7427 211.996 82.7094 211.628C86.6541 210.89 90.9083 208.996 93.6203 207.489L92.3961 205.286ZM75.3143 207.302C75.0594 206.41 74.8981 203.841 76.6138 201.61L74.6158 200.073C72.2984 203.086 72.4732 206.534 72.8905 207.994L75.3143 207.302Z" fill="#243252"/>
<path d="M110.401 103.288C111.914 106.649 114.485 114.934 112.67 121.186" stroke="#243252" stroke-width="2.52078" stroke-linecap="round"/>
<path d="M119.729 109.59C120.149 111.439 120.989 115.892 120.989 118.917" stroke="#243252" stroke-width="2.52078" stroke-linecap="round"/>
<path d="M151.238 91.6926L157.036 112.111" stroke="#243252" stroke-width="2.52078" stroke-linecap="round"/>
<path d="M167.623 100.767L165.859 112.867" stroke="#243252" stroke-width="2.52078" stroke-linecap="round"/>
<path d="M183.252 109.59L174.43 116.396" stroke="#243252" stroke-width="2.52078" stroke-linecap="round"/>
<circle cx="8.81441" cy="131.773" r="7.81441" fill="#FC766A"/>
<path d="M21.5284 131.187C20.836 131.258 20.3324 131.877 20.4037 132.57C20.475 133.262 21.0942 133.765 21.7866 133.694L21.5284 131.187ZM46.1741 157.472L46.0256 156.221L46.0009 156.223L45.9762 156.227L46.1741 157.472ZM3.26869 142.915C3.26869 142.218 2.70439 141.654 2.0083 141.654C1.31221 141.654 0.747913 142.218 0.747913 142.915H3.26869ZM21.7866 133.694C28.3057 133.023 36.6592 133.089 43.6419 134.566C47.1351 135.304 50.2129 136.381 52.5364 137.84C54.8505 139.293 56.3332 141.069 56.8461 143.208L59.2974 142.621C58.5845 139.647 56.555 137.387 53.8771 135.705C51.2087 134.029 47.8148 132.871 44.1633 132.099C36.8568 130.555 28.2289 130.497 21.5284 131.187L21.7866 133.694ZM56.8461 143.208C57.4108 145.564 57.2798 147.47 56.755 149.015C56.2288 150.563 55.2797 151.827 54.0904 152.851C51.6803 154.925 48.3578 155.944 46.0256 156.221L46.3226 158.724C48.9778 158.409 52.8299 157.262 55.7348 154.761C57.2029 153.498 58.4463 151.872 59.1418 149.825C59.8387 147.774 59.9585 145.378 59.2974 142.621L56.8461 143.208ZM45.9762 156.227C36.563 157.723 25.7011 158.102 17.2536 156.155C13.0304 155.182 9.51538 153.651 7.07555 151.486C4.67661 149.358 3.26869 146.578 3.26869 142.915H0.747913C0.747913 147.329 2.48719 150.785 5.40243 153.372C8.27677 155.922 12.2429 157.587 16.6876 158.612C25.5759 160.66 36.7969 160.239 46.3719 158.717L45.9762 156.227Z" fill="#243252"/>
<circle cx="16.8808" cy="146.393" r="2.01662" stroke="#243252" stroke-width="1.51247"/>
<path d="M32.0055 146.393C32.0055 147.447 31.0531 148.41 29.7368 148.41C28.4206 148.41 27.4681 147.447 27.4681 146.393C27.4681 145.34 28.4206 144.377 29.7368 144.377C31.0531 144.377 32.0055 145.34 32.0055 146.393Z" stroke="#243252" stroke-width="1.51247"/>
<circle cx="42.5927" cy="146.393" r="2.01662" stroke="#243252" stroke-width="1.51247"/>
<circle cx="228.122" cy="226.05" r="7.31025" fill="#FC766A"/>
<path d="M240.008 219.496C239.312 219.496 238.747 220.06 238.747 220.756C238.747 221.452 239.312 222.017 240.008 222.017V219.496ZM263.068 220.756V222.017V220.756ZM270.218 249.761L268.958 249.781L270.218 249.761ZM233.93 255.811L233.957 254.551L233.943 254.551H233.93V255.811ZM225.349 246.914L226.61 246.914V246.914H225.349ZM226.61 238.907C226.61 238.211 226.045 237.646 225.349 237.646C224.653 237.646 224.089 238.211 224.089 238.907H226.61ZM240.008 222.017C242.285 222.017 246.439 222.017 250.966 222.017C255.425 222.017 260.094 222.017 263.068 222.017V219.496C260.094 219.496 255.425 219.496 250.966 219.496C246.439 219.496 242.285 219.496 240.008 219.496V222.017ZM263.068 222.017C265.487 222.017 266.772 222.315 267.555 223.109C268.36 223.925 268.958 225.596 268.958 229.298H271.478C271.478 225.526 270.914 222.926 269.35 221.339C267.765 219.732 265.475 219.496 263.068 219.496L263.068 222.017ZM268.958 229.298C268.958 236.539 268.898 245.972 268.958 249.781L271.478 249.742C271.419 245.958 271.478 236.58 271.478 229.298H268.958ZM268.958 249.781C268.976 250.915 268.699 252.013 268.044 252.85C267.41 253.659 266.311 254.371 264.377 254.557L264.619 257.066C267.118 256.825 268.899 255.846 270.028 254.404C271.135 252.991 271.502 251.276 271.478 249.742L268.958 249.781ZM264.377 254.557C260.038 254.975 242.347 254.73 233.957 254.551L233.903 257.072C242.197 257.248 260.091 257.502 264.619 257.066L264.377 254.557ZM233.93 254.551C232.578 254.551 230.723 254.16 229.238 253.036C227.814 251.957 226.609 250.114 226.61 246.914L224.089 246.914C224.089 250.855 225.625 253.461 227.716 255.045C229.748 256.584 232.183 257.072 233.93 257.072V254.551ZM226.61 246.914V238.907H224.089V246.914H226.61Z" fill="#243252"/>
<path d="M236.944 233.36L248.036 240.923" stroke="#243252" stroke-width="2.52078" stroke-linecap="round"/>
<path d="M248.036 240.922L268.202 222.269" stroke="#243252" stroke-width="2.52078" stroke-linecap="round"/>
<path d="M232.912 247.476L241.042 236.385M253.148 236.385L264.169 247.476" stroke="#243252" stroke-width="2.52078" stroke-linecap="round"/>
<path d="M231.779 102.806L205.563 122.721C172.288 148.18 204.806 176.749 216.906 183.219L255.474 158.516" stroke="#243252" stroke-width="2.52078" stroke-linecap="round"/>
<path d="M120.182 38.3742C123.963 37.8701 132.08 34.9964 134.298 27.5349" stroke="#243252" stroke-width="2.52078" stroke-linecap="round"/>
<path d="M107.83 32.3242C110.35 32.4082 116.148 31.1646 119.173 25.5181" stroke="#243252" stroke-width="2.52078" stroke-linecap="round"/>
<path d="M96.4868 23.2496C100.52 22.412 109.292 19.8032 112.116 16.0693" stroke="#243252" stroke-width="2.52078" stroke-linecap="round"/>
<path d="M132.961 51.0517C107.613 56.709 83.9801 31.4754 74.6028 17.1405C74.2454 16.5941 74.5116 15.8693 75.1306 15.6617L115.034 2.27971C115.406 2.15485 115.815 2.25694 116.089 2.53782C129.376 16.1374 154.062 22.1303 167.073 23.7666C167.993 23.8823 168.317 25.0785 167.571 25.6289L133.335 50.8806C133.224 50.9626 133.095 51.0216 132.961 51.0517Z" stroke="#243252" stroke-width="2.52078" stroke-linecap="round"/>
</svg>
