<svg width="86" height="67" viewBox="0 0 86 67" fill="none" xmlns="http://www.w3.org/2000/svg">
<path d="M29.9321 63.9451C31.4996 64.3096 35.9467 64.5575 36.8216 61.7579" stroke="#243252" stroke-width="1.09357" stroke-linecap="round"/>
<path d="M32.2288 57.821C34.8533 60.3362 39.0089 64.3824 41.196 61.1017L42.5083 58.9146" stroke="#243252" stroke-width="1.09357" stroke-linecap="round"/>
<path d="M32.2288 51.0408C35.2178 53.8841 44.3892 60.708 48.4136 58.2584C49.1426 57.7845 50.6226 56.2681 50.71 53.9935" stroke="#243252" stroke-width="1.09357" stroke-linecap="round"/>
<path d="M39.783 46.7827C39.5452 46.5967 39.2015 46.6387 39.0155 46.8765C38.8294 47.1144 38.8714 47.458 39.1093 47.6441L39.783 46.7827ZM52.2409 45.5731L51.8968 45.998L51.9111 46.0096L51.9262 46.0202L52.2409 45.5731ZM39.3529 34.4312C39.1183 34.2411 38.7739 34.2773 38.5839 34.5119C38.3938 34.7466 38.43 35.0909 38.6647 35.281L39.3529 34.4312ZM39.1093 47.6441C40.9709 49.1002 43.9594 51.1326 46.8838 52.4961C48.3441 53.1769 49.8169 53.7046 51.1416 53.8986C52.4565 54.0911 53.7226 53.9677 54.6603 53.2176L53.9771 52.3636C53.3837 52.8383 52.4856 52.9901 51.3 52.8165C50.1243 52.6444 48.7607 52.1646 47.3459 51.5049C44.5199 50.1874 41.6031 48.2063 39.783 46.7827L39.1093 47.6441ZM54.6603 53.2176C55.5154 52.5335 55.9772 51.746 56.1034 50.9054C56.2276 50.0775 56.016 49.2667 55.6562 48.54C54.9434 47.1005 53.5773 45.8449 52.5556 45.1259L51.9262 46.0202C52.873 46.6864 54.0768 47.8148 54.6762 49.0253C54.9725 49.6237 55.1027 50.2045 55.0219 50.7431C54.943 51.2689 54.653 51.8229 53.9771 52.3636L54.6603 53.2176ZM52.5851 45.1481L39.3529 34.4312L38.6647 35.281L51.8968 45.998L52.5851 45.1481Z" fill="#243252"/>
<path d="M1.64415 36.3405C1.37681 36.2001 1.04625 36.3029 0.905821 36.5703C0.765398 36.8376 0.868288 37.1682 1.13563 37.3086L1.64415 36.3405ZM5.43609 41.9643L5.961 41.8112L5.43609 41.9643ZM8.93276 47.9769C9.17319 48.1596 9.51622 48.1128 9.69894 47.8724C9.88166 47.6319 9.83489 47.2889 9.59446 47.1062L8.93276 47.9769ZM1.13563 37.3086C1.86846 37.6935 2.67533 38.4084 3.37642 39.2913C4.07564 40.1718 4.63749 41.1791 4.91118 42.1174L5.961 41.8112C5.63864 40.7061 4.99759 39.5743 4.23282 38.6112C3.46991 37.6505 2.55171 36.8172 1.64415 36.3405L1.13563 37.3086ZM4.91118 42.1174C5.31894 43.5154 6.08832 44.7968 6.86044 45.809C7.63134 46.8197 8.4306 47.5952 8.93276 47.9769L9.59446 47.1062C9.18531 46.7952 8.45358 46.0945 7.72993 45.1458C7.00749 44.1987 6.31877 43.0378 5.961 41.8112L4.91118 42.1174Z" fill="#243252"/>
<path d="M33.9939 22.6784C34.2742 22.7905 34.5925 22.6542 34.7046 22.3738C34.8168 22.0934 34.6804 21.7752 34.4 21.663L33.9939 22.6784ZM14.4034 18.2338L14.1174 18.6999L14.1247 18.7044L14.1321 18.7086L14.4034 18.2338ZM1.6758 9.78472C1.4184 9.62681 1.08172 9.70747 0.923816 9.96488C0.765911 10.2223 0.846573 10.559 1.10398 10.7169L1.6758 9.78472ZM34.4 21.663C33.2723 21.212 31.1604 20.5407 28.7211 20.0805C26.2864 19.6213 23.4813 19.3637 20.9858 19.772L21.1624 20.8513C23.4786 20.4722 26.1414 20.7068 28.5184 21.1552C30.8908 21.6027 32.9344 22.2546 33.9939 22.6784L34.4 21.663ZM20.9858 19.772C18.618 20.1595 17.6825 19.944 17.0708 19.5876C16.7399 19.395 16.4763 19.1481 16.1014 18.8144C15.7353 18.4886 15.2985 18.1156 14.6746 17.7591L14.1321 18.7086C14.6565 19.0083 15.0262 19.3215 15.3744 19.6313C15.7136 19.9333 16.072 20.2715 16.5203 20.5326C17.4669 21.0839 18.7186 21.2512 21.1624 20.8513L20.9858 19.772ZM14.6893 17.7678L1.6758 9.78472L1.10398 10.7169L14.1174 18.6999L14.6893 17.7678Z" fill="#243252"/>
<path d="M51.6941 21.5146L56.5058 18.9994M55.959 49.8381C57.9712 49.3132 61.3175 46.3386 62.7391 44.917L68.3163 41.9643" stroke="#FC766A" stroke-width="1.09357" stroke-linecap="round"/>
<path d="M52.1316 33.2158C48.9238 35.1478 40.8897 37.5244 34.4158 32.4503" stroke="#FC766A" stroke-width="1.09357" stroke-linecap="round"/>
<path d="M34.8617 32.7667C35.0365 32.5204 34.9785 32.1791 34.7323 32.0043C34.486 31.8296 34.1447 31.8875 33.9699 32.1338L34.8617 32.7667ZM22.3866 34.6374L22.8322 34.9543L22.8567 34.9198L22.8756 34.8819L22.3866 34.6374ZM51.5013 22.0262C51.7838 22.1327 52.0993 21.9901 52.2058 21.7075C52.3124 21.425 52.1697 21.1095 51.8872 21.003L51.5013 22.0262ZM33.9699 32.1338C32.7825 33.807 30.7973 36.2383 28.7106 38.0916C27.666 39.0194 26.6183 39.7822 25.6507 40.2384C24.6741 40.699 23.8632 40.809 23.2317 40.5764L22.8537 41.6025C23.8844 41.9823 25.0255 41.7423 26.1172 41.2276C27.2178 40.7085 28.3545 39.8705 29.4368 38.9092C31.6042 36.9842 33.6433 34.4835 34.8617 32.7667L33.9699 32.1338ZM23.2317 40.5764C22.4991 40.3065 22.0812 39.927 21.8471 39.5218C21.6093 39.11 21.5291 38.6151 21.5754 38.0651C21.6697 36.9458 22.2785 35.7328 22.8322 34.9543L21.941 34.3205C21.3281 35.1823 20.6028 36.5829 20.4857 37.9733C20.4263 38.6782 20.521 39.4122 20.9002 40.0687C21.2831 40.7318 21.924 41.26 22.8537 41.6025L23.2317 40.5764ZM22.8756 34.8819C24.5359 31.5614 27.9742 26.9214 32.8627 23.8303C37.7298 20.7527 44.0304 19.2086 51.5013 22.0262L51.8872 21.003C44.0481 18.0465 37.39 19.6737 32.2782 22.906C27.1878 26.1248 23.6273 30.9333 21.8975 34.3928L22.8756 34.8819Z" fill="#FC766A"/>
<path d="M28.5105 64.9292L28.2392 64.4545L28.5105 64.9292ZM25.5578 58.4772L25.0375 58.3092L25.5578 58.4772ZM24.0319 62.386L23.5502 62.1273L23.5394 62.1475L23.5302 62.1686L24.0319 62.386ZM28.7818 65.404C29.1831 65.1747 29.634 64.6307 29.9925 63.7871C30.3593 62.9237 30.6522 61.6967 30.6974 60.023L29.6042 59.9934C29.562 61.5567 29.2898 62.6444 28.986 63.3594C28.6738 64.0941 28.3482 64.3922 28.2392 64.4545L28.7818 65.404ZM30.6974 60.023C30.7488 58.1218 29.5672 57.0056 28.2568 56.7158C27.013 56.4406 25.4895 56.9093 25.0375 58.3092L26.0782 58.6452C26.2971 57.9673 27.1139 57.583 28.0206 57.7835C28.861 57.9694 29.6403 58.6576 29.6042 59.9934L30.6974 60.023ZM23.5302 62.1686C22.9966 63.3998 23.7255 64.6456 24.7502 65.3151C25.8086 66.0066 27.3412 66.2271 28.7818 65.404L28.2392 64.4545C27.1919 65.053 26.0999 64.8907 25.3484 64.3997C24.5631 63.8866 24.2967 63.15 24.5336 62.6035L23.5302 62.1686ZM25.0375 58.3092C24.7475 59.2074 24.0523 61.1927 23.5502 62.1273L24.5136 62.6448C25.0695 61.61 25.7917 59.5323 26.0782 58.6452L25.0375 58.3092Z" fill="#243252"/>
<path d="M18.9965 58.2584L18.5865 57.8967L18.9965 58.2584ZM25.5579 55.6339L25.0575 55.8542L25.5579 55.6339ZM18.5865 57.8967C17.6672 58.9386 17.1965 60.5181 17.5117 61.7884C17.6741 62.4431 18.0538 63.0372 18.7079 63.3924C19.3531 63.7429 20.1885 63.8192 21.1889 63.6048L20.9597 62.5355C20.1229 62.7148 19.5749 62.6189 19.2298 62.4314C18.8935 62.2488 18.6758 61.9393 18.5731 61.5251C18.3578 60.6574 18.6855 59.4374 19.4065 58.6202L18.5865 57.8967ZM21.1889 63.6048C23.2855 63.1555 24.6169 61.3392 25.3575 59.6448C25.7338 58.7838 25.976 57.9152 26.0963 57.1897C26.1563 56.8271 26.1875 56.491 26.1871 56.203C26.1868 55.9325 26.1594 55.6432 26.0584 55.4136L25.0575 55.8542C25.0568 55.8526 25.0598 55.8591 25.0642 55.8765C25.0686 55.8934 25.0736 55.9173 25.0781 55.9489C25.0874 56.0129 25.0934 56.0979 25.0936 56.2044C25.0938 56.4176 25.0703 56.6917 25.0174 57.0109C24.9117 57.6489 24.6949 58.4302 24.3554 59.2068C23.6645 60.7877 22.5375 62.1974 20.9597 62.5355L21.1889 63.6048ZM26.0584 55.4136C25.8596 54.962 25.426 54.3525 24.7352 54.0685C23.9899 53.7621 23.0975 53.8933 22.151 54.6628L22.8409 55.5114C23.5566 54.9295 24.0312 54.9614 24.3193 55.0799C24.6619 55.2208 24.9282 55.5604 25.0575 55.8542L26.0584 55.4136ZM22.151 54.6628C20.4817 56.02 19.1423 57.2668 18.5865 57.8967L19.4065 58.6202C19.902 58.0587 21.1858 56.857 22.8409 55.5114L22.151 54.6628Z" fill="#243252"/>
<path d="M12.7631 53.5561L13.1361 53.9558L13.1486 53.9442L13.1603 53.9318L12.7631 53.5561ZM21.621 55.1964L21.1319 54.9519L21.1274 54.9609L21.1232 54.9702L21.621 55.1964ZM12.39 53.1563C11.447 54.0365 10.9013 55.492 11.1995 56.7897C11.3522 57.4544 11.7267 58.0699 12.3658 58.5187C12.9989 58.963 13.855 59.2189 14.9383 59.2425L14.9621 58.1492C14.0332 58.129 13.4048 57.9119 12.9942 57.6236C12.5897 57.3396 12.3613 56.9628 12.2653 56.5448C12.0659 55.6773 12.4388 54.6067 13.1361 53.9558L12.39 53.1563ZM14.9383 59.2425C19.2066 59.3353 21.4924 56.8006 22.1187 55.4227L21.1232 54.9702C20.656 55.9981 18.7424 58.2314 14.9621 58.1492L14.9383 59.2425ZM22.11 55.4409C22.4613 54.7384 22.8278 53.6453 22.6939 52.5802C22.6254 52.0358 22.4243 51.4886 22.0153 51.0178C21.6064 50.5473 21.02 50.1877 20.238 49.9677L19.9419 51.0204C20.5597 51.1942 20.9465 51.4551 21.1898 51.7351C21.4327 52.0147 21.5625 52.3479 21.6088 52.7166C21.7045 53.4778 21.4368 54.3421 21.1319 54.9519L22.11 55.4409ZM20.238 49.9677C18.6411 49.5186 16.974 50.0179 15.6006 50.7401C14.2165 51.4679 13.0378 52.47 12.3658 53.1803L13.1603 53.9318C13.7642 53.2934 14.8491 52.3708 16.1096 51.708C17.3809 51.0395 18.7393 50.6822 19.9419 51.0204L20.238 49.9677Z" fill="#243252"/>
<path d="M7.07655 49.5099L6.66961 49.1447L6.65578 49.1601L6.64316 49.1765L7.07655 49.5099ZM14.6222 51.9158L14.8877 52.3938L14.8958 52.3891L14.6222 51.9158ZM6.4204 52.4625L5.89466 52.6127L5.90234 52.6396L5.91273 52.6656L6.4204 52.4625ZM7.48349 49.8751C8.69142 48.5291 12.1226 46.1063 16.1325 47.0883L16.3926 46.0261C11.8288 44.9085 8.01333 47.6474 6.66961 49.1447L7.48349 49.8751ZM16.1325 47.0883C17.1642 47.341 17.5399 47.6709 17.6565 47.8978C17.7549 48.0891 17.7482 48.3784 17.462 48.8332C17.1813 49.2792 16.7003 49.7641 16.1217 50.2319C15.5495 50.6946 14.9117 51.1168 14.3485 51.4424L14.8958 52.3891C15.4991 52.0403 16.1855 51.5867 16.8093 51.0823C17.4268 50.583 18.0138 50.0094 18.3875 49.4156C18.7556 48.8306 18.9895 48.0988 18.629 47.3977C18.2868 46.7322 17.5042 46.2984 16.3926 46.0261L16.1325 47.0883ZM14.3566 51.4378C13.2366 52.06 11.5062 52.8239 9.95325 53.1143C9.17428 53.26 8.48958 53.2768 7.96363 53.1357C7.46308 53.0013 7.11645 52.7304 6.92808 52.2595L5.91273 52.6656C6.24928 53.507 6.90326 53.9833 7.68013 54.1918C8.4316 54.3936 9.30114 54.3488 10.1543 54.1893C11.8656 53.8692 13.7112 53.0473 14.8877 52.3937L14.3566 51.4378ZM6.94615 52.3123C6.83557 51.9253 6.7656 50.8109 7.50994 49.8433L6.64316 49.1765C5.63778 50.4834 5.71362 51.9791 5.89466 52.6127L6.94615 52.3123Z" fill="#243252"/>
<path d="M22.1677 7.18884C22.8239 8.64693 23.9393 12.2411 23.1519 14.9532" stroke="#243252" stroke-width="1.09357" stroke-linecap="round"/>
<path d="M26.2141 9.9227C26.3964 10.7246 26.7609 12.6566 26.7609 13.9689" stroke="#243252" stroke-width="1.09357" stroke-linecap="round"/>
<path d="M39.8835 2.15839L42.3988 11.0163" stroke="#243252" stroke-width="1.09357" stroke-linecap="round"/>
<path d="M46.9918 6.09521L46.2263 11.3443" stroke="#243252" stroke-width="1.09357" stroke-linecap="round"/>
<path d="M53.7718 9.9227L49.9443 12.8753" stroke="#243252" stroke-width="1.09357" stroke-linecap="round"/>
<path d="M74.8241 6.97992L63.4509 15.6191C49.0157 26.6642 63.1227 39.0579 68.3718 41.8648L85.1036 31.1478" stroke="#FC766A" stroke-width="1.09357" stroke-linecap="round"/>
</svg>
