<svg width="107" height="82" viewBox="0 0 107 82" fill="none" xmlns="http://www.w3.org/2000/svg">
<path d="M37.2954 78.6742C39.235 79.1253 44.7382 79.432 45.8208 75.9677" stroke="#243252" stroke-width="1.35324" stroke-linecap="round"/>
<path d="M40.1373 71.096C43.3851 74.2084 48.5274 79.2154 51.2339 75.1557L52.8577 72.4492" stroke="#243252" stroke-width="1.35324" stroke-linecap="round"/>
<path d="M40.1373 62.7059C43.8362 66.2243 55.1853 74.6685 60.1652 71.6373C61.0674 71.0509 62.8987 69.1744 63.007 66.3597" stroke="#243252" stroke-width="1.35324" stroke-linecap="round"/>
<path d="M49.4855 57.4367C49.1911 57.2064 48.7659 57.2584 48.5356 57.5528C48.3054 57.8471 48.3574 58.2723 48.6517 58.5026L49.4855 57.4367ZM64.9014 55.9398L64.4756 56.4656L64.4934 56.4799L64.5121 56.4931L64.9014 55.9398ZM48.9532 42.1522C48.6628 41.9171 48.2367 41.9618 48.0015 42.2522C47.7664 42.5426 47.8111 42.9686 48.1015 43.2038L48.9532 42.1522ZM48.6517 58.5026C50.9554 60.3044 54.6534 62.8194 58.2722 64.5066C60.0793 65.3492 61.9019 66.0021 63.5411 66.2422C65.1682 66.4804 66.735 66.3277 67.8953 65.3995L67.0499 64.3428C66.3156 64.9302 65.2042 65.118 63.7372 64.9032C62.2823 64.6902 60.5949 64.0965 58.8441 63.2802C55.3471 61.6497 51.7377 59.1983 49.4855 57.4367L48.6517 58.5026ZM67.8953 65.3995C68.9535 64.5529 69.5249 63.5785 69.681 62.5382C69.8348 61.5137 69.573 60.5104 69.1277 59.6113C68.2456 57.8299 66.5551 56.2761 65.2908 55.3864L64.5121 56.4931C65.6836 57.3175 67.1732 58.7138 67.915 60.2118C68.2817 60.9523 68.4428 61.6709 68.3428 62.3374C68.2451 62.9881 67.8863 63.6737 67.0499 64.3428L67.8953 65.3995ZM65.3273 55.414L48.9532 42.1522L48.1015 43.2038L64.4756 56.4656L65.3273 55.414Z" fill="#243252"/>
<path d="M2.29059 44.5149C1.95976 44.3412 1.55071 44.4685 1.37694 44.7993C1.20317 45.1301 1.33049 45.5392 1.66132 45.713L2.29059 44.5149ZM6.98292 51.4742L7.63247 51.2847L6.98292 51.4742ZM11.3099 58.9144C11.6074 59.1405 12.0319 59.0826 12.258 58.7851C12.4841 58.4876 12.4262 58.0631 12.1287 57.837L11.3099 58.9144ZM1.66132 45.713C2.56815 46.1893 3.56662 47.0739 4.43418 48.1664C5.29943 49.256 5.9947 50.5025 6.33337 51.6636L7.63247 51.2847C7.23357 49.9171 6.4403 48.5166 5.49393 47.3249C4.54987 46.136 3.41364 45.1048 2.29059 44.5149L1.66132 45.713ZM6.33337 51.6636C6.83795 53.3936 7.79002 54.9792 8.74548 56.2318C9.69943 57.4824 10.6885 58.4421 11.3099 58.9144L12.1287 57.837C11.6224 57.4522 10.7169 56.585 9.82143 55.4111C8.92746 54.2391 8.07519 52.8025 7.63247 51.2847L6.33337 51.6636Z" fill="#243252"/>
<path d="M42.3218 27.6088C42.6687 27.7475 43.0625 27.5788 43.2013 27.2318C43.34 26.8849 43.1713 26.4911 42.8243 26.3523L42.3218 27.6088ZM18.0795 22.1088L17.7257 22.6856L17.7346 22.6911L17.7438 22.6963L18.0795 22.1088ZM2.32975 11.6535C2.01123 11.4581 1.59461 11.5579 1.39921 11.8764C1.20381 12.195 1.30362 12.6116 1.62215 12.807L2.32975 11.6535ZM42.8243 26.3523C41.4289 25.7941 38.8154 24.9634 35.797 24.394C32.7842 23.8257 29.313 23.507 26.2249 24.0123L26.4435 25.3478C29.3097 24.8788 32.6047 25.169 35.5461 25.7238C38.4819 26.2776 41.0107 27.0844 42.3218 27.6088L42.8243 26.3523ZM26.2249 24.0123C23.2948 24.4918 22.1373 24.2251 21.3802 23.7841C20.9709 23.5457 20.6447 23.2402 20.1807 22.8273C19.7276 22.4241 19.1871 21.9625 18.4152 21.5214L17.7438 22.6963C18.3928 23.0672 18.8502 23.4548 19.281 23.8381C19.7009 24.2118 20.1443 24.6303 20.6991 24.9535C21.8704 25.6357 23.4194 25.8426 26.4435 25.3478L26.2249 24.0123ZM18.4333 21.5321L2.32975 11.6535L1.62215 12.807L17.7257 22.6856L18.4333 21.5321Z" fill="#243252"/>
<path d="M64.225 26.1687L70.1792 23.0562M69.5026 61.2175C71.9926 60.568 76.1335 56.8872 77.8927 55.128L84.7942 51.4741" stroke="#FC766A" stroke-width="1.35324" stroke-linecap="round"/>
<path d="M64.7662 40.6483C60.7967 43.039 50.8549 45.98 42.8438 39.701" stroke="#FC766A" stroke-width="1.35324" stroke-linecap="round"/>
<path d="M43.3955 40.0926C43.6117 39.7878 43.54 39.3655 43.2353 39.1492C42.9305 38.9329 42.5082 39.0046 42.2919 39.3094L43.3955 40.0926ZM27.9581 42.4074L28.5095 42.7996L28.5398 42.7569L28.5633 42.71L27.9581 42.4074ZM63.9861 26.8017C64.3357 26.9336 64.7261 26.757 64.8579 26.4074C64.9898 26.0577 64.8133 25.6674 64.4636 25.5355L63.9861 26.8017ZM42.2919 39.3094C40.8225 41.3799 38.3659 44.3885 35.7838 46.6819C34.4911 47.83 33.1946 48.7738 31.9973 49.3385C30.7888 49.9084 29.7854 50.0445 29.0039 49.7566L28.5361 51.0264C29.8116 51.4964 31.2237 51.1995 32.5745 50.5625C33.9365 49.9202 35.3431 48.8832 36.6824 47.6936C39.3644 45.3116 41.8877 42.2171 43.3955 40.0926L42.2919 39.3094ZM29.0039 49.7566C28.0974 49.4226 27.5802 48.9531 27.2906 48.4517C26.9963 47.9421 26.897 47.3297 26.9543 46.6491C27.071 45.2641 27.8244 43.763 28.5095 42.7996L27.4067 42.0153C26.6483 43.0817 25.7508 44.8149 25.6058 46.5355C25.5324 47.4078 25.6495 48.316 26.1187 49.1285C26.5926 49.9489 27.3857 50.6026 28.5361 51.0264L29.0039 49.7566ZM28.5633 42.71C30.6178 38.601 34.8725 32.8593 40.9217 29.0342C46.9445 25.2259 54.7412 23.3151 63.9861 26.8017L64.4636 25.5355C54.7632 21.8771 46.524 23.8907 40.1985 27.8905C33.8994 31.8736 29.4934 37.8238 27.3529 42.1049L28.5633 42.71Z" fill="#FC766A"/>
<path d="M35.5363 79.8921L35.2006 79.3046L35.5363 79.8921ZM31.8826 71.908L31.2387 71.7001L31.8826 71.908ZM29.9943 76.745L29.3982 76.4248L29.3848 76.4498L29.3735 76.4759L29.9943 76.745ZM35.872 80.4795C36.3686 80.1958 36.9266 79.5226 37.3702 78.4787C37.8242 77.4103 38.1865 75.8919 38.2425 73.8208L36.8898 73.7842C36.8375 75.7187 36.5007 77.0647 36.1247 77.9494C35.7383 78.8587 35.3355 79.2275 35.2006 79.3046L35.872 80.4795ZM38.2425 73.8208C38.3061 71.4682 36.8439 70.087 35.2224 69.7283C33.6832 69.3879 31.798 69.9678 31.2387 71.7001L32.5264 72.1159C32.7973 71.277 33.8081 70.8014 34.9302 71.0496C35.97 71.2796 36.9345 72.1313 36.8898 73.7842L38.2425 73.8208ZM29.3735 76.4759C28.7131 77.9995 29.6151 79.5411 30.8831 80.3696C32.1928 81.2253 34.0894 81.4982 35.872 80.4795L35.2006 79.3046C33.9046 80.0452 32.5534 79.8444 31.6233 79.2367C30.6516 78.6019 30.322 77.6904 30.6151 77.0141L29.3735 76.4759ZM31.2387 71.7001C30.8798 72.8115 30.0195 75.2682 29.3982 76.4248L30.5904 77.0652C31.2782 75.7846 32.172 73.2136 32.5264 72.1159L31.2387 71.7001Z" fill="#243252"/>
<path d="M23.763 71.6373L23.2557 71.1896L23.763 71.6373ZM31.8825 68.3895L31.2632 68.6621L31.8825 68.3895ZM23.2557 71.1896C22.1181 72.4789 21.5357 74.4335 21.9256 76.0054C22.1266 76.8156 22.5965 77.5508 23.4059 77.9903C24.2044 78.424 25.238 78.5184 26.476 78.2532L26.1924 76.93C25.1569 77.1519 24.4788 77.0331 24.0517 76.8012C23.6355 76.5751 23.3662 76.1921 23.2391 75.6796C22.9727 74.6059 23.3781 73.0962 24.2704 72.085L23.2557 71.1896ZM26.476 78.2532C29.0705 77.6972 30.718 75.4496 31.6344 73.3529C32.1001 72.2874 32.3998 71.2126 32.5486 70.3148C32.623 69.8661 32.6615 69.4502 32.6611 69.0938C32.6607 68.759 32.6268 68.401 32.5017 68.117L31.2632 68.6621C31.2623 68.6602 31.266 68.6683 31.2715 68.6897C31.277 68.7107 31.2831 68.7403 31.2888 68.7794C31.3002 68.8586 31.3077 68.9637 31.3079 69.0955C31.3082 69.3594 31.279 69.6986 31.2136 70.0935C31.0828 70.883 30.8145 71.8499 30.3945 72.8109C29.5395 74.7671 28.1448 76.5116 26.1924 76.93L26.476 78.2532ZM32.5017 68.117C32.2558 67.5581 31.7192 66.8039 30.8643 66.4525C29.9421 66.0733 28.8378 66.2357 27.6666 67.1879L28.5202 68.2379C29.4059 67.5179 29.9932 67.5574 30.3497 67.704C30.7737 67.8784 31.1032 68.2987 31.2632 68.6621L32.5017 68.117ZM27.6666 67.1879C25.6009 68.8674 23.9435 70.4102 23.2557 71.1896L24.2704 72.085C24.8835 71.3901 26.4721 69.9031 28.5202 68.2379L27.6666 67.1879Z" fill="#243252"/>
<path d="M16.0495 65.8183L16.5111 66.313L16.5265 66.2986L16.541 66.2833L16.0495 65.8183ZM27.0107 67.8482L26.4055 67.5456L26.3999 67.5568L26.3947 67.5682L27.0107 67.8482ZM15.5878 65.3237C14.4209 66.4128 13.7456 68.214 14.1146 69.8198C14.3036 70.6423 14.767 71.404 15.5579 71.9593C16.3413 72.5092 17.4007 72.8259 18.7412 72.855L18.7707 71.5021C17.6212 71.4771 16.8437 71.2085 16.3355 70.8517C15.8349 70.5003 15.5523 70.034 15.4335 69.5168C15.1868 68.4432 15.6482 67.1184 16.5111 66.313L15.5878 65.3237ZM18.7412 72.855C24.0231 72.9698 26.8516 69.8333 27.6267 68.1282L26.3947 67.5682C25.8165 68.8402 23.4486 71.6038 18.7707 71.5021L18.7412 72.855ZM27.6159 68.1508C28.0505 67.2814 28.5041 65.9288 28.3383 64.6107C28.2536 63.937 28.0048 63.26 27.4986 62.6774C26.9927 62.0951 26.267 61.6501 25.2994 61.3779L24.933 62.6806C25.6974 62.8956 26.1761 63.2185 26.4771 63.5649C26.7778 63.911 26.9383 64.3233 26.9957 64.7796C27.1141 65.7214 26.7828 66.791 26.4055 67.5456L27.6159 68.1508ZM25.2994 61.3779C23.3233 60.8221 21.2603 61.4401 19.5608 62.3337C17.848 63.2343 16.3894 64.4743 15.5579 65.3534L16.541 66.2833C17.2883 65.4933 18.6309 64.3516 20.1907 63.5314C21.7638 62.7042 23.4448 62.2621 24.933 62.6806L25.2994 61.3779Z" fill="#243252"/>
<path d="M9.01278 60.8114L8.50921 60.3595L8.4921 60.3786L8.47648 60.3989L9.01278 60.8114ZM18.3501 63.7886L18.6788 64.3801L18.6888 64.3744L18.3501 63.7886ZM8.20084 64.4652L7.55025 64.6511L7.55976 64.6844L7.57262 64.7165L8.20084 64.4652ZM9.51635 61.2633C11.0111 59.5977 15.2571 56.5997 20.219 57.8149L20.5409 56.5005C14.8935 55.1174 10.172 58.5067 8.50921 60.3595L9.51635 61.2633ZM20.219 57.8149C21.4958 58.1275 21.9606 58.5358 22.105 58.8165C22.2267 59.0533 22.2184 59.4112 21.8642 59.9741C21.5169 60.5259 20.9217 61.126 20.2057 61.7049C19.4976 62.2775 18.7084 62.7999 18.0115 63.2028L18.6888 64.3744C19.4353 63.9427 20.2846 63.3814 21.0566 62.7572C21.8207 62.1394 22.5471 61.4296 23.0096 60.6948C23.4651 59.9709 23.7545 59.0653 23.3084 58.1977C22.885 57.3741 21.9165 56.8374 20.5409 56.5005L20.219 57.8149ZM18.0215 63.1971C16.6356 63.9671 14.4943 64.9123 12.5726 65.2718C11.6086 65.4521 10.7613 65.4729 10.1105 65.2982C9.4911 65.1319 9.06216 64.7966 8.82906 64.2139L7.57262 64.7165C7.98908 65.7576 8.79835 66.3471 9.75969 66.6051C10.6896 66.8547 11.7656 66.7994 12.8214 66.6019C14.939 66.2058 17.2228 65.1889 18.6787 64.3801L18.0215 63.1971ZM8.85143 64.2793C8.71459 63.8004 8.628 62.4213 9.54908 61.224L8.47648 60.3989C7.23238 62.0161 7.32622 63.8669 7.55025 64.6511L8.85143 64.2793Z" fill="#243252"/>
<path d="M27.6875 8.44122C28.4994 10.2455 29.8797 14.6932 28.9054 18.0492" stroke="#243252" stroke-width="1.35324" stroke-linecap="round"/>
<path d="M32.6945 11.8242C32.92 12.8166 33.3711 15.2073 33.3711 16.8312" stroke="#243252" stroke-width="1.35324" stroke-linecap="round"/>
<path d="M49.61 2.21628L52.7224 13.1775" stroke="#243252" stroke-width="1.35324" stroke-linecap="round"/>
<path d="M58.4059 7.08792L57.4586 13.5835" stroke="#243252" stroke-width="1.35324" stroke-linecap="round"/>
<path d="M66.796 11.8242L62.0597 15.478" stroke="#243252" stroke-width="1.35324" stroke-linecap="round"/>
<path d="M92.8469 8.18268L78.7731 18.8732C60.9104 32.5409 78.3671 47.8776 84.8626 51.3509L105.567 38.0892" stroke="#FC766A" stroke-width="1.35324" stroke-linecap="round"/>
</svg>
