<svg width="103" height="96" viewBox="0 0 103 96" fill="none" xmlns="http://www.w3.org/2000/svg">
<g clip-path="url(#clip0_197_6281)">
<path d="M42.2797 67.0696C45.7749 66.9831 53.8395 65.8572 57.0577 64.7843C58.9995 64.1367 60.6306 64.8619 60.4235 67.2439C60.2163 69.6258 52.7858 73.891 46.7015 74.8815C42.9907 75.4855 34.2224 76.3314 28.8372 74.8815C23.452 73.4317 17.2728 79.2829 14.8564 82.3897C13.3029 84.3315 9.57471 89.4837 7.08923 94.5582" stroke="#243252" stroke-width="1.27234" stroke-linecap="round"/>
<path d="M42.818 65.3023C46.6583 64.7413 55.3906 62.8961 57.705 61.8071C59.9057 60.7715 61.3296 61.8071 61.718 63.3605C61.8042 63.7919 61.718 64.8104 60.6824 65.4318" stroke="#243252" stroke-width="1.27234" stroke-linecap="round"/>
<path d="M39.1934 61.8071C42.3002 60.4261 49.0317 58.2342 51.103 60.5126" stroke="#243252" stroke-width="1.27234" stroke-linecap="round"/>
<path d="M41.6528 63.3606C42.0412 63.1017 47.3487 62.0661 52.3973 60.1243C53.4762 59.7789 55.7631 59.6324 56.2809 61.8071" stroke="#243252" stroke-width="1.27234" stroke-linecap="round"/>
<path d="M27.6721 67.2438C33.1523 68.4953 43.7759 69.8846 42.4296 65.4315C41.1136 61.0783 34.8243 60.7414 31.6403 61.1316C31.502 61.1487 31.362 61.1093 31.2504 61.026C22.5659 54.536 10.6826 62.4898 6.05359 67.7616C4.32758 69.8328 3.46455 70.9979 1.65222 73.8459" stroke="#243252" stroke-width="1.27234" stroke-linecap="round"/>
<path d="M26.6366 23.6405C26.4697 23.6398 26.3966 23.8481 26.5313 23.9465C29.9771 26.4651 37.499 30.6516 43.6477 29.6064C43.6977 29.5978 43.7492 29.6038 43.7958 29.624L49.5016 32.0991" stroke="#243252" stroke-width="1.27234" stroke-linecap="round"/>
<path d="M21.329 14.3177C20.6386 14.5334 19.2836 15.5086 19.3872 17.6834C19.5527 20.4423 21.6484 22.1867 22.6755 22.9082C23.9701 23.6849 25.0212 23.6203 26.1187 23.6382C26.1584 23.6389 27.1465 23.5464 27.1843 23.5343C27.8942 23.306 28.6919 22.682 28.4488 21.3068" stroke="#243252" stroke-width="1.27234" stroke-linecap="round"/>
<path d="M23.6592 10.3046C22.6667 10.6498 20.8112 11.9357 21.329 14.3176C21.8468 16.6996 22.244 17.3848 22.4166 17.73C23.0285 19.0557 24.0252 19.8207 24.4676 20.0498C24.4814 20.057 24.4937 20.0646 24.5062 20.0737C25.1099 20.5153 26.6644 21.1229 28.4488 21.3067C28.9379 21.3571 30.5493 21.4007 30.9084 21.4375C32.3324 21.4375 33.2386 20.8886 32.7207 18.6586" stroke="#243252" stroke-width="1.27234" stroke-linecap="round"/>
<path d="M26.0397 5.77386C25.0831 5.77386 23.0119 6.80948 23.6592 10.3047C24.177 13.1009 24.7468 14.3644 25.5235 15.2705C26.3002 16.1767 27.3358 17.2123 28.8892 17.6835L32.6977 18.6528C32.713 18.6567 32.7288 18.6592 32.7446 18.6602L33.5694 18.7152C33.6072 18.7178 33.645 18.7123 33.68 18.6977C34.4616 18.3699 35.7033 17.3334 34.792 15.6122" stroke="#243252" stroke-width="1.27234" stroke-linecap="round"/>
<path d="M57.6571 16.9535L53.1721 14.7681C53.0929 14.7295 53.0393 14.6556 53.0277 14.5682C52.6264 11.5811 50.2502 5.51859 43.7245 4.09105C37.0965 2.6412 32.3327 1.84722 30.7793 1.63147C29.0964 1.32941 25.7824 1.57969 25.9895 4.99721C26.0057 5.26443 26.0225 5.52336 26.0398 5.77395C26.2441 8.72838 26.9478 9.70417 27.8539 11.0815C29.3051 13.2189 30.8036 14.1424 31.4786 14.4939C32.7211 15.1412 36.0866 16.6479 36.3457 13.4116V12.1064" stroke="#243252" stroke-width="1.27234" stroke-linecap="round"/>
<path d="M43.7245 4.09094C41.9122 4.22039 35.983 5.15245 32.9797 5.77382C29.9764 6.39522 30.6928 9.05328 31.4263 10.3046C32.8845 12.3701 38.3714 12.0789 39.6468 11.2505C39.7667 11.1727 39.9344 11.1536 40.0481 11.24C43.2973 13.7046 44.255 13.4115 48.566 13.4115" stroke="#243252" stroke-width="1.27234" stroke-linecap="round"/>
<path d="M34.844 17.7302L34.792 33.8651" stroke="#FC766A" stroke-width="1.27234" stroke-linecap="round"/>
<path d="M36.0865 34.6416H33.4975C32.711 34.6416 32.0735 35.2791 32.0735 36.0656C32.0735 36.852 32.711 37.4895 33.4975 37.4895H36.0865C36.8729 37.4895 37.5105 36.852 37.5105 36.0656C37.5105 35.2791 36.8729 34.6416 36.0865 34.6416Z" stroke="#FC766A" stroke-width="1.27234"/>
<path d="M34.792 37.8779V47.1985" stroke="#FC766A" stroke-width="1.27234" stroke-linecap="round"/>
<path d="M64.1333 40.266L49.3755 31.9811C47.4769 28.5721 46.0876 21.0812 54.6833 17.8708C62.5762 14.9228 70.0844 18.6364 73.7091 20.7077" stroke="#243252" stroke-width="1.27234" stroke-linecap="round"/>
<path d="M31.0378 42.8301H34.2741C34.4899 42.8301 34.6647 43.0048 34.6647 43.2206V46.0686C34.6647 46.2844 34.4899 46.4591 34.2741 46.4591H32.2029C31.9873 46.4591 31.8123 46.2844 31.8123 46.0686V45.6802C31.8123 45.4644 31.9873 45.2896 32.2029 45.2896H32.2676C32.5883 45.2896 32.8479 45.03 32.8479 44.7093C32.8479 44.389 32.5883 44.129 32.2676 44.129H31.0378C30.8222 44.129 30.6473 43.9542 30.6473 43.7384V43.2206C30.6473 43.0048 30.8222 42.8301 31.0378 42.8301Z" fill="#FC766A" stroke="#FC766A" stroke-width="0.254468"/>
</g>
<defs>
<clipPath id="clip0_197_6281">
<rect width="101.677" height="94.5" fill="white" transform="translate(0.785156 0.75)"/>
</clipPath>
</defs>
</svg>
