<svg width="274" height="180" viewBox="0 0 274 180" fill="none" xmlns="http://www.w3.org/2000/svg">
<path d="M231.448 69.0126C227.724 79.5005 225.243 87.1344 223.36 93.2976C220.801 101.674 219.347 107.333 217.377 113.748C215.851 118.72 214.016 124.146 211.117 131.642C210.615 132.943 210.099 134.221 209.571 135.477C206.975 141.65 204.081 147.264 200.952 152.239C196.044 160.04 190.556 166.268 184.721 170.606C178.565 175.183 172.024 177.656 165.374 177.656C165.217 167.085 166.147 157.372 167.915 148.477C169.497 140.517 171.75 133.211 174.494 126.53C177.622 118.917 181.388 112.115 185.529 106.079C189.55 100.219 193.925 95.0814 198.411 90.6268C203.04 86.0304 207.787 82.161 212.388 78.9745C219.394 74.1219 226.06 70.8531 231.448 69.0126Z" fill="#6177A7"/>
<g style="mix-blend-mode:multiply">
<path d="M223.585 92.5645C223.514 92.5425 223.439 92.5307 223.36 92.5307H215.408C220.479 83.5962 225.877 75.5361 230.888 70.5954C231.071 70.0751 231.258 69.5475 231.448 69.0126C230.867 69.2111 230.271 69.4263 229.661 69.6582C224.703 74.6037 219.468 82.379 214.581 90.8994L213.145 78.883C213.13 78.7562 213.085 78.6404 213.018 78.5419C212.808 78.6846 212.598 78.8288 212.388 78.9745C212.152 79.1378 211.916 79.3029 211.679 79.4698L213.312 93.1401C209.952 99.1565 206.772 105.475 203.98 111.415L199.154 90.4538C199.121 90.3112 199.05 90.1872 198.955 90.0899C198.774 90.2678 198.592 90.4467 198.411 90.6268C198.199 90.8375 197.987 91.0498 197.775 91.2636L202.933 113.664C200.306 119.361 198.074 124.619 196.431 128.804C195.835 130.324 195.214 131.821 194.571 133.295L186.259 105.856C186.207 105.684 186.101 105.544 185.965 105.449C185.819 105.658 185.674 105.868 185.529 106.079C185.345 106.348 185.161 106.618 184.978 106.89L193.621 135.422C190.95 141.269 187.961 146.717 184.889 151.668L175.206 126.255C175.129 126.051 174.974 125.9 174.788 125.822C174.689 126.057 174.592 126.293 174.494 126.53C174.353 126.874 174.213 127.22 174.074 127.568L183.872 153.284C179.909 159.495 175.854 164.866 172.206 169.188L168.667 148.347C168.612 148.026 168.366 147.786 168.067 147.725C168.016 147.975 167.965 148.225 167.915 148.477C167.774 149.188 167.637 149.905 167.507 150.627L170.915 170.694C168.875 173.036 166.992 175.02 165.362 176.606C165.364 176.955 165.368 177.305 165.374 177.656C165.749 177.656 166.125 177.648 166.5 177.632C168.151 176.021 170.042 174.025 172.081 171.683L183.619 171.4C183.988 171.142 184.355 170.878 184.721 170.606C184.925 170.454 185.128 170.301 185.331 170.145C185.188 169.954 184.958 169.833 184.703 169.839L173.423 170.115C177.099 165.755 181.175 160.351 185.157 154.109L200.44 153.043C200.612 152.777 200.782 152.509 200.952 152.239C201.088 152.023 201.223 151.807 201.357 151.589C201.225 151.505 201.067 151.462 200.9 151.474L186.169 152.501C189.245 147.547 192.24 142.096 194.924 136.244H209.246C209.355 135.989 209.463 135.733 209.571 135.477C209.67 135.242 209.768 135.006 209.866 134.769C209.775 134.731 209.676 134.71 209.571 134.71H195.616C196.391 132.963 197.138 131.181 197.849 129.368C199.46 125.263 201.647 120.109 204.221 114.515H217.14C217.22 114.258 217.299 114.002 217.377 113.748C217.453 113.503 217.527 113.258 217.601 113.015C217.53 112.993 217.455 112.981 217.377 112.981H204.932C207.786 106.862 211.069 100.3 214.545 94.0645H223.127C223.204 93.8114 223.281 93.5558 223.36 93.2976C223.434 93.0555 223.509 92.8112 223.585 92.5645Z" fill="#6177A7"/>
</g>
<path d="M70.1172 0C76.2531 17.2819 80.3411 29.8611 83.444 40.0168C87.6608 53.8186 90.058 63.1444 93.303 73.7151C95.818 81.908 98.8424 90.8488 103.618 103.201C104.447 105.345 105.296 107.451 106.166 109.52C110.444 119.691 115.212 128.943 120.368 137.14C128.455 149.996 137.5 160.257 147.114 167.405C157.257 174.947 168.036 179.022 178.994 179.022C179.253 161.604 177.72 145.599 174.807 130.941C172.2 117.825 168.488 105.786 163.965 94.7766C158.812 82.2322 152.606 71.0235 145.782 61.0782C139.156 51.4216 131.948 42.9562 124.556 35.6159C116.928 28.042 109.105 21.6659 101.524 16.4152C89.979 8.41917 78.9948 3.03284 70.1172 0Z" fill="#425785"/>
<g style="mix-blend-mode:multiply">
<path d="M83.0738 38.8088C83.1907 38.7726 83.315 38.7531 83.4438 38.7531H96.5481C88.1921 24.0309 79.2965 10.7495 71.0403 2.60819C70.7378 1.75083 70.4302 0.881531 70.1172 0C71.0748 0.327146 72.0569 0.681676 73.0616 1.06391C81.2323 9.21313 89.8578 22.0251 97.9114 36.0651L100.277 16.2645C100.302 16.0556 100.376 15.8648 100.486 15.7024C100.832 15.9376 101.178 16.1752 101.524 16.4152C101.913 16.6843 102.302 16.9564 102.692 17.2315L100.001 39.7574C105.538 49.6712 110.779 60.0829 115.379 69.8703L123.332 35.3309C123.386 35.0959 123.502 34.8915 123.658 34.7312C123.958 35.0243 124.257 35.3192 124.556 35.6159C124.905 35.9632 125.255 36.3129 125.604 36.6652L117.105 73.5771C121.433 82.9644 125.112 91.6283 127.818 98.5249C128.8 101.029 129.824 103.496 130.883 105.924L144.58 60.7099C144.665 60.4274 144.841 60.197 145.064 60.0407C145.304 60.385 145.543 60.7308 145.782 61.0782C146.086 61.5213 146.388 61.9668 146.69 62.4148L132.448 109.429C136.849 119.064 141.775 128.041 146.837 136.199L162.792 94.3244C162.92 93.9882 163.175 93.7388 163.482 93.6103C163.644 93.9977 163.805 94.3865 163.965 94.7766C164.199 95.3443 164.43 95.9147 164.658 96.4879L148.513 138.862C155.044 149.097 161.726 157.947 167.737 165.069L173.568 130.728C173.658 130.199 174.063 129.803 174.557 129.702C174.641 130.114 174.725 130.527 174.807 130.941C175.04 132.113 175.264 133.295 175.479 134.485L169.864 167.551C173.225 171.41 176.328 174.678 179.014 177.292C179.01 177.867 179.003 178.444 178.994 179.022C178.375 179.022 177.757 179.009 177.139 178.983C174.418 176.328 171.302 173.039 167.942 169.18L148.93 168.713C148.322 168.29 147.717 167.853 147.114 167.405C146.778 167.155 146.443 166.902 146.109 166.645C146.345 166.331 146.723 166.131 147.144 166.141L165.731 166.597C159.674 159.412 152.958 150.508 146.396 140.222L121.211 138.465C120.929 138.027 120.648 137.585 120.368 137.14C120.145 136.785 119.922 136.428 119.701 136.069C119.918 135.932 120.179 135.86 120.455 135.879L144.728 137.573C139.66 129.409 134.723 120.426 130.301 110.783H106.702C106.523 110.364 106.344 109.942 106.166 109.52C106.003 109.132 105.841 108.744 105.68 108.354C105.829 108.291 105.994 108.256 106.166 108.256H129.161C127.884 105.377 126.653 102.441 125.481 99.4529C122.827 92.6894 119.223 84.196 114.981 74.9788H93.6932C93.5617 74.5554 93.4317 74.1343 93.303 73.7151C93.1788 73.3106 93.0559 72.9079 92.934 72.5068C93.0506 72.4708 93.1745 72.4515 93.3028 72.4515H113.81C109.107 62.3675 103.697 51.5557 97.9696 41.2805H83.8288C83.7022 40.8634 83.5739 40.4422 83.444 40.0168C83.3221 39.6179 83.1987 39.2153 83.0738 38.8088Z" fill="#425785"/>
</g>
</svg>
