<svg width="108" height="100" viewBox="0 0 108 100" fill="none" xmlns="http://www.w3.org/2000/svg">
<path d="M15.471 69.7591V62.2264V53.304C15.471 51.1371 15.7777 49.2464 13.1693 49.0977C10.5609 48.949 9.31883 51.9019 4.84727 50.8822C2.48734 50.344 0.500002 47.9505 0.5 45.1463C0.499996 40.3027 5.75687 37.3803 10.8093 40.5576C15.471 43.4893 15.471 38.0084 15.471 36.2239V24.4849C15.471 24.2101 15.6938 23.9874 15.9685 23.9874H33.1087C36.5865 24.2423 34.475 28.1937 33.4813 30.6155C31.494 35.4591 34.1852 38.1783 36.0897 38.9006C42.797 40.5576 44.4117 33.4197 42.1759 30.6155C39.119 26.7813 39.9402 24.3698 41.4307 24.3698H57.9121C58.2012 24.3698 58.4304 24.6138 58.4201 24.9027C58.3439 27.0352 58.4473 32.0507 58.4473 36.9887C58.4473 43.6168 64.4093 41.4499 64.4093 41.5774C64.4093 41.7048 73.3431 39.1973 74.0976 46.166C74.5945 50.7547 69.7503 53.6863 64.4093 52.0292C60.1366 50.7036 59.441 52.2843 59.441 53.6863V69.7591C59.441 70.0339 59.2182 70.2566 58.9435 70.2566H40.5923C40.4187 70.2566 40.2555 70.1641 40.1688 70.0137C37.9167 66.1046 40.0577 64.3035 41.3065 61.2067C42.797 57.5103 41.168 54.4319 38.6981 53.6863C35.4686 52.7115 29.755 54.4512 32.115 61.2067C33.9349 66.4161 33.8539 70.2566 30.8729 70.2566H15.9685C15.6938 70.2566 15.471 70.0339 15.471 69.7591Z" fill="#243252"/>
<path d="M58.1538 24.3605C57.8103 24.3605 57.5319 24.6389 57.5319 24.9824C57.5319 25.3259 57.8103 25.6043 58.1538 25.6043V24.3605ZM76.3132 17.0254L76.9267 16.9232L76.3132 17.0254ZM82.781 11.179L82.569 11.7636L82.5716 11.7646L82.781 11.179ZM78.6765 83.5653L78.5708 84.1781L78.6765 83.5653ZM58.9506 69.0129C58.6071 69.0172 58.3323 69.2992 58.3366 69.6426C58.3409 69.986 58.6229 70.2609 58.9663 70.2566L58.9506 69.0129ZM84.5223 17.0254L85.104 17.2455L84.5223 17.0254ZM99.9457 69.6301L99.9401 70.252L99.9457 69.6301ZM58.1538 25.6043H72.4575V24.3605H58.1538V25.6043ZM72.4575 25.6043C73.5001 25.6043 74.9265 25.1332 75.9371 23.7615C76.9493 22.3877 77.4742 20.2085 76.9267 16.9232L75.6998 17.1277C76.2139 20.2123 75.6815 22.0116 74.9358 23.0237C74.1884 24.0381 73.1561 24.3605 72.4575 24.3605V25.6043ZM76.9267 16.9232C76.6591 15.3177 76.7898 14.1864 77.1115 13.3988C77.4278 12.6241 77.9468 12.1364 78.5589 11.8363C79.8297 11.2131 81.538 11.3897 82.569 11.7636L82.993 10.5943C81.7778 10.1536 79.6926 9.89501 78.0112 10.7195C77.1472 11.1432 76.4004 11.85 75.96 12.9285C75.5248 13.9941 75.4077 15.3747 75.6998 17.1277L76.9267 16.9232ZM87.5074 25.857H99.9454V24.6133H87.5074V25.857ZM99.821 25.7327V69.1324H101.065V25.7327H99.821ZM99.9513 69.0083C97.591 68.9871 87.3732 68.9026 85.4808 69.0139L85.5539 70.2556C87.391 70.1475 97.5419 70.2305 99.9401 70.252L99.9513 69.0083ZM85.4808 69.0139C84.8376 69.0517 84.2862 69.2642 83.9029 69.7042C83.5285 70.1339 83.3947 70.6895 83.3851 71.2512C83.3663 72.3515 83.8207 73.7638 84.4482 75.228L85.5914 74.7381C84.969 73.2856 84.6149 72.086 84.6287 71.2724C84.6355 70.8771 84.7283 70.6503 84.8407 70.5213C84.9442 70.4024 85.1399 70.2799 85.5539 70.2556L85.4808 69.0139ZM84.4482 75.228C85.3223 77.2675 85.278 79.4675 84.3688 80.9946C83.492 82.4675 81.7216 83.4592 78.7821 82.9524L78.5708 84.1781C81.9125 84.7543 84.2465 83.6315 85.4376 81.6309C86.5963 79.6845 86.5831 77.0519 85.5914 74.7381L84.4482 75.228ZM78.7821 82.9524C77.2008 82.6798 76.0966 81.7115 75.536 80.3442C74.9684 78.9597 74.9496 77.1326 75.6539 75.1956L74.485 74.7705C73.6968 76.9381 73.678 79.091 74.3852 80.8161C75.0995 82.5583 76.5451 83.8289 78.5708 84.1781L78.7821 82.9524ZM75.6539 75.1956C76.4242 73.0772 76.426 71.527 75.8482 70.4712C75.2547 69.3864 74.1597 69.0128 73.2038 69.0128V70.2566C73.8648 70.2566 74.4489 70.505 74.7571 71.0682C75.0811 71.6604 75.2072 72.7844 74.485 74.7705L75.6539 75.1956ZM73.2038 69.0128C69.9272 69.0128 62.2309 68.9714 58.9506 69.0129L58.9663 70.2566C62.2366 70.2152 69.91 70.2566 73.2038 70.2566V69.0128ZM82.5716 11.7646C83.0174 11.9239 83.6656 12.363 84.0507 13.1506C84.426 13.918 84.5884 15.0937 83.9407 16.8053L85.104 17.2455C85.8493 15.2761 85.7215 13.736 85.1681 12.6042C84.6245 11.4926 83.7055 10.849 82.9904 10.5934L82.5716 11.7646ZM83.9407 16.8053C83.0427 19.1782 82.8424 21.3917 83.4218 23.0598C83.7149 23.9038 84.2108 24.6132 84.9174 25.1086C85.6236 25.6039 86.4999 25.857 87.5074 25.857V24.6133C86.7114 24.6133 86.0951 24.4154 85.6315 24.0903C85.1681 23.7654 84.8167 23.2851 84.5967 22.6518C84.15 21.3654 84.2606 19.474 85.104 17.2455L83.9407 16.8053ZM99.821 69.1324C99.821 69.0716 99.8741 69.0076 99.9513 69.0083L99.9401 70.252C100.571 70.2577 101.065 69.7464 101.065 69.1324H99.821ZM99.9454 25.857C99.8767 25.857 99.821 25.8014 99.821 25.7327H101.065C101.065 25.1144 100.564 24.6133 99.9454 24.6133V25.857Z" fill="#243252"/>
<path d="M60.0779 83.6896C60.8656 85.0578 62.4908 88.018 62.6899 88.9136" stroke="#FC766A" stroke-width="1.2438" stroke-linecap="round"/>
<path d="M56.9683 84.4359C56.5537 85.5554 56.3464 88.8887 58.834 93.2669" stroke="#FC766A" stroke-width="1.2438" stroke-linecap="round"/>
<path d="M52.2419 83.6896C50.625 85.1822 47.3165 88.6648 47.0179 90.6549" stroke="#FC766A" stroke-width="1.2438" stroke-linecap="round"/>
<path d="M57.4659 10.6787C59.0828 9.18612 62.3913 5.70349 62.6898 3.71342" stroke="#FC766A" stroke-width="1.2438" stroke-linecap="round"/>
<path d="M52.7394 9.9325C53.154 8.81308 53.3613 5.4797 50.8737 1.10153" stroke="#FC766A" stroke-width="1.2438" stroke-linecap="round"/>
<path d="M49.63 10.6787C48.8423 9.3105 47.217 6.35027 47.018 5.45473" stroke="#FC766A" stroke-width="1.2438" stroke-linecap="round"/>
</svg>
