<svg width="98" height="78" viewBox="0 0 98 78" fill="none" xmlns="http://www.w3.org/2000/svg">
<g clip-path="url(#clip0_197_6242)">
<path d="M61.6483 32.4355C64.5201 50.1426 55.7612 66.0439 42.3993 68.2111C29.0373 70.378 15.7019 58.0601 12.8301 40.3528C9.95838 22.6458 18.7172 6.74443 32.0791 4.57736C45.441 2.41031 58.7766 14.7284 61.6483 32.4355Z" stroke="#243252" stroke-width="1.06378"/>
<path d="M56.0919 33.0112C57.1899 39.7817 56.1447 46.2208 53.5927 51.1544C51.0406 56.0882 47.0036 59.4855 42.1119 60.2788C37.2204 61.0722 32.3164 59.1251 28.336 55.2506C24.3555 51.3763 21.3288 45.5976 20.2308 38.8273C19.1327 32.0568 20.1779 25.6177 22.7298 20.684C25.2819 15.7501 29.3191 12.3529 34.2106 11.5596C39.1023 10.7663 44.0061 12.7134 47.9867 16.5878C51.9672 20.4621 54.9939 26.2409 56.0919 33.0112Z" stroke="#243252" stroke-width="1.06378"/>
<path d="M41.9213 48.7345C47.0597 47.9012 50.3142 41.6092 49.1906 34.681C48.0669 27.7527 42.9906 22.8118 37.8523 23.6452C32.714 24.4785 29.4595 30.7705 30.5831 37.6987C31.7067 44.627 36.783 49.5679 41.9213 48.7345Z" fill="#243252"/>
<path d="M18.2296 64.8993C35.2499 81.2815 54.1852 71.7075 58.2278 61.3888C56.4275 71.6815 44.2308 77.521 34.0798 77.7708C22.9101 77.7708 8.97461 68.5159 5.14496 60.1121C-8.94785 29.1865 12.5206 7.41967 23.2294 4.37024C3.12386 13.8379 -0.0632584 47.2923 18.2296 64.8993Z" fill="#243252"/>
<path d="M39.7179 33.4112L70.0356 14.0272L76.0992 10.2208" stroke="#243252" stroke-width="1.06378" stroke-linecap="round"/>
<path d="M69.2909 12.4548L69.9862 7.68712C70.017 7.47568 70.1517 7.29371 70.3447 7.20231L82.075 1.65063C82.6449 1.38086 83.2192 2.01311 82.896 2.55464L80.5527 6.48124C80.3125 6.88392 80.5738 7.3996 81.0408 7.44377L86.1173 7.92398C86.7156 7.98057 86.9113 8.75715 86.4114 9.09048L76.3548 15.7948C76.1931 15.9025 75.9914 15.9308 75.8063 15.8717L70.0355 14.0273" stroke="#243252" stroke-width="1.06378" stroke-linecap="round"/>
<path d="M40.8881 35.6451L78.8399 22.0526L85.5743 19.6227" stroke="#FC766A" stroke-width="1.06378" stroke-linecap="round"/>
<path d="M78.4467 20.3576L80.14 15.8469C80.2151 15.6468 80.3853 15.4976 80.5934 15.4494L93.236 12.5194C93.8504 12.377 94.277 13.117 93.8461 13.5774L90.7212 16.9158C90.4008 17.2582 90.5465 17.8176 90.9933 17.9601L95.8518 19.509C96.4243 19.6915 96.4503 20.4919 95.8909 20.7113L84.6387 25.1235C84.4579 25.1944 84.2547 25.179 84.0864 25.082L78.8398 22.0526" stroke="#FC766A" stroke-width="1.06378" stroke-linecap="round"/>
<path d="M70.507 31.2755L72.7609 27.5191C72.8702 27.3368 73.0632 27.221 73.2756 27.2102L84.7108 26.6228C85.3403 26.5904 85.6307 27.393 85.1263 27.771L82.0043 30.1098C81.6313 30.3894 81.6739 30.9613 82.0839 31.1826L85.8958 33.2384C86.4215 33.522 86.3045 34.3079 85.7188 34.426L75.1976 36.5451C75.004 36.584 74.8031 36.5312 74.6538 36.4019L70.5644 32.8612" stroke="#243252" stroke-width="1.06378" stroke-linecap="round"/>
<path d="M41.5262 37.8791L70.5644 32.8612L76.9303 31.761" stroke="#243252" stroke-width="1.06378" stroke-linecap="round"/>
</g>
<defs>
<clipPath id="clip0_197_6242">
<rect width="97.5001" height="78" fill="white" transform="translate(0.5)"/>
</clipPath>
</defs>
</svg>
