<svg xmlns="http://www.w3.org/2000/svg" width="184" height="60">
  <path d="M108.602 16.956c-2.396.552-4.37 1.818-6.155 3.56-.134-.15-.215-.22-.27-.307-1.78-2.778-4.398-3.65-7.544-3.33-.88.089-2.043.386-2.707 1.22a37.252 37.252 0 00-2.644 3.498c-1.328-2.321-3.45-3.942-6.399-4.64-1.315-.311-2.685-.387-4.03-.57-5.804.138-10.348 2.42-13.483 6.997-1.041-2.943-3.1-5.182-6.334-6.085-6.035-1.685-11.632-.734-16.305 3.694-3.823 3.622-5.256 8.25-5.43 13.327a305.901 305.901 0 01-4.983 3.114c-2.904 1.616-6.745 3.253-11.306 3.253-8.602 0-11.242-6.283-9.861-14.503 1.528-9.09 8.499-17.83 16.582-17.83 6.028 0 9.126 2.54 10.49 3.677l3.53-6.885c.425-.802.624-1.136.686-1.47.037-.2.005-.401-.357-.67C41.299 2.407 35.13 0 27.83 0c-4.064 0-8.114.735-11.998 2.54C8.923 5.68 2.264 15.222.444 26.518-1.57 39.017 3.03 49.042 19.204 49.042c2.005 0 6.708-.134 11.993-2.34.445-.19.797-.355 1.086-.513 2.048-.808 4.768-2.21 6.807-3.314 1.281 2.228 3.246 3.9 6.065 4.788 5.74 1.81 11.103.732 15.465-3.463a20.123 20.123 0 002.461-2.85c1.237 3.053 3.55 5.255 6.976 6.332 6.227 1.954 12.985-.132 16.958-5.316 4.067-5.306 5.067-11.345 3.466-17.745a12.632 12.632 0 00-.553-1.69c.182-.036.368-.074.553-.113.886-.183 1.761-.364 2.197-.324 1.571.143 2.338 1.033 2.346 2.6v.011c.002.317.004.638-.044.948-.328 2.138-.67 4.272-1.006 6.408-.88 5.616-1.722 11.24-2.652 16.846-.611 3.678-.698 7.53-3.291 10.693h11.447c-.027-.412-.069-.822-.11-1.23-.092-.902-.183-1.792-.115-2.67.16-2.017.54-4.019.84-6.025.142-.959.312-1.913.485-2.959 2.119 1.215 4.292 1.471 6.538 1.13 3.634-.553 6.542-2.45 8.89-5.17 4.15-4.81 5.879-10.427 5.355-16.766-.54-6.533-6.369-10.825-12.759-9.354zm73.84-11.994c-.94 5.903-1.88 11.806-2.822 17.71-.727 4.558-1.475 9.114-2.17 13.678-.171 1.13-.223 2.286-.238 3.431-.017 1.14.443 1.766 1.553 2.03.766.181 1.58.163 2.376.2.204.01.412-.018.677-.056.139-.02.294-.041.474-.061-.883 1.776-1.612 3.463-2.552 5.024-.342.566-1.139 1.055-1.805 1.19-2.556.522-5.005.146-7.192-1.372-2.135-1.483-2.839-3.633-2.58-6.1.294-2.812.682-5.617 1.11-8.413.854-5.565 1.77-11.12 2.64-16.683.472-3.006.948-6.012 1.33-9.03.098-.785.067-1.586.038-2.387-.013-.348-.026-.696-.03-1.042 0-.233-.028-.465-.046-.746 3.284-.52 6.516-1.03 9.881-1.564-.227 1.473-.43 2.833-.645 4.19zm-50.685 30.207c3.877-.198 7.558-1.116 10.856-3.258 2.49-1.619 4.258-3.773 4.959-6.727.977-4.13-.912-7.355-5.034-8.295-4.696-1.07-9.02-.084-12.713 2.995-5.888 4.91-8.354 11.32-7.461 18.884.494 4.178 2.705 7.393 6.824 8.838 4.537 1.592 8.848.736 12.888-1.711.893-.542 1.54-1.36 1.752-2.402.421-2.059.78-4.13 1.192-6.342-1.703 1-3.198 1.928-4.74 2.772-1.799.985-3.74 1.43-5.798 1.217-1.869-.194-3.141-1.335-3.477-3.13-.113-.602-.106-1.223-.17-1.834-.073-.694.158-.967.922-1.007zm37.652-15.73c.185-1.562-.475-2.349-2.045-2.581-3.192-.473-5.596.892-7.535 3.295-.364.45-.694.926-1.04 1.391l-.115-.047c.25-1.61.503-3.222.769-4.938l-8.597 1.379c.057.437.104.752.14 1.067.249 2.169-.1 4.293-.448 6.42l-.03.187c-.957 5.819-1.893 11.64-2.836 17.461-.246 1.515-.484 3.034-.733 4.603h8.832c.76-4.588 1.47-9.147 2.284-13.687.36-2.011.74-4.056 1.452-5.957.946-2.519 3.003-3.78 5.706-3.743 1.116.016 2.228.326 3.39.51.257-1.676.589-3.511.806-5.36zm-33.46 3.74c.882-.645 1.868-1.048 2.984-1.005 1.011.039 1.503.567 1.516 1.576.015 1.077-.416 2.02-1.13 2.749-.774.792-1.621 1.628-2.606 2.077-1.53.699-3.203 1.086-4.817 1.605l-.176-.305c.843-2.583 1.93-5.02 4.228-6.698zM78.626 39.553c-1.154 1.39-2.733 1.807-4.489 1.579-1.544-.203-2.73-1.644-2.985-3.627-.106-.82-.146-1.648-.2-2.283.111-3.114.57-5.947 2.19-8.453 1.26-1.954 2.966-3.227 5.433-3.082 1.89.11 3.014.92 3.302 2.781.74 4.789-.071 9.258-3.25 13.085zm-29.245 1.639c1.752.24 3.34-.161 4.499-1.549 3.211-3.843 4.015-8.338 3.268-13.153-.278-1.784-1.377-2.588-3.181-2.729-2.5-.195-4.24 1.067-5.529 3.045-1.629 2.5-2.09 5.334-2.209 8.455.056.654.09 1.51.207 2.355.272 1.959 1.433 3.368 2.945 3.576zm58.232-1.197c.914-.917 1.806-1.911 2.468-3.016 1.651-2.756 2.289-5.828 2.447-9.219-.035-.329-.07-.86-.151-1.387-.31-2.019-1.833-2.984-3.785-2.349-.545.178-1.138.443-1.52.848-.813.861-1.67 1.754-2.213 2.79-1.466 2.792-2.151 5.842-2.43 8.966-.098 1.093.019 2.221.163 3.317.1.775.713 1.142 1.486 1.218 1.353.133 2.592-.223 3.535-1.168z" fill="#ffffff" fill-rule="evenodd"/>
</svg>
