<?xml version="1.0" encoding="UTF-8"?>
<svg width="180px" height="56px" viewBox="0 0 180 56" version="1.1" xmlns="http://www.w3.org/2000/svg" xmlns:xlink="http://www.w3.org/1999/xlink">
    <!-- Generator: sketchtool 51.3 (57544) - http://www.bohemiancoding.com/sketch -->
    <title>68A88283-BBDD-45A0-B104-06E2BA60FD8B</title>
    <desc>Created with sketchtool.</desc>
    <defs></defs>
    <g id="En-cours" stroke="none" stroke-width="1" fill="none" fill-rule="evenodd">
        <g id="D_home_V8" transform="translate(-50.000000, -30.000000)" fill="#13235A" fill-rule="nonzero">
            <g id="TOP">
                <g id="Header" transform="translate(50.000000, 30.000000)">
                    <g id="Logo">
                        <path d="M7.56,16.2992701 C9.51428571,12.8759124 12.24,10.1678832 15.7371429,8.12408759 C19.2342857,6.08029197 22.9371429,5.10948905 26.8457143,5.10948905 C30.8057143,5.10948905 34.56,6.13138686 38.1085714,8.12408759 C41.6571429,10.1678832 44.3828571,12.8248175 46.3371429,16.1970803 C47.2114286,17.729927 47.88,19.3138686 48.3942857,21 L54,21 C52.8685714,16.0437956 50.4514286,11.649635 46.6457143,7.91970803 C41.2971429,2.65693431 34.6114286,0 26.64,0 C21.7028571,0 17.1257143,1.22627737 12.9085714,3.62773723 C8.69142857,6.08029197 5.34857143,9.45255474 2.88,13.7445255 C1.54285714,16.0437956 0.617142857,18.4963504 0,21 L5.60571429,21 C6.06857143,19.3649635 6.73714286,17.7810219 7.56,16.2992701" id="Shape"></path>
                        <g id="logo-dome" transform="translate(0.000000, 13.000000)">
                            <g id="Group" transform="translate(0.000000, 2.072289)">
                                <g>
                                    <path d="M49.3314121,19.0650602 C48.8126801,20.9819277 48.0864553,22.846988 47.1008646,24.5566265 C45.4927954,27.4060241 43.3659942,29.7373494 40.7204611,31.6024096 C39.3717579,16.2674699 26.6628242,17.5626506 26.6628242,17.5626506 C17.4293948,17.7180723 14.2651297,27.3542169 13.3832853,30.8771084 C12.7608069,30.3590361 12.1383285,29.8409639 11.5677233,29.2192771 C8.61095101,26.2662651 6.63976945,22.846988 5.70605187,19.013253 L0.0518731988,19.013253 C1.08933718,24.2457831 3.63112392,28.8048193 7.62536023,32.7939759 C13.0720461,38.2337349 19.7118156,40.9277108 27.5965418,40.9277108 C35.3775216,40.9277108 42.0172911,38.2337349 47.4121037,32.7939759 C51.3544669,28.8566265 53.8443804,24.2457831 54.9337176,19.013253 L49.3314121,19.013253 L49.3314121,19.0650602 Z" id="Shape"></path>
                                    <ellipse id="Oval" cx="26.9740634" cy="7.71927711" rx="7.57348703" ry="7.56385542"></ellipse>
                                </g>
                            </g>
                            <g id="Group" transform="translate(68.991354, 0.000000)">
                                <path d="M19.1930836,12.5891566 C18.1556196,11.1385542 16.962536,10.0506024 15.5619597,9.3253012 C14.1613833,8.6 12.6570605,8.2373494 10.945245,8.2373494 C7.98847262,8.2373494 5.44668588,9.27349398 3.37175793,11.3975904 C1.29682997,13.5216867 0.207492795,16.060241 0.207492795,19.0650602 C0.207492795,22.1216867 1.24495677,24.7120482 3.31988473,26.8361446 C5.39481268,28.960241 7.88472622,30.0481928 10.8414986,30.0481928 C12.5014409,30.0481928 14.0057637,29.6855422 15.4063401,29.0120482 C16.8069164,28.3385542 18.0518732,27.3024096 19.1930836,25.9554217 L19.1930836,29.5301205 L21.8386167,29.5301205 L21.8386167,0.777108434 L19.1930836,0.777108434 L19.1930836,12.5891566 Z M18.3112392,23.5204819 C17.5850144,24.7638554 16.5994236,25.7481928 15.3025937,26.5253012 C14.0057637,27.2506024 12.6051873,27.613253 11.1527378,27.613253 C9.70028818,27.613253 8.35158501,27.2506024 7.10662824,26.473494 C5.86167147,25.7481928 4.82420749,24.7120482 4.09798271,23.3650602 C3.37175793,22.0180723 2.95677233,20.6192771 2.95677233,19.1686747 C2.95677233,17.7180723 3.31988473,16.3192771 4.04610951,14.9722892 C4.77233429,13.6253012 5.80979827,12.6409639 7.05475504,11.9156627 C8.29971182,11.1903614 9.70028818,10.8277108 11.1527378,10.8277108 C13.4870317,10.8277108 15.4063401,11.6566265 17.0144092,13.2626506 C18.6224784,14.8686747 19.4005764,16.8891566 19.4005764,19.2722892 C19.3487032,20.826506 18.9855908,22.2253012 18.3112392,23.5204819 Z" id="Shape"></path>
                                <path d="M31.9538905,13.3144578 C33.5619597,11.6566265 35.481268,10.8795181 37.6599424,10.8795181 C39.8904899,10.8795181 41.7579251,11.7084337 43.3659942,13.3144578 C44.351585,14.3506024 45.0259366,15.4903614 45.4409222,16.7337349 L48.2420749,16.7337349 C47.8270893,14.8686747 46.9971182,13.1590361 45.648415,11.7084337 C43.5216138,9.37710843 40.8760807,8.2373494 37.7118156,8.2373494 C34.4956772,8.2373494 31.8501441,9.37710843 29.7233429,11.7084337 C28.3746398,13.2108434 27.4927954,14.8686747 27.129683,16.7337349 L29.9308357,16.7337349 C30.2939481,15.4903614 30.9682997,14.3506024 31.9538905,13.3144578 Z" id="Shape"></path>
                                <path d="M44.7146974,23.4686747 C43.9884726,24.7638554 43.0028818,25.7481928 41.7579251,26.473494 C40.5129683,27.1987952 39.1642651,27.5096386 37.6599424,27.5096386 C36.1556196,27.5096386 34.8069164,27.146988 33.5619597,26.473494 C32.3170029,25.7481928 31.3314121,24.7638554 30.6051873,23.4686747 C30.3458213,23.0024096 30.0864553,22.4843373 29.9308357,21.9662651 L27.129683,21.9662651 C27.5965418,23.7277108 28.4783862,25.3855422 29.8270893,26.8361446 C31.8501441,29.0120482 34.443804,30.1 37.6599424,30.1 C40.8242075,30.1 43.4178674,29.0120482 45.4409222,26.8361446 C46.7896254,25.3855422 47.6714697,23.7795181 48.1383285,21.9662651 L45.3371758,21.9662651 C45.1815562,22.4843373 44.9740634,22.9506024 44.7146974,23.4686747 Z" id="Shape"></path>
                                <polygon id="Shape" points="37.815562 2.12409639 41.1873199 5.0253012 44.610951 5.0253012 39.0605187 0.155421687 36.4149856 0.155421687 30.7608069 5.0253012 34.3400576 5.0253012"></polygon>
                                <path d="M81.2334294,9.3253012 C80.1440922,8.6 78.8472622,8.2373494 77.4466859,8.2373494 C75.8904899,8.2373494 74.4899135,8.65180723 73.1412104,9.48072289 C71.7925072,10.3096386 70.70317,11.553012 69.8213256,13.2108434 C69.4063401,11.9674699 68.8876081,11.0349398 68.3170029,10.413253 C67.7463977,9.73975904 67.0201729,9.22168675 66.0864553,8.85903614 C65.204611,8.44457831 64.2190202,8.28915663 63.2334294,8.28915663 C61.7291066,8.28915663 60.3285303,8.70361446 58.9798271,9.53253012 C57.9942363,10.1542169 57.0605187,11.086747 56.1268012,12.4337349 L56.1268012,8.80722892 L53.4293948,8.80722892 L53.4293948,29.5301205 L56.1268012,29.5301205 L56.1268012,20.7228916 C56.1268012,18.1325301 56.3861671,16.2156627 56.9048991,14.9722892 C57.4236311,13.7289157 58.2017291,12.6927711 59.2910663,11.9674699 C60.3804035,11.2421687 61.5216138,10.8277108 62.7665706,10.8277108 C63.8559078,10.8277108 64.7377522,11.086747 65.5158501,11.6566265 C66.2939481,12.1746988 66.8126801,12.9 67.1239193,13.8325301 C67.4351585,14.713253 67.5907781,16.4228916 67.5907781,18.9096386 L67.5907781,29.5301205 L70.2881844,29.5301205 L70.2881844,21.3963855 C70.2881844,18.4433735 70.5475504,16.3192771 71.0144092,15.0240964 C71.5331412,13.7289157 72.3112392,12.7445783 73.3487032,11.9674699 C74.4380403,11.1903614 75.5792507,10.8277108 76.8760807,10.8277108 C77.9654179,10.8277108 78.8472622,11.086747 79.6253602,11.6048193 C80.4034582,12.1228916 80.9221902,12.7963855 81.2334294,13.6253012 C81.5446686,14.4542169 81.7002882,16.0084337 81.7002882,18.1843373 L81.7002882,29.5301205 L84.4495677,29.5301205 L84.4495677,18.1843373 C84.4495677,15.5939759 84.1902017,13.6253012 83.6714697,12.3301205 C83.1527378,11.086747 82.3227666,10.0506024 81.2334294,9.3253012 Z" id="Shape"></path>
                                <path d="M105.302594,25.5927711 C104.628242,26.2144578 103.746398,26.6807229 102.760807,27.0433735 C101.775216,27.4060241 100.737752,27.613253 99.7002882,27.613253 C97.5216138,27.613253 95.6541787,26.8361446 94.2017291,25.2819277 C92.6974063,23.7277108 91.9193084,21.7590361 91.8674352,19.3759036 L110.541787,19.3759036 C110.541787,16.526506 109.763689,14.1951807 108.259366,12.2783133 C106.132565,9.58433735 103.331412,8.2373494 99.8040346,8.2373494 C96.3804035,8.2373494 93.6311239,9.53253012 91.556196,12.1746988 C89.9481268,14.246988 89.1181556,16.5783133 89.1181556,19.2204819 C89.1181556,22.0180723 90.0518732,24.5048193 91.9711816,26.7325301 C93.8904899,28.960241 96.5360231,30.0481928 99.907781,30.0481928 C101.412104,30.0481928 102.81268,29.8409639 104.005764,29.3746988 C105.198847,28.9084337 106.288184,28.2349398 107.273775,27.3542169 C108.259366,26.473494 109.089337,25.2819277 109.815562,23.8313253 L107.585014,22.639759 C106.755043,23.986747 105.976945,24.9710843 105.302594,25.5927711 Z M94.5129683,12.7963855 C95.9654179,11.5012048 97.7291066,10.8277108 99.7521614,10.8277108 C100.997118,10.8277108 102.190202,11.086747 103.279539,11.6048193 C104.420749,12.1228916 105.302594,12.7963855 105.976945,13.6771084 C106.651297,14.5060241 107.170029,15.6457831 107.533141,17.0963855 L92.074928,17.0963855 C92.6455331,15.1795181 93.4755043,13.7289157 94.5129683,12.7963855 Z" id="Shape"></path>
                            </g>
                        </g>
                    </g>
                </g>
            </g>
        </g>
    </g>
</svg>