<svg width="1440" height="25" viewBox="0 0 1440 25" fill="none" xmlns="http://www.w3.org/2000/svg">
<g clip-path="url(#clip0_157_2409)">
<path d="M1439.03 -0.440063H152.825V722.98H1439.03V-0.440063Z" fill="#98B7C4"/>
<path d="M896.22 307.706L557.53 399.579L426.168 408.865L281.262 283.489C281.262 283.489 232.332 159.841 197.341 103.626C189.2 90.5385 81.2353 0.243896 81.2353 0.243896H2.56543V768.848H1438.29L1439.15 374.781L896.22 307.706Z" fill="white"/>
<path d="M350.182 -31.3948C350.182 -31.3948 336.474 -81.9835 344.142 -133.621C347.371 -155.419 352.619 -177.353 350.182 -199.162C347.75 -220.988 335.429 -243.319 314.849 -249.291C289.584 -256.608 263.597 -236.718 249.485 -213.685C219.815 -165.249 147.933 -15.148 147.933 -15.148L264.228 67.7975L334.347 131.075L394.204 164.424L423.278 190.078L515.629 135.351L418.147 62.6669L350.182 -31.3948Z" fill="#243252"/>
<path d="M221.473 -2.15063L72.53 -2.15047L162.47 81.4791L199.24 158.439L306.419 236.048L401.9 203.212L469.18 162.885L297.577 52.4055L221.473 -2.15063Z" fill="#69779B"/>
<mask id="mask0_157_2409" style="mask-type:alpha" maskUnits="userSpaceOnUse" x="72" y="-3" width="398" height="240">
<path d="M221.473 -2.15075L72.53 -2.15059L162.47 81.479L199.24 158.439L306.419 236.048L401.9 203.212L469.18 162.885L297.577 52.4053L221.473 -2.15075Z" fill="#69779B"/>
</mask>
<g mask="url(#mask0_157_2409)">
<g opacity="0.56">
<path d="M1541.08 -8.94591C1541.08 -13.3077 1536.01 -16.858 1529.72 -16.858C1523.43 -16.858 1518.36 -13.3077 1518.36 -8.94591V-8.43872C1518.36 -4.0769 1513.29 -0.526535 1507 -0.526535C1500.71 -0.526535 1495.64 -4.0769 1495.64 -8.43872V-8.94591C1495.64 -13.3077 1490.57 -16.858 1484.28 -16.858C1477.99 -16.858 1472.92 -13.3077 1472.92 -8.94591V-8.43872C1472.92 -4.0769 1467.84 -0.526535 1461.55 -0.526535C1455.27 -0.526535 1450.19 -4.0769 1450.19 -8.43872V-8.94591C1450.19 -13.3077 1445.12 -16.858 1438.83 -16.858C1432.54 -16.858 1427.47 -13.3077 1427.47 -8.94591V-8.43872C1427.47 -4.0769 1422.4 -0.526535 1416.11 -0.526535C1409.82 -0.526535 1404.75 -4.0769 1404.75 -8.43872V-8.94591C1404.75 -13.3077 1399.68 -16.858 1393.39 -16.858C1387.1 -16.858 1382.03 -13.3077 1382.03 -8.94591V-8.43872C1382.03 -4.0769 1376.96 -0.526535 1370.67 -0.526535C1364.38 -0.526535 1359.31 -4.0769 1359.31 -8.43872V-8.94591C1359.31 -13.3077 1354.23 -16.858 1347.94 -16.858C1341.66 -16.858 1336.58 -13.3077 1336.58 -8.94591V-8.43872C1336.58 -4.0769 1331.51 -0.526535 1325.22 -0.526535C1318.93 -0.526535 1313.86 -4.0769 1313.86 -8.43872V-8.94591C1313.86 -13.3077 1308.79 -16.858 1302.5 -16.858C1296.21 -16.858 1291.14 -13.3077 1291.14 -8.94591V-8.43872C1291.14 -4.0769 1286.07 -0.526535 1279.78 -0.526535C1273.49 -0.526535 1268.42 -4.0769 1268.42 -8.43872V-8.94591C1268.42 -13.3077 1263.35 -16.858 1257.06 -16.858C1250.77 -16.858 1245.7 -13.3077 1245.7 -8.94591V-8.43872C1245.7 -4.0769 1240.62 -0.526535 1234.33 -0.526535C1228.05 -0.526535 1222.97 -4.0769 1222.97 -8.43872V-8.94591C1222.97 -13.3077 1217.9 -16.858 1211.61 -16.858C1205.32 -16.858 1200.25 -13.3077 1200.25 -8.94591V-8.43872C1200.25 -4.0769 1195.18 -0.526535 1188.89 -0.526535C1182.6 -0.526535 1177.53 -4.0769 1177.53 -8.43872V-8.94591C1177.53 -13.3077 1172.46 -16.858 1166.17 -16.858C1159.88 -16.858 1154.81 -13.3077 1154.81 -8.94591V-8.43872C1154.81 -4.0769 1149.74 -0.526535 1143.45 -0.526535C1137.16 -0.526535 1132.09 -4.0769 1132.09 -8.43872V-8.94591C1132.09 -13.3077 1127.01 -16.858 1120.72 -16.858C1114.44 -16.858 1109.36 -13.3077 1109.36 -8.94591V-8.43872C1109.36 -4.0769 1104.29 -0.526535 1098 -0.526535C1091.71 -0.526535 1086.64 -4.0769 1086.64 -8.43872V-8.94591C1086.64 -13.3077 1081.57 -16.858 1075.28 -16.858C1068.99 -16.858 1063.92 -13.3077 1063.92 -8.94591V-8.43872C1063.92 -4.0769 1058.85 -0.526535 1052.56 -0.526535C1046.27 -0.526535 1041.2 -4.0769 1041.2 -8.43872V-8.94591C1041.2 -13.3077 1036.13 -16.858 1029.84 -16.858C1023.55 -16.858 1018.48 -13.3077 1018.48 -8.94591V-8.43872C1018.48 -4.0769 1013.4 -0.526535 1007.11 -0.526535C1000.83 -0.526535 995.753 -4.0769 995.753 -8.43872V-8.94591C995.753 -13.3077 990.681 -16.858 984.392 -16.858C978.103 -16.858 973.031 -13.3077 973.031 -8.94591V-8.43872C973.031 -4.0769 967.959 -0.526535 961.67 -0.526535C955.381 -0.526535 950.309 -4.0769 950.309 -8.43872V-8.94591C950.309 -13.3077 945.237 -16.858 938.948 -16.858C932.659 -16.858 927.587 -13.3077 927.587 -8.94591V-8.43872C927.587 -4.0769 922.515 -0.526535 916.226 -0.526535C909.937 -0.526535 904.865 -4.0769 904.865 -8.43872V-8.94591C904.865 -13.3077 899.793 -16.858 893.504 -16.858C887.215 -16.858 882.143 -13.3077 882.143 -8.94591V-8.43872C882.143 -4.0769 877.071 -0.526535 870.782 -0.526535C864.493 -0.526535 859.421 -4.0769 859.421 -8.43872V-8.94591C859.421 -13.3077 854.349 -16.858 848.06 -16.858C841.771 -16.858 836.699 -13.3077 836.699 -8.94591V-8.43872C836.699 -4.0769 831.627 -0.526535 825.338 -0.526535C819.049 -0.526535 813.977 -4.0769 813.977 -8.43872V-8.94591C813.977 -13.3077 808.905 -16.858 802.616 -16.858C796.327 -16.858 791.255 -13.3077 791.255 -8.94591V-8.43872C791.255 -4.0769 786.183 -0.526535 779.894 -0.526535C773.605 -0.526535 768.533 -4.0769 768.533 -8.43872V-8.94591C768.533 -13.3077 763.461 -16.858 757.172 -16.858C750.883 -16.858 745.811 -13.3077 745.811 -8.94591V-8.43872C745.811 -4.0769 740.739 -0.526535 734.45 -0.526535C728.161 -0.526535 723.089 -4.0769 723.089 -8.43872V-8.94591C723.089 -13.3077 718.017 -16.858 711.728 -16.858C705.439 -16.858 700.367 -13.3077 700.367 -8.94591V-8.43872C700.367 -4.0769 695.295 -0.526535 689.006 -0.526535C682.717 -0.526535 677.645 -4.0769 677.645 -8.43872V-8.94591C677.645 -13.3077 672.573 -16.858 666.284 -16.858C659.995 -16.858 654.923 -13.3077 654.923 -8.94591V-8.43872C654.923 -4.0769 649.851 -0.526535 643.562 -0.526535C637.273 -0.526535 632.201 -4.0769 632.201 -8.43872V-8.94591C632.201 -13.3077 627.129 -16.858 620.84 -16.858C614.551 -16.858 609.479 -13.3077 609.479 -8.94591V-8.43872C609.479 -4.0769 604.407 -0.526535 598.118 -0.526535C591.829 -0.526535 586.757 -4.0769 586.757 -8.43872V-8.94591C586.757 -13.3077 581.685 -16.858 575.396 -16.858C569.107 -16.858 564.035 -13.3077 564.035 -8.94591V-8.43872C564.035 -4.0769 558.963 -0.526535 552.674 -0.526535C546.385 -0.526535 541.313 -4.0769 541.313 -8.43872V-8.94591C541.313 -13.3077 536.241 -16.858 529.952 -16.858C523.663 -16.858 518.591 -13.3077 518.591 -8.94591V-8.43872C518.591 -4.0769 513.519 -0.526535 507.23 -0.526535C500.94 -0.526535 495.869 -4.0769 495.869 -8.43872V-8.94591C495.869 -13.3077 490.797 -16.858 484.508 -16.858C478.218 -16.858 473.147 -13.3077 473.147 -8.94591V-8.43872C473.147 -4.0769 468.075 -0.526535 461.786 -0.526535C455.496 -0.526535 450.425 -4.0769 450.425 -8.43872V-8.94591C450.425 -13.3077 445.353 -16.858 439.064 -16.858C432.774 -16.858 427.702 -13.3077 427.702 -8.94591V-8.43872C427.702 -4.0769 422.631 -0.526535 416.341 -0.526535C410.052 -0.526535 404.98 -4.0769 404.98 -8.43872V-8.94591C404.98 -13.3077 399.909 -16.858 393.619 -16.858C387.33 -16.858 382.258 -13.3077 382.258 -8.94591V-8.43872C382.258 -4.0769 377.187 -0.526535 370.897 -0.526535C364.608 -0.526535 359.536 -4.0769 359.536 -8.43872V-8.94591C359.536 -13.3077 354.465 -16.858 348.175 -16.858C341.886 -16.858 336.814 -13.3077 336.814 -8.94591V-8.43872C336.814 -4.0769 331.742 -0.526535 325.453 -0.526535C319.164 -0.526535 314.092 -4.0769 314.092 -8.43872V-8.94591C314.092 -13.3077 309.02 -16.858 302.731 -16.858C296.442 -16.858 291.37 -13.3077 291.37 -8.94591V-8.43872C291.37 -4.0769 286.298 -0.526535 280.009 -0.526535C273.72 -0.526535 268.648 -4.0769 268.648 -8.43872V-8.94591C268.648 -13.3077 263.576 -16.858 257.287 -16.858C250.998 -16.858 245.926 -13.3077 245.926 -8.94591V-8.43872C245.926 -4.0769 240.854 -0.526535 234.565 -0.526535C228.276 -0.526535 223.204 -4.0769 223.204 -8.43872V-8.94591C223.204 -13.3077 218.132 -16.858 211.843 -16.858C205.554 -16.858 200.482 -13.3077 200.482 -8.94591V-8.43872C200.482 -4.0769 195.41 -0.526535 189.121 -0.526535C182.832 -0.526535 177.76 -4.0769 177.76 -8.43872V-8.94591C177.76 -13.3077 172.688 -16.858 166.399 -16.858C160.11 -16.858 148.85 -13.4092 148.85 -8.94591V-8.43872C148.85 -4.0769 143.779 -0.526535 137.489 -0.526535C131.2 -0.526535 126.128 -4.0769 126.128 -8.43872V-8.94591C126.128 -13.3077 121.057 -16.858 114.767 -16.858C108.478 -16.858 103.203 -13.4092 103.203 -8.94591V-8.43872C103.203 -4.0769 98.1316 -0.526535 91.8425 -0.526535C85.5533 -0.526535 80.4814 -4.0769 80.4814 -8.43872" stroke="#FC766A" stroke-width="1.71021" stroke-miterlimit="10"/>
<path d="M1541.08 8.6031C1541.08 4.24128 1536.01 0.690918 1529.72 0.690918C1523.43 0.690918 1518.36 4.24128 1518.36 8.6031V9.11029C1518.36 13.4721 1513.29 17.0224 1507 17.0224C1500.71 17.0224 1495.64 13.4721 1495.64 9.11029V8.6031C1495.64 4.24128 1490.57 0.690918 1484.28 0.690918C1477.99 0.690918 1472.92 4.24128 1472.92 8.6031V9.11029C1472.92 13.4721 1467.84 17.0224 1461.55 17.0224C1455.27 17.0224 1450.19 13.4721 1450.19 9.11029V8.6031C1450.19 4.24128 1445.12 0.690918 1438.83 0.690918C1432.54 0.690918 1427.47 4.24128 1427.47 8.6031V9.11029C1427.47 13.4721 1422.4 17.0224 1416.11 17.0224C1409.82 17.0224 1404.75 13.4721 1404.75 9.11029V8.6031C1404.75 4.24128 1399.68 0.690918 1393.39 0.690918C1387.1 0.690918 1382.03 4.24128 1382.03 8.6031V9.11029C1382.03 13.4721 1376.96 17.0224 1370.67 17.0224C1364.38 17.0224 1359.31 13.4721 1359.31 9.11029V8.6031C1359.31 4.24128 1354.23 0.690918 1347.94 0.690918C1341.66 0.690918 1336.58 4.24128 1336.58 8.6031V9.11029C1336.58 13.4721 1331.51 17.0224 1325.22 17.0224C1318.93 17.0224 1313.86 13.4721 1313.86 9.11029V8.6031C1313.86 4.24128 1308.79 0.690918 1302.5 0.690918C1296.21 0.690918 1291.14 4.24128 1291.14 8.6031V9.11029C1291.14 13.4721 1286.07 17.0224 1279.78 17.0224C1273.49 17.0224 1268.42 13.4721 1268.42 9.11029V8.6031C1268.42 4.24128 1263.35 0.690918 1257.06 0.690918C1250.77 0.690918 1245.7 4.24128 1245.7 8.6031V9.11029C1245.7 13.4721 1240.62 17.0224 1234.33 17.0224C1228.05 17.0224 1222.97 13.4721 1222.97 9.11029V8.6031C1222.97 4.24128 1217.9 0.690918 1211.61 0.690918C1205.32 0.690918 1200.25 4.24128 1200.25 8.6031V9.11029C1200.25 13.4721 1195.18 17.0224 1188.89 17.0224C1182.6 17.0224 1177.53 13.4721 1177.53 9.11029V8.6031C1177.53 4.24128 1172.46 0.690918 1166.17 0.690918C1159.88 0.690918 1154.81 4.24128 1154.81 8.6031V9.11029C1154.81 13.4721 1149.74 17.0224 1143.45 17.0224C1137.16 17.0224 1132.09 13.4721 1132.09 9.11029V8.6031C1132.09 4.24128 1127.01 0.690918 1120.72 0.690918C1114.44 0.690918 1109.36 4.24128 1109.36 8.6031V9.11029C1109.36 13.4721 1104.29 17.0224 1098 17.0224C1091.71 17.0224 1086.64 13.4721 1086.64 9.11029V8.6031C1086.64 4.24128 1081.57 0.690918 1075.28 0.690918C1068.99 0.690918 1063.92 4.24128 1063.92 8.6031V9.11029C1063.92 13.4721 1058.85 17.0224 1052.56 17.0224C1046.27 17.0224 1041.2 13.4721 1041.2 9.11029V8.6031C1041.2 4.24128 1036.13 0.690918 1029.84 0.690918C1023.55 0.690918 1018.48 4.24128 1018.48 8.6031V9.11029C1018.48 13.4721 1013.4 17.0224 1007.11 17.0224C1000.83 17.0224 995.753 13.4721 995.753 9.11029V8.6031C995.753 4.24128 990.681 0.690918 984.392 0.690918C978.103 0.690918 973.031 4.24128 973.031 8.6031V9.11029C973.031 13.4721 967.959 17.0224 961.67 17.0224C955.381 17.0224 950.309 13.4721 950.309 9.11029V8.6031C950.309 4.24128 945.237 0.690918 938.948 0.690918C932.659 0.690918 927.587 4.24128 927.587 8.6031V9.11029C927.587 13.4721 922.515 17.0224 916.226 17.0224C909.937 17.0224 904.865 13.4721 904.865 9.11029V8.6031C904.865 4.24128 899.793 0.690918 893.504 0.690918C887.215 0.690918 882.143 4.24128 882.143 8.6031V9.11029C882.143 13.4721 877.071 17.0224 870.782 17.0224C864.493 17.0224 859.421 13.4721 859.421 9.11029V8.6031C859.421 4.24128 854.349 0.690918 848.06 0.690918C841.771 0.690918 836.699 4.24128 836.699 8.6031V9.11029C836.699 13.4721 831.627 17.0224 825.338 17.0224C819.049 17.0224 813.977 13.4721 813.977 9.11029V8.6031C813.977 4.24128 808.905 0.690918 802.616 0.690918C796.327 0.690918 791.255 4.24128 791.255 8.6031V9.11029C791.255 13.4721 786.183 17.0224 779.894 17.0224C773.605 17.0224 768.533 13.4721 768.533 9.11029V8.6031C768.533 4.24128 763.461 0.690918 757.172 0.690918C750.883 0.690918 745.811 4.24128 745.811 8.6031V9.11029C745.811 13.4721 740.739 17.0224 734.45 17.0224C728.161 17.0224 723.089 13.4721 723.089 9.11029V8.6031C723.089 4.24128 718.017 0.690918 711.728 0.690918C705.439 0.690918 700.367 4.24128 700.367 8.6031V9.11029C700.367 13.4721 695.295 17.0224 689.006 17.0224C682.717 17.0224 677.645 13.4721 677.645 9.11029V8.6031C677.645 4.24128 672.573 0.690918 666.284 0.690918C659.995 0.690918 654.923 4.24128 654.923 8.6031V9.11029C654.923 13.4721 649.851 17.0224 643.562 17.0224C637.273 17.0224 632.201 13.4721 632.201 9.11029V8.6031C632.201 4.24128 627.129 0.690918 620.84 0.690918C614.551 0.690918 609.479 4.24128 609.479 8.6031V9.11029C609.479 13.4721 604.407 17.0224 598.118 17.0224C591.829 17.0224 586.757 13.4721 586.757 9.11029V8.6031C586.757 4.24128 581.685 0.690918 575.396 0.690918C569.107 0.690918 564.035 4.24128 564.035 8.6031V9.11029C564.035 13.4721 558.963 17.0224 552.674 17.0224C546.385 17.0224 541.313 13.4721 541.313 9.11029V8.6031C541.313 4.24128 536.241 0.690918 529.952 0.690918C523.663 0.690918 518.591 4.24128 518.591 8.6031V9.11029C518.591 13.4721 513.519 17.0224 507.23 17.0224C500.941 17.0224 495.869 13.4721 495.869 9.11029V8.6031C495.869 4.24128 490.797 0.690918 484.508 0.690918C478.218 0.690918 473.147 4.24128 473.147 8.6031V9.11029C473.147 13.4721 468.075 17.0224 461.786 17.0224C455.496 17.0224 450.425 13.4721 450.425 9.11029V8.6031C450.425 4.24128 445.353 0.690918 439.064 0.690918C432.774 0.690918 427.703 4.24128 427.703 8.6031V9.11029C427.703 13.4721 422.631 17.0224 416.342 17.0224C410.052 17.0224 404.981 13.4721 404.981 9.11029V8.6031C404.981 4.24128 399.909 0.690918 393.62 0.690918C387.33 0.690918 382.259 4.24128 382.259 8.6031V9.11029C382.259 13.4721 377.187 17.0224 370.897 17.0224C364.608 17.0224 359.536 13.4721 359.536 9.11029V8.6031C359.536 4.24128 354.465 0.690918 348.175 0.690918C341.886 0.690918 336.814 4.24128 336.814 8.6031V9.11029C336.814 13.4721 331.743 17.0224 325.453 17.0224C319.164 17.0224 314.092 13.4721 314.092 9.11029V8.6031C314.092 4.24128 309.021 0.690918 302.731 0.690918C296.442 0.690918 291.37 4.24128 291.37 8.6031V9.11029C291.37 13.4721 286.299 17.0224 280.009 17.0224C273.72 17.0224 268.648 13.4721 268.648 9.11029V8.6031C268.648 4.24128 263.576 0.690918 257.287 0.690918C250.998 0.690918 245.926 4.24128 245.926 8.6031V9.11029C245.926 13.4721 240.854 17.0224 234.565 17.0224C228.276 17.0224 223.204 13.4721 223.204 9.11029V8.6031C223.204 4.24128 218.132 0.690918 211.843 0.690918C205.554 0.690918 200.482 4.24128 200.482 8.6031V9.11029C200.482 13.4721 195.41 17.0224 189.121 17.0224C182.832 17.0224 177.76 13.4721 177.76 9.11029V8.6031C177.76 4.24128 172.688 0.690918 166.399 0.690918C160.11 0.690918 148.851 4.24128 148.851 8.6031V9.11029C148.851 13.4721 143.779 17.0224 137.49 17.0224C131.2 17.0224 126.128 13.4721 126.128 9.11029V8.6031C126.128 4.24128 121.057 0.690918 114.767 0.690918C108.478 0.690918 103.204 4.24128 103.204 8.6031V9.11029C103.204 13.4721 98.1317 17.0224 91.8426 17.0224C85.5534 17.0224 80.3801 13.5735 80.3801 9.2117" stroke="#FC766A" stroke-width="1.71021" stroke-miterlimit="10"/>
<path d="M1541.08 26.2529C1541.08 21.8911 1536.01 18.3408 1529.72 18.3408C1523.43 18.3408 1518.36 21.8911 1518.36 26.2529V26.7601C1518.36 31.1219 1513.29 34.6723 1507 34.6723C1500.71 34.6723 1495.64 31.1219 1495.64 26.7601V26.2529C1495.64 21.8911 1490.57 18.3408 1484.28 18.3408C1477.99 18.3408 1472.92 21.8911 1472.92 26.2529V26.7601C1472.92 31.1219 1467.84 34.6723 1461.55 34.6723C1455.27 34.6723 1450.19 31.1219 1450.19 26.7601V26.2529C1450.19 21.8911 1445.12 18.3408 1438.83 18.3408C1432.54 18.3408 1427.47 21.8911 1427.47 26.2529V26.7601C1427.47 31.1219 1422.4 34.6723 1416.11 34.6723C1409.82 34.6723 1404.75 31.1219 1404.75 26.7601V26.2529C1404.75 21.8911 1399.68 18.3408 1393.39 18.3408C1387.1 18.3408 1382.03 21.8911 1382.03 26.2529V26.7601C1382.03 31.1219 1376.96 34.6723 1370.67 34.6723C1364.38 34.6723 1359.31 31.1219 1359.31 26.7601V26.2529C1359.31 21.8911 1354.23 18.3408 1347.94 18.3408C1341.66 18.3408 1336.58 21.8911 1336.58 26.2529V26.7601C1336.58 31.1219 1331.51 34.6723 1325.22 34.6723C1318.93 34.6723 1313.86 31.1219 1313.86 26.7601V26.2529C1313.86 21.8911 1308.79 18.3408 1302.5 18.3408C1296.21 18.3408 1291.14 21.8911 1291.14 26.2529V26.7601C1291.14 31.1219 1286.07 34.6723 1279.78 34.6723C1273.49 34.6723 1268.42 31.1219 1268.42 26.7601V26.2529C1268.42 21.8911 1263.35 18.3408 1257.06 18.3408C1250.77 18.3408 1245.7 21.8911 1245.7 26.2529V26.7601C1245.7 31.1219 1240.62 34.6723 1234.33 34.6723C1228.05 34.6723 1222.97 31.1219 1222.97 26.7601V26.2529C1222.97 21.8911 1217.9 18.3408 1211.61 18.3408C1205.32 18.3408 1200.25 21.8911 1200.25 26.2529V26.7601C1200.25 31.1219 1195.18 34.6723 1188.89 34.6723C1182.6 34.6723 1177.53 31.1219 1177.53 26.7601V26.2529C1177.53 21.8911 1172.46 18.3408 1166.17 18.3408C1159.88 18.3408 1154.81 21.8911 1154.81 26.2529V26.7601C1154.81 31.1219 1149.74 34.6723 1143.45 34.6723C1137.16 34.6723 1132.09 31.1219 1132.09 26.7601V26.2529C1132.09 21.8911 1127.01 18.3408 1120.72 18.3408C1114.44 18.3408 1109.36 21.8911 1109.36 26.2529V26.7601C1109.36 31.1219 1104.29 34.6723 1098 34.6723C1091.71 34.6723 1086.64 31.1219 1086.64 26.7601V26.2529C1086.64 21.8911 1081.57 18.3408 1075.28 18.3408C1068.99 18.3408 1063.92 21.8911 1063.92 26.2529V26.7601C1063.92 31.1219 1058.85 34.6723 1052.56 34.6723C1046.27 34.6723 1041.2 31.1219 1041.2 26.7601V26.2529C1041.2 21.8911 1036.13 18.3408 1029.84 18.3408C1023.55 18.3408 1018.48 21.8911 1018.48 26.2529V26.7601C1018.48 31.1219 1013.4 34.6723 1007.11 34.6723C1000.83 34.6723 995.753 31.1219 995.753 26.7601V26.2529C995.753 21.8911 990.681 18.3408 984.392 18.3408C978.103 18.3408 973.031 21.8911 973.031 26.2529V26.7601C973.031 31.1219 967.959 34.6723 961.67 34.6723C955.381 34.6723 950.309 31.1219 950.309 26.7601V26.2529C950.309 21.8911 945.237 18.3408 938.948 18.3408C932.659 18.3408 927.587 21.8911 927.587 26.2529V26.7601C927.587 31.1219 922.515 34.6723 916.226 34.6723C909.937 34.6723 904.865 31.1219 904.865 26.7601V26.2529C904.865 21.8911 899.793 18.3408 893.504 18.3408C887.215 18.3408 882.143 21.8911 882.143 26.2529V26.7601C882.143 31.1219 877.071 34.6723 870.782 34.6723C864.493 34.6723 859.421 31.1219 859.421 26.7601V26.2529C859.421 21.8911 854.349 18.3408 848.06 18.3408C841.771 18.3408 836.699 21.8911 836.699 26.2529V26.7601C836.699 31.1219 831.627 34.6723 825.338 34.6723C819.049 34.6723 813.977 31.1219 813.977 26.7601V26.2529C813.977 21.8911 808.905 18.3408 802.616 18.3408C796.327 18.3408 791.255 21.8911 791.255 26.2529V26.7601C791.255 31.1219 786.183 34.6723 779.894 34.6723C773.605 34.6723 768.533 31.1219 768.533 26.7601V26.2529C768.533 21.8911 763.461 18.3408 757.172 18.3408C750.883 18.3408 745.811 21.8911 745.811 26.2529V26.7601C745.811 31.1219 740.739 34.6723 734.45 34.6723C728.161 34.6723 723.089 31.1219 723.089 26.7601V26.2529C723.089 21.8911 718.017 18.3408 711.728 18.3408C705.439 18.3408 700.367 21.8911 700.367 26.2529V26.7601C700.367 31.1219 695.295 34.6723 689.006 34.6723C682.717 34.6723 677.645 31.1219 677.645 26.7601V26.2529C677.645 21.8911 672.573 18.3408 666.284 18.3408C659.995 18.3408 654.923 21.8911 654.923 26.2529V26.7601C654.923 31.1219 649.851 34.6723 643.562 34.6723C637.273 34.6723 632.201 31.1219 632.201 26.7601V26.2529C632.201 21.8911 627.129 18.3408 620.84 18.3408C614.551 18.3408 609.479 21.8911 609.479 26.2529V26.7601C609.479 31.1219 604.407 34.6723 598.118 34.6723C591.829 34.6723 586.757 31.1219 586.757 26.7601V26.2529C586.757 21.8911 581.685 18.3408 575.396 18.3408C569.107 18.3408 564.035 21.8911 564.035 26.2529V26.7601C564.035 31.1219 558.963 34.6723 552.674 34.6723C546.385 34.6723 541.313 31.1219 541.313 26.7601V26.2529C541.313 21.8911 536.241 18.3408 529.952 18.3408C523.663 18.3408 518.591 21.8911 518.591 26.2529V26.7601C518.591 31.1219 513.519 34.6723 507.23 34.6723C500.94 34.6723 495.869 31.1219 495.869 26.7601V26.2529C495.869 21.8911 490.797 18.3408 484.508 18.3408C478.218 18.3408 473.147 21.8911 473.147 26.2529V26.7601C473.147 31.1219 468.075 34.6723 461.786 34.6723C455.496 34.6723 450.425 31.1219 450.425 26.7601V26.2529C450.425 21.8911 445.353 18.3408 439.064 18.3408C432.774 18.3408 427.702 21.8911 427.702 26.2529V26.7601C427.702 31.1219 422.631 34.6723 416.341 34.6723C410.052 34.6723 404.98 31.1219 404.98 26.7601V26.2529C404.98 21.8911 399.909 18.3408 393.619 18.3408C387.33 18.3408 382.258 21.8911 382.258 26.2529V26.7601C382.258 31.1219 377.187 34.6723 370.897 34.6723C364.608 34.6723 359.536 31.1219 359.536 26.7601V26.2529C359.536 21.8911 354.465 18.3408 348.175 18.3408C341.886 18.3408 336.814 21.8911 336.814 26.2529V26.7601C336.814 31.1219 331.742 34.6723 325.453 34.6723C319.164 34.6723 314.092 31.1219 314.092 26.7601V26.2529C314.092 21.8911 309.02 18.3408 302.731 18.3408C296.442 18.3408 291.37 21.8911 291.37 26.2529V26.7601C291.37 31.1219 286.298 34.6723 280.009 34.6723C273.72 34.6723 268.648 31.1219 268.648 26.7601V26.2529C268.648 21.8911 263.576 18.3408 257.287 18.3408C250.998 18.3408 245.926 21.8911 245.926 26.2529V26.7601C245.926 31.1219 240.854 34.6723 234.565 34.6723C228.276 34.6723 223.204 31.1219 223.204 26.7601V26.2529C223.204 21.8911 218.132 18.3408 211.843 18.3408C205.554 18.3408 200.482 21.8911 200.482 26.2529V26.7601C200.482 31.1219 195.41 34.6723 189.121 34.6723C182.832 34.6723 177.76 31.1219 177.76 26.7601V26.2529C177.76 21.8911 172.688 18.3408 166.399 18.3408C160.11 18.3408 148.85 21.8911 148.85 26.2529V26.7601C148.85 31.1219 143.779 34.6723 137.489 34.6723C131.2 34.6723 126.128 31.1219 126.128 26.7601V26.2529C126.128 21.8911 121.057 18.3408 114.767 18.3408C108.478 18.3408 103.203 21.8911 103.203 26.2529V26.7601C103.203 31.1219 98.1316 34.6723 91.8425 34.6723C85.5533 34.6723 80.4814 31.1219 80.4814 26.7601" stroke="#FC766A" stroke-width="1.71021" stroke-miterlimit="10"/>
</g>
</g>
<path d="M678.578 -61.6999C654.464 -54.7393 629.495 -70.593 612.958 -89.4738C596.42 -108.355 583.935 -131.254 563.703 -146.116C520.726 -177.652 452.608 -157.66 426.698 -111.074C400.788 -64.4705 414.744 -1.99635 452.471 35.6797C490.181 73.3557 546.96 87.8583 599.977 82.2659C646.563 77.3576 692.243 57.4336 724.104 23.1096C755.966 -11.2144 772.623 -60.4173 763.542 -106.371C758.223 -133.289 729.526 -168.366 716.169 -133.837C705.822 -107.003 716.101 -72.5256 678.578 -61.6999Z" fill="#FC766A"/>
<path d="M981.526 174.412C892.013 174.412 819.192 101.591 819.192 12.0786C819.192 -77.434 892.013 -150.255 981.526 -150.255C1071.04 -150.255 1143.86 -77.434 1143.86 12.0786C1143.84 101.591 1071.02 174.412 981.526 174.412ZM981.526 -144.799C895.023 -144.799 824.648 -74.424 824.648 12.0786C824.648 98.5812 895.023 168.957 981.526 168.957C1068.03 168.957 1138.4 98.5812 1138.4 12.0786C1138.4 -74.424 1068.03 -144.799 981.526 -144.799Z" fill="white"/>
<path d="M981.526 156.677C901.796 156.677 836.927 91.809 836.927 12.0788C836.927 -67.6514 901.796 -132.52 981.526 -132.52C1061.26 -132.52 1126.12 -67.6514 1126.12 12.0788C1126.11 91.809 1061.24 156.677 981.526 156.677ZM981.526 -127.064C904.806 -127.064 842.383 -64.6414 842.383 12.0788C842.383 88.799 904.806 151.222 981.526 151.222C1058.25 151.222 1120.67 88.799 1120.67 12.0788C1120.67 -64.6414 1058.25 -127.064 981.526 -127.064Z" fill="white"/>
<path d="M981.526 138.942C911.578 138.942 854.662 82.0262 854.662 12.0785C854.662 -57.8692 911.578 -114.785 981.526 -114.785C1051.47 -114.785 1108.39 -57.8692 1108.39 12.0785C1108.37 82.0262 1051.47 138.942 981.526 138.942ZM981.526 -109.33C914.571 -109.33 860.118 -54.8593 860.118 12.0785C860.118 79.0334 914.588 133.487 981.526 133.487C1048.46 133.487 1102.93 79.0163 1102.93 12.0785C1102.93 -54.8593 1048.46 -109.33 981.526 -109.33Z" fill="white"/>
<path d="M981.526 121.208C921.36 121.208 872.397 72.2612 872.397 12.0788C872.397 -48.0865 921.343 -97.0499 981.526 -97.0499C1041.69 -97.0499 1090.65 -48.1036 1090.65 12.0788C1090.64 72.2612 1041.69 121.208 981.526 121.208ZM981.526 -91.5943C924.353 -91.5943 877.853 -45.0765 877.853 12.0788C877.853 69.2513 924.37 115.752 981.526 115.752C1038.68 115.752 1085.2 69.2341 1085.2 12.0788C1085.2 -45.0765 1038.68 -91.5943 981.526 -91.5943Z" fill="white"/>
<path d="M981.526 103.472C931.126 103.472 890.132 62.4785 890.132 12.0785C890.132 -38.3215 931.126 -79.3153 981.526 -79.3153C1031.93 -79.3153 1072.92 -38.3215 1072.92 12.0785C1072.9 62.4785 1031.91 103.472 981.526 103.472ZM981.526 -73.8597C934.136 -73.8597 895.588 -35.3115 895.588 12.0785C895.588 59.4685 934.136 98.0339 981.526 98.0339C1028.92 98.0339 1067.46 59.4856 1067.46 12.0785C1067.46 -35.3115 1028.92 -73.8597 981.526 -73.8597Z" fill="white"/>
<path d="M981.526 85.7375C940.908 85.7375 907.867 52.6962 907.867 12.0786C907.867 -28.539 940.908 -61.5803 981.526 -61.5803C1022.14 -61.5803 1055.18 -28.539 1055.18 12.0786C1055.18 52.6962 1022.13 85.7375 981.526 85.7375ZM981.526 -56.1247C943.918 -56.1247 913.306 -25.529 913.306 12.0957C913.306 49.7033 943.901 80.3161 981.526 80.3161C1019.15 80.3161 1049.75 49.7204 1049.75 12.0957C1049.73 -25.529 1019.13 -56.1247 981.526 -56.1247Z" fill="white"/>
<path d="M1367.4 40.6513C1370 42.447 1372.7 44.3283 1375.24 46.0727C1376.72 47.0818 1378.09 48.0053 1379.15 48.7064C1379.65 49.1682 1380.42 49.6813 1380.96 50.1088C1380.67 49.8523 1380.83 49.8694 1381.07 50.0404C1382.79 51.2718 1381.22 50.0575 1383.02 51.2547C1384.01 51.8874 1386.27 53.4779 1388.54 55.1026C1391.76 57.4114 1395.01 59.7373 1396.54 60.849C1396.65 60.4898 1396.72 60.2675 1396.77 60.0794C1396.99 58.9335 1397.28 57.8048 1397.59 56.676C1397.74 56.1117 1397.88 55.5473 1398.03 55C1398.08 54.7777 1398.14 54.5554 1398.19 54.3502C1398.22 54.1962 1398.24 54.0594 1398.27 53.9055V54.0252C1398.53 52.811 1400.48 46.0385 1400.8 44.6361L1400.73 44.8242C1400.97 43.5758 1401.08 43.7981 1401.38 42.8404C1401.18 42.9259 1401.37 41.8485 1401.47 41.4551L1401.5 41.4722C1401.64 40.8566 1401.86 39.4713 1402.1 38.4623L1402.19 38.5307C1402.31 37.6756 1402.77 36.1364 1402.91 35.5378C1403.3 34.1867 1404.02 32.1345 1404.38 30.2874L1404.94 29.1758L1404.96 29.0048L1405.54 24.9003C1405.66 23.9597 1401.76 26.1316 1401.71 26.029C1401.98 25.9093 1402.27 25.8067 1402.36 25.7896C1402.27 25.7725 1401.71 25.9777 1401.42 26.1316V26.2684C1400.77 26.5934 1401.23 26.2684 1400.58 26.5421C1400.51 26.4565 1401.09 26.1829 1401.62 25.9435C1401.15 26.1316 1400.63 26.2684 1400.48 26.4566C1400.02 26.6105 1400.48 26.3198 1399.91 26.5079C1399.54 26.696 1399.08 27.0038 1398.6 27.1406V27.1236C1397.47 27.4827 1397.01 27.9786 1395.98 28.2865L1396.07 28.201C1395.69 28.2865 1395.04 28.6627 1394.39 28.868C1394.58 28.8166 1394.77 28.8167 1394.39 28.9877C1393.64 29.2271 1393.18 29.5007 1392.61 29.6547L1392.15 29.9625C1389.62 31.0057 1379.72 35.3497 1377.2 36.4442L1377.29 36.3929C1374.81 37.4874 1371.25 39.0095 1367.4 40.6513Z" fill="white"/>
<path d="M1359.84 8.97822C1362.43 7.14829 1365.11 5.23285 1367.61 3.47133C1369.06 2.4281 1370.4 1.45327 1371.42 0.683674C1372.02 0.375835 1372.77 -0.171436 1373.35 -0.547682C1373.01 -0.35956 1373.08 -0.496376 1373.34 -0.667397C1375.08 -1.88165 1373.41 -0.804205 1375.15 -2.08686C1376.09 -2.80515 1378.35 -4.39565 1380.66 -5.98615C1383.92 -8.22653 1387.22 -10.484 1388.78 -11.5615C1388.47 -11.7838 1388.28 -11.9035 1388.13 -12.0232C1387.14 -12.6218 1386.16 -13.2717 1385.21 -13.9558C1384.73 -14.2807 1384.25 -14.6227 1383.77 -14.9306C1383.58 -15.0503 1383.39 -15.1871 1383.21 -15.3068C1383.07 -15.3923 1382.95 -15.4607 1382.81 -15.5463L1382.93 -15.5121C1381.87 -16.179 1376.18 -20.3006 1374.96 -21.0873L1375.12 -20.9505C1374.02 -21.6004 1374.26 -21.6346 1373.47 -22.2332C1373.49 -22.028 1372.55 -22.5581 1372.19 -22.7805L1372.23 -22.7976C1371.7 -23.1225 1370.46 -23.8066 1369.61 -24.3709L1369.69 -24.4223C1368.94 -24.8327 1367.64 -25.7733 1367.13 -26.1154C1366 -26.9534 1364.31 -28.3216 1362.7 -29.2964L1361.86 -30.2028L1361.71 -30.2883L1358.05 -32.2208C1357.21 -32.6484 1357.93 -28.2531 1357.81 -28.236C1357.79 -28.5439 1357.79 -28.8346 1357.79 -28.9372C1357.74 -28.8517 1357.74 -28.2531 1357.79 -27.9453L1357.93 -27.894C1358.01 -27.1586 1357.86 -27.723 1357.91 -27.0047C1357.81 -26.9534 1357.76 -27.6204 1357.71 -28.2018C1357.72 -27.6888 1357.67 -27.1586 1357.79 -26.9534C1357.77 -26.4574 1357.65 -27.0047 1357.64 -26.4061C1357.69 -25.9957 1357.83 -25.4484 1357.79 -24.9524H1357.77C1357.72 -23.7724 1358.03 -23.1738 1357.98 -22.0964L1357.95 -22.2161C1357.91 -21.8398 1358.03 -21.0873 1358 -20.4033C1358.01 -20.6085 1358.08 -20.7795 1358.12 -20.3691C1358.1 -19.5824 1358.18 -19.0522 1358.13 -18.4707L1358.27 -17.9234C1358.39 -15.1871 1359.11 -4.39565 1359.28 -1.65931L1359.26 -1.76193C1359.38 0.940205 1359.6 4.8053 1359.84 8.97822Z" fill="white"/>
<path d="M1411.05 6.41274C1414.13 7.09682 1417.36 7.79801 1420.35 8.46499C1422.11 8.84124 1423.72 9.16617 1424.97 9.42271C1425.6 9.66214 1426.51 9.85026 1427.17 10.0384C1426.8 9.90157 1426.95 9.86737 1427.24 9.93578C1429.31 10.4146 1427.4 9.90157 1429.5 10.3291C1430.66 10.5514 1433.35 11.15 1436.08 11.7999C1439.93 12.7063 1443.83 13.6469 1445.68 14.0745C1445.64 13.6982 1445.61 13.4759 1445.59 13.2878C1445.37 12.1419 1445.2 10.9961 1445.06 9.83317C1444.98 9.25169 1444.91 8.6702 1444.84 8.10583C1444.81 7.88351 1444.77 7.66118 1444.74 7.43885C1444.7 7.28493 1444.69 7.14812 1444.65 6.99421L1444.7 7.11393C1444.48 5.88258 1443.73 -1.11221 1443.47 -2.53168V-2.32645C1443.22 -3.55781 1443.4 -3.42099 1443.34 -4.41292C1443.18 -4.259 1442.94 -5.31934 1442.89 -5.72979L1442.93 -5.71268C1442.82 -6.32836 1442.48 -7.69654 1442.33 -8.72266L1442.43 -8.68845C1442.22 -9.52646 1442.05 -11.117 1441.97 -11.7326C1441.83 -13.135 1441.71 -15.307 1441.34 -17.154L1441.44 -18.3854L1441.39 -18.5564L1440.36 -22.5583C1440.12 -23.4647 1437.33 -19.9759 1437.25 -20.0614C1437.47 -20.2837 1437.68 -20.4889 1437.76 -20.5402C1437.66 -20.5231 1437.23 -20.1127 1437.03 -19.8733L1437.08 -19.7364C1436.6 -19.1892 1436.91 -19.668 1436.41 -19.155C1436.31 -19.2063 1436.75 -19.6851 1437.16 -20.0956C1436.79 -19.7364 1436.36 -19.4286 1436.29 -19.1892C1435.91 -18.8642 1436.24 -19.326 1435.79 -18.9326C1435.52 -18.6077 1435.21 -18.1459 1434.82 -17.8552V-17.8723C1433.91 -17.1198 1433.67 -16.487 1432.84 -15.8029L1432.89 -15.9056C1432.58 -15.6832 1432.1 -15.0847 1431.59 -14.6571C1431.74 -14.7768 1431.91 -14.8452 1431.64 -14.5374C1431.04 -14.0243 1430.71 -13.5968 1430.24 -13.2547L1429.93 -12.793C1427.98 -10.8604 1420.47 -3.09606 1418.54 -1.12931L1418.61 -1.21483C1416.69 0.666409 1413.97 3.43697 1411.05 6.41274Z" fill="white"/>
<path d="M1322.22 42.2419C1320.53 39.5739 1318.75 36.7863 1317.11 34.2039C1316.13 32.6989 1315.22 31.3136 1314.51 30.2533C1314.23 29.6376 1313.72 28.868 1313.38 28.2523C1313.55 28.6114 1313.41 28.5259 1313.26 28.2694C1312.13 26.4566 1313.12 28.1839 1311.94 26.3882C1311.27 25.4133 1309.8 23.0875 1308.33 20.6932C1306.26 17.324 1304.16 13.9207 1303.17 12.296C1302.93 12.5868 1302.79 12.7578 1302.67 12.9117C1302.02 13.8865 1301.32 14.81 1300.6 15.7335C1300.24 16.1953 1299.9 16.6571 1299.54 17.1188C1299.4 17.3069 1299.27 17.478 1299.15 17.649C1299.06 17.7687 1298.98 17.9055 1298.89 18.0252L1298.94 17.9055C1298.22 18.9316 1293.81 24.4214 1292.97 25.5844L1293.11 25.4475C1292.41 26.5079 1292.39 26.2685 1291.74 27.021C1291.95 27.021 1291.37 27.9274 1291.13 28.2694L1291.11 28.2352C1290.75 28.7483 1290.02 29.9454 1289.4 30.7663L1289.35 30.6808C1288.9 31.4162 1287.9 32.6647 1287.52 33.1606C1286.63 34.2552 1285.18 35.8628 1284.13 37.4362L1283.17 38.24L1283.09 38.3939L1280.97 41.9511C1280.49 42.772 1284.94 42.2761 1284.94 42.3787C1284.63 42.3787 1284.32 42.3787 1284.24 42.3616C1284.3 42.4129 1284.9 42.4471 1285.23 42.4129L1285.28 42.2761C1286.01 42.2248 1285.45 42.3616 1286.17 42.3445C1286.2 42.4471 1285.55 42.4813 1284.97 42.4813C1285.48 42.4813 1286.01 42.5668 1286.22 42.4471C1286.72 42.4813 1286.17 42.5839 1286.75 42.6181C1287.16 42.5839 1287.72 42.4813 1288.2 42.5497L1288.19 42.5668C1289.37 42.6694 1289.98 42.3958 1291.06 42.4984L1290.94 42.5326C1291.32 42.601 1292.07 42.5155 1292.75 42.5668C1292.56 42.5497 1292.39 42.4642 1292.8 42.4471C1293.59 42.5155 1294.12 42.4471 1294.7 42.5155L1295.25 42.4129C1297.99 42.43 1308.79 42.259 1311.55 42.2248L1311.44 42.2419C1314.16 42.2932 1318.05 42.2761 1322.22 42.2419Z" fill="white"/>
</g>
<defs>
<clipPath id="clip0_157_2409">
<rect width="1440" height="767.886" fill="white" transform="translate(0 0.243896)"/>
</clipPath>
</defs>
</svg>
