<svg width="22" height="23" viewBox="0 0 22 23" fill="none" xmlns="http://www.w3.org/2000/svg">
<path d="M12.1602 7.15234C11.9023 6.89453 11.4297 6.89453 11.1719 7.15234C10.9141 7.41016 10.9141 7.88281 11.1719 8.14062L14.1367 11.0625H6.1875C5.80078 11.0625 5.5 11.4062 5.5 11.75C5.5 12.1367 5.80078 12.4375 6.1875 12.4375H14.1367L11.1719 15.4023C10.9141 15.6602 10.9141 16.1328 11.1719 16.3906C11.4297 16.6484 11.9023 16.6484 12.1602 16.3906L16.2852 12.2656C16.4141 12.1367 16.5 11.9648 16.5 11.75C16.5 11.5781 16.4141 11.4062 16.2852 11.2773L12.1602 7.15234ZM11 0.75C4.89844 0.75 0 5.69141 0 11.75C0 17.8516 4.89844 22.75 11 22.75C17.0586 22.75 22 17.8516 22 11.75C22 5.69141 17.0586 0.75 11 0.75ZM11 21.375C5.67188 21.375 1.375 17.0781 1.375 11.75C1.375 6.46484 5.67188 2.125 11 2.125C16.2852 2.125 20.625 6.46484 20.625 11.75C20.625 17.0781 16.2852 21.375 11 21.375Z" fill="#FC766A"/>
</svg>
