<svg id="Layer_1" data-name="Layer 1" xmlns="http://www.w3.org/2000/svg" viewBox="0 0 200 169"><title>Artboard 1</title><path d="M7,167.12a3,3,0,0,1-2.36,1.38,6.3,6.3,0,0,1-.75.05,4.22,4.22,0,0,1-2.82-.9,4.4,4.4,0,0,1-.6-.62l1.43-.89c.1.11.21.21.32.31a3,3,0,0,0,1.84.63,2.25,2.25,0,0,0,.58-.07c.06,0,.8-.23.8-.8s-1-.71-1.67-.81a7.59,7.59,0,0,1-1.06-.19,2.51,2.51,0,0,1-1.41-.78,2,2,0,0,1-.32-.55,2.44,2.44,0,0,1-.09-.66,4.51,4.51,0,0,1,0-.52,2.16,2.16,0,0,1,.65-1.2,3.31,3.31,0,0,1,2.33-.79,4.35,4.35,0,0,1,2.47.75,5.94,5.94,0,0,1,.83.67l-1.38,1a2.83,2.83,0,0,0-1.26-.81,3.29,3.29,0,0,0-.7-.11c-.76,0-1.11.45-1.11.8a.55.55,0,0,0,.16.39c.25.27.66.26,1.36.37.43.06.84.15,1.26.24a2.13,2.13,0,0,1,1.61,1.16,2.24,2.24,0,0,1,.15.81A2.36,2.36,0,0,1,7,167.12Z" style="fill:#1d1d1b"/><path d="M15.91,167.82a3.52,3.52,0,0,1-2.35.79,3.73,3.73,0,0,1-2.66-1.07,4.53,4.53,0,0,1-.36-5.35,3.42,3.42,0,0,1,3-1.53,3.69,3.69,0,0,1,2.68,1,4.49,4.49,0,0,1,1.12,3A4.12,4.12,0,0,1,15.91,167.82ZM15,162.93a1.72,1.72,0,0,0-.72-.56,2,2,0,0,0-.73-.14,1.71,1.71,0,0,0-.83.21,2.4,2.4,0,0,0-1,2.15,2.63,2.63,0,0,0,.62,1.9,1.7,1.7,0,0,0,1.27.54,1.81,1.81,0,0,0,1.29-.57,2.47,2.47,0,0,0,.59-1.64A3.07,3.07,0,0,0,15,162.93Z" style="fill:#1d1d1b"/><path d="M20.21,168.39v-7.5h1.87v5.91H25v1.59Z" style="fill:#1d1d1b"/><path d="M27.65,168.39v-7.5h1.86v7.5Z" style="fill:#1d1d1b"/><path d="M38.51,167.29a3.28,3.28,0,0,1-1.71,1,4.84,4.84,0,0,1-1.2.12H32.66v-7.5h3.07a4.24,4.24,0,0,1,2.48.8,2.6,2.6,0,0,1,.6.68,3.92,3.92,0,0,1,.56,2.19A4,4,0,0,1,38.51,167.29Zm-1.44-4.2a1.57,1.57,0,0,0-.73-.51,3.37,3.37,0,0,0-1-.1h-.76v4.4h.58a2.8,2.8,0,0,0,1.67-.39,2.18,2.18,0,0,0,.69-1.85A2.34,2.34,0,0,0,37.07,163.09Z" style="fill:#1d1d1b"/><path d="M46.87,168.39l-.37-1.2H43.74l-.37,1.2h-2l2.77-7.5h2l2.75,7.5Zm-1.77-5.71-.92,3.16h1.89Z" style="fill:#1d1d1b"/><path d="M51.31,168.39v-7.5h1.86v7.5Z" style="fill:#1d1d1b"/><path d="M60.87,168.39l-1.49-2.68H58.21v2.68H56.32v-7.5h4a2.44,2.44,0,0,1,2.11,1.16,2.75,2.75,0,0,1,.3,1.26,2,2,0,0,1-.58,1.52,1.87,1.87,0,0,1-.35.28,4.66,4.66,0,0,1-.61.26l1.73,3Zm-1.08-6.1H58.2v2h1.55a1.68,1.68,0,0,0,.5-.07.94.94,0,0,0,.62-1C60.87,162.31,60.12,162.29,59.79,162.29Z" style="fill:#1d1d1b"/><path d="M65.54,168.39v-7.5h5.54v1.45H67.41v1.37h3.43v1.42H67.41v1.78h4v1.48Z" style="fill:#1d1d1b"/><path d="M80,167.12a3,3,0,0,1-2.35,1.38,6.3,6.3,0,0,1-.75.05,4.25,4.25,0,0,1-2.83-.9,4.93,4.93,0,0,1-.59-.62l1.42-.89a2.42,2.42,0,0,0,.33.31,3,3,0,0,0,1.83.63,2.32,2.32,0,0,0,.59-.07s.79-.23.79-.8-1-.71-1.66-.81a7.59,7.59,0,0,1-1.06-.19,2.51,2.51,0,0,1-1.41-.78,1.69,1.69,0,0,1-.32-.55,2.45,2.45,0,0,1-.1-.66,3.05,3.05,0,0,1,0-.52,2,2,0,0,1,.64-1.2,3.33,3.33,0,0,1,2.34-.79,4.43,4.43,0,0,1,2.47.75,7.6,7.6,0,0,1,.83.67l-1.38,1a2.81,2.81,0,0,0-1.27-.81,2.76,2.76,0,0,0-.7-.11c-.76,0-1.11.45-1.11.8a.55.55,0,0,0,.16.39c.25.27.67.26,1.37.37.42.06.84.15,1.25.24a2.13,2.13,0,0,1,1.61,1.16,2.24,2.24,0,0,1,.15.81A2.39,2.39,0,0,1,80,167.12Z" style="fill:#1d1d1b"/><path d="M93.34,168.39a2,2,0,0,1-.87-.16,2,2,0,0,1-.43-.34l-.45.24a4.14,4.14,0,0,1-1.55.33,2.92,2.92,0,0,1-1.69-.51,2.22,2.22,0,0,1-.88-1.81,2.38,2.38,0,0,1,1-1.91,4.44,4.44,0,0,1,.83-.45,2.72,2.72,0,0,1-.49-1.28,1.65,1.65,0,0,1,.09-.54,2,2,0,0,1,3.46-.26,1.65,1.65,0,0,1,.2.78,1.67,1.67,0,0,1-.69,1.33,4.43,4.43,0,0,1-.46.29l-.25.12c.2.3.39.61.6.9l.41.57a4,4,0,0,0,.38-1.1l1.32.49a6.79,6.79,0,0,1-.8,1.78l.08.1a1.23,1.23,0,0,0,1,.23v1.2ZM90,164.87l-.26.17a1.3,1.3,0,0,0-.61,1,1.13,1.13,0,0,0,.05.32,1.09,1.09,0,0,0,1.06.8,2.12,2.12,0,0,0,1-.36Zm.74-2.88a.48.48,0,0,0-.53.41v0c0,.25.12.42.36.81a1.34,1.34,0,0,0,.59-.49.57.57,0,0,0,.1-.31.47.47,0,0,0-.47-.45h-.05Z" style="fill:#1d1d1b"/><path d="M107.64,164.86a3.1,3.1,0,0,1-2.84,1.08h-1.25v2.45h-1.88v-7.5h3.71a2.78,2.78,0,0,1,2,.59,1.65,1.65,0,0,1,.33.37,2.85,2.85,0,0,1,.42,1.53A2.62,2.62,0,0,1,107.64,164.86ZM106,162.69a1.45,1.45,0,0,0-1.28-.41h-1.2v2.26h1.13a3.42,3.42,0,0,0,.64,0,1,1,0,0,0,.92-1.08s0,0,0-.06A1.06,1.06,0,0,0,106,162.69Z" style="fill:#1d1d1b"/><path d="M110.68,168.39v-7.5h5.54v1.45h-3.68v1.37H116v1.42h-3.43v1.78h4v1.48Z" style="fill:#1d1d1b"/><path d="M123.77,168.39l-1.5-2.68h-1.16v2.68h-1.89v-7.5h4a2.44,2.44,0,0,1,2.11,1.16,2.75,2.75,0,0,1,.3,1.26,2,2,0,0,1-.59,1.52,1.6,1.6,0,0,1-.35.28,4,4,0,0,1-.6.26l1.73,3Zm-1.08-6.1H121.1v2h1.55a1.61,1.61,0,0,0,.49-.07.94.94,0,0,0,.63-1C123.77,162.31,123,162.29,122.69,162.29Z" style="fill:#1d1d1b"/><path d="M130.29,162.33v1.58h3.58v1.44h-3.58v3h-1.86v-7.5h5.75v1.44Z" style="fill:#1d1d1b"/><path d="M142.57,167.82a3.53,3.53,0,0,1-2.36.79,3.71,3.71,0,0,1-2.65-1.07,4.52,4.52,0,0,1-.36-5.35,3.42,3.42,0,0,1,3-1.53,3.69,3.69,0,0,1,2.68,1,4.49,4.49,0,0,1,1.12,3A4.12,4.12,0,0,1,142.57,167.82Zm-.93-4.89a1.75,1.75,0,0,0-.73-.56,2,2,0,0,0-.72-.14,1.71,1.71,0,0,0-.83.21,2.4,2.4,0,0,0-1,2.15,2.63,2.63,0,0,0,.62,1.9,1.7,1.7,0,0,0,1.27.54,1.81,1.81,0,0,0,1.29-.57,2.47,2.47,0,0,0,.59-1.64,3.07,3.07,0,0,0-.49-1.89Z" style="fill:#1d1d1b"/><path d="M151.41,168.39l-1.5-2.68h-1.16v2.68h-1.89v-7.5h4a2.44,2.44,0,0,1,2.11,1.16,2.75,2.75,0,0,1,.3,1.26,2,2,0,0,1-.59,1.52,1.6,1.6,0,0,1-.35.28,4,4,0,0,1-.6.26l1.73,3Zm-1.08-6.1h-1.6v2h1.55a1.68,1.68,0,0,0,.5-.07.94.94,0,0,0,.63-1,.92.92,0,0,0-.9-.94A.55.55,0,0,0,150.33,162.29Z" style="fill:#1d1d1b"/><path d="M162.55,168.39l.15-6-1.67,6h-1.62l-1.66-6,.15,6h-1.82v-7.5h2.73l1.41,5.25,1.39-5.25h2.74v7.5Z" style="fill:#1d1d1b"/><path d="M172.27,168.39l-.37-1.2h-2.76l-.37,1.2h-2l2.78-7.5h1.95l2.76,7.5Zm-1.77-5.71-.93,3.16h1.9Z" style="fill:#1d1d1b"/><path d="M181.16,168.39l-2.72-4.64.07,4.64H176.7v-7.5h1.84l2.73,4.7-.07-4.7H183v7.5Z" style="fill:#1d1d1b"/><path d="M189.34,162.37v6h-1.89v-6H185.5v-1.48h5.78v1.48Z" style="fill:#1d1d1b"/><path d="M199.7,167.12a3,3,0,0,1-2.35,1.38,6.47,6.47,0,0,1-.76.05,4.22,4.22,0,0,1-2.82-.9,4.93,4.93,0,0,1-.59-.62l1.42-.89a2.42,2.42,0,0,0,.33.31,3,3,0,0,0,1.83.63,2.32,2.32,0,0,0,.59-.07c.05,0,.79-.23.79-.8s-1-.71-1.66-.81a7.59,7.59,0,0,1-1.06-.19,2.51,2.51,0,0,1-1.41-.78,1.69,1.69,0,0,1-.32-.55,2.45,2.45,0,0,1-.1-.66,4.51,4.51,0,0,1,0-.52,2,2,0,0,1,.64-1.2,3.33,3.33,0,0,1,2.34-.79,4.43,4.43,0,0,1,2.47.75,7.6,7.6,0,0,1,.83.67l-1.38,1a2.81,2.81,0,0,0-1.27-.81,2.76,2.76,0,0,0-.7-.11c-.76,0-1.11.45-1.11.8a.55.55,0,0,0,.16.39c.25.27.67.26,1.37.37.42.06.84.15,1.25.24a2.13,2.13,0,0,1,1.61,1.16,2.24,2.24,0,0,1,.15.81A2.37,2.37,0,0,1,199.7,167.12Z" style="fill:#1d1d1b"/><path d="M57.33,50.33,56,52.27,48.23,47l2.63-3.87a3.46,3.46,0,0,1,2-1.6,2.28,2.28,0,0,1,.63-.09,3.69,3.69,0,0,1,1.87.65,3.28,3.28,0,0,1,1.22,1.51c.54,1.43-.14,2.58-.9,3.7l-.89,1.29Z" style="fill:#fff"/><path d="M67.84,38.55,66,40.31l-3.66-1.17-1.07,1,2.29,2.45L61.83,44.2l-6.4-6.86,3.09-2.88c.19-.19.39-.37.59-.54A3.07,3.07,0,0,1,62,33.19a3.36,3.36,0,0,1,1.34.89,2.46,2.46,0,0,1,.77,1.9,2.52,2.52,0,0,1-.08.55,5.63,5.63,0,0,1-.33.76Z" style="fill:#fff"/><path d="M75.08,28.91a5.2,5.2,0,0,1,.38,4.29,4.39,4.39,0,0,1-2.08,2.31,4.59,4.59,0,0,1-3.55.47,5.42,5.42,0,0,1-3-2.53,5.58,5.58,0,0,1-.72-3.07,4.32,4.32,0,0,1,2.32-3.51A4.53,4.53,0,0,1,72,26.35,5.68,5.68,0,0,1,75.08,28.91Z" style="fill:#fff"/><path d="M86.29,25.28a5,5,0,0,1-.11,3.57,4,4,0,0,1-1.72,1.76,5.8,5.8,0,0,1-1.46.53l-3.54,1-2.55-9,2.87-.82.82-.22a5.45,5.45,0,0,1,3.27.13,3.2,3.2,0,0,1,1,.61A4.88,4.88,0,0,1,86.29,25.28Z" style="fill:#fff"/><path d="M125.68,66c3.49,0,8.41.86,8.41,11.73s-6.17,12-9.49,12a13.44,13.44,0,0,1-4.31-.77V97.5h-8.62v-31h7.2L120,68.13A9.88,9.88,0,0,1,125.68,66Z" style="fill:#fff"/><path d="M108,77.87c0,10.26-6.64,11.86-11.73,11.86S84.54,88.09,84.54,77.87c0-10,6.38-11.85,11.73-11.85C101.45,66,108,67.61,108,77.87Z" style="fill:#fff"/><path d="M169.83,74.77v0A73.93,73.93,0,1,1,95.91.85,73.93,73.93,0,0,1,169.83,74.79Zm-27.49-10.7a4.45,4.45,0,0,0,4.38-4.52v-.1a4.53,4.53,0,1,0-4.44,4.62ZM146.6,89.3l0-22.85H138V89.3Zm-8.88-49.93-1.56-1.61L132,41.94l1.82-6.57-1.61-1.64-6.71,6.54,1.57,1.62,4.11-4.11-1.79,6.49,1.6,1.64Zm-3.63,38.36c0-10.87-4.92-11.73-8.41-11.73A9.88,9.88,0,0,0,120,68.13l-1.13-1.63h-7.2v31h8.62V89a13.44,13.44,0,0,0,4.31.77C127.92,89.73,134.09,88.6,134.09,77.73ZM127.71,32.4l1-1.51-5.8-3.8L117.84,35,124,39l1-1.58-4.2-2.75L122,32.8l3.59,2.35,1-1.49L123,31.31l.87-1.43Zm-14.08-7.58.51-1.78-7-2-.5,1.78,2.35.66-2,7.25,2.28.64,2-7.21ZM96.27,89.73c5.09,0,11.73-1.6,11.73-11.86S101.45,66,96.27,66c-5.35,0-11.73,1.85-11.73,11.85C84.54,88.09,91.1,89.73,96.27,89.73Zm6.25-59.88,1.17-9.31-2.32-.29-1.17,9.31Zm-5.28-2.72a5.86,5.86,0,0,0,.17-2l-.24-5.23-2.35.1L95,25.78a1.75,1.75,0,0,1-.38,1.49,1.58,1.58,0,0,1-1.14.4,2,2,0,0,1-1.26-.3c-.39-.28-.51-.59-.51-1.43l-.26-5.84-2.32.12.23,5.23a4.14,4.14,0,0,0,1.08,3.18,4.49,4.49,0,0,0,3.09,1C94.1,29.61,96.56,29.35,97.24,27.13ZM86.18,28.85a5,5,0,0,0,.11-3.57,4.88,4.88,0,0,0-1.42-2.44,3.2,3.2,0,0,0-1-.61,5.45,5.45,0,0,0-3.27-.13l-.82.22-2.87.82,2.55,9,3.54-1a5.8,5.8,0,0,0,1.46-.53A4,4,0,0,0,86.18,28.85ZM83.68,88.7l0-5.65a25.29,25.29,0,0,1-3.67.6c-.77,0-1.51-.17-1.51-1.46V71.58h4l.74-5.13H78.51v-6.9L70.88,61.4l-1,5.05H66.43v5.13h3.43V82.7c0,6.18,3.94,7,8,7A18,18,0,0,0,83.68,88.7ZM75.46,33.2a5.2,5.2,0,0,0-.38-4.29A5.68,5.68,0,0,0,72,26.35a4.53,4.53,0,0,0-3.57.52,4.32,4.32,0,0,0-2.32,3.51,5.58,5.58,0,0,0,.72,3.07,5.42,5.42,0,0,0,3,2.53,4.59,4.59,0,0,0,3.55-.47A4.39,4.39,0,0,0,75.46,33.2ZM66,40.31l1.84-1.76L63.7,37.29a5.63,5.63,0,0,0,.33-.76,2.52,2.52,0,0,0,.08-.55,2.46,2.46,0,0,0-.77-1.9A3.36,3.36,0,0,0,62,33.19a3.07,3.07,0,0,0-2.89.73c-.2.17-.4.35-.59.54l-3.09,2.88,6.4,6.86,1.73-1.61-2.29-2.45,1.07-1Zm-2.37,49,0-22.85H55V82.22a11.09,11.09,0,0,1-3.06,1c-.86,0-1.68-.08-1.68-1.9V66.45H41.67V82.62c0,6,3.5,7.11,7.33,7.11a9.7,9.7,0,0,0,6.29-2.63l1,2.2ZM56,52.27l1.33-1.94-2.54-1.74.89-1.29c.76-1.12,1.44-2.27.9-3.7a3.28,3.28,0,0,0-1.22-1.51,3.69,3.69,0,0,0-1.87-.65,2.28,2.28,0,0,0-.63.09,3.46,3.46,0,0,0-2,1.6L48.23,47Z" style="fill:#1d1d1b"/><path d="M146.72,59.55a4.45,4.45,0,0,1-4.38,4.52h-.06a4.53,4.53,0,1,1,4.44-4.62Z" style="fill:#fff"/><polygon points="146.63 66.45 146.6 89.3 138 89.3 138 66.45 146.63 66.45" style="fill:#fff"/><polygon points="136.16 37.76 137.72 39.37 131 45.91 129.4 44.27 131.19 37.78 127.08 41.89 125.51 40.27 132.22 33.73 133.83 35.37 132.01 41.94 136.16 37.76" style="fill:#fff"/><polygon points="128.71 30.89 127.71 32.4 123.87 29.88 123 31.31 126.59 33.66 125.59 35.15 122 32.8 120.78 34.67 124.98 37.42 124 39 117.84 35 122.91 27.09 128.71 30.89" style="fill:#fff"/><polygon points="114.14 23.04 113.63 24.82 111.29 24.16 109.27 31.37 106.99 30.73 108.99 23.48 106.64 22.82 107.14 21.04 114.14 23.04" style="fill:#fff"/><rect x="97.25" y="23.88" width="9.38" height="2.34" transform="translate(64.38 123.08) rotate(-82.84)" style="fill:#fff"/><path d="M97.41,25.13a5.86,5.86,0,0,1-.17,2c-.68,2.22-3.14,2.48-3.67,2.5a4.49,4.49,0,0,1-3.09-1,4.14,4.14,0,0,1-1.08-3.18l-.23-5.23,2.32-.12.26,5.84c0,.84.12,1.15.51,1.43a2,2,0,0,0,1.26.3,1.58,1.58,0,0,0,1.14-.4A1.75,1.75,0,0,0,95,25.78L94.82,20l2.35-.1Z" style="fill:#fff"/><path d="M83.7,83.05l0,5.65a18,18,0,0,1-5.82,1c-4.06,0-8-.82-8-7V71.58H66.43V66.45h3.45l1-5.05,7.63-1.85v6.9h4.75l-.74,5.13h-4V82.19c0,1.29.74,1.46,1.51,1.46A25.29,25.29,0,0,0,83.7,83.05Z" style="fill:#fff"/><path d="M63.67,66.45l0,22.85H56.29l-1-2.2A9.7,9.7,0,0,1,49,89.73c-3.83,0-7.33-1.07-7.33-7.11V66.45H50.3V81.32c0,1.82.82,1.9,1.68,1.9a11.09,11.09,0,0,0,3.06-1V66.45Z" style="fill:#fff"/><path d="M96.27,71.49c-2.11,0-3.1,1.3-3.1,6.38s1.38,6.34,3.1,6.34,3.11-.73,3.11-6.34C99.38,72.53,98.47,71.49,96.27,71.49Z" style="fill:#1d1d1b"/><path d="M83,24.26a1.9,1.9,0,0,0-1-.36,4,4,0,0,0-1.28.22l-.91.26,1.5,5.3.7-.19a3.5,3.5,0,0,0,1.88-1A2.71,2.71,0,0,0,84,26,2.92,2.92,0,0,0,83,24.26Z" style="fill:#1d1d1b"/><path d="M59.79,35.65,58.33,37l1.75,1.86,1.41-1.32a2.09,2.09,0,0,0,.4-.49,1.16,1.16,0,0,0-.26-1.42A1.15,1.15,0,0,0,60,35.42.84.84,0,0,0,59.79,35.65Z" style="fill:#1d1d1b"/><path d="M123.09,71.88a6.87,6.87,0,0,0-2.8.82V83.83a12.6,12.6,0,0,0,2.29.3c1.59,0,2.89-.56,2.89-6.38C125.47,72.14,124.39,71.88,123.09,71.88Z" style="fill:#1d1d1b"/><path d="M54,44a1.37,1.37,0,0,0-.85-.27c-.64,0-1,.58-1.33,1L51,46l2.35,1.6.8-1.17a4.29,4.29,0,0,0,.42-.68A1.26,1.26,0,0,0,54.08,44Z" style="fill:#1d1d1b"/><path d="M70.69,34a2.14,2.14,0,0,0,1.71-.19,2.29,2.29,0,0,0,1.06-1.41,3.13,3.13,0,0,0-.37-2.16,3.84,3.84,0,0,0-1.69-1.76,2.19,2.19,0,0,0-1.13-.17,2.26,2.26,0,0,0-.87.3,2.08,2.08,0,0,0-.78.75,3,3,0,0,0,.21,3A3.27,3.27,0,0,0,70.69,34Z" style="fill:#1d1d1b"/></svg>