<?xml version="1.0" encoding="UTF-8"?>
<svg width="140px" height="63px" viewBox="0 0 140 63" version="1.1" xmlns="http://www.w3.org/2000/svg" xmlns:xlink="http://www.w3.org/1999/xlink">
    <title>B23A5AB1-5012-4DA6-AB51-AF4753733DDC</title>
    <g id="Page-1" stroke="none" stroke-width="1" fill="none" fill-rule="evenodd">
        <g id="01---HOMEPAGE" transform="translate(-69.000000, -22.000000)">
            <g id="MENU" transform="translate(0.000000, 22.000000)">
                <g id="LOGO" transform="translate(69.000219, 0.507326)">
                    <path d="M129.241214,34.2685245 L129.241214,45.5713824 C129.241214,46.8614612 129.441589,47.7886375 129.854375,48.4086866 C129.909602,48.4919876 129.96837,48.568045 130.029969,48.6390319 C130.50223,49.1786775 131.20602,49.4307535 132.244005,49.4307535 C134.065787,49.4307535 135.438673,48.4028917 135.438673,47.0403773 L135.438673,47.0403773 L135.438673,34.2685245 L139.199773,34.2685245 L139.199773,55.5088285 C139.199773,59.9947679 136.919181,62.2685245 132.419598,62.2685245 L132.419598,62.2685245 L132.087528,62.2685245 L132.087528,58.6337021 L132.419598,58.6337021 C133.521306,58.6337021 134.30298,58.3577223 134.807811,57.7912756 C135.302022,57.2378673 135.542047,56.3976138 135.542047,55.2241564 L135.542047,55.2241564 L135.542047,52.3013781 C134.914017,52.6838383 133.786112,53.1199009 132.244005,53.1199009 C128.774617,53.1199009 126.563413,51.5169001 125.849711,48.4832953 C125.68403,47.7792208 125.599773,46.9918454 125.599773,46.143624 L125.599773,46.143624 L125.599773,34.2685245 L129.241214,34.2685245 Z M67.733378,27.0685249 L67.733378,34.4803118 C69.2460867,33.8319257 72.2032022,33.5262476 74.4391928,34.5841407 C75.8807237,35.2543092 77.5997762,36.7405874 77.5997762,40.0122872 L77.5997762,40.0122872 L77.5997762,52.6685234 L73.8676132,52.6685234 L73.8676132,40.9445692 C73.8676132,39.4365087 73.3916564,38.3967674 72.4526841,37.8543884 C71.0478206,37.0419091 68.8664716,37.536367 67.733378,38.1535319 L67.733378,38.1535319 L67.733378,52.6685234 L63.999777,52.6685234 L63.999777,27.0685249 L67.733378,27.0685249 Z M119.999774,27.0685249 L119.999774,52.6685234 L115.999774,52.6685234 L115.999774,27.0685249 L119.999774,27.0685249 Z M105.96648,34.2685245 L105.96648,35.4657723 C107.890641,34.5029101 109.773185,34.2663542 111.866595,34.7170402 L111.866595,34.7170402 L111.999774,34.7459768 L111.199312,38.4122317 L110.964167,38.3029964 C109.817578,37.7683945 108.329023,37.8964385 107.261509,38.6191277 C106.449254,39.1696447 106.001855,39.969739 106.001855,40.8747281 L106.001855,40.8747281 L106.001855,52.6685234 L102.399775,52.6685234 L102.399775,34.2685245 L105.96648,34.2685245 Z M89.4364464,33.4685245 C95.6173748,33.4685245 96.7997751,38.3052896 96.7997751,41.6509367 L96.7997751,41.6509367 L96.7997751,52.278952 L95.9221096,52.359553 C94.3407039,52.5073214 92.6065655,52.6685234 90.9235816,52.6685234 C88.3256624,52.6685234 85.847591,52.2831942 84.2362234,50.867021 C83.0172842,49.7965836 82.3997759,48.2107242 82.3997759,46.1539855 L82.3997759,46.1539855 L82.3997759,44.31996 C82.3997759,41.9167785 83.28548,40.2800133 85.0327725,39.4549139 C87.4516508,38.3010474 91.0090827,39.0278702 92.9734165,40.0622493 C92.7344518,38.426191 91.7508233,36.9096202 88.7882455,36.9096202 L88.7882455,36.9096202 L88.624551,36.9096202 Z M50.5976494,27.0685249 C52.9844976,27.0685249 54.3196749,27.4169681 55.6905639,28.0186323 L55.6905639,28.0186323 L54.8400443,31.6335546 L54.7110451,31.5827694 C53.2694617,31.0170781 52.0122669,30.7652679 50.633361,30.7652679 C48.885678,30.7652679 47.5774665,31.159559 46.8508444,31.9044093 C46.410644,32.3551284 46.2073064,32.9151769 46.246662,33.5683316 C46.3414071,35.1715938 48.5074263,36.0307109 51.0152567,37.0259608 C54.6614862,38.4733404 59.1997773,40.2741008 59.1997773,45.3180637 C59.1997773,49.920477 55.8895287,52.6685234 50.3454816,52.6685234 C46.2546789,52.6685234 41.943776,50.4043476 41.6194562,46.0763157 L41.6194562,46.0763157 L41.5997784,45.8118092 L45.6555983,45.8118092 L45.7044284,45.9987271 C46.1956454,47.8968258 47.9608199,49.0761722 50.30977,49.0761722 C53.2148011,49.0761722 55.0914832,47.7099079 55.0914832,45.5959718 C55.0914832,42.4740896 52.2090452,41.3793853 49.1567948,40.2197888 L49.1567948,40.2197888 L48.488137,39.9647785 C45.2960411,38.7361096 42.21052,37.3056937 42.21052,33.3383873 C42.21052,30.3187809 44.8349598,27.0685249 50.5976494,27.0685249 Z M88.4871646,42.5686565 C87.9449266,42.5686565 87.4501892,42.6584488 87.0599533,42.879748 C86.4767917,43.2085151 86.1932495,43.7946397 86.1932495,44.6692309 L86.1932495,44.6692309 L86.1932495,45.9100615 C86.1932495,46.9607022 86.5301386,47.7723681 87.1936858,48.3231414 C88.2745079,49.2182363 90.22788,49.4741798 93.0063016,49.0831944 L93.0063016,49.0831944 L93.0063016,43.8384753 C91.9824803,43.3053776 90.0386083,42.5686565 88.4871646,42.5686565 Z" id="Sharly" fill="#231F20"></path>
                    <path d="M38.0549159,23.7857422 C38.0585683,23.6603602 38.0702559,23.5363949 38.0702559,23.4103046 C38.0702559,23.3571766 38.0600292,23.3175077 38.0549159,23.2714635 L38.0549159,5.46792971 C31.3834719,5.53310001 25.6682219,8.77744747 23.1422334,13.4009968 C23.1415029,13.3988717 23.1407724,13.3974549 23.1407724,13.3953298 C23.0932915,13.4810429 23.04508,13.5731314 22.9968685,13.6630947 C22.9946771,13.6482189 22.9946771,13.631218 22.9924857,13.6163421 C22.7200178,12.5020717 22.5607739,11.3460073 22.5607739,10.1509823 C22.5607739,6.2287221 24.1291075,2.66914874 26.6740884,0 C20.0537778,1.05901735 16.5211923,5.22920807 15.071196,9.43410906 C15.0354026,9.53753149 15.0054531,9.64024555 14.9725816,9.74366798 C13.8352293,13.2926157 14.1522562,16.8068533 15.3341676,18.4332772 C13.2194374,15.8675509 12.9250553,12.9965159 13.2829889,10.5377539 C13.2939461,10.4640831 13.3034423,10.3889956 13.3151299,10.3167416 C13.8425341,7.0858532 15.4649229,4.62496607 15.4649229,4.62496607 C15.4649229,4.62496607 9.1017401,9.0997571 7.95050877,14.9084141 C7.94612591,14.9296653 7.94393448,14.9516249 7.93955162,14.9735844 C7.40849503,17.7504058 8.07395933,20.8289941 11.1982083,23.867205 L11.3472256,23.9932954 C8.62985213,22.7798528 6.65829543,20.2651293 6.29232658,17.2672956 C5.60933084,18.8632595 5.22875246,20.6115236 5.22875246,22.4469176 C5.22875246,27.8730533 8.52612443,32.5433552 13.2793365,34.7010588 C13.2734927,34.7081425 13.2683794,34.7152262 13.263266,34.7216016 C11.5963181,37.1931143 8.82781132,38.8117462 5.69187471,38.8117462 C3.54281216,38.8117462 1.56760307,38.0509538 0,36.7772995 C0.211838253,37.1463617 0.437555563,37.5125904 0.685917653,37.8681936 C1.05919126,38.4008899 1.47191062,38.9130435 1.93284144,39.3919035 C2.03876056,39.4967427 2.15125398,39.6001651 2.26447787,39.7042959 C2.3923113,39.8310946 2.5493638,39.9741859 2.74294013,40.1349866 C4.91829985,41.948421 8.3639586,43.6485157 13.7738693,44.0990408 C26.5652474,45.1637251 33.9920043,34.8335245 33.9920043,34.8335245 C33.9920043,34.8335245 37.4091745,30.3417325 37.9811378,24.9113466 L38.0549159,24.6945845 L38.0549159,23.7857422 Z" id="Fill-1" fill="#F3BD42"></path>
                    <path d="M37.5997786,5.47136357 C37.5793396,5.47136357 37.5589006,5.46852617 37.5384615,5.46852617 C32.2701262,5.46852617 27.9997792,9.76648283 27.9997792,15.0681709 C27.9997792,20.3705684 32.2701262,24.668525 37.5384615,24.668525 C37.5589006,24.668525 37.5793396,24.6656876 37.5997786,24.6656876 L37.5997786,5.47136357 Z" id="Fill-4" fill="#FEFEFE"></path>
                    <path d="M34.4860057,15.5538026 C34.8258474,15.3026153 35.0489608,14.9029319 35.0489608,14.4478396 C35.0489608,13.686151 34.4313355,13.0685257 33.6696469,13.0685257 C32.9079583,13.0685257 32.290333,13.686151 32.290333,14.4478396 C32.290333,15.2080507 32.9064807,15.8249372 33.6666918,15.8264147 C33.5145018,15.8522723 33.3593567,15.8685255 33.1997789,15.8685255 C31.6534993,15.8685255 30.399779,14.6148053 30.399779,13.0685257 C30.399779,11.5215073 31.6534993,10.2685259 33.1997789,10.2685259 C34.7467973,10.2685259 35.9997787,11.5215073 35.9997787,13.0685257 C35.9997787,14.1508476 35.3851086,15.0883673 34.4860057,15.5538026" id="Fill-11" fill="#231F20"></path>
                    <path d="M37.5997786,17.4685255 L37.5997786,24.668525 C40.2295162,24.6144925 43.4610294,22.1604602 44.7953696,20.0552452 C44.7968391,20.0559291 44.7983086,20.0559291 44.7997782,20.0559291 C41.5550391,19.8774167 38.1016257,19.2570691 37.5997786,17.4685255" id="Fill-12" fill="#F09336"></path>
                    <path d="M37.5997786,5.46852617 L37.5997786,17.1396136 C38.5509752,20.7235097 50.3997779,19.7470442 50.3997779,19.7470442 C50.3997779,9.26025578 44.6747055,5.49247987 37.5997786,5.46852617" id="Fill-13" fill="#F3BD42"></path>
                </g>
            </g>
        </g>
    </g>
</svg>