<svg width="199" height="259" viewBox="0 0 199 259" fill="none" xmlns="http://www.w3.org/2000/svg">
<path d="M155.566 216.327L116.099 226.714C115.289 226.928 115.035 227.952 115.651 228.519L145.737 256.227C145.995 256.465 146.354 256.559 146.695 256.48L188.217 246.839C189.014 246.653 189.31 245.674 188.748 245.079L163.145 217.948" stroke="#243252" stroke-width="2.64997" stroke-linecap="round"/>
<path d="M189.86 246.008L197.34 205.73C197.4 205.408 197.308 205.077 197.091 204.832L171.491 176.004C170.918 175.358 169.854 175.633 169.664 176.475L161.396 213.195" stroke="#243252" stroke-width="2.64997" stroke-linecap="round"/>
<path d="M114.756 227.988L127.073 188.885C127.178 188.552 127.44 188.292 127.774 188.19L170.936 174.988" stroke="#243252" stroke-width="2.64997" stroke-linecap="round"/>
<path d="M154.278 181.547L145.246 218.577C145.165 218.91 145.249 219.261 145.473 219.52L156.527 232.345C157.051 232.953 156.736 233.899 155.953 234.072L145.719 236.334C145.347 236.416 144.959 236.292 144.703 236.01L133.166 223.242C132.923 222.973 132.834 222.599 132.931 222.25L143.589 183.566C143.686 183.213 143.959 182.935 144.311 182.831L152.948 180.28C153.732 180.048 154.472 180.753 154.278 181.547Z" fill="#243252"/>
<path d="M142.846 200.428L147.086 128.879" stroke="#243252" stroke-width="2.64997" stroke-linecap="round"/>
<path d="M142.846 200.428L126.946 135.769" stroke="#243252" stroke-width="2.64997" stroke-linecap="round"/>
<path d="M141.786 200.428L106.807 155.908" stroke="#243252" stroke-width="2.64997" stroke-linecap="round"/>
<path d="M142.316 200.428L80.8364 161.738" stroke="#243252" stroke-width="2.64997" stroke-linecap="round"/>
<path d="M85.6064 149.549L121.116 182.408" stroke="#243252" stroke-width="2.64997" stroke-linecap="round"/>
<path d="M133.836 132.058L139.136 173.398" stroke="#243252" stroke-width="2.64997" stroke-linecap="round"/>
<path d="M131.186 178.698L115.286 139.479" stroke="#243252" stroke-width="2.64997" stroke-linecap="round"/>
<path d="M54.7183 90.0895C16.6756 78.7966 3.2595 101.246 1.88108 113.996C0.970708 155.5 46.6596 160.206 68.3576 156.231C68.7385 156.161 69.1153 156.302 69.3628 156.6L74.0472 162.237C74.6039 162.907 75.6862 162.657 75.8923 161.811L76.9101 157.632C76.9694 157.388 77.1127 157.174 77.3149 157.026L79.3784 155.52C80.1296 154.971 79.8603 153.79 78.9455 153.621L73.9701 152.704C73.0464 152.533 72.7191 151.247 73.3406 150.543C75.5839 148.001 77.9949 143.406 77.0018 137.219" stroke="#243252" stroke-width="2.64997" stroke-linecap="round"/>
<path d="M111.693 75.156L110.592 75.8932L110.615 75.9261L110.638 75.9576L111.693 75.156ZM59.1097 77.8986L57.9236 77.3081L59.1097 77.8986ZM104.604 147.089L103.594 147.947L104.604 147.089ZM104.714 145.521L105.637 146.472L104.714 145.521ZM106.249 152.199L106.124 150.88L106.249 152.199ZM107.193 150.135L106.184 150.993L107.193 150.135ZM100.725 153.325L100.35 152.054L100.725 153.325ZM97.9636 148.119L97.8264 149.437L97.9636 148.119ZM97.9688 149.44V152.282H100.619V149.44H97.9688ZM101.101 154.596C102.574 154.16 104.544 153.692 106.374 153.518L106.124 150.88C104.062 151.076 101.915 151.592 100.35 152.054L101.101 154.596ZM108.203 149.277L105.613 146.231L103.594 147.947L106.184 150.993L108.203 149.277ZM105.637 146.472C108.32 143.868 110.897 139.13 113.062 133.392C115.243 127.608 117.065 120.647 118.157 113.449C119.249 106.254 119.618 98.7788 118.868 91.975C118.119 85.1884 116.244 78.9551 112.748 74.3543L110.638 75.9576C113.732 80.0285 115.513 85.7293 116.234 92.2654C116.953 98.7843 116.604 106.021 115.537 113.051C114.471 120.08 112.694 126.859 110.582 132.457C108.454 138.1 106.043 142.385 103.791 144.57L105.637 146.472ZM112.794 74.4187C110.689 71.2745 107.056 68.2173 102.661 65.8079C98.2515 63.3899 92.9829 61.5729 87.5252 60.9807C82.0644 60.3882 76.3722 61.0187 71.1702 63.5495C65.9536 66.0874 61.3156 70.4957 57.9236 77.3081L60.2958 78.4892C63.4482 72.1581 67.6795 68.1946 72.3295 65.9324C76.9943 63.6629 82.1661 63.0648 87.2393 63.6152C92.3155 64.166 97.2508 65.8634 101.387 68.1315C105.539 70.4081 108.795 73.2084 110.592 75.8932L112.794 74.4187ZM57.9236 77.3081C47.6652 97.9105 54.9761 115.757 66.0428 128.429C71.5697 134.758 78.0607 139.84 83.8544 143.415C86.7529 145.203 89.4912 146.623 91.864 147.635C94.2126 148.638 96.2837 149.276 97.8264 149.437L98.1009 146.801C96.9488 146.681 95.1635 146.162 92.9042 145.198C90.6692 144.244 88.0481 142.888 85.2459 141.159C79.6382 137.7 73.3626 132.782 68.0388 126.686C57.4042 114.508 50.6777 97.8057 60.2958 78.4892L57.9236 77.3081ZM105.613 146.231C105.662 146.287 105.674 146.354 105.671 146.395C105.668 146.43 105.654 146.455 105.637 146.472L103.791 144.57C102.912 145.423 102.703 146.899 103.594 147.947L105.613 146.231ZM106.374 153.518C107.405 153.42 108.159 152.725 108.513 151.972C108.871 151.212 108.931 150.134 108.203 149.277L106.184 150.993C106.166 150.973 106.15 150.947 106.138 150.917C106.127 150.888 106.123 150.864 106.122 150.848C106.12 150.818 106.127 150.82 106.115 150.844C106.104 150.869 106.088 150.886 106.079 150.892C106.074 150.896 106.089 150.884 106.124 150.88L106.374 153.518ZM97.9688 152.282C97.9688 153.948 99.594 155.041 101.101 154.596L100.35 152.054C100.415 152.035 100.479 152.052 100.522 152.083C100.567 152.116 100.619 152.189 100.619 152.282H97.9688ZM100.619 149.44C100.619 147.896 99.2771 146.924 98.1009 146.801L97.8264 149.437C97.8452 149.439 97.8722 149.445 97.9025 149.459C97.933 149.474 97.9572 149.491 97.9731 149.506C97.9889 149.521 97.989 149.527 97.9838 149.516C97.9776 149.502 97.9688 149.475 97.9688 149.44H100.619Z" fill="#243252"/>
<path d="M118.999 123.628C118.366 123.262 117.555 123.478 117.188 124.111C116.822 124.744 117.038 125.555 117.671 125.922L118.999 123.628ZM164.432 75.2318L165.755 75.1465L164.432 75.2318ZM122.005 50.231L122.24 51.5348L122.005 50.231ZM99.2714 64.7571C98.9334 65.4062 99.1855 66.2063 99.8345 66.5443C100.484 66.8823 101.284 66.6302 101.622 65.9811L99.2714 64.7571ZM129.496 127.617L128.186 127.816L129.496 127.617ZM130.336 126.399L130.036 125.108L130.336 126.399ZM128.475 132.793L129.226 131.702L128.475 132.793ZM130.124 131.761L128.814 131.96L130.124 131.761ZM126.255 131.952L126.87 133.126L126.255 131.952ZM127.347 132.018L128.098 130.926L127.347 132.018ZM122.738 131.759L121.47 131.375L122.738 131.759ZM124.244 133.006L123.629 131.832L124.244 133.006ZM122.681 126.463L122.967 125.169L122.681 126.463ZM123.825 128.171L122.557 127.787L123.825 128.171ZM117.671 125.922C118.804 126.578 120.752 127.394 122.395 127.757L122.967 125.169C121.614 124.87 119.919 124.161 118.999 123.628L117.671 125.922ZM122.557 127.787L121.47 131.375L124.006 132.144L125.093 128.556L122.557 127.787ZM124.859 134.179L126.87 133.126L125.64 130.779L123.629 131.832L124.859 134.179ZM126.596 133.11L127.725 133.885L129.226 131.702L128.098 130.926L126.596 133.11ZM131.434 131.563L130.806 127.419L128.186 127.816L128.814 131.96L131.434 131.563ZM130.635 127.689C136.848 126.247 146.181 121.972 153.691 113.622C161.236 105.234 166.893 92.787 165.755 75.1465L163.11 75.3171C164.202 92.2426 158.791 103.99 151.721 111.85C144.617 119.748 135.786 123.773 130.036 125.108L130.635 127.689ZM165.755 75.1465C165.01 63.5991 151.008 43.6445 121.769 48.9271L122.24 51.5348C149.877 46.5418 162.464 65.3043 163.11 75.3171L165.755 75.1465ZM121.769 48.9271C118.935 49.4391 114.537 51.0954 110.272 53.7269C106.006 56.3589 101.717 60.0611 99.2714 64.7571L101.622 65.9811C103.763 61.8695 107.616 58.4792 111.663 55.9822C115.711 53.4848 119.799 51.9758 122.24 51.5348L121.769 48.9271ZM130.806 127.419C130.828 127.564 130.731 127.667 130.635 127.689L130.036 125.108C128.831 125.388 127.994 126.545 128.186 127.816L130.806 127.419ZM127.725 133.885C129.445 135.068 131.747 133.627 131.434 131.563L128.814 131.96C128.808 131.92 128.814 131.86 128.842 131.802C128.867 131.75 128.902 131.716 128.935 131.695C128.968 131.675 129.014 131.658 129.072 131.658C129.136 131.658 129.193 131.679 129.226 131.702L127.725 133.885ZM126.87 133.126C126.783 133.172 126.677 133.165 126.596 133.11L128.098 130.926C127.369 130.425 126.423 130.368 125.64 130.779L126.87 133.126ZM121.47 131.375C120.856 133.399 122.985 135.161 124.859 134.179L123.629 131.832C123.665 131.813 123.724 131.799 123.789 131.807C123.847 131.815 123.891 131.838 123.921 131.863C123.951 131.887 123.982 131.926 124 131.982C124.02 132.044 124.017 132.105 124.006 132.144L121.47 131.375ZM122.395 127.757C122.399 127.758 122.421 127.764 122.453 127.786C122.485 127.808 122.512 127.836 122.532 127.864C122.551 127.891 122.551 127.903 122.549 127.891C122.545 127.876 122.542 127.836 122.557 127.787L125.093 128.556C125.349 127.711 125.097 126.908 124.702 126.344C124.31 125.784 123.695 125.33 122.967 125.169L122.395 127.757Z" fill="#FC766A"/>
<path d="M146.291 119.803C146.291 119.071 145.698 118.478 144.966 118.478C144.234 118.478 143.641 119.071 143.641 119.803H146.291ZM175.557 43.8267C174.832 43.7284 174.165 44.2365 174.066 44.9617C173.968 45.6868 174.476 46.3543 175.201 46.4526L175.557 43.8267ZM152.337 119.707L152.488 121.023L152.337 119.707ZM149.559 126.006L150.496 125.069L149.559 126.006ZM147.603 124.733L147.325 123.438L147.603 124.733ZM146.248 125.024L146.527 126.32L146.248 125.024ZM143.641 119.803V123.988H146.291V119.803H143.641ZM152.694 125.257V120.779H150.044V125.257H152.694ZM152.488 121.023C164.323 119.668 188.152 110.577 196.539 83.5509L194.008 82.7655C186.037 108.45 163.383 117.109 152.186 118.391L152.488 121.023ZM196.539 83.5509C200.849 69.6611 198.404 60.0206 193.318 53.6673C188.293 47.3908 180.866 44.5463 175.557 43.8267L175.201 46.4526C180.03 47.1072 186.758 49.7135 191.249 55.3235C195.679 60.8568 198.113 69.5385 194.008 82.7655L196.539 83.5509ZM146.527 126.32L147.881 126.029L147.325 123.438L145.97 123.729L146.527 126.32ZM147.638 125.957L148.621 126.942L150.496 125.069L149.513 124.085L147.638 125.957ZM152.694 120.779C152.694 120.921 152.588 121.012 152.488 121.023L152.186 118.391C150.989 118.528 150.044 119.534 150.044 120.779H152.694ZM150.044 125.257C150.044 125.216 150.059 125.157 150.097 125.103C150.131 125.055 150.171 125.027 150.208 125.012C150.244 124.997 150.292 124.988 150.35 124.998C150.415 125.009 150.468 125.041 150.496 125.069L148.621 126.942C150.123 128.446 152.694 127.382 152.694 125.257H150.044ZM147.881 126.029C147.793 126.048 147.701 126.021 147.638 125.957L149.513 124.085C148.941 123.511 148.117 123.268 147.325 123.438L147.881 126.029ZM143.641 123.988C143.641 125.506 145.042 126.638 146.527 126.32L145.97 123.729C146.135 123.693 146.291 123.819 146.291 123.988H143.641Z" fill="#243252"/>
<path d="M160.111 63.6963C159.53 64.1407 159.419 64.9722 159.863 65.5536C160.308 66.135 161.139 66.2461 161.721 65.8017L160.111 63.6963ZM169.676 13.4418L170.67 12.5661L169.676 13.4418ZM115.141 51.1051C115.323 51.8141 116.044 52.2419 116.753 52.0606C117.462 51.8794 117.89 51.1577 117.709 50.4488L115.141 51.1051ZM161.721 65.8017C166.368 62.2495 173.461 54.5936 176.994 45.0217C180.561 35.3583 180.49 23.7169 170.67 12.5661L168.682 14.3175C177.752 24.6182 177.796 35.1947 174.508 44.1042C171.186 53.1051 164.454 60.377 160.111 63.6963L161.721 65.8017ZM170.67 12.5661C160.509 1.02646 143.779 -0.219453 131.085 6.81416C118.28 13.909 109.584 29.369 115.141 51.1051L117.709 50.4488C112.432 29.8104 120.681 15.6084 132.369 9.13209C144.168 2.59455 159.48 3.86833 168.682 14.3175L170.67 12.5661Z" fill="#243252"/>
<path d="M119.526 20.0763C104.058 16.7793 73.8562 20.6743 76.7967 62.6294" stroke="#243252" stroke-width="2.64997" stroke-linecap="round"/>
<path d="M105.195 19.6735C105.618 20.2706 106.445 20.4118 107.042 19.9888C107.64 19.5658 107.781 18.7388 107.358 18.1417L105.195 19.6735ZM50.1798 11.5588L51.1026 12.5096L50.1798 11.5588ZM62.0157 71.6652C62.6155 72.0845 63.4416 71.9382 63.8608 71.3384C64.2801 70.7387 64.1338 69.9126 63.534 69.4933L62.0157 71.6652ZM107.358 18.1417C103.067 12.0846 94.1173 4.89711 83.4891 1.8457C72.7753 -1.23025 60.2981 -0.107301 49.257 10.608L51.1026 12.5096C61.3582 2.55661 72.808 1.53615 82.7578 4.39277C92.793 7.27392 101.244 14.095 105.195 19.6735L107.358 18.1417ZM49.257 10.608C38.6788 20.874 38.0649 33.5743 41.9725 44.9011C45.8586 56.1654 54.2473 66.2347 62.0157 71.6652L63.534 69.4933C56.1906 64.3599 48.1681 54.7343 44.4776 44.0369C40.8087 33.4021 41.4532 21.8742 51.1026 12.5096L49.257 10.608Z" fill="#243252"/>
<path d="M41.0872 37.8377C22.6949 35.9989 -8.89389 55.7191 15.5679 92.309" stroke="#FC766A" stroke-width="2.64997" stroke-linecap="round"/>
</svg>
