<svg width="375" height="292" viewBox="0 0 375 292" fill="none" xmlns="http://www.w3.org/2000/svg">
<g clip-path="url(#clip0_147_605)">
<path d="M53.1228 115.019L47.687 261.599L374.278 204.314L259.805 16.7344L53.1228 115.019Z" fill="#DFE3EC"/>
<path d="M134.7 213.897C131.872 199.301 142.358 165.962 147.954 151.118C149.819 152 165.429 148.96 170.436 141.701C174.442 135.894 181.245 133.613 184.574 132.578C188.992 131.205 196.355 131.401 197.73 134.736L199.202 138.169C204.013 152 199.824 173.025 196.846 182.409L185.85 184.371C177.525 170.874 181.792 154.42 184.967 147.881C181.589 152.432 172.106 157.232 167.786 159.063C167.589 171.129 149.132 212.72 145.107 215.369C141.886 217.488 136.827 215.271 134.7 213.897Z" fill="#243252"/>
<path d="M141.752 216.302L140.377 218.8L141.752 216.302ZM136.056 214.719L133.434 221.644L133.209 222.238C132.959 222.838 132.786 223.844 133.209 224.7C133.507 225.305 134.101 225.835 135.173 226.097C137.765 226.73 147.513 227.416 152.063 227.68C152.848 227.779 154.341 227.403 154.027 225.107C153.712 222.812 152.063 220.711 150.197 219.863C148.684 219.176 144.781 218.108 140.377 218.8L136.056 214.719ZM139.002 219.072C139.465 218.961 139.924 218.871 140.377 218.8L139.002 219.072Z" stroke="#243252" stroke-width="1.2721" stroke-linecap="round"/>
<path d="M187.418 183.839C187.32 186.749 187.585 192.48 188.304 193.356C189.19 194.435 190.273 194.533 196.868 192.473C202.143 190.824 204.25 190.805 205.529 190.609C206.415 190.473 207.498 190.354 207.498 188.156C207.498 185.409 206.415 183.544 203.069 183.152C200.391 182.838 196.572 184.46 194.998 185.31V182.662" stroke="#243252" stroke-width="1.2721" stroke-linecap="round"/>
<path d="M174.82 85.083C164.709 86.1048 144.841 90.4113 146.254 99.4631C146.471 100.232 147.094 101.458 148.254 102.612C149.372 103.723 150.989 104.766 153.224 105.268" stroke="#243252" stroke-width="1.2721" stroke-linecap="round"/>
<path d="M148.254 102.612C151.416 107.531 160.684 118.216 172.464 121.601" stroke="#243252" stroke-width="1.2721" stroke-linecap="round"/>
<path d="M172.388 121.601C173.108 120.633 175 118.885 177.222 118.802" stroke="#243252" stroke-width="1.2721" stroke-linecap="round"/>
<path d="M177.222 118.802C177.156 116.04 174.825 108.915 166.027 102.519" stroke="#243252" stroke-width="1.2721" stroke-linecap="round"/>
<path d="M163.483 104.809C164.396 103.33 167.201 100.192 171.116 99.4661" stroke="#243252" stroke-width="1.2721" stroke-linecap="round"/>
<path d="M185.363 102.01C185.787 102.512 186.635 103.875 186.635 105.318" stroke="#243252" stroke-width="1.2721" stroke-linecap="round"/>
<path d="M185.263 123.13C187.269 123.032 191.456 122.738 192.166 122.346C193.053 121.856 193.25 121.856 193.25 120.875C193.25 119.895 185.263 121.562 185.263 118.424C185.987 117.705 187.157 116.091 186.052 115.385C184.948 114.679 182.634 116.725 181.615 117.836C180.564 118.947 178.204 120.699 177.178 118.816" stroke="#243252" stroke-width="1.2721" stroke-linecap="round"/>
<path d="M172.642 121.562C173.53 124.143 176.724 128.777 182.404 126.659C188.083 124.542 188.32 123.424 187.728 123.13" stroke="#243252" stroke-width="1.2721" stroke-linecap="round"/>
<path d="M221.557 122.66C222.937 122.283 225.954 120.528 226.979 116.526C228.005 112.524 226.618 112.505 225.796 112.995" stroke="#243252" stroke-width="1.2721" stroke-linecap="round"/>
<path d="M216.431 119.763C216.858 117.54 218.363 113.25 220.966 113.878" stroke="#243252" stroke-width="1.2721" stroke-linecap="round"/>
<path d="M217.515 116.134C215.701 114.643 214.59 118.063 214.261 119.959C212.211 120.587 211.435 123.556 211.304 124.962C216.049 125.448 219.421 124.174 221.557 122.66C222.864 121.733 223.708 120.717 224.12 119.959C225.139 117.246 226.624 111.583 224.416 110.641C222.207 109.7 221.59 111.818 221.557 112.995C221.793 115.663 220.407 118.619 219.684 119.763" stroke="#243252" stroke-width="1.2721" stroke-linecap="round"/>
<path d="M188.925 123.098C193.197 127.087 203.654 133.044 211.304 124.962" stroke="#243252" stroke-width="1.2721" stroke-linecap="round"/>
<path d="M188.162 123.636C188.162 125.488 187.704 129.709 185.872 131.777" stroke="#243252" stroke-width="1.2721" stroke-linecap="round"/>
<path d="M148.218 127.961C144.186 133.403 138.541 145.703 148.218 151.368" stroke="#243252" stroke-width="1.2721" stroke-linecap="round"/>
<path d="M268.813 104.555L271.103 100.738" stroke="#FC766A" stroke-width="1.2721" stroke-linecap="round"/>
<path d="M269.932 106.549L274.156 106.353" stroke="#FC766A" stroke-width="1.2721" stroke-linecap="round"/>
<path d="M269.067 108.88L271.612 112.187" stroke="#FC766A" stroke-width="1.2721" stroke-linecap="round"/>
<path d="M185.902 228.713H117.178V262.295" stroke="#243252" stroke-width="3.8163" stroke-linecap="round"/>
<path d="M233.685 195.23H177.447V236.176" stroke="#243252" stroke-width="3.8163" stroke-linecap="round"/>
<path d="M270.849 148.294H225.229V202.987" stroke="#243252" stroke-width="3.8163" stroke-linecap="round"/>
<path d="M262.786 112.569V155.953" stroke="#243252" stroke-width="3.8163" stroke-linecap="round"/>
<path d="M262.786 97.4309V101.12" stroke="#243252" stroke-width="3.8163" stroke-linecap="round"/>
<path d="M173.67 124.027L117.348 130.506C110.833 125.286 112.41 117.494 114.012 114.25L153.163 109.558" stroke="#243252" stroke-width="1.2721" stroke-linecap="round"/>
<path d="M193 122.463L212.33 120.605" stroke="#243252" stroke-width="1.2721" stroke-linecap="round"/>
<path d="M226.459 118.552L239.117 117.672L256.092 109.978C254.051 107.811 255.171 105.881 256.021 105.191L239.117 101.247L172.198 106.82" stroke="#243252" stroke-width="1.2721" stroke-linecap="round"/>
<path d="M107.948 114.331L113.685 113.714C109.706 122.628 114.267 128.693 117.179 131.052L110.482 132.032C104.885 125.215 106.328 117.587 107.948 114.331Z" fill="#243252"/>
<path d="M256.703 110.406C254.573 108.183 255.77 105.536 256.657 104.682L264.743 106.677L256.703 110.406Z" fill="#243252"/>
<path d="M239.3 101.247C237.188 103.928 234.232 110.938 239.3 117.53" stroke="#243252" stroke-width="1.2721"/>
<path d="M190.659 86.7997C192.342 85.7639 205.002 86.7623 207.463 70.8378C211.677 70.8872 213.968 67.4355 210.753 65.9583C207.325 64.1909 207.583 60.946 208.204 59.034C209.191 56.5266 209.251 53.8941 209.038 53.3435" stroke="#243252" stroke-width="1.2721" stroke-linecap="round"/>
<path d="M203.748 65.0874C204.227 65.093 204.621 64.5162 204.629 63.799C204.638 63.0818 204.257 62.4956 203.779 62.49C203.301 62.4844 202.906 63.0615 202.898 63.7787C202.889 64.4959 203.27 65.0818 203.748 65.0874Z" fill="#243252"/>
<path d="M201.398 59.8314C202.101 59.0799 203.919 57.9805 205.566 59.5953" stroke="#243252" stroke-width="1.2721" stroke-linecap="round"/>
<path d="M196.622 74.4644C197.914 76.4526 199.333 77.0172 202.088 75.7342" stroke="#243252" stroke-width="1.2721" stroke-linecap="round"/>
<path d="M186.045 60.5281C185.745 61.1855 185.495 62.6779 186.886 63.3883" stroke="#243252" stroke-width="1.2721" stroke-linecap="round"/>
<path d="M171.213 53.7772C169.574 62.7467 174.704 69.4988 178.422 74.6894C182.394 72.5437 188.904 67.441 186.407 66.8902C183.783 66.3114 181.015 59.1538 183.564 56.9642C186.553 54.3953 189.248 58.2822 189.762 61.2293L192.17 57.065C191.489 54.1523 191.222 49.0429 195.602 51.9073C199.981 54.7716 206.405 54.0213 209.069 53.2881C214.323 49.5276 222.485 40.7561 213.105 35.754C205.304 31.5936 195.152 36.8534 188.954 41.5797C184.758 40.472 173.449 41.5473 171.213 53.7772Z" fill="#243252"/>
<path d="M178.714 74.0889C180.611 76.372 181.553 78.268 181.436 82.1955" stroke="#243252" stroke-width="1.2721" stroke-linecap="round"/>
<path d="M176.604 87.4535C175.94 85.1372 175.551 80.7195 179.306 81.5782C184.001 82.6513 193.569 87.2934 192.868 89.8667" stroke="#243252" stroke-width="1.2721" stroke-linecap="round"/>
<path d="M192.868 93.4873C196.303 96.6676 197.066 98.7029 197.575 102.519" stroke="#243252" stroke-width="1.2721" stroke-linecap="round"/>
<path d="M31.9478 196.643C36.6135 196.218 47.6076 199 54.9517 213.309C55.1438 213.683 55.6855 213.693 55.8768 213.318C63.41 198.571 72.6557 183.612 101.879 201.624C102.329 201.9 102.918 201.399 102.696 200.92C97.9542 190.723 95.3919 171.276 117.486 161.628C117.929 161.435 117.91 160.776 117.446 160.64L111.731 158.97C111.207 158.817 111.264 158.098 111.807 158.049C117.695 157.518 126 157.864 123.141 161.338C119.802 165.393 118.981 167.957 119.795 172.191" stroke="#FC766A" stroke-width="1.2721" stroke-linecap="round"/>
</g>
<defs>
<clipPath id="clip0_147_605">
<rect width="374.948" height="291.176" fill="white" transform="translate(0 0.656006)"/>
</clipPath>
</defs>
</svg>
