<svg width="301" height="221" viewBox="0 0 301 221" fill="none" xmlns="http://www.w3.org/2000/svg">
<g clip-path="url(#clip0_148_668)">
<path d="M230.287 205.296C221.18 197.876 233.519 197.005 240.827 197.497V202.345L258.324 206.772C252.772 209.372 239.394 212.716 230.287 205.296Z" fill="#C0C6D5"/>
<path d="M278.139 200.869C272.237 201.544 270.48 198.902 270.339 197.496H282.987C283.831 198.34 284.041 200.195 278.139 200.869Z" fill="#C0C6D5"/>
<path d="M264.858 180.421C258.323 180.421 254.74 180 249.47 179.578" stroke="#C0C6D5" stroke-width="2.10802" stroke-linecap="round"/>
<path d="M269.918 182.951V203.188" stroke="#C0C6D5" stroke-width="2.10802" stroke-linecap="round"/>
<path d="M254.74 184.005L240.827 182.951" stroke="#C0C6D5" stroke-width="2.10802" stroke-linecap="round"/>
<path d="M261.275 186.113V206.561" stroke="#C0C6D5" stroke-width="2.10802" stroke-linecap="round"/>
<path d="M261.064 206.982L269.918 203.399" stroke="#C0C6D5" stroke-width="2.10802" stroke-linecap="round"/>
<path d="M249.259 179.578L240.827 182.951" stroke="#C0C6D5" stroke-width="2.10802" stroke-linecap="round"/>
<path d="M240.616 183.162V202.556" stroke="#C0C6D5" stroke-width="2.10802" stroke-linecap="round"/>
<path d="M240.406 202.345L261.064 206.983" stroke="#C0C6D5" stroke-width="2.10802" stroke-linecap="round"/>
<path d="M264.858 180.843V174.941" stroke="#C0C6D5" stroke-width="2.10802" stroke-linecap="round"/>
<path d="M283.198 197.285V176.838" stroke="#C0C6D5" stroke-width="2.10802" stroke-linecap="round"/>
<path d="M293.106 170.092V192.859" stroke="#C0C6D5" stroke-width="2.10802" stroke-linecap="round"/>
<path d="M283.198 197.707L293.106 192.859" stroke="#C0C6D5" stroke-width="2.10802" stroke-linecap="round"/>
<path d="M293.106 169.881L270.761 169.038" stroke="#C0C6D5" stroke-width="2.10802" stroke-linecap="round"/>
<path d="M264.858 174.941L270.761 169.038" stroke="#C0C6D5" stroke-width="2.10802" stroke-linecap="round"/>
<path d="M283.198 176.627L292.895 170.303" stroke="#C0C6D5" stroke-width="2.10802" stroke-linecap="round"/>
<path d="M283.198 197.286H270.761" stroke="#C0C6D5" stroke-width="2.10802" stroke-linecap="round"/>
<path d="M265.069 174.941L277.085 175.362" stroke="#C0C6D5" stroke-width="2.10802" stroke-linecap="round"/>
<path d="M96.6245 214.169C96.8353 208.267 120.445 210.164 121.921 210.375V214.169L129.088 219.228C118.196 219.51 96.4559 218.891 96.6245 214.169Z" fill="#C0C6D5"/>
<path d="M155.227 213.537V192.035" stroke="#C0C6D5" stroke-width="2.10802" stroke-linecap="round"/>
<path d="M136.887 219.018V195.408" stroke="#C0C6D5" stroke-width="2.10802" stroke-linecap="round"/>
<path d="M121.709 213.537V189.927" stroke="#C0C6D5" stroke-width="2.10802" stroke-linecap="round"/>
<path d="M121.709 189.927L138.363 185.711" stroke="#C0C6D5" stroke-width="2.10802" stroke-linecap="round"/>
<path d="M155.227 191.824L136.887 195.197" stroke="#C0C6D5" stroke-width="2.10802" stroke-linecap="round"/>
<path d="M136.887 219.229L155.227 213.748" stroke="#C0C6D5" stroke-width="2.10802" stroke-linecap="round"/>
<path d="M155.227 191.824L138.363 185.711" stroke="#C0C6D5" stroke-width="2.10802" stroke-linecap="round"/>
<path d="M121.709 190.138L137.098 195.197" stroke="#C0C6D5" stroke-width="2.10802" stroke-linecap="round"/>
<path d="M190.745 210.586V210.773L190.931 210.795L211.518 213.193C206.195 214.532 198.555 216.03 191.659 216.488C187.965 216.734 184.497 216.68 181.716 216.149C178.925 215.616 176.883 214.613 175.961 213.01C175.488 212.188 175.272 211.469 175.254 210.841C175.235 210.216 175.412 209.67 175.748 209.187C176.426 208.212 177.76 207.485 179.47 206.966C182.813 205.952 187.429 205.779 190.745 205.938V210.586Z" fill="#C0C6D5" stroke="#C0C6D5" stroke-width="0.421604"/>
<path d="M223.419 204.051L215.198 212.483L223.419 204.051Z" fill="#FC766A"/>
<path d="M223.419 204.051L215.198 212.483" stroke="#FC766A" stroke-width="2.10802" stroke-linecap="round"/>
<path d="M213.301 186.765L192.01 185.289L213.301 186.765Z" fill="#FC766A"/>
<path d="M213.301 186.765L192.01 185.289" stroke="#FC766A" stroke-width="2.10802" stroke-linecap="round"/>
<path d="M200.652 179.808L223.419 180.862L200.652 179.808Z" fill="#FC766A"/>
<path d="M200.652 179.808L223.419 180.862" stroke="#FC766A" stroke-width="2.10802" stroke-linecap="round"/>
<path d="M191.588 185.289L190.534 209.742L191.588 185.289Z" fill="#FC766A"/>
<path d="M191.588 185.289L190.534 209.742" stroke="#FC766A" stroke-width="2.10802" stroke-linecap="round"/>
<path d="M223.419 181.284V203.629V181.284Z" fill="#FC766A"/>
<path d="M223.419 181.284V203.629" stroke="#FC766A" stroke-width="2.10802" stroke-linecap="round"/>
<path d="M215.198 194.565V212.483V194.565Z" fill="#FC766A"/>
<path d="M215.198 194.565V212.483" stroke="#FC766A" stroke-width="2.10802" stroke-linecap="round"/>
<path d="M191.588 185.289L200.652 179.808L191.588 185.289Z" fill="#FC766A"/>
<path d="M191.588 185.289L200.652 179.808" stroke="#FC766A" stroke-width="2.10802" stroke-linecap="round"/>
<path d="M215.198 212.483L190.323 209.953" stroke="#FC766A" stroke-width="2.10802" stroke-linecap="round"/>
<path d="M171.382 55.1249C172.296 54.8437 174.713 54.5768 177.074 55.7573" stroke="#C0C6D5" stroke-width="2.10802" stroke-linecap="round"/>
<path d="M162.95 66.0865C164.58 66.0865 165.901 64.6708 165.901 62.9245C165.901 61.1782 164.58 59.7625 162.95 59.7625C161.32 59.7625 159.999 61.1782 159.999 62.9245C159.999 64.6708 161.32 66.0865 162.95 66.0865Z" fill="#C0C6D5"/>
<path d="M186.982 70.3028C188.612 70.3028 189.933 68.8871 189.933 67.1408C189.933 65.3945 188.612 63.9788 186.982 63.9788C185.352 63.9788 184.031 65.3945 184.031 67.1408C184.031 68.8871 185.352 70.3028 186.982 70.3028Z" fill="#C0C6D5"/>
<path d="M155.783 57.8655C155.994 56.5302 157.301 53.9867 160.842 54.4926" stroke="#C0C6D5" stroke-width="2.10802" stroke-linecap="round"/>
<path d="M182.766 57.4437C184.452 55.9681 188.668 53.9022 192.041 57.4437" stroke="#C0C6D5" stroke-width="2.10802" stroke-linecap="round"/>
<path d="M173.701 61.0273C175.669 64.2598 178.423 71.188 173.701 73.0431L171.382 73.8863" stroke="#C0C6D5" stroke-width="2.10802" stroke-linecap="round"/>
<path d="M165.691 80.4211C166.183 81.7564 168.052 83.9626 171.593 82.1076" stroke="#C0C6D5" stroke-width="2.10802" stroke-linecap="round"/>
<path d="M97.8123 49.4333C90.898 72.1999 110.109 88.7129 120.579 94.1233C130.023 88.3895 143.486 85.4804 149.248 84.6372C142.081 78.7348 139.902 67.9134 139.34 62.9246C135.546 64.1894 125.427 59.341 130.065 49.4333C133.775 41.5071 137.794 45.5684 139.34 48.5901L149.67 53.2277C149.67 43.6151 156.274 40.3688 159.577 39.9472C161.601 38.598 163.793 34.1851 164.637 32.1475C165.648 40.0737 176.02 45.8496 181.079 47.7468C187.656 42.519 192.954 45.5684 194.781 47.7468L199.419 47.1144C208.483 44.0228 224.757 33.4545 217.337 15.9157C209.917 -1.62302 194.57 1.58118 187.825 5.37562C164.721 -9.97077 141.518 12.4725 132.805 25.6126C124.022 24.0666 104.727 26.6666 97.8123 49.4333Z" fill="#C0C6D5"/>
<path d="M149.459 53.4385L139.341 48.1685" stroke="#C0C6D5" stroke-width="2.10802" stroke-linecap="round"/>
<path d="M171.172 53.0169C171.172 60.2875 166.203 65.8758 160.421 65.8758C154.639 65.8758 149.67 60.2875 149.67 53.0169C149.67 45.7459 154.639 40.158 160.421 40.158C166.203 40.158 171.172 45.7459 171.172 53.0169Z" stroke="#C0C6D5" stroke-width="2.10802"/>
<path d="M198.997 57.6546C198.997 64.9252 194.028 70.5135 188.247 70.5135C182.465 70.5135 177.496 64.9252 177.496 57.6546C177.496 50.3836 182.465 44.7957 188.247 44.7957C194.028 44.7957 198.997 50.3836 198.997 57.6546Z" stroke="#C0C6D5" stroke-width="2.10802"/>
<path d="M199.419 98.291C215.609 85.3055 206.376 67.7951 199.63 60.5574C195.92 78.0961 187.334 85.6428 183.609 87.3292L189.512 90.4913L199.419 98.291Z" fill="#C0C6D5"/>
<path d="M140.605 53.017C140.254 49.1522 135.757 39.9473 130.909 48.5902C128.801 52.525 127.283 60.9432 138.076 63.1355" stroke="#C0C6D5" stroke-width="2.10802" stroke-linecap="round"/>
<path d="M137.022 51.5413C136.038 52.3845 134.576 54.5768 136.6 56.6005" stroke="#C0C6D5" stroke-width="2.10802" stroke-linecap="round"/>
<path d="M198.155 62.5032C196.974 69.2488 194.36 75.3591 191.62 79.1565C189.906 81.531 187.13 84.5282 183.59 87.1409" stroke="#C0C6D5" stroke-width="2.10802" stroke-linecap="round"/>
<path d="M139.13 63.1353C138.989 71.7077 142.334 84.4263 157.681 91.1719C160.041 92.2095 162.362 92.8048 164.618 93.0447" stroke="#C0C6D5" stroke-width="2.10802" stroke-linecap="round"/>
<path d="M182.134 101.502C178.761 100.658 175.529 103.399 174.334 104.874C173.701 106.21 173.406 108.837 177.285 108.669C182.134 108.458 183.609 101.502 189.301 112.674C193.854 121.612 194.149 139.165 193.728 146.824" stroke="#C0C6D5" stroke-width="2.10802" stroke-linecap="round" stroke-linejoin="round"/>
<path d="M171.098 99.1826C169.999 101.572 169.106 106.055 174.333 104.874" stroke="#C0C6D5" stroke-width="2.10802" stroke-linecap="round" stroke-linejoin="round"/>
<path d="M173.133 90.9612C170.182 92.226 165.902 96.7793 167.588 99.8149C167.799 100.166 168.431 100.827 169.275 100.658C169.644 100.584 170.246 99.9414 171.099 99.1825C172.681 97.7747 175.126 95.9682 178.55 96.6528" stroke="#C0C6D5" stroke-width="2.10802" stroke-linecap="round" stroke-linejoin="round"/>
<path d="M232.124 163.347C234.232 153.017 232.178 128.779 206.376 105.507L189.301 90.5398L178.55 84.8481L176.442 84.4265L168.432 86.3237L167.588 87.1669L164.848 92.2262C164.426 93.2802 166.24 94.5029 169.275 93.491" stroke="#C0C6D5" stroke-width="2.10802" stroke-linecap="round" stroke-linejoin="round"/>
<path d="M148.616 85.4805C134.914 87.3073 99.3429 95.1618 77.7863 127.008C57.47 157.022 80.4475 169.671 97.5224 170.303" stroke="#C0C6D5" stroke-width="2.10802" stroke-linecap="round" stroke-linejoin="round"/>
<path d="M1.50586 174.519L96.5777 169.881" stroke="#C0C6D5" stroke-width="2.10802" stroke-linecap="round" stroke-linejoin="round"/>
<path d="M122.506 168.828L299.643 161.11" stroke="#C0C6D5" stroke-width="2.10802" stroke-linecap="round"/>
<path d="M106.715 170.627C106.976 171.435 106.784 172.016 105.769 172.103C102.764 172.361 99.1955 167.703 97.7874 165.342" stroke="#C0C6D5" stroke-width="2.10802" stroke-linecap="round"/>
<path d="M106.708 161.478C108.207 163.874 110.823 167.566 113.115 169.661C112.906 171.27 111.333 173.717 106.715 170.627C106.012 168.445 102.013 164.611 102.013 164.376" stroke="#C0C6D5" stroke-width="2.10802" stroke-linecap="round"/>
<path d="M110.777 159.225C113.646 162.391 118.852 169.173 116.724 170.976C116.346 171.296 115.865 171.327 115.315 171.139C114.66 170.916 113.907 170.384 113.115 169.661C110.823 167.566 108.207 163.874 106.708 161.478" stroke="#C0C6D5" stroke-width="2.10802" stroke-linecap="round"/>
<path d="M87.1934 167.476C91.9925 161.466 107.334 148.439 116.098 156.327C119.593 159.815 123.949 166.119 121.445 168.695C120.193 169.661 117.483 168.373 115.735 165.797" stroke="#C0C6D5" stroke-width="2.10802" stroke-linecap="round"/>
<path d="M104.29 133.202C101.269 135.591 96.5326 141.803 101.761 147.536" stroke="#C0C6D5" stroke-width="2.10802" stroke-linecap="round"/>
</g>
<defs>
<clipPath id="clip0_148_668">
<rect width="300.604" height="220.077" fill="white" transform="translate(0.39624 0.205078)"/>
</clipPath>
</defs>
</svg>
