<svg width="367" height="329" viewBox="0 0 367 329" fill="none" xmlns="http://www.w3.org/2000/svg">
<g clip-path="url(#clip0_149_594)">
<g opacity="0.29">
<path fill-rule="evenodd" clip-rule="evenodd" d="M137.354 44L124.682 48.7234L111.959 54.9351L100.691 61.7565L90.5501 69.2386L81.2568 77.6604L72.9389 86.8706L65.8122 96.6334L59.785 107.363L55.3281 118.491L52.1048 129.989L50.0689 141.178L49.2762 151.547L50.0706 161.508L53.2004 176.021L58.0116 192.173L62.5361 202.53L71.7182 220.367L78.4153 230.69L90.6538 247.268L92.7568 248.121L94.4909 246.51L94.2278 245.328L82.0767 228.868L76.5985 220.538L73.1836 214.646L66.3376 200.956L63.303 194.297L60.5592 187.017L57.114 174.745L55.0951 166.242L53.7078 156.674L53.4936 151.775L53.6912 146.804L55.1293 136.181L57.721 124.892L59.4553 119.248L62.5603 111.49L61.178 123.025L60.1959 135.269L60.0607 144.324L60.9889 158.919L62.1238 169.631L63.9937 180.584L65.4363 186.558L67.0631 191.837L71.0956 202.286L76.0727 212.731L78.9368 217.862L85.3762 227.603L88.9915 232.166L92.8998 236.535L101.553 244.838L106.751 249.159L116.707 256.403L127.174 262.736L132.639 265.553L138.345 268.159L150.216 272.716L162.418 276.384L174.53 279.128L186.628 280.929L193.428 281.555L205.631 281.986L217.546 281.529L228.928 280.192L234.553 279.168L245.49 276.459L255.956 272.911L266.31 268.32L275.482 263.268L279.909 260.431L288.195 254.187L295.598 247.102L301.93 239.162L307.686 229.819L312.188 220.186L315.503 209.859L317.462 198.897L318.187 187.064L317.689 174.635L315.941 161.966L312.778 148.706L308.421 135.488L302.826 122.183L296.094 109.391L288.264 97.5313L279.152 86.0699L268.972 75.3134L263.55 70.3363L257.492 65.336L251.779 61.1409L245.849 57.3061L233.263 50.5352L220.003 45.0683L213.221 42.871L206.438 41.0683L199.686 39.6715L192.868 38.7031L185.237 38.0752L171.133 38.1168L157.157 39.5451L143.819 42.1875L137.354 44ZM103.535 64.4571L114.637 57.7334L126.041 52.1526L132.221 49.6645L138.492 47.5149L144.79 45.7456L157.924 43.1445L171.683 41.7384L178.619 41.5367L185.536 41.6989L191.991 42.2137L198.38 43.1203L204.991 44.4857L211.635 46.2537L224.886 50.9335L237.663 56.9799L249.582 64.2342L255.071 68.2638L265.552 77.4178L270.684 82.6011L280.267 93.6599L288.649 105.17L292.356 111.095L299.021 123.754L304.562 136.929L308.877 150.02L311.753 162.029L313.483 174.545L313.973 186.815L313.259 198.476L311.333 209.255L309.874 214.367L306.01 224.179L301.367 232.736L295.601 240.946L288.903 248.272L281.202 254.783L272.723 260.514L263.783 265.44L254.681 269.444L244.404 272.931L233.647 275.593L222.601 277.364L211.144 278.243L199.211 278.257L193.195 277.938L181.784 276.688L175.878 275.687L163.923 272.978L151.882 269.358L140.17 264.863L129.201 259.538L118.887 253.298L109.195 246.248L100.513 238.653L92.5511 230.209L85.7158 221.034L79.841 211.089L77.2719 205.964L72.8183 195.58L69.344 185.256L67.1347 175.072L65.6873 164.271L64.4751 149.146L64.4057 135.57L66.1048 116.618L67.3088 108.729L70.0156 98.2778L70.9672 96.2226L72.5486 93.9276L76.2064 89.1888L84.4065 80.1109L93.5515 71.8195L103.535 64.4571Z" fill="#FFBEB8"/>
</g>
<path d="M126.352 219.714C110.003 206.605 149.481 199.985 170.819 198.648C170.992 198.637 171.144 198.752 171.192 198.918C177.543 220.531 194.075 229.278 201.624 231.365C183.685 233.153 142.775 232.882 126.352 219.714Z" fill="#C0C6D5"/>
<path d="M217.899 228.037C241.494 228.037 260.621 208.909 260.621 185.314C260.621 161.72 241.494 142.592 217.899 142.592C194.305 142.592 175.177 161.72 175.177 185.314C175.177 208.909 194.305 228.037 217.899 228.037Z" stroke="#C0C6D5" stroke-width="2.58922"/>
<path d="M217.9 233.585C244.559 233.585 266.17 211.973 266.17 185.314C266.17 158.655 244.559 137.044 217.9 137.044C191.241 137.044 169.629 158.655 169.629 185.314C169.629 211.973 191.241 233.585 217.9 233.585Z" stroke="#C0C6D5" stroke-width="2.58922"/>
<path d="M217.9 151.285C219.125 151.285 220.119 150.291 220.119 149.065C220.119 147.84 219.125 146.846 217.9 146.846C216.674 146.846 215.68 147.84 215.68 149.065C215.68 150.291 216.674 151.285 217.9 151.285Z" fill="#FC766A"/>
<path d="M217.9 223.783C219.125 223.783 220.119 222.789 220.119 221.563C220.119 220.338 219.125 219.344 217.9 219.344C216.674 219.344 215.68 220.338 215.68 221.563C215.68 222.789 216.674 223.783 217.9 223.783Z" fill="#FC766A"/>
<path d="M254.149 187.534C255.374 187.534 256.368 186.54 256.368 185.314C256.368 184.089 255.374 183.095 254.149 183.095C252.923 183.095 251.929 184.089 251.929 185.314C251.929 186.54 252.923 187.534 254.149 187.534Z" fill="#FC766A"/>
<path d="M181.65 187.534C182.876 187.534 183.87 186.54 183.87 185.314C183.87 184.089 182.876 183.095 181.65 183.095C180.425 183.095 179.431 184.089 179.431 185.314C179.431 186.54 180.425 187.534 181.65 187.534Z" fill="#FC766A"/>
<path d="M217.899 189.938C220.249 189.938 222.153 188.034 222.153 185.684C222.153 183.335 220.249 181.431 217.899 181.431C215.55 181.431 213.646 183.335 213.646 185.684C213.646 188.034 215.55 189.938 217.899 189.938Z" stroke="#C0C6D5" stroke-width="2.58922"/>
<path d="M199.405 185.684H213.461" stroke="#C0C6D5" stroke-width="2.58922" stroke-linecap="round"/>
<path d="M139.113 150.73C137.449 150.483 133.713 149.768 132.085 148.88" stroke="#C0C6D5" stroke-width="2.58922" stroke-linecap="round"/>
<path d="M178.136 156.648C173.143 157.08 161.898 157.24 152.429 153.689" stroke="#C0C6D5" stroke-width="2.58922" stroke-linecap="round"/>
<path d="M168.704 182.54C155.943 182.848 128.83 182.207 117.29 177.917" stroke="#C0C6D5" stroke-width="2.58922" stroke-linecap="round"/>
<path d="M136.894 195.671C124.01 195.239 95.3926 193.452 84 189.753" stroke="#C0C6D5" stroke-width="2.58922" stroke-linecap="round"/>
<path d="M217.899 181.431V157.203" stroke="#C0C6D5" stroke-width="2.58922" stroke-linecap="round"/>
<path d="M263.766 170.149C269.499 170.519 281.335 173.663 280.226 166.45C279.654 162.733 275.698 162.055 273.596 162.18C273.464 162.188 273.338 162.132 273.26 162.024C270.879 158.748 264.813 153.737 258.562 158.68" stroke="#C0C6D5" stroke-width="2.58922" stroke-linecap="round"/>
<path d="M194.781 120.673C196.261 114.631 203.474 104.361 220.489 111.611L225.852 114.296" stroke="#C0C6D5" stroke-width="2.58922" stroke-linecap="round"/>
<path d="M220.489 111.611C224.126 109.145 233.065 106.506 237.504 115.68" stroke="#C0C6D5" stroke-width="2.58922" stroke-linecap="round"/>
<path d="M187.199 121.228H200.885" stroke="#C0C6D5" stroke-width="2.58922" stroke-linecap="round"/>
<path d="M142.455 105.616C141.947 102.453 138.855 99.9887 135.044 99.9887C134.324 99.9887 133.604 100.099 132.968 100.246C131.021 97.2669 127.336 95.2439 123.101 95.2439C116.833 95.2439 111.793 99.6577 111.793 105.065" stroke="#C0C6D5" stroke-width="2.58922" stroke-miterlimit="10" stroke-linecap="round" stroke-linejoin="round"/>
<path d="M142.455 105.69C141.072 105.457 137.415 105.653 133.858 108.302M142.455 105.617C146.987 106.095 150.502 109.442 150.502 113.525C150.502 117.938 146.394 121.506 141.312 121.506L116.367 121.469H113.826C108.744 121.469 104.636 117.902 104.636 113.488C104.636 109.663 107.727 106.499 111.835 105.69C113.699 105.31 118.561 104.601 123.101 104.807L142.455 105.617Z" stroke="#C0C6D5" stroke-width="2.58922" stroke-miterlimit="10" stroke-linecap="round" stroke-linejoin="round"/>
</g>
<defs>
<clipPath id="clip0_149_594">
<rect width="367" height="328" fill="white" transform="translate(0 0.243896)"/>
</clipPath>
</defs>
</svg>
