<svg width="220" height="264" viewBox="0 0 220 264" fill="none" xmlns="http://www.w3.org/2000/svg">
<path d="M109.91 123.453C111.988 126.571 114.146 129.828 116.17 132.859C117.364 134.621 118.462 136.236 119.317 137.47C119.688 138.207 120.307 139.108 120.734 139.823C120.514 139.408 120.656 139.486 120.846 139.78C122.219 141.897 120.988 139.858 122.433 141.959C123.237 143.086 125.035 145.831 126.842 148.622C129.394 152.583 131.975 156.577 133.195 158.481C133.369 158.089 133.481 157.849 133.569 157.643C134.023 156.356 134.538 155.114 135.069 153.88C135.334 153.262 135.584 152.638 135.846 152.041C135.941 151.794 136.037 151.548 136.129 151.321C136.194 151.15 136.24 150.993 136.305 150.822L136.279 150.965C136.78 149.608 140.063 142.237 140.668 140.681L140.564 140.881C141.056 139.477 141.105 139.781 141.6 138.751C141.388 138.776 141.795 137.558 141.975 137.126L142.004 137.159C142.264 136.474 142.769 134.9 143.21 133.783L143.276 133.897C143.571 132.919 144.335 131.25 144.591 130.586C145.25 129.117 146.366 126.931 147.098 124.856L147.868 123.737L147.921 123.539L149.343 118.847C149.656 117.767 145.505 118.91 145.478 118.768C145.763 118.727 146.06 118.713 146.144 118.724C146.067 118.672 145.489 118.706 145.181 118.782L145.152 118.946C144.468 119.092 144.974 118.875 144.301 118.96C144.255 118.832 144.863 118.722 145.415 118.634C144.922 118.68 144.408 118.652 144.222 118.82C143.753 118.831 144.251 118.656 143.677 118.67C143.281 118.755 142.779 118.951 142.297 118.936L142.301 118.915C141.156 118.924 140.614 119.344 139.578 119.33L139.677 119.259C139.302 119.221 138.608 119.429 137.949 119.432C138.138 119.44 138.316 119.511 137.924 119.575C137.161 119.58 136.666 119.735 136.099 119.709L135.597 119.905C132.98 120.208 122.688 121.708 120.076 122.079L120.168 122.049C117.589 122.433 113.9 122.926 109.91 123.453Z" fill="#FC766A"/>
<path d="M109.483 82.7554C112.315 81.5306 115.262 80.2419 117.999 79.0671C119.596 78.3619 121.066 77.6939 122.2 77.1564C122.832 77.0117 123.66 76.638 124.29 76.405C123.927 76.5023 124.02 76.3643 124.299 76.2555C126.208 75.4543 124.393 76.1174 126.316 75.2344C127.359 74.7264 129.833 73.6667 132.355 72.6262C135.922 71.1659 139.525 69.6978 141.226 68.9901C140.982 68.6093 140.83 68.396 140.709 68.1954C139.898 67.1094 139.114 65.9685 138.353 64.7931C137.969 64.2258 137.588 63.6381 137.2 63.0913C137.048 62.878 136.899 62.6442 136.746 62.4308C136.635 62.2775 136.536 62.151 136.425 61.9977L136.531 62.0832C135.669 60.89 131.156 53.8361 130.174 52.4423L130.291 52.6633C129.393 51.4777 129.627 51.5262 129.009 50.5168C128.982 50.7686 128.205 49.7836 127.912 49.3838L127.948 49.3761C127.515 48.7897 126.495 47.5122 125.806 46.5182L125.898 46.4887C125.273 45.7171 124.243 44.1073 123.83 43.5068C122.94 42.0835 121.629 39.8156 120.315 38.05L119.714 36.6533L119.587 36.4937L116.534 32.817C115.832 31.993 115.578 37.5171 115.461 37.4929C115.51 37.1184 115.572 36.7708 115.594 36.648C115.527 36.7312 115.4 37.447 115.383 37.8342L115.502 37.9466C115.426 38.858 115.401 38.1256 115.297 39.0037C115.189 39.0268 115.282 38.21 115.357 37.4955C115.264 38.1155 115.103 38.7304 115.173 39.0205C115.051 39.6072 115.054 38.908 114.911 39.6175C114.872 40.1274 114.885 40.833 114.748 41.4133L114.731 41.4069C114.432 42.7989 114.596 43.6296 114.319 44.8989L114.312 44.743C114.2 45.1802 114.153 46.1248 113.976 46.9301C114.035 46.691 114.136 46.512 114.082 47.0156C113.898 47.95 113.866 48.6159 113.694 49.2921L113.708 49.9976C113.24 53.3146 111.627 66.4877 111.208 69.8238L111.214 69.6947C110.753 72.9707 110.142 77.6758 109.483 82.7554Z" fill="white"/>
<path d="M83.6282 212.138C86.338 214.235 89.1862 216.43 91.8187 218.475C93.3749 219.658 94.7963 220.721 95.9159 221.535C96.4403 222.092 97.2507 222.696 97.8383 223.19C97.5275 222.893 97.6679 222.882 97.9249 223.093C99.7469 224.534 98.0778 223.11 99.9431 224.502C100.973 225.236 103.345 227.09 105.742 228.999C109.105 231.704 112.534 234.434 114.156 235.731C114.204 235.268 114.251 235.002 114.275 234.771C114.357 233.337 114.49 231.901 114.644 230.452C114.719 229.737 114.794 229.023 114.865 228.329C114.896 228.057 114.911 227.778 114.942 227.506C114.958 227.315 114.955 227.139 114.972 226.948L114.995 227.111C115.095 225.574 116.134 216.99 116.261 215.202L116.221 215.427C116.292 213.857 116.438 214.112 116.6 212.906C116.422 213.033 116.472 211.674 116.511 211.164L116.54 211.197C116.59 210.429 116.625 208.67 116.746 207.405L116.836 207.484C116.852 206.418 117.096 204.458 117.162 203.696C117.379 201.987 117.808 199.377 117.929 197.039L118.336 195.624L118.34 195.407L118.392 190.24C118.394 189.059 114.911 191.997 114.848 191.863C115.102 191.701 115.356 191.538 115.448 191.509C115.347 191.491 114.847 191.775 114.585 191.978L114.605 192.161C114.007 192.604 114.432 192.159 113.825 192.554C113.739 192.454 114.274 192.074 114.766 191.743C114.321 192.005 113.851 192.214 113.723 192.448C113.289 192.649 113.703 192.265 113.186 192.543C112.846 192.802 112.444 193.213 112.01 193.414L112.014 193.393C110.971 193.901 110.581 194.535 109.634 194.994L109.721 194.896C109.37 195.021 108.793 195.537 108.188 195.824C108.359 195.738 108.548 195.747 108.199 195.959C107.514 196.302 107.084 196.68 106.562 196.889L106.143 197.294C103.842 198.749 94.8462 204.744 92.5532 206.247L92.6361 206.17C90.3646 207.747 87.1153 209.858 83.6282 212.138Z" fill="white"/>
<path d="M164.04 154.252C165.549 157.845 167.114 161.614 168.557 165.093C169.426 167.121 170.22 168.988 170.865 170.424C171.101 171.239 171.555 172.294 171.847 173.087C171.705 172.616 171.824 172.728 171.967 173.091C172.956 175.516 172.102 173.21 173.14 175.654C173.735 176.983 175.031 180.12 176.331 183.325C178.159 187.853 180.008 192.456 180.888 194.619C181.135 194.301 181.276 194.094 181.406 193.948C182.084 192.859 182.82 191.836 183.559 190.792C183.927 190.281 184.295 189.77 184.663 189.258C184.804 189.051 184.941 188.864 185.081 188.657C185.175 188.519 185.253 188.375 185.346 188.237L185.305 188.373C186.046 187.221 190.619 181.168 191.494 179.85L191.348 179.989C192.081 178.79 192.094 179.102 192.762 178.271C192.56 178.235 193.159 177.202 193.417 176.822L193.426 176.87C193.805 176.297 194.582 174.94 195.216 174.008L195.262 174.136C195.724 173.29 196.783 171.912 197.158 171.36C198.079 170.17 199.572 168.395 200.663 166.637L201.624 165.812L201.709 165.626L203.95 161.586C204.446 160.644 200.127 160.494 200.132 160.365C200.434 160.419 200.717 160.486 200.814 160.525C200.74 160.452 200.159 160.31 199.85 160.298L199.788 160.449C199.072 160.385 199.621 160.317 198.929 160.219C198.902 160.077 199.53 160.15 200.102 160.244C199.602 160.134 199.096 159.957 198.886 160.071C198.409 159.927 198.947 159.92 198.37 159.758C197.96 159.728 197.418 159.755 196.961 159.596L196.965 159.576C195.83 159.238 195.216 159.477 194.182 159.157L194.29 159.134C193.934 158.994 193.195 158.965 192.537 158.771C192.734 158.827 192.885 158.952 192.495 158.908C191.736 158.696 191.218 158.688 190.664 158.492L190.122 158.519C187.475 158.022 176.991 156.405 174.333 155.969L174.437 155.967C171.843 155.557 168.077 154.925 164.04 154.252Z" fill="white"/>
<path d="M158.478 98.7937C161.245 100.76 164.155 102.805 166.845 104.719C168.432 105.827 169.884 106.815 171.011 107.588C171.559 108.11 172.377 108.673 172.968 109.147C172.641 108.843 172.794 108.86 173.054 109.05C174.911 110.395 173.207 109.066 175.107 110.363C176.16 111.062 178.574 112.78 181.025 114.578C184.473 117.098 187.963 119.678 189.62 120.878C189.668 120.416 189.682 120.137 189.706 119.906C189.739 118.452 189.821 117.018 189.938 115.577C189.981 114.849 190.04 114.128 190.095 113.428C190.11 113.149 190.125 112.871 190.139 112.592C190.14 112.395 190.153 112.225 190.153 112.028L190.176 112.191C190.227 110.635 191.001 101.99 191.06 100.197L191.016 100.442C191.035 98.8737 191.184 99.1075 191.33 97.8958C191.151 98.0224 191.15 96.665 191.189 96.1551L191.217 96.1883C191.251 95.4137 191.218 93.65 191.29 92.3654L191.38 92.4446C191.364 91.3659 191.54 89.4001 191.59 88.6319C191.758 86.9038 192.106 84.2618 192.143 81.9126L192.501 80.4784L192.489 80.2547L192.368 75.0861C192.334 73.9128 188.955 77.0448 188.892 76.9106C189.15 76.7277 189.388 76.5589 189.48 76.5294C189.379 76.5116 188.887 76.8429 188.642 77.0526L188.662 77.2354C188.092 77.7112 188.485 77.2534 187.907 77.6819C187.821 77.5822 188.343 77.1755 188.819 76.8378C188.386 77.1269 187.916 77.3355 187.801 77.5963C187.376 77.8445 187.781 77.4136 187.277 77.718C186.949 78.0045 186.56 78.4419 186.126 78.6428L186.13 78.6223C185.112 79.184 184.751 79.8513 183.813 80.3567L183.883 80.2532C183.545 80.4042 182.964 80.9413 182.388 81.2612C182.559 81.1754 182.736 81.1575 182.411 81.4235C181.736 81.8137 181.338 82.2037 180.812 82.4341L180.422 82.8714C178.167 84.455 169.414 90.9387 167.167 92.5695L167.25 92.4928C165.038 94.0278 161.877 96.3263 158.478 98.7937Z" fill="white"/>
<path d="M58.9455 154.28C61.8613 155.802 64.903 157.395 67.7253 158.858C69.3756 159.706 70.9163 160.488 72.0993 161.043C72.6779 161.49 73.5373 161.916 74.1826 162.28C73.8447 162.037 73.9851 162.027 74.253 162.176C76.2124 163.233 74.4095 162.172 76.3996 163.154C77.5017 163.676 80.0328 165.024 82.6088 166.412C86.24 168.391 89.9198 170.389 91.6563 171.337C91.6517 170.875 91.6503 170.59 91.6417 170.346C91.5343 168.903 91.4828 167.439 91.451 165.96C91.4253 165.228 91.3996 164.495 91.3863 163.79C91.3688 163.498 91.3638 163.234 91.3463 162.942C91.3268 162.76 91.3272 162.563 91.3077 162.38L91.3506 162.528C91.2489 160.956 91.1645 152.169 91.0704 150.36L91.0627 150.597C90.9286 149.013 91.0974 149.232 91.1103 147.99C90.9445 148.143 90.8226 146.782 90.7929 146.267L90.8253 146.28C90.7744 145.494 90.5847 143.734 90.5365 142.446L90.63 142.505C90.5095 141.429 90.4875 139.407 90.4654 138.654C90.4647 136.903 90.5466 134.2 90.3617 131.829L90.5782 130.317L90.5499 130.087L89.9269 124.917C89.7723 123.74 86.7651 127.412 86.6987 127.299C86.9275 127.082 87.1564 126.866 87.232 126.831C87.1439 126.84 86.6772 127.225 86.4573 127.488L86.4965 127.657C85.9774 128.24 86.3166 127.695 85.7885 128.231C85.6987 128.152 86.1673 127.658 86.589 127.234C86.1944 127.603 85.7621 127.892 85.6627 128.159C85.2789 128.468 85.6233 127.991 85.1603 128.355C84.8737 128.702 84.5256 129.199 84.1131 129.474L84.1005 129.447C83.1583 130.17 82.8549 130.904 81.9919 131.57L82.0497 131.44C81.7363 131.644 81.2261 132.275 80.6677 132.689C80.8262 132.577 81.0061 132.538 80.7106 132.837C80.0854 133.335 79.7284 133.785 79.2367 134.116L78.8886 134.614C76.8288 136.559 68.8576 144.489 66.8265 146.467L66.8932 146.384C64.9322 148.456 62.0614 151.263 58.9455 154.28Z" fill="white"/>
<path d="M19.9672 192.287C21.9798 189.535 24.0861 186.645 26.0481 183.983C27.1752 182.414 28.2158 180.943 29.0058 179.81C29.5068 179.329 30.0856 178.507 30.5526 177.925C30.2732 178.23 30.3059 178.046 30.5097 177.777C31.8928 175.937 30.5424 177.593 31.904 175.678C32.6309 174.608 34.4053 172.222 36.2193 169.808C38.7943 166.425 41.3963 162.987 42.6225 161.347C42.281 161.125 42.078 161.001 41.9072 160.89C40.8286 160.334 39.777 159.722 38.7166 159.063C38.1845 158.744 37.6525 158.425 37.1528 158.118C36.9497 157.994 36.7429 157.891 36.5398 157.767C36.3978 157.689 36.2558 157.611 36.1263 157.56L36.2432 157.584C35.0909 156.955 28.7913 152.939 27.4682 152.198L27.6353 152.33C26.4596 151.735 26.6829 151.648 25.8004 151.059C25.8575 151.322 24.8526 150.839 24.4751 150.624L24.4985 150.59C23.9305 150.278 22.6019 149.667 21.6726 149.147L21.7392 149.064C20.9374 148.704 19.4905 147.783 18.9261 147.451C17.6698 146.627 15.7648 145.264 14.0373 144.363L13.0313 143.398L12.8533 143.328L8.96256 141.64C8.07614 141.269 9.74595 146.589 9.63796 146.612C9.55043 146.227 9.47547 145.869 9.47745 145.76C9.44311 145.856 9.5858 146.613 9.70933 146.99L9.84245 147.02C10.0839 147.904 9.81863 147.252 10.0277 148.122C9.9448 148.199 9.74106 147.396 9.5713 146.695C9.69978 147.336 9.77244 148 9.94121 148.219C10.041 148.828 9.80811 148.189 9.92206 148.912C10.0723 149.431 10.3214 150.076 10.3888 150.672L10.3726 150.665C10.5968 152.132 11.0113 152.821 11.2051 154.167L11.1424 154.033C11.1956 154.513 11.4694 155.409 11.5939 156.268C11.5529 156.011 11.5893 155.806 11.7108 156.292C11.8657 157.272 12.0788 157.925 12.1603 158.636L12.4094 159.281C13.1469 162.636 16.2538 175.853 17.0237 179.221L16.9772 179.093C17.7381 182.413 18.8152 187.171 19.9672 192.287Z" fill="#C0C6D5"/>
<path d="M66.8308 108.504C65.7954 104.681 64.7045 100.684 63.6994 96.9832C63.0967 94.8197 62.5333 92.825 62.0788 91.2889C61.9507 90.4506 61.6286 89.3387 61.4357 88.4749C61.5213 88.9682 61.41 88.8149 61.3188 88.4507C60.6358 85.8616 61.2076 88.2974 60.4724 85.7096C60.0483 84.295 59.1505 80.9647 58.2674 77.5527C57.0249 72.7515 55.7573 67.8968 55.1638 65.5837C54.8755 65.8421 54.7096 65.9955 54.5637 66.1349C53.7417 67.0582 52.8821 67.9009 52.0063 68.7373C51.5684 69.1555 51.1467 69.5801 50.7087 69.9983C50.5393 70.1722 50.3735 70.3256 50.2239 70.4855C50.1175 70.5967 50.0076 70.7285 49.9013 70.8397L49.9752 70.7157C49.0776 71.6748 43.7365 76.5934 42.6965 77.6714L42.855 77.5589C41.9663 78.5652 42.0009 78.2725 41.2262 78.9299C41.4204 79.0065 40.6777 79.8735 40.3784 80.1932L40.3695 80.1459C39.9207 80.6254 38.9706 81.7826 38.2137 82.5346L38.1833 82.4132C37.6064 83.1267 36.3864 84.2432 35.9251 84.6959C34.8511 85.673 33.1341 87.0531 31.8128 88.5454L30.7359 89.1493L30.6222 89.3014L27.86 92.7641C27.2325 93.5671 31.5454 94.6331 31.5236 94.7558C31.2323 94.641 30.941 94.5261 30.8638 94.4738C30.9176 94.5606 31.4766 94.8249 31.7914 94.9052L31.869 94.7608C32.5758 94.9738 32.0127 94.9268 32.696 95.1744C32.7066 95.3099 32.0844 95.1083 31.5342 94.8913C32.0197 95.0828 32.5031 95.3828 32.7227 95.3162C33.1848 95.5422 32.6451 95.4607 33.1881 95.7186C33.5837 95.8308 34.1396 95.9187 34.5782 96.1792L34.5584 96.1933C35.6532 96.7563 36.2939 96.6588 37.2916 97.1835L37.171 97.1798C37.5125 97.402 38.2427 97.5805 38.8791 97.8971C38.7047 97.8065 38.5611 97.6404 38.9531 97.7731C39.683 98.1484 40.1992 98.2645 40.7348 98.5632L41.2745 98.6447C43.8601 99.6862 54.1238 103.515 56.7365 104.501L56.6357 104.483C59.1979 105.559 62.875 106.987 66.8308 108.504Z" fill="white"/>
</svg>
