<svg width="56" height="71" viewBox="0 0 56 71" fill="none" xmlns="http://www.w3.org/2000/svg">
<path d="M1.34577 44.7013L4.46882 44.1335C4.59938 44.1097 4.70961 44.0227 4.76296 43.9012L5.76702 41.6141C5.83248 41.465 5.80081 41.2911 5.68699 41.1746L3.32128 38.7539C3.15662 38.5854 3.17289 38.3117 3.35635 38.1639L7.48837 34.8354C7.66231 34.6953 7.91735 34.7251 8.05426 34.9015L10.5548 38.1245C10.6899 38.2986 10.9404 38.3303 11.1147 38.1955L12.6784 36.9848C12.7919 36.8969 12.8495 36.7548 12.8292 36.6127L12.3283 33.1063C12.2939 32.8658 12.4806 32.6506 12.7235 32.6506H16.9875C17.208 32.6506 17.3868 32.8294 17.3868 33.0499V35.8994C17.3868 36.0664 17.4907 36.2158 17.6473 36.2738L20.7592 37.4263C20.8954 37.4768 21.0482 37.4493 21.1583 37.3546L23.5282 35.3153C23.6993 35.1681 23.9584 35.1919 24.0998 35.3678L26.3298 38.1417C26.4637 38.3083 26.4426 38.5508 26.282 38.6918L24.0508 40.6509C23.9249 40.7615 23.8814 40.939 23.942 41.0952L24.9708 43.7485C25.0466 43.944 25.2607 44.0475 25.461 43.9856L28.3131 43.104C28.5494 43.031 28.7945 43.1882 28.8268 43.4334L29.387 47.6909C29.4122 47.8823 29.2969 48.0642 29.1131 48.1232L26.1101 49.0864C25.9815 49.1276 25.8824 49.2312 25.8469 49.3615L25.1522 51.9086C25.1224 52.0179 25.1404 52.1347 25.2018 52.2299L26.8308 54.7577C26.9455 54.9356 26.9014 55.172 26.7304 55.2966L23.3467 57.7627C23.2054 57.8657 23.0136 57.8647 22.8733 57.7604L20.7305 56.167C20.5998 56.0698 20.4231 56.0618 20.2841 56.1467L18.3587 57.3233C18.2148 57.4113 18.1417 57.5803 18.1761 57.7454L18.6922 60.2226C18.741 60.4572 18.5737 60.6817 18.3349 60.7018L13.6495 61.097C13.4336 61.1152 13.2425 60.9579 13.219 60.7425L12.8939 57.7621C12.875 57.5884 12.7452 57.4472 12.5737 57.4136L10.0502 56.9199C9.89827 56.8902 9.74281 56.951 9.65138 57.0759L8.06167 59.2485C7.92359 59.4373 7.6536 59.4674 7.47726 59.3138L3.94056 56.2335C3.79078 56.103 3.75968 55.8823 3.86758 55.7155L5.75147 52.8041C5.82824 52.6854 5.83657 52.535 5.77337 52.4086L4.25567 49.3732C4.18804 49.238 4.0498 49.1525 3.89858 49.1525H1.41718C1.19669 49.1525 1.01794 48.9738 1.01794 48.7533V45.0941C1.01794 44.9012 1.15593 44.7358 1.34577 44.7013Z" stroke="#243252" stroke-width="0.665399"/>
<path d="M26.8355 55.1409L22.9482 58.0251C22.8068 58.13 22.6134 58.1299 22.4721 58.0248L20.3313 56.433C20.2006 56.3358 20.0239 56.3278 19.8849 56.4127L17.9596 57.5893C17.8156 57.6773 17.7425 57.8462 17.7769 58.0114L18.293 60.4886C18.3419 60.7232 18.1745 60.9477 17.9357 60.9678L13.2503 61.363C13.0344 61.3812 12.8434 61.2238 12.8199 61.0084L12.4947 58.0281C12.4758 57.8544 12.346 57.7131 12.1745 57.6796L9.65106 57.1859C9.4991 57.1561 9.34365 57.217 9.25221 57.3419L7.6625 59.5145C7.52442 59.7032 7.25443 59.7334 7.07809 59.5798L3.54139 56.4995C3.39161 56.369 3.36051 56.1483 3.46841 55.9815L5.3523 53.07C5.42907 52.9514 5.4374 52.801 5.3742 52.6746L3.8565 49.6392C3.78887 49.504 3.65063 49.4185 3.49941 49.4185H1.01801C0.79752 49.4185 0.618774 49.2398 0.618774 49.0193V45.3601C0.618774 45.1671 0.756761 45.0018 0.946596 44.9673L4.06965 44.3994C4.20021 44.3757 4.31045 44.2886 4.36379 44.1671L5.36785 41.8801C5.43331 41.731 5.40164 41.5571 5.28782 41.4406L2.92211 39.0199C2.75745 38.8514 2.77373 38.5777 2.95719 38.4299L7.0892 35.1013C7.26314 34.9612 7.51818 34.9911 7.65509 35.1675L10.1557 38.3905C10.2907 38.5646 10.5413 38.5963 10.7155 38.4614L12.308 37.2285C12.4057 37.1529 12.4629 37.0363 12.4629 36.9128V32.9832" stroke="#243252" stroke-width="0.665399" stroke-linecap="round"/>
<circle cx="15.2576" cy="46.89" r="4.59125" stroke="#243252" stroke-width="0.665399"/>
<path d="M15.7757 51.0918C15.5974 51.1364 15.489 51.317 15.5336 51.4952C15.5782 51.6735 15.7588 51.7819 15.937 51.7373L15.7757 51.0918ZM14.9913 41.9659C14.8076 41.9659 14.6586 42.1148 14.6586 42.2986C14.6586 42.4823 14.8076 42.6313 14.9913 42.6313V41.9659ZM18.9172 46.8898C18.9172 49.0279 17.7452 50.5994 15.7757 51.0918L15.937 51.7373C18.2261 51.1651 19.5826 49.3086 19.5826 46.8898H18.9172ZM14.9913 42.6313C16.2872 42.6313 17.2588 43.1635 17.9125 43.9521C18.5721 44.7479 18.9172 45.8178 18.9172 46.8898H19.5826C19.5826 45.6834 19.1957 44.4577 18.4248 43.5275C17.6478 42.5901 16.4901 41.9659 14.9913 41.9659V42.6313Z" fill="#243252"/>
<circle cx="39.627" cy="32.9166" r="2.9943" stroke="#243252" stroke-width="0.665399"/>
<path d="M42.2886 32.9164H42.6213V32.902L42.6201 32.8876L42.2886 32.9164ZM39.7605 35.6056C39.592 35.6789 39.5148 35.8749 39.5881 36.0434C39.6613 36.2119 39.8573 36.2891 40.0258 36.2158L39.7605 35.6056ZM40.0069 29.6095C39.8342 29.5467 39.6433 29.6357 39.5805 29.8084C39.5177 29.9811 39.6068 30.172 39.7795 30.2348L40.0069 29.6095ZM41.9559 32.9164C41.9559 33.6112 41.7625 34.1139 41.4125 34.5211C41.0531 34.9392 40.5078 35.2807 39.7605 35.6056L40.0258 36.2158C40.8089 35.8753 41.4614 35.4849 41.9171 34.9548C42.3822 34.4138 42.6213 33.7521 42.6213 32.9164H41.9559ZM39.7795 30.2348C40.4716 30.4865 40.9804 30.823 41.3319 31.2549C41.6817 31.6849 41.8953 32.2336 41.9572 32.9452L42.6201 32.8876C42.5489 32.0688 42.2967 31.3865 41.848 30.835C41.401 30.2855 40.7786 29.8901 40.0069 29.6095L39.7795 30.2348Z" fill="#243252"/>
<circle cx="37.8303" cy="55.6732" r="2.52852" stroke="#243252" stroke-width="0.665399"/>
<path d="M40.1594 55.8065L40.4901 55.8427V55.8427L40.1594 55.8065ZM37.8097 57.8809C37.6324 57.9293 37.5279 58.1122 37.5762 58.2895C37.6246 58.4667 37.8075 58.5712 37.9848 58.5229L37.8097 57.8809ZM38.468 52.8958C38.2937 52.8377 38.1053 52.9319 38.0472 53.1062C37.9891 53.2805 38.0833 53.4689 38.2576 53.5271L38.468 52.8958ZM39.8287 55.7703C39.7771 56.2416 39.6021 56.6742 39.2843 57.0332C38.9662 57.3927 38.49 57.6954 37.8097 57.8809L37.9848 58.5229C38.7681 58.3092 39.3647 57.9465 39.7826 57.4742C40.2009 57.0015 40.4252 56.436 40.4901 55.8427L39.8287 55.7703ZM38.2576 53.5271C38.6194 53.6477 39.0547 53.8772 39.3758 54.2402C39.6884 54.5934 39.9038 55.0838 39.8287 55.7703L40.4901 55.8427C40.5869 54.9584 40.3032 54.2842 39.8742 53.7993C39.4536 53.3239 38.9047 53.0413 38.468 52.8958L38.2576 53.5271Z" fill="#243252"/>
<path d="M30.8662 34.7788L31.5334 36.2672C31.5993 36.4141 31.5705 36.5862 31.4604 36.7036L29.8964 38.3718C29.7547 38.523 29.7522 38.7574 29.8905 38.9115L31.7455 40.9785C31.8773 41.1254 32.0968 41.1539 32.2618 41.0454L34.1116 39.8299C34.2305 39.7517 34.3821 39.7428 34.5094 39.8065L35.8131 40.4583C35.9483 40.5259 36.0338 40.6642 36.0338 40.8154V42.6314C36.0338 42.8519 36.2125 43.0306 36.433 43.0306H40.0262C40.2467 43.0306 40.4254 42.8519 40.4254 42.6314V41.3128C40.4254 41.1455 40.5297 40.996 40.6866 40.9382L42.6624 40.2103C42.8338 40.1471 43.0263 40.2084 43.1296 40.3591L44.2856 42.0449C44.4247 42.2478 44.7124 42.2778 44.8904 42.1081L47.1527 39.951C47.3002 39.8103 47.3181 39.581 47.194 39.4191L46.0431 37.918C45.9453 37.7904 45.9336 37.6166 46.0133 37.477L46.8483 36.0159C46.9101 35.9078 47.0187 35.8347 47.1422 35.8182L49.5766 35.4936C49.7824 35.4662 49.9328 35.2856 49.9226 35.0783L49.7608 31.7881C49.7499 31.5666 49.5606 31.3964 49.3392 31.4091L47.6685 31.5046C47.5123 31.5135 47.3653 31.4304 47.2925 31.2919L46.2266 29.2667C46.1412 29.1045 46.1772 28.905 46.314 28.783L47.6698 27.5724C47.8249 27.4339 47.8478 27.1995 47.7223 27.0337L46.3394 25.2063C46.1998 25.0218 45.9332 24.9942 45.7588 25.1461L44.2519 26.4585C44.1146 26.5782 43.9136 26.5897 43.7635 26.4865L42.0343 25.2976C41.9419 25.2341 41.8805 25.1347 41.8651 25.0236L41.6109 23.1934C41.5808 22.9768 41.382 22.8247 41.165 22.8523L38.2457 23.2239C38.0463 23.2493 37.8969 23.4189 37.8969 23.6199V25.296C37.8969 25.4743 37.7787 25.6309 37.6073 25.6799L36.2154 26.0776C36.1004 26.1104 35.9768 26.09 35.8785 26.022L33.7088 24.5199C33.5519 24.4112 33.34 24.4288 33.2032 24.5619L31.3284 26.3846C31.1707 26.5379 31.1667 26.7898 31.3193 26.948L32.6184 28.2952C32.7479 28.4295 32.7671 28.6357 32.6646 28.7916L31.4277 30.6738C31.3539 30.7862 31.2285 30.8538 31.0941 30.8538H29.4551C29.2585 30.8538 29.0912 30.997 29.0607 31.1912L28.6435 33.8509C28.6092 34.0695 28.7593 34.2743 28.9781 34.3075L30.5617 34.5474C30.696 34.5678 30.8107 34.6549 30.8662 34.7788Z" stroke="#243252" stroke-width="0.665399"/>
<path d="M47.28 27.7941C47.3908 27.9406 47.5995 27.9695 47.746 27.8586C47.8925 27.7477 47.9214 27.5391 47.8105 27.3926L47.28 27.7941ZM29.5175 38.4334C29.404 38.5779 29.4291 38.787 29.5735 38.9006C29.718 39.0141 29.9272 38.989 30.0407 38.8445L29.5175 38.4334ZM45.3596 25.4122L45.1411 25.1613L45.3596 25.4122ZM45.9402 25.4724L45.6749 25.6731L45.9402 25.4724ZM43.3644 26.7526L43.1759 27.0267L43.3644 26.7526ZM41.4659 25.2897L41.7954 25.2439L41.4659 25.2897ZM41.6352 25.5638L41.4467 25.8379L41.6352 25.5638ZM40.7659 23.1184L40.7239 22.7884L40.7659 23.1184ZM41.2117 23.4596L40.8822 23.5053L41.2117 23.4596ZM37.2082 25.946L37.1168 25.6261L37.2082 25.946ZM35.4793 26.2881L35.2899 26.5616L35.4793 26.2881ZM35.8162 26.3437L35.7248 26.0238L35.8162 26.3437ZM33.3096 24.786L33.1202 25.0595L33.3096 24.786ZM32.2654 29.0577L31.9874 28.875L32.2654 29.0577ZM31.0285 30.9399L30.7505 30.7572L31.0285 30.9399ZM28.5789 34.5736L28.6288 34.2446L28.5789 34.5736ZM28.2443 34.117L27.9156 34.0654L28.2443 34.117ZM30.4671 35.045L30.1635 35.1811L30.4671 35.045ZM30.1626 34.8135L30.2124 34.4846L30.1626 34.8135ZM31.0939 36.9656L31.3555 37.1711L31.0939 36.9656ZM31.4478 36.4195L30.7707 34.9089L30.1635 35.1811L30.8407 36.6917L31.4478 36.4195ZM30.2124 34.4846L28.6288 34.2446L28.5291 34.9025L30.1127 35.1425L30.2124 34.4846ZM28.573 34.1685L28.9902 31.5089L28.3328 31.4057L27.9156 34.0654L28.573 34.1685ZM29.0559 31.4526H30.6949V30.7872H29.0559V31.4526ZM31.3066 31.1227L32.5435 29.2404L31.9874 28.875L30.7505 30.7572L31.3066 31.1227ZM32.4587 28.3304L31.1596 26.9832L30.6806 27.4451L31.9797 28.7923L32.4587 28.3304ZM31.1611 26.8893L33.036 25.0665L32.5721 24.5894L30.6973 26.4122L31.1611 26.8893ZM33.1202 25.0595L35.2899 26.5616L35.6687 26.0145L33.499 24.5124L33.1202 25.0595ZM35.9076 26.6636L37.2996 26.2659L37.1168 25.6261L35.7248 26.0238L35.9076 26.6636ZM37.8304 25.5621V23.886H37.165V25.5621H37.8304ZM37.8886 23.82L40.8079 23.4485L40.7239 22.7884L37.8045 23.1599L37.8886 23.82ZM40.8822 23.5053L41.1364 25.3355L41.7954 25.2439L41.5413 23.4138L40.8822 23.5053ZM41.4467 25.8379L43.1759 27.0267L43.5529 26.4784L41.8236 25.2896L41.4467 25.8379ZM44.0713 26.9755L45.5781 25.6631L45.1411 25.1613L43.6343 26.4738L44.0713 26.9755ZM45.6749 25.6731L47.28 27.7941L47.8105 27.3926L46.2055 25.2716L45.6749 25.6731ZM30.0407 38.8445L31.3555 37.1711L30.8323 36.76L29.5175 38.4334L30.0407 38.8445ZM45.5781 25.6631C45.6072 25.6378 45.6516 25.6424 45.6749 25.6731L46.2055 25.2716C45.9496 24.9335 45.4609 24.8828 45.1411 25.1613L45.5781 25.6631ZM43.1759 27.0267C43.4511 27.2159 43.8194 27.1949 44.0713 26.9755L43.6343 26.4738C43.6114 26.4937 43.5779 26.4956 43.5529 26.4784L43.1759 27.0267ZM41.1364 25.3355C41.1646 25.5391 41.2773 25.7214 41.4467 25.8379L41.8236 25.2896C41.8082 25.279 41.798 25.2624 41.7954 25.2439L41.1364 25.3355ZM40.8079 23.4485C40.844 23.4439 40.8772 23.4692 40.8822 23.5053L41.5413 23.4138C41.4861 23.0166 41.1216 22.7378 40.7239 22.7884L40.8079 23.4485ZM37.8304 23.886C37.8304 23.8525 37.8553 23.8243 37.8886 23.82L37.8045 23.1599C37.439 23.2065 37.165 23.5175 37.165 23.886H37.8304ZM37.2996 26.2659C37.6138 26.1761 37.8304 25.8889 37.8304 25.5621H37.165C37.165 25.5918 37.1453 25.618 37.1168 25.6261L37.2996 26.2659ZM35.2899 26.5616C35.4702 26.6864 35.6968 26.7238 35.9076 26.6636L35.7248 26.0238C35.7057 26.0293 35.6851 26.0259 35.6687 26.0145L35.2899 26.5616ZM33.036 25.0665C33.0588 25.0444 33.0941 25.0414 33.1202 25.0595L33.499 24.5124C33.2113 24.3133 32.823 24.3456 32.5721 24.5894L33.036 25.0665ZM31.1596 26.9832C31.1342 26.9568 31.1348 26.9148 31.1611 26.8893L30.6973 26.4122C30.4083 26.6932 30.4008 27.1549 30.6806 27.4451L31.1596 26.9832ZM32.5435 29.2404C32.7313 28.9545 32.6961 28.5766 32.4587 28.3304L31.9797 28.7923C32.0013 28.8147 32.0045 28.849 31.9874 28.875L32.5435 29.2404ZM30.6949 31.4526C30.9413 31.4526 31.1712 31.3286 31.3066 31.1227L30.7505 30.7572C30.7382 30.776 30.7173 30.7872 30.6949 30.7872V31.4526ZM28.9902 31.5089C28.9953 31.4765 29.0232 31.4526 29.0559 31.4526V30.7872C28.6955 30.7872 28.3887 31.0497 28.3328 31.4057L28.9902 31.5089ZM28.6288 34.2446C28.5923 34.2391 28.5673 34.205 28.573 34.1685L27.9156 34.0654C27.8528 34.4663 28.1279 34.8418 28.5291 34.9025L28.6288 34.2446ZM30.7707 34.9089C30.6688 34.6817 30.4585 34.5219 30.2124 34.4846L30.1127 35.1425C30.1351 35.1459 30.1542 35.1604 30.1635 35.1811L30.7707 34.9089ZM30.8407 36.6917C30.8508 36.7143 30.8475 36.7406 30.8323 36.76L31.3555 37.1711C31.5235 36.9572 31.5591 36.6678 31.4478 36.4195L30.8407 36.6917Z" fill="#243252"/>
<path d="M46.0985 53.0743L44.6731 53.959C44.5558 54.0319 44.4844 54.1602 44.4844 54.2982V55.9351C44.4844 56.0984 44.5838 56.2452 44.7354 56.3058L45.8413 56.7482C46.0192 56.8193 46.1215 57.0069 46.0849 57.1951L45.745 58.9432C45.7085 59.1308 45.5442 59.2663 45.3531 59.2663H43.3533C43.2276 59.2663 43.1093 59.3254 43.0339 59.426L42.3198 60.3781C42.2208 60.51 42.2132 60.6893 42.3006 60.8292L43.2582 62.3613C43.3813 62.5583 43.3109 62.8184 43.1052 62.9264L41.1682 63.9434C40.9769 64.0438 40.7405 63.9739 40.6346 63.7856L39.7415 62.1979C39.6708 62.0722 39.5378 61.9944 39.3935 61.9944H37.5047C37.34 61.9944 37.1923 62.0955 37.1326 62.2489L36.4342 64.0448C36.3585 64.2394 36.1456 64.3429 35.9459 64.2821L33.6551 63.5849C33.4314 63.5168 33.3138 63.2718 33.4007 63.0546L34.0445 61.4451C34.1173 61.2631 34.0472 61.0553 33.8792 60.9545L32.3861 60.0586C32.2565 59.9808 32.094 59.983 31.9664 60.0641L31.0841 60.6256C30.8844 60.7527 30.6186 60.679 30.5127 60.4673L29.5518 58.5454C29.4558 58.3535 29.5287 58.12 29.7169 58.0168L31.2353 57.1841C31.3632 57.114 31.4426 56.9798 31.4426 56.8341V55.0977C31.4426 54.9591 31.3707 54.8304 31.2526 54.7577L30.0125 53.9946C29.8411 53.8891 29.775 53.6726 29.8583 53.4894L30.562 51.9414C30.6465 51.7554 30.8578 51.6632 31.0517 51.7278L32.4065 52.1795C32.5825 52.2381 32.7756 52.1679 32.8728 52.01L33.6428 50.7588C33.7217 50.6305 33.7217 50.4686 33.6428 50.3403L32.9099 49.1494C32.7968 48.9656 32.8502 48.7252 33.0305 48.6066L34.8647 47.3999C35.0628 47.2696 35.3302 47.3396 35.4389 47.5503L36.1885 49.0026C36.257 49.1354 36.3939 49.2187 36.5433 49.2187H38.6709C38.8442 49.2187 38.9977 49.107 39.0509 48.9421L39.4963 47.5613C39.5671 47.3418 39.8086 47.2278 40.023 47.3126L42.1399 48.1494C42.3358 48.2269 42.4378 48.4432 42.3729 48.6436L41.8434 50.2805C41.7912 50.4417 41.8465 50.6182 41.9813 50.7209L42.9136 51.4313C43.0556 51.5395 43.2522 51.5402 43.3951 51.4331L44.6417 50.4982C44.8384 50.3506 45.1204 50.4143 45.2347 50.632L46.2414 52.5495C46.3387 52.7349 46.2764 52.9639 46.0985 53.0743Z" stroke="#243252" stroke-width="0.665399"/>
<path d="M39.7997 47.4888L41.8629 48.3841C42.0514 48.4659 42.147 48.6773 42.084 48.8729L41.5695 50.4688C41.5176 50.6297 41.5727 50.8058 41.707 50.9085L42.6019 51.5927C42.7442 51.7015 42.9414 51.7022 43.0845 51.5945L44.2795 50.6952C44.4763 50.547 44.7591 50.6108 44.8733 50.8291L45.8432 52.6829C45.94 52.868 45.8778 53.0964 45.7005 53.2069L44.3255 54.0633C44.2085 54.1362 44.1373 54.2643 44.1373 54.4022V55.9895C44.1373 56.1526 44.2365 56.2993 44.3879 56.36L45.4499 56.7863C45.6275 56.8576 45.7296 57.0449 45.6932 57.2328L45.3653 58.9247C45.329 59.1124 45.1646 59.248 44.9734 59.248H43.0426C42.9167 59.248 42.7981 59.3074 42.7228 59.4082L42.0347 60.3288C41.9362 60.4606 41.9287 60.6393 42.0156 60.7789L42.9394 62.2621C43.0619 62.4589 42.9917 62.7183 42.7866 62.8264L40.9207 63.8094C40.7292 63.9102 40.4922 63.8402 40.3864 63.6514L39.5256 62.1157C39.455 61.9897 39.3218 61.9117 39.1773 61.9117H37.3622C37.1933 61.9117 37.0427 62.018 36.9861 62.1771L36.4331 63.7308" stroke="#243252" stroke-width="0.665399" stroke-linecap="round"/>
<path d="M22.9584 29.4991C23.218 28.4305 24.4646 26.3346 24.9028 24.9763C24.9483 24.8355 25.2396 24.8168 25.2885 24.9564C25.9551 26.8587 26.758 28.6891 26.989 29.4991C27.2478 30.4068 27.3329 32.6923 25.0543 32.6496C22.7757 32.6068 22.7077 30.5314 22.9584 29.4991Z" fill="#243252"/>
<path d="M27.1858 20.7848C27.3511 20.1094 28.0983 18.8326 28.4472 17.9112C28.4995 17.773 28.8135 17.7581 28.8638 17.8971C29.3053 19.1174 29.8067 20.2623 29.9568 20.7848C30.1347 21.4044 30.1932 22.9643 28.6267 22.9352C27.0602 22.906 27.0134 21.4895 27.1858 20.7848Z" fill="#243252"/>
<path d="M28.5814 14.4784L30.7348 10.788C30.8031 10.671 30.9054 10.5776 31.0282 10.5203L38.528 7.02092C38.7723 6.90692 39.0648 6.94987 39.2259 7.16606C39.5314 7.57611 39.865 8.23214 39.8915 9.02385C39.9007 9.29672 39.6994 9.52164 39.4355 9.5918L32.3137 11.4855C32.1524 11.5284 32.0131 11.6304 31.9235 11.7711L29.8987 14.9504" stroke="#243252" stroke-width="0.665399" stroke-linecap="round"/>
<path d="M30.1699 15.1071C30.3009 14.4728 28.862 13.9654 28.3387 14.2191C27.9463 14.4728 28.3387 14.9802 28.9928 15.2339C29.516 15.4369 30.1699 15.3608 30.1699 15.1071Z" fill="#243252"/>
<path d="M38.8285 6.92696C38.9204 5.17351 40.3762 1.47333 45.4218 0.385667C45.6492 0.336655 45.8862 0.41639 46.032 0.597611C47.3366 2.21926 49.3667 5.93452 48.8643 10.1641C48.832 10.4353 48.6277 10.6519 48.3596 10.7039C45.7004 11.2201 41.2141 11.5037 39.8931 9.42798" stroke="#243252" stroke-width="0.665399" stroke-linecap="round"/>
</svg>
