<svg width="86" height="72" viewBox="0 0 86 72" fill="none" xmlns="http://www.w3.org/2000/svg">
<path d="M19.6865 31.9681C18.2276 31.3501 16.6231 31.0081 14.9388 31.0081C8.21257 31.0081 2.75989 36.4609 2.75989 43.187C2.75989 49.9132 8.21257 55.3659 14.9388 55.3659C21.665 55.3659 27.1177 49.9132 27.1177 43.187C27.1177 40.2471 26.0761 37.5506 24.3417 35.4461" stroke="#243252" stroke-width="1.03211" stroke-linecap="round"/>
<path d="M45.1797 20.9963C46.9343 26.8105 54.1797 39.5949 69.1247 44.2187" stroke="#243252" stroke-width="1.03211" stroke-linecap="round"/>
<path d="M69.1245 45.7671C69.5718 51.9942 70.1979 65.3153 69.1245 68.7832" stroke="#243252" stroke-width="1.03211" stroke-linecap="round"/>
<path d="M69.7438 70.2284C72.4617 71.8455 78.0419 72.8706 78.6199 64.0357C79.1979 55.2009 78.1728 44.0473 77.5878 39.5747" stroke="#243252" stroke-width="1.03211" stroke-linecap="round"/>
<path d="M79.3425 41.9483C82.1292 38.7488 90.3861 27.2924 80.7875 10.5723" stroke="#243252" stroke-width="1.03211" stroke-linecap="round"/>
<path d="M78.4136 7.78598C73.5627 2.83133 70.9824 0.955252 67.6796 3.65758C66.4411 4.67093 66.1315 6.96019 67.9893 9.8501" stroke="#243252" stroke-width="1.03211" stroke-linecap="round"/>
<path d="M41.567 9.23017C41.1542 6.54668 41.991 2.33412 45.5923 1.38629C47.5533 0.87015 50.2368 3.16673 50.9592 4.48273" stroke="#243252" stroke-width="1.03211" stroke-linecap="round"/>
<path d="M54.5719 16.3521C56.1859 23.22 62.0846 36.1621 72.781 33.0895C72.8196 33.0784 72.8576 33.0635 72.8929 33.0445C75.6625 31.5558 78.4436 25.8802 73.3563 18.0034" stroke="#243252" stroke-width="1.03211" stroke-linecap="round"/>
<path d="M55.191 18.1067L67.5764 10.5723C69.5465 9.07779 74.4269 6.47008 78.3648 7.83393C78.4647 7.86857 78.5527 7.93118 78.621 8.01195L80.4936 10.2249C80.6685 10.4316 80.6893 10.7283 80.5411 10.955C77.9875 14.8628 76.1346 15.8062 72.6337 18.1067" stroke="#243252" stroke-width="1.03211" stroke-linecap="round"/>
<path d="M46.5214 24.8152L26.4984 38.8519" stroke="#243252" stroke-width="1.03211" stroke-linecap="round"/>
<path d="M57.9778 24.9188C65.3058 21.719 64.9961 21.719 72.737 18.1069" stroke="#243252" stroke-width="1.03211" stroke-linecap="round"/>
<path d="M27.2208 41.1226L48.9984 29.563" stroke="#243252" stroke-width="1.03211" stroke-linecap="round"/>
<path d="M60.5175 20.3858L69.084 15.5349" stroke="#243252" stroke-width="1.03211" stroke-linecap="round"/>
<path d="M44.8701 19.1388C44.1269 20.3773 42.8058 21.2031 41.7737 21.9256L5.54655 50.1022C4.20481 50.9279 3.79201 50.3084 3.58558 49.8956C3.21343 49.1514 4.20483 48.3553 4.41123 48.1412C17.347 34.7238 38.3058 13.1319 40.5352 10.5723" stroke="#243252" stroke-width="1.03211" stroke-linecap="round"/>
<path d="M50.9595 4.48291C52.1311 6.02065 53.4665 8.26758 54.5101 10.4091C54.551 10.4929 54.5719 10.5848 54.5719 10.6781V16.5586" stroke="#243252" stroke-width="1.03211" stroke-linecap="round"/>
<path d="M23.3615 32.6677L40.3913 16.8765" stroke="#243252" stroke-width="1.03211" stroke-linecap="round"/>
<path d="M39.9159 31.9367L45.3861 28.1179" stroke="#243252" stroke-width="1.03211" stroke-linecap="round"/>
<path d="M44.87 19.2419C45.6614 17.1777 48.6475 12.5333 54.2622 10.469" stroke="#243252" stroke-width="1.03211" stroke-linecap="round"/>
<path d="M40.6383 10.4692C43.0811 8.88659 48.8952 6.03109 52.6108 7.26962" stroke="#243252" stroke-width="1.03211" stroke-linecap="round"/>
<path d="M9.05577 64.4483C13.6729 64.4483 17.4159 63.5241 17.4159 62.384C17.4159 61.2442 13.6729 60.3198 9.05577 60.3198C4.43862 60.3198 0.695679 61.2442 0.695679 62.384C0.695679 63.5241 4.43862 64.4483 9.05577 64.4483Z" fill="#243252"/>
<path d="M3.99841 37.8206C5.99383 36.3411 9.77823 34.4142 14.4227 37.8206" stroke="#243252" stroke-width="1.03211" stroke-linecap="round"/>
<path d="M17.0031 41.3296C18.5168 43.0497 21.0902 48.059 19.2737 54.3342" stroke="#243252" stroke-width="1.03211" stroke-linecap="round"/>
</svg>
