<svg width="72" height="72" viewBox="0 0 72 72" fill="none" xmlns="http://www.w3.org/2000/svg">
<path d="M27.3284 24.2124C21.765 23.3045 15.861 25.0068 11.5466 29.3194C9.8435 31.0217 8.59458 32.951 7.68628 34.9937C11.6601 34.2561 16.2584 34.1426 21.1973 34.7667C22.7869 31.1352 24.8305 27.5603 27.3284 24.2124Z" stroke="#243252" stroke-width="1.00795" stroke-miterlimit="10" stroke-linecap="round" stroke-linejoin="round"/>
<path d="M42.5993 60.3582C40.953 62.0605 38.9661 63.3089 36.9224 64.2168C37.8894 60.0237 37.4901 53.322 37.1494 50.6551C40.7827 49.123 44.3023 47.0802 47.7085 44.5835C48.6168 50.2011 46.9137 56.0457 42.5993 60.3582Z" stroke="#243252" stroke-width="1.00795" stroke-miterlimit="10" stroke-linecap="round" stroke-linejoin="round"/>
<path d="M32.7781 42.1436C35.503 44.6403 38.3982 46.683 41.5205 48.4421" stroke="#243252" stroke-width="1.00795" stroke-miterlimit="10" stroke-linecap="round" stroke-linejoin="round"/>
<path d="M23.468 30.3408C25.1711 33.405 27.2715 36.3556 29.7694 39.0793" stroke="#243252" stroke-width="1.00795" stroke-miterlimit="10" stroke-linecap="round" stroke-linejoin="round"/>
<path d="M22.5029 49.407C21.6514 48.5558 21.6514 47.194 22.5029 46.3428L33.8567 34.9941C34.7083 34.1429 36.0707 34.1429 36.9223 34.9941C37.7738 35.8452 37.7738 37.2071 36.9223 38.0582L25.5684 49.407C24.7169 50.2581 23.3544 50.2581 22.5029 49.407Z" stroke="#243252" stroke-width="1.00795" stroke-miterlimit="10" stroke-linecap="round" stroke-linejoin="round"/>
<path d="M29.7126 45.2077C32.0402 47.3072 34.4812 49.123 37.0358 50.7118C43.2237 48.0449 49.2412 44.016 54.5775 38.6821M26.6471 42.1435C24.5466 39.8738 22.73 37.377 21.1405 34.8236C23.8654 28.6385 27.8393 22.6237 33.1756 17.2898C38.3429 12.1514 44.1477 8.21215 50.1383 5.53078M59.4207 33.2067C67.1436 23.2981 70.9587 11.7812 70.5296 1.34482C65.3474 1.13195 59.9086 1.96415 54.53 3.80034" stroke="#243252" stroke-width="1.00795" stroke-miterlimit="10" stroke-linecap="round" stroke-linejoin="round"/>
<path d="M57.0186 3.04712C58.4946 5.4871 60.1976 7.7001 62.2413 9.68613C64.285 11.7289 66.499 13.4312 68.8833 14.8498" stroke="#243252" stroke-width="1.00795" stroke-miterlimit="10" stroke-linecap="round" stroke-linejoin="round"/>
<path d="M9.5499 51.4331C9.56417 51.6314 9.7365 51.7806 9.9348 51.7663C10.1331 51.752 10.2823 51.5797 10.268 51.3814L9.5499 51.4331ZM4.00349 46.6218L3.84025 46.3009L3.84025 46.3009L4.00349 46.6218ZM3.09273 53.0418C3.23633 53.1793 3.46421 53.1743 3.6017 53.0307C3.73919 52.8871 3.73424 52.6592 3.59063 52.5218L3.09273 53.0418ZM10.268 51.3814C10.188 50.2699 9.70576 48.4828 8.69633 47.2225C8.18692 46.5865 7.52743 46.0655 6.69965 45.8544C5.86708 45.6421 4.91227 45.7555 3.84025 46.3009L4.16672 46.9426C5.11658 46.4594 5.8918 46.3914 6.52175 46.5521C7.15648 46.714 7.69199 47.1202 8.13438 47.6726C9.02856 48.789 9.4772 50.4234 9.5499 51.4331L10.268 51.3814ZM3.84025 46.3009C2.26787 47.1009 1.62858 48.3833 1.62622 49.682C1.62391 50.9547 2.23139 52.2171 3.09273 53.0418L3.59063 52.5218C2.85681 51.8192 2.34427 50.7398 2.34619 49.6833C2.34806 48.6529 2.83725 47.619 4.16672 46.9426L3.84025 46.3009Z" fill="#243252"/>
<path d="M8.30239 54.4803C8.42522 54.6367 8.65152 54.6638 8.80785 54.541C8.96418 54.4182 8.99134 54.1919 8.86852 54.0355L8.30239 54.4803ZM3.8509 57.7707L4.19935 57.6803L3.8509 57.7707ZM10.8476 60.3254C11.0213 60.2288 11.084 60.0096 10.9874 59.8359C10.8909 59.6621 10.6717 59.5994 10.4979 59.696L10.8476 60.3254ZM8.86852 54.0355C8.50456 53.5723 7.8914 53.3368 7.25877 53.2785C6.6171 53.2193 5.89775 53.3349 5.25206 53.6378C4.60404 53.9418 4.01658 54.4414 3.6672 55.1581C3.31632 55.8779 3.22252 56.7819 3.50245 57.8611L4.19935 57.6803C3.95497 56.7381 4.05083 56.0142 4.31436 55.4736C4.5794 54.9299 5.03112 54.5367 5.55781 54.2896C6.08683 54.0415 6.67774 53.9479 7.19265 53.9954C7.71659 54.0437 8.10633 54.2308 8.30239 54.4803L8.86852 54.0355ZM3.50245 57.8611C3.66995 58.5068 4.10374 59.0505 4.65508 59.4805C5.20773 59.9115 5.89834 60.2445 6.62408 60.467C8.05635 60.9061 9.73369 60.9442 10.8476 60.3254L10.4979 59.696C9.62631 60.1802 8.17582 60.1897 6.83509 59.7787C6.17433 59.5761 5.56714 59.2788 5.09784 58.9128C4.62724 58.5458 4.31494 58.1259 4.19935 57.6803L3.50245 57.8611Z" fill="#243252"/>
<path d="M10.8912 58.5069C10.7076 58.5831 10.6204 58.7937 10.6966 58.9773C10.7727 59.161 10.9833 59.2481 11.167 59.172L10.8912 58.5069ZM10.4691 63.2685L10.6003 63.6037L10.4691 63.2685ZM9.40347 61.854C9.4095 61.6552 9.25328 61.4893 9.05456 61.4832C8.85584 61.4772 8.68986 61.6334 8.68384 61.8322L9.40347 61.854ZM11.167 59.172C11.4815 59.0416 11.8932 58.9716 12.1813 59.0751C12.3105 59.1215 12.417 59.2027 12.4927 59.3455C12.5726 59.4962 12.6321 59.7427 12.6045 60.138L13.3227 60.1881C13.3563 59.7078 13.2914 59.315 13.1288 59.0082C12.9619 58.6936 12.7076 58.4992 12.4248 58.3976C11.8891 58.205 11.2724 58.3488 10.8912 58.5069L11.167 59.172ZM12.6045 60.138C12.551 60.9047 12.1761 61.5283 11.7066 62.0055C11.2346 62.4854 10.6855 62.7973 10.3379 62.9333L10.6003 63.6037C11.0333 63.4343 11.6704 63.0691 12.2199 62.5104C12.772 61.9491 13.254 61.1728 13.3227 60.1881L12.6045 60.138ZM10.3379 62.9333C10.147 63.008 9.91473 62.9911 9.73806 62.8581C9.57003 62.7316 9.3855 62.4472 9.40347 61.854L8.68384 61.8322C8.66109 62.5829 8.89656 63.1258 9.30507 63.4333C9.70495 63.7343 10.2057 63.7581 10.6003 63.6037L10.3379 62.9333Z" fill="#243252"/>
<path d="M14.4398 68.767C15.1526 69.4797 17.0566 70.5895 18.9708 69.327" stroke="#243252" stroke-width="0.719964" stroke-linecap="round"/>
<path d="M17.5831 63.2325C17.6756 63.4085 17.8932 63.4762 18.0692 63.3837C18.2452 63.2912 18.3129 63.0736 18.2205 62.8976L17.5831 63.2325ZM15.9928 67.8459C16.1871 67.8037 16.3103 67.6119 16.2681 67.4177C16.2259 67.2234 16.0341 67.1001 15.8399 67.1424L15.9928 67.8459ZM18.2205 62.8976C17.9316 62.3479 17.3424 61.6411 16.4941 61.3739C15.6064 61.0942 14.5475 61.3284 13.4218 62.4541L13.9309 62.9632C14.9229 61.9712 15.7138 61.8829 16.2778 62.0606C16.8813 62.2507 17.3459 62.781 17.5831 63.2325L18.2205 62.8976ZM13.4218 62.4541C12.7093 63.1666 12.3915 63.8983 12.3849 64.6056C12.3783 65.3067 12.6779 65.9258 13.0875 66.4195C13.4967 66.9126 14.031 67.3005 14.5424 67.5497C15.0355 67.79 15.5792 67.9358 15.9928 67.8459L15.8399 67.1424C15.668 67.1797 15.3081 67.1219 14.8578 66.9025C14.4257 66.6919 13.9769 66.3639 13.6415 65.9597C13.3066 65.5561 13.1003 65.0966 13.1048 64.6124C13.1093 64.1345 13.3197 63.5744 13.9309 62.9632L13.4218 62.4541Z" fill="#243252"/>
<path d="M21.8019 61.0345C21.6083 60.9892 21.4147 61.1094 21.3694 61.3029C21.3241 61.4965 21.4443 61.6902 21.6378 61.7355L21.8019 61.0345ZM25.9453 66.425L26.295 66.5107L25.9453 66.425ZM20.351 67.4763C20.1725 67.3888 19.9568 67.4626 19.8693 67.6411C19.7818 67.8196 19.8556 68.0353 20.0341 68.1228L20.351 67.4763ZM21.6378 61.7355C22.3952 61.9127 23.5818 62.3825 24.4773 63.1627C25.3609 63.9324 25.9315 64.9703 25.5957 66.3392L26.295 66.5107C26.7138 64.803 25.9693 63.5076 24.9502 62.6198C23.9432 61.7425 22.6397 61.2306 21.8019 61.0345L21.6378 61.7355ZM25.5957 66.3392C25.449 66.9373 25.1601 67.3393 24.7967 67.6079C24.4277 67.8806 23.9591 68.0323 23.4345 68.084C22.3771 68.1884 21.1716 67.8786 20.351 67.4763L20.0341 68.1228C20.9445 68.5691 22.2845 68.921 23.5052 68.8005C24.1197 68.7399 24.7234 68.5574 25.2247 68.1869C25.7315 67.8122 26.1107 67.2618 26.295 66.5107L25.5957 66.3392Z" fill="#243252"/>
<path d="M17.3418 51.6106C17.2196 51.8142 13.6594 54.0373 11.8945 55.1233" stroke="#243252" stroke-width="0.719964" stroke-linecap="round"/>
<path d="M18.7163 53.7996L14.389 58.1268" stroke="#243252" stroke-width="0.719964" stroke-linecap="round"/>
<path d="M20.7017 55.2759L17.3926 60.2141" stroke="#243252" stroke-width="0.719964" stroke-linecap="round"/>
<circle cx="48.7473" cy="22.9831" r="6.0477" stroke="#243252" stroke-width="0.719964"/>
</svg>
