<svg width="434" height="434" viewBox="0 0 434 434" fill="none" xmlns="http://www.w3.org/2000/svg">
<path d="M165.186 144.673C131.011 139.096 94.7437 149.553 68.2406 176.044C57.7789 186.501 50.1069 198.352 44.5273 210.901C68.9381 206.37 97.1847 205.672 127.524 209.507C137.288 187.198 149.842 165.238 165.186 144.673Z" stroke="#243252" stroke-width="6.19169" stroke-miterlimit="10" stroke-linecap="round" stroke-linejoin="round"/>
<path d="M258.994 366.711C248.881 377.168 236.675 384.837 224.121 390.414C230.061 364.656 227.608 323.489 225.516 307.106C247.834 297.695 269.455 285.146 290.379 269.809C295.958 304.317 285.497 340.22 258.994 366.711Z" stroke="#243252" stroke-width="6.19169" stroke-miterlimit="10" stroke-linecap="round" stroke-linejoin="round"/>
<path d="M198.663 254.821C215.402 270.158 233.187 282.706 252.367 293.512" stroke="#243252" stroke-width="6.19169" stroke-miterlimit="10" stroke-linecap="round" stroke-linejoin="round"/>
<path d="M141.472 182.319C151.933 201.141 164.836 219.267 180.18 235.998" stroke="#243252" stroke-width="6.19169" stroke-miterlimit="10" stroke-linecap="round" stroke-linejoin="round"/>
<path d="M135.544 299.438C130.313 294.209 130.313 285.844 135.544 280.615L205.289 210.901C210.52 205.673 218.889 205.673 224.12 210.901C229.351 216.13 229.351 224.496 224.12 229.724L154.375 299.438C149.144 304.666 140.775 304.666 135.544 299.438Z" stroke="#243252" stroke-width="6.19169" stroke-miterlimit="10" stroke-linecap="round" stroke-linejoin="round"/>
<path d="M179.833 273.643C194.131 286.54 209.126 297.694 224.819 307.454C262.83 291.072 299.794 266.323 332.574 233.558M161.002 254.821C148.099 240.878 136.94 225.541 127.176 209.855C143.915 171.861 168.325 134.913 201.105 102.148C232.848 70.5831 268.505 46.3851 305.305 29.9138M362.325 199.923C409.766 139.056 433.202 68.3089 430.566 4.20004C398.732 2.89238 365.323 8.00451 332.283 19.284" stroke="#243252" stroke-width="6.19169" stroke-miterlimit="10" stroke-linecap="round" stroke-linejoin="round"/>
<path d="M347.568 14.6566C356.635 29.6451 367.097 43.2392 379.651 55.4391C392.205 67.9876 405.805 78.4446 420.452 87.1588" stroke="#243252" stroke-width="6.19169" stroke-miterlimit="10" stroke-linecap="round" stroke-linejoin="round"/>
<path d="M55.9759 311.882C56.0636 313.101 57.1222 314.017 58.3403 313.929C59.5584 313.842 60.4748 312.783 60.3871 311.565L55.9759 311.882ZM21.9051 282.327L20.9023 280.356L21.9051 282.327ZM16.3104 321.764C17.1925 322.609 18.5923 322.579 19.4369 321.696C20.2815 320.814 20.2511 319.415 19.369 318.57L16.3104 321.764ZM60.3871 311.565C59.8955 304.737 56.9333 293.76 50.7325 286.017C47.6033 282.11 43.5522 278.91 38.4672 277.614C33.3529 276.309 27.4876 277.006 20.9023 280.356L22.9078 284.298C28.7427 281.33 33.5047 280.912 37.3744 281.899C41.2734 282.893 44.563 285.389 47.2806 288.782C52.7734 295.64 55.5293 305.68 55.9759 311.882L60.3871 311.565ZM20.9023 280.356C11.2434 285.27 7.31637 293.148 7.30188 301.126C7.28768 308.944 11.0194 316.699 16.3104 321.764L19.369 318.57C14.8612 314.254 11.7127 307.623 11.7245 301.134C11.736 294.804 14.7411 288.453 22.9078 284.298L20.9023 280.356Z" fill="#243252"/>
<path d="M48.3121 330.603C49.0666 331.564 50.4568 331.73 51.4171 330.976C52.3774 330.221 52.5443 328.831 51.7898 327.871L48.3121 330.603ZM20.9673 350.815L23.1077 350.26L20.9673 350.815ZM63.9467 366.508C65.0143 365.915 65.3989 364.569 64.8058 363.501C64.2127 362.434 62.8665 362.049 61.7989 362.642L63.9467 366.508ZM51.7898 327.871C49.5541 325.025 45.7875 323.579 41.9013 323.22C37.9596 322.857 33.5408 323.567 29.5744 325.428C25.5937 327.295 21.985 330.364 19.8388 334.767C17.6834 339.188 17.1072 344.741 18.8268 351.37L23.1077 350.26C21.6065 344.473 22.1954 340.025 23.8143 336.705C25.4423 333.365 28.2172 330.949 31.4526 329.432C34.7023 327.907 38.3321 327.332 41.4951 327.624C44.7137 327.921 47.1078 329.07 48.3121 330.603L51.7898 327.871ZM18.8268 351.37C19.8557 355.337 22.5204 358.677 25.9073 361.318C29.3021 363.966 33.5444 366.012 38.0025 367.378C46.8007 370.076 57.1044 370.31 63.9467 366.508L61.7989 362.642C56.4448 365.617 47.5347 365.675 39.2987 363.15C35.2397 361.906 31.5099 360.079 28.627 357.831C25.7362 355.576 23.8178 352.997 23.1077 350.26L18.8268 351.37Z" fill="#243252"/>
<path d="M64.2139 355.34C63.0858 355.807 62.5505 357.101 63.0182 358.229C63.486 359.357 64.7797 359.893 65.9079 359.425L64.2139 355.34ZM61.6211 384.589L62.4269 386.649L61.6211 384.589ZM55.075 375.9C55.112 374.679 54.1524 373.66 52.9317 373.623C51.711 373.586 50.6914 374.545 50.6544 375.766L55.075 375.9ZM65.9079 359.425C67.8399 358.624 70.3692 358.194 72.139 358.83C72.9324 359.115 73.5867 359.614 74.0517 360.491C74.5426 361.417 74.908 362.931 74.7386 365.359L79.1505 365.667C79.3564 362.716 78.9582 360.303 77.9591 358.419C76.9341 356.486 75.3719 355.292 73.6349 354.668C70.3437 353.485 66.5558 354.369 64.2139 355.34L65.9079 359.425ZM74.7386 365.359C74.4101 370.069 72.1067 373.9 69.2231 376.831C66.3233 379.779 62.9503 381.695 60.8153 382.53L62.4269 386.649C65.0869 385.608 69.0004 383.364 72.376 379.933C75.7677 376.485 78.7285 371.716 79.1505 365.667L74.7386 365.359ZM60.8153 382.53C59.6426 382.989 58.2156 382.885 57.1303 382.068C56.0981 381.291 54.9646 379.544 55.075 375.9L50.6544 375.766C50.5147 380.378 51.9611 383.713 54.4705 385.602C56.9269 387.451 60.0032 387.597 62.4269 386.649L60.8153 382.53Z" fill="#243252"/>
<path d="M86.0146 418.364C90.3927 422.742 102.089 429.559 113.847 421.804" stroke="#243252" stroke-width="4.42264" stroke-linecap="round"/>
<path d="M105.322 384.367C105.89 385.448 107.227 385.864 108.309 385.296C109.39 384.728 109.806 383.391 109.238 382.31L105.322 384.367ZM95.5533 412.707C96.7467 412.447 97.5039 411.269 97.2444 410.076C96.985 408.883 95.8072 408.125 94.6138 408.385L95.5533 412.707ZM109.238 382.31C107.463 378.933 103.844 374.591 98.6329 372.95C93.1796 371.232 86.6753 372.67 79.7599 379.586L82.8872 382.713C88.9813 376.619 93.8395 376.077 97.3041 377.168C101.011 378.336 103.865 381.593 105.322 384.367L109.238 382.31ZM79.7599 379.586C75.3833 383.962 73.4312 388.457 73.3904 392.802C73.3499 397.108 75.1901 400.912 77.7064 403.944C80.2198 406.973 83.5025 409.356 86.6436 410.887C89.6725 412.363 93.0125 413.259 95.5533 412.707L94.6138 408.385C93.5582 408.614 91.3473 408.259 88.5811 406.911C85.9269 405.618 83.17 403.603 81.1099 401.12C79.0524 398.641 77.7849 395.818 77.8128 392.844C77.8404 389.908 79.133 386.467 82.8872 382.713L79.7599 379.586Z" fill="#243252"/>
<path d="M131.238 370.865C130.049 370.587 128.86 371.325 128.581 372.514C128.303 373.703 129.041 374.893 130.231 375.171L131.238 370.865ZM156.691 403.978L158.839 404.505L156.691 403.978ZM122.326 410.436C121.229 409.899 119.904 410.352 119.367 411.449C118.829 412.545 119.283 413.87 120.379 414.407L122.326 410.436ZM130.231 375.171C134.883 376.26 142.172 379.145 147.673 383.938C153.101 388.667 156.606 395.042 154.543 403.451L158.839 404.505C161.412 394.014 156.838 386.057 150.578 380.603C144.392 375.214 136.385 372.069 131.238 370.865L130.231 375.171ZM154.543 403.451C153.642 407.125 151.867 409.595 149.635 411.244C147.368 412.92 144.49 413.851 141.267 414.169C134.771 414.81 127.366 412.907 122.326 410.436L120.379 414.407C125.971 417.149 134.203 419.311 141.702 418.571C145.477 418.198 149.185 417.077 152.264 414.801C155.378 412.499 157.707 409.118 158.839 404.505L154.543 403.451Z" fill="#243252"/>
<path d="M103.839 312.975C103.089 314.226 81.2186 327.881 70.3774 334.553" stroke="#243252" stroke-width="4.42264" stroke-linecap="round"/>
<path d="M112.283 326.422L85.7013 353.003" stroke="#243252" stroke-width="4.42264" stroke-linecap="round"/>
<path d="M124.479 335.491L104.152 365.825" stroke="#243252" stroke-width="4.42264" stroke-linecap="round"/>
<circle cx="296.759" cy="137.121" r="37.1502" stroke="#FC766A" stroke-width="4.42264"/>
</svg>
