<svg width="131" height="71" viewBox="0 0 131 71" fill="none" xmlns="http://www.w3.org/2000/svg">
<path d="M46.867 61.4992C46.867 66.0104 43.1552 69.6827 38.5576 69.6827C33.96 69.6827 30.2483 66.0104 30.2483 61.4992C30.2483 56.988 33.96 53.3158 38.5576 53.3158C43.1552 53.3158 46.867 56.988 46.867 61.4992Z" stroke="#243252" stroke-width="1.25899"/>
<path d="M66.2554 61.3735C66.2554 65.8847 62.5436 69.557 57.946 69.557C53.3485 69.557 49.6367 65.8847 49.6367 61.3735C49.6367 56.8623 53.3485 53.19 57.946 53.19C62.5436 53.19 66.2554 56.8623 66.2554 61.3735Z" stroke="#243252" stroke-width="1.25899"/>
<path d="M85.6438 61.3735C85.6438 65.8847 81.9321 69.557 77.3345 69.557C72.7369 69.557 69.0251 65.8847 69.0251 61.3735C69.0251 56.8623 72.7369 53.19 77.3345 53.19C81.9321 53.19 85.6438 56.8623 85.6438 61.3735Z" stroke="#243252" stroke-width="1.25899"/>
<path d="M105.032 61.3735C105.032 65.8847 101.321 69.557 96.723 69.557C92.1255 69.557 88.4137 65.8847 88.4137 61.3735C88.4137 56.8623 92.1255 53.19 96.723 53.19C101.321 53.19 105.032 56.8623 105.032 61.3735Z" stroke="#243252" stroke-width="1.25899"/>
<path d="M19.2949 48.1539C18.7913 48.0699 17.0539 47.0963 14.1331 43.8733" stroke="#243252" stroke-width="1.25899" stroke-linecap="round"/>
<path d="M16.2734 54.323C12.6643 52.7283 4.58999 47.7259 1.16553 40.4741" stroke="#243252" stroke-width="1.25899" stroke-linecap="round"/>
<path d="M17.4065 64.3951C14.9305 63.7236 8.92089 61.0461 4.69067 55.708" stroke="#243252" stroke-width="1.25899" stroke-linecap="round"/>
<path d="M111.705 45.2584C112.209 45.1744 113.946 44.2008 116.867 40.9778" stroke="#243252" stroke-width="1.25899" stroke-linecap="round"/>
<path d="M114.727 51.4273C118.336 49.8326 126.41 44.8302 129.834 37.5784" stroke="#243252" stroke-width="1.25899" stroke-linecap="round"/>
<path d="M113.593 61.4993C116.07 60.8278 122.079 58.1504 126.309 52.8123" stroke="#243252" stroke-width="1.25899" stroke-linecap="round"/>
<path d="M57.946 7.86621V52.5605" stroke="#243252" stroke-width="1.25899" stroke-linecap="round"/>
<path d="M38.6835 7.99194V52.6862" stroke="#243252" stroke-width="1.25899" stroke-linecap="round"/>
<path d="M76.9568 7.86621V52.5605" stroke="#243252" stroke-width="1.25899" stroke-linecap="round"/>
<path d="M96.5972 7.86621V52.5605" stroke="#243252" stroke-width="1.25899" stroke-linecap="round"/>
<path d="M24.3309 0.312256H101.633C105.805 0.312256 109.187 3.69428 109.187 7.86621V8.11801H31.8849C27.7129 8.11801 24.3309 4.73599 24.3309 0.564054V0.312256Z" fill="#243252"/>
</svg>
