<svg width="522" height="436" viewBox="0 0 522 436" fill="none" xmlns="http://www.w3.org/2000/svg">
<path d="M130.298 314.534C118.146 331.04 100.149 347.147 93.7051 349.809L90.9434 363.121C123.394 353.137 132.369 332.504 130.298 314.534Z" fill="#243252" stroke="#243252" stroke-width="1.27859"/>
<path d="M79.4728 266.491C82.9246 302.376 77.776 340.735 73.7257 360.008C73.3879 361.615 74.6096 363.121 76.2521 363.121H89.8747C91.0129 363.121 92.0172 362.371 92.3117 361.271C100.992 328.873 93.03 290.772 84.2474 265.171C83.2661 262.311 79.1833 263.481 79.4728 266.491Z" fill="#FC766A" stroke="#FC766A" stroke-width="6.39296"/>
<path d="M96.0581 317.735C114.359 320.954 138.76 311.829 152.316 292.798" stroke="#FC766A" stroke-width="6.39296" stroke-linecap="round"/>
<path d="M12.4612 276.176C0.898626 296.211 39.7941 340.628 79.4361 321.259" stroke="#FC766A" stroke-width="6.39296" stroke-linecap="round"/>
<path d="M30.6194 212.246C7.35942 215.598 -5.39539 248.086 12.2635 276.789C15.4776 282.013 29.4264 287.683 35.9648 287.683" stroke="#FC766A" stroke-width="6.39296" stroke-linecap="round"/>
<path d="M149.119 251.883C149.119 253.648 150.551 255.079 152.316 255.079C154.081 255.079 155.512 253.648 155.512 251.883H149.119ZM105.822 188.185L106.739 185.123L105.822 188.185ZM28.2354 235.832C28.9286 237.455 30.8067 238.21 32.4303 237.516C34.0539 236.823 34.8081 234.945 34.1149 233.322L28.2354 235.832ZM31.1752 211.803L33.9464 213.396L31.1752 211.803ZM155.512 251.883C155.512 239.108 153.829 225.494 146.764 213.479C139.641 201.364 127.286 191.273 106.739 185.123L104.906 191.247C124.197 197.021 135.089 206.237 141.253 216.719C147.475 227.3 149.119 239.573 149.119 251.883H155.512ZM106.739 185.123C85.1532 178.662 68.1724 180.232 55.1928 185.905C42.2572 191.558 33.6131 201.148 28.4039 210.21L33.9464 213.396C38.6263 205.255 46.3269 196.757 57.7531 191.763C69.1353 186.788 84.5334 185.15 104.906 191.247L106.739 185.123ZM28.4039 210.21C22.9567 219.686 25.2074 228.739 28.2354 235.832L34.1149 233.322C31.3808 226.918 29.9938 220.272 33.9464 213.396L28.4039 210.21Z" fill="#FC766A"/>
<path d="M92.2222 282.569C99.4057 275.432 114.495 262.804 108.907 233.983" stroke="#FC766A" stroke-width="6.39296" stroke-linecap="round"/>
<path d="M79.4362 296.634C73.7536 294.929 59.6607 286.405 48.75 265.947" stroke="#FC766A" stroke-width="6.39296" stroke-linecap="round"/>
<path d="M187.478 209.147C187.478 206.853 189.822 205.306 191.931 206.208L211.11 214.408C212.287 214.912 213.05 216.068 213.05 217.348V268.662C213.05 271.004 210.613 272.551 208.493 271.554L189.314 262.533C188.194 262.006 187.478 260.879 187.478 259.641V209.147Z" stroke="#243252" stroke-width="6.39296"/>
<path d="M248.85 242.391C248.85 240.097 251.194 238.55 253.303 239.452L272.482 247.652C273.658 248.155 274.422 249.312 274.422 250.591V301.905C274.422 304.248 271.985 305.795 269.865 304.798L250.686 295.777C249.565 295.25 248.85 294.123 248.85 292.885V242.391Z" stroke="#243252" stroke-width="6.39296"/>
<path d="M187.478 110.634C187.478 108.348 189.807 106.801 191.914 107.688L211.093 115.756C212.279 116.255 213.05 117.416 213.05 118.702V169C213.05 171.334 210.629 172.882 208.511 171.901L189.332 163.026C188.202 162.503 187.478 161.371 187.478 160.125V110.634Z" stroke="#243252" stroke-width="6.39296"/>
<path d="M248.85 142.599C248.85 140.313 251.179 138.766 253.286 139.652L272.465 147.721C273.65 148.22 274.422 149.381 274.422 150.667V200.965C274.422 203.299 272.001 204.846 269.883 203.866L250.704 194.991C249.573 194.468 248.85 193.336 248.85 192.09V142.599Z" stroke="#243252" stroke-width="6.39296"/>
<path d="M213.688 333.157V383.621C213.688 385.123 214.565 386.487 215.932 387.111L236.389 396.445C238.929 397.604 241.817 395.747 241.817 392.955V341.999C241.817 340.469 240.908 339.086 239.503 338.478L219.046 329.636C216.513 328.541 213.688 330.398 213.688 333.157Z" fill="#243252"/>
<path d="M305.613 432.474C307.197 433.255 309.113 432.604 309.893 431.02C310.674 429.436 310.023 427.52 308.439 426.74L305.613 432.474ZM155.513 39.6364C155.513 37.871 154.082 36.4399 152.316 36.4399C150.551 36.4399 149.12 37.871 149.12 39.6364H155.513ZM154.457 354.422L153.044 357.289L154.457 354.422ZM153.044 357.289L305.613 432.474L308.439 426.74L155.87 351.555L153.044 357.289ZM149.12 39.6364V350.981H155.513V39.6364H149.12ZM155.87 351.555C155.651 351.447 155.513 351.225 155.513 350.981H149.12C149.12 353.659 150.641 356.105 153.044 357.289L155.87 351.555Z" fill="#243252"/>
<path d="M303.462 429.747V114.239L149.273 43.0298C146.001 41.519 146.43 36.7397 149.917 35.8346L286.901 0.287688C287.624 0.0999894 288.386 0.127656 289.094 0.367287L429.77 47.9938V369.43C429.77 370.874 428.96 372.195 427.673 372.849L309.036 433.166C306.484 434.463 303.462 432.609 303.462 429.747Z" fill="#243252"/>
<path d="M521.83 351.296L428.687 326.041V370.407L340.27 416.821L521.83 351.296Z" fill="#243252"/>
</svg>
