<svg width="335" height="352" viewBox="0 0 335 352" fill="none" xmlns="http://www.w3.org/2000/svg">
<path fill-rule="evenodd" clip-rule="evenodd" d="M110.131 9.24258L94.388 16.0357L78.5837 24.9695L64.5847 34.7801L51.9875 45.5408L40.4427 57.6532L30.1096 70.8993L21.2563 84.9403L13.7689 100.372L8.23223 116.377L4.22801 132.912L1.69893 149.005L0.714216 163.917L1.70102 178.243L5.58911 199.117L11.5658 222.346L17.1866 237.242L28.5932 262.896L36.9128 277.742L52.1162 301.585L54.7288 302.81L56.883 300.494L56.5562 298.794L41.4613 275.121L34.6558 263.141L30.4135 254.667L21.909 234.977L18.1392 225.401L14.7307 214.93L10.4508 197.281L7.94282 185.052L6.2194 171.291L5.95328 164.246L6.19876 157.097L7.98528 141.819L11.2048 125.582L13.3593 117.464L17.2167 106.308L15.4994 122.897L14.2794 140.507L14.1114 153.529L15.2645 174.519L16.6743 189.926L18.9973 205.678L20.7893 214.271L22.8103 221.863L27.8197 236.891L34.0026 251.913L37.5606 259.292L45.5601 273.302L50.0512 279.864L54.9064 286.148L65.6556 298.089L72.1131 304.304L84.4811 314.723L97.484 323.831L104.273 327.882L111.361 331.63L126.109 338.183L141.267 343.459L156.313 347.405L171.342 349.996L179.789 350.896L194.949 351.516L209.751 350.858L223.89 348.935L230.878 347.463L244.465 343.566L257.466 338.464L270.328 331.862L281.723 324.595L287.222 320.516L297.516 311.535L306.711 301.346L314.578 289.926L321.729 276.488L327.322 262.635L331.439 247.783L333.873 232.016L334.774 214.998L334.155 197.123L331.984 178.902L328.055 159.832L322.642 140.821L315.691 121.686L307.328 103.288L297.602 86.2316L286.282 69.7477L273.636 54.2777L266.899 47.1195L259.374 39.9281L252.278 33.8947L244.911 28.3794L229.275 18.6414L212.802 10.779L204.378 7.61883L195.952 5.02605L187.564 3.01719L179.093 1.62444L169.614 0.721393L152.093 0.781308L134.731 2.83541L118.161 6.63575L110.131 9.24258ZM68.1179 38.6641L81.9093 28.9939L96.0762 20.9677L103.753 17.3892L111.544 14.2976L119.368 11.7531L135.684 8.01212L152.776 5.98993L161.392 5.69986L169.986 5.93302L178.005 6.67339L185.941 7.97726L194.154 9.94104L202.408 12.4837L218.869 19.2144L234.741 27.9103L249.548 38.3435L256.367 44.1389L269.387 57.3043L275.762 64.759L287.667 80.6637L298.079 97.2176L302.684 105.738L310.964 123.945L317.848 142.894L323.208 161.721L326.781 178.993L328.931 196.994L329.539 214.64L328.652 231.411L326.259 246.913L324.447 254.266L319.647 268.377L313.878 280.684L306.716 292.492L298.395 303.029L288.828 312.393L278.295 320.634L267.19 327.72L255.882 333.478L243.115 338.493L229.752 342.322L216.03 344.869L201.797 346.133L186.974 346.153L179.501 345.694L165.325 343.896L157.988 342.456L143.136 338.561L128.179 333.355L113.629 326.889L100.003 319.231L87.1889 310.256L75.15 300.117L64.3635 289.194L54.4732 277.049L45.9819 263.854L38.6839 249.552L35.4923 242.181L29.9598 227.246L25.6438 212.397L22.8993 197.752L21.1011 182.217L19.5954 160.465L19.5091 140.94L21.6198 113.683L23.1156 102.336L26.478 87.3053L27.6603 84.3494L29.6247 81.0488L34.1688 74.2334L44.3554 61.1775L55.716 49.2527L68.1179 38.6641Z" fill="#FFBEB8"/>
</svg>
