<svg width="462" height="372" viewBox="0 0 462 372" fill="none" xmlns="http://www.w3.org/2000/svg">
<g clip-path="url(#clip0_180_1741)">
<path d="M194.506 0.307426C194.779 0.751503 193.993 0.990623 191.363 1.19558C187.742 1.53718 182.072 2.83525 179.407 3.96252C178.792 4.2358 178.143 4.44076 177.972 4.44076C177.665 4.44076 173.361 6.49035 171.994 7.27602C168.066 9.59888 164.001 13.254 161.098 17.0799C159.321 19.3686 156.452 24.1168 156.452 24.6975C156.452 24.9366 156.247 25.4149 156.008 25.7906C155.495 26.5763 154.675 29.2749 153.924 32.5201C153.241 35.4237 153.241 39.9328 153.89 42.4606C154.163 43.5537 154.402 44.681 154.402 44.9543C154.402 45.7399 157.647 52.4011 158.331 52.9476C159.526 53.9383 159.594 54.5532 159.048 60.2237C157.647 74.8099 157.477 77.1669 157.477 79.1482C157.477 81.1978 157.511 81.3003 158.331 81.3003C158.809 81.3003 159.458 81.027 159.799 80.6854C160.995 79.4898 164.548 74.5708 168.066 69.2419C171.926 63.4005 171.926 63.4347 174.454 64.357C175.855 64.8694 179.202 65.6209 183.78 66.4408C187.845 67.1581 200.62 67.1581 204.617 66.4066C220.911 63.4347 231.398 56.1928 239.836 42.0165C240.587 40.7526 242.364 36.346 243.013 34.1256C243.833 31.2903 243.764 24.7317 242.876 21.8964C241.202 16.6358 237.855 12.0926 232.833 8.40329C228.29 5.02148 224.02 3.17685 218.998 2.39117C217.803 2.18621 216.71 1.9471 216.539 1.87878C216.402 1.7763 214.626 1.53718 212.576 1.36638C208.443 0.956459 207.589 0.78566 207.862 0.307426C207.999 0.136627 205.334 -1.52588e-05 201.201 -1.52588e-05C197.239 -1.52588e-05 194.403 0.136627 194.506 0.307426ZM209.331 3.07436C213.704 3.5526 218.725 4.37244 220.877 4.98731C221.834 5.26059 222.79 5.46555 222.995 5.46555C223.405 5.46555 227.812 7.51514 229.041 8.30081C232.731 10.5554 236.727 14.4154 238.674 17.5923C241.305 21.8622 242.295 28.7967 240.963 33.4424C240.246 35.9361 238.435 40.3427 237.855 41.0259C237.615 41.2992 237.41 41.6749 237.41 41.8116C237.41 42.6997 232.97 48.5069 230.066 51.4446C225.523 55.9879 221.185 58.8914 215.548 61.146C214.523 61.5559 213.157 62.1025 212.542 62.3757C211.927 62.649 211.176 62.854 210.902 62.854C210.629 62.854 209.673 63.0589 208.785 63.3322C204.959 64.4595 200.962 64.9036 194.335 64.9036C187.776 64.9036 185.146 64.6303 178.997 63.3322C176.572 62.8198 175.513 62.5124 172.404 61.5217C171.243 61.146 171.004 61.146 170.423 61.6925C170.082 62 169.774 62.4099 169.774 62.5465C169.774 62.9565 160.961 76.0397 160.312 76.5521C159.799 76.9961 159.765 76.8253 160.004 74.4683C160.107 73.0678 160.38 69.7543 160.551 67.124C160.722 64.4937 161.029 61.1802 161.2 59.7796C161.849 54.8948 161.747 53.8016 160.244 51.8204C154.368 43.8953 153.992 33.9548 159.15 24.151C165.709 11.6826 176.23 5.0898 192.661 3.14268C196.316 2.69861 205.437 2.66445 209.331 3.07436Z" fill="#243252"/>
<path d="M187.367 22.7504C186.82 22.8187 185.181 23.092 183.78 23.3653C177.426 24.595 175.65 24.9366 174.215 25.1074C172.507 25.3465 171.824 25.7564 171.824 26.6446C171.824 27.4644 172.371 27.6011 174.045 27.2936C174.796 27.157 176.948 26.7812 178.827 26.4738C180.706 26.1664 183.199 25.6881 184.361 25.4148C185.522 25.1416 187.025 24.9366 187.64 24.9366C188.323 24.9366 189.177 24.6633 189.621 24.2534C190.441 23.5702 190.441 23.5702 189.792 23.0578C189.417 22.7845 188.938 22.5796 188.767 22.5796C188.563 22.6137 187.948 22.7162 187.367 22.7504Z" fill="#FC766A"/>
<path d="M215.891 29.924C215.412 29.9923 213.807 30.2656 212.304 30.5388C209.059 31.1196 204.72 31.8369 200.006 32.6226C198.128 32.93 195.839 33.3399 194.882 33.5449C193.96 33.7157 192.184 34.0231 190.954 34.1598C189.724 34.3306 187.846 34.6039 186.787 34.8088C185.693 35.0138 183.917 35.3554 182.858 35.5603C181.765 35.7653 179.784 36.0386 178.486 36.2094C174.762 36.6534 173.43 37.5074 174.694 38.5664C175.07 38.8738 175.719 38.908 177.188 38.6347C178.281 38.4639 180.706 38.054 182.585 37.7466C184.464 37.4391 187.162 36.9609 188.563 36.7218C189.963 36.4826 192.662 36.0044 194.541 35.697C196.42 35.3895 199.187 34.9113 200.69 34.6722C202.193 34.3989 204.96 33.9548 206.838 33.6474C208.717 33.3399 211.382 32.8617 212.748 32.5884C214.114 32.3151 215.754 32.1102 216.369 32.1102C217.018 32.1102 217.872 31.8028 218.316 31.427C219.136 30.7438 219.136 30.7438 218.487 30.2314C217.804 29.719 217.565 29.6848 215.891 29.924Z" fill="#FC766A"/>
<path d="M201.202 46.3206C199.87 46.4573 193.687 47.243 188.221 47.9945C186.24 48.2678 183.644 48.5752 182.414 48.6777C179.852 48.9168 178.998 49.2925 178.998 50.2149C178.998 51.1713 179.374 51.2738 182.141 50.8981C183.507 50.7273 186.547 50.3515 188.904 50.0441C191.261 49.7366 194.746 49.2925 196.624 49.0193C198.537 48.746 200.724 48.5069 201.475 48.5069C202.739 48.5069 203.935 47.8578 203.935 47.1746C203.935 46.7989 203.149 46.1157 202.773 46.184C202.568 46.184 201.851 46.2865 201.202 46.3206Z" fill="#FC766A"/>
<path d="M55.1685 2.25453C51.9916 2.45949 45.2622 3.8942 42.1878 5.02147C35.4583 7.51514 30.2319 10.7945 25.7911 15.2011C21.7944 19.1978 18.72 23.7752 16.7387 28.6942C14.2109 34.9454 13.5619 37.7807 11.5465 51.2397C11.239 53.3234 11.1024 59.4038 11.1024 72.7603C11.0682 93.8027 11.2049 92.7438 8.30128 98.9609C7.37897 100.908 4.37291 104.871 2.45996 106.613C1.53765 107.467 0.581173 108.491 0.376215 108.901C-0.102022 109.79 -0.136182 114.333 0.342055 114.606C0.547014 114.709 0.683653 115.05 0.683653 115.323C0.683653 116.69 5.32938 122.224 9.2236 125.503C10.6241 126.699 16.6704 130.832 18.2759 131.72C25.7911 135.785 32.1448 138.074 38.9768 139.201C43.7591 139.953 45.3988 139.884 50.5569 138.689C54.8269 137.664 59.5068 134.453 60.6341 131.754C61.044 130.729 61.3514 130.49 62.0688 130.49C63.4693 130.49 69.8231 131.549 77.4748 133.086C81.779 133.906 89.3624 133.872 92.2319 132.95C96.0236 131.754 96.8434 131.31 100.772 128.407C104.119 125.913 106.886 122.907 110.61 117.749C112.454 115.221 113.138 114.709 113.582 115.46C113.718 115.665 114.402 116.109 115.119 116.485C116.827 117.339 120.14 117.407 123.659 116.587C127.861 115.631 129.671 114.128 131.174 110.336C131.823 108.696 131.926 107.808 131.926 103.607C131.96 98.7901 131.823 98.0044 130.252 91.719C129.978 90.5917 129.534 89.157 129.261 88.5421C128.988 87.9273 128.783 87.2099 128.783 86.9366C128.783 86.4925 128.134 84.7846 127.416 83.3157C125.743 79.9339 124.513 68.7636 125.059 61.5217C125.743 52.2644 124.547 41.4358 122.053 33.8182C118.296 22.3746 110.712 13.903 101.113 10.4187C97.0484 8.94984 91.1046 7.85674 87.1762 7.85674C85.8781 7.85674 84.7509 7.54929 83.1795 6.83194C79.5244 5.12395 75.6985 3.8942 71.0528 2.93773C68.525 2.42532 59.2335 2.01541 55.1685 2.25453ZM93.9398 30.9146C96.1602 32.3151 100.294 36.7217 102.275 39.7278C104.017 42.4264 107.262 48.7801 107.262 49.4975C107.262 49.7025 107.467 50.3515 107.74 50.9664C108.014 51.5812 108.458 52.9476 108.731 53.9724C109.038 54.9972 109.517 56.6711 109.79 57.6958C110.097 58.6865 110.337 59.9162 110.337 60.4286C110.337 60.9069 110.473 61.8292 110.644 62.4441C111.054 63.8446 110.371 64.2545 109.004 63.4347C106.34 61.8633 101.762 62.1708 98.8247 64.1179C95.6478 66.2016 92.9151 70.7449 92.9151 73.8876C92.9151 75.1173 92.4027 75.8689 91.7195 75.6297C91.4803 75.5273 90.3531 75.6981 89.2258 75.9713C86.9713 76.5862 86.2197 76.4496 85.8781 75.4248C85.5365 74.3658 83.6578 72.3846 81.8131 71.2231C78.7388 69.2419 74.4688 69.1394 71.087 70.8815C69.6181 71.6672 67.1586 74.195 66.4412 75.6981C66.1338 76.3471 65.6214 76.9961 65.2456 77.2011C63.5376 78.1234 62.0346 76.962 63.5718 75.9372C64.9724 74.9807 71.4969 68.2512 73.6148 65.5868C74.7421 64.1862 75.7327 62.9565 75.8352 62.854C76.655 62.0683 81.779 54.4507 83.5553 51.4105C84.1018 50.4881 84.7167 49.395 84.9558 49.0193C85.1949 48.6435 85.4682 48.097 85.6049 47.8237C85.7415 47.5504 86.493 45.9107 87.2787 44.2369C88.0644 42.5289 88.9867 40.5135 89.2941 39.6936C91.0021 35.2529 91.8903 32.3835 91.8903 31.3587C91.8903 30.6071 92.1294 30.0606 92.471 30.0606C92.5393 30.0606 93.1883 30.4363 93.9398 30.9146ZM108.765 65.7234C110.542 66.7482 112.386 68.8661 112.386 69.8567C112.386 70.2325 112.625 71.2914 112.933 72.2479C113.24 73.1702 113.479 75.1857 113.513 76.6887C113.548 79.8997 112.899 81.4369 110.507 83.7598C105.452 88.7129 98.0732 86.3901 95.5795 79.0799C93.9398 74.195 95.887 68.4562 100.123 65.7576C101.66 64.7669 102.48 64.5961 105.11 64.7328C106.647 64.8011 107.638 65.0744 108.765 65.7234ZM80.4809 72.7603C83.5211 74.6391 85.7415 78.8408 85.7415 82.7008C85.7415 85.9118 83.8286 89.9768 81.574 91.5824C77.6115 94.4518 73.6831 94.2127 70.233 90.9333C68.4567 89.2253 67.5343 87.3807 66.9878 84.5113C65.9972 79.114 69.2765 73.2727 73.9564 72.043C75.6644 71.5989 79.1828 71.9746 80.4809 72.7603ZM93.1542 78.9091C93.3591 79.3873 93.9057 80.5146 94.3156 81.4711C96.2286 85.7752 100.259 88.508 104.632 88.4397C107.877 88.4397 111.361 86.6292 113.069 84.1014C114.641 81.8468 115.153 83.3498 115.221 90.5234C115.324 97.7994 114.47 104.085 112.659 109.824C111.259 114.128 104.188 123.214 99.4054 126.835C96.331 129.158 95.2038 129.739 91.7195 130.866C89.0892 131.686 81.8814 131.754 77.9872 130.969C70.0622 129.397 64.1184 128.441 62.2737 128.441C60.9415 128.441 60.7024 128.236 53.358 120.96C44.5448 112.181 42.7002 109.721 42.7002 106.578C42.7002 105.52 42.5635 105.212 41.9487 105.041C40.104 104.495 37.4396 102.958 35.39 101.284C34.0236 100.156 31.4275 96.9113 31.4275 96.3306C31.4275 96.1256 31.1883 95.579 30.8809 95.135C30.4368 94.4859 30.3685 93.5636 30.471 90.4551C30.5735 86.9025 30.6759 86.3901 31.7349 84.2038C33.1696 81.1978 34.1944 80.0705 36.5173 79.0457C39.9674 77.5085 43.3151 78.0551 48.1316 80.9245C50.352 82.2226 50.8302 82.3934 52.2308 82.2567C53.0848 82.1543 54.8952 81.5735 56.1933 80.9245C58.2087 79.968 59.0286 79.7631 61.5905 79.6606C64.904 79.524 64.6991 79.3532 64.5624 82.0859C64.4258 84.8187 65.6897 88.7471 67.4319 91.0358C68.9007 92.9146 69.5498 93.4611 71.941 94.6226C77.714 97.4237 84.4093 94.2468 87.0737 87.449C87.347 86.8 87.6544 84.4771 87.7569 82.3251L87.9619 78.3967L88.9867 78.1917C89.5674 78.0551 90.6264 77.9868 91.3779 77.9868C92.4368 78.0551 92.8126 78.2259 93.1542 78.9091Z" fill="#243252"/>
<path d="M104.12 71.7355C103.129 72.3162 102.139 74.3316 102.139 75.7322C102.139 78.1234 104.052 79.6606 105.555 78.465C107.433 76.962 107.878 73.6826 106.409 72.2479C105.52 71.3256 105.042 71.2231 104.12 71.7355Z" fill="#243252"/>
<path d="M75.3913 79.3873C73.7516 80.8903 73.7516 84.5113 75.3571 85.5702C76.177 86.0826 76.2794 86.0826 77.2701 85.5019C79.7637 84.033 79.4221 78.6358 76.826 78.5675C76.5186 78.5675 75.8695 78.9432 75.3913 79.3873Z" fill="#243252"/>
<path d="M91.788 83.2474C91.6513 83.3498 91.5488 83.7598 91.5488 84.1014C91.5488 84.8529 92.7444 88.6446 93.3935 89.8402C93.6326 90.3184 94.1108 91.6507 94.4524 92.7779C95.0331 94.7934 95.0331 94.93 94.4524 95.7157C93.7351 96.6038 91.8221 97.697 90.8998 97.697C90.5582 97.697 89.9092 98.0044 89.4651 98.3802C88.6794 99.0292 88.6794 99.0633 89.2943 99.5416C90.0117 100.122 91.3439 99.9515 93.4276 98.995C95.2723 98.1752 95.7847 97.7311 96.4337 96.433C97.356 94.6567 97.2194 93.8711 94.9648 88.1322C94.5549 87.1074 94.1108 85.741 93.94 85.1262C93.496 83.384 92.5053 82.4959 91.788 83.2474Z" fill="#243252"/>
<path d="M38.0206 85.8094C37.3033 86.7658 36.5518 89.4303 36.5518 90.9675C36.5518 93.2903 37.679 95.6474 38.7721 95.6474C39.4553 95.6474 39.6261 95.4766 39.6261 94.8275C39.6261 94.3835 39.387 93.5636 39.1137 93.0512C38.4647 91.7873 38.4647 90.1476 39.1137 88.5763C39.8653 86.8341 39.7969 85.3994 38.9771 85.3994C38.6355 85.3994 38.1914 85.6044 38.0206 85.8094Z" fill="#243252"/>
<path d="M97.4238 110.404C97.1847 110.643 97.0139 110.985 97.0139 111.19C97.0139 111.805 95.5792 112.932 94.0078 113.513C92.2657 114.196 90.7626 114.23 88.6447 113.684C87.3125 113.308 87.0051 113.342 86.7659 113.752C86.2877 114.504 86.4927 114.879 87.8249 115.528C89.3279 116.314 92.5731 116.314 94.7252 115.562C97.2872 114.64 99.7808 111.839 99.2684 110.439C99.0293 109.892 97.9704 109.858 97.4238 110.404Z" fill="#243252"/>
<path d="M278.061 114.674C274.679 115.46 271.024 116.895 269.009 118.227C262.997 122.258 258.932 129.466 258.932 136.127C258.932 141.046 260.913 146.033 264.705 150.645C266.618 152.967 267.642 153.958 270.512 156.213C273.074 158.228 273.347 158.399 276.182 159.868C283.663 163.762 293.262 164.172 302.827 161.063C306.619 159.834 309.693 158.262 313.826 155.529C315.978 154.095 315.978 154.095 317.413 154.573C318.233 154.812 319.804 155.29 320.932 155.632C322.059 155.939 323.596 156.418 324.348 156.657C325.133 156.93 325.919 157.135 326.158 157.135C326.636 157.135 326.705 155.734 326.261 155.222C326.09 155.051 325.236 153.207 324.348 151.123L322.742 147.331L323.562 145.999C324.348 144.701 324.962 143.369 326.021 140.465C326.807 138.381 326.773 132.711 325.987 130.934C324.962 128.714 323.869 127.484 321.137 125.435C317.55 122.77 315.705 121.745 311.196 119.901C303.92 116.963 300.197 115.87 293.433 114.64C289.641 113.923 281.135 113.957 278.061 114.674ZM292.716 116.69C296.951 117.373 301.87 118.637 304.877 119.798C305.628 120.072 306.789 120.516 307.439 120.755C309.966 121.677 314.168 123.522 315.466 124.239C316.218 124.683 317.14 125.161 317.516 125.332C318.985 126.015 322.366 129.056 323.425 130.661C324.45 132.233 324.518 132.574 324.518 135.273C324.518 137.356 324.313 138.791 323.801 140.226C322.981 142.617 321.581 145.452 320.897 146.238C320.283 146.921 320.283 147.912 320.863 148.766C321.102 149.142 321.717 150.406 322.23 151.567C323.289 154.095 323.289 154.095 319.565 153.002C315.432 151.772 315.329 151.772 313.041 153.446C310.308 155.393 310.035 155.564 307.268 156.896C302.895 159.014 301.461 159.492 296.507 160.414C289.607 161.712 281.58 160.585 276.421 157.613C268.804 153.275 263.543 147.126 261.63 140.465C259.307 132.369 264.056 122.907 272.425 118.842C273.962 118.125 275.943 117.373 276.866 117.168C277.822 116.997 279.12 116.69 279.769 116.519C281.75 116.007 289.231 116.109 292.716 116.69Z" fill="#243252"/>
<path d="M278.744 126.391C278.334 126.63 278.334 126.835 278.607 127.313C278.949 127.86 279.632 127.928 285.781 127.928H292.579V127.074V126.22L285.918 126.152C282.058 126.084 279.052 126.186 278.744 126.391Z" fill="#FC766A"/>
<path d="M275.738 135.58C275.465 135.751 275.328 136.161 275.396 136.502C275.499 137.117 276.148 137.151 291.793 137.254C306.584 137.322 308.053 137.288 308.258 136.776C308.839 135.307 308.531 135.273 291.93 135.273C283.287 135.273 275.977 135.409 275.738 135.58Z" fill="#FC766A"/>
<path d="M274.577 143.334C274.133 143.779 274.269 144.769 274.816 144.974C275.294 145.145 279.291 145.452 290.358 146.17C295.346 146.511 296.166 146.375 296.166 145.316C296.166 144.428 294.799 144.188 287.592 143.813C283.561 143.608 279.052 143.369 277.549 143.266C276.046 143.129 274.713 143.164 274.577 143.334Z" fill="#FC766A"/>
<path d="M376.441 119.559C375.416 119.696 373.537 120.003 372.307 120.174C371.044 120.379 369.711 120.687 369.336 120.891C368.926 121.096 368.379 121.267 368.037 121.267C367.73 121.267 365.885 122.053 363.972 123.009C357.55 126.186 352.905 131.003 349.489 137.937C345.253 146.477 344.194 158.365 346.619 169.774C347.542 174.249 349.557 181.013 351.197 185.146C351.572 186.171 351.982 187.366 352.085 187.776C352.187 188.186 352.461 188.733 352.734 188.938C353.007 189.143 353.212 189.587 353.212 189.928C353.212 190.27 353.451 190.714 353.725 190.953C353.998 191.192 354.237 191.5 354.237 191.671C354.237 192.183 357.243 196.248 359.327 198.537L361.41 200.791V203.319C361.41 206.803 362.367 217.359 362.948 219.784C363.494 222.175 363.323 222.688 362.299 221.731C361.65 221.116 361.171 220.331 360.078 217.939C358.814 215.207 358.336 211.927 358.336 206.052V200.142L357.414 200.245L356.457 200.347L356.355 206.257C356.252 212.235 356.628 214.797 358.029 218.623C358.814 220.706 360.761 223.405 362.64 225.045C363.87 226.069 364.485 226.855 364.485 227.402C364.485 227.812 364.69 228.666 364.963 229.28C365.236 229.895 365.783 231.535 366.227 232.901C366.876 235.053 370.087 241.988 371.419 244.072C374.152 248.41 379.413 254.149 382.692 256.301C388.397 260.093 393.35 261.527 399.396 261.22C404.52 260.947 406.604 260.4 411.079 258.248C420.165 253.807 427.646 244.789 431.028 234.165C431.643 232.287 432.121 230.579 432.121 230.408C432.121 230.203 433.624 229.793 435.469 229.417C442.369 228.085 446.537 224.771 448.689 218.793C449.372 216.915 449.543 215.821 449.543 213.157C449.543 211.347 449.372 209.365 449.167 208.819C448.894 207.965 448.928 207.521 449.44 206.53C454.667 196.214 455.384 194.677 457.229 189.587C458.458 186.273 459.722 180.944 459.961 178.314C460.064 176.913 460.337 175.957 460.645 175.718C461.055 175.41 461.157 174.556 461.157 171.858C461.157 169.877 461.02 168.442 460.85 168.544C460.44 168.818 460.201 168.1 459.961 165.948C459.278 160.244 455.965 153.582 451.524 148.937C447.698 144.906 444.555 142.651 439.124 139.987C434.752 137.801 431.199 136.571 425.46 135.136C422.932 134.521 418.15 133.906 415.827 133.906C414.461 133.906 413.88 133.701 412.923 132.95C412.274 132.437 411.318 131.72 410.806 131.344C410.259 130.969 409.2 130.183 408.414 129.602C407.663 129.021 406.775 128.441 406.501 128.338C406.228 128.202 405.545 127.792 404.964 127.45C404.11 126.869 402.3 125.879 400.045 124.683C392.974 120.926 382.487 118.637 376.441 119.559ZM416.374 163.523C417.535 171.687 420.917 177.802 428.125 184.873C431.882 188.562 431.643 187.845 430.584 192.49C428.466 201.918 427.271 216.744 428.569 218.554C428.842 218.964 429.286 219.306 429.559 219.306C430.14 219.306 432.121 216.846 432.121 216.095C432.121 214.967 434.683 210.219 436.05 208.887C436.835 208.101 438.202 207.179 439.09 206.837C440.695 206.223 440.798 206.223 442.608 206.837C443.701 207.213 445.068 208.033 445.99 208.887L447.493 210.288V213.055C447.493 216.436 446.639 219.101 444.658 222.107C443.872 223.268 440.9 225.489 439.124 226.24C437.279 226.992 433.078 227.812 431.985 227.607C430.857 227.367 430.072 228.017 430.072 229.144C430.072 229.622 429.833 230.852 429.525 231.911C427.51 238.811 423.991 244.857 419.175 249.674C414.085 254.764 408.927 257.633 402.744 258.794C399.499 259.375 397.107 259.375 393.862 258.76C388.192 257.701 384.058 255.344 379.139 250.357C374.289 245.438 371.009 239.972 368.072 231.945C364.792 222.858 362.913 206.564 363.767 194.711C364.656 182.721 364.826 180.739 365.271 177.972L365.715 175.069L367.901 174.864C369.131 174.727 371.112 174.625 372.342 174.591C376.919 174.522 390.651 171.653 394.819 169.911C395.434 169.637 396.151 169.433 396.424 169.433C396.698 169.433 397.415 169.228 398.03 168.954C398.645 168.681 399.84 168.203 400.694 167.861C404.759 166.29 412.343 162.601 414.085 161.371C414.7 160.927 415.383 160.585 415.588 160.551C415.793 160.551 416.134 161.849 416.374 163.523Z" fill="#243252"/>
<path d="M376.168 194.642C374.767 195.189 374.118 196.043 374.562 196.76C374.87 197.239 375.826 197.17 377.227 196.59C378.798 195.94 382.829 195.94 383.956 196.59C384.434 196.863 385.22 197.068 385.767 197.102C386.518 197.102 386.689 196.965 386.689 196.282C386.689 195.633 386.347 195.326 385.015 194.745C382.931 193.857 378.422 193.823 376.168 194.642Z" fill="#243252"/>
<path d="M407.049 194.779C406.707 195.052 406.468 195.565 406.571 195.94C406.673 196.521 406.981 196.59 409.406 196.59C413.061 196.59 414.872 197.444 416.58 200.04C417.912 202.021 418.663 202.363 418.971 201.099C419.415 199.356 417.365 196.76 414.393 195.326C412.446 194.369 408.074 194.062 407.049 194.779Z" fill="#243252"/>
<path d="M377.706 205.232C376.954 206.018 376.783 206.496 376.783 207.931C376.783 209.468 376.92 209.775 377.842 210.561C379.311 211.791 380.404 211.688 381.771 210.219C383.308 208.614 383.342 207.145 381.873 205.471C380.507 203.934 379.038 203.831 377.706 205.232Z" fill="#243252"/>
<path d="M408.688 205.266C407.253 206.154 406.638 207.691 407.185 209.058C408.141 211.347 410.396 212.064 412.514 210.766C414.598 209.468 414.393 206.257 412.104 205.198C410.601 204.446 409.986 204.48 408.688 205.266Z" fill="#243252"/>
<path d="M396.459 205.608C396.356 205.744 396.288 208.511 396.322 211.722C396.322 216.812 396.254 217.7 395.741 218.52C395.4 219.067 394.888 219.647 394.614 219.852C393.931 220.331 394.238 221.492 395.058 221.594C395.912 221.697 396.903 220.877 397.791 219.306C398.372 218.247 398.44 217.461 398.474 212.269C398.474 207.828 398.338 206.291 397.996 205.847C397.484 205.266 396.732 205.129 396.459 205.608Z" fill="#243252"/>
<path d="M439.5 211.996C439.398 212.303 439.295 212.986 439.295 213.533C439.295 214.25 438.954 214.865 438.202 215.582C437.587 216.129 436.904 216.573 436.699 216.573C436.153 216.573 435.196 217.734 435.196 218.383C435.196 219.852 438.476 218.486 440.525 216.197C441.345 215.309 441.857 213.157 441.516 212.132C441.243 211.312 439.808 211.21 439.5 211.996Z" fill="#243252"/>
<path d="M386.45 233.892C385.698 234.165 385.937 234.848 387.304 236.42C387.987 237.24 389.148 238.64 389.866 239.528C391.266 241.271 392.667 241.749 395.024 241.305C396.151 241.1 396.288 240.963 396.185 240.177C396.083 239.358 395.98 239.289 394.238 239.289C392.633 239.255 392.325 239.153 391.574 238.264C387.919 233.79 387.509 233.448 386.45 233.892Z" fill="#243252"/>
<path d="M163.797 199.322C163.421 199.391 161.132 199.63 158.673 199.835C154.505 200.21 152.558 200.518 146.717 201.748C143.472 202.431 138.006 203.934 135.615 204.788C132.848 205.778 131.96 206.052 131.003 206.325C129.535 206.735 127.485 207.521 125.23 208.511C124.137 208.99 121.78 209.639 119.97 209.912C113.958 210.902 111.088 211.62 106.408 213.294C101.831 214.933 96.9461 218.452 94.0767 222.209C92.9494 223.678 90.8657 227.88 90.8657 228.7C90.8657 228.973 90.6266 230.066 90.3533 231.159C88.8844 236.83 90.6949 245.95 95.2381 255.515C96.3312 257.77 99.8839 263.816 101.045 265.319C101.694 266.207 101.831 266.685 101.626 267.539C101.045 270.306 101.045 272.288 101.66 274.064C102.002 275.02 102.446 276.079 102.685 276.353C102.89 276.626 103.129 277.036 103.197 277.275C103.71 278.846 109.244 284.141 113.206 286.84C115.563 288.445 116.486 288.548 116.486 287.215C116.486 286.601 115.836 285.986 113.719 284.585C111.122 282.877 107.706 279.803 106.033 277.685C104.974 276.387 103.436 272.971 103.232 271.502C103.129 270.682 103.3 269.623 103.676 268.632C104.359 266.856 106.955 264.089 108.765 263.235C109.893 262.723 110.098 262.689 111.122 263.201C112.147 263.679 114.436 266.549 114.436 267.334C114.436 267.539 114.743 267.983 115.119 268.325C115.973 269.111 116.383 268.735 116.554 267.164C116.656 266.105 116.793 265.968 118.364 265.524C119.321 265.285 120.755 264.943 121.609 264.772C122.463 264.602 123.42 264.363 123.727 264.226C124.445 263.918 124.786 264.67 125.333 267.813C126.665 275.225 133.429 280.828 140.978 280.793C145.385 280.759 149.176 279.154 152.387 275.977C154.471 273.893 156.213 270.716 156.623 268.154C156.76 267.3 157.033 266.412 157.204 266.173C157.614 265.729 161.816 265.592 162.499 266.036C162.738 266.173 163.148 267.232 163.387 268.393C163.66 269.521 164.275 271.229 164.753 272.185C166.495 275.635 166.393 280.828 164.514 283.287C163.524 284.585 160.996 286.259 159.971 286.259C159.322 286.259 159.424 287.967 160.073 288.206C160.722 288.445 163.079 287.42 164.719 286.191C166.632 284.688 167.725 282.536 167.964 279.769C168.203 277.07 168.511 276.865 170.253 278.163C172.439 279.769 174.796 280.486 178.998 280.759L181.901 280.964L182.004 286.942C182.175 296.575 181.116 303.51 178.69 308.497C177.222 311.503 176.026 313.245 171.483 318.882C170.731 319.804 169.877 320.965 169.638 321.444C168.613 323.322 166.7 327.285 166.7 327.592C166.7 327.763 166.495 328.412 166.222 329.027C164.787 332.409 163.66 338.182 163.421 343.306C163.216 347.917 163.455 348.908 164.548 348.225C165.061 347.917 165.232 347.029 165.539 343.101C165.949 337.669 166.564 334.527 168.306 329.3C169.228 326.499 172.166 320.965 173.191 320.077C173.601 319.701 177.973 314.27 177.973 314.133C177.973 314.031 178.417 313.313 178.93 312.494C180.501 310.068 181.799 307.096 182.551 304.193C183.712 299.615 184.122 295.345 184.122 287.762V280.213L185.591 279.564C187.128 278.88 190.339 276.592 191.535 275.294C194.062 272.493 195.531 268.154 195.326 264.021C195.121 260.434 194.199 257.94 191.944 255.003C190.305 252.851 190.271 252.782 190.749 251.689C191.022 251.074 191.5 249.64 191.808 248.512C192.149 247.385 192.628 245.78 192.867 244.96C193.14 244.106 193.345 243.149 193.345 242.774C193.345 242.398 193.55 241.305 193.823 240.348C195.941 232.833 195.873 220.74 193.687 215.377C192.184 211.654 190.954 209.741 188.392 207.145C186.103 204.856 185.113 204.139 182.346 202.807C180.535 201.918 178.793 201.201 178.52 201.201C178.212 201.201 177.392 200.996 176.709 200.723C174.728 200.006 165.641 199.015 163.797 199.322ZM136.811 235.873C139.031 236.386 141.661 237.308 143.301 238.196C145.931 239.597 146.478 239.699 151.909 239.938C155.086 240.075 158.126 240.382 159.083 240.656C159.971 240.929 160.996 241.168 161.337 241.168C162.465 241.168 167.759 243.969 169.262 245.336C170.868 246.77 172.371 249.435 171.995 250.05C171.859 250.255 171.175 250.801 170.458 251.245C167.042 253.397 164.309 257.291 163.284 261.459L162.772 263.543L160.278 263.645C158.741 263.713 157.58 263.577 157.306 263.372C157.033 263.133 156.726 262.245 156.589 261.391C156.213 258.829 154.539 255.823 152.251 253.534C146.444 247.829 138.006 247.214 131.413 251.997C128.851 253.875 125.709 258.453 125.709 260.298C125.709 261.152 124.581 261.869 122.463 262.347C121.541 262.586 119.97 262.962 119.013 263.235C116.383 263.953 115.085 263.85 114.094 262.825C113.377 262.04 113.274 261.664 113.343 259.648C113.411 257.291 114.128 253.363 114.948 250.699C115.222 249.81 115.461 248.922 115.461 248.717C115.461 248.137 117.544 243.901 118.501 242.534C121.029 238.948 124.513 236.488 128.1 235.771C129.125 235.532 130.286 235.293 130.662 235.224C131.55 235.019 134.214 235.327 136.811 235.873ZM143.301 251.211C147.298 251.997 149.894 253.568 152.08 256.54C154.164 259.341 154.574 260.707 154.574 264.909C154.539 268.325 154.471 268.837 153.583 270.648C151.158 275.567 146.205 278.71 140.91 278.71C134.795 278.71 128.988 274.132 127.553 268.154C126.426 263.474 127.553 258.965 130.798 255.481C132.848 253.226 135.41 251.792 138.348 251.245C139.578 251.006 140.636 250.801 140.739 250.767C140.841 250.767 142.003 250.938 143.301 251.211ZM181.56 251.211C185.249 251.928 187.606 253.192 189.553 255.413C193.96 260.4 194.541 266.788 191.056 272.151C185.113 281.272 171.79 280.725 166.769 271.194C163.592 265.114 165.197 257.77 170.56 253.875C172.883 252.202 173.942 251.723 176.607 251.245C177.836 251.006 178.895 250.801 178.998 250.767C179.1 250.767 180.262 250.938 181.56 251.211Z" fill="#243252"/>
<path d="M135.956 255.31C134.282 255.652 134.077 255.788 133.975 256.642C133.872 257.496 133.975 257.565 134.999 257.565C135.614 257.565 136.81 257.394 137.63 257.189C138.689 256.95 139.85 256.984 141.592 257.257C142.925 257.496 144.325 257.565 144.667 257.462C145.179 257.223 145.213 257.155 144.769 256.472C143.813 255.037 139.816 254.49 135.956 255.31Z" fill="#243252"/>
<path d="M138.792 263.713C137.357 264.567 136.981 265.353 136.981 267.608C136.981 269.247 137.118 269.657 138.04 270.716C138.894 271.707 139.338 271.912 140.397 271.912C141.491 271.912 141.9 271.707 142.754 270.648C143.335 269.931 143.916 268.872 144.018 268.291C144.292 266.754 143.13 264.26 141.798 263.577C140.466 262.894 140.124 262.894 138.792 263.713Z" fill="#243252"/>
<path d="M174.318 257.36C173.123 257.565 171.893 258.009 171.585 258.35C171.005 258.931 171.005 258.999 171.551 259.409C172.029 259.751 172.644 259.785 174.113 259.546C175.206 259.341 177.905 259.307 180.125 259.444C183.985 259.648 184.122 259.648 184.122 258.965C184.122 258.077 183.439 257.736 180.672 257.257C178.042 256.813 177.188 256.813 174.318 257.36Z" fill="#243252"/>
<path d="M177.7 263.577C173.635 265.353 175.035 271.912 179.476 271.912C181.902 271.912 184.122 269.828 184.122 267.505C184.122 266.036 182.721 264.158 181.184 263.509C179.784 262.928 179.169 262.928 177.7 263.577Z" fill="#243252"/>
<path d="M358.337 242.295C358.337 242.91 358.474 243.559 358.644 243.73C358.815 243.935 359.293 244.926 359.737 245.95C362.299 252.065 367.697 258.692 369.61 258.077C370.737 257.736 370.395 256.813 368.619 255.276C367.697 254.49 366.262 252.885 365.442 251.689C363.734 249.298 361.001 244.072 360.25 241.749C360.147 241.407 359.737 241.168 359.191 241.168C358.439 241.168 358.337 241.305 358.337 242.295Z" fill="#243252"/>
<path d="M109.312 269.008C108.731 269.691 109.175 272.151 110.2 273.722C111.43 275.601 113.582 277.036 115.187 277.036C116.451 277.036 116.519 276.967 116.417 276.113C116.349 275.396 116.075 275.123 115.29 274.986C113.103 274.508 111.635 272.902 111.19 270.443C110.917 268.974 109.961 268.223 109.312 269.008Z" fill="#243252"/>
<path d="M148.494 299.82C147.981 300.299 148.323 301.255 149.211 301.836C153.515 304.774 157.238 305.73 160.928 304.91C162.123 304.671 163.66 304.193 164.344 303.885C165.915 303.236 168.067 301.221 168.067 300.469C168.067 299.786 167.111 299.342 166.53 299.786C166.325 299.957 165.232 300.709 164.105 301.46L162.089 302.792H158.673C155.052 302.792 154.232 302.553 151.09 300.504C149.621 299.581 148.903 299.376 148.494 299.82Z" fill="#243252"/>
<path d="M194.609 304.261C194.472 304.364 194.37 305.354 194.37 306.447C194.37 308.839 193.55 311.503 192.149 313.758C190.783 315.91 189.86 316.866 187.811 318.335C186.137 319.531 185.693 320.59 186.718 320.999C187.469 321.273 188.733 320.521 191.022 318.437C194.335 315.329 196.419 310.956 196.419 306.857C196.419 305.115 196.317 304.671 195.77 304.364C194.984 303.954 194.882 303.954 194.609 304.261Z" fill="#243252"/>
<path d="M201.441 323.698C201.168 324.005 201.441 325.645 203.081 333.468C203.832 337.055 203.866 338.797 203.149 340.505C201.168 345.321 200.519 348.259 200.519 352.631C200.519 362.504 205.711 368.311 216.744 370.77C221.732 371.863 224.84 372.068 233.824 371.898C244.653 371.658 247.659 371.283 254.662 369.233C255.994 368.857 257.531 368.413 258.078 368.277C260.469 367.593 265.354 365.271 268.565 363.221C270.444 362.059 273.347 359.053 274.235 357.277C275.773 354.374 276.353 351.914 276.353 348.02C276.353 342.554 275.124 339.617 271.093 335.586C266.652 331.145 262.211 329.369 251.519 327.763C246.703 327.046 232.082 327.046 227.334 327.763C225.455 328.07 223.132 328.515 222.176 328.788C221.219 329.061 220.195 329.3 219.887 329.3C219.204 329.3 217.496 330.018 214.046 331.76L211.347 333.16L206.701 328.48C201.27 323.049 201.714 323.425 201.441 323.698ZM250.699 329.813C257.19 330.769 261.596 331.862 264.397 333.263C267.813 334.937 271.024 337.806 272.493 340.471C274.953 344.877 274.987 351.333 272.527 355.945C270.717 359.395 267.062 362.196 260.913 364.861C259.547 365.441 257.975 366.056 257.395 366.193C256.848 366.364 255.926 366.637 255.345 366.808C249.128 368.96 240.93 370.121 232.287 370.121C223.371 370.121 216.984 369.131 211.791 366.944C209.468 365.954 208.478 365.305 206.838 363.631C205.711 362.469 204.549 361.001 204.242 360.351C201.68 354.988 202.09 347.951 205.438 340.436C206.121 338.933 205.984 336.337 205.096 332.99C204.549 330.906 204.481 329.983 204.925 329.983C205.062 329.983 206.565 331.384 208.273 333.092L211.313 336.201L212.338 335.347C215.549 332.682 219.272 331.384 228.017 329.847C231.98 329.164 245.985 329.129 250.699 329.813Z" fill="#243252"/>
<path d="M224.943 341.154C219.853 342.418 218.965 342.725 218.965 343.306C218.965 344.501 219.819 344.775 221.766 344.194C222.757 343.921 224.806 343.442 226.309 343.135C229.657 342.418 230.033 342.247 230.169 341.29C230.272 340.641 230.135 340.573 228.632 340.607C227.744 340.641 226.07 340.88 224.943 341.154Z" fill="#FC766A"/>
<path d="M256.199 346.585C255.55 346.653 253.193 346.927 251.006 347.234C248.786 347.507 245.165 347.986 242.979 348.259C232.218 349.591 230.169 349.864 226.992 350.309C225.113 350.616 222.927 350.821 222.107 350.821C220.365 350.821 218.281 351.607 218.281 352.29C218.281 353.383 219.818 353.383 227.675 352.358C229.759 352.085 233.346 351.641 235.703 351.333C238.06 351.026 241.681 350.582 243.73 350.309C250.836 349.386 255.686 348.771 257.633 348.566C259.649 348.396 260.537 347.781 260.161 346.893C259.99 346.38 259.205 346.312 256.199 346.585Z" fill="#FC766A"/>
<path d="M240.485 356.97C237.821 357.243 234.234 357.687 228.187 358.541C226.206 358.814 223.918 359.019 223.064 359.019C220.057 359.019 218.247 359.907 218.964 361.069C219.169 361.376 219.887 361.445 221.902 361.274C225.113 361.035 232.082 360.215 237.069 359.497C239.05 359.224 241.339 358.985 242.193 358.985C244.618 358.917 245.438 358.609 245.438 357.653C245.438 356.901 245.267 356.799 244.243 356.765C243.594 356.731 241.886 356.833 240.485 356.97Z" fill="#FC766A"/>
</g>
<defs>
<clipPath id="clip0_180_1741">
<rect width="461.157" height="372" fill="white"/>
</clipPath>
</defs>
</svg>
