<svg width="408" height="453" viewBox="0 0 408 453" fill="none" xmlns="http://www.w3.org/2000/svg">
<g clip-path="url(#clip0_157_2388)">
<path d="M130.786 0.421112C130.666 0.691833 129.824 0.902405 128.109 1.02271C122.695 1.44385 115.867 3.63965 111.475 6.40698C105.73 9.98645 101.308 16.1829 99.5032 23.3118C98.3001 27.9139 98.0895 29.8391 98.0895 35.3737C98.0895 40.5775 98.3301 43.2847 99.3228 48.8795C99.5032 49.8721 99.7439 51.2859 99.8943 52.0379C100.376 55.0157 102.752 63.7389 104.015 67.198C104.466 68.4614 104.557 68.2508 102.692 70.2962C101.88 71.2287 100.165 74.0863 99.5333 75.6504C97.5481 80.6136 97.5481 86.2685 99.5333 90.8406C101.398 95.112 104.376 98.511 108.347 100.857C109.399 101.459 110.753 102.121 111.325 102.271L112.377 102.572L112.407 112.558C112.438 120.138 112.588 123.417 112.949 126.034C113.55 130.155 114.242 133.343 114.814 134.697C115.054 135.238 115.235 135.9 115.235 136.141C115.235 136.381 115.806 137.765 116.468 139.179C117.34 140.953 117.611 141.796 117.371 141.946C117.19 142.066 115.385 142.337 113.34 142.548C105.339 143.36 98.4204 145.134 93.2166 147.721C90.2989 149.135 89.9379 149.376 88.4038 150.699C87.6218 151.361 86.7194 151.902 86.3885 151.902C85.7568 151.902 81.1246 150.398 77.9361 149.195C77.0337 148.834 75.9509 148.443 75.5297 148.293C73.2136 147.541 64.2799 143.3 62.1443 141.946C61.663 141.645 60.9712 141.254 60.6403 141.104C59.3469 140.532 53.3009 136.291 50.8945 134.306C47.9467 131.899 46.2622 129.704 44.5777 126.244C42.803 122.605 41.8104 119.597 41.2389 116.258C41.1186 115.416 40.8178 114.062 40.6072 113.25C40.3967 112.287 40.2463 109.189 40.2162 104.587C40.1861 96.6159 40.126 96.8867 42.2917 96.8566C43.7355 96.8566 46.6232 95.9843 48.9995 94.8412C51.0449 93.8486 52.0676 93.1869 53.9927 91.6227L55.4064 90.4496L56.6698 91.8032C58.0534 93.3372 59.3469 93.7584 61.272 93.3974C62.5955 93.1568 63.0768 92.8861 66.8066 90.0586C71.9503 86.2084 73.5445 83.8922 73.5144 80.3127C73.5144 79.0193 73.2738 77.756 72.8226 76.5528C72.0405 74.5374 71.9803 73.0636 72.5218 70.7474C72.8526 69.3938 72.8226 68.7621 72.3714 66.3859C71.7698 63.0771 71.0178 60.791 69.7845 58.2643C67.0172 52.5191 63.3775 49.0299 60.2793 49.0299C58.8355 49.0299 51.5262 52.6695 45.2997 56.4596C44.9688 56.6701 43.4046 57.6026 41.8405 58.5351C34.0499 63.2275 25.2666 69.7247 20.2433 74.4472C15.3403 79.0494 12.0015 85.4865 8.33173 97.4582C7.24886 100.947 5.74488 107.384 4.72217 112.648C4.48153 113.972 4.06042 116.138 3.81978 117.461C3.54906 118.785 3.3385 120.259 3.3385 120.71C3.3385 121.191 3.12795 122.665 2.91739 124.019C2.1654 128.2 0.932129 139.961 0.932129 142.818C0.932129 145.886 2.46619 152.775 3.7897 155.512C4.87257 157.768 6.40663 160.866 6.73751 161.378C10.1666 166.972 11.7007 168.958 15.972 173.379C20.0026 177.56 25.1162 181.741 29.3574 184.388C30.9817 185.411 34.2303 187.366 35.223 187.908C38.2911 189.622 43.7355 192.209 47.3451 193.653C47.7963 193.864 48.1572 194.164 48.1572 194.345C48.1572 194.525 47.0142 195.909 45.5704 197.413C40.0056 203.399 33.8393 212.393 30.3801 219.582C28.455 223.642 25.8983 229.478 25.8983 229.899C25.8983 230.049 25.7178 230.591 25.4771 231.102C24.665 232.967 22.8903 238.833 21.8977 242.893C20.875 246.984 20.7246 247.766 20.4839 249.361C20.3636 250.263 20.123 251.767 19.9425 252.669C18.8596 258.324 18.5588 262.566 18.5588 272.672C18.5588 283.02 18.7092 285.276 20.0628 294.029C20.6644 298.06 21.9277 304.346 22.77 307.565C22.9805 308.377 23.3716 309.941 23.6724 311.024C24.3642 313.671 25.8682 318.754 26.3495 320.048C26.56 320.619 27.0112 321.973 27.3722 323.056C27.703 324.139 28.2746 325.763 28.6054 326.665C28.9664 327.568 29.3574 328.651 29.5078 329.072C29.7184 329.703 30.2297 330.967 31.9744 335.088C32.1248 335.509 32.4556 336.231 32.6662 336.742C32.8768 337.223 33.4182 338.457 33.8694 339.449C34.3206 340.442 34.9522 341.856 35.3132 342.608C37.2082 346.789 41.9007 355.873 43.2542 358.008C43.6152 358.64 43.9461 359.212 43.9461 359.302C43.9461 359.392 44.2469 359.873 44.6078 360.355C45.4801 361.558 46.7435 361.588 47.4654 360.445C49.6913 356.956 53.9325 352.865 58.2339 350.067C61.272 348.112 66.4156 345.706 68.7618 345.134C69.0927 345.044 70.0552 344.803 70.8674 344.563C75.259 343.329 77.0939 343.119 83.0196 343.149C86.4186 343.149 89.5469 343.299 90.4192 343.51C91.2614 343.69 92.5248 343.961 93.2767 344.081C99.8341 345.255 109.339 349.345 116.468 354.128C117.882 355.061 119.326 355.843 119.687 355.843C120.529 355.843 121.07 354.85 120.679 354.068C120.379 353.527 118.032 351.692 117.04 351.24C116.799 351.12 116.197 350.759 115.686 350.428C113.851 349.255 106.151 345.255 105.128 344.954C104.827 344.833 103.805 344.473 102.902 344.112C99.804 342.908 95.5628 341.735 91.472 340.983C87.9526 340.322 77.6955 340.322 74.4168 340.983C71.1682 341.615 68.6415 342.277 67.4684 342.788C66.9269 343.029 66.2652 343.209 66.0246 343.209C65.7538 343.209 65.1823 343.39 64.7612 343.63C64.31 343.871 63.0166 344.503 61.8435 345.044C56.9706 347.33 52.2481 350.759 48.6686 354.639C47.5556 355.843 46.5329 356.745 46.3524 356.685C46.0216 356.595 45.1493 354.128 43.1038 347.571C42.2015 344.713 41.8405 343.48 40.8479 339.6C39.6447 335.058 39.2536 333.373 38.1106 327.718C37.2383 323.417 36.9676 321.943 36.727 320.048C36.6066 318.965 36.3359 317.13 36.1554 315.987C35.1929 309.7 34.3206 297.729 34.3206 291.021C34.3206 284.012 35.1327 274.026 36.3058 266.807C36.9375 262.776 38.2911 256.58 39.0431 254.233C39.2536 253.542 39.4341 252.76 39.4341 252.519C39.4341 252.278 39.6146 251.647 39.8552 251.105C40.0658 250.564 40.4869 249.3 40.7877 248.308C41.0584 247.315 41.4795 246.142 41.7202 245.691C41.9608 245.27 42.1413 244.728 42.1413 244.488C42.1413 243.315 46.8638 233.208 50.1425 227.402C51.4961 224.996 55.5568 218.92 57.121 217.025C57.2413 216.844 57.873 216.032 58.4746 215.22C60.911 212.032 67.9797 204.662 70.8674 202.376C72.5218 201.023 72.3112 201.053 77.3345 202.045C80.1921 202.587 81.3953 202.436 81.6961 201.504C82.0269 200.481 81.2449 200.03 77.906 199.398C73.9054 198.646 70.717 197.984 68.5513 197.443C64.3702 196.42 62.9564 196.059 61.6931 195.698C60.9411 195.458 59.5273 195.067 58.5347 194.766C57.5421 194.465 56.2787 194.044 55.7373 193.833C55.1959 193.593 54.5642 193.412 54.3236 193.412C54.0829 193.412 53.4513 193.232 52.9098 192.991C52.3684 192.751 50.8343 192.149 49.5108 191.608C47.2548 190.705 46.2923 190.314 44.0965 189.352C42.3218 188.57 37.1481 185.953 36.1254 185.351C35.5538 184.99 34.862 184.599 34.6214 184.479C33.2377 183.877 26.169 178.974 23.8829 177.079C17.7166 171.905 12.0015 165.408 9.38452 160.626C8.15125 158.339 6.04567 154.038 6.04567 153.737C6.04567 153.557 5.8652 152.985 5.62456 152.444C4.54169 149.827 3.66938 145.706 3.6393 143.029C3.60922 137.915 5.68472 121.492 7.42934 112.799C8.69269 106.542 9.05364 105.55 10.8885 103.023C14.2574 98.4207 18.8897 95.9542 24.0935 95.9542C26.1991 95.9542 29.0266 96.5558 31.6134 97.5183C33.0572 98.0598 36.4863 99.8345 36.9375 100.256C37.2082 100.526 37.3586 102.361 37.4489 106.181C37.6895 115.055 39.0732 121.071 42.5323 128.109C43.8258 130.756 45.2094 132.712 47.1646 134.607C48.9995 136.441 54.9853 140.833 58.3542 142.848C61.663 144.864 68.5813 148.383 71.3186 149.496C72.221 149.857 73.2136 150.278 73.4843 150.428C74.7777 151.09 84.5536 154.339 87.4112 155.031C88.5843 155.301 90.2688 155.723 91.1712 155.963C98.3301 157.708 105.73 158.73 106.752 158.099C107.294 157.768 107.174 156.866 106.512 156.264C106.091 155.903 105.128 155.662 103.203 155.482C101.699 155.331 100.345 155.151 100.225 155.061C100.075 155.001 99.1122 154.79 98.0594 154.64C94.3897 154.068 91.3216 153.346 90.8704 152.895C90.4793 152.534 90.5094 152.414 91.1712 151.902C91.9232 151.331 95.4425 149.526 96.9766 148.924C100.646 147.481 106.241 146.127 110.873 145.556C116.438 144.864 118.694 144.683 119.205 144.864C119.506 144.954 120.288 145.796 120.95 146.729C121.612 147.661 122.845 149.255 123.657 150.248C126.274 153.346 127.748 155.301 128.56 156.715C129.733 158.7 131.478 162.37 131.478 162.821C131.478 163.032 131.628 163.363 131.809 163.543C131.989 163.724 132.23 164.325 132.38 164.867C132.501 165.438 132.771 166.28 132.922 166.792C134.757 172.206 135.99 179.395 135.99 184.449C135.99 186.223 136.08 187.878 136.17 188.118C136.471 188.9 137.404 189.261 138.095 188.9C138.637 188.6 138.697 188.269 138.697 184.749C138.697 181.32 138.487 179.335 137.494 173.83C136.952 170.913 137.013 170.883 139.299 172.988C141.525 175.034 144.924 177.621 148.022 179.636C153.165 182.945 156.685 184.088 161.738 184.088C164.746 184.088 170.1 183.065 172.687 182.042C173.108 181.892 174.041 181.501 174.793 181.23C181.2 178.703 189.321 173.59 195.578 168.085C196.691 167.123 197.713 166.341 197.864 166.341C198.165 166.341 198.706 167.484 199.669 170.101C199.909 170.762 200.3 171.755 200.541 172.296C200.782 172.838 200.962 173.47 200.962 173.71C200.962 173.951 201.142 174.582 201.383 175.124C201.774 176.056 202.105 177.199 203.248 181.29C204.481 185.832 205.023 188.118 205.865 192.66C206.136 193.984 206.497 195.879 206.677 196.872C206.858 197.864 207.128 199.759 207.279 201.083C207.429 202.406 207.7 204.512 207.91 205.745C208.542 209.415 208.452 229.929 207.79 234.321C206.888 240.397 205.564 246.052 204.06 250.413C203.489 252.068 202.947 253.722 202.857 254.113C202.646 254.985 199.548 257.813 195.247 261.062C191.788 263.678 186.343 267.408 186.012 267.408C185.892 267.408 185.591 267.589 185.351 267.829C184.508 268.551 178.944 271.469 175.665 272.913C174.612 273.394 173.499 273.906 173.229 274.056C170.732 275.349 162.31 277.756 156.895 278.718C152.714 279.47 141.254 279.47 137.343 278.718C128.5 277.034 119.927 273.815 114.393 270.085C113.671 269.604 113.039 269.213 112.949 269.213C112.708 269.213 107.354 265.243 106.061 264.1C103.414 261.814 100.015 258.174 99.5333 257.181C99.052 256.128 97.4879 252.308 96.7058 250.173C92.4646 238.803 89.3363 227.463 87.6819 217.627C87.4112 215.972 87.0202 213.626 86.7795 212.393C86.5389 211.189 86.3584 209.776 86.3584 209.294C86.3584 208.783 86.1479 207.008 85.9072 205.324C85.2756 200.722 84.5536 194.044 84.5536 192.51C84.5536 190.194 83.2602 188.57 82.2375 189.592C81.8164 190.013 81.7262 190.555 81.7863 192.42C81.8465 193.713 82.0269 195.638 82.1773 196.721C82.3578 197.804 82.5985 199.97 82.7489 201.534C83.4708 209.926 85.817 223.612 87.712 230.561C87.9226 231.373 88.3136 232.877 88.5843 233.87C89.6973 237.96 93.2767 249 94.1491 251.015C94.2995 251.346 94.8409 252.76 95.3823 254.173C95.8937 255.587 96.5254 257.091 96.766 257.542C97.0066 257.963 97.1871 258.475 97.1871 258.685C97.1871 258.866 97.7887 259.738 98.5407 260.58C99.4431 261.603 99.8943 262.415 99.8943 262.957C99.8943 263.859 100.586 267.438 101.278 270.176C101.519 271.138 101.699 272.191 101.699 272.552C101.699 272.913 101.88 273.906 102.12 274.748C102.361 275.59 102.782 277.365 103.053 278.688C103.353 280.012 103.775 281.696 103.985 282.418C104.226 283.17 104.406 283.982 104.406 284.283C104.406 284.554 104.587 285.456 104.827 286.238C105.068 287.05 105.489 288.584 105.76 289.667C106.301 291.743 106.933 294.089 107.565 296.285C107.775 297.037 108.196 298.511 108.467 299.594C108.768 300.677 109.159 302.09 109.369 302.752C109.58 303.414 110.212 305.369 110.753 307.114C112.016 311.265 115.355 321.251 116.137 323.357C116.498 324.259 117.16 326.094 117.611 327.417C118.092 328.741 118.754 330.576 119.145 331.478C119.506 332.38 120.018 333.674 120.258 334.336C120.499 334.997 120.92 336.02 121.161 336.592C121.401 337.163 121.792 338.035 122.003 338.547C122.213 339.028 122.695 340.201 123.056 341.104C125.763 347.811 132.32 361.046 136.231 367.724C137.013 369.048 137.795 370.341 137.945 370.642C138.126 370.913 138.847 372.116 139.599 373.289C140.351 374.462 141.164 375.755 141.404 376.146C142.577 378.041 148.533 386.223 148.924 386.524C149.014 386.614 149.315 386.945 149.556 387.306C151.872 390.675 160.926 399.609 165.288 402.887C169.529 406.046 170.281 406.527 172.898 407.459C175.334 408.362 179.786 408.723 182.373 408.241C187.697 407.219 191.427 403.158 193.141 396.45C193.653 394.435 193.803 392.961 193.833 389.532C193.863 385.02 193.863 384.96 192.058 379.004C191.517 377.139 189.772 372.296 188.96 370.281C188.569 369.378 188.058 368.085 187.817 367.423C187.546 366.762 187.186 365.799 186.975 365.318C186.464 364.145 184.779 359.903 184.268 358.55C184.057 357.978 183.456 356.474 182.974 355.241C182.463 354.008 181.982 352.714 181.922 352.383C181.831 352.053 181.47 351.03 181.109 350.128C180.748 349.225 180.357 348.052 180.207 347.571C180.087 347.059 179.846 346.337 179.696 345.916C179.004 344.232 177.68 339.118 177.049 335.749C176.597 333.313 176.417 327.478 176.778 326.545C177.019 325.913 178.071 325.943 178.312 326.575C178.432 326.876 179.094 327.959 179.816 329.012C180.538 330.064 181.109 330.967 181.109 331.027C181.109 331.117 181.831 332.2 182.704 333.433C183.546 334.697 184.478 336.05 184.719 336.441C184.96 336.832 185.892 338.186 186.764 339.419C187.607 340.682 189.02 342.698 189.833 343.871C197.864 355.452 205.685 365.558 210.618 370.702C219.04 379.515 229.628 385.351 237.058 385.321C245.781 385.261 251.075 378.523 253.782 363.964C254.564 359.753 254.564 350.699 253.782 348.022C251.947 341.705 248.999 334.546 245.781 328.44C245.66 328.169 244.818 326.635 243.976 324.981C241.991 321.221 240.427 318.363 239.705 317.19C239.404 316.679 239.073 316.077 238.953 315.837C238.832 315.596 237.749 313.701 236.546 311.656C235.343 309.64 234.35 307.896 234.35 307.835C234.35 307.805 233.99 307.174 233.538 306.452C233.057 305.73 232.546 304.888 232.335 304.557C232.155 304.226 230.681 301.82 229.117 299.233C227.522 296.616 226.229 294.36 226.229 294.179C226.229 293.788 226.62 293.818 228.365 294.27C229.808 294.661 229.929 294.841 229.447 295.894C229.237 296.405 229.417 296.977 230.44 298.902C231.132 300.195 231.884 301.459 232.094 301.699C232.275 301.94 232.546 302.361 232.636 302.602C232.846 303.083 234.441 305.339 235.945 307.264C237.659 309.49 242.592 314.182 245.69 316.528C247.375 317.792 248.819 318.845 248.909 318.845C248.999 318.845 249.631 319.206 250.353 319.657C252.428 320.98 252.729 321.161 254.805 322.153C259.888 324.62 263.317 325.883 268.942 327.387C278.146 329.854 291.231 330.937 302.421 330.185L305.97 329.944L305.609 330.636C305.218 331.388 304.857 331.749 301.278 335.088C295.081 340.893 292.073 343.45 286.93 347.36C283.621 349.857 277.755 354.038 277.515 354.038C277.455 354.038 276.823 354.429 276.101 354.91C274.838 355.752 273.995 356.234 270.296 358.339C266.445 360.505 258.715 363.964 257.722 363.964C257.482 363.964 256.97 364.205 256.609 364.506C256.068 364.927 255.948 365.258 256.128 365.859C256.279 366.551 256.489 366.671 257.331 366.671C260.399 366.671 271.138 361.407 280.523 355.271C285.305 352.143 295.382 344.262 300.676 339.449C304.105 336.351 311.114 329.132 311.264 328.53C311.565 327.327 310.843 327.056 306.241 326.515C300.075 325.823 293.818 324.77 289.998 323.778C287.441 323.086 285.125 322.454 284.132 322.093C283.651 321.943 282.839 321.702 282.328 321.552C280.282 320.98 273.364 318.063 270.957 316.769C267.619 314.964 266.355 314.242 265.964 313.942C265.754 313.761 265.333 313.46 265.002 313.28C261.182 311.144 254.624 305.369 251.045 300.977C249.029 298.541 248.909 298.451 247.766 298.872C247.134 299.112 247.164 300.526 247.826 301.278C248.097 301.579 248.849 302.481 249.45 303.233C255.857 311.174 266.626 318.514 278.417 322.966C279.079 323.206 280.102 323.597 280.673 323.838C281.937 324.319 290.329 326.726 292.254 327.147L293.156 327.327L292.404 327.628C291.893 327.808 289.908 327.748 286.238 327.447C277.425 326.665 270.777 325.402 265.182 323.447C264.039 323.026 262.746 322.635 262.325 322.544C261.903 322.454 261.302 322.183 260.971 321.973C260.64 321.732 260.219 321.552 260.039 321.552C259.166 321.552 249.42 316.348 248.789 315.536C248.698 315.446 248.157 315.025 247.586 314.633C246.382 313.821 243.104 311.024 241.72 309.67C239.434 307.354 234.952 301.699 234.26 300.195C234.14 299.955 233.779 299.323 233.478 298.842C232.756 297.699 231.643 295.713 231.643 295.533C231.643 295.232 233.929 295.382 236.306 295.804C246.924 297.729 258.504 297.699 266.085 295.804C269.303 294.991 271.469 293.728 275.499 290.359C277.635 288.584 280.312 286.359 281.425 285.456C287.321 280.643 289.005 278.418 289.697 274.447C290.178 271.65 289.727 268.942 288.253 266.085C286.479 262.626 282.899 259.287 281.004 259.287C280.613 259.287 279.951 258.685 279.229 257.693C276.673 254.294 274.988 253.632 271.228 254.594C267.799 255.497 260.159 259.919 258.234 262.114C257 263.528 256.91 263.769 256.91 265.333C256.91 266.416 257.061 267.168 257.331 267.378C257.993 267.95 258.083 268.852 257.572 269.574C256.73 270.747 256.098 272.041 255.857 273.033C255.767 273.575 255.587 274.026 255.496 274.026C255.105 274.026 248.849 270.868 247.646 270.085C246.924 269.604 246.292 269.213 246.232 269.213C246.051 269.213 241.209 265.814 239.013 264.16C232.937 259.558 225.988 252.489 222.168 247.014C220.815 245.089 220.363 244.307 219.13 241.961C218.258 240.246 218.077 239.555 218.168 238.652C218.318 237.509 219.491 232.666 220.363 229.628C220.604 228.786 220.815 227.793 220.815 227.432C220.815 227.072 220.995 226.019 221.236 225.056C223.281 216.844 224.153 202.286 223.071 194.315C222.409 189.532 221.296 184.479 220.303 181.832C220.063 181.17 219.641 180.087 219.401 179.425C217.716 174.883 213.686 168.446 210.136 164.596C206.888 161.107 201.955 157.257 197.984 155.121C196.961 154.549 196.961 154.579 196.24 155.271C195.307 156.234 195.548 156.835 197.322 157.828C200.36 159.603 203.669 162.129 206.557 164.927C213.144 171.244 217.325 179.064 219.401 188.9C220.454 193.773 220.604 195.307 220.724 202.105C220.905 210.588 220.514 214.859 218.529 225.146C218.047 227.703 217.746 228.967 216.423 234.02C215.16 238.863 215.13 239.976 216.333 242.382C220.484 250.684 228.395 259.558 238.141 266.837C243.043 270.507 246.683 272.793 250.684 274.778C252.97 275.891 253.06 275.951 252.91 276.853C252.819 277.365 252.458 280.072 252.097 282.899C251.406 288.133 251.406 288.554 252.308 293.487L252.458 294.48H249.36C244.096 294.48 233.358 292.916 227.432 291.262C223.913 290.269 223.221 289.938 222.71 288.976C222.469 288.464 221.717 287.261 221.085 286.328C220.424 285.396 219.912 284.554 219.912 284.433C219.912 284.343 219.341 283.411 218.619 282.358C217.897 281.335 217.235 280.282 217.115 280.042C216.994 279.801 216.664 279.23 216.363 278.779C216.092 278.357 215.039 276.673 214.047 275.079C213.054 273.484 212.001 271.83 211.731 271.379C211.43 270.928 211.099 270.356 210.979 270.116C210.858 269.875 210.407 269.123 209.956 268.461C209.535 267.799 208.723 266.446 208.181 265.453C207.64 264.461 207.098 263.498 206.978 263.348C206.376 262.566 204.271 258.234 204.271 257.813C204.271 257.542 204.541 256.79 204.872 256.128C205.203 255.467 205.474 254.715 205.474 254.414C205.474 254.143 205.594 253.842 205.745 253.722C205.895 253.632 206.136 253.121 206.256 252.579C206.346 252.068 206.617 251.226 206.828 250.714C207.399 249.361 208.813 243.826 209.505 240.186C210.948 232.456 211.039 231.283 211.009 219.582C211.009 208.061 210.888 206.166 209.505 197.624C208.602 192.029 207.189 185.471 205.925 180.929C205.685 180.087 205.263 178.613 204.993 177.621C204.692 176.628 204.15 174.853 203.759 173.71C203.338 172.537 202.917 171.183 202.797 170.702C202.646 170.191 202.406 169.469 202.225 169.048C202.075 168.627 201.684 167.694 201.413 166.942C200.21 163.844 199.518 163.032 197.984 163.032C197.413 163.032 195.909 164.115 193.893 166.01C192.239 167.574 187.216 171.304 183.997 173.379C180.237 175.816 175.665 178.132 172.086 179.425C169.469 180.358 168.777 180.538 166.37 180.929C160.415 181.952 155.361 181.08 150.879 178.282C143.841 173.891 136.05 166.732 134.727 163.423C132.26 157.287 130.425 154.188 126.515 149.466C121.522 143.54 118.062 137.434 117.07 132.952C116.919 132.381 116.679 131.358 116.498 130.696C115.626 127.508 115.175 122.484 114.994 113.31C114.874 107.866 114.904 103.655 115.054 103.564C115.205 103.474 116.949 103.354 118.965 103.324C122.574 103.264 125.342 102.692 127.327 101.609C129.433 100.436 131.057 99.4134 131.388 99.0223C131.989 98.3004 132.38 98.9321 132.38 100.556C132.38 102.181 133.223 105.55 133.914 106.813C135.388 109.37 137.765 111.475 140.231 112.318C141.916 112.919 142.728 112.919 143.209 112.348C143.961 111.445 143.329 110.573 141.494 109.941C138.968 109.099 136.351 106.422 135.629 103.895C134.606 100.496 135.178 95.8038 136.983 92.1942C138.547 89.1261 138.847 87.6823 138.847 83.1703C138.847 79.5608 138.727 78.6884 138.156 77.004C136.561 72.5221 133.614 68.8524 129.463 66.0851C127.327 64.7014 127.237 64.3705 128.199 62.3552C129.433 59.8285 132.952 56.7904 136.591 55.1361C141.765 52.7598 145.886 51.9777 154.188 51.7672C160.264 51.5867 160.535 51.5566 161.708 50.8347C167.363 47.2552 174.913 45.4504 181.109 46.2024C185.531 46.7438 188.389 47.9169 191.397 50.5038C194.645 53.3313 198.135 59.2269 199.578 64.3705C201.022 69.6044 201.834 74.0261 201.894 77.0641C201.955 79.3201 201.925 79.3803 200.782 80.7339C200.15 81.4859 199.398 82.0875 199.157 82.1176C198.526 82.1176 195.277 81.4257 190.133 80.1323C189.231 79.9217 188.118 79.651 187.667 79.5608C187.065 79.4405 186.794 79.1697 186.644 78.5681C186.223 76.6129 184.268 72.7327 182.674 70.7474C179.124 66.3257 175.003 64.0096 169.198 63.1673C161.227 61.9942 152.774 66.4761 148.924 73.9058C147.119 77.365 146.728 79.0795 146.728 83.3207C146.758 87.9831 147.48 90.5098 149.796 94.1494C152.383 98.1801 155.903 100.887 160.806 102.662C162.34 103.203 163.242 103.294 166.972 103.294C170.912 103.264 171.544 103.203 173.409 102.481C178.583 100.496 182.643 96.9468 184.96 92.2845C186.223 89.6976 187.125 86.1783 187.125 83.8321C187.125 82.3882 187.577 82.2078 189.772 82.8094C190.705 83.05 192.57 83.4711 193.893 83.7719C198.044 84.6743 197.804 84.554 197.713 86.1181C197.653 87.2311 197.743 87.562 198.195 87.8026C198.826 88.1335 200.06 87.9229 200.06 87.4717C200.06 86.8701 201.955 83.441 202.707 82.6289C204.662 80.5835 206.437 80.403 208.813 82.0273C214.949 86.2385 216.092 91.1414 212.422 97.6086C210.557 100.827 204.842 106.151 199.699 109.46C197.563 110.814 197.112 111.596 197.924 112.318C198.676 113.009 199.097 112.919 201.052 111.746C208.452 107.294 215.039 100.105 216.694 94.7209C217.325 92.6454 217.355 89.096 216.754 87.6221C216.122 86.1181 216.182 85.5165 217.145 84.2532C218.107 83.05 219.912 80.3428 219.912 80.1624C219.912 80.1022 220.273 79.4705 220.754 78.7486C222.048 76.7032 222.168 76.4626 224.214 72.3416C227.282 66.1452 228.816 62.1146 230.079 56.8506C233.268 43.6155 230.861 33.3885 222.71 25.5377C218.138 21.1159 210.588 17.356 202.767 15.6414C196.931 14.348 194.074 13.8367 192.75 13.8367C191.607 13.8367 188.87 13.0546 187.486 12.3628C187.216 12.2124 186.403 11.8815 185.712 11.6108C184.99 11.3401 183.847 10.9189 183.155 10.6482C182.433 10.3775 181.32 9.95639 180.658 9.71576C179.996 9.4751 179.004 9.08408 178.462 8.84344C177.921 8.60278 177.289 8.42233 177.049 8.42233C176.808 8.42233 176.176 8.24185 175.635 8.00119C174.492 7.51993 171.725 6.6777 166.822 5.29404C159.151 3.15839 150.067 1.41376 144.743 1.0528C141.675 0.842255 141.013 0.691833 141.284 0.270721C141.374 0.120331 139.208 0 136.2 0C131.989 0 130.906 0.0902405 130.786 0.421112ZM62.415 52.6996C65.453 55.0157 68.1602 59.9789 69.574 65.8745C70.2357 68.6719 70.1756 70.6572 69.3634 72.1612C68.1602 74.5374 64.671 72.4018 57.6624 65.0323C56.1584 63.408 55.7373 63.2275 55.1357 63.8291C54.2032 64.7616 54.7146 65.7843 57.7827 68.9727C59.4371 70.6873 61.2419 72.4319 61.8435 72.8229C62.4451 73.244 62.8963 73.7855 62.8963 74.1464C62.8963 74.9586 60.9712 77.2747 59.1664 78.6283C57.873 79.5909 57.512 79.7112 55.8576 79.7112C53.2106 79.7112 51.4058 78.3576 49.3303 74.8383C48.6686 73.7253 47.9166 72.6725 47.6158 72.5221C46.8638 72.1311 45.7509 72.6424 45.7509 73.3944C45.7509 75.2293 50.1726 80.8843 52.0977 81.5761C53.0301 81.907 53.4212 82.6289 52.97 83.1703C52.7895 83.3809 51.857 83.9223 50.9246 84.4036C49.4807 85.0954 48.819 85.2158 46.6532 85.2458C43.7355 85.2458 42.6526 84.8247 40.2764 82.7191C38.7122 81.3355 37.8399 81.2452 37.118 82.3281C36.6969 82.9297 36.757 83.0801 38.0204 84.3434C38.7724 85.0954 40.156 86.1181 41.0584 86.6295C41.9909 87.1709 42.8331 87.7124 42.9234 87.8929C43.2542 88.4343 42.3518 88.7351 40.2764 88.7351C37.9001 88.7351 35.7945 88.0132 33.6889 86.449C32.0947 85.2759 31.7337 85.2158 30.9517 85.9377C30.1997 86.5994 30.2598 86.9904 31.2524 87.8929C34.7116 91.1414 40.3967 92.4048 44.0363 90.7203C44.9086 90.3293 46.1118 89.5172 46.7134 88.9156C47.4955 88.1635 48.0971 87.8327 48.7287 87.8327C50.1124 87.8327 53.8122 85.9677 55.8275 84.2833C56.8202 83.441 58.5046 82.2078 59.5875 81.546C61.3321 80.4932 63.3475 78.5681 65.1523 76.2821C65.7238 75.5301 65.8441 75.5 67.709 75.7407C69.9349 75.9813 70.1756 76.252 70.7771 79.2299C71.1983 81.2452 70.6869 82.8695 69.0024 84.7044C67.4082 86.449 61.8736 90.5098 60.8208 90.7203C59.6176 90.961 58.7453 90.4195 58.2038 89.0359C57.7226 87.8026 56.6698 86.9303 55.7373 86.9303C55.4365 86.9303 54.504 87.5319 53.6919 88.314C49.8417 91.8633 45.1793 94.1193 41.6901 94.1494C39.9455 94.1494 38.7724 94.8112 37.9001 96.2249C37.3887 97.0671 37.2684 97.1273 36.5164 96.8265C36.0652 96.6761 35.5538 96.4054 35.3734 96.2851C34.5913 95.6835 31.102 94.4201 28.7558 93.8486C24.5748 92.856 20.6644 93.1267 17.0248 94.6608C15.3704 95.3526 12.3624 97.1875 12.3624 97.4883C12.3624 97.6386 12.0917 97.759 11.7608 97.759C11.2495 97.759 11.1893 97.6386 11.3397 96.9167C11.5803 95.864 12.4827 93.247 13.2648 91.1414C13.6258 90.239 13.9867 89.2163 14.107 88.8855C14.5281 87.4116 17.7768 81.4859 19.1905 79.5608C20.7546 77.4251 24.1536 74.2968 28.9062 70.6572C31.7939 68.4313 37.5692 64.3705 37.8098 64.3705C37.9301 64.3705 38.5017 64.0096 39.1032 63.5283C39.7048 63.0771 40.4568 62.5657 40.7877 62.3552C48.067 57.9335 50.0222 56.7604 51.9172 55.7677C52.7594 55.3466 54.7748 54.2638 56.4291 53.3914C58.0835 52.5191 59.8281 51.7972 60.2793 51.7672C60.7907 51.7371 61.6028 52.098 62.415 52.6996ZM121.221 65.9046C123.236 66.2355 125.552 66.9574 127.056 67.7695C129.793 69.2133 133.313 72.853 134.546 75.5C135.839 78.3275 136.02 79.0494 136.17 81.7867C136.381 85.0954 136.02 87.8026 135.148 89.5172C134.817 90.1488 134.185 91.4122 133.764 92.3145C132.26 95.4428 128.47 98.3907 123.808 100.075C121.522 100.887 115.445 100.827 112.919 99.9247C107.113 97.8793 103.233 93.8787 101.368 87.9831C100.616 85.6068 100.586 80.794 101.278 78.6584C103.564 71.7401 108.377 67.4086 115.235 66.0249C117.762 65.5135 118.814 65.5135 121.221 65.9046ZM170.07 66.0249C172.747 66.5363 175.184 67.5891 177.349 69.2133C179.244 70.597 180.117 71.5596 181.621 73.8456C188.81 84.8548 181.38 99.8044 168.326 100.647C162.61 101.008 158.73 99.6239 154.669 95.8339C152.443 93.6982 151.21 91.743 149.977 88.2839C149.225 86.2385 149.225 80.1924 149.947 78.2072C151.631 73.7554 154.038 70.6271 157.407 68.4915C159.362 67.2281 160.956 66.5964 163.513 66.0249C165.979 65.5135 167.333 65.4835 170.07 66.0249ZM53.2407 195.849C53.8423 196.059 54.8048 196.36 55.3764 196.571C56.5194 196.962 58.4445 197.563 61.0915 198.315C64.7011 199.338 66.1148 199.669 67.1977 199.879C67.8594 199.97 68.3106 200.24 68.3106 200.481C68.3106 200.692 66.5058 202.707 64.31 204.903C52.5489 216.634 45.0891 228.515 38.9829 245.149C38.261 247.135 35.975 254.865 35.7042 256.279C35.6441 256.7 35.4335 257.632 35.223 258.384C32.4857 269.634 31.2524 284.373 31.8841 298.33C32.3353 307.745 33.4182 317.852 34.5011 322.665C34.7417 323.687 34.9222 324.83 34.9222 325.191C34.9222 325.522 35.1327 326.786 35.3734 327.989C35.6441 329.162 36.0652 331.057 36.3058 332.23C36.8172 334.606 37.3887 336.953 38.1106 339.57C38.622 341.344 38.5317 342.517 37.9301 342.156C37.7797 342.066 37.6293 341.735 37.6293 341.434C37.6293 341.164 37.509 340.803 37.3586 340.652C37.118 340.382 33.7791 332.591 32.606 329.523C32.3353 328.861 31.9443 327.899 31.7337 327.357C31.4931 326.846 31.3126 326.244 31.3126 326.004C31.3126 325.763 31.1923 325.462 31.0419 325.312C30.8915 325.131 30.6208 324.53 30.4704 323.958C30.1696 322.935 29.8688 322.033 29.0566 319.747C28.8461 319.176 28.425 317.882 28.1542 316.889C27.8534 315.897 27.4323 314.543 27.2218 313.881C27.0413 313.22 26.6503 311.806 26.3495 310.723C26.0787 309.64 25.6877 308.076 25.4471 307.264C24.2439 302.752 22.8001 294.901 21.7773 287.111C21.0554 281.546 21.0554 263.408 21.7773 258.384C23.6724 245.45 25.808 236.998 29.0867 229.267C29.3273 228.726 29.5078 228.154 29.5078 228.004C29.5078 227.523 33.5686 219.04 34.862 216.875C35.1929 216.303 35.7644 215.28 36.1254 214.649C36.757 213.506 39.1333 209.836 40.8479 207.399C41.6901 206.196 44.9086 202.075 45.6907 201.233C47.7662 198.947 51.3758 195.518 51.7367 195.518C51.9773 195.518 52.6692 195.668 53.2407 195.849ZM275.59 257.572C277.214 258.655 277.094 259.287 274.898 261.362C273.183 262.987 272.883 263.167 271.709 263.197C269.754 263.197 267.438 264.43 266.235 266.085L265.242 267.469L262.956 267.258C261.573 267.138 260.46 266.867 260.159 266.566C259.437 265.934 259.497 264.701 260.309 263.769C260.881 263.107 263.648 261.092 263.979 261.092C264.069 261.092 265.092 260.52 266.295 259.798C267.498 259.106 269.032 258.294 269.694 258.024C270.356 257.783 271.228 257.422 271.649 257.241C272.943 256.7 274.507 256.82 275.59 257.572ZM281.816 262.505C284.614 264.22 287.291 269.123 287.291 272.552C287.291 275.139 285.516 278.658 283.23 280.523C282.568 281.065 279.38 283.681 276.161 286.359C272.943 289.036 269.634 291.562 268.792 291.923C265.062 293.638 257.091 295.052 255.797 294.239C255.256 293.909 254.624 291.863 254.353 289.758C254.173 288.133 254.744 281.456 255.286 278.869C255.436 278.207 255.466 278.177 256.008 278.688C256.339 278.989 256.67 279.5 256.79 279.861C257.271 281.456 258.986 282.358 259.858 281.486C260.369 280.974 260.309 280.403 259.587 279.38C259.226 278.899 258.745 277.756 258.504 276.853C258.143 275.379 258.143 274.988 258.565 273.575C258.835 272.582 259.437 271.529 260.069 270.837C261.091 269.755 261.151 269.755 262.686 269.935C264.851 270.206 267.077 271.77 268.641 274.086C269.303 275.079 269.844 276.011 269.844 276.162C269.844 276.312 270.326 276.432 270.897 276.432C271.74 276.432 271.98 276.312 272.1 275.74C272.341 274.838 270.657 271.89 268.972 270.236C268.28 269.604 267.739 268.912 267.739 268.732C267.739 268.16 269.724 266.235 270.566 266.025C271.95 265.694 273.574 266.416 275.68 268.311C276.793 269.303 277.786 270.116 277.936 270.116C278.056 270.116 278.417 269.845 278.718 269.514C279.229 268.942 279.229 268.822 278.778 267.89C278.538 267.318 277.755 266.416 277.094 265.874C276.402 265.333 275.86 264.671 275.86 264.37C275.86 264.1 276.372 263.438 277.003 262.926C277.876 262.205 278.417 262.024 279.56 261.994C280.402 261.994 281.335 262.205 281.816 262.505Z" fill="#243252"/>
<path d="M114.995 73.966C112.618 74.6277 111.987 75.1692 112.468 76.252C112.889 77.1244 113.581 77.2146 115.717 76.5528C117.642 75.9813 122.695 75.9512 124.951 76.5528C127.448 77.2146 128.11 77.1544 128.531 76.252C129.042 75.1391 128.38 74.6277 125.583 73.966C122.545 73.2441 117.672 73.2441 114.995 73.966Z" fill="#243252"/>
<path d="M116.288 81.4257C115.266 81.6964 114.273 82.5086 113.401 83.7418C112.649 84.7345 112.528 85.1857 112.528 86.7498C112.558 88.2538 112.709 88.7952 113.371 89.7578C115.235 92.4349 118.634 93.0966 121.161 91.2618C122.846 90.0887 123.447 88.8253 123.447 86.6596C123.447 83.5614 121.612 81.546 118.574 81.3656C117.642 81.3054 116.619 81.3355 116.288 81.4257Z" fill="#243252"/>
<path d="M164.536 71.2287C162.521 71.8303 161.799 72.3717 161.919 73.1839C162.069 74.2367 162.882 74.4773 164.476 73.996C166.672 73.3644 170.582 73.2741 172.507 73.8156C174.583 74.4172 175.575 74.4172 175.816 73.8156C176.357 72.4319 175.846 71.9506 173.259 71.2889C170.522 70.567 166.852 70.5369 164.536 71.2287Z" fill="#243252"/>
<path d="M166.069 81.546C164.957 81.9972 164.295 82.689 163.663 84.1629C162.911 85.8474 162.911 87.6522 163.663 89.1863C165.137 92.2845 167.393 93.1869 169.769 91.5926C171.364 90.5098 172.085 88.8855 172.085 86.5092C172.085 84.7645 171.965 84.4337 171.093 83.2606C169.589 81.3054 168.025 80.7639 166.069 81.546Z" fill="#243252"/>
<path d="M205.354 88.4042C205.084 88.705 204.753 89.4871 204.663 90.1187C204.272 92.6755 201.805 95.9542 200.271 95.9542C199.459 95.9542 197.744 96.8265 197.534 97.3379C197.443 97.5785 197.654 98.0598 197.985 98.3907C199.008 99.4134 201.534 98.7516 204.031 96.7964C205.174 95.9241 205.475 95.4429 206.648 92.9763C207.46 91.3219 207.64 88.5245 206.979 88.1335C206.317 87.7124 205.926 87.7725 205.354 88.4042Z" fill="#243252"/>
<path d="M166.521 129.343C163.483 133.313 158.67 135.659 153.767 135.659C152.503 135.629 150.939 135.449 150.278 135.208C149.616 134.968 148.563 134.757 147.961 134.757C146.909 134.757 146.818 134.817 146.818 135.599C146.818 136.562 147.51 137.314 148.623 137.554C149.044 137.645 149.917 137.855 150.578 138.036C153.646 138.848 159.031 138.036 162.309 136.321C165.197 134.787 167.694 132.591 169.288 130.125C170.25 128.621 170.07 127.538 168.777 127.538C168.055 127.538 167.664 127.869 166.521 129.343Z" fill="#243252"/>
<path d="M188.75 140.412C188.389 140.653 187.727 142.487 186.975 145.465C186.313 148.082 186.344 156.956 187.005 159.663C188.118 164.175 188.84 165.228 190.164 164.506C190.886 164.115 190.855 163.543 189.893 160.024C189.351 158.129 189.231 156.926 189.231 152.684C189.231 148.172 189.321 147.24 190.043 144.352C190.705 141.675 190.765 141.014 190.434 140.622C190.043 140.141 189.291 140.051 188.75 140.412Z" fill="#243252"/>
<path d="M268.1 142.337C267.648 142.788 267.648 143.33 268.1 144.172C268.641 145.134 269.182 146.638 269.904 149.195C270.446 151.09 270.566 152.263 270.566 156.565C270.566 159.934 270.446 162.039 270.205 162.791C269.724 164.145 270.205 165.137 271.288 165.137C271.83 165.137 272.13 164.807 272.642 163.694C273.213 162.4 273.273 161.769 273.273 156.715C273.273 150.97 273.273 151.03 271.709 145.917C270.927 143.45 270.115 142.127 269.243 142.036C268.822 141.976 268.31 142.127 268.1 142.337Z" fill="#FC766A"/>
<path d="M254.684 151.872C254.203 152.414 254.233 152.534 255.135 154.489C255.647 155.632 256.459 157.407 256.94 158.46C257.421 159.482 257.813 160.535 257.813 160.776C257.813 161.017 257.993 161.648 258.234 162.19C258.835 163.633 259.497 165.889 260.038 168.296C260.279 169.439 260.64 171.153 260.851 172.056C261.061 173.018 261.272 176.899 261.362 181.23C261.482 188.961 261.121 193.232 260.038 196.691C259.798 197.443 259.617 198.285 259.617 198.556C259.617 198.857 259.437 199.549 259.196 200.09C257.722 203.519 257.722 203.639 258.083 204.421C258.354 205.023 258.595 205.173 259.256 205.083C260.189 204.993 260.73 204.061 261.663 200.932C263.798 193.984 264.219 190.434 264.069 181.23C263.979 176.989 263.768 172.928 263.558 171.905C262.655 167.514 261.933 164.686 261.151 162.22C260.189 159.212 259.858 158.4 258.143 154.61C256.7 151.421 255.767 150.669 254.684 151.872Z" fill="#FC766A"/>
<path d="M361.498 353.075C361.046 353.557 360.986 354.67 360.986 362.49C360.986 370.01 361.046 371.454 361.468 372.026C362.039 372.838 362.972 372.898 363.393 372.116C363.573 371.755 363.693 368.175 363.693 362.611C363.693 357.046 363.573 353.466 363.393 353.105C363.002 352.383 362.129 352.353 361.498 353.075Z" fill="#243252"/>
<path d="M374.973 359.212C374.341 360.084 372.987 362.189 370.912 365.558C370.01 367.002 369.017 368.566 368.746 369.018C367.754 370.552 367.543 371.274 367.874 371.995C368.054 372.386 368.445 372.687 368.746 372.687C369.498 372.687 370.28 371.785 372.085 368.777C372.957 367.363 374.311 365.197 375.123 363.964C375.935 362.731 376.747 361.377 376.958 360.956C377.71 359.242 376.026 357.738 374.973 359.212Z" fill="#243252"/>
<path d="M345.856 362.701C345.074 363.543 345.254 364.145 346.488 365.077C347.089 365.528 347.811 366.1 348.082 366.371C348.714 366.942 349.616 367.724 351.511 369.228C352.353 369.89 353.617 370.943 354.338 371.544C355.842 372.838 356.444 372.958 357.226 372.086C357.767 371.484 357.767 371.454 357.166 370.642C356.835 370.191 355.09 368.627 353.286 367.183C351.481 365.739 349.736 364.295 349.405 364.024C346.999 361.979 346.638 361.828 345.856 362.701Z" fill="#243252"/>
<path d="M226.409 387.517C225.928 387.877 225.868 388.178 226.048 389.412C226.951 395.819 233.177 407.76 238.11 412.483C241.178 415.43 242.893 416.333 245.329 416.363C246.923 416.393 247.435 416.273 248.458 415.611C250.864 414.017 252.037 411.671 252.849 406.707C253.391 403.459 253.361 400.992 252.699 396.841C252.097 393.202 251.405 389.983 251.105 389.592C250.924 389.381 250.383 389.231 249.871 389.291C249.089 389.351 248.909 389.532 248.849 390.224C248.788 390.705 248.879 391.487 249.059 391.998C249.57 393.442 250.593 400.782 250.593 402.857C250.593 404.933 249.721 409.264 248.999 410.888C247.645 413.927 245.299 414.498 242.321 412.543C237.328 409.204 230.56 397.804 228.816 389.712C228.575 388.69 228.184 387.757 227.853 387.517C227.191 387.035 227.071 387.035 226.409 387.517Z" fill="#243252"/>
<path d="M171.725 410.919C171.063 411.279 171.033 412.302 171.665 414.468C171.905 415.4 172.326 416.904 172.597 417.807C173.83 422.198 176.176 427.523 178.342 430.831C180.719 434.471 184.298 437.87 187.125 439.224C189.863 440.487 190.916 440.728 193.954 440.758C196.992 440.758 197.082 440.758 198.556 439.735C200.3 438.562 201.203 436.998 201.473 434.712C201.654 433.057 201.173 429.027 200.511 426.831C200.27 426.079 199.879 424.665 199.578 423.672C199.308 422.68 198.947 421.537 198.796 421.116C198.646 420.694 198.165 419.341 197.774 418.108C197.383 416.874 196.931 415.581 196.781 415.25C196.631 414.919 196.42 414.318 196.33 413.896C196.149 412.964 195.097 411.791 194.465 411.791C194.224 411.791 193.893 412.122 193.683 412.513C193.292 413.385 193.472 414.077 195.097 418.559C195.698 420.213 196.3 422.048 196.45 422.62C196.571 423.191 196.841 424.063 196.992 424.575C198.105 427.853 198.826 431.433 198.857 433.629C198.857 435.283 198.135 436.907 197.142 437.569C196.51 437.99 195.758 438.111 193.743 438.05C191.607 438.02 190.855 437.87 189.231 437.118C187.035 436.155 185.622 435.223 184.238 433.899C182.944 432.636 180.388 429.327 179.636 427.883C179.275 427.222 178.854 426.47 178.703 426.229C177.35 423.913 175.996 420.183 174.552 414.679C174.011 412.573 173.499 411.249 173.138 411.009C172.477 410.528 172.386 410.497 171.725 410.919Z" fill="#243252"/>
<path d="M63.5577 423.522C63.287 423.943 63.1968 426.229 63.1968 431.884C63.1968 439.163 63.2269 439.705 63.7683 440.186C64.4902 440.848 65.5129 440.427 65.7536 439.374C65.8438 439.013 65.9039 435.283 65.8438 431.102C65.7536 424.725 65.6934 423.462 65.3024 423.221C64.5804 422.77 63.9788 422.86 63.5577 423.522Z" fill="#243252"/>
<path d="M75.5598 428.305C75.1086 428.575 72.4916 432.576 69.9649 436.817C68.7618 438.802 68.6114 439.224 68.9122 439.765C69.4837 440.818 70.6568 440.427 71.7998 438.863C72.3412 438.111 72.7924 437.419 72.7924 437.298C72.8225 437.178 73.2135 436.516 73.6948 435.794C77.4548 430.109 77.8458 429.267 76.9735 428.395C76.5524 427.974 76.1313 427.944 75.5598 428.305Z" fill="#243252"/>
<path d="M50.0823 431.794C49.6612 432.847 50.3831 433.719 54.4739 436.968C58.6851 440.336 59.8883 440.938 60.3094 439.885C60.7907 438.652 60.4598 438.291 54.9853 433.93C51.7367 431.343 50.4432 430.801 50.0823 431.794Z" fill="#243252"/>
<path d="M297.969 436.155C296.646 436.276 294.961 436.516 294.209 436.697C293.457 436.847 291.773 437.208 290.449 437.479C289.126 437.78 287.411 438.171 286.659 438.411C285.877 438.652 285.065 438.863 284.854 438.863C284.433 438.863 276.643 441.269 274.657 442.021C274.086 442.231 272.552 442.833 271.288 443.344C264.13 446.202 263.558 446.563 263.979 447.856C264.37 449.09 265.242 448.879 272.762 445.6C273.274 445.36 273.845 445.179 274.026 445.179C274.206 445.179 274.778 444.999 275.319 444.758C278.598 443.344 284.734 441.51 290.299 440.246C295.322 439.103 297.638 438.802 302.662 438.652C307.835 438.472 308.046 438.502 308.046 439.043C308.046 439.404 307.534 439.945 306.782 440.427C302.24 443.284 299.744 445.45 299.293 446.954C298.571 449.33 299.293 450.564 302.18 451.947C303.233 452.489 304.015 452.549 308.647 452.519C311.986 452.519 314.934 452.338 316.769 452.007C329.914 449.781 345.525 448.308 359.783 447.977C369.499 447.736 385.982 448.669 398.435 450.142C404.902 450.925 405.053 450.925 405.624 450.503C406.045 450.203 406.136 449.872 406.015 449.33C405.775 448.458 404.541 447.886 402.827 447.886C402.225 447.886 400.18 447.676 398.285 447.435C376.417 444.698 349.947 444.698 330.305 447.435C328.56 447.706 326.755 447.886 326.244 447.886C325.763 447.886 324.259 448.067 322.935 448.308C309.881 450.654 301.669 450.503 301.94 447.917C302.03 447.255 303.534 445.751 305.158 444.728C307.534 443.254 311.054 440.457 311.355 439.825C311.866 438.652 311.685 437.81 310.723 436.877L309.821 436.005L305.098 435.945C302.511 435.945 299.293 436.005 297.969 436.155Z" fill="#243252"/>
</g>
<defs>
<clipPath id="clip0_157_2388">
<rect width="406.076" height="453" fill="white" transform="translate(0.932129)"/>
</clipPath>
</defs>
</svg>
