<svg width="50" height="50" viewBox="0 0 50 50" fill="none" xmlns="http://www.w3.org/2000/svg">
<path fill-rule="evenodd" clip-rule="evenodd" d="M11.0066 5.19351C9.25772 6.41637 7.67627 7.8622 6.30342 9.48976C11.9135 8.96892 19.0409 9.81939 27.3158 13.9569C36.1522 18.375 43.2677 18.5243 48.2198 17.5691C47.7704 16.2087 47.2047 14.9012 46.5347 13.6582C40.8659 14.2561 33.5986 13.4647 25.1291 9.2301C19.7509 6.541 15.0101 5.43327 11.0066 5.19351ZM43.2232 8.94487C38.7466 3.94312 32.2409 0.79538 25 0.79538C22.8736 0.79538 20.8104 1.06689 18.8435 1.5771C21.5074 2.30396 24.3373 3.36735 27.3158 4.85661C33.5167 7.957 38.8702 8.95527 43.2232 8.94487ZM49.2785 22.3444C43.296 23.5258 35.0347 23.2831 25.1291 18.3303C15.8685 13.7 8.49782 13.7583 3.52678 14.863C3.27019 14.92 3.01964 14.9799 2.77515 15.0422C2.12431 16.4577 1.6048 17.9461 1.23204 19.4918C1.63017 19.3854 2.04157 19.2843 2.46603 19.1899C8.49676 17.8498 17.0177 17.908 27.3158 23.0571C36.5765 27.6874 43.9471 27.6291 48.9183 26.5244C49.0885 26.4866 49.2564 26.4475 49.4214 26.4072C49.4395 26.0217 49.4485 25.6338 49.4485 25.2439C49.4485 24.2629 49.3909 23.2953 49.2785 22.3444ZM48.6232 31.5666C42.6987 32.6024 34.678 32.2049 25.1291 27.4306C15.8685 22.8003 8.49782 22.8586 3.52678 23.9633C2.42336 24.2084 1.43073 24.507 0.555095 24.8223C0.552708 24.9625 0.551514 25.1031 0.551514 25.2439C0.551514 38.7465 11.4975 49.6924 25 49.6924C36.3161 49.6924 45.8366 42.0045 48.6232 31.5666Z" fill="#7F57F1"/>
</svg>
