<svg width="463" height="443" viewBox="0 0 463 443" fill="none" xmlns="http://www.w3.org/2000/svg">
<path d="M438.931 370.202C446.526 377.927 456.264 394.811 434.455 400.542" stroke="#243252" stroke-width="3.03402" stroke-linecap="round"/>
<path d="M439.31 386.585C438.015 379.819 432.693 367.058 421.208 362.96C419.321 362.287 417.267 361.847 415.038 361.706" stroke="#243252" stroke-width="3.03402" stroke-linecap="round"/>
<path d="M426.013 323.478C410.915 333.524 386.121 359.962 407.729 385.337C429.337 410.713 437.786 412.937 439.31 410.878" stroke="#243252" stroke-width="3.03402" stroke-linecap="round"/>
<path d="M442.951 343.502L421.106 362.92" stroke="#243252" stroke-width="3.03402" stroke-linecap="round"/>
<path d="M421.106 321.657C422.445 321.809 424.156 322.298 426.076 323.237C431.355 325.816 438.221 331.794 443.323 343.495C444.786 346.851 446.105 350.679 447.198 355.031" stroke="#243252" stroke-width="3.03402" stroke-linecap="round"/>
<path d="M423.533 315.589C433.082 316.803 452.762 322.386 455.087 335.007" stroke="#243252" stroke-width="3.03402" stroke-linecap="round"/>
<path d="M427.174 309.068C431.932 307.735 443.569 306.201 452.053 310.735" stroke="#243252" stroke-width="3.03402" stroke-linecap="round"/>
<path d="M54.593 15.7771L92.9909 69.4121" stroke="#FC766A" stroke-width="3.03402" stroke-linecap="round"/>
<path d="M57.8745 65.6569L77.0276 82.0964" stroke="#FC766A" stroke-width="3.03402" stroke-linecap="round"/>
<path d="M71.1083 104.067L15.8892 83.739" stroke="#FC766A" stroke-width="3.03402" stroke-linecap="round"/>
<path d="M39.4121 126.357L65.4064 125.47" stroke="#FC766A" stroke-width="3.03402" stroke-linecap="round"/>
<path d="M1.62915 163.035L72.5747 145.609" stroke="#FC766A" stroke-width="3.03402" stroke-linecap="round"/>
<path d="M147.723 125.82C144.09 139.377 137.779 150.764 130.588 158.226C123.355 165.732 115.513 169.016 108.684 167.186C101.853 165.356 96.7047 158.591 94.1937 148.475C91.6973 138.416 91.9249 125.4 95.5578 111.842C99.1901 98.2841 105.501 86.8974 112.693 79.4356C119.926 71.9294 127.767 68.6454 134.597 70.4755C141.427 72.305 146.575 79.0703 149.087 89.1869C151.583 99.2453 151.356 112.262 147.723 125.82Z" stroke="#243252" stroke-width="3.03402"/>
<path d="M116.94 126.994C119.529 127.688 122.683 124.315 123.984 119.459C125.285 114.603 124.241 110.104 121.651 109.411C119.062 108.717 115.907 112.09 114.606 116.946C113.305 121.802 114.35 126.301 116.94 126.994Z" fill="#243252"/>
<path d="M226.546 156.363C229.929 151.239 231.044 142.701 231.179 139.072L239.4 144.731C241.958 150.19 238.581 154.039 236.573 155.281L226.546 156.363Z" fill="#243252"/>
<path d="M117.224 166.962L236.572 155.28M239.399 144.731L138.542 72.1605L239.399 144.731Z" stroke="#243252" stroke-width="3.03402" stroke-linecap="round"/>
<path d="M117.118 125.158L141.489 142.053M120.888 111.091L150.127 109.816L120.888 111.091Z" stroke="#243252" stroke-width="3.03402" stroke-linecap="round"/>
<path d="M245.243 321.321L220.525 346.243C200.326 364.368 186.99 350.429 178.797 342.971C170.303 331.011 156.953 316.071 156.953 266.083C156.953 234.833 164.538 219.607 195.182 231.136" stroke="#243252" stroke-width="3.03402" stroke-linecap="round"/>
<path d="M239.4 144.73C240.421 146.783 241.283 151.768 236.573 155.28" stroke="#243252" stroke-width="3.03402" stroke-linecap="round"/>
<path d="M230.671 138.623C230.829 142.329 229.738 150.308 225.959 156.206" stroke="#243252" stroke-width="3.03402" stroke-linecap="round"/>
<path d="M296.214 193.874C275.28 193.874 227.949 204.796 208.531 249.396" stroke="#243252" stroke-width="3.03402" stroke-linecap="round"/>
<path d="M154.661 195.525C153.277 197.299 151.776 201.637 155.937 205.626C156.245 205.921 156.584 206.215 156.958 206.506C162.362 210.718 165.022 206.887 165.676 204.444" stroke="#243252" stroke-width="3.03402" stroke-linecap="round"/>
<path d="M171.169 196.838C172.8 201.069 169.635 202.176 167.848 202.2C167.425 202.151 166.915 202.071 166.343 201.956C163.212 201.328 158.22 199.657 155.289 196.322C155.048 196.047 154.84 195.782 154.661 195.525C152.265 192.08 155.19 190.143 157.095 189.581" stroke="#243252" stroke-width="3.03402" stroke-linecap="round"/>
<path d="M160.23 182.569C158.465 182.515 155.199 183.294 156.258 186.844C157.317 190.394 166.254 194.862 170.591 196.652C170.78 196.724 170.973 196.787 171.169 196.838C172.945 197.307 174.921 196.904 175.558 194.528C176.457 191.171 172.464 188.883 171.539 188.426" stroke="#243252" stroke-width="3.03402" stroke-linecap="round"/>
<path d="M173.157 175.353C171.313 175.591 169.203 177.685 172.623 180.863C176.043 184.042 174.316 186.657 173.026 187.567C171.096 188.516 165.758 188.196 159.843 179.324C153.928 170.452 167.783 169.62 175.45 170.313" stroke="#243252" stroke-width="3.03402" stroke-linecap="round"/>
<path d="M187.977 186.862C185.362 183.335 179.884 177.91 178.892 184.428C177.899 190.947 181.635 194.901 183.627 196.063" stroke="#243252" stroke-width="3.03402" stroke-linecap="round"/>
<path d="M181.219 216.776C179.905 214.644 178.372 208.412 182.743 200.537" stroke="#243252" stroke-width="3.03402" stroke-linecap="round"/>
<path d="M180.679 161.349L173.152 180.063" stroke="#243252" stroke-width="3.03402" stroke-linecap="round"/>
<path d="M187.271 189.5L201.691 159.127" stroke="#243252" stroke-width="3.03402" stroke-linecap="round"/>
<path d="M160.819 213.194C159.327 218.762 154.726 225.383 160.117 228.712C166.698 232.776 169.207 226.435 172.478 220.088L181.707 200.887" stroke="#243252" stroke-width="3.03402" stroke-linecap="round"/>
<path d="M192.754 182.344C195.99 193.772 196.092 217.18 196.092 263.6" stroke="#243252" stroke-width="3.03402" stroke-linecap="round"/>
<path d="M393.943 303.098C408.777 338.596 388.449 369.847 393.943 429.01C357.13 439.932 275.677 452.493 244.366 415.357C242.95 408.884 244.366 372.274 244.366 348.608" stroke="#243252" stroke-width="3.03402" stroke-linecap="round"/>
<path d="M362.691 250.003L357.819 242.524C353.069 235.235 343.827 232.324 335.758 235.578L324.146 240.26C316.901 243.181 308.6 241.155 303.516 235.224L290.178 219.663" stroke="#243252" stroke-width="3.03402" stroke-linecap="round"/>
<path d="M295.64 195.036C292.909 187.147 295.396 181.838 297.824 180.827C312.387 194.177 334.475 189.221 342.667 181.131C345.58 183.801 343.881 191.698 342.667 194.125C326.89 211.601 304.438 201.811 295.64 195.036Z" fill="#243252"/>
<path d="M253.805 71.0083C260.48 94.977 263.818 97.1008 273.527 107.72C273.527 97.2252 275.329 79.6103 275.329 72.2753C307.119 72.2753 333.948 59.298 343.389 52.8094C343.05 74.8142 363.68 89.2021 363.68 89.2021C363.68 89.2021 360.721 98.0887 359.03 117.978C357.677 133.889 361.566 130.814 363.68 127.287C369.767 107.653 379.744 112.9 383.971 117.978C435.846 33.6901 356.071 17.404 340.853 18.9556C329.355 9.13797 313.319 1.44439 302.046 0.315935C261.39 -3.75385 242.982 32.1441 253.805 71.0083Z" fill="#243252"/>
<path d="M362.969 142.289C357.508 175.63 320.852 199.605 294.4 172.596C267.948 145.588 273.241 96.1506 276.067 73.0805" stroke="#243252" stroke-width="3.03402" stroke-linecap="round"/>
<path d="M384.571 115.912C387.909 124.103 384.777 142.256 362.969 142.256" stroke="#243252" stroke-width="3.03402" stroke-linecap="round"/>
<path d="M374.952 120.411C375.435 122.164 375.049 126.318 369.644 128.906" stroke="#243252" stroke-width="3.03402" stroke-linecap="round"/>
<path d="M276.803 138.008C269.685 135.041 264.667 124.052 266.597 106.455" stroke="#243252" stroke-width="3.03402" stroke-linecap="round"/>
<path d="M292.773 116.663C290.751 115.851 289.962 113.079 291.009 110.473C292.056 107.866 294.544 106.411 296.565 107.223C298.587 108.035 299.376 110.807 298.329 113.414C297.282 116.02 294.794 117.475 292.773 116.663Z" fill="#243252"/>
<path d="M329.887 117.709C327.836 116.975 326.88 114.405 327.753 111.968C328.625 109.532 330.994 108.152 333.045 108.886C335.096 109.62 336.052 112.191 335.179 114.627C334.307 117.064 331.938 118.443 329.887 117.709Z" fill="#243252"/>
<path d="M345.978 105.848C345.02 103.028 340.888 97.8119 332.022 99.5037" stroke="#243252" stroke-width="3.03402" stroke-linecap="round"/>
<path d="M303.502 100.387C301.387 98.5554 295.635 95.9911 289.545 100.387" stroke="#243252" stroke-width="3.03402" stroke-linecap="round"/>
<path d="M308.84 113.524C308.133 119.515 303.496 132.335 311.384 132.335" stroke="#243252" stroke-width="3.03402" stroke-linecap="round"/>
<path d="M343.545 191.75C403.922 191.75 479.469 255.161 455.918 334.349" stroke="#243252" stroke-width="3.03402" stroke-linecap="round"/>
<path d="M389.752 278.451C389.181 277.838 388.221 277.803 387.608 278.374C386.995 278.945 386.96 279.905 387.531 280.518L389.752 278.451ZM411.485 318.078C412.189 318.532 413.127 318.329 413.582 317.625C414.036 316.921 413.833 315.982 413.129 315.528L411.485 318.078ZM387.531 280.518C390.162 283.344 396.062 291.243 398.403 299.905L401.332 299.113C398.818 289.813 392.582 281.491 389.752 278.451L387.531 280.518ZM398.403 299.905C400.957 309.355 408.142 315.921 411.485 318.078L413.129 315.528C410.202 313.639 403.632 307.624 401.332 299.113L398.403 299.905Z" fill="#243252"/>
<path d="M303.5 152C310.182 157.577 315.378 158.227 327.5 154.5" stroke="#243252" stroke-width="3" stroke-linecap="round"/>
</svg>
