<svg width="129" height="129" viewBox="0 0 129 129" fill="none" xmlns="http://www.w3.org/2000/svg">
<path d="M53.4884 0.514557C53.155 0.6604 52.5925 1.07706 52.2384 1.45206C51.6342 2.07706 51.6134 2.18123 51.6342 3.80623C51.655 4.74373 51.78 6.07706 51.905 6.74373C52.1342 8.0354 52.2384 19.3062 52.0092 20.1396C51.8842 20.5562 47.4259 24.1812 46.6759 24.4729C46.3425 24.5979 46.1134 24.3479 44.1134 21.7646C36.0717 11.2646 35.1759 10.1604 34.3634 9.74373C32.5717 8.7854 31.4675 9.36873 24.6134 14.9104C22.3634 16.7437 18.7592 19.6187 16.5925 21.3479C11.8634 25.1187 10.1759 26.7229 9.98835 27.6187C9.69668 29.0562 10.0925 29.6396 14.2175 33.9312C16.3842 36.1812 18.8009 38.6604 19.6134 39.4729C20.5925 40.4312 21.0925 41.0771 21.0925 41.3896C21.0925 41.6604 20.8009 42.5146 20.4467 43.2854C19.0509 46.3062 18.7592 46.9312 18.155 48.4729C17.8009 49.3687 17.405 50.2021 17.3009 50.3479C17.0925 50.5979 15.7384 50.9312 12.2384 51.5562C10.2175 51.9104 9.42585 52.0562 6.17585 52.6812C4.36335 53.0146 3.88418 53.2021 2.63418 54.0354C0.342518 55.5771 0.467518 54.9104 0.467518 65.2854C0.467518 73.7437 0.488351 74.2437 0.863351 74.8687C1.09252 75.2229 1.59252 75.7021 1.96752 75.9312C2.61335 76.3271 3.09252 76.3479 8.65502 76.4104L14.6342 76.4729L17.8634 82.9521C19.6342 86.4937 21.0925 89.6396 21.0925 89.8896C21.0925 90.1604 20.4467 91.3896 19.6342 92.6396C18.8425 93.8687 17.8425 95.4521 17.405 96.1396C16.9884 96.8271 15.8009 98.6396 14.8009 100.181C12.6342 103.452 12.3217 104.327 12.8217 105.66C13.1967 106.619 13.28 106.702 20.7592 113.181C22.2384 114.473 24.8009 116.702 26.4675 118.181C29.6342 120.952 30.4467 121.41 31.7592 121.16C32.8634 120.952 35.2592 119.181 36.155 117.89C36.5925 117.265 37.9675 115.41 39.1967 113.744L41.4467 110.723L42.3634 110.744C42.8634 110.744 44.5092 111.015 45.9884 111.306C47.4884 111.619 49.3009 111.973 50.0509 112.098C51.8634 112.431 52.3425 112.744 52.3425 113.577C52.3425 114.223 52.6967 117.369 53.28 122.077C53.4467 123.39 53.5925 124.806 53.5925 125.202C53.6134 126.265 54.2384 127.431 55.1134 128.015C55.9675 128.619 57.28 128.681 60.8217 128.327C61.9467 128.223 64.655 127.994 66.8217 127.806C69.0092 127.64 72.4675 127.327 74.53 127.16L78.28 126.806L79.6759 125.91C82.1342 124.285 82.5925 123.306 82.0509 120.973C81.905 120.265 81.5925 118.89 81.405 117.91C81.2175 116.931 80.9259 115.577 80.78 114.89C80.0092 111.431 79.9467 110.973 80.3425 110.744C80.53 110.619 81.3217 110.098 82.0925 109.598C82.8634 109.098 83.78 108.535 84.1134 108.348C84.4675 108.16 85.1342 107.744 85.6134 107.431C86.1134 107.119 86.6342 106.869 86.8217 106.869C86.9884 106.869 88.7592 108.077 90.7384 109.535C97.405 114.494 97.4884 114.535 98.8842 114.285C99.5717 114.16 101.905 112.681 104.53 110.723C105.218 110.202 106.405 109.348 107.176 108.806C113.28 104.452 115.926 102.452 116.884 101.515C117.905 100.473 117.968 100.369 117.968 99.3479C117.968 98.1187 117.718 97.6812 112.509 89.6812C111.384 87.9521 110.468 86.3479 110.468 86.0979C110.468 85.8479 110.593 85.2229 110.759 84.7437C110.905 84.2437 111.197 83.2437 111.405 82.4937C111.593 81.7437 111.863 80.8479 111.968 80.5146C112.093 80.1604 112.259 79.5146 112.343 79.0562C112.655 77.5979 113.322 75.4312 113.572 75.1187C113.884 74.7646 114.093 74.6812 118.697 73.2229C126.718 70.6812 127.468 70.4104 128.009 69.8271C129.072 68.7229 129.093 68.0562 128.28 62.3896C128.009 60.4104 127.759 58.6396 127.03 52.9521C126.405 48.2646 126.301 47.7229 125.718 47.0354C125.113 46.3062 124.113 45.8271 123.218 45.8271C122.884 45.8271 121.905 46.0562 121.072 46.3271C120.218 46.5771 118.551 47.0979 117.343 47.4729C116.134 47.8479 114.884 48.2437 114.53 48.3479C114.197 48.4729 113.634 48.6604 113.28 48.7437C112.947 48.8479 112.072 49.0979 111.343 49.3271C110.134 49.7229 110.03 49.7229 109.655 49.4104C109.447 49.2021 108.863 47.9729 108.384 46.6604C107.884 45.3479 106.988 42.9729 106.384 41.3896C105.759 39.8062 105.259 38.3062 105.259 38.0354C105.259 37.7021 105.634 37.2437 106.488 36.5146C107.176 35.9521 108.447 34.8271 109.343 34.0354C111.843 31.7854 113.218 30.5771 114.03 29.8896C115.384 28.7021 115.884 27.8687 115.884 26.7437C115.884 26.0979 115.738 25.4937 115.488 25.0979C114.509 23.5771 105.259 12.3479 104.634 11.9312C104.259 11.6604 103.634 11.4521 103.238 11.4521C101.905 11.4521 101.176 11.9312 97.0092 15.5562C95.905 16.5354 93.5717 18.5354 91.4259 20.3687C90.8217 20.8896 90.4675 21.0562 90.0717 20.9729C89.5925 20.8896 85.7592 19.4937 82.1342 18.1187C81.5092 17.8687 80.7175 17.5771 80.3634 17.4729C80.03 17.3687 79.5509 17.2021 79.3217 17.0979C79.0925 16.9937 78.4884 16.7437 77.9675 16.5354C77.4467 16.3271 76.9259 16.0771 76.78 15.9729C76.5925 15.8479 76.5092 14.0146 76.4675 9.05623C76.405 2.61873 76.3842 2.2854 75.9675 1.74373C75.7384 1.43123 75.28 0.9729 74.9675 0.743729C74.405 0.327057 74.1342 0.306229 64.2592 0.264557C56.1342 0.243729 53.9884 0.2854 53.4884 0.514557ZM73.3425 3.36873C73.53 3.55623 73.5925 5.26456 73.5925 9.80623C73.5925 13.2021 73.655 16.2854 73.7175 16.6396C73.8842 17.4104 74.78 18.3896 75.7384 18.8271C76.3425 19.0979 78.2175 19.8062 84.0092 21.9104C84.9884 22.2646 86.5717 22.8479 87.5509 23.2229C91.28 24.6396 90.8009 24.8271 96.9259 19.4937C100.509 16.3896 100.426 16.4521 101.78 15.3479C102.488 14.7646 103.093 14.4312 103.28 14.4937C103.447 14.5771 103.593 14.6812 103.593 14.7646C103.593 14.8479 104.176 15.6187 104.905 16.4937C106.551 18.4937 110.447 23.3687 111.884 25.2229C113.113 26.8479 113.113 27.0146 111.822 27.9937C111.426 28.3062 110.863 28.7646 110.593 29.0146C110.322 29.2646 108.697 30.6812 107.009 32.1812C102.718 35.9521 102.384 36.2854 102.238 37.3479C102.093 38.2854 102.405 39.8687 102.759 40.0979C102.884 40.1604 102.968 40.4104 102.968 40.6187C102.968 40.8271 103.093 41.2646 103.259 41.5979C103.426 41.9104 103.697 42.5562 103.884 43.0146C107.009 51.1812 107.155 51.5354 108.03 52.1604C108.926 52.8062 110.53 52.7229 113.176 51.9104C114.384 51.5146 115.676 51.0771 116.051 50.9104C116.426 50.7437 116.905 50.6187 117.134 50.6187C117.363 50.6187 117.843 50.4937 118.218 50.3271C118.593 50.1604 119.468 49.8687 120.155 49.6812C120.843 49.4729 121.759 49.1812 122.176 49.0354C122.613 48.8687 123.093 48.8062 123.259 48.8687C123.572 48.9937 123.822 50.2437 124.218 53.6396C124.322 54.6604 124.613 56.9729 124.843 58.7437C125.613 64.5354 125.884 66.7646 125.884 67.3271C125.884 67.8687 125.78 67.9312 121.676 69.2437C119.343 69.9729 116.322 70.9312 114.947 71.3687C113.572 71.7854 112.238 72.2854 111.968 72.4521C111.28 72.8896 110.634 73.8896 110.447 74.7646C110.363 75.1812 109.676 77.7646 108.905 80.5146C107.218 86.6812 107.218 86.8479 108.822 89.3687C109.426 90.3479 110.343 91.7229 110.822 92.4521C111.322 93.1812 111.718 93.8062 111.718 93.8479C111.718 93.8896 112.426 94.9729 113.28 96.2854C114.134 97.5771 114.843 98.7854 114.843 98.9521C114.822 99.1812 108.572 103.973 102.384 108.473C102.197 108.619 101.676 109.015 101.218 109.369C100.78 109.702 100.218 109.994 99.9675 109.994C99.7384 109.994 98.7384 109.39 97.7592 108.64C90.0509 102.806 89.5092 102.473 87.9467 102.785C87.405 102.89 83.655 105.015 81.3009 106.556C80.905 106.806 79.6134 107.64 78.4675 108.39C74.9884 110.64 74.8634 111.015 75.8842 115.515C75.9884 115.973 76.2175 117.098 76.405 118.015C76.5925 118.931 76.905 120.306 77.0717 121.098C77.4675 122.869 77.3217 123.119 75.8009 123.119C75.2175 123.119 73.1967 123.244 71.3009 123.431C69.405 123.598 66.28 123.869 64.3217 124.056C60.03 124.431 58.7175 124.452 58.4467 124.098C58.3217 123.973 58.0925 122.306 57.905 120.41C56.905 110.535 56.8425 110.181 55.9884 109.369C55.4467 108.869 53.5925 108.119 52.8634 108.119C52.6342 108.119 51.8009 107.994 50.9884 107.827C50.1967 107.64 48.78 107.369 47.8634 107.181C46.9467 107.015 45.5717 106.702 44.78 106.515C44.0092 106.348 42.9884 106.244 42.4884 106.285C41.3217 106.431 38.6759 108.202 37.8425 109.41C37.3217 110.202 35.8009 112.265 33.405 115.473C33.0092 116.015 32.5509 116.452 32.405 116.452C32.1134 116.452 30.6967 115.39 29.3217 114.119C28.5092 113.39 25.5717 110.806 23.0925 108.66C18.0717 104.306 17.3009 103.556 17.4467 103.181C17.5509 102.848 18.4259 101.452 20.4259 98.3687C26.03 89.7437 25.7592 90.2229 25.8425 88.9729C25.9259 87.8062 25.905 87.7437 22.3425 80.6604C19.405 74.8271 18.6134 73.4104 18.0092 72.9521L17.28 72.3896L11.4259 72.3271C7.69668 72.2854 5.48835 72.1812 5.32168 72.0354C4.92585 71.7229 4.92585 57.0146 5.32168 56.7021C5.44668 56.5771 5.94668 56.4312 6.40502 56.3479C7.32168 56.2021 9.94668 55.7437 12.3425 55.3062C13.1967 55.1396 14.78 54.8479 15.8425 54.6604C17.4884 54.3479 18.0092 54.1604 19.28 53.3271C20.8425 52.3062 21.0092 52.0979 22.2384 49.2646C22.5509 48.5771 22.9675 47.6396 23.1759 47.1812C25.9259 41.0979 26.2384 40.0146 25.5925 38.7854C25.405 38.4312 23.5092 36.3479 21.3425 34.1187C15.8842 28.5146 14.8425 27.3896 14.8425 27.1187C14.8425 26.8479 16.4884 25.4312 21.5717 21.3271C30.8009 13.9104 31.0092 13.7437 31.3425 13.7646C31.4884 13.7646 32.5925 15.0354 33.8009 16.5979C35.0092 18.1604 36.8009 20.4729 37.8009 21.7437C38.78 23.0146 40.28 24.9521 41.1342 26.0354C43.655 29.2854 44.7384 29.5562 47.6134 27.6396C48.5509 27.0146 50.0717 25.9104 50.9884 25.1812C51.905 24.4312 53.4259 23.2646 54.3634 22.5562C56.7175 20.7437 56.905 20.2437 56.4259 17.0354C56.2384 15.7437 55.9259 13.7021 55.7592 12.4937C55.5925 11.2854 55.3634 9.7229 55.2592 9.0354C55.03 7.57706 54.9884 3.4729 55.1967 3.26456C55.2592 3.18123 59.3217 3.11873 64.2175 3.11873C70.8425 3.11873 73.155 3.18123 73.3425 3.36873Z" fill="#C0C6D5"/>
</svg>
