<svg width="310" height="267" viewBox="0 0 310 267" fill="none" xmlns="http://www.w3.org/2000/svg">
<g clip-path="url(#clip0_161_2151)">
<path d="M106.692 0.82045C106.692 1.04941 106.325 1.20967 105.615 1.30125C101.838 1.80495 94.2823 5.3537 89.9322 8.67351L88.6272 9.658L86.1545 9.52063C82.1479 9.29167 79.1715 9.86406 75.8517 11.5125C72.1198 13.3899 69.1205 16.8471 67.4949 21.2201C65.8694 25.5473 65.8465 32.2784 67.4263 36.6743C68.0215 38.3228 69.235 41.1618 69.4868 41.4823C69.6242 41.6655 69.9676 42.2836 70.2882 42.856C71.2269 44.6189 74.0888 48.8546 75.4167 50.4114C77.3857 52.701 78.0954 54.3952 78.6449 58.0126C78.7594 58.814 78.6907 58.9513 77.7291 59.89C76.653 60.9432 76.6301 60.989 76.6072 63.4617L76.5843 64.492L74.7527 64.6293C72.2342 64.8125 70.8376 65.4078 68.1818 67.3997C65.8465 69.1626 63.6257 72.139 61.9772 75.7106C61.7483 76.2143 61.4048 76.9241 61.2217 77.2675C61.0385 77.6338 60.9011 78.023 60.9011 78.1604C60.9011 78.2749 60.7638 78.7099 60.6035 79.0991C59.8251 80.9307 58.1766 87.5932 58.1308 89.1043C58.1079 89.5393 58.0392 90.1575 57.9477 90.4551C57.8103 90.9588 57.7874 90.9588 57.3982 90.1575C57.1921 89.6996 56.8945 88.8753 56.78 88.3488C56.551 87.3872 55.91 85.1663 55.2689 83.0371C55.0858 82.396 54.8339 81.526 54.7194 81.091C54.5134 80.1981 54.1242 79.0533 53.6663 77.9314C53.4831 77.5193 53.3457 77.0385 53.3457 76.8554C53.3457 76.6722 53.2083 76.1914 53.0252 75.7793C52.842 75.3672 52.5444 74.6116 52.3612 74.1079C49.568 66.667 46.6603 62.2025 43.7984 60.9432C42.5392 60.3937 40.5015 60.3479 38.8302 60.8058C38.1891 60.989 36.9986 61.3095 36.1743 61.5156C32.1219 62.5688 29.3516 63.5991 25.6425 65.4078C23.4675 66.461 23.3759 66.5068 21.2467 68.1094C19.209 69.6205 17.9269 71.0629 17.3545 72.4595C16.8508 73.6958 16.805 77.1759 17.2858 79.3738C17.469 80.2668 17.6292 81.7549 17.6292 82.7165C17.6292 83.6552 17.7437 85.5098 17.8582 86.8377C17.9955 88.1427 18.2016 91.0733 18.3161 93.3399C18.6824 100.437 19.9416 112.938 20.743 117.334C20.9261 118.296 21.0635 119.44 21.0635 119.853C21.0635 120.242 21.178 120.951 21.2925 121.409C21.4298 121.867 21.613 122.943 21.7275 123.813C22.0022 125.714 22.1167 126.332 23.5133 133.292C23.6964 134.231 23.9941 135.536 24.1772 136.177C24.3604 136.818 24.4978 137.528 24.4978 137.757C24.4978 137.986 24.6352 138.695 24.8183 139.336C25.0015 139.977 25.322 141.168 25.5281 141.992C25.7341 142.816 26.0547 144.053 26.2607 144.74C26.4439 145.426 26.7415 146.503 26.9018 147.144C27.4742 149.273 28.0007 151.036 28.2755 151.837C28.4358 152.272 28.7563 153.257 28.9623 154.012C29.1913 154.768 29.466 155.638 29.5805 155.958C29.7179 156.279 30.0613 157.24 30.3589 158.133C30.6337 159.003 31.1145 160.308 31.3663 160.995C31.6411 161.682 31.9387 162.506 32.0532 162.827C32.1448 163.147 32.3279 163.651 32.4653 163.972C32.5798 164.292 32.8774 165.002 33.0835 165.574C33.3124 166.147 33.633 166.948 33.8161 167.337C33.9764 167.749 34.274 168.436 34.4801 168.894C36.0599 172.603 36.4262 173.381 38.5096 177.617C39.6086 179.907 40.7305 181.944 40.9823 182.173C41.3944 182.54 43.5466 182.562 75.4854 182.677C94.2136 182.723 109.668 182.769 109.805 182.769C109.966 182.746 110.103 183.661 110.194 185.241C110.332 187.622 110.469 188.126 111.477 190.278C112.026 191.423 113.72 193.071 115.163 193.827C116.285 194.422 116.651 194.491 118.483 194.491C119.902 194.491 120.818 194.376 121.39 194.102C121.871 193.896 122.535 193.735 122.878 193.735C123.222 193.735 123.817 193.575 124.183 193.392C124.527 193.209 124.985 193.048 125.145 193.048C125.328 193.048 126.061 192.453 126.793 191.721C127.984 190.53 128.167 190.209 128.442 188.973C128.625 188.012 128.671 187.119 128.556 186.226C128.236 183.982 128.327 182.7 128.877 181.372C129.152 180.685 129.472 179.792 129.587 179.426C129.678 179.037 129.861 178.487 129.976 178.167C130.113 177.846 130.388 176.976 130.617 176.22C130.846 175.465 131.144 174.389 131.304 173.816C132.151 170.955 132.884 168.184 134.051 163.514C134.234 162.758 134.555 161.499 134.761 160.698C135.173 159.003 135.7 157.286 136.112 156.187C136.959 153.898 137.829 149.822 137.829 148.082C137.829 147.189 137.714 146.48 137.165 143.824C137.005 143.114 136.066 141.031 135.196 139.474C134.372 138.031 131.281 135.284 128.785 133.819C125.809 132.079 121.344 130.522 116.536 129.537C112.415 128.713 109.759 128.484 104.104 128.461C98.4035 128.461 98.0142 128.507 92.4965 129.514C91.5578 129.697 89.7491 129.995 88.4898 130.201C87.2306 130.407 85.4906 130.728 84.5976 130.911C83.7276 131.094 82.5142 131.231 81.9418 131.231C81.3694 131.231 79.8812 131.392 78.622 131.575C75.3709 132.056 66.6707 132.056 64.9994 131.552C61.9314 130.636 59.1611 128.805 58.6574 127.385C58.4971 126.927 58.2682 125.622 58.1537 124.477C58.0163 123.355 57.8332 121.753 57.6958 120.929C57.1005 116.853 57.215 102.979 57.9019 98.3768C58.0392 97.4839 58.314 95.4921 58.4971 93.9123C60.0082 81.9152 62.8472 74.0851 67.3118 69.6434C70.105 66.8502 73.5851 65.2246 75.9204 65.6138C76.4012 65.7054 77.0651 65.797 77.3857 65.8199C78.0038 65.8657 78.0038 65.9802 77.7062 63.2098C77.5917 62.2711 77.6604 61.7446 77.9352 61.218C78.5304 60.0732 79.6752 60.1877 82.766 61.6759C83.2697 61.9048 84.0024 62.3169 84.3687 62.5459C84.7579 62.7977 85.2158 63.0725 85.399 63.164C85.5821 63.2327 86.3606 63.7822 87.1161 64.3546C90.2299 66.6899 91.8096 68.4071 91.8096 69.4373C91.8096 69.9868 91.9012 70.1013 92.382 70.1013C92.7025 70.1013 93.0231 69.941 93.1147 69.735C93.2749 69.3229 92.4736 67.7431 91.6265 66.8273C90.8709 66.0488 91.077 65.8199 92.8628 65.4994C99.594 64.2859 103.898 61.8819 107.218 57.5776C107.813 56.7992 108.294 56.1123 108.294 56.0437C108.294 55.975 108.592 55.4255 108.935 54.8302C109.302 54.2349 109.645 53.5252 109.714 53.2733C109.805 53.0215 110.103 52.0828 110.423 51.2128C110.721 50.3199 111.11 49.0377 111.271 48.3509C111.706 46.5193 111.82 46.359 113.033 46.1758C114.064 46.0155 115.3 45.489 116.101 44.8708C116.788 44.3213 117.681 42.8102 117.681 42.1921C117.681 41.322 116.949 40.246 115.941 39.6507C113.011 37.8878 112.324 36.7888 112.324 33.9269C112.347 32.805 112.461 31.7519 112.621 31.4313C113.171 30.4239 113.789 27.2644 113.789 25.4786V23.6927L114.774 23.0059C115.987 22.113 119.49 18.5642 120.474 17.2134C122.466 14.4889 123.405 12.1536 123.405 10.0014C123.405 7.48296 122.421 5.69713 120.017 3.86551C118.643 2.81233 115.895 1.41573 115.209 1.41573C114.453 1.41573 113.789 1.14099 113.789 0.82045C113.789 0.568604 113.102 0.499924 110.24 0.499924C107.31 0.499924 106.692 0.545715 106.692 0.82045ZM95.8163 22.1588C98.6553 23.647 99.594 24.082 99.9145 24.082C100.075 24.082 100.624 24.2651 101.105 24.4712C101.861 24.7917 102.731 24.8604 106.577 24.8146C109.096 24.7917 111.477 24.7459 111.843 24.723L112.53 24.6543L112.484 26.6233C112.438 28.0657 112.232 29.1647 111.728 30.7445C111.339 31.9808 111.042 33.4003 111.042 34.0872C111.042 36.4454 112.347 38.6662 114.545 40.0399C116.056 40.9786 116.536 41.5052 116.536 42.2379C116.536 43.6345 113.995 45.2142 111.385 45.4203C110.813 45.489 110.698 45.6034 110.561 46.2903C110.011 49.0606 109.462 51.167 109.187 51.4417C109.073 51.5562 108.981 51.7851 108.981 51.9683C108.981 52.5407 107.355 55.5171 106.234 57.051C105.066 58.6308 104.516 59.1803 102.708 60.554C101.563 61.424 98.0371 63.2327 97.4876 63.2327C97.3274 63.2327 96.8008 63.3701 96.2742 63.5533C95.7705 63.7364 94.4884 64.057 93.4123 64.263C92.3362 64.4691 91.1228 64.7438 90.7107 64.8583C90.0009 65.0872 89.8635 65.0186 88.3067 63.8738C85.6737 61.9048 82.3081 60.0045 80.8657 59.684C79.8812 59.4779 79.7439 59.2261 79.5607 57.28C79.3547 54.8073 78.7136 53.0444 77.2941 50.938C76.6988 50.068 76.653 49.4956 77.1567 49.4956C77.7978 49.4956 83.3384 45.26 84.7579 43.6803C86.2003 42.0776 86.1316 41.4136 84.4374 40.5436C83.5216 40.0857 81.9418 37.8878 81.3007 36.2164C80.3849 33.7666 80.4078 30.4926 81.3923 29.2105C82.0105 28.4092 83.2468 27.7452 84.1397 27.7452C84.7121 27.7452 86.0172 28.2718 86.5437 28.7068C87.574 29.5768 89.0622 32.1182 89.0622 33.0111C89.0622 33.5148 89.6117 33.6293 89.8407 33.1714C89.9093 33.034 90.1841 32.5761 90.413 32.2098C90.6649 31.8205 91.1915 30.9047 91.5807 30.1721C92.2904 28.8671 92.3133 28.7526 92.0615 27.562C91.512 24.7688 91.9241 22.4793 93.1376 21.7238C93.9847 21.2201 94.0076 21.2201 95.8163 22.1588ZM42.9284 61.7903C45.1492 62.523 47.5074 65.6367 49.8885 70.8568C50.2778 71.704 50.5983 72.5282 50.5983 72.6884C50.5983 72.8487 50.7586 73.1921 50.9417 73.444C51.1249 73.6729 51.2852 74.1079 51.2852 74.3827C51.2852 74.6574 51.3767 74.9322 51.4912 75.0238C51.6057 75.0924 51.7888 75.4817 51.8804 75.8938C51.9491 76.283 52.1552 76.9241 52.3154 77.3133C52.5902 77.9314 53.6205 81.2284 54.376 83.8384C54.5363 84.4108 54.8339 85.3724 55.0171 86.0135C55.2002 86.6316 55.5208 87.8222 55.7497 88.6464C55.9558 89.4706 56.2534 90.5925 56.4366 91.1649C57.1921 93.7749 57.3066 94.7365 57.0547 96.5681C55.7726 105.658 55.7497 114.907 56.9861 123.928C57.1463 125.164 57.1234 125.21 56.7113 124.958C56.3221 124.729 54.0326 120.333 54.0326 119.807C54.0326 119.692 53.8952 119.303 53.712 118.937C53.5289 118.593 53.071 117.517 52.7047 116.579C51.972 114.701 50.667 111.473 50.3464 110.74C50.2549 110.488 49.9343 109.71 49.6596 109.023C49.4077 108.336 49.0414 107.42 48.8583 107.008C48.0569 105.177 47.8509 104.673 47.164 102.956C46.7519 101.949 46.294 100.804 46.1337 100.437C45.9735 100.048 45.4927 98.9263 45.1035 97.9189C44.6913 96.9116 44.2334 95.7668 44.0732 95.4005C43.6153 94.3015 43.3634 93.752 42.1271 90.707C41.4631 89.1272 40.7992 87.5245 40.6389 87.1582C40.4557 86.769 39.7002 84.9145 38.9217 83.0371C37.548 79.6944 37.2962 79.0991 36.5635 77.4277C36.3575 76.9927 35.9912 76.054 35.7164 75.3672C34.4801 72.2763 33.7932 71.1316 32.4195 69.735C30.5192 67.8347 29.3745 67.3539 26.7644 67.3539C25.6425 67.3539 24.7267 67.2623 24.7267 67.1707C24.7267 67.0791 25.5739 66.5983 26.627 66.1175C27.6573 65.6367 28.6876 65.1559 28.9166 65.0415C29.1226 64.927 30.4047 64.4691 31.7785 64.0341C33.1293 63.5762 34.5946 63.0954 35.0296 62.958C35.4646 62.8206 36.1972 62.6146 36.6322 62.523C37.0672 62.4085 38.2578 62.1338 39.2652 61.8819C41.6234 61.3324 41.6005 61.3324 42.9284 61.7903ZM28.6876 68.6131C30.794 69.2542 32.7858 71.1774 33.7474 73.5356C33.9764 74.1079 34.3198 74.9322 34.5259 75.3672C35.3501 77.2217 35.7622 78.2291 37.2046 81.7778C37.7999 83.2202 38.441 84.7542 38.6012 85.1434C39.2423 86.5858 39.5857 87.4101 40.6389 90.0201C41.2342 91.4625 41.8523 92.9507 42.0126 93.3399C42.1958 93.7062 42.8139 95.2173 43.3863 96.6597C43.9816 98.1021 44.5998 99.5903 44.76 99.9795C44.9203 100.346 45.4011 101.491 45.7903 102.498C46.2024 103.505 46.6603 104.627 46.8206 105.016C47.1411 105.749 48.8354 109.847 49.9572 112.686C50.3464 113.625 50.7815 114.701 50.9417 115.09C51.102 115.457 51.4225 116.235 51.6286 116.807C51.8575 117.38 52.1552 118.135 52.3383 118.525C52.4986 118.891 52.842 119.784 53.1397 120.471C54.4447 123.745 56.0931 126.561 57.7874 128.461C58.4971 129.217 60.5577 130.865 61.5422 131.415C64.4728 133.063 70.5858 133.704 76.3325 132.971C81.9189 132.239 92.7712 131.438 96.9611 131.46C98.2203 131.46 100.533 131.621 102.112 131.804C106.348 132.285 108.019 132.857 109.508 134.299C110.286 135.032 111.728 137.757 111.728 138.466C111.728 138.649 111.912 139.13 112.141 139.542C112.484 140.206 112.53 141.031 112.507 147.739C112.484 154.768 112.232 159.141 111.477 166.032C111.339 167.223 111.202 168.825 111.133 169.581C111.042 171 110.515 175.717 110.103 178.991C109.966 179.998 109.782 180.96 109.691 181.097C109.324 181.692 101.059 181.898 84.5976 181.715C75.783 181.624 62.5038 181.486 55.0629 181.395L41.5547 181.257L39.6086 177.365C38.5325 175.213 37.4107 172.901 37.113 172.214C36.8154 171.527 36.3346 170.428 36.0599 169.81C35.7622 169.169 35.2127 167.841 34.8006 166.833C34.3885 165.826 33.9077 164.681 33.7474 164.269C33.5643 163.88 33.4269 163.422 33.4269 163.239C33.4269 163.056 33.3353 162.827 33.2208 162.712C32.9919 162.483 32.2364 160.354 30.7482 155.844C30.3132 154.447 29.8095 152.959 29.6492 152.524C29.0997 150.99 27.7031 146.045 26.9018 142.908C26.6957 142.084 26.3752 140.893 26.2149 140.275C26.0547 139.634 25.757 138.352 25.551 137.413C25.322 136.474 25.0015 135.078 24.8412 134.322C24.6809 133.567 24.3604 132.079 24.1544 131.002C23.9483 129.926 23.6507 128.324 23.4675 127.454C21.4069 116.807 19.6669 101.056 19.0029 86.975C18.8656 84.5482 18.6366 81.3428 18.4306 79.8317C17.8353 74.8406 18.0184 72.8487 19.2319 71.5895C19.9416 70.8568 22.5746 69.4144 23.1928 69.4144C23.3759 69.4144 23.582 69.3457 23.6736 69.2313C23.9483 68.9565 26.1462 68.3155 26.9018 68.2926C27.291 68.2926 28.0923 68.4299 28.6876 68.6131Z" fill="#243252"/>
<path d="M103.715 32.0496C102.021 32.8738 101.288 34.133 101.403 36.0333C101.448 36.8804 102.067 36.3996 102.456 35.232C102.96 33.698 103.578 33.0112 104.539 33.0112C105.341 33.0112 105.89 32.5075 105.684 31.9809C105.524 31.5459 104.722 31.5688 103.715 32.0496Z" fill="#243252"/>
<path d="M84.254 33.3546C83.6358 34.9573 84.5745 37.1323 85.9025 37.1323C86.4748 37.1323 86.429 36.7889 85.6964 35.8273C85.2156 35.2091 85.0553 34.7283 85.0553 33.9728C85.0553 32.7822 84.5974 32.4388 84.254 33.3546Z" fill="#243252"/>
<path d="M105.57 36.3538C104.792 37.3383 105.043 38.9181 106.028 39.4447C106.486 39.6736 106.623 39.6278 107.081 39.1013C107.699 38.3686 107.768 37.4528 107.218 36.6744C106.486 35.5983 106.211 35.5296 105.57 36.3538Z" fill="#243252"/>
<path d="M96.5487 50.3429C96.2282 50.6405 96.4114 51.0984 97.1211 51.8997C98.6093 53.6169 100.372 54.0061 102.662 53.1361C103.623 52.7697 103.944 52.5179 103.944 52.1745C103.944 51.6937 103.784 51.6937 101.654 52.2432C100.052 52.6553 99.0672 52.3576 97.9911 51.19C97.0753 50.1826 96.8235 50.0452 96.5487 50.3429Z" fill="#243252"/>
<path d="M252.763 4.36925C252.328 4.48373 251.504 4.66689 250.931 4.80426C249.558 5.12479 248.23 5.62849 247.909 5.94902C247.749 6.10928 247.543 6.22376 247.428 6.22376C247.337 6.22376 246.787 6.56719 246.215 7.0022C243.902 8.76513 242.231 11.9247 242.231 14.466C242.231 16.0916 243.032 19.5259 243.719 20.8996C244.36 22.2046 245.345 23.3952 245.78 23.3952C245.94 23.3952 246.238 23.6012 246.444 23.8302C246.787 24.1965 246.81 24.3339 246.535 24.7918C245.78 26.1426 243.857 28.5008 241.888 30.5156C239.507 32.9653 239.094 33.8354 239.369 35.7357C239.529 36.7888 240.399 38.1854 242.002 39.9026C242.666 40.6123 242.712 40.7726 242.597 41.8258C242.208 45.2372 242.208 46.6796 242.666 49.1522C242.918 50.526 243.284 52.1286 243.49 52.701C244.795 56.2269 247.703 59.2261 251.618 61.0806C254.823 62.6146 256.77 63.2099 257.159 62.8207C257.548 62.4315 257.227 61.9278 256.495 61.7904C255.602 61.6301 254.068 61.0577 252.351 60.2335C247.863 58.1272 245.207 55.0821 244.04 50.6633C243.651 49.2209 243.582 48.3051 243.628 44.5503L243.674 40.1544L242.529 38.8036C240.743 36.7202 240.331 36.0333 240.331 35.0946C240.331 33.9269 240.834 33.0798 242.46 31.5229C243.238 30.7674 244.086 29.9432 244.337 29.6913L244.818 29.2334L244.635 29.9203C244.544 30.2866 244.406 31.729 244.36 33.1027C244.269 35.6899 244.315 35.9875 245.414 38.2541C245.62 38.6662 246.192 39.3531 246.673 39.7881C247.428 40.4292 247.772 40.5665 248.642 40.5665C249.535 40.5665 249.809 40.4521 250.405 39.811C251.137 39.0555 251.778 37.5215 251.893 36.3309L251.962 35.6441L253.679 35.7128C257.273 35.8272 260.57 36.2851 260.753 36.6515C260.868 36.8575 261.074 38.0023 261.211 39.1928C261.646 42.4668 262.539 46.5422 263.203 48.0762C263.386 48.4883 263.524 48.9691 263.524 49.1522C263.524 49.6101 265.928 54.8074 266.798 56.2497C267.668 57.6921 269.98 60.5769 271.285 61.8362C272.796 63.2786 274.994 65.0644 275.658 65.362C275.841 65.4536 276.322 65.7284 276.688 65.9573C278.543 67.1479 282.962 68.0408 286.854 68.0408C294.524 68.0408 300.499 65.2933 304.46 59.9588C306.315 57.4632 307.94 53.7771 308.284 51.2586C308.375 50.5488 308.536 50.1825 308.765 50.1825C309.245 50.1825 309.245 44.3443 308.765 44.1611C308.558 44.0924 308.375 43.5658 308.284 42.9247C308.123 41.8029 307.643 40.0857 307.139 38.8494C306.75 37.9107 305.239 34.8427 304.895 34.2704C304.14 33.0569 301.988 30.2637 301.072 29.3479C300.064 28.3176 296.722 25.6847 296.035 25.387C295.852 25.2955 295.394 25.0207 295.005 24.7689C293.127 23.5783 290.403 22.4336 287.907 21.8383C286.442 21.472 282.366 21.3346 280.718 21.5864C280.168 21.678 280.077 21.5864 278.406 18.4956C277.1 16.0916 273.46 12.0162 270.804 9.97857C269.27 8.78802 266.569 7.18536 265.126 6.59008C264.554 6.36113 263.798 6.0406 263.409 5.88033C262.677 5.5598 260.776 5.05611 258.716 4.6211C257.021 4.27767 253.747 4.1403 252.763 4.36925ZM251.137 20.5561C253.198 21.5635 254.526 21.8383 257.983 21.9528C261.028 22.0443 261.349 22.0214 263.089 21.4491C264.119 21.1285 265.035 20.8767 265.149 20.9225C265.241 20.9683 264.966 21.4033 264.531 21.907C264.073 22.4107 263.615 23.0288 263.501 23.2807C263.363 23.5325 263.112 24.0362 262.905 24.4254C262.31 25.5015 261.669 27.3102 261.44 28.4321C261.326 29.0045 261.143 29.8745 261.028 30.3782C260.891 30.8819 260.776 32.1411 260.776 33.1714V35.0717H259.815C258.006 35.0717 252.03 34.2933 251.962 34.0643C251.229 30.9964 250.015 28.9358 248.504 28.2031C247.634 27.7681 247.405 27.7452 246.673 27.9742C246.238 28.1345 245.803 28.2031 245.734 28.1116C245.665 28.0429 245.917 27.6079 246.284 27.1271C246.65 26.6463 247.154 25.8907 247.405 25.4557C247.634 25.0207 247.955 24.4941 248.115 24.2881C248.527 23.8073 249.1 21.8383 249.1 20.9683C249.1 19.7548 249.443 19.6861 251.137 20.5561ZM248.733 29.6226C249.787 30.6758 250.267 31.7061 250.588 33.6522C251.023 36.308 250.428 38.7807 249.168 39.4447C247.474 40.3605 245.253 36.8804 245.207 33.2859C245.207 31.7748 245.826 29.8974 246.513 29.3479C247.337 28.7068 247.863 28.7755 248.733 29.6226Z" fill="#243252"/>
<path d="M246.948 33.1486C246.353 34.7055 247.52 36.9492 248.367 35.8273C248.734 35.3465 248.619 33.6523 248.184 33.1257C247.818 32.6678 247.131 32.6907 246.948 33.1486Z" fill="#243252"/>
<path d="M256.563 44.5732C256.38 45.054 256.586 45.3745 257.021 45.3745C257.25 45.3745 257.341 45.1914 257.296 44.8708C257.204 44.2526 256.769 44.0924 256.563 44.5732Z" fill="#243252"/>
<path d="M253.747 48.7402C253.197 48.9462 253.426 49.4957 254.044 49.4957C254.457 49.4957 254.617 49.3813 254.548 49.1065C254.479 48.6944 254.182 48.557 253.747 48.7402Z" fill="#243252"/>
<path d="M249.03 48.9692C248.939 49.0379 248.87 49.3126 248.87 49.5416C248.87 50.1139 247.657 51.3274 247.084 51.3274C246.42 51.3274 246.031 51.8769 246.443 52.2203C246.924 52.6095 248.321 52.1974 249.145 51.419C249.649 50.9153 249.786 50.5718 249.786 49.7934C249.786 48.8547 249.465 48.5113 249.03 48.9692Z" fill="#243252"/>
<path d="M258.349 49.7477C258.189 50.0224 258.624 50.4116 259.128 50.4116C259.265 50.4116 259.402 50.2056 259.402 49.9537C259.402 49.45 258.624 49.3127 258.349 49.7477Z" fill="#243252"/>
<path d="M202.691 63.2786C202.828 63.8509 203.08 64.6981 203.653 66.5984C203.859 67.2623 204.179 68.3384 204.385 69.0023C204.568 69.6663 204.866 70.6737 205.049 71.2461C205.347 72.2077 205.507 72.7572 206.446 75.8709C206.881 77.4049 207.384 79.0762 207.82 80.4499C208.232 81.8466 208.735 83.495 209.193 85.029C209.376 85.6929 209.674 86.7003 209.857 87.2727C210.201 88.3946 210.659 89.9286 211.208 91.7831C211.414 92.447 211.735 93.5002 211.918 94.1413C212.101 94.7594 212.421 95.7897 212.605 96.4308C212.788 97.049 213.085 98.0792 213.269 98.6974C213.658 100.14 214.23 101.01 214.78 101.01C215.009 101.01 215.604 101.147 216.062 101.33C216.543 101.491 218.008 101.971 219.336 102.384C220.664 102.773 222.152 103.254 222.656 103.414C223.159 103.574 224.647 104.032 225.975 104.444C227.303 104.833 228.791 105.314 229.295 105.474C231.608 106.207 232.18 106.344 232.317 106.207C232.409 106.115 232.088 104.925 231.608 103.574C231.15 102.223 230.669 100.804 230.554 100.437C230.44 100.048 230.028 98.8806 229.662 97.8045C227.486 91.7144 227.555 91.8746 226.937 92.2639C226.731 92.4241 226.845 92.9965 227.464 94.851C227.921 96.156 228.379 97.5298 228.494 97.919C228.585 98.2853 228.906 99.1782 229.181 99.8651C229.455 100.552 229.753 101.445 229.845 101.811C229.936 102.2 230.142 102.727 230.28 103.002C230.44 103.276 230.554 103.711 230.554 103.963C230.554 104.536 229.845 104.604 228.563 104.124C228.082 103.963 226.616 103.483 225.289 103.07C221.328 101.857 220.916 101.72 218.763 101.033C217.642 100.666 216.359 100.3 215.947 100.208C215.077 100.025 214.574 99.3614 214.139 97.7816C213.955 97.1634 213.658 96.156 213.475 95.515C213.291 94.8968 212.971 93.8665 212.788 93.2255C212.605 92.6073 212.307 91.5999 212.124 91.0046C211.941 90.3865 211.62 89.3333 211.414 88.6464C211.208 87.9596 210.91 86.9293 210.727 86.3569C210.338 85.0519 209.834 83.3805 209.353 81.7779C209.147 81.091 208.85 80.0607 208.667 79.4883C208.323 78.3665 207.865 76.8325 207.316 74.978C207.11 74.314 206.789 73.2609 206.606 72.6198C206.423 72.0016 206.102 70.9484 205.896 70.2845C205.713 69.6205 205.416 68.6131 205.232 68.0408C204.5 65.6368 204.362 65.0644 204.477 64.9499C204.591 64.8354 206.286 65.6825 210.063 67.7202C210.819 68.1323 212.261 68.8879 213.269 69.3916C219.107 72.3679 220.114 72.9861 220.549 73.8561C221.122 74.9551 220.824 75.3214 219.817 74.7948C218.649 74.1996 217.504 74.8177 217.504 76.0541C217.504 76.4204 217.321 77.0157 217.115 77.4049C216.772 77.9773 216.749 78.2062 216.978 78.8244C217.161 79.3052 217.184 79.6944 217.046 79.9691C216.611 80.7476 216.794 81.8008 217.504 82.6937C217.893 83.1745 218.191 83.7011 218.191 83.8842C218.191 84.7542 219.359 86.4943 220.412 87.1582C222.472 88.4862 223.732 88.7151 228.7 88.6922C233.302 88.6464 234.103 88.5091 233.187 87.8222C232.798 87.5246 232.18 87.5017 229.501 87.639C225.174 87.8451 222.495 87.3643 220.664 86.0364C219.794 85.4182 219.862 85.1206 220.824 85.3037C222.083 85.5556 221.854 84.8229 220.343 83.724C219.038 82.8082 217.962 81.6863 217.962 81.2971C217.962 80.8163 218.626 81.1826 220 82.4647C220.824 83.2203 221.671 83.8384 221.9 83.8384C222.587 83.8384 222.381 83.0371 221.534 82.396C220.046 81.2513 218.191 79.1678 218.191 78.6412C218.191 78.3436 218.26 78.1146 218.328 78.1146C218.42 78.1146 219.13 78.7328 219.931 79.4883C220.755 80.2439 221.717 81.0223 222.083 81.2055C222.724 81.526 222.793 81.526 222.907 81.2055C223.022 80.9536 222.427 80.2439 220.961 78.8473C218.947 76.9241 218.328 75.9167 219.038 75.6649C219.198 75.5962 220.252 76.4433 221.373 77.5194C222.518 78.5954 223.755 79.6257 224.144 79.8318C224.808 80.1752 224.922 80.1752 225.449 79.8318C225.998 79.4655 226.021 79.3968 225.861 77.6567C225.746 76.4891 225.792 75.8251 225.952 75.7335C226.296 75.5275 227.166 76.1228 229.135 77.8857C230.967 79.5112 231.012 79.5341 233.737 81.1597C234.744 81.7779 235.683 82.2129 235.82 82.1213C236.232 81.8694 236.072 81.3886 235.431 80.9536C234.721 80.4728 234.607 80.4042 232.798 79.3281C232.134 78.9389 230.875 77.9315 229.982 77.1072C228.219 75.4588 226.456 74.4285 225.724 74.6117C224.876 74.8406 224.533 75.6877 224.716 77.153C224.922 78.7328 224.922 78.6641 224.647 78.7557C224.533 78.7786 224.006 78.4352 223.48 77.9544C222.77 77.3133 222.472 76.8325 222.312 76.0541C221.58 72.5511 221.557 72.5053 217.848 70.5592C213.589 68.3155 209.834 66.3465 208.461 65.6139C205.896 64.2402 202.943 62.7749 202.76 62.7749C202.645 62.7749 202.622 63.0038 202.691 63.2786Z" fill="#243252"/>
<path d="M260.501 63.5075C260.318 63.8052 259.997 64.492 259.745 65.0644C259.173 66.4381 258.738 66.896 257.296 67.6516C256.632 67.995 255.922 68.3842 255.739 68.4987C255.121 68.8879 250.816 71.3835 250.473 71.5666C250.29 71.6582 249.923 71.8414 249.671 72.0016C249.42 72.1619 248.229 72.8488 247.039 73.5356C245.848 74.2225 244.657 74.9093 244.406 75.0696C244.154 75.207 243.627 75.5046 243.215 75.7107C242.162 76.2601 241.887 76.6494 242.208 77.0615C242.505 77.4278 242.711 77.3362 246.237 75.2528C247.13 74.7491 248 74.2454 248.183 74.1538C248.366 74.0622 248.733 73.8561 248.985 73.6959C249.236 73.5356 250.427 72.8488 251.618 72.1619C252.808 71.475 253.999 70.7882 254.25 70.6279C254.502 70.4677 254.869 70.2845 255.052 70.1929C255.235 70.1013 255.876 69.735 256.448 69.3687C257.41 68.7963 258.257 68.5445 258.257 68.8421C258.257 68.9108 258.051 69.8724 257.799 71.0171C257.318 73.1922 257.364 73.7646 258.051 73.7646C258.509 73.7646 258.601 73.4898 258.807 71.704C258.99 70.0784 259.86 67.3539 260.913 65.1789C261.531 63.851 261.623 63.0038 261.142 63.0038C260.982 63.0038 260.684 63.2328 260.501 63.5075Z" fill="#243252"/>
<path d="M263.523 67.9263C260.868 70.605 260.524 71.0858 260.982 71.5437C261.165 71.7269 261.898 71.1545 263.661 69.3687C265.103 67.9034 266.202 66.9647 266.385 67.0334C266.546 67.1021 266.752 67.5829 266.843 68.1095C266.912 68.6361 267.118 69.6892 267.301 70.4448C267.461 71.2003 267.805 72.6198 268.011 73.6043C268.744 76.7867 268.927 76.7181 274.444 71.7956C276.574 69.8724 277.169 69.4145 277.49 69.4145C278.245 69.4145 282.618 73.5585 284.381 75.9396C286.007 78.1147 288.25 82.1671 288.25 82.9227C288.25 83.0371 288.388 83.4721 288.571 83.8842C289.349 85.693 290.151 89.837 290.517 93.9352C290.654 95.4005 290.769 99.7964 290.769 103.711V110.832L289.922 111.473C286.464 114.06 283.122 117.128 279.642 120.952C277.444 123.356 273.185 129.4 270.873 133.407C270.232 134.528 269.591 135.627 269.476 135.811C269.156 136.337 266.866 140.962 265.927 142.977C265.47 143.961 264.943 144.831 264.737 144.9C264.531 144.992 262.951 144.877 261.257 144.671C257.41 144.19 253.953 144.167 251.137 144.648C246.146 145.472 244.452 146.571 243.353 149.777C242.437 152.432 242.712 159.553 243.971 165.368C244.154 166.215 244.292 167.085 244.292 167.314C244.292 167.772 244.841 170.268 245.894 174.618C246.054 175.236 246.261 176.129 246.352 176.564C246.787 178.51 247.268 180.479 247.726 182.173C248.802 186.18 248.939 187.096 248.619 188.584C248.252 190.393 247.703 191.423 246.512 192.522C244.887 194.033 243.765 194.491 241.613 194.514C239.827 194.537 239.712 194.514 239.026 193.85C238.614 193.461 237.995 192.499 237.606 191.675C236.69 189.752 236.461 189.271 231.333 179.082C227.303 171.069 226.227 168.871 224.373 164.773C223.983 163.88 223.503 162.85 223.342 162.483C221.877 159.278 221.625 158.66 221.625 158.385C221.625 158.202 221.534 157.996 221.396 157.904C221.282 157.836 221.076 157.447 220.961 157.034C220.847 156.622 220.526 155.729 220.252 155.043C218.603 150.761 218.237 148.723 218.626 146.182C219.244 142.244 221.144 138.947 224.625 135.719C227.349 133.2 230.623 131.186 234.447 129.629C235.133 129.354 236.049 128.988 236.461 128.805C236.873 128.621 237.377 128.484 237.606 128.484C237.812 128.484 238.385 128.347 238.911 128.164C241.338 127.316 244.177 127.042 249.054 127.179C251.664 127.271 254.526 127.431 255.396 127.545C256.289 127.66 257.8 127.82 258.784 127.889C260.249 127.98 260.593 127.935 260.707 127.637C260.776 127.454 260.707 127.225 260.57 127.133C260.135 126.859 256.289 126.469 251.206 126.172C243.49 125.714 238.682 126.492 232.913 129.102C232.249 129.4 231.493 129.743 231.195 129.858C230.898 129.995 230.463 130.224 230.211 130.384C229.959 130.545 229.226 130.957 228.608 131.323C225.746 132.994 221.992 136.429 220.412 138.833C218.237 142.153 217.504 144.373 217.504 147.808C217.504 150.692 217.802 151.929 219.359 155.729C220.641 158.866 220.709 159.164 220.458 160.286C220.183 161.407 219.794 163.125 219.336 165.002C218.763 167.406 218.397 168.94 218.191 169.901C218.054 170.474 217.87 171.252 217.756 171.619C217.642 172.008 217.39 172.901 217.207 173.588C216.268 177.022 215.421 179.998 215.1 180.914C214.94 181.349 214.642 182.334 214.413 183.089C214.207 183.845 213.864 184.875 213.681 185.379C213.497 185.882 213.2 186.661 213.04 187.096C211.139 192.316 209.651 195.224 208.209 196.574C207.224 197.467 206.743 197.353 205.461 195.865C204.843 195.132 203.675 193.919 202.874 193.163C200.127 190.576 199.646 189.179 199.646 183.799C199.646 180.502 199.898 177.091 200.607 171.298C200.745 170.108 200.905 168.665 200.951 168.093C200.997 167.52 201.18 165.986 201.363 164.658C201.546 163.331 201.844 161.018 202.05 159.507C203.309 150.166 203.63 148.334 204.843 144.053C205.415 141.992 207.064 137.848 207.934 136.291C210.201 132.193 213.177 128.759 216.336 126.561C222.587 122.188 230.967 120.333 240.514 121.181C244.91 121.57 246.856 121.593 246.97 121.226C247.153 120.7 246.032 120.425 242.735 120.242C238.545 119.967 233.851 119.967 231.012 120.242C222.289 121.02 214.688 125.004 209.972 131.232C208.621 132.994 207.201 135.215 207.201 135.536C207.201 135.627 207.087 135.833 206.949 135.971C206.629 136.291 205.141 139.657 205.141 140.046C205.141 140.206 204.98 140.458 204.797 140.619C204.614 140.779 204.454 141.168 204.454 141.511C204.454 141.832 204.362 142.267 204.225 142.45C203.836 143.068 203.675 141.992 203.996 140.87C204.179 140.298 204.339 139.291 204.408 138.65L204.5 137.482L202.348 137.207C201.18 137.047 198.982 136.841 197.471 136.726C195.96 136.635 193.693 136.429 192.434 136.291C187.763 135.788 179.429 135.101 177.323 135.055C174.599 134.986 158 135.696 156.901 135.948C156.237 136.085 156.237 136.475 156.717 142.908C156.901 145.495 157.175 149.41 157.313 151.608C157.473 153.806 157.656 155.821 157.748 156.073C157.862 156.348 158.938 157.378 160.175 158.362C161.434 159.37 162.556 160.308 162.67 160.446C162.808 160.583 163.357 161.041 163.929 161.453C164.502 161.888 165.212 162.461 165.532 162.735C166.219 163.353 170.042 166.49 171.599 167.749C172.24 168.23 172.79 168.711 172.859 168.78C172.927 168.848 173.751 169.535 174.736 170.314C176.568 171.825 177.117 172.008 178.285 171.435C178.972 171.092 180.116 170.68 181.215 170.382C181.604 170.268 182.475 169.97 183.161 169.695C183.848 169.421 184.741 169.1 185.107 169.009C185.497 168.894 186.825 168.436 188.084 167.978C189.343 167.52 190.694 167.062 191.06 166.948C191.449 166.856 192.319 166.536 193.006 166.261C193.693 165.986 194.586 165.666 194.952 165.574C195.342 165.46 196.647 165.025 197.86 164.59C200.539 163.628 200.516 163.582 200.012 166.879C198.867 174.389 198.272 184.165 198.73 187.416C199.142 190.393 199.715 191.469 202.096 193.873C203.218 194.995 204.477 196.345 204.889 196.895C205.301 197.422 205.942 198.017 206.308 198.223C206.927 198.52 207.064 198.52 207.774 198.177C208.598 197.788 210.292 196.071 210.658 195.224C210.773 194.972 211.093 194.354 211.391 193.85C211.895 192.98 213.062 190.255 213.772 188.355C213.955 187.851 214.253 187.096 214.436 186.684C214.619 186.272 214.757 185.791 214.757 185.608C214.757 185.424 214.894 184.944 215.077 184.532C215.375 183.822 216.451 180.41 217.184 177.823C217.344 177.182 217.642 176.152 217.825 175.534C218.214 174.114 218.809 171.825 219.221 170.153C219.382 169.466 219.679 168.276 219.885 167.52C220.206 166.192 220.778 163.651 221.053 162.3C221.305 161.041 221.74 161.659 223.64 165.803C224.899 168.551 227.166 173.198 230.028 178.968C233.073 185.035 233.187 185.264 233.508 185.882C233.622 186.111 234.263 187.371 234.904 188.698C237.812 194.605 237.858 194.674 239.369 195.361C241.178 196.185 243.742 195.773 246.032 194.285C247.451 193.346 248.275 192.43 249.054 190.919C249.603 189.843 249.672 189.5 249.649 187.325C249.649 185.882 249.489 184.371 249.26 183.547C249.054 182.791 248.779 181.715 248.642 181.143C248.481 180.571 248.229 179.655 248.046 179.082C247.863 178.51 247.726 177.869 247.726 177.64C247.726 177.411 247.588 176.747 247.405 176.152C247.222 175.557 246.902 174.252 246.696 173.244C246.467 172.237 246.169 170.794 246.009 170.039C244.566 163.445 243.834 158.294 243.834 154.607C243.834 152.547 244.154 150.578 244.543 150.349C244.635 150.28 245.23 150.486 245.825 150.807C247.634 151.791 247.703 151.837 248.138 152.066C248.344 152.203 248.687 152.364 248.871 152.432C249.328 152.616 250.725 153.234 251.229 153.486C251.801 153.76 256.083 155.157 257.685 155.569C261.486 156.576 266.317 157.355 268.698 157.332C269.82 157.332 270.415 157.424 270.598 157.653C270.896 158.019 270.85 213.723 270.552 214.043C270.438 214.135 268.744 214.295 266.775 214.364C258.876 214.662 252.145 216.173 251 217.913C250.679 218.416 250.679 218.508 251.023 219.035C251.87 220.317 255.396 221.393 261.692 222.286C265.836 222.858 280.672 222.858 284.816 222.286C290.196 221.53 293.47 220.683 294.913 219.653C296.63 218.439 295.806 217.317 292.463 216.218C289.395 215.211 283.465 214.364 279.298 214.318C277.718 214.295 276.299 214.227 276.139 214.135C275.956 214.021 275.91 206.786 275.933 185.585L276.001 157.218L278.062 156.92C281.061 156.508 284.404 155.752 286.533 154.997C286.922 154.882 287.472 154.722 287.792 154.653C288.113 154.585 288.571 154.379 288.823 154.218C289.075 154.035 289.441 153.898 289.647 153.898C289.876 153.898 290.334 153.76 290.7 153.577C291.043 153.394 292.417 152.73 293.745 152.089C295.073 151.471 296.378 150.715 296.63 150.418C297.202 149.8 299.08 147.006 299.973 145.495C300.362 144.808 303.338 138.856 303.705 137.986C303.865 137.596 304.162 136.932 304.346 136.497C304.529 136.062 304.849 135.307 305.055 134.826C305.261 134.345 305.422 133.819 305.422 133.636C305.422 133.452 305.559 132.972 305.742 132.559C306.681 130.316 307.986 124.844 308.306 121.776C308.375 120.929 308.558 120.402 308.764 120.311C309.245 120.127 309.245 109.298 308.741 108.932C308.535 108.771 308.352 108.107 308.261 107.192C308.169 106.367 308.009 105.566 307.871 105.406C307.734 105.245 307.093 105.131 306.177 105.131C302.949 105.131 297.294 106.985 293.47 109.321C292.852 109.687 292.257 109.939 292.12 109.893C291.936 109.825 291.845 107.375 291.799 101.582C291.73 93.1797 291.593 91.5541 290.631 87.0438C289.693 82.7853 287.724 78.481 285.182 75.1841C283.19 72.574 278.268 68.0408 277.444 68.0408C277.283 68.0408 275.475 69.4832 273.414 71.2461C271.354 73.009 269.568 74.4514 269.453 74.4514C269.339 74.4514 269.201 74.1767 269.133 73.8104C269.064 73.4669 268.858 72.5282 268.698 71.704C268.515 70.8798 268.194 69.3916 267.988 68.3842C267.164 64.492 266.935 64.4691 263.523 67.9263ZM176.155 136.177C176.43 136.291 176.522 136.658 176.522 137.78C176.522 139.588 176.384 139.657 174.278 139.176C173.431 138.97 171.874 138.65 170.798 138.443C169.722 138.237 168.188 137.917 167.364 137.734C166.539 137.551 165.578 137.413 165.189 137.39C164.822 137.39 164.296 137.299 164.067 137.207C163.174 136.864 164.227 136.681 169.035 136.383C175.102 136.017 175.72 136.017 176.155 136.177ZM181.444 136.36C186 136.864 189.915 137.207 193.35 137.413C196.876 137.665 196.67 137.619 196.051 137.871C195.296 138.169 179.59 139.588 178.468 139.451C177.804 139.359 177.781 139.314 177.712 138.008C177.644 136.635 177.735 136.039 178.056 136.039C178.147 136.039 179.681 136.177 181.444 136.36ZM161.411 137.734C162.35 137.917 163.998 138.237 165.074 138.443C166.997 138.81 168.943 139.176 172.057 139.817C172.95 140 174.072 140.206 174.576 140.298C176.453 140.573 176.293 139.382 176.293 152.982C176.293 159.644 176.224 165.139 176.133 165.185C176.018 165.231 175.652 165.093 175.263 164.865C174.896 164.636 174.072 164.178 173.431 163.857C172.813 163.537 171.92 163.056 171.485 162.781C171.05 162.529 170.226 162.071 169.653 161.751C169.081 161.453 168.257 160.972 167.822 160.721C167.387 160.469 166.517 159.988 165.921 159.644C165.303 159.324 164.227 158.729 163.517 158.317C162.808 157.927 161.663 157.309 161.022 156.966C158.48 155.615 158.618 155.867 158.412 151.448C158.32 149.319 158.183 147.212 158.091 146.777C157.839 145.312 157.565 137.528 157.771 137.276C157.908 137.116 158.274 137.093 158.847 137.207C159.305 137.299 160.472 137.551 161.411 137.734ZM203.126 139.703C203.08 140.138 202.92 141.076 202.737 141.763C202.576 142.45 202.256 143.847 202.05 144.854C201.844 145.862 201.546 147.304 201.363 148.059C201.203 148.815 200.905 150.257 200.676 151.265C199.806 155.432 199.6 156.37 199.28 157.607C199.096 158.339 198.959 159.095 198.959 159.301C198.959 159.507 198.799 160.194 198.616 160.858L198.272 162.048L196.028 162.461C192.732 163.056 190.557 163.445 188.885 163.766C188.061 163.926 186.893 164.109 186.252 164.201C185.039 164.361 183.184 164.704 180.414 165.277C179.475 165.46 178.445 165.574 178.124 165.551L177.552 165.46L177.483 153.302C177.438 143.709 177.483 141.076 177.735 140.893C177.873 140.756 179.498 140.55 181.33 140.412C183.161 140.252 185.817 140.046 187.237 139.909C188.656 139.771 191.335 139.565 193.189 139.451C195.044 139.336 197.219 139.13 198.043 139.039C198.867 138.924 200.356 138.856 201.363 138.879L203.195 138.901L203.126 139.703ZM201.706 154.47C201.706 154.836 201.546 155.729 201.363 156.416C201.18 157.103 201.02 158.156 201.02 158.729C201.02 159.988 200.585 162.369 200.287 162.758C200.172 162.896 199.921 162.964 199.737 162.896C199.348 162.758 199.509 161.041 200.012 159.53C200.195 159.049 200.333 158.385 200.333 158.042C200.333 157.721 200.493 156.989 200.676 156.416C200.859 155.844 201.065 154.882 201.157 154.264C201.294 153.051 201.706 153.188 201.706 154.47Z" fill="#243252"/>
<path d="M187.305 146.251C186.664 146.777 186.596 146.983 186.596 148.105C186.596 149.113 186.71 149.479 187.122 149.914C187.603 150.418 187.786 150.464 190.465 150.464C192.938 150.464 193.396 150.395 194.06 149.983C194.815 149.525 194.838 149.479 194.838 147.968C194.838 145.724 194.723 145.656 190.992 145.656C188.107 145.656 187.969 145.678 187.305 146.251ZM193.968 146.526C194.082 146.64 194.243 147.144 194.311 147.624C194.403 148.311 194.311 148.655 193.922 149.136C193.441 149.777 193.418 149.777 190.625 149.777C188.771 149.777 187.74 149.685 187.557 149.502C187.122 149.067 187.214 147.167 187.695 146.732C188.313 146.159 193.441 145.999 193.968 146.526Z" fill="#243252"/>
<path d="M113.904 69.3001C112.278 69.6436 111.546 69.9412 109.966 70.9715C108.203 72.0934 106.234 74.9324 106.234 76.329C106.234 77.4966 106.875 77.0387 107.745 75.2529C108.615 73.49 109.897 72.0934 111.362 71.3378C112.53 70.7425 114.751 70.1015 115.667 70.1015C116.583 70.1015 116.834 69.8954 116.628 69.323C116.468 68.888 115.85 68.888 113.904 69.3001Z" fill="#243252"/>
<path d="M90.5962 69.8037C90.3673 70.0097 90.3902 70.7424 90.6191 70.8339C90.871 70.9255 92.7713 73.879 93.4123 75.1382C93.6871 75.7106 94.0076 76.3517 94.1221 76.5577C95.015 78.3436 95.8621 82.1671 96.1827 85.899C96.32 87.5932 96.4803 89.0585 96.549 89.1501C96.5948 89.2646 96.8008 89.3333 96.984 89.3333C97.2358 89.3333 97.3045 88.8753 97.3045 86.9064C97.3045 82.19 95.8163 76.8783 93.3437 72.7342C91.7639 70.1242 91.0313 69.3458 90.5962 69.8037Z" fill="#243252"/>
<path d="M117.979 70.4906C117.498 70.5821 116.674 71.4064 116.491 71.9787C116.422 72.1848 116.101 72.1619 115.3 71.933C114.018 71.5666 112.507 71.933 112.278 72.6885C112.072 73.3753 112.507 73.6501 113.125 73.2151C114.361 72.3451 116.056 73.0777 117.544 75.1154C118.002 75.7336 118.505 76.283 118.666 76.3517C119.307 76.5807 117.773 77.6568 115.277 78.687C113.217 79.5571 112.461 79.9921 111.087 81.091C110.309 81.7092 109.576 82.2358 109.439 82.2358C109.324 82.2358 109.164 81.961 109.095 81.5947C108.821 80.4042 107.974 78.9389 106.966 77.9544C105.844 76.8554 104.883 76.6723 103.761 77.3591C102.799 77.9544 98.701 82.3045 98.6781 82.7395C98.6552 83.6553 99.594 83.0371 101.769 80.7247C103.852 78.5268 104.15 78.2978 104.906 78.2749C106.027 78.252 106.714 78.8931 107.63 80.8163C108.271 82.19 108.317 82.4418 108.225 84.2735C108.157 85.3495 108.065 86.4943 108.042 86.8148C107.974 87.2727 108.042 87.3872 108.409 87.3872C108.775 87.3872 108.935 87.0896 109.302 85.6701C109.714 84.1361 109.897 83.8385 111.133 82.5792C112.461 81.2742 113.858 80.4271 116.536 79.351C119.055 78.3207 121.528 76.0312 122.146 74.1767C122.558 72.9861 122.489 72.5053 121.779 71.6124C121.23 70.9027 119.124 70.2845 117.979 70.4906ZM120.566 72.0474C121.23 72.4824 121.459 72.9174 121.253 73.444C121.115 73.7875 121.047 73.7875 120.589 73.3753C120.062 72.8946 119.009 72.2993 118.299 72.0703C118.07 72.0016 117.956 71.8185 118.047 71.6811C118.254 71.3377 119.833 71.5666 120.566 72.0474ZM119.696 74.1538C120.291 74.7949 120.337 75.413 119.856 75.8251C119.65 75.9854 119.467 76.077 119.444 76.0312C118.734 75.0009 117.979 73.7875 117.864 73.4898C117.727 73.1464 117.796 73.1464 118.437 73.3525C118.849 73.4669 119.398 73.8333 119.696 74.1538Z" fill="#243252"/>
<path d="M111.408 74.8407C110.4 75.001 108.981 75.9855 108.981 76.5121C108.981 77.0387 109.691 77.1302 110.103 76.6723C110.538 76.1229 112.049 75.7565 113.239 75.9168C115.254 76.1687 115.689 76.1687 115.781 75.8939C116.033 75.2071 113.262 74.5202 111.408 74.8407Z" fill="#243252"/>
<path d="M261.417 76.3976C260.753 77.84 262.287 78.9848 263.043 77.634C263.34 77.0845 263.34 76.97 262.997 76.4205C262.493 75.665 261.761 75.6421 261.417 76.3976Z" fill="#243252"/>
<path d="M84.2542 77.9315C84.2542 79.4426 85.1013 83.4264 86.1316 86.8149C87.2992 90.7299 89.7032 94.1642 91.6722 94.8282C92.6567 95.1487 94.8546 95.0113 95.3583 94.5992C95.5186 94.4619 95.9536 94.2558 96.3199 94.1413C96.6634 94.0269 97.5334 93.7292 98.2202 93.4545C98.9071 93.1797 99.8 92.8821 100.166 92.7676C100.556 92.6531 101.174 92.47 101.54 92.3326C105.524 90.9589 110.629 90.4552 112.736 91.2336C113.926 91.6687 115.117 92.8592 115.3 93.7979C115.643 95.6753 114.018 98.0106 110.79 100.231C108.409 101.88 105.959 103.505 105.432 103.757C105.18 103.872 104.814 104.078 104.631 104.215C102.479 105.635 97.1441 108.313 93.6641 109.71C88.4898 111.794 83.4299 112.755 80.3391 112.229C78.2785 111.885 76.4011 111.015 75.325 109.939C74.5695 109.183 71.8908 104.902 71.8908 104.444C71.8908 104.353 71.7076 103.918 71.5015 103.483C71.2955 103.07 70.9978 102.452 70.8147 102.109C70.6544 101.788 70.517 101.353 70.517 101.147C70.517 100.964 70.3797 100.46 70.1965 100.048C69.5783 98.583 68.9144 95.8814 68.2046 91.7373C67.9757 90.4552 67.8383 87.2499 67.7696 81.5948C67.7696 80.9766 67.1057 81.3658 66.9912 82.0527C66.6478 84.3422 66.6249 85.3496 66.8309 88.4862C67.2201 93.6376 67.9528 97.1177 69.7157 102.155C69.9218 102.727 70.517 104.055 71.0207 105.131C74.1116 111.542 76.6072 113.35 82.3768 113.373C85.4905 113.373 88.2837 112.847 91.6493 111.633C93.4809 110.946 94.4654 110.58 95.2438 110.237C95.6789 110.031 96.3657 109.756 96.732 109.596C97.7394 109.161 101.38 107.329 102.57 106.665C103.143 106.344 104.013 105.864 104.516 105.589C105.02 105.314 105.867 104.788 106.417 104.421C106.966 104.055 107.447 103.757 107.493 103.757C107.561 103.757 108.157 103.368 111.912 100.781C114.728 98.8348 116.536 96.2935 116.536 94.2787C116.536 92.905 115.369 91.3252 113.697 90.4552C112.095 89.6081 107.264 89.631 103.944 90.501C101.197 91.2107 97.9913 92.2868 96.0452 93.1339C95.6789 93.2942 94.992 93.5918 94.5112 93.775C93.4351 94.2558 92.8856 94.2329 91.8325 93.6834C90.9853 93.2713 89.0621 91.2794 89.0621 90.8444C89.0621 90.7299 88.9248 90.4552 88.7645 90.272C88.4669 89.9286 88.009 88.8296 87.345 87.0438C86.6353 85.0748 85.7423 81.3429 85.5134 79.3052C85.3302 77.7484 85.0326 76.9699 84.5976 76.9699C84.3457 76.9699 84.2542 77.2218 84.2542 77.9315Z" fill="#243252"/>
<path d="M120.543 78.0001C120.223 78.2978 119.971 78.7786 119.971 79.0762C119.971 79.3739 119.513 80.1065 118.941 80.7476C117.681 82.1442 116.88 83.7468 116.285 86.0593C115.781 88.0511 115.758 88.5548 116.079 88.7609C116.491 89.0127 116.972 88.4175 117.109 87.5245C117.475 85.1206 118.368 83.0829 119.834 81.3657C120.406 80.7018 120.978 79.8089 121.139 79.3739C121.482 78.4581 121.688 78.3894 122.032 79.0304C122.306 79.557 122.1 81.1597 121.642 82.0755C121.368 82.625 121.368 82.7623 121.734 83.2431C122.787 84.6626 125.328 84.0674 129.724 81.3886C131.419 80.3584 132.472 80.1523 132.724 80.7705C132.792 80.9536 132.724 81.3657 132.563 81.6634C132.243 82.2587 129.747 84.159 128.831 84.5024C128.213 84.7313 127.984 85.5098 128.419 85.7845C128.74 85.9677 131.075 84.5253 132.678 83.1516C134.166 81.8923 134.922 81.7321 135.036 82.6479C135.082 82.9455 134.99 83.3347 134.83 83.5179C134.464 83.9529 132.586 85.2121 131.006 86.0593C129.587 86.8148 129.427 87.1353 130.411 87.2269C131.075 87.2956 132.586 86.5401 134.326 85.3037C134.807 84.9603 134.853 84.9603 134.99 85.3266C135.15 85.7158 134.12 86.8148 133.136 87.2956C132.289 87.7077 131.647 88.1198 131.19 88.5319C130.777 88.9212 130.755 88.9898 131.098 89.3562C131.419 89.7225 131.373 89.8141 130.617 90.5467C129.747 91.3938 127.755 92.447 125.695 93.1339C124.733 93.4544 123.817 93.546 121.803 93.5231C120.36 93.5002 118.918 93.4544 118.62 93.4086C117.704 93.2941 117.819 93.8665 118.803 94.3473C121.253 95.6065 127.435 94.3473 130.617 91.9662C131.922 90.9817 132.54 90.272 133.067 89.173C133.319 88.6464 133.708 88.1427 133.937 88.074C134.555 87.868 136.455 85.6929 136.455 85.1892C136.455 84.9374 136.341 84.5482 136.181 84.3192C135.975 83.9758 135.975 83.7468 136.181 83.266C136.433 82.7395 136.387 82.5334 135.975 81.8694C135.7 81.4115 135.311 81.091 135.059 81.091C134.418 81.091 133.708 80.6789 133.708 80.3355C133.708 80.0149 132.495 79.0304 132.128 79.0304C131.808 79.0304 130.251 79.7402 129.816 80.0836C129.152 80.6102 126.29 82.0755 125.145 82.4876C123.016 83.266 122.306 82.8997 123.039 81.4115C123.726 79.9233 123.291 78.0917 122.123 77.6567C121.299 77.3362 121.161 77.3591 120.543 78.0001Z" fill="#243252"/>
<path d="M239.025 81.114C237.079 82.2817 234.95 85.0978 234.561 87.0439C234.469 87.4789 234.332 87.9368 234.263 88.0742C234.034 88.4176 234.217 91.1421 234.561 92.5387C235.065 94.6909 235.866 95.8814 237.858 97.3925C238.682 98.0107 239.644 98.9723 239.987 99.5218C240.811 100.827 244.635 104.696 246.695 106.276C247.588 106.963 248.344 107.581 248.412 107.672C248.527 107.81 253.175 110.969 254.022 111.473C254.274 111.633 254.686 111.862 254.938 112C255.189 112.137 256.014 112.595 256.769 113.03C259.242 114.472 262.882 116.144 263.386 116.075C264.05 115.983 264.004 115.388 263.294 115.068C259.265 113.167 257.685 112.343 255.167 110.809C249.786 107.535 246.466 104.994 243.353 101.788C242.414 100.781 241.292 99.476 240.903 98.8807C240.239 97.8733 240.17 97.6215 240.17 95.9043C240.17 93.9811 240.628 90.7987 241.2 88.7839C241.384 88.1657 241.475 87.5705 241.407 87.456C241.223 87.1584 240.399 87.227 240.308 87.5476C239.85 89.3563 239.46 91.5313 239.232 93.7293C238.911 96.9117 238.682 97.072 237.194 95.3319C235.751 93.6606 235.316 92.2411 235.408 89.4479C235.477 87.456 235.568 86.9752 236.141 85.8304C236.759 84.617 238.247 82.9456 239.438 82.0985C239.941 81.7551 240.01 81.8009 242.071 83.8843C244.795 86.6776 246.627 87.8452 250.015 88.99C251.732 89.5852 256.815 89.5852 258.83 89.0129C261.463 88.2573 263.569 87.3644 265.927 86.0365C268.079 84.8459 271.216 82.0527 271.01 81.4804C270.827 80.908 270.346 81.1369 268.766 82.5564C263.798 87.0439 256.609 89.2876 251.16 88.0971C247.703 87.3186 245.963 86.2654 242.895 83.1288C241.567 81.7551 240.33 80.6332 240.147 80.6332C239.964 80.6332 239.46 80.8393 239.025 81.114Z" fill="#243252"/>
<path d="M260.021 82.419C259.517 82.9914 259.54 83.6783 260.066 84.1591C260.662 84.7086 261.28 84.5483 261.555 83.7928C262.013 82.4648 260.868 81.4574 260.021 82.419Z" fill="#243252"/>
<path d="M165.304 101.353C164.983 101.537 164.548 101.674 164.342 101.697C164.113 101.697 163.609 101.834 163.197 102.017C162.259 102.407 161.045 102.819 160.152 103.071C159.557 103.231 157.359 103.963 155.344 104.696C154.978 104.811 153.581 105.291 152.253 105.726C149.414 106.688 148.842 107.123 149.231 107.993C150.124 109.962 155.207 115.548 158.092 117.746C162.602 121.181 167.112 122.989 171.233 122.989C173.615 122.989 174.485 122.646 177.14 120.631C178.377 119.715 179.888 118.594 180.529 118.181C181.147 117.746 181.811 117.266 182.017 117.128C182.2 116.968 183.894 115.709 185.795 114.312C187.672 112.915 189.298 111.61 189.412 111.404C189.55 111.175 189.527 110.832 189.366 110.489C189.183 110.076 188.954 109.939 188.359 109.939C187.947 109.939 187.008 109.779 186.298 109.596C185.566 109.413 184.787 109.252 184.558 109.252C184.329 109.252 183.574 109.092 182.91 108.886C182.223 108.703 181.101 108.382 180.414 108.176C176.019 106.94 171.348 104.559 168.601 102.155C167.181 100.918 166.403 100.735 165.304 101.353ZM168.257 103.254C168.967 103.872 170.203 104.765 171.027 105.246C172.722 106.276 175.927 107.879 176.27 107.879C176.408 107.879 176.843 108.016 177.255 108.199C178.72 108.817 179.865 109.206 181.33 109.596C182.154 109.802 183.345 110.099 183.963 110.283C184.604 110.443 185.703 110.649 186.436 110.74C187.283 110.832 187.741 110.992 187.741 111.198C187.741 111.45 183.872 114.427 178.697 118.181C178.079 118.639 176.728 119.624 175.721 120.356L173.889 121.707H171.027C167.937 121.707 166.929 121.455 163.724 119.967C160.45 118.433 156.603 115.388 153.535 111.862C151.91 110.008 150.422 107.993 150.422 107.65C150.422 107.466 166.105 102.178 166.654 102.155C166.815 102.155 167.547 102.658 168.257 103.254Z" fill="#243252"/>
<path d="M164.204 107.65C163.426 108.153 162.67 108.565 162.487 108.565C162.327 108.565 162.098 108.657 161.983 108.771C161.846 108.863 160.999 109.184 160.083 109.458C158.755 109.848 158.412 110.054 158.48 110.351C158.732 111.656 165.99 108.703 165.99 107.306C165.99 106.688 165.578 106.757 164.204 107.65Z" fill="#FC766A"/>
<path d="M167.73 111.404C166.883 112.526 165.899 113.167 164.548 113.465C163.609 113.671 163.357 113.831 163.357 114.175C163.357 114.472 163.541 114.655 163.884 114.701C165.441 114.93 168.738 112.732 168.738 111.473C168.738 110.58 168.394 110.557 167.73 111.404Z" fill="#FC766A"/>
<path d="M174.003 112.732C173.225 114.243 172.012 115.182 169.974 115.869C168.577 116.327 168.394 116.487 168.715 116.991C169.127 117.655 172.172 116.35 173.843 114.77C174.644 114.037 175.446 112.526 175.286 112.091C175.057 111.496 174.507 111.771 174.003 112.732Z" fill="#FC766A"/>
<path d="M241.155 107.466C240.834 107.924 240.239 109.87 239.804 111.839C239.369 113.923 239.437 117.449 239.918 118.044C240.651 118.914 240.765 118.479 240.788 115.136C240.788 112.435 240.88 111.61 241.315 110.168C241.59 109.229 241.933 108.359 242.025 108.222C242.139 108.107 242.231 107.833 242.231 107.604C242.231 107.123 241.475 107.031 241.155 107.466Z" fill="#243252"/>
<path d="M94.6257 111.702C94.557 111.931 94.3509 112.457 94.1906 112.892C93.9846 113.373 93.8701 114.61 93.8701 116.235C93.8701 118.57 93.9388 118.983 94.5341 120.448C95.198 122.051 96.526 124.042 97.5791 124.958C99.2734 126.423 102.204 128.072 102.731 127.866C103.234 127.66 102.96 127.042 102.227 126.675C97.7623 124.409 95.6559 121.844 94.992 117.861C94.6943 116.166 94.8317 115.045 95.633 111.816C95.7246 111.404 95.6559 111.313 95.2667 111.313C94.992 111.313 94.7172 111.496 94.6257 111.702Z" fill="#243252"/>
<path d="M59.001 184.967C58.9552 185.081 58.9095 187.119 58.9095 189.5C58.8866 194.148 58.5889 196.094 57.6502 197.444C56.7115 198.795 55.3378 197.994 54.1473 195.43C53.2314 193.506 53.117 192.201 53.6665 190.095C54.4449 187.073 54.6738 185.814 54.5136 185.653C54.1244 185.264 53.4604 185.608 53.3917 186.18C53.117 188.676 51.1022 195.956 49.3622 200.718C48.9272 201.932 47.7366 204.244 47.1871 204.931C46.6605 205.618 45.5387 205.687 44.8747 205.069C42.7226 203.122 41.6694 198.36 41.6694 190.484C41.6694 187.76 41.5778 185.47 41.4633 185.402C40.9138 185.058 40.6849 186.088 40.5704 189.294C40.3872 194.697 41.0741 200.215 42.2418 203.008C43.2034 205.229 44.8518 206.786 46.3171 206.786C47.5534 206.786 49.2248 204.244 50.8732 199.803C51.583 197.925 51.7891 197.261 51.9722 196.414C52.0638 195.933 52.2012 195.498 52.247 195.43C52.5217 195.178 53.0712 195.659 53.4146 196.437C53.6207 196.918 54.2159 197.742 54.7425 198.269C55.5668 199.093 55.8415 199.23 56.6657 199.23C58.3142 199.23 59.2529 197.696 59.8482 193.941C60.3519 190.828 60.3061 185.379 59.7566 185.035C59.3445 184.76 59.1384 184.76 59.001 184.967Z" fill="#243252"/>
<path d="M108.272 185.997C108.249 186.157 108.272 189.225 108.272 192.82C108.317 198.543 108.249 199.551 107.882 201.062C107.333 203.214 106.898 204.084 106.165 204.473C105.639 204.748 105.478 204.725 104.54 204.176C103.967 203.832 103.143 203.1 102.708 202.527C101.861 201.428 100.052 197.879 100.052 197.353C100.052 197.17 99.9607 196.941 99.8691 196.803C99.5028 196.414 98.3809 192.499 97.6254 189.088C97.2133 187.187 97.053 186.913 96.618 187.416C96.3204 187.783 96.4577 189.202 96.9614 191.102C97.1446 191.721 97.4422 192.911 97.6483 193.735C98.1978 195.842 99.0907 198.2 100.075 200.215C101.953 203.947 103.716 205.641 105.753 205.641C106.669 205.641 107.791 204.656 108.34 203.374C109.325 201.108 109.829 195.292 109.462 190.759C109.096 186.409 108.981 185.722 108.615 185.722C108.432 185.722 108.295 185.859 108.272 185.997Z" fill="#243252"/>
<path d="M128.098 192.843C127.709 193.461 128.282 194.743 129.449 195.888C130.915 197.307 132.311 197.857 134.509 197.857C137.302 197.857 137.394 198.589 134.692 199.436C131.144 200.558 126.404 199.665 125.214 197.673C124.687 196.758 124.229 196.826 124.138 197.811C124.069 198.429 123.954 198.543 123.497 198.543C122.741 198.543 122.031 198.933 122.031 199.345C122.031 199.757 122.993 200.261 124.916 200.856C126.542 201.36 131.029 201.52 132.105 201.108C132.426 200.993 133.227 200.81 133.914 200.718C135.425 200.512 136.89 199.894 137.669 199.093C138.378 198.383 138.401 198.337 137.943 197.696C137.692 197.353 137.257 197.147 136.501 197.078C132.471 196.597 131.121 196.208 130.159 195.224C129.701 194.766 128.9 193.346 128.9 192.957C128.9 192.545 128.327 192.453 128.098 192.843Z" fill="#243252"/>
<path d="M248.298 193.278C248.138 193.529 248.229 194.079 248.756 196.368C250.267 203.031 249.603 205.641 245.985 207.45C243.559 208.663 242.002 209.258 240.514 209.533C240.01 209.625 239.163 209.808 238.613 209.968C238.087 210.128 236.232 210.266 234.492 210.289C230.417 210.357 230.348 210.083 233.988 208.503C237.148 207.129 238.865 206.168 239.964 205.137C241.315 203.878 241.567 203.283 241.498 201.68C241.429 200.375 241.384 200.261 240.88 200.192C240.353 200.1 240.33 200.146 240.468 201.108C240.811 203.557 239.071 205.183 233.599 207.495C231.241 208.48 230.028 209.258 229.638 209.991C229.432 210.357 229.501 210.563 229.959 211.021C230.508 211.571 230.669 211.594 233.05 211.594C234.446 211.594 236.301 211.479 237.171 211.319C238.682 211.067 238.819 211.067 240.216 211.662C243.81 213.173 251.595 212.441 254.548 210.289C255.35 209.693 255.51 208.869 254.938 208.388C254.594 208.114 250.152 208.182 247.497 208.503C246.581 208.617 246.512 208.594 246.97 208.343C247.886 207.793 249.58 206.053 250.015 205.16C250.61 204.015 250.656 199.917 250.107 197.399C249.282 193.484 248.824 192.43 248.298 193.278Z" fill="#243252"/>
<path d="M197.746 194.125C197.654 194.193 197.585 194.422 197.585 194.582C197.585 195.246 196.647 196.941 195.822 197.742C194.38 199.139 192.526 199.848 189.778 200.032C185.703 200.306 184.535 200.718 184.535 201.932C184.535 202.596 185.611 203.672 186.825 204.198C189.046 205.16 190.808 205.481 194.266 205.526C196.166 205.549 197.998 205.687 198.341 205.847C198.73 205.984 200.333 206.099 202.233 206.099C204.935 206.099 205.736 206.007 206.835 205.641C209.376 204.725 210.018 203.901 208.735 203.099C208.094 202.71 207.682 202.642 205.782 202.71C203.355 202.802 203.195 202.71 203.904 201.634C204.111 201.314 204.225 200.902 204.133 200.718C203.927 200.169 203.355 200.329 202.966 201.062C201.088 204.679 192.205 205.687 186.825 202.893C185.978 202.458 185.68 201.817 186.184 201.497C186.344 201.382 187.397 201.291 188.519 201.291C193.556 201.291 197.105 199.23 198.433 195.567C198.593 195.132 198.661 194.582 198.593 194.354C198.478 193.964 198.02 193.827 197.746 194.125Z" fill="#243252"/>
<path d="M119.375 198.131C119.261 198.292 119.192 199.001 119.192 199.734C119.215 200.833 119.329 201.153 119.97 201.978C121.001 203.283 123.015 204.519 126.724 206.076C129.449 207.244 129.815 207.93 127.709 207.93C124.526 207.93 119.925 207.038 116.536 205.755C114.361 204.954 112.003 203.901 111.453 203.535C110.102 202.596 109.416 203.328 110.652 204.382C111.614 205.206 111.545 205.412 110.354 205.412C109.896 205.412 109.004 205.572 108.385 205.778C107.767 205.984 107.126 206.19 106.943 206.236C106.691 206.328 106.691 206.419 106.966 206.831C107.309 207.335 108.614 207.793 110.812 208.136C111.499 208.251 112.529 208.457 113.102 208.571C114.819 208.961 119.993 209.373 121.344 209.213C122.031 209.144 124.252 209.006 126.266 208.938C129.518 208.823 129.976 208.755 130.433 208.343C130.823 207.976 130.891 207.793 130.708 207.381C130.479 206.9 128.464 205.412 128.029 205.412C127.755 205.412 124.366 203.924 124.137 203.718C124.046 203.626 123.656 203.397 123.267 203.237C122.329 202.848 120.955 201.611 120.52 200.764C120.291 200.375 120.199 199.688 120.245 199.047C120.291 198.2 120.245 197.971 119.925 197.902C119.718 197.857 119.467 197.971 119.375 198.131Z" fill="#243252"/>
<path d="M61.9085 212.12C61.7711 212.464 63.0762 215.646 63.6027 216.218C63.8546 216.516 64.0149 216.562 64.2438 216.379C64.5643 216.104 64.5186 215.898 63.7401 214.181C63.4425 213.517 63.0991 212.738 62.9617 212.395C62.7327 211.777 62.1146 211.616 61.9085 212.12Z" fill="#FC766A"/>
<path d="M73.8139 213.906C72.9668 215.303 71.2725 217.913 70.4941 219.103C70.1278 219.653 69.8301 220.179 69.8301 220.294C69.8301 220.637 68.8456 221.21 68.2504 221.21C67.9298 221.21 67.2659 221.347 66.7393 221.53C65.709 221.874 64.0376 222.309 62.5266 222.606C61.9542 222.721 61.2673 222.973 60.9697 223.156C60.4431 223.499 60.4431 223.545 60.4431 228.422C60.4431 231.444 60.3515 233.367 60.2141 233.459C60.0768 233.527 58.2681 233.642 56.1388 233.688C50.8729 233.802 48.5376 234.42 48.5376 235.725C48.5376 236.733 49.9571 237.397 53.3456 237.946C55.4977 238.289 63.8545 238.496 64.1292 238.221C64.2437 238.106 63.7858 237.648 62.9616 237.122L61.5879 236.229V230.436C61.5879 224.827 61.6108 224.644 62.0458 224.644C62.2747 224.644 62.8242 224.781 63.2363 224.964C63.6484 225.148 64.7703 225.537 65.709 225.812C68.4106 226.613 68.2275 226.109 68.2275 232.634C68.2275 235.725 68.319 238.404 68.4335 238.587C68.6625 238.931 69.3951 238.793 71.7762 238.038C72.2799 237.877 73.2644 237.58 73.9513 237.374C76.8589 236.527 78.1869 236.023 78.3471 235.794C78.4387 235.634 78.5303 233.001 78.5303 229.91V224.301L79.2858 223.041C79.698 222.354 80.1101 221.622 80.2016 221.439C80.2932 221.255 80.568 220.775 80.8198 220.408C81.0717 220.019 81.3693 219.515 81.5067 219.264C81.644 219.012 81.9875 218.394 82.308 217.89C83.0864 216.608 83.0406 216.081 82.1019 215.509C81.6898 215.234 81.2319 215.028 81.0946 215.028C80.9572 215.028 80.568 214.913 80.2016 214.753C78.4158 214.021 75.8058 213.151 75.1647 213.036C74.5236 212.922 74.3863 213.013 73.8139 213.906ZM76.9734 214.662C77.3855 214.845 78.1869 215.165 78.7592 215.371C81.0488 216.241 81.5067 216.493 81.5067 216.814C81.5067 216.997 81.0717 217.89 80.5222 218.783C79.9727 219.676 79.469 220.569 79.3774 220.752C79.1485 221.187 78.7592 221.828 78.2098 222.629C77.729 223.362 76.8361 223.476 76.1034 222.927C75.8745 222.744 75.4852 222.583 75.2563 222.583C75.0044 222.583 74.5465 222.446 74.226 222.263C73.6307 221.965 72.2112 221.393 71.387 221.118C71.158 221.049 70.9749 220.843 70.9749 220.683C70.9749 220.385 72.2341 218.348 73.9742 215.761C74.3405 215.234 74.6381 214.685 74.6381 214.57C74.6381 214.227 76.1263 214.295 76.9734 214.662ZM70.6315 222.469C71.1352 222.652 72.3486 223.087 73.3331 223.43C75.2563 224.117 75.6226 224.484 74.5236 224.598C74.1573 224.621 73.2186 224.804 72.4631 224.987C69.5325 225.651 68.7312 225.628 66.373 224.873C63.9919 224.117 63.0531 223.614 63.6484 223.43C64.8848 223.041 68.6625 222.171 69.1433 222.148C69.4638 222.148 70.1278 222.286 70.6315 222.469ZM77.3855 230.07C77.3855 232.703 77.294 234.947 77.2024 235.107C77.1108 235.267 76.63 235.473 76.1263 235.611C75.6226 235.748 74.7068 236 74.0657 236.183C71.4328 236.984 70.3567 237.305 69.7843 237.397L69.1433 237.511V232.222V226.933L69.7156 226.705C70.0362 226.59 70.9749 226.361 71.822 226.224C72.692 226.086 73.9513 225.834 74.6381 225.674C75.325 225.491 76.2408 225.354 76.6529 225.354L77.3855 225.331V230.07Z" fill="#FC766A"/>
<path d="M56.0928 214.41C56.0928 214.684 56.3217 215.119 56.6194 215.371C59.3668 217.73 61.725 219.607 61.9768 219.607C62.1371 219.607 62.2745 219.355 62.2745 219.035C62.2745 218.714 62.2058 218.462 62.0913 218.462C61.9997 218.462 61.6792 218.233 61.3587 217.936C59.8018 216.539 56.5049 213.883 56.3217 213.883C56.1844 213.883 56.0928 214.112 56.0928 214.41Z" fill="#FC766A"/>
<path d="M55.9097 220.362C55.5663 220.752 55.8181 221.072 56.9629 221.69C57.5124 221.988 58.1763 222.377 58.4511 222.515C59.1379 222.904 59.9851 222.881 59.9851 222.492C59.9851 222.194 59.4356 221.805 57.1689 220.546C56.1616 219.973 56.2073 219.996 55.9097 220.362Z" fill="#FC766A"/>
<path d="M19.5754 231.169C19.0717 231.329 17.9956 231.627 17.1714 231.856C16.3472 232.062 15.1566 232.383 14.5155 232.566C13.8745 232.749 13.1418 232.886 12.8671 232.886C12.6152 232.886 12.3176 233.024 12.2031 233.161C12.1116 233.321 11.9742 235.771 11.9055 238.61L11.791 243.761L7.44094 243.807C1.94609 243.853 0 244.38 0 245.845C0 246.6 1.00739 247.173 3.09085 247.608C6.43355 248.295 15.5687 248.753 15.5687 248.226C15.5687 248.112 15.0192 247.585 14.3324 247.081C13.6455 246.555 13.0503 245.959 13.0045 245.776C12.9587 245.57 12.9587 242.983 13.0045 240.03L13.0732 234.672L13.9661 234.809C14.4698 234.878 15.2024 235.084 15.6145 235.267C16.0266 235.45 16.9882 235.771 17.7438 236C18.4993 236.229 19.2549 236.504 19.4151 236.618C19.6212 236.778 19.6899 238.289 19.6899 242.731C19.6899 247.196 19.7585 248.661 19.9646 248.73C20.2851 248.844 21.3612 248.638 23.0097 248.134C25.0931 247.493 26.421 247.104 27.6803 246.738C28.3671 246.555 29.1685 246.234 29.4432 246.051L29.9927 245.708V240.121C29.9927 235.107 29.9469 234.535 29.6035 234.191C29.1914 233.848 28.6877 233.642 25.5281 232.543C24.6581 232.245 23.3531 231.787 22.6662 231.513C20.9949 230.849 20.6515 230.803 19.5754 231.169ZM22.277 232.52C22.6891 232.703 23.2157 232.886 23.4676 232.955C24.4063 233.207 25.986 233.848 26.215 234.054C26.5813 234.42 26.0089 234.718 24.475 234.924C23.6736 235.038 22.4144 235.244 21.6588 235.405C20.3767 235.702 20.2165 235.679 17.9956 234.97C14.4469 233.802 14.6529 233.939 15.5 233.504C15.8893 233.298 16.6448 233.046 17.1943 232.978C17.7438 232.886 18.5222 232.68 18.8885 232.52C19.8043 232.131 21.3841 232.131 22.277 232.52ZM28.7335 240.327V245.112L27.7032 245.501C27.1308 245.73 26.0547 246.074 25.2992 246.303C24.5436 246.509 23.5134 246.852 22.9868 247.013C22.4602 247.196 21.7504 247.31 21.3841 247.264L20.7201 247.196L20.6515 242.319C20.6286 239.32 20.6973 237.282 20.8346 237.007C20.9949 236.71 21.407 236.527 22.1625 236.435C22.7578 236.343 23.9026 236.137 24.7268 235.954C26.4897 235.565 27.3826 235.45 28.1611 235.496L28.7335 235.519V240.327Z" fill="#243252"/>
<path d="M40.2727 249.096C37.0903 251.088 37.3193 250.722 37.0903 253.835C36.9758 255.346 36.8614 257.613 36.8614 258.895C36.8614 260.36 36.7698 261.276 36.5866 261.459C36.4263 261.62 35.625 261.734 34.5718 261.734C32.0076 261.734 29.7867 262.627 29.4204 263.818C29.2601 264.321 29.9012 265.626 30.5423 266.084C31.5726 266.817 32.6257 267 36.1058 267C40.1583 267 42.9973 266.634 47.3245 265.58C47.8739 265.443 48.6295 265.397 48.9958 265.489C49.6369 265.603 49.8887 265.443 51.7661 263.634C52.9109 262.535 53.9641 261.414 54.1014 261.162C54.3762 260.658 54.4906 249.279 54.2159 248.844C54.0327 248.546 47.7595 248.02 44.3023 248.02H42.0128L40.2727 249.096ZM53.0711 249.668C53.2772 249.829 53.3459 251.202 53.3459 255.117V260.36L52.1553 261.665C50.3237 263.68 50.2779 263.634 50.1406 259.33C50.049 256.079 49.9803 255.667 49.6369 255.598C49.2476 255.53 49.2248 255.85 49.2248 259.88C49.2248 262.261 49.1561 264.275 49.0416 264.321C48.95 264.39 47.5992 264.298 46.0194 264.115C44.4397 263.955 42.1501 263.703 40.9138 263.566C37.6627 263.222 37.7085 263.268 37.9145 260.864C38.0061 259.765 38.1435 257.315 38.2122 255.438L38.3495 252.004L40.868 252.072C42.2646 252.118 44.6228 252.255 46.111 252.37C48.3089 252.553 48.8813 252.553 49.0187 252.301C49.1332 252.141 49.179 251.912 49.1561 251.775C49.1103 251.66 47.4389 251.431 45.4242 251.271C39.7919 250.859 39.4943 250.722 41.4175 249.691C42.402 249.165 42.4936 249.165 47.5992 249.302C50.4382 249.371 52.9109 249.531 53.0711 249.668Z" fill="#243252"/>
</g>
<defs>
<clipPath id="clip0_161_2151">
<rect width="309.085" height="266.5" fill="white" transform="translate(0 0.5)"/>
</clipPath>
</defs>
</svg>
