<svg width="426" height="331" viewBox="0 0 426 331" fill="none" xmlns="http://www.w3.org/2000/svg">
<g clip-path="url(#clip0_161_2131)">
<path d="M60.3132 130.049L54.1417 296.469L424.939 231.43L294.971 18.4607L60.3132 130.049Z" fill="#DFE3EC"/>
<path d="M239.022 80.607C238.184 81.0815 238.072 81.3048 236.37 85.6591C235.672 87.5014 234.918 89.3715 234.723 89.846C234.5 90.2926 233.941 91.6604 233.467 92.8327C231.485 97.7732 230.843 99.1968 230.369 99.6155C229.699 100.202 225.372 100.202 219.148 99.6155C216.803 99.3922 213.621 99.1968 212.058 99.1968C209.518 99.1968 209.211 99.2526 208.653 99.8109C207.871 100.676 207.62 101.793 208.066 102.574C208.457 103.3 208.932 103.747 214.04 107.989C214.793 108.603 215.91 109.552 216.552 110.083C217.166 110.613 218.31 111.562 219.036 112.176C222.776 115.274 223.39 115.972 223.39 117.061C223.39 117.647 223.028 118.959 222.581 120.02C222.134 121.08 221.381 122.95 220.878 124.179C220.404 125.407 219.846 126.774 219.622 127.249C219.427 127.696 219.064 128.645 218.785 129.342C218.31 130.598 217.975 131.436 217.194 133.25C216.105 135.762 216.329 137.27 217.892 138.135C219.176 138.805 218.757 139 227.912 133.25C230.731 131.492 233.634 129.649 234.388 129.147C236.733 127.612 237.682 127.696 239.747 129.538C240.808 130.459 241.282 130.878 244.157 133.25C245.358 134.255 247.786 136.293 249.545 137.772C251.303 139.279 253.034 140.591 253.424 140.675C254.82 141.038 256.16 140.284 256.495 138.916C256.69 138.219 256.523 137.27 255.602 133.669C255.35 132.748 254.988 131.296 254.792 130.459C254.597 129.622 254.206 128.114 253.955 127.109C251.973 119.35 252.001 119.461 252.392 118.54C252.727 117.731 255.322 115.805 258.142 114.27C258.923 113.851 259.537 113.46 261.491 112.176C262.412 111.562 263.389 110.948 263.64 110.781C266.292 109.245 268.944 107.459 269.279 106.956C269.809 106.231 269.865 104.975 269.418 104.165C268.86 103.16 267.437 102.825 261.994 102.546C259.091 102.379 254.876 102.072 252.587 101.904C248.596 101.569 248.4 101.514 247.786 100.788C247.423 100.341 247.06 99.6713 246.977 99.2526C246.893 98.8339 246.642 97.7732 246.418 96.88C246.195 96.0147 245.832 94.5633 245.609 93.6701C245.386 92.8048 244.995 91.2975 244.772 90.3206C244.52 89.3715 244.157 87.8642 243.934 86.971C242.818 82.6167 242.455 81.5281 241.952 81.0536C241.171 80.3278 239.887 80.1325 239.022 80.607Z" fill="#FC766A"/>
<path d="M317.401 96.1822C316.842 96.6847 315.531 98.1082 314.498 99.3364C313.465 100.565 312.293 101.876 311.958 102.267C311.595 102.658 309.948 104.556 308.301 106.51C306.654 108.436 305.035 110.166 304.673 110.334C303.696 110.808 302.774 110.697 301.183 109.971C300.374 109.608 296.969 108.157 293.591 106.733C290.214 105.338 287.116 103.998 286.697 103.774C286.306 103.551 285.469 103.384 284.855 103.384C283.933 103.384 283.599 103.551 283.012 104.249C282.622 104.724 282.287 105.338 282.287 105.617C282.287 106.203 282.929 107.654 283.682 108.827C283.989 109.273 284.352 109.915 284.52 110.222C284.687 110.529 285.05 111.143 285.357 111.618C285.664 112.065 286.027 112.707 286.194 113.014C286.334 113.321 286.641 113.823 286.808 114.13C287.143 114.605 287.478 115.163 288.902 117.48C289.097 117.787 289.376 118.289 289.544 118.596C289.711 118.903 290.074 119.517 290.381 119.992C290.688 120.438 291.247 121.499 291.637 122.308C292.279 123.565 292.335 123.899 292.084 124.681C291.916 125.156 291.414 125.965 290.995 126.44C279.886 139.084 279.412 139.698 279.412 141.01C279.412 143.103 281.142 144.108 283.319 143.271C283.738 143.103 284.659 142.88 285.357 142.741C286.055 142.629 287.255 142.378 288.009 142.182C291.33 141.373 292.614 141.094 294.708 140.619C295.936 140.368 297.499 139.977 298.169 139.782C299.872 139.251 301.351 139.279 301.993 139.893C302.579 140.396 303.779 142.071 303.779 142.322C303.779 142.406 304.114 142.992 304.533 143.662C305.538 145.225 305.929 145.839 306.291 146.509C306.459 146.816 306.822 147.43 307.129 147.904C307.436 148.351 307.771 148.937 307.883 149.16C307.966 149.384 308.385 150.082 308.776 150.696C309.864 152.398 310.004 152.65 310.73 154.017C312.237 156.836 313.521 157.674 315.363 156.976C316.508 156.529 316.87 155.217 317.177 150.305C317.317 147.849 317.512 145.699 317.596 145.476C317.68 145.281 317.847 143.271 317.987 141.038C318.154 138.805 318.406 136.656 318.601 136.237C319.048 135.26 319.997 134.646 321.588 134.395C322.313 134.255 323.541 134.004 324.295 133.808C325.077 133.641 326.389 133.306 327.226 133.111C328.063 132.887 329.71 132.524 330.855 132.273C331.999 132.022 333.59 131.631 334.372 131.408C335.153 131.185 336.074 131.017 336.409 131.017C337.079 131.017 338.531 130.347 339.312 129.677C339.619 129.398 339.787 128.84 339.787 128.086C339.787 126.3 339.842 126.328 330.994 122.643C322.537 119.099 320.89 118.289 320.527 117.619C320.304 117.173 320.304 115.749 320.527 112.092C320.694 109.385 320.918 107.068 320.974 106.957C321.197 106.594 321.671 97.7174 321.504 96.908C321.308 96.0427 320.164 95.289 319.048 95.289C318.685 95.289 317.931 95.7077 317.401 96.1822ZM318.852 101.095C318.852 102.295 318.685 104.64 318.461 106.342C317.903 110.669 317.624 117.312 317.959 118.205C318.378 119.266 319.801 120.578 321.308 121.276C322.034 121.611 322.955 122.057 323.374 122.253C323.765 122.476 324.239 122.643 324.407 122.643C324.686 122.643 327.338 123.788 329.264 124.765C329.71 124.988 330.185 125.156 330.324 125.156C330.464 125.156 331.413 125.546 332.446 126.021C333.506 126.495 334.818 127.082 335.376 127.333C336.521 127.863 336.772 128.505 335.823 128.505C335.488 128.505 334.595 128.673 333.813 128.896C333.032 129.119 331.441 129.51 330.296 129.761C326.361 130.626 324.574 131.045 323.151 131.464C322.369 131.687 321.476 131.855 321.169 131.855C320.834 131.855 319.857 132.134 318.992 132.469L317.429 133.055L316.954 132.413C316.424 131.687 315.056 129.426 314.749 128.784C314.637 128.561 314.191 127.835 313.772 127.221C313.353 126.579 312.991 125.993 312.991 125.909C312.991 125.798 312.628 125.183 312.153 124.514C311.707 123.816 311.316 123.202 311.316 123.118C311.316 123.006 310.953 122.392 310.478 121.722C310.032 121.024 309.641 120.41 309.641 120.299C309.641 120.215 309.306 119.685 308.915 119.099C308.524 118.512 308.078 117.787 307.938 117.48C307.799 117.173 307.436 116.531 307.129 116.084C306.822 115.609 306.347 114.8 306.04 114.242L305.482 113.237L307.771 110.836C309.027 109.524 311.874 106.315 314.107 103.719C316.34 101.095 318.322 98.9456 318.517 98.9456C318.741 98.9177 318.852 99.5318 318.852 101.095Z" fill="#243252"/>
<path d="M157.014 99.0014C156.4 99.6434 156.4 99.755 156.4 109.748C156.4 119.796 156.4 119.824 155.786 120.522C155.228 121.164 153.609 121.862 150.957 122.643C150.511 122.783 147.747 123.704 144.817 124.737C141.914 125.742 139.122 126.691 138.648 126.802C136.387 127.389 135.41 128.952 136.247 130.654C136.638 131.52 136.973 131.743 138.397 132.217C139.318 132.524 140.518 132.915 141.048 133.111C141.579 133.306 142.779 133.669 143.7 133.948C144.621 134.227 146.436 134.785 147.747 135.204C149.059 135.623 150.874 136.181 151.795 136.46C154.251 137.186 156.065 138.023 156.289 138.526C156.428 138.777 156.652 143.522 156.791 149.049L157.098 159.153L157.796 159.739C158.215 160.074 158.912 160.298 159.554 160.325C160.811 160.325 161.369 159.823 163.462 156.808C170.44 146.788 171.557 145.225 172.366 144.387C173.455 143.215 174.348 143.271 178.73 144.834C179.261 145.029 180.349 145.364 181.103 145.615C185.039 146.788 188.472 147.848 189.477 148.183C192.463 149.132 193.133 149.244 193.999 148.77C194.948 148.295 195.618 146.955 195.366 146.006C195.255 145.476 186.825 133.92 184.76 131.436C183.476 129.901 183.476 128.254 184.732 126.551C187.355 123.006 188.221 121.806 188.221 121.666C188.221 121.583 188.891 120.606 189.7 119.489C194.166 113.46 194.92 112.232 194.92 111.171C194.92 110.362 194.752 109.971 194.054 109.413C193.58 109.022 192.938 108.687 192.603 108.687C192.268 108.687 189.03 109.692 185.429 110.948C181.829 112.176 178.507 113.293 178.033 113.432C177.586 113.572 176.414 113.963 175.437 114.298C173.929 114.8 173.567 114.828 172.869 114.549C172.283 114.298 170.496 112.12 166.7 107.04C163.769 103.105 161.034 99.5596 160.643 99.113C159.694 98.1082 157.908 98.0524 157.014 99.0014Z" fill="#FC766A"/>
<path d="M354.58 135.679C352.933 136.823 352.821 137.66 353.966 141.066C354.412 142.378 355.194 144.75 355.696 146.369C356.199 147.988 356.953 150.361 357.371 151.673C359.102 157.004 359.13 157.171 358.404 158.12C357.985 158.651 355.724 160.325 346.485 166.913C344.727 168.169 343.052 169.453 342.745 169.788C341.991 170.597 342.047 172.467 342.829 173.249C343.415 173.863 343.638 173.863 353.408 174.003C362.033 174.114 363.484 174.198 364.07 174.589C364.768 175.063 365.243 176.068 366.164 179.167C366.443 180.088 367.001 181.902 367.42 183.214C367.838 184.526 368.592 186.898 369.095 188.517C370.965 194.574 371.216 194.881 373.756 194.714C374.454 194.658 375.486 193.318 375.794 192.062C376.017 191.253 376.994 188.294 377.775 186.145C377.943 185.67 378.166 184.917 378.306 184.47C378.529 183.66 378.864 182.711 379.59 180.702C379.785 180.171 380.204 178.832 380.539 177.771C380.846 176.682 381.376 175.51 381.655 175.119L382.186 174.421L392.318 174.282C399.519 174.17 402.618 174.031 403.036 173.807C403.874 173.333 404.404 171.909 404.097 170.988C403.818 170.207 403.511 169.955 394.076 162.949C391.145 160.772 388.466 158.679 388.103 158.288C387.405 157.506 387.377 156.641 388.075 154.743C388.27 154.213 388.605 153.319 388.773 152.789C388.968 152.259 389.582 150.417 390.141 148.742C390.671 147.039 391.257 145.281 391.425 144.834C393.741 138.135 393.853 137.325 392.513 136.209C392.039 135.818 391.397 135.483 391.09 135.483C390.336 135.483 388.578 136.516 385.87 138.526C384.698 139.419 382.995 140.647 382.074 141.289C381.153 141.931 379.645 143.02 378.724 143.717C374.147 147.123 373.253 147.458 371.662 146.453C371.244 146.174 368.704 144.304 366.024 142.322C363.345 140.312 360.665 138.386 360.107 138.023C359.52 137.688 359.046 137.27 359.046 137.13C359.046 136.991 358.906 136.879 358.767 136.879C358.599 136.879 357.957 136.488 357.315 136.041C356.003 135.092 355.529 135.009 354.58 135.679ZM358.097 139.754C359.018 140.396 360.051 141.15 360.442 141.429C362.507 142.908 364.377 144.276 367.699 146.704L371.411 149.44H373.281C375.124 149.44 375.152 149.44 377.775 147.569C379.227 146.565 381.544 144.89 382.911 143.857C384.307 142.824 385.926 141.652 386.54 141.261C387.154 140.842 388.27 140.061 389.024 139.531C389.778 138.972 390.448 138.609 390.531 138.665C390.643 138.805 387.377 149.216 386.289 152.231C386.093 152.761 385.758 153.654 385.563 154.185C384.893 156.027 384.893 157.785 385.563 159.125C386.205 160.437 386.01 160.27 396.114 167.667C398.598 169.481 400.636 171.156 400.636 171.379C400.636 171.714 399.24 171.77 391.397 171.77C380.929 171.77 380.846 171.77 379.478 173.891C379.031 174.561 378.389 176.012 378.027 177.129C377.692 178.245 377.273 179.613 377.078 180.143C376.352 182.153 376.017 183.102 375.794 183.912C375.486 185 374.984 186.452 374.51 187.624C374.286 188.126 374.119 188.713 374.119 188.964C374.119 189.187 373.868 189.885 373.561 190.499C373.002 191.588 372.444 191.727 372.444 190.806C372.444 190.359 371.97 188.713 371.188 186.563C370.993 186.033 370.602 184.833 370.351 183.912C370.071 182.991 369.681 181.818 369.485 181.316C369.262 180.813 369.095 180.227 369.095 180.004C369.095 179.781 368.927 179.194 368.704 178.692C368.508 178.19 368.09 177.017 367.811 176.096C367.531 175.175 367.001 174.003 366.61 173.472C365.298 171.714 364.908 171.658 354.859 171.491C344.615 171.323 344.671 171.351 347.378 169.425C348.244 168.783 350.086 167.499 351.426 166.522C359.548 160.716 360.386 160.046 360.972 158.651C361.67 157.06 361.698 156.501 361.167 155.106C360.972 154.52 360.386 152.733 359.883 151.114C359.046 148.407 356.925 141.792 356.255 139.782C355.724 138.163 355.948 138.163 358.097 139.754Z" fill="#243252"/>
<path d="M116.346 142.21C114.364 143.717 112.103 145.42 111.322 145.95C108.335 148.044 107.107 148.937 106.576 149.384C105.46 150.333 103.981 151.114 103.283 151.114C102.892 151.114 101.608 150.416 100.157 149.356C98.8447 148.407 96.3325 146.62 94.6298 145.364C85.7815 139 86.1165 139.196 84.3859 140.089C82.767 140.926 82.9624 142.489 85.5303 149.579C85.6978 150.026 85.9211 150.779 86.0607 151.254C86.284 152.035 86.5073 152.705 87.3167 155.022C88.2099 157.534 89.1311 160.577 89.1311 161.051C89.1311 162.196 88.7961 162.475 80.0036 168.978C78.6638 169.983 77.0449 171.128 76.4029 171.574C75.7609 171.993 74.6723 172.83 73.9466 173.472C72.8022 174.477 72.6626 174.728 72.6626 175.789C72.6626 176.71 72.8301 177.129 73.3883 177.659L74.1141 178.329L83.6602 178.217C95.5789 178.106 94.9648 177.91 96.4163 182.572C96.7233 183.605 97.1699 184.917 97.3653 185.447C98.1189 187.54 98.398 188.406 98.6213 189.215C98.7609 189.662 98.9842 190.415 99.1517 190.89C99.3192 191.336 99.9053 193.039 100.436 194.63C101.58 198.063 102.194 198.845 103.646 198.845C105.237 198.845 105.767 198.175 106.883 194.63C107.442 192.872 108.056 191.001 108.251 190.471C108.447 189.941 109.033 188.182 109.535 186.563C111.824 179.167 111.768 179.25 112.801 178.58C113.303 178.245 114.141 178.162 116.29 178.19C117.853 178.19 122.319 178.134 126.199 178.022L133.289 177.827L133.959 177.101C134.74 176.264 134.824 174.98 134.182 174.058C133.959 173.724 132.842 172.802 131.754 172.021C130.637 171.267 128.572 169.788 127.12 168.755C117.825 162.084 117.881 162.14 117.881 160.828C117.881 160.381 118.439 158.288 119.137 156.194C119.807 154.101 120.756 151.17 121.231 149.719C121.677 148.267 122.459 145.895 122.905 144.471C123.799 141.68 123.799 141.373 122.542 140.005C122.152 139.586 121.677 139.391 120.979 139.419C120.142 139.419 119.333 139.921 116.346 142.21Z" fill="#FC766A"/>
<path d="M244.046 147.43C241.813 148.211 240.278 148.993 236.203 151.338C235.031 152.008 234.277 152.231 233.3 152.231C231.039 152.231 226.545 153.096 223.949 154.045C218.953 155.832 213.51 158.288 211.584 159.6C210.998 159.991 210.467 160.326 210.412 160.326C209.937 160.326 206.225 163.508 203.378 166.355C200.363 169.397 198.353 171.881 197.181 174.003C193.72 180.339 192.436 184.972 192.324 191.448L192.268 195.635L189.058 197.226C183.42 199.989 176.637 203.339 176.219 203.59C175.995 203.702 175.298 204.037 174.683 204.316C174.069 204.623 172.981 205.181 172.227 205.6C171.501 206.046 170.692 206.381 170.469 206.381C170.245 206.381 169.436 206.995 168.71 207.721C167.259 209.173 166.812 210.54 167.175 212.466C167.594 214.643 169.799 216.43 172.088 216.43C173.316 216.43 174.432 215.927 188.137 209.117C190.622 207.889 192.771 206.968 192.938 207.079C193.329 207.302 193.329 208.224 192.827 212.913C192.38 217.156 191.766 220.924 191.124 223.464C189.812 228.767 189.533 229.381 188.361 229.828C187.272 230.247 184.313 232.675 183.169 234.099C181.131 236.639 179.484 240.435 178.591 244.761C178.312 245.989 177.949 247.552 177.754 248.25C177.558 248.948 177.196 250.316 176.916 251.321C176.051 254.531 173.874 261.62 173.455 262.625C173.316 262.932 172.981 263.798 172.73 264.579C171.836 267.203 168.85 274.069 168.068 275.353C167.649 276.051 167.287 276.749 167.287 276.861C167.287 276.972 166.7 277.894 166.003 278.898C164.188 281.494 164.272 283.42 166.142 283.42C167.147 283.42 168.515 281.941 170.05 279.233C172.283 275.214 173.623 272.283 175.716 266.812C176.358 265.11 178.842 257.629 179.484 255.508C179.736 254.67 180.098 253.414 180.294 252.716C180.489 252.019 180.852 250.651 181.075 249.646C182.918 241.579 183.699 239.43 185.765 236.722C188.082 233.596 191.04 232.061 195.478 231.614C197.544 231.419 202.289 232.173 205.108 233.177C206.029 233.512 207.034 233.847 207.341 233.903C207.648 233.987 208.29 234.238 208.737 234.434C210.216 235.103 212.728 236.248 213.398 236.527C213.761 236.694 214.431 237.029 214.878 237.309C215.352 237.588 216.608 238.313 217.669 238.9C218.757 239.486 220.125 240.295 220.739 240.686C221.353 241.077 221.995 241.468 222.135 241.551C223.14 242.054 226.573 244.51 227.299 245.264C227.773 245.766 228.639 246.966 229.197 247.971L230.23 249.785L230.202 253.275C230.174 256.959 229.923 258.103 228.248 262.402C227.438 264.523 224.424 270.692 222.944 273.232C222.414 274.153 221.856 275.158 221.716 275.465C221.437 276.051 221.242 276.386 219.986 278.34C219.539 279.01 219.204 279.652 219.204 279.764C219.204 279.903 219.009 280.154 218.785 280.35C218.199 280.824 218.255 282.387 218.869 282.946C220.181 284.146 221.437 283.225 223.391 279.652C223.893 278.731 224.48 277.782 224.675 277.531C224.898 277.307 225.066 277.028 225.066 276.944C225.066 276.889 225.791 275.521 226.685 273.902C228.974 269.771 231.765 263.965 231.765 263.323C231.765 263.184 231.932 262.653 232.156 262.151C233.188 259.667 233.97 255.87 233.998 253.275C233.998 251.572 233.412 248.39 232.909 247.469C232.183 246.073 232.574 245.459 238.492 238.704C239.245 237.839 241.311 235.383 243.097 233.261C244.856 231.14 246.782 228.851 247.34 228.153C249.936 225.083 256.049 216.569 256.049 216.039C256.049 215.983 256.802 214.643 257.724 213.108C258.645 211.545 259.398 210.233 259.398 210.15C259.398 210.094 259.789 209.48 260.236 208.81C260.71 208.112 261.073 207.498 261.073 207.414C261.073 207.33 262.19 205.404 263.529 203.116C266.097 198.817 267.298 196.696 268.275 194.798C269.084 193.234 271.122 188.824 271.122 188.657C271.122 188.434 272.741 184.944 275.308 179.725C278.295 173.612 278.658 172.663 278.658 171.044C278.658 169.592 278.128 168.448 276.76 166.913C275.56 165.573 275.197 165.88 281.952 162.503C288.065 159.46 288.707 158.874 288.707 156.083C288.707 154.241 288.455 153.626 287.227 152.287C285.58 150.584 282.873 150.444 280.305 151.98C279.523 152.426 278.853 152.789 278.77 152.789C278.714 152.789 276.732 153.738 274.387 154.883C272.071 156.027 270.005 156.976 269.838 156.976C269.67 156.976 269.447 156.641 269.363 156.194C269.14 155.05 267.772 153.236 266.376 152.147C265.092 151.17 260.012 148.602 259.398 148.602C259.203 148.602 258.477 148.407 257.751 148.184C253.62 146.9 246.642 146.481 244.046 147.43ZM252.392 150.724C257.444 151.533 260.403 152.566 263.781 154.715C265.344 155.72 266.041 156.864 265.595 157.73C264.702 159.376 262.776 159.963 256.886 160.326C249.099 160.828 248.959 160.856 246.782 162.614C244.605 164.401 240.111 167.304 236.231 169.453C234.751 170.29 234.249 170.569 230.704 172.495C229.811 172.97 227.243 174.338 224.926 175.51C218.283 178.971 218.367 178.915 218.367 179.92C218.367 180.395 218.59 181.037 218.841 181.316C219.483 182.042 219.176 182.293 215.575 184.051C213.957 184.861 208.988 187.317 204.494 189.55C200.028 191.783 196.232 193.514 196.065 193.43C195.311 192.955 195.981 186.703 197.153 183.046C198.214 179.781 199.637 176.766 201.48 173.975C202.791 172.049 207.704 166.829 209.574 165.406C212.617 163.117 213.789 162.391 216.524 161.051C218.227 160.214 220.572 159.181 221.716 158.707C226.629 156.725 227.773 156.557 227.41 157.925C227.299 158.4 227.438 158.79 227.857 159.209C228.666 160.018 229.671 159.823 231.569 158.427C232.351 157.813 233.858 156.892 234.863 156.334C235.896 155.776 237.264 154.966 237.933 154.52C240.25 152.957 243.628 151.282 245.442 150.807C247.731 150.193 249.043 150.165 252.392 150.724ZM254.095 164.624C254.095 164.819 252.643 165.713 250.829 166.606C249.015 167.499 246.558 168.699 245.33 169.285C244.13 169.9 242.986 170.374 242.79 170.374C242.595 170.374 242.372 170.514 242.316 170.681C242.26 170.849 241.953 170.932 241.674 170.849C241.143 170.709 241.143 170.709 241.757 170.514C242.092 170.402 242.372 170.207 242.372 170.095C242.372 169.983 242.651 169.76 243.014 169.565C244.353 168.867 247.033 167.025 248.791 165.573C250.02 164.568 250.662 164.373 253.062 164.289C253.76 164.233 254.095 164.345 254.095 164.624ZM274.248 169.509C275.532 170.932 275.336 171.686 272.015 178.357C270.815 180.813 269.335 183.856 268.749 185.168C266.321 190.611 264.953 193.486 263.585 195.914C262.664 197.617 258.784 204.204 258.282 204.986C258.114 205.209 257.863 205.656 257.724 205.963C257.556 206.27 257.193 206.884 256.886 207.358C256.579 207.805 256.216 208.447 256.077 208.754C255.937 209.089 255.128 210.512 254.262 211.908C253.397 213.332 252.699 214.56 252.699 214.616C252.699 214.811 249.154 219.975 247.926 221.594C245.861 224.273 241.702 229.409 240.222 231.14C238.017 233.652 233.412 239.067 232.183 240.546C231.569 241.3 230.899 242.082 230.704 242.277C230.369 242.64 229.56 242.528 229.253 242.082C229.113 241.886 223.67 238.202 223.503 238.202C223.447 238.202 222.944 237.867 222.358 237.476C221.772 237.085 221.046 236.639 220.739 236.499C220.432 236.36 219.734 235.969 219.204 235.662C217.139 234.406 213.594 232.619 211.221 231.642C207.592 230.135 206.95 229.912 205.248 229.437C201.033 228.293 200.196 228.153 197.209 228.153C195.506 228.153 194.055 228.042 193.971 227.902C193.887 227.762 194.055 226.674 194.334 225.474C195.73 219.668 196.567 213.862 196.623 209.508C196.734 204.288 195.813 205.265 204.662 200.91C208.904 198.817 213.957 196.305 215.938 195.328C217.892 194.351 219.623 193.542 219.79 193.542C219.958 193.542 220.488 193.849 220.935 194.239C224.34 197.086 230.062 197.701 235.673 195.775C236.594 195.468 241.59 193.039 242.79 192.341C249.043 188.629 253.313 184.358 260.319 174.84L262.05 172.467L266.097 170.43C270.033 168.448 270.173 168.392 271.819 168.532C273.243 168.643 273.606 168.783 274.248 169.509ZM254.123 177.129C253.955 177.324 253.313 178.106 252.699 178.887C250.159 181.986 248.624 183.577 246.726 185.112C242.483 188.573 238.268 191.057 234.277 192.453C232.798 192.983 231.904 193.095 229.253 193.095C226.461 193.095 225.875 193.011 224.842 192.481C223.949 192.006 223.698 191.755 223.921 191.504C224.061 191.309 225.931 190.304 228.052 189.271C230.174 188.21 236.873 184.889 242.93 181.846C252.867 176.906 255.1 175.957 254.123 177.129Z" fill="#243252"/>
</g>
<defs>
<clipPath id="clip0_161_2131">
<rect width="425.758" height="330.588" fill="white" transform="translate(0 0.206055)"/>
</clipPath>
</defs>
</svg>
