<svg width="354" height="219" viewBox="0 0 354 219" fill="none" xmlns="http://www.w3.org/2000/svg">
<g clip-path="url(#clip0_161_2140)">
<path d="M136 1.75533C134.637 2.82948 134.401 3.72025 134.401 7.6763C134.401 10.2438 134.297 11.2656 134.061 11.4752C133.851 11.6586 131.179 11.7896 126.542 11.8419C118.341 11.9205 118.368 11.9205 117.424 14.1475C116.927 15.274 116.927 15.536 117.267 19.3873C117.451 21.6142 117.608 24.6795 117.634 26.199C117.634 27.7186 117.765 30.2861 117.896 31.8842C118.053 33.5086 118.263 37.386 118.42 40.5299C118.551 43.6738 118.787 48.18 118.918 50.5641C119.075 52.9482 119.363 58.5286 119.599 63.0087C120.621 83.4439 120.542 82.7889 121.616 83.7583C122.795 84.8063 123.581 84.9111 129.057 84.8325L134.27 84.7539V124.969V165.185L122.769 165.316C115.119 165.395 111.215 165.526 111.163 165.709C111.058 166.023 112.394 167.936 115.538 172.023C116.612 173.438 117.686 174.852 117.896 175.167C118.341 175.822 122.481 181.297 122.821 181.69C122.926 181.821 125.599 185.358 128.716 189.524C133.511 195.916 134.401 197.253 134.401 197.986C134.401 199.008 135.371 200.161 136.235 200.161C136.524 200.161 136.995 199.925 137.283 199.637C137.807 199.113 137.807 198.772 137.807 142.444C137.807 98.718 137.886 85.697 138.122 85.4613C138.567 85.0159 155.649 85.0159 156.094 85.4613C156.33 85.697 156.409 98.2726 156.409 140.427C156.409 193.061 156.435 195.13 156.88 195.523C157.142 195.785 157.745 195.969 158.19 195.969C159.448 195.969 159.815 195.026 159.815 191.725C159.815 190.231 159.919 188.895 160.024 188.712C160.234 188.371 159.422 188.397 196.048 187.69C207.811 187.454 217.636 187.323 217.819 187.402C218.029 187.48 218.396 187.952 218.605 188.423C218.841 188.921 220.308 191.305 221.854 193.742C224.657 198.17 224.683 198.196 225.705 198.274C226.832 198.379 227.408 197.908 227.408 196.86C227.408 196.336 226.255 194.266 223.871 190.598C222.535 188.528 222.063 187.611 222.194 187.48C222.404 187.271 228.377 187.035 228.849 187.218C229.19 187.349 229.242 188.109 229.242 192.275C229.242 197.934 229.347 198.327 231.076 198.327C231.836 198.327 232.176 198.196 232.386 197.829C232.543 197.515 232.648 195.314 232.648 192.484C232.648 188.895 232.726 187.585 232.988 187.376C233.408 187.009 262.751 186.301 298.669 185.751C306.66 185.62 318.109 185.384 324.083 185.227L334.955 184.913L337.968 183.603C340.929 182.293 342.317 181.664 346.483 179.752C347.635 179.228 349.496 178.389 350.596 177.891C352.247 177.158 352.613 176.87 352.64 176.398C352.64 175.953 352.378 175.691 351.67 175.376C350.413 174.879 346.509 173.464 345.304 173.123C344.806 172.966 344.282 172.756 344.125 172.652C343.994 172.547 343.575 172.39 343.208 172.311C342.841 172.232 341.898 171.918 341.112 171.63C338.492 170.582 334.746 169.246 331.287 168.067C330.292 167.726 328.798 167.202 328.012 166.888C325.628 165.971 324.58 165.604 322.249 164.792C321.017 164.373 319.026 163.639 317.795 163.168L315.568 162.303H307.708C303.385 162.303 294.897 162.434 288.845 162.591C282.793 162.775 273.125 162.958 267.362 163.037C261.598 163.115 250.804 163.299 243.389 163.456C235.975 163.613 220.596 163.927 209.2 164.137C197.829 164.347 182.215 164.661 174.538 164.818C166.888 164.975 160.417 165.054 160.208 164.949C159.867 164.818 159.815 160.05 159.815 124.655C159.815 102.569 159.919 84.3609 160.024 84.1775C160.234 83.8631 161.282 83.8107 188.764 83.0509C194.109 82.8937 202.178 82.658 206.711 82.5008C211.243 82.3698 219.496 82.134 225.05 82.003C230.604 81.872 236.211 81.6886 237.495 81.61C238.805 81.5314 244.621 81.348 250.463 81.217C258.952 81.0336 261.257 80.9288 261.991 80.6144C262.62 80.3524 267.44 75.6366 276.164 66.7551C283.448 59.367 289.867 52.8172 290.417 52.1885C291.255 51.2453 291.439 50.8261 291.543 49.6996C291.622 48.4944 291.543 48.2062 290.757 47.1321C290.286 46.4509 289.002 44.9313 287.928 43.7262C284.836 40.2941 283.605 38.9318 279.439 34.1635C277.291 31.727 275.405 29.6049 275.248 29.4739C275.09 29.3167 274.2 28.3212 273.256 27.247C272.313 26.1728 270.034 23.5791 268.148 21.457C266.287 19.3611 263.746 16.5054 262.515 15.1168C261.31 13.7283 259.947 12.4183 259.476 12.1825C258.742 11.8419 252.9 11.7896 209.54 11.7896C171.709 11.7896 160.365 11.711 160.129 11.4752C159.919 11.2656 159.815 10.0866 159.815 7.8335C159.815 3.98224 159.579 3.06528 158.295 1.88632L157.378 1.04794H147.134H136.89L136 1.75533ZM156.147 4.68962C156.487 5.34459 156.487 10.6368 156.147 11.2918C155.885 11.7634 155.492 11.7896 147.108 11.7896C138.724 11.7896 138.331 11.7634 138.069 11.2918C137.729 10.6368 137.729 5.76378 138.069 4.873L138.331 4.19183H147.082C155.492 4.19183 155.885 4.21803 156.147 4.68962ZM259.109 16.4268C259.764 17.108 261.1 18.6275 262.122 19.7803C263.117 20.933 265.004 23.0551 266.314 24.4961C267.597 25.9632 269.431 28.0068 270.374 29.0809C271.318 30.1551 272.68 31.7008 273.387 32.4868C274.121 33.2728 275.169 34.4517 275.745 35.1067C278.994 38.827 280.54 40.5823 283.788 44.1716C285.753 46.3723 287.561 48.4682 287.823 48.8612L288.268 49.5424L285.282 52.6077C282.059 55.9087 271.003 67.1743 264.873 73.3835C262.777 75.4794 260.838 77.2871 260.55 77.3657C260 77.5229 256.044 77.7063 247.712 77.9421C237.861 78.2041 215.042 78.8591 205.925 79.1211C200.816 79.2783 191.673 79.5141 185.621 79.6451C179.569 79.8023 174.46 79.9594 174.303 80.038C174.119 80.0904 170.163 80.2214 165.526 80.3C160.863 80.3786 154.418 80.562 151.169 80.7192C143.309 81.0598 124.76 81.479 124.341 81.3218C124.053 81.217 123.503 73.4883 123.031 63.2707C122.9 60.7032 122.481 53.5246 122.062 46.6343C121.931 44.2502 121.695 39.7177 121.564 36.5738C121.433 33.4038 121.25 30.3385 121.171 29.7621C120.961 28.0592 120.464 15.7456 120.595 15.536C120.673 15.4312 151.588 15.3002 189.341 15.2478L257.93 15.1692L259.109 16.4268Z" fill="#243252"/>
<path d="M266.077 135.318C265.711 135.868 265.658 136.969 265.658 143.178C265.658 151.43 265.763 151.954 267.335 151.954C268.985 151.954 269.064 151.614 269.064 143.309C269.064 135.03 268.985 134.663 267.361 134.663C266.732 134.663 266.392 134.846 266.077 135.318Z" fill="#243252"/>
<path d="M255.755 139.562C255.572 139.641 255.258 140.034 255.022 140.453C254.576 141.318 254.55 141.213 256.437 144.357C258.323 147.501 260.995 151.535 261.31 151.745C261.834 152.112 262.96 151.954 263.379 151.483C264.27 150.514 264.218 150.409 259.659 143.073C257.773 140.008 256.803 139.143 255.755 139.562Z" fill="#243252"/>
<path d="M277.055 144.252C270.296 149.78 270.139 149.963 271.003 151.299C271.868 152.609 272.628 152.269 277.16 148.549C279.466 146.662 281.404 144.959 281.483 144.723C281.928 143.544 281.221 142.523 279.911 142.523C279.361 142.523 278.549 143.021 277.055 144.252Z" fill="#243252"/>
<path d="M60.1271 146.584L59.4722 147.212V154.653C59.4722 161.779 59.4984 162.12 60.0223 162.801C60.6773 163.613 61.6205 163.692 62.3541 162.958C62.8518 162.46 62.878 162.094 62.878 154.836V147.212L62.2231 146.584C61.8825 146.217 61.4109 145.929 61.1751 145.929C60.9393 145.929 60.4677 146.217 60.1271 146.584Z" fill="#243252"/>
<path d="M49.2546 151.378C48.9402 151.64 48.6782 152.138 48.6782 152.505C48.6782 153.133 51.1147 157.325 53.8394 161.386C54.9398 163.037 55.2804 163.351 55.9616 163.43C56.8785 163.508 57.7169 162.775 57.6907 161.858C57.6907 161.517 57.1143 160.312 56.3807 159.159C55.6472 158.006 54.3896 155.989 53.5774 154.653C51.2457 150.88 50.5384 150.33 49.2546 151.378Z" fill="#243252"/>
<path d="M73.1478 154.077C72.8334 154.181 71.4187 155.256 70.0039 156.408C64.1616 161.281 63.9782 161.491 64.8427 162.801C65.5239 163.823 66.4671 163.692 68.1438 162.355C70.7375 160.338 74.5364 157.168 75.008 156.618C76.1869 155.256 74.8508 153.395 73.1478 154.077Z" fill="#243252"/>
<path d="M241.791 189.891C241.136 190.415 239.721 191.567 238.673 192.432C237.625 193.297 236.368 194.318 235.87 194.711C234.691 195.602 234.246 196.231 234.246 196.886C234.246 197.803 234.848 198.327 235.896 198.327C236.735 198.327 237.232 198.039 239.145 196.414C240.402 195.366 242.21 193.899 243.206 193.139C245.118 191.594 245.537 190.781 244.935 189.707C244.332 188.633 243.232 188.712 241.791 189.891Z" fill="#243252"/>
<path d="M45.0886 197.174C41.4732 197.567 37.1503 198.274 33.9278 198.982C32.9323 199.218 31.2817 199.584 30.2862 199.794C29.2906 200.004 28.3736 200.239 28.2427 200.318C28.1379 200.397 27.0113 200.737 25.7537 201.078C21.5881 202.204 19.6494 202.781 18.5228 203.2C17.9202 203.409 17.0819 203.698 16.6365 203.829C16.2173 203.933 15.1955 204.3 14.4096 204.615C13.6236 204.929 12.6804 205.27 12.3136 205.401C9.19595 206.448 4.87311 208.256 1.65062 209.776C0.445468 210.352 -0.130911 211.322 0.235876 212.107C0.39307 212.474 0.812255 212.867 1.17904 213.051C1.75542 213.313 2.227 213.182 4.79451 212.081C6.39265 211.4 8.14799 210.64 8.64577 210.457C9.14355 210.247 9.92952 209.933 10.3487 209.75C12.3136 208.911 22.6099 205.401 25.4132 204.615C33.9016 202.23 40.268 201.025 47.7347 200.397C51.9528 200.056 55.6992 200.213 56.2756 200.763C56.6424 201.156 56.4328 201.313 49.7783 205.846C45.9008 208.492 44.5385 210.274 44.5385 212.684C44.5385 214.177 45.5602 215.854 46.9226 216.535C49.7783 218.028 54.0225 218.631 58.6859 218.238C62.0394 217.95 67.0434 217.347 69.8205 216.928C71.2353 216.692 73.5408 216.404 82.3961 215.225C90.544 214.177 96.4911 213.548 101.652 213.234C103.748 213.129 107.233 212.893 109.381 212.762C114.49 212.396 136.942 212.396 142.654 212.736C152.583 213.339 154.836 213.496 157.98 213.784C162.749 214.203 172.678 215.304 176.817 215.88C178.704 216.142 179.359 215.933 179.726 214.937C180.249 213.601 179.123 212.605 176.975 212.396C176.11 212.317 172.809 211.95 169.639 211.61C164.111 210.981 160.522 210.64 148.811 209.671C140.872 209.016 111.425 209.016 103.748 209.671C88.448 210.981 78.964 212.055 68.7726 213.653C59.7339 215.068 53.6295 215.33 50.6952 214.439C48.9923 213.915 47.9443 213.155 47.9443 212.474C47.9443 211.505 49.7521 209.959 55.6468 205.898C59.7077 203.095 60.7819 201.733 60.4151 199.794C60.2055 198.72 59.3933 197.934 57.9 197.41C56.2232 196.807 49.5687 196.676 45.0886 197.174Z" fill="#FC766A"/>
</g>
<defs>
<clipPath id="clip0_161_2140">
<rect width="353.687" height="218.5" fill="white"/>
</clipPath>
</defs>
</svg>
