<svg width="337" height="241" viewBox="0 0 337 241" fill="none" xmlns="http://www.w3.org/2000/svg">
<path d="M34.5167 55.2744C31.4874 53.8416 28.0944 55.6957 26.8661 58.5448C23.1562 58.9225 19.7379 60.6818 16.4867 62.4375C14.5029 63.509 12.5226 64.5875 10.5371 65.6582C8.81093 66.587 6.80102 67.387 5.4457 68.8485C2.99099 71.4964 3.29913 75.2246 2.91091 78.5594C2.64757 80.18 2.08685 81.7379 1.25702 83.1546C0.243909 84.8879 -0.163695 86.9091 0.0984285 88.8997C0.459672 91.0758 1.72272 92.8725 2.65499 94.8058C3.23907 96.0175 3.36703 97.6513 2.17884 98.4957C1.80352 98.8388 1.57817 99.3157 1.55146 99.8235C1.52475 100.331 1.69882 100.829 2.03609 101.21C2.25662 101.466 2.54608 101.654 2.8701 101.751C3.19412 101.847 3.53909 101.849 3.86407 101.756C3.95265 101.953 4.08403 102.129 4.24871 102.27C4.41339 102.41 4.60728 102.513 4.81636 102.569C6.46104 103.1 8.20851 103.231 9.91381 102.951C10.6924 102.776 11.4204 102.424 12.0418 101.924C12.6633 101.423 13.1616 100.787 13.4984 100.063C13.5652 99.9214 13.6396 99.7831 13.7212 99.649C13.7311 99.6533 13.7407 99.6583 13.75 99.6638C14.4297 100.006 15.1452 100.273 15.8835 100.458C17.5531 101.05 19.3336 101.263 21.0958 101.082C21.4409 101.004 21.746 100.804 21.9542 100.517C22.1624 100.231 22.2595 99.8795 22.2274 99.5272C22.1935 99.177 22.0374 98.8499 21.7863 98.6033C21.5353 98.3567 21.2055 98.2064 20.8547 98.1788C19.3781 98.0105 17.9195 97.7107 16.4963 97.2831C14.9616 96.7225 13.4322 95.8399 11.8715 96.8888C11.3526 97.2669 10.9306 97.7623 10.6398 98.3346C10.4502 98.7745 10.1361 99.1494 9.73623 99.4132C8.73433 99.9859 7.44429 99.7274 6.34141 99.4645C7.29893 97.4476 6.93681 94.8145 6.27004 92.7358C5.71729 91.0166 4.50734 89.4768 4.31149 87.6514C4.13739 86.0158 5.20023 84.4376 5.83219 82.9962C7.16836 79.9556 6.60429 76.7288 7.30154 73.5829C7.46922 72.825 7.80597 72.1147 8.28665 71.5052C8.76732 70.8956 9.3795 70.4026 10.0775 70.0628C11.9603 68.9399 13.8683 67.8631 15.7668 66.775C19.771 64.4796 23.6402 62.1685 28.2354 61.3215C28.5433 61.2495 28.8198 61.0802 29.0241 60.8388C29.2284 60.5974 29.3495 60.2966 29.3696 59.981C29.528 57.8841 31.934 56.8204 33.7402 57.6047C35.2061 58.2401 35.9164 55.9351 34.5158 55.2744" fill="#243252"/>
<path d="M37.0766 53.8823C35.542 53.8823 35.407 56.2718 36.9521 56.2718C38.4972 56.2718 38.6191 53.8823 37.0766 53.8823Z" fill="#243252"/>
<path d="M76.6251 43.9697C74.4152 45.1219 72.0346 45.9119 69.5743 46.3096C67.3042 46.649 64.9347 46.5211 62.8204 47.5561C60.8906 48.504 59.4769 50.2092 57.5236 51.1676C55.9469 51.962 54.2 52.3592 52.4349 52.3245C52.4862 50.3772 51.9718 48.2638 49.9331 47.6344C48.4316 47.1713 47.0388 47.8807 45.7793 48.6398C45.3179 48.9157 44.8722 49.2143 44.4344 49.5216C44.2389 49.545 44.0527 49.6187 43.8941 49.7354C43.7355 49.8521 43.6097 50.0078 43.5291 50.1875C42.9403 50.6443 42.3763 51.1321 41.8395 51.649C40.5399 52.9051 42.4019 54.989 43.7215 53.7381C44.9567 52.5717 46.7951 50.8273 48.543 50.513C49.8487 50.2771 49.5562 52.4002 49.4004 53.1906C49.2814 53.5668 49.3135 53.9746 49.49 54.3275C49.6664 54.6804 49.9734 54.9508 50.3457 55.0812C52.6628 55.6073 55.0831 55.4454 57.3095 54.6155C59.7006 53.7451 61.3772 52.2061 63.3444 50.6793C65.3117 49.1525 68.0641 49.4093 70.3952 49.0315C73.0316 48.6117 75.5811 47.7609 77.9413 46.5132C78.265 46.3312 78.5054 46.0306 78.6118 45.6748C78.7182 45.319 78.6823 44.9357 78.5116 44.6059C78.3409 44.276 78.0488 44.0253 77.6969 43.9067C77.3449 43.788 76.9607 43.8106 76.6251 43.9697Z" fill="#243252"/>
<path d="M142.441 25.184C141.541 25.2824 141.19 24.8959 140.775 24.189C140.296 23.2434 139.47 22.5191 138.47 22.167C136.462 21.7081 134.353 22.0633 132.606 23.1549C130.858 24.1947 129.503 25.7833 128.752 27.6735C128.657 28.0522 128.492 28.4096 128.264 28.7268C127.895 28.9441 127.493 29.0993 127.074 29.1864C126.628 29.3396 126.217 29.5801 125.865 29.894C125.513 30.2078 125.227 30.5887 125.024 31.0144C124.175 32.925 125.26 34.8906 126.545 36.2964C126.835 36.6141 127.959 37.616 127.698 38.0739C127.445 38.5169 125.977 38.7215 125.522 38.9878C123.58 40.1142 123.247 42.3243 123.969 44.2977C124.35 45.1858 124.794 46.0452 125.299 46.869C125.336 46.9369 125.386 47.0336 125.446 47.1424C124.238 46.7414 122.937 46.7198 121.717 47.0806L118.929 45.1281C118.68 44.9321 118.37 44.8282 118.053 44.834C117.736 44.8397 117.431 44.9546 117.188 45.1595C116.424 44.0531 115.026 43.8094 113.766 43.5621C112.557 43.3241 111.329 43.1977 110.097 43.1844C109.109 43.173 108.131 43.3062 107.146 43.3141C106.919 43.3141 106.691 43.3141 106.465 43.294C106.354 43.2853 106.244 43.2723 106.134 43.2592H106.111L106.089 43.2505C105.985 43.2235 105.884 43.1957 105.783 43.1635C105.766 43.1565 105.676 43.1165 105.622 43.0956C105.568 43.0747 105.486 43.0085 105.473 42.9955C105.467 42.9926 105.461 42.9894 105.456 42.9859L105.376 42.8988C105.153 42.6636 104.868 42.4962 104.555 42.4158C104.241 42.3354 103.91 42.3453 103.602 42.4445C103.784 42.2179 103.888 41.9392 103.9 41.6491C103.913 41.359 103.832 41.0725 103.67 40.8315C103.481 40.5643 103.203 40.3732 102.886 40.2923C102.569 40.2114 102.233 40.2461 101.939 40.3902C99.6031 41.3938 97.9153 43.8851 97.1318 46.2223C96.6317 47.6374 96.3437 49.1187 96.2771 50.6181C96.2785 52.0538 96.364 53.4882 96.533 54.9139C95.6053 54.4069 94.7967 53.7074 94.1615 52.8623C93.5263 52.0172 93.0792 51.0461 92.85 50.014C92.78 49.7341 92.6308 49.4802 92.4205 49.2826C92.2101 49.0851 91.9473 48.9522 91.6635 48.8999C91.3796 48.8476 91.0867 48.878 90.8198 48.9876C90.5528 49.0972 90.3229 49.2813 90.1577 49.5179L89.5135 50.3187C88.6443 49.3643 87.9693 48.2496 87.5263 47.037C86.905 45.3308 86.7753 43.4844 87.152 41.708C87.2339 41.4432 87.2457 41.1617 87.186 40.8909C87.1264 40.6202 86.9975 40.3696 86.8119 40.1637C86.6262 39.9578 86.3903 39.8037 86.1272 39.7164C85.8641 39.6292 85.5828 39.6118 85.3109 39.6659C83.0035 40.1928 80.9692 41.5471 79.5928 43.4725C78.4612 45.0837 81.0038 46.7411 82.1424 45.1464C82.6074 44.4927 83.1995 43.9397 83.8834 43.5204C83.8385 45.5084 84.2535 47.4799 85.0959 49.2812C85.9382 51.0825 87.1852 52.6649 88.7397 53.905C89.0837 54.1241 89.4996 54.2003 89.899 54.1176C90.2983 54.0348 90.6497 53.7996 90.8784 53.462C90.9037 53.4271 90.9315 53.3958 90.9568 53.3601C91.9063 55.2304 93.5101 56.6864 95.4632 57.4513C95.6367 57.5101 95.8204 57.5326 96.003 57.5173C96.1855 57.5021 96.363 57.4494 96.5244 57.3626C96.6857 57.2758 96.8274 57.1567 96.9408 57.0128C97.0541 56.8689 97.1366 56.7032 97.1832 56.526C97.579 56.8485 98.0811 57.0112 98.5907 56.9821C99.046 56.9511 99.4741 56.7541 99.7937 56.4283C100.113 56.1026 100.302 55.6709 100.325 55.2151C100.232 53.8336 100.197 52.467 100.203 51.0847C100.164 49.8918 100.227 48.6978 100.393 47.5158C100.599 46.557 100.946 45.6339 101.422 44.7764C101.752 44.2186 102.169 43.7161 102.655 43.2871C102.509 43.5822 102.456 43.9143 102.501 44.2403C102.547 44.5663 102.689 44.8711 102.91 45.1151C103.748 45.954 104.861 46.4622 106.044 46.5461C106.526 46.586 107.011 46.586 107.493 46.5461C107.811 46.5243 108.128 46.4982 108.445 46.4695L108.787 46.4399C108.807 46.4399 108.961 46.4268 109.008 46.4216C110.077 46.3475 111.152 46.4121 112.205 46.614C112.787 46.7319 113.36 46.8892 113.921 47.0849C114.614 47.4556 115.403 47.6073 116.184 47.5202C116.385 47.4687 116.575 47.3769 116.74 47.2503C116.856 47.4529 117.014 47.6284 117.203 47.7648C117.957 48.3207 118.71 48.8772 119.461 49.4343C120.293 50.048 120.903 50.6608 122.001 50.4493C122.617 50.2662 123.268 50.2362 123.898 50.3618C124.528 50.4874 125.118 50.7648 125.616 51.17C125.929 51.5083 126.362 51.7111 126.822 51.735C127.282 51.7589 127.733 51.6021 128.08 51.298C129.559 49.7372 129.484 47.8118 128.689 45.9159C128.321 45.0376 126.426 42.777 127.399 41.957C128.033 41.4191 129.071 41.3294 129.769 40.815C130.17 40.5319 130.505 40.167 130.754 39.7444C131.003 39.3218 131.159 38.8512 131.212 38.3637C131.404 36.2903 129.854 35.0185 128.812 33.4595C128.612 33.1997 128.462 32.9044 128.371 32.589C128.389 32.5777 128.401 32.5725 128.424 32.5577C128.612 32.5078 128.799 32.4498 128.983 32.3836C129.883 32.1254 130.673 31.5777 131.23 30.8255C131.686 29.9984 132.084 29.1404 132.42 28.2576C132.845 27.4601 133.469 26.7856 134.23 26.2991C134.908 25.8506 135.685 25.5726 136.493 25.4887C137.602 25.3955 137.575 25.9578 138.105 26.7848C138.652 27.6918 139.52 28.3594 140.537 28.6547C141.554 28.9499 142.645 28.851 143.593 28.3777C145.409 27.4202 144.289 24.9829 142.44 25.1857" fill="#243252"/>
<path d="M166.18 24.0752C166.16 24.0752 166.138 24.0682 166.118 24.0665C165.898 24.0155 165.682 23.9459 165.474 23.8584C165.346 23.7873 165.223 23.7095 165.103 23.6251C165.009 23.5338 164.92 23.437 164.837 23.3353C164.787 23.2482 164.74 23.1612 164.698 23.0741C164.662 22.955 164.633 22.8338 164.611 22.7111C164.609 22.5657 164.617 22.4204 164.633 22.2759C164.667 22.1433 164.709 22.0133 164.761 21.8868C164.805 21.8137 164.843 21.7353 164.893 21.6657C165.109 21.3292 165.185 20.921 165.104 20.529C165.022 20.1371 164.79 19.7928 164.457 19.5705C164.203 19.4165 163.911 19.3358 163.614 19.3372C163.771 19.0361 163.813 18.6878 163.731 18.3581C163.65 18.0283 163.45 17.7397 163.171 17.5467C162.866 17.3554 162.5 17.2893 162.148 17.3621C161.796 17.435 161.485 17.6412 161.282 17.9375C159.791 19.829 157.19 20.5802 155.041 21.4255C152.154 22.5623 149.283 23.7452 146.406 24.9073C146.04 25.0981 145.764 25.4254 145.638 25.8184C145.512 26.2113 145.546 26.6381 145.733 27.006C145.929 27.3663 146.256 27.637 146.647 27.7614C147.038 27.8859 147.462 27.8544 147.83 27.6737C150.884 26.4063 153.946 25.1632 156.98 23.8567C158.686 23.1969 160.3 22.3192 161.782 21.2453C161.603 21.8149 161.542 22.415 161.602 23.009C161.663 23.603 161.844 24.1784 162.134 24.7002C162.525 25.391 163.097 25.9627 163.788 26.354C164.137 26.5504 164.514 26.6919 164.906 26.7736C165.399 26.8775 165.908 26.8876 166.405 26.8032C166.727 26.726 167.01 26.5363 167.204 26.2684C167.398 26.0005 167.489 25.6721 167.462 25.3425C167.435 25.013 167.291 24.7041 167.056 24.4716C166.82 24.2392 166.51 24.0986 166.18 24.0752Z" fill="#243252"/>
<path d="M280.26 52.9623C277.126 52.3268 274.341 54.6449 273.005 57.2911C272.657 57.9869 272.351 58.7032 272.089 59.4359C272.041 59.6717 271.962 59.9 271.854 60.1149C271.875 60.0897 272.15 60.0801 271.767 60.1384C271.674 60.1579 271.578 60.1629 271.484 60.1532C270.367 60.1462 269.025 60.2098 268.325 61.1107C268.268 60.9411 268.173 60.7864 268.049 60.6581C266.066 58.547 264.536 56.0536 263.55 53.3305C263.505 53.1453 263.419 52.9726 263.299 52.825C263.178 52.6775 263.026 52.5589 262.854 52.4779C262.681 52.397 262.493 52.3558 262.302 52.3574C262.112 52.3589 261.924 52.4032 261.753 52.487C260.805 53.0068 259.939 53.6642 259.184 54.4377C259.573 53.4754 259.745 52.4389 259.688 51.4024C259.67 51.1031 259.567 50.8151 259.392 50.572C259.512 50.4022 259.592 50.207 259.625 50.0015C259.658 49.796 259.643 49.5856 259.582 49.3867C259.52 49.1879 259.414 49.0058 259.271 48.8546C259.128 48.7035 258.952 48.5873 258.757 48.5151C255.971 47.3547 253.099 49.1244 250.748 50.4902C249.592 51.2975 248.286 51.8641 246.907 52.1562C245.301 52.3512 243.881 51.1117 242.266 51.58C240.41 52.1205 240.289 54.3124 239.32 55.6886C238.042 57.2519 236.562 58.6377 234.918 59.8094C231.401 62.6985 228.006 65.8704 224.229 68.4148C222.052 69.8807 219.283 71.1942 217.826 73.393L217.666 73.2485C217.438 73.0423 217.161 72.8989 216.861 72.8324C216.811 72.5938 216.697 72.3734 216.53 72.1952C213.45 68.9169 210.881 65.1938 208.909 61.1508C207.062 57.2032 206.761 52.5001 203.367 49.4508C200.651 47.0135 195.272 45.0036 194.961 40.7949C194.886 39.7651 195.475 38.9408 195.57 37.9441C195.656 37.1231 195.415 36.3014 194.901 35.6557C193.828 34.3378 191.941 33.9087 190.318 33.8399C188.286 33.7528 185.838 34.2507 184.109 32.858C183.305 32.2121 182.667 29.962 184.089 29.6312C184.348 29.5633 184.584 29.4292 184.775 29.2419C184.966 29.0547 185.105 28.8209 185.178 28.5636C185.251 28.3063 185.255 28.0344 185.191 27.7748C185.127 27.5152 184.996 27.2769 184.811 27.0833C184.942 26.9453 185.041 26.7812 185.103 26.6019C185.166 26.4226 185.189 26.2322 185.173 26.0431C185.146 25.7012 184.996 25.3806 184.751 25.1406C184.506 24.9006 184.182 24.7574 183.84 24.7374C181.973 24.7986 180.192 25.534 178.825 26.8074C178.554 27.0415 178.298 27.2915 178.056 27.556C178.255 27.0781 178.441 26.5985 178.597 26.0945C179.016 24.7345 179.309 23.3392 179.474 21.9258C179.641 20.5261 179.736 18.9871 178.567 17.9765C176.765 16.4201 173.54 17.0112 171.528 17.7885C169.386 18.622 167.601 20.1749 166.479 22.1809C166.268 22.5217 166.195 22.9306 166.276 23.3235C166.357 23.7164 166.585 24.0632 166.915 24.2926C167.253 24.5112 167.664 24.588 168.059 24.5066C168.454 24.4252 168.801 24.1921 169.026 23.8574C169.871 22.3444 171.241 21.1934 172.877 20.6219C173.71 20.3269 174.592 20.1991 175.474 20.2458C175.798 20.2466 176.121 20.2944 176.431 20.3877C176.431 20.4262 176.428 20.4646 176.422 20.5026C176.398 20.752 176.39 21.0025 176.397 21.2529C176.264 23.6036 175.681 25.9067 174.677 28.0365C174.091 29.0394 173.757 30.1698 173.704 31.3303C173.699 31.898 173.842 32.4572 174.119 32.9527C174.396 33.4482 174.798 33.8629 175.284 34.1559C175.564 34.331 175.897 34.401 176.224 34.3531C176.551 34.3053 176.85 34.1428 177.069 33.8947C177.272 33.6384 177.388 33.3235 177.398 32.9964C177.695 32.9947 177.984 32.8999 178.224 32.7255C178.465 32.5511 178.644 32.3058 178.738 32.0241C178.791 31.85 178.849 31.6759 178.912 31.5018C178.945 31.4148 178.982 31.3277 179.017 31.2459C179.045 31.1824 179.191 30.9926 179.05 31.1641C178.909 31.3356 179.083 31.1023 179.113 31.0457C179.144 30.9891 179.186 30.9108 179.225 30.8446C179.316 30.6844 179.413 30.5286 179.516 30.3754C179.62 30.2222 179.73 30.0742 179.843 29.9297C179.881 29.8819 179.919 29.8349 179.958 29.7879C179.967 29.7765 179.974 29.7713 179.987 29.7565C180.194 29.5342 180.413 29.324 180.644 29.1272C180.269 30.163 180.216 31.288 180.491 32.3547C180.766 33.4214 181.357 34.3802 182.186 35.1055C183.964 36.3738 186.124 36.9914 188.304 36.8543C189.112 36.8543 192.434 36.4852 192.579 37.7518C192.497 38.2489 192.362 38.7359 192.176 39.2046C192.074 39.7496 192.049 40.3065 192.103 40.8585C192.231 42.0385 192.627 43.1737 193.262 44.1767C194.514 46.0564 196.15 47.65 198.062 48.8528C199.883 50.108 201.956 51.3188 203.128 53.2643C204.385 55.3535 204.834 57.9875 205.706 60.2594C207.604 65.4307 210.629 70.1152 214.56 73.9736C214.597 74.0084 214.637 74.0319 214.674 74.0606C214.588 74.3236 214.587 74.6066 214.67 74.8703C214.753 75.134 214.916 75.3652 215.137 75.5317C215.957 76.242 216.77 76.9593 217.602 77.6574C217.848 77.8166 218.131 77.9086 218.424 77.9243C218.717 77.9399 219.008 77.8787 219.27 77.7467C219.532 77.6146 219.754 77.4164 219.916 77.1717C220.077 76.927 220.171 76.6443 220.19 76.3517C220.044 73.3416 224.078 72.0534 226.118 70.6719C229.392 68.2793 232.539 65.7172 235.546 62.9962C238.261 60.7042 241.493 58.4375 242.797 54.9879C242.891 54.7398 242.918 54.3524 243.196 54.2471C243.434 54.16 244.103 54.5283 244.339 54.6049C245.018 54.8417 245.733 54.9618 246.453 54.96C247.737 54.8845 248.991 54.5374 250.132 53.9416C252.317 52.897 254.658 50.753 257.208 50.982C257.181 51.077 257.17 51.1758 257.175 51.2745C257.356 53.764 255.686 55.7948 254.198 57.6123C254.08 57.7945 254.011 58.0046 254 58.2215C253.988 58.4385 254.033 58.6547 254.131 58.8485C254.23 59.0424 254.377 59.2071 254.558 59.3262C254.74 59.4453 254.95 59.5147 255.167 59.5273C256.798 59.4036 258.327 58.6839 259.463 57.5052C260.218 56.8089 260.942 56.0542 261.758 55.437C262.841 57.9656 264.353 60.2881 266.226 62.3024C266.331 62.4187 266.458 62.513 266.599 62.5799C266.741 62.6468 266.894 62.6849 267.05 62.692C267.207 62.6992 267.363 62.6752 267.51 62.6214C267.657 62.5677 267.792 62.4853 267.907 62.379C267.925 62.6234 268.015 62.857 268.165 63.0508C268.315 63.2445 268.518 63.3899 268.75 63.4688C269.06 63.5668 269.396 63.5442 269.689 63.4053C269.983 63.2665 270.214 63.0218 270.335 62.7202C270.508 62.6608 270.693 62.6488 270.873 62.6854C271.453 62.7428 272.039 62.6983 272.605 62.554C274.131 62.0665 274.402 60.4553 274.983 59.1591C275.416 58.0958 276.08 57.142 276.927 56.3667C277.318 56.0287 277.774 55.7725 278.266 55.6133C278.758 55.4541 279.277 55.395 279.792 55.4396C280.098 55.4542 280.399 55.3574 280.639 55.1671C280.879 54.9768 281.042 54.7059 281.098 54.4046C281.159 54.104 281.108 53.7914 280.954 53.526C280.8 53.2607 280.554 53.061 280.262 52.9649" fill="#243252"/>
<path d="M292.447 60.4457C291.619 58.8922 290.959 57.2553 290.476 55.5624C290.2 54.3777 290.1 52.9458 291.146 52.1206C292.512 51.0403 290.695 49.027 289.339 50.1116C286.53 52.3556 287.753 56.3868 288.93 59.147C289.218 59.8277 289.549 60.5249 289.883 61.2361C289.031 59.6775 288.033 58.203 286.903 56.8324C285.704 55.3814 284.23 53.9651 282.196 54.329C280.609 54.6136 281.152 57.0448 282.735 56.775C283.885 56.5783 285.112 58.6256 285.686 59.3864C286.624 60.651 287.442 62.0006 288.129 63.4175C289.439 66.2463 290.298 69.2623 290.676 72.3563C290.889 73.7639 293.295 73.6028 293.21 72.1483C293.203 72.0203 293.185 71.8924 293.176 71.7635C293.386 71.7189 293.58 71.6189 293.739 71.4738C293.897 71.3287 294.014 71.1438 294.077 70.9383C295.346 67.3224 293.999 63.7326 292.447 60.4457Z" fill="#243252"/>
<path d="M335.918 56.3562C335.801 56.047 335.578 55.7891 335.289 55.6281C335 55.4671 334.664 55.4133 334.339 55.4762C333.157 55.6583 331.987 55.9156 330.837 56.2466C329.629 56.5367 328.418 56.8124 327.204 57.0735C324.919 57.5645 322.618 57.995 320.303 58.3653C320.158 58.1315 319.941 57.9514 319.684 57.852C319.428 57.7525 319.146 57.7393 318.881 57.8143C314.268 58.8127 308.101 59.355 305.353 54.5657C304.799 53.6555 304.528 52.6012 304.575 51.5368C304.621 50.4724 304.983 49.4458 305.614 48.5873C307.172 46.2554 309.439 44.322 311.377 42.3113C311.617 42.0739 311.772 41.7651 311.821 41.4315C311.87 41.0978 311.809 40.7574 311.647 40.4615C311.84 40.2949 311.993 40.0861 312.093 39.8513C312.193 39.6165 312.238 39.3619 312.224 39.1071C312.192 38.7391 312.029 38.3948 311.766 38.1358C311.502 37.8767 311.155 37.7199 310.787 37.6934C307.305 37.307 303.584 38.7685 300.623 40.4789C297.544 42.3916 294.66 44.6031 292.014 47.0814C290.478 48.4341 292.595 50.7809 294.138 49.4413C296.553 47.1949 299.176 45.1837 301.973 43.435C303.31 42.6342 304.736 41.9921 306.221 41.5218C306.878 41.3295 307.547 41.18 308.223 41.0743C307.334 41.9959 306.446 42.9183 305.561 43.8416C304.391 44.9602 303.381 46.2346 302.558 47.6289C301.869 48.9071 301.524 50.3427 301.557 51.7946C301.59 53.2466 302 54.665 302.746 55.9106C306.092 61.6556 313.259 62.3416 319.117 60.6537C319.287 60.8907 319.521 61.0747 319.792 61.1842C320.062 61.2937 320.358 61.3244 320.645 61.2726C323.1 60.8931 325.543 60.4492 327.976 59.9408C330.464 59.5567 332.906 58.9215 335.266 58.045C335.561 57.8914 335.791 57.6354 335.911 57.325C336.031 57.0146 336.033 56.6711 335.918 56.3589" fill="#243252"/>
<path d="M36.2678 91.9454C35.9887 92.2596 35.6496 92.5149 35.2706 92.6963C34.8915 92.8778 34.48 92.9818 34.0603 93.0021C33.4242 92.9929 32.7898 93.0672 32.1731 93.2232C31.589 93.4256 31.0178 93.6633 30.4626 93.9353C28.2414 94.9427 26.1095 96.1366 24.0899 97.5042C23.7277 97.7048 23.4559 98.0364 23.3303 98.431C23.2047 98.8256 23.2348 99.2533 23.4145 99.6264C23.608 99.9952 23.939 100.273 24.3358 100.4C24.7326 100.527 25.1634 100.492 25.5349 100.304C27.639 98.8487 29.8182 97.5055 32.0634 96.2794C32.4965 96.0181 32.9807 95.853 33.4831 95.7954C34.0922 95.7897 34.7001 95.7411 35.3024 95.6501C36.5119 95.3974 37.5803 94.6949 38.2916 93.6846C38.4615 93.4108 38.528 93.0854 38.4791 92.7669C38.4302 92.4485 38.2691 92.158 38.0248 91.9479C37.7806 91.7378 37.4693 91.6219 37.1471 91.6211C36.8249 91.6203 36.513 91.7347 36.2678 91.9436" fill="#243252"/>
<path d="M50.7073 90.2289C50.9082 90.0236 51.0395 89.7603 51.0826 89.4763C51.1257 89.1924 51.0785 88.902 50.9476 88.6464C50.7727 88.3183 50.477 88.0713 50.1231 87.9575C49.7692 87.8438 49.3849 87.8723 49.0517 88.037C46.2385 89.4521 43.2193 90.4136 40.1059 90.8861C39.7134 90.9746 39.3716 91.2144 39.1549 91.5534C38.9381 91.8924 38.8638 92.3032 38.9482 92.6966C39.0296 93.0269 39.2199 93.32 39.4884 93.5288C39.7569 93.7376 40.0879 93.8498 40.428 93.8474C39.9057 94.2522 39.3834 94.6743 38.8812 95.1226C37.4414 96.4109 35.7475 97.9299 35.4115 99.9241C35.3237 100.431 35.3471 100.951 35.4801 101.448C35.6131 101.945 35.8526 102.407 36.1818 102.802C36.5039 103.214 36.9384 103.523 37.4328 103.693C37.9271 103.863 38.4602 103.886 38.9673 103.759C39.2952 103.68 39.5843 103.486 39.7831 103.214C39.982 102.941 40.0779 102.607 40.0537 102.27C40.0236 101.934 39.8746 101.619 39.6334 101.382C39.3921 101.146 39.0745 101.003 38.7375 100.98C38.6905 100.973 38.6723 100.973 38.6505 100.971C38.6405 100.966 38.6309 100.96 38.6218 100.953C38.6148 100.948 38.6218 100.953 38.6104 100.942C38.5634 100.898 38.3989 100.661 38.4938 100.81C38.3441 100.573 38.4572 100.842 38.4068 100.567C38.432 100.692 38.3685 100.672 38.4068 100.493C38.432 100.362 38.4699 100.234 38.5199 100.111C38.6551 99.8306 38.8263 99.5687 39.0291 99.3322C39.9572 98.2516 41.0027 97.2776 42.1463 96.4283C44.3917 94.6769 46.929 93.3361 49.641 92.4677C50.0445 92.367 50.394 92.1155 50.6178 91.765C50.8415 91.4145 50.9225 90.9915 50.844 90.5831C50.8142 90.4595 50.7683 90.3404 50.7073 90.2289Z" fill="#243252"/>
<path d="M54.58 102.921C53.3794 102.869 52.1767 102.891 50.9789 102.989C50.7961 102.989 50.6142 102.98 50.4366 102.967C51.8685 101.961 53.2612 100.905 54.6601 99.8639C54.8385 99.6998 54.9712 99.4922 55.0454 99.2614C55.1195 99.0306 55.1324 98.7845 55.083 98.5472C55.0335 98.3099 54.9233 98.0895 54.7631 97.9076C54.6029 97.7256 54.3983 97.5884 54.1691 97.5093C51.9303 96.8303 49.7141 95.7387 47.5022 97.1384C45.4967 98.4076 43.6304 99.9614 41.7223 101.373C41.4376 101.635 41.2669 101.998 41.2467 102.385C41.2265 102.771 41.3585 103.15 41.6144 103.441C41.8788 103.721 42.2413 103.889 42.6264 103.909C43.0116 103.93 43.3896 103.8 43.6818 103.549C45.3104 102.352 46.919 101.122 48.5703 99.9553C48.8112 99.7411 49.0959 99.582 49.4045 99.489C49.7131 99.3959 50.0382 99.3712 50.3574 99.4165C49.0926 100.268 47.8417 101.14 46.6457 102.077C46.3647 102.334 46.1961 102.692 46.1763 103.072C46.1564 103.453 46.2868 103.826 46.5395 104.112C47.381 104.933 48.4705 105.454 49.6384 105.592C48.2428 105.925 46.8915 106.421 45.6125 107.071C44.9068 107.468 44.2302 107.915 43.5878 108.407C43.2396 108.663 42.5075 109.311 42.0314 109.176C41.6222 109.061 41.1696 108.206 40.851 107.921C40.2969 107.411 39.5965 107.089 38.8489 106.999C37.2229 106.813 35.4637 107.47 33.896 107.818C32.4806 108.133 30.455 108.804 29.205 107.741C28.7913 107.349 28.5079 106.839 28.393 106.281C28.2782 105.722 28.3373 105.142 28.5626 104.618C28.6172 104.428 28.6309 104.228 28.6027 104.032C28.5745 103.836 28.5051 103.648 28.3991 103.481C28.2931 103.314 28.1529 103.171 27.9877 103.062C27.8225 102.953 27.636 102.88 27.4406 102.848C27.4767 102.732 27.4963 102.613 27.4989 102.492C27.5149 102.103 27.3781 101.724 27.1177 101.435C26.8573 101.147 26.4942 100.972 26.1062 100.948C25.3837 100.954 24.6847 101.206 24.1241 101.661C23.675 102.062 23.3251 102.561 23.1022 103.12C22.7273 104.101 22.586 105.155 22.6896 106.199C22.6992 106.46 22.7061 106.717 22.7009 106.975C22.7009 107.121 22.6913 107.267 22.6774 107.41C22.6611 107.503 22.6501 107.597 22.6443 107.691C22.6313 107.742 22.6173 107.793 22.6026 107.843C22.5956 107.864 22.5608 107.954 22.5329 108.025L22.4328 108.192C22.4015 108.221 22.3675 108.252 22.3344 108.279L22.2631 108.319C22.2317 108.335 22.1978 108.348 22.1647 108.364L22.1334 108.373C22.0167 108.393 21.8983 108.416 21.7852 108.439C21.7469 108.439 21.7068 108.439 21.6685 108.439C21.0151 108.359 20.3552 108.349 19.6995 108.407C19.4292 108.472 19.1836 108.614 18.9924 108.816C18.8013 109.018 18.6728 109.271 18.6227 109.544C18.5725 109.818 18.6028 110.1 18.7099 110.356C18.8171 110.613 18.9963 110.833 19.226 110.989C19.8927 111.349 20.6455 111.519 21.4022 111.48C22.1088 111.499 22.8115 111.368 23.4643 111.097C24.0989 110.785 24.6374 110.307 25.0229 109.714C25.4084 109.121 25.6266 108.435 25.6544 107.729C25.6722 107.533 25.6801 107.337 25.6779 107.141C25.9808 108.388 26.7153 109.488 27.7514 110.245C30.4872 112.218 34.3269 110.727 37.2838 110.172C38.0159 110.034 38.4833 109.894 38.996 110.475C39.3689 110.978 39.8082 111.428 40.3017 111.813C40.9081 112.175 41.6027 112.364 42.3092 112.357C43.0157 112.35 43.7066 112.149 44.3059 111.774C45.7604 111.008 46.9034 109.899 48.4702 109.303C49.286 108.98 50.1256 108.72 50.9815 108.526C51.3228 108.404 51.6903 108.374 52.0469 108.439C52.1001 108.428 52.1551 108.433 52.206 108.451C52.2568 108.47 52.3015 108.503 52.3351 108.545C52.351 108.583 52.3693 108.619 52.3899 108.655C51.6161 110.336 54.069 111.91 55.0544 110.222C55.4093 109.635 55.5623 108.949 55.49 108.268C55.4176 107.586 55.124 106.948 54.654 106.449C54.327 106.09 53.9253 105.806 53.4771 105.619C54.7236 105.64 56.0746 105.918 55.9884 107.241C55.981 107.548 56.0829 107.848 56.2759 108.086C56.4689 108.325 56.7404 108.488 57.042 108.545C57.3437 108.602 57.6558 108.55 57.9228 108.399C58.1898 108.247 58.3942 108.006 58.4997 107.717C59.2274 105.177 56.892 103.232 54.5826 102.921" fill="#243252"/>
<path d="M40.1298 115.647C37.9579 112.914 33.6491 113.698 31.2127 115.565C29.0792 117.198 28.0338 119.812 27.5097 122.426C27.3679 121.995 27.2622 121.554 27.1938 121.106C27.0319 119.839 27.1685 118.553 27.5924 117.348C28.0982 115.921 29.6816 114.295 28.2888 112.776C27.6242 112.193 26.7553 111.896 25.8724 111.951C24.9836 111.903 24.0932 111.9 23.2027 111.931C22.8097 111.92 22.4274 112.061 22.1352 112.324C21.843 112.587 21.6633 112.952 21.6332 113.344C21.6163 113.738 21.7549 114.123 22.0191 114.416C22.2834 114.709 22.6521 114.887 23.046 114.911C23.8494 114.878 24.6537 114.874 25.4572 114.906C24.8584 116.015 24.4522 117.218 24.2559 118.463C23.8285 121.086 24.3491 124.398 26.2728 126.349C26.4221 126.505 26.6061 126.624 26.8099 126.695C27.0137 126.767 27.2315 126.79 27.4457 126.761C27.6599 126.733 27.8644 126.655 28.0426 126.533C28.2209 126.411 28.3678 126.248 28.4716 126.059C28.5047 126.059 28.5378 126.072 28.5734 126.074C28.9614 126.088 29.3395 125.95 29.6277 125.69C29.9159 125.43 30.0917 125.068 30.1177 124.681C30.2284 123.381 30.5172 122.101 30.9759 120.88C31.3681 119.771 32.0415 118.783 32.9301 118.013C32.9615 117.986 33.1286 117.858 33.18 117.816C33.2313 117.775 33.4132 117.67 33.4498 117.648C33.7088 117.502 33.9772 117.372 34.2532 117.261C34.3133 117.241 34.4561 117.188 34.4883 117.179C34.6267 117.137 34.7677 117.101 34.9113 117.07C35.0549 117.038 35.196 117.011 35.3387 116.99C35.3587 116.99 35.5267 116.973 35.592 116.966C35.8463 116.955 36.101 116.96 36.3545 116.983C36.4198 116.99 36.5574 117.014 36.5904 117.017C36.6949 117.041 36.802 117.064 36.9047 117.096C37.1422 117.168 37.3748 117.255 37.6011 117.357C37.6359 117.382 37.8474 117.495 37.884 117.518C38.0241 117.605 38.1616 117.692 38.2983 117.789C38.5867 117.976 38.9329 118.051 39.2725 118.001C39.6121 117.951 39.9223 117.78 40.1454 117.52C40.366 117.258 40.4858 116.926 40.4834 116.584C40.481 116.241 40.3566 115.911 40.1324 115.652" fill="#243252"/>
<path d="M57.3768 129.657C57.2401 127.385 56.4449 125.202 55.0884 123.374C53.6099 121.502 51.5709 120.153 49.2702 119.524C46.7354 118.741 44.0596 118.469 41.6214 117.371C41.2641 117.254 40.8752 117.283 40.539 117.451C40.2029 117.619 39.9465 117.913 39.8256 118.269C39.7161 118.627 39.7483 119.012 39.9155 119.347C40.0827 119.681 40.3722 119.938 40.7239 120.065C44.5183 121.816 49.6149 121.433 52.4326 124.928C53.4545 126.245 54.063 127.835 54.1813 129.498C54.2392 130.292 54.1805 131.09 54.0072 131.867C53.7861 132.794 53.3396 133.608 53.0567 134.502C52.9624 134.813 52.9715 135.147 53.0827 135.452C53.1938 135.758 53.4011 136.02 53.6733 136.198C53.9456 136.376 54.2683 136.461 54.5931 136.441C54.9178 136.42 55.2272 136.295 55.4748 136.084C57.0739 134.517 57.517 131.801 57.3725 129.662" fill="#243252"/>
<path d="M48.9914 135.013C45.7653 134.872 42.5332 135.003 39.3292 135.404C37.694 135.645 36.0891 136.058 34.5416 136.639C33.0409 137.206 31.7822 138.14 30.3364 138.797C28.7983 139.494 26.73 138.891 25.0744 138.947C23.3455 139.008 21.626 139.231 19.9387 139.613C16.4269 140.405 13.0189 141.602 9.78294 143.179C8.32317 143.897 9.15533 146.463 10.7761 145.932C14.07 144.853 17.2054 143.407 20.6002 142.634C22.3102 142.22 24.0636 142.011 25.823 142.013C27.4926 142.038 29.1917 142.448 30.8273 141.951C32.2706 141.516 33.4788 140.52 34.8463 139.902C36.2335 139.298 37.691 138.869 39.1847 138.627C42.3738 138.169 45.6004 138.028 48.8173 138.206C50.8724 138.253 51.0474 135.051 48.9853 135.013" fill="#243252"/>
<path d="M47.2737 173.007C46.7958 169.211 46.0603 165.218 43.9398 161.958C41.7637 158.609 38.3689 156.706 34.9262 154.888C27.582 151.008 19.8949 147.119 11.4123 146.92C9.4302 146.873 9.26046 149.957 11.2512 150.004C19.0262 150.185 26.0962 153.71 32.8318 157.275C35.9733 158.939 39.4352 160.595 41.3737 163.726C43.2243 166.71 43.744 170.254 44.416 173.636C44.7868 175.508 47.5044 174.848 47.2737 173.007Z" fill="#243252"/>
<path d="M58.9487 183.145C58.8569 182.771 58.6251 182.447 58.301 182.24C57.977 182.032 57.5856 181.957 57.2077 182.03C53.987 182.364 50.5487 182.9 47.4272 181.754C47.1627 181.657 46.9038 181.545 46.6516 181.419C46.7317 181.387 46.8096 181.35 46.8849 181.307C47.6276 180.839 48.1657 180.107 48.3909 179.258C48.6162 178.41 48.5119 177.507 48.0992 176.732C48.0262 176.611 47.9385 176.498 47.838 176.398C47.9183 176.229 47.9545 176.042 47.9431 175.855C47.9318 175.668 47.8733 175.486 47.7732 175.328C47.673 175.17 47.5345 175.039 47.3703 174.948C47.2062 174.858 47.0218 174.81 46.8344 174.81C46.6483 174.812 46.465 174.856 46.2984 174.939C46.1318 175.022 45.9862 175.142 45.8726 175.289C45.759 175.437 45.6804 175.608 45.6427 175.79C45.605 175.973 45.6092 176.161 45.6549 176.341C45.3762 176.545 45.1862 176.847 45.1244 177.186C45.0625 177.526 45.1334 177.876 45.3224 178.164C45.3424 178.211 45.3666 178.256 45.3946 178.299C45.3694 178.409 45.3328 178.699 45.4016 178.445C45.392 178.484 45.3868 178.507 45.3798 178.532C45.3528 178.567 45.329 178.605 45.3085 178.644C45.3198 178.644 45.3172 178.649 45.3354 178.644C45.2858 178.669 45.2754 178.675 45.2484 178.687C45.1466 178.713 45.0473 178.737 44.9455 178.759C44.7844 178.797 44.6243 178.837 44.4658 178.887C43.9368 179.027 43.4682 179.337 43.1314 179.768C41.4854 182.053 44.5094 183.831 46.2773 184.536C49.9036 185.985 54.0854 185.553 57.8336 184.889C58.2099 184.801 58.5372 184.57 58.7456 184.245C58.9539 183.92 59.0268 183.526 58.9487 183.148" fill="#243252"/>
<path d="M45.3077 178.638C45.3947 178.477 45.2076 178.656 45.3077 178.638V178.638Z" fill="#243252"/>
<path d="M78.7149 174.762C78.1035 175.218 77.3794 175.499 76.6204 175.574C75.8615 175.649 75.0964 175.515 74.4078 175.187C73.7097 174.794 73.1365 174.212 72.7538 173.508C72.3711 172.804 72.1944 172.007 72.2438 171.207C72.3433 169.212 72.6752 167.236 73.2327 165.318C73.6644 163.67 74.1966 162.051 74.8265 160.468C74.8797 160.479 74.9335 160.485 74.9875 160.488C76.517 160.488 76.6536 158.117 75.126 158.102C75.1355 158.087 75.1425 158.072 75.1512 158.058C76.0217 156.711 74.1066 154.906 72.9507 156.167C69.736 159.685 68.5661 164.446 67.5938 168.975C67.1029 171.269 66.7016 173.613 65.9974 175.852C65.3367 177.958 63.957 180.577 61.4274 180.68C59.4523 180.76 59.2704 183.854 61.2664 183.773C66.8887 183.551 68.7158 178.166 69.7839 173.491C70.0891 174.523 70.6406 175.465 71.391 176.237C72.1413 177.009 73.068 177.586 74.0911 177.92C75.1143 178.254 76.2034 178.335 77.2645 178.154C78.3256 177.974 79.3271 177.539 80.1825 176.885C81.3541 176.015 79.9466 173.936 78.7149 174.761" fill="#243252"/>
<path d="M95.1175 177.878C94.0129 176.686 93.2566 175.213 92.9309 173.621C92.4382 171.706 92.1318 169.69 90.5145 168.356C89.7841 167.731 88.8417 167.412 87.8823 167.463C86.9229 167.514 86.0199 167.933 85.3604 168.632C83.7936 170.111 82.3582 171.743 80.8671 173.295C80.611 173.537 80.4579 173.868 80.4394 174.22C80.4209 174.572 80.5385 174.918 80.7679 175.185C81.0069 175.447 81.339 175.604 81.6927 175.622C82.0464 175.641 82.3932 175.52 82.6585 175.285C84.0234 173.865 85.3778 172.435 86.7462 171.017C87.1057 170.644 87.5714 170.035 88.1146 170.083C88.3787 170.137 88.6268 170.252 88.8392 170.418C89.0517 170.584 89.2228 170.797 89.3393 171.04C90.0879 172.418 90.1228 174.139 90.6059 175.623C91.0826 177.296 92.0417 178.791 93.3635 179.922C94.5465 180.904 96.2099 178.954 95.1175 177.878Z" fill="#243252"/>
<path d="M98.4136 183.622C98.4015 183.597 98.3797 183.555 98.3701 183.538C98.3729 183.548 98.3766 183.557 98.3814 183.565C98.3927 183.582 98.4032 183.604 98.4136 183.622Z" fill="#243252"/>
<path d="M101.003 184.891C100.883 184.717 100.723 184.575 100.537 184.476C100.35 184.377 100.143 184.324 99.932 184.322C99.736 184.139 99.5117 183.989 99.2678 183.879C99.0925 183.805 98.9111 183.747 98.7255 183.705C98.6219 183.679 98.5175 183.655 98.4156 183.618C98.3937 183.59 98.3742 183.561 98.3573 183.531C98.3573 183.524 98.3521 183.512 98.3503 183.504C98.3593 183.512 98.3667 183.522 98.3721 183.533C98.3573 183.513 98.346 183.486 98.3347 183.46C98.2946 183.326 98.2624 183.194 98.2346 183.059C98.1745 182.771 98.1301 182.479 98.0727 182.19C97.9472 181.394 97.6279 180.64 97.143 179.996C96.8827 179.711 96.5204 179.54 96.1349 179.521C95.7493 179.501 95.3715 179.634 95.0835 179.891C94.8055 180.155 94.6394 180.515 94.6197 180.897C94.5999 181.28 94.7279 181.655 94.9773 181.946C95.1157 182.12 94.999 181.986 94.9372 181.897C94.966 181.945 95.0008 182 95.0069 182.015C95.0269 182.052 95.0434 182.092 95.06 182.13C95.1253 182.356 95.1862 182.581 95.2341 182.814C95.3209 183.364 95.4501 183.907 95.6205 184.437C95.8327 185.124 96.2895 185.71 96.9045 186.083C97.1145 186.194 97.3361 186.281 97.5652 186.344C97.5809 186.527 97.6358 186.706 97.7262 186.866C97.9085 187.21 98.2185 187.47 98.5897 187.588C98.9608 187.707 99.3637 187.675 99.7117 187.5C99.8178 187.432 99.9195 187.357 100.016 187.277C100.018 187.281 100.02 187.284 100.023 187.286C100.291 187.107 100.548 186.914 100.795 186.709C101.044 186.482 101.201 186.173 101.239 185.839C101.277 185.505 101.193 185.168 101.003 184.891Z" fill="#243252"/>
<path d="M94.938 181.897C94.9223 181.866 94.9032 181.838 94.9067 181.833C94.9101 181.828 94.9162 181.866 94.938 181.897Z" fill="#243252"/>
<path d="M118.804 186.805H118.793C118.722 186.595 118.605 186.403 118.448 186.246C118.292 186.088 118.102 185.969 117.892 185.897C116.747 185.557 115.745 184.85 115.041 183.885C114.723 183.282 114.359 182.704 113.953 182.157C113.4 181.565 112.645 181.202 111.838 181.139C110.407 181.156 109.03 181.692 107.965 182.648C107.356 183.117 105.99 184.505 105.239 184.082C104.927 183.89 104.554 183.822 104.195 183.893C103.836 183.963 103.516 184.166 103.3 184.462C103.208 184.303 103.074 184.172 102.913 184.085C102.751 183.997 102.569 183.955 102.385 183.964C100.851 183.964 100.716 186.353 102.261 186.353C102.439 186.357 102.616 186.319 102.777 186.242C102.938 186.165 103.079 186.051 103.188 185.91C103.289 186.138 103.459 186.329 103.675 186.455C104.378 186.821 105.171 186.979 105.96 186.91C106.75 186.841 107.503 186.548 108.132 186.066C109.155 185.405 110.126 184.186 111.395 184.018C111.524 183.993 111.659 184.013 111.776 184.075C111.644 183.971 111.902 184.319 111.934 184.378C112.266 185.05 112.661 185.689 113.114 186.286C114.102 187.482 115.463 188.31 116.979 188.637C117.023 188.643 117.067 188.647 117.111 188.648C117.198 188.819 117.332 188.962 117.498 189.058C117.664 189.155 117.854 189.202 118.046 189.194C118.14 189.187 118.234 189.169 118.323 189.139C118.438 189.177 118.559 189.196 118.679 189.196C120.212 189.196 120.347 186.806 118.804 186.806" fill="#243252"/>
<path d="M177.407 217.612C177.394 217.584 177.377 217.558 177.356 217.535C177.369 217.557 177.383 217.575 177.394 217.595C177.398 217.602 177.402 217.607 177.407 217.612Z" fill="#243252"/>
<path d="M177.998 218.228C177.974 218.196 177.939 218.173 177.9 218.162L177.909 218.171C177.94 218.187 177.969 218.206 177.996 218.229" fill="#243252"/>
<path d="M184.832 219.297C184.635 219.012 184.342 218.807 184.005 218.722C183.669 218.637 183.314 218.676 183.004 218.833C182.855 218.91 182.703 218.98 182.547 219.043C182.5 219.06 182.453 219.078 182.406 219.096L182.375 219.109L182.297 219.126C182.137 219.173 181.975 219.213 181.813 219.241C181.637 219.255 181.463 219.281 181.29 219.319C181.221 219.319 181.15 219.324 181.081 219.324C180.913 219.324 180.746 219.317 180.58 219.304C180.422 219.264 180.261 219.243 180.098 219.241C180.016 219.221 179.935 219.201 179.855 219.179C179.547 219.088 179.245 218.979 178.95 218.853C178.954 218.857 178.958 218.862 178.961 218.867C178.952 218.859 178.941 218.851 178.93 218.846L178.91 218.837C178.763 218.777 178.77 218.771 178.817 218.784L178.696 218.724C178.552 218.637 178.41 218.55 178.273 218.456C178.237 218.43 178.099 218.309 177.997 218.228C178.027 218.266 178.024 218.286 177.924 218.184L177.908 218.169C177.898 218.164 177.883 218.153 177.876 218.153C177.885 218.153 177.893 218.16 177.902 218.161C177.85 218.112 177.798 218.061 177.749 218.008C177.627 217.882 177.517 217.747 177.407 217.61C177.413 217.62 177.422 217.636 177.417 217.639C177.411 217.623 177.403 217.608 177.393 217.594C177.293 217.469 177.32 217.489 177.359 217.535C177.315 217.466 177.267 217.389 177.262 217.382C177.027 216.99 176.651 216.703 176.21 216.58C176.431 216.431 176.591 216.209 176.661 215.952C176.73 215.716 176.745 215.467 176.705 215.224C176.665 214.981 176.571 214.751 176.43 214.549C176.207 214.221 175.884 213.973 175.51 213.842C175.203 213.738 174.879 213.696 174.556 213.718C174.233 213.74 173.918 213.826 173.628 213.97C173.05 214.276 172.607 214.787 172.386 215.403C171.889 214.333 171.247 213.335 170.479 212.439C169.494 211.306 167.917 210.36 167.327 208.936C166.58 207.127 168.178 205.28 169.293 204.03C170.19 203.025 171.736 201.506 170.496 200.139C169.451 198.981 167.574 199.734 166.55 200.542C165.342 201.643 164.437 203.035 163.919 204.586C163.874 204.695 163.753 204.909 163.65 205.115C163.603 205.058 163.563 205.011 163.556 204.996C162.844 204 162.144 202.994 161.436 201.991C161.304 201.772 161.108 201.6 160.874 201.498C160.64 201.395 160.38 201.368 160.13 201.42C160.18 201.079 160.111 200.732 159.936 200.436C159.761 200.139 159.49 199.912 159.168 199.791C158.292 199.431 157.353 199.253 156.406 199.269C156.002 199.257 155.598 199.254 155.195 199.221C155.035 199.208 154.877 199.179 154.719 199.161C154.714 199.161 154.709 199.161 154.704 199.161C154.611 199.139 154.521 199.114 154.43 199.086C154.355 199.062 154.282 199.038 154.208 199.011L154.183 199.001C154.073 198.921 153.957 198.85 153.835 198.789C153.804 198.751 153.757 198.691 153.713 198.645C153.699 198.624 153.687 198.603 153.677 198.581C153.665 198.559 153.64 198.494 153.62 198.446C153.611 198.413 153.604 198.383 153.6 198.37C153.577 198.269 153.562 198.17 153.547 198.068C153.546 198.061 153.546 198.054 153.547 198.047C153.547 197.96 153.547 197.873 153.547 197.785C153.565 197.377 153.607 196.97 153.673 196.567C153.683 196.373 153.655 196.178 153.591 195.995C153.526 195.811 153.425 195.643 153.295 195.498C153.165 195.354 153.008 195.236 152.832 195.152C152.656 195.069 152.466 195.02 152.272 195.01C152.134 195.015 151.997 195.038 151.864 195.078C153.326 193.473 155.155 192.305 156.583 190.662C157.74 189.332 156.107 187.347 154.699 188.573C152.961 189.903 151.324 191.361 149.803 192.935C148.748 194.392 147.612 195.789 146.401 197.12C142.81 200.494 138.769 195.79 136.123 193.426C135.898 193.221 135.625 193.077 135.329 193.007C135.336 192.675 135.218 192.352 134.998 192.103C134.407 191.457 134.164 190.4 133.553 189.66C132.631 188.545 131.241 188.481 129.907 188.391C127.831 188.246 125.766 187.967 123.726 187.556C123.576 187.498 123.418 187.464 123.257 187.454C122.822 187.363 122.377 187.273 121.939 187.171C121.53 187.074 121.1 187.136 120.735 187.345C120.378 187.257 120.03 187.137 119.694 186.987C119.676 186.978 119.656 186.969 119.636 186.958C119.265 186.728 118.82 186.646 118.391 186.728C117.978 186.823 117.616 187.072 117.38 187.424C117.261 187.607 117.179 187.81 117.14 188.024C117.1 188.238 117.103 188.458 117.148 188.671C117.238 189.087 117.488 189.45 117.845 189.682C118.762 190.185 119.766 190.512 120.804 190.644C121.317 190.694 121.834 190.685 122.345 190.615C122.669 190.577 122.988 190.506 123.297 190.404C125.118 190.763 126.952 191.039 128.8 191.231C129.413 191.294 130.028 191.339 130.641 191.399C130.809 191.403 130.975 191.433 131.134 191.486C131.243 191.531 131.337 191.604 131.406 191.699C131.629 192.001 131.827 192.321 131.997 192.657C132.249 193.131 132.577 193.561 132.967 193.93C133.159 194.101 133.386 194.229 133.632 194.304C133.606 194.494 133.625 194.687 133.688 194.867C133.75 195.048 133.854 195.211 133.991 195.345C137.383 198.38 142.084 203.419 147.018 200.328C148.468 199.303 149.716 198.02 150.701 196.542C150.509 197.456 150.534 198.403 150.773 199.305C150.943 199.833 151.22 200.319 151.588 200.733C151.955 201.148 152.405 201.481 152.908 201.713C153.773 202.109 154.711 202.322 155.663 202.337C156.129 202.355 156.595 202.359 157.061 202.377C157.291 202.387 157.521 202.406 157.749 202.437C157.797 202.444 157.845 202.45 157.891 202.459C158.012 202.49 158.131 202.519 158.249 202.557C158.452 202.619 158.665 202.636 158.875 202.607C158.788 202.855 158.763 203.12 158.801 203.38C158.84 203.64 158.941 203.886 159.096 204.098C160.253 205.724 162.192 209.475 164.485 208.637C164.497 208.804 164.518 208.97 164.549 209.135C165.076 211.997 168.153 213.445 169.432 215.936C170.803 218.614 170.945 221.6 170.79 224.542C170.646 227.268 170.509 230.461 172.618 232.545C173.73 233.643 175.94 232.379 175.005 230.891C173.83 229.026 173.818 226.98 173.89 224.9C174.098 224.795 174.272 224.634 174.393 224.435C174.514 224.235 174.576 224.006 174.572 223.773C174.48 222.238 174.515 220.698 174.677 219.168C175.654 220.674 177.171 221.749 178.916 222.172C179.904 222.408 180.929 222.455 181.935 222.309C182.909 222.146 183.832 221.754 184.627 221.167C184.885 220.935 185.048 220.616 185.087 220.271C185.126 219.926 185.037 219.579 184.837 219.295" fill="#243252"/>
<path d="M178.95 218.853C178.91 218.823 178.865 218.8 178.816 218.785C178.862 218.809 178.903 218.829 178.93 218.847C178.936 218.848 178.943 218.851 178.95 218.853Z" fill="#243252"/>
<path d="M231.191 226.655C229.529 227.439 227.71 227.024 225.939 227.063C224.279 227.135 222.664 227.619 221.238 228.472C219.585 229.324 218.57 228.199 217.053 227.576C216.319 227.294 215.53 227.182 214.745 227.249C213.961 227.316 213.203 227.56 212.527 227.964C211.134 228.717 209.873 229.975 208.238 230.161C207.496 230.242 206.746 230.137 206.054 229.856C205.363 229.575 204.752 229.127 204.277 228.551C203.046 227.029 202.432 225.226 201.307 223.806C203.701 224.996 206.376 225.508 209.041 225.286C211.125 225.111 213.091 224.246 214.628 222.828C216.261 221.204 216.449 219.116 215.835 216.977C215.261 214.8 214.296 212.744 212.987 210.911C211.586 209.066 209.574 208.872 207.442 209.336C205.22 209.83 203.09 210.674 201.132 211.836C199.294 212.921 197.779 214.154 195.561 213.664C194.596 213.342 193.544 213.407 192.626 213.845C191.778 214.356 191.683 215.586 190.767 215.812C189.836 216.04 188.823 215.787 187.873 216.005C187.388 216.092 186.928 216.286 186.526 216.572C186.125 216.858 185.792 217.229 185.551 217.659C184.741 219.247 187.059 220.801 187.893 219.197C188.241 218.523 189.163 218.693 189.815 218.695C190.732 218.754 191.65 218.596 192.494 218.233C192.896 218.031 193.25 217.744 193.531 217.392C193.642 217.249 194 216.375 194.045 216.353C194.317 216.225 195.034 216.521 195.305 216.578C195.785 216.691 196.277 216.751 196.771 216.757C198.921 216.735 200.678 215.429 202.442 214.374C204.348 213.198 206.473 212.423 208.687 212.095C209.139 212.003 209.609 212.064 210.022 212.269C210.436 212.474 210.769 212.811 210.969 213.227C211.618 214.19 212.157 215.223 212.578 216.305C212.969 217.274 213.544 218.707 213.206 219.759C212.778 220.657 212.016 221.353 211.084 221.699C209.104 222.592 206.862 222.718 204.794 222.051C202.553 221.378 200.912 219.947 199.013 218.665C197.65 217.749 195.924 219.672 197.114 220.877C197.463 221.224 197.83 221.553 198.214 221.862C197.889 221.942 197.598 222.122 197.381 222.377C197.164 222.632 197.033 222.948 197.006 223.281C196.978 223.615 197.057 223.948 197.229 224.235C197.402 224.522 197.66 224.747 197.967 224.879C199.239 225.411 199.829 226.934 200.426 228.067C201.084 229.52 202.071 230.801 203.307 231.81C204.707 232.805 206.412 233.276 208.124 233.141C210.011 233.001 211.384 232.086 212.912 231.062C213.535 230.553 214.274 230.204 215.063 230.044C215.844 230.083 216.597 230.349 217.229 230.809C217.93 231.265 218.733 231.54 219.566 231.61C220.399 231.681 221.236 231.544 222.004 231.212C222.797 230.752 223.621 230.347 224.47 230C225.354 229.811 226.263 229.775 227.159 229.892C228.96 230.006 230.874 230.137 232.439 229.067C232.744 228.894 232.971 228.609 233.07 228.272C233.17 227.936 233.136 227.573 232.975 227.262C232.813 226.95 232.538 226.712 232.205 226.599C231.873 226.486 231.509 226.506 231.191 226.655Z" fill="#243252"/>
<path d="M249.938 236.225C249.035 235.374 247.901 234.809 246.677 234.603C245.454 234.396 244.197 234.557 243.065 235.065C242.053 235.496 241.168 236.18 240.496 237.052C240.454 236.665 240.414 236.276 240.373 235.889C240.295 235.15 240.217 234.411 240.14 233.672H240.181C240.311 233.672 240.443 233.672 240.569 233.672C240.924 233.67 241.278 233.648 241.631 233.606C242.376 233.523 243.093 233.272 243.728 232.872C246.102 231.31 245.95 228.125 244.297 226.089C242.067 223.343 238.079 224.079 235.274 225.349C234.914 225.541 234.644 225.866 234.52 226.254C234.396 226.643 234.428 227.064 234.61 227.429C234.803 227.787 235.128 228.057 235.516 228.181C235.904 228.305 236.325 228.273 236.69 228.093C237.769 227.553 238.966 227.29 240.172 227.328C240.626 227.353 241.065 227.499 241.444 227.751C241.675 227.938 241.866 228.169 242.008 228.43C241.999 228.414 242.095 228.615 242.128 228.685C242.148 228.74 242.17 228.807 242.175 228.825C242.204 228.948 242.228 229.072 242.253 229.196C242.252 229.202 242.252 229.207 242.253 229.213C242.246 229.342 242.182 229.697 242.226 229.574C242.208 229.636 242.188 229.696 242.168 229.757C242.272 229.432 242.148 229.78 242.09 229.87C242.242 229.636 241.957 229.973 241.912 229.999C241.726 230.115 241.515 230.186 241.297 230.205C240.82 230.296 240.288 230.27 239.667 230.347C238.99 230.372 238.341 230.627 237.829 231.07C237.316 231.514 236.97 232.118 236.848 232.785C236.818 233.557 236.877 234.331 237.022 235.09L237.271 237.342C237.446 238.897 237.754 240.773 239.697 240.941C241.384 241.089 242.221 239.865 243.105 238.678C243.352 238.374 243.658 238.124 244.004 237.941C244.41 237.744 244.85 237.624 245.3 237.588C245.347 237.588 245.483 237.593 245.517 237.595C245.678 237.61 245.84 237.615 246.003 237.637L246.04 237.642C246.049 237.642 246.055 237.642 246.068 237.649C246.225 237.687 246.378 237.736 246.532 237.788C246.55 237.795 246.658 237.835 246.718 237.855C246.78 237.892 246.979 237.997 247.019 238.03C247.106 238.086 247.193 238.152 247.28 238.212L247.463 238.347L247.525 238.406C247.819 238.716 248.221 238.902 248.648 238.924C249.075 238.947 249.494 238.804 249.818 238.526C250.135 238.235 250.324 237.832 250.347 237.403C250.369 236.975 250.223 236.554 249.939 236.232" fill="#243252"/>
<path fill-rule="evenodd" clip-rule="evenodd" d="M140.716 37.7952C137.223 34.7371 126 24.2762 126 16.1129C126 6.44517 132.296 0 141.741 0C151.185 0 157.481 8.05646 157.481 16.1129C157.481 22.9485 146.15 34.4239 142.716 37.7448C142.155 38.2866 141.301 38.3079 140.716 37.7952ZM146.988 13.9645C146.988 16.9308 144.639 19.3355 141.741 19.3355C138.843 19.3355 136.494 16.9308 136.494 13.9645C136.494 10.9983 138.843 8.59356 141.741 8.59356C144.639 8.59356 146.988 10.9983 146.988 13.9645Z" fill="#FC766A"/>
<path fill-rule="evenodd" clip-rule="evenodd" d="M319.716 137.795C316.223 134.737 305 124.276 305 116.113C305 106.445 311.296 100 320.741 100C330.185 100 336.481 108.056 336.481 116.113C336.481 122.948 325.15 134.424 321.716 137.745C321.155 138.287 320.301 138.308 319.716 137.795ZM325.988 113.965C325.988 116.931 323.639 119.336 320.741 119.336C317.843 119.336 315.494 116.931 315.494 113.965C315.494 110.998 317.843 108.594 320.741 108.594C323.639 108.594 325.988 110.998 325.988 113.965Z" fill="#FC766A"/>
</svg>
