<svg width="374" height="205" viewBox="0 0 374 205" fill="none" xmlns="http://www.w3.org/2000/svg">
<g clip-path="url(#clip0_207_7066)">
<path d="M271.58 0.605911C271.607 0.827545 270.887 1.04918 269.557 1.2708C265.54 1.90799 263.158 3.12695 260.526 5.86961C258.226 8.25214 256.897 11.0502 256.287 14.7071C255.65 18.4748 256.065 21.0789 257.894 24.6804C258.503 25.8994 258.947 27.063 258.864 27.2846C258.78 27.5062 258.309 27.7555 257.839 27.8387C257.34 27.9495 256.453 28.1711 255.844 28.3927C255.234 28.5867 253.988 28.9745 253.073 29.2238C252.159 29.5009 250.913 29.8887 250.303 30.0549C249.694 30.2489 248.447 30.6367 247.533 30.8861C246.618 31.1631 245.372 31.5509 244.762 31.7172C244.153 31.9111 242.906 32.299 241.992 32.5483C241.078 32.8253 239.831 33.1855 239.222 33.3794C238.612 33.5733 237.365 33.9335 236.451 34.2105C235.537 34.4875 234.29 34.8754 233.681 35.0416C231.631 35.6788 229.802 36.2329 228.14 36.7038C227.226 36.9809 225.952 37.3687 225.342 37.5904C224.068 38.0059 224.428 38.1167 218.167 35.845C216.643 35.3186 215.036 34.7646 214.565 34.6261C214.122 34.4875 213.18 34.1828 212.488 33.9058C210.05 32.9915 205.949 31.5509 205.146 31.3016C204.703 31.1908 203.622 30.8029 202.791 30.4705C201.96 30.1381 200.907 29.7779 200.436 29.6394C199.993 29.5009 198.913 29.1407 198.082 28.8083C197.251 28.4758 196.198 28.088 195.727 27.9772C194.896 27.7278 192.679 26.9521 187.416 25.0683C185.892 24.5142 184.257 23.9601 183.814 23.8493C183.343 23.7385 182.678 23.4615 182.318 23.2675C181.653 22.9351 180.739 23.1013 177.581 24.2372C177.055 24.4311 175.863 24.819 174.949 25.0683C174.035 25.3453 172.844 25.7055 172.317 25.8994C171.791 26.0933 170.655 26.4535 169.824 26.7028C168.993 26.9244 167.192 27.5062 165.807 27.9218C164.449 28.365 162.011 29.1407 160.405 29.6394C158.798 30.1381 156.997 30.6921 156.388 30.8861C155.778 31.08 153.977 31.6618 152.371 32.1327C150.764 32.6314 149.018 33.1855 148.492 33.3794C147.966 33.5733 146.774 33.9335 145.86 34.2105C142.286 35.2632 141.4 35.5403 140.458 35.8727C139.932 36.0667 138.269 36.6207 136.746 37.0917L134.031 37.9782L132.313 37.3687C131.399 37.0363 129.432 36.3437 127.991 35.8173C126.551 35.291 124.999 34.7646 124.528 34.6261C124.085 34.4875 123.005 34.1274 122.173 33.8227C116.716 31.8557 113.336 30.6644 112.616 30.4705C112.172 30.332 111.231 30.0273 110.538 29.7502C108.211 28.8637 104.028 27.3954 103.196 27.1461C102.753 27.0075 101.119 26.4535 99.595 25.8994C98.0713 25.3453 95.9658 24.5973 94.8853 24.2372C93.8326 23.877 92.5859 23.4338 92.115 23.2398C91.367 22.9628 91.0622 23.0182 89.4277 23.7939C88.375 24.2649 86.7404 25.0129 85.7431 25.4838C84.7458 25.9271 83.7762 26.315 83.5822 26.315C83.3883 26.315 83.1113 26.4258 82.945 26.5643C82.8065 26.7028 79.2604 28.2819 75.0772 30.0549C70.9216 31.8557 67.2924 33.4071 67.0431 33.5179C66.8215 33.6287 66.1566 33.9335 65.5748 34.1828C65.0207 34.4321 64.0788 34.82 63.497 35.0693C62.943 35.3186 62.2781 35.6234 62.0287 35.7342C61.8071 35.845 58.6212 37.2302 54.992 38.7816C47.789 41.8844 47.9276 41.8013 46.5978 42.4662C46.0714 42.7155 45.4896 42.9372 45.2957 42.9372C44.797 42.9372 43.772 44.267 43.772 44.9041C43.772 45.1812 43.6058 45.8184 43.3841 46.317C43.1625 46.8157 42.4145 49.0874 41.6942 51.3868C40.9739 53.6585 40.2259 55.9856 40.032 56.512C39.8381 57.0384 39.4225 58.285 39.0901 59.2824C38.5083 61.1939 38.0927 62.4129 37.5387 63.992C37.3447 64.5184 36.9569 65.7096 36.7076 66.6238C36.4305 67.5381 36.0704 68.7293 35.8764 69.2557C35.6825 69.7821 35.3778 70.6686 35.2116 71.1949C35.0176 71.7213 34.7683 72.5247 34.6298 72.9957C34.4913 73.4389 34.2419 74.2701 34.048 74.7964C33.8818 75.3228 33.577 76.2093 33.3831 76.7357C33.1892 77.2621 32.2473 80.1432 31.3053 83.1075C28.341 92.3052 26.3464 98.4554 26.0139 99.3142C25.8477 99.7575 25.6261 100.505 25.4876 100.976C25.3767 101.42 25.1551 102.112 24.9889 102.5C24.8504 102.888 23.9362 105.631 22.9942 108.595C22.0523 111.559 21.1104 114.413 20.8887 114.911C20.6671 115.41 20.5009 115.992 20.5009 116.213C20.5009 116.435 20.3347 117.017 20.113 117.516C19.8914 118.014 19.3096 119.732 18.8387 121.339C18.34 122.945 17.7859 124.691 17.592 125.217C17.3981 125.744 17.0933 126.63 16.9271 127.156C16.7332 127.683 16.4839 128.486 16.3453 128.957C16.2068 129.4 15.9575 130.232 15.7636 130.758C15.5973 131.284 15.2926 132.171 15.0987 132.697C14.9047 133.224 13.9905 136.105 13.0209 139.069C12.079 142.033 11.137 144.915 10.9431 145.441C10.7492 145.967 9.80726 148.848 8.83763 151.813C6.51052 159.099 5.31926 162.756 5.01452 163.504C4.876 163.864 4.37734 165.443 3.87867 167.05C3.38 168.657 2.82593 170.402 2.632 170.928C1.884 173.061 1.60697 173.865 1.38534 174.668C1.16371 175.499 0.692745 176.829 0.221782 178.104C-0.304588 179.516 0.304893 179.516 6.42741 177.965C7.31393 177.743 8.39437 177.577 8.86534 177.577C9.61334 177.577 9.69645 177.66 9.69645 178.464C9.69645 178.935 9.53023 180.043 9.3086 180.874C9.08697 181.733 8.72682 183.367 8.47748 184.503C8.25586 185.639 7.868 187.44 7.64637 188.52C7.42474 189.573 7.14771 190.93 7.0646 191.484C6.81526 192.98 6.98149 192.98 13.0209 191.291C13.7135 191.097 15.071 190.736 16.0683 190.487C17.0656 190.21 18.5062 189.85 19.2542 189.628C20.0299 189.434 21.4428 189.047 22.4402 188.797C23.4375 188.52 24.795 188.16 25.4876 187.966C26.1802 187.772 27.5376 187.412 28.535 187.135C29.5323 186.858 30.8898 186.498 31.5824 186.304C32.275 186.11 33.6324 185.75 34.6298 185.473C36.7076 184.946 38.5083 184.448 40.8631 183.811C42.8024 183.256 44.6031 182.785 47.0964 182.121C49.8668 181.4 51.8338 180.874 53.1359 180.458C54.1332 180.154 54.521 180.154 55.3521 180.458C56.3218 180.791 57.2083 181.068 60.9483 182.148C64.0511 183.035 65.2978 183.423 67.8742 184.226C69.3148 184.669 71.1987 185.251 72.0298 185.5C73.7197 185.971 74.717 186.276 78.9557 187.523C80.5625 188.021 82.5572 188.603 83.3883 188.853C84.2194 189.102 85.4107 189.462 86.0201 189.628C86.6296 189.822 87.8763 190.21 88.7905 190.459C89.7047 190.736 90.9514 191.097 91.5609 191.291C92.1704 191.484 93.417 191.845 94.3313 192.122C95.2455 192.399 96.4921 192.787 97.1016 192.953C97.7111 193.147 98.9578 193.535 99.872 193.784C100.786 194.061 102.033 194.421 102.642 194.615C103.252 194.781 104.499 195.169 105.413 195.446C106.327 195.695 107.574 196.083 108.183 196.277C108.793 196.443 110.039 196.831 110.953 197.108C111.868 197.358 113.004 197.718 113.447 197.856C116.245 198.743 117.076 198.854 119.265 198.632C122.478 198.272 127.936 197.773 131.593 197.524C133.338 197.385 136.081 197.164 137.688 196.997C139.294 196.831 142.84 196.527 145.583 196.277C148.326 196.056 152.26 195.668 154.31 195.446C156.36 195.197 158.604 195.031 159.296 195.031C159.989 195.031 162.288 194.864 164.422 194.643C178.661 193.147 182.734 192.98 185.753 193.701C186.834 193.95 188.69 194.366 189.909 194.615C191.128 194.864 192.873 195.252 193.788 195.446C195.921 195.889 199.19 196.582 201.766 197.108C204.453 197.635 207.833 198.327 209.856 198.771C212.488 199.352 217.059 200.294 221.63 201.236C227.78 202.483 234.789 203.951 237.088 204.477C237.726 204.616 238.557 204.727 238.945 204.727C239.693 204.727 243.82 203.646 246.148 202.815C248.225 202.067 252.242 200.848 252.547 200.848C252.769 200.848 253.323 200.682 253.821 200.46C254.32 200.239 255.484 199.851 256.398 199.574C257.312 199.297 259.113 198.743 260.415 198.355C261.717 197.939 263.518 197.385 264.432 197.108C265.346 196.831 266.537 196.471 267.064 196.277C267.59 196.083 268.781 195.723 269.696 195.446C273.186 194.393 274.156 194.116 275.098 193.784C275.624 193.59 276.76 193.23 277.591 192.98C278.422 192.759 280.306 192.177 281.747 191.706C283.187 191.235 285.016 190.681 285.764 190.459C286.54 190.238 288.34 189.656 289.781 189.213C291.221 188.742 293.105 188.16 293.936 187.938C294.768 187.689 295.903 187.329 296.43 187.135C300.724 185.611 301.943 185.5 304.741 186.248C306.32 186.692 307.539 186.996 311.334 187.938C314.659 188.769 316.57 189.268 317.928 189.656C318.704 189.878 319.562 190.044 319.839 190.044C320.116 190.044 320.975 190.21 321.751 190.432C322.527 190.653 323.94 191.041 324.909 191.263C328.123 192.094 329.951 192.537 331.558 192.925C332.417 193.147 333.885 193.507 334.799 193.756C337.625 194.476 342.196 195.612 343.803 196C344.634 196.194 346.213 196.582 347.266 196.831C348.346 197.081 349.732 197.413 350.397 197.552C351.061 197.69 351.699 197.856 351.837 197.939C351.976 198.023 352.724 198.216 353.527 198.355C355.272 198.687 355.522 198.466 355.023 196.997C354.829 196.443 354.469 195.308 354.22 194.476C353.97 193.645 353.416 191.706 352.945 190.155C352.059 187.19 351.976 186.553 352.336 186.332C352.557 186.193 352.918 186.276 356.131 187.135C356.907 187.357 358.32 187.717 359.317 187.966C360.314 188.215 361.755 188.576 362.503 188.797C364.055 189.213 366.742 189.905 369.013 190.459C369.845 190.653 371.064 190.958 371.673 191.124C373.252 191.54 374 191.512 374 191.013C374 190.792 373.834 190.598 373.612 190.598C373.391 190.598 372.892 189.601 372.393 188.16C371.341 185.14 370.316 182.315 369.568 180.348C369.235 179.516 368.875 178.519 368.736 178.131C368.598 177.743 368.238 176.746 367.905 175.915C367.573 175.084 367.019 173.505 366.659 172.452C366.298 171.372 365.717 169.82 365.412 168.989C365.08 168.158 364.719 167.161 364.581 166.773C364.442 166.385 364.082 165.388 363.75 164.556C363.417 163.725 363.057 162.728 362.919 162.34C362.78 161.952 362.281 160.595 361.81 159.293C361.312 157.991 360.564 155.941 360.148 154.722C359.705 153.503 359.068 151.813 358.763 150.982C358.431 150.151 358.07 149.153 357.932 148.765C357.793 148.377 357.433 147.38 357.101 146.549C356.131 144.028 355.716 142.892 355.023 140.87C354.663 139.789 354.081 138.238 353.776 137.407C353.444 136.576 353.084 135.578 352.945 135.191C352.807 134.803 352.447 133.805 352.114 132.974C351.782 132.143 351.422 131.146 351.283 130.758C351.145 130.37 350.646 129.013 350.175 127.711C349.676 126.408 349.122 124.857 348.928 124.248C348.707 123.638 348.291 122.447 347.959 121.616C347.626 120.785 347.266 119.787 347.128 119.399C346.989 119.012 346.629 118.014 346.296 117.183C345.964 116.352 345.604 115.355 345.465 114.967C345.327 114.579 344.967 113.582 344.634 112.751C344.302 111.919 343.942 110.839 343.803 110.396C343.665 109.925 343.304 108.872 342.972 108.041C342.64 107.21 342.279 106.212 342.141 105.825C342.002 105.437 341.642 104.439 341.31 103.608C340.977 102.777 340.617 101.78 340.479 101.392C340.34 101.004 339.841 99.6467 339.343 98.3446C338.512 96.1006 336.822 91.5018 336.323 90.0335C336.185 89.6456 335.824 88.6483 335.492 87.8172C335.16 86.9861 334.799 85.9887 334.661 85.6009C334.522 85.213 334.162 84.2157 333.83 83.3846C333.497 82.5535 333.165 81.5561 333.082 81.1683C332.999 80.7804 332.805 80.3372 332.666 80.1432C332.5 79.9493 332.278 79.3952 332.168 78.8966C332.029 78.3979 331.669 77.2898 331.336 76.4586C331.004 75.6275 330.644 74.6302 330.505 74.2424C330.367 73.8545 330.007 72.8572 329.674 72.0261C329.342 71.1949 328.982 70.1976 328.843 69.8098C328.705 69.4219 328.344 68.4246 328.012 67.5935C327.68 66.7624 327.125 65.1832 326.765 64.1305C326.405 63.0501 325.823 61.4987 325.519 60.6675C325.186 59.8364 324.826 58.8391 324.688 58.4512C324.549 58.0634 324.189 57.0661 323.856 56.235C323.524 55.4038 323.164 54.4065 323.025 54.0187C322.887 53.6308 322.527 52.6335 322.194 51.8024C321.862 50.9713 321.529 49.9739 321.446 49.5861C321.363 49.1982 321.197 48.7549 321.086 48.6164C320.975 48.4502 320.726 47.8961 320.587 47.3698C320.421 46.8434 320.033 45.7076 319.701 44.8764C319.368 44.0453 319.008 43.048 318.87 42.6601C317.346 38.1444 317.235 38.0336 314.022 37.1194C313.578 37.0086 312.498 36.6207 311.667 36.2883C310.836 35.9558 309.783 35.568 309.312 35.4572C308.869 35.3186 307.234 34.7646 305.711 34.2105C304.187 33.6564 302.081 32.9084 301.001 32.5483C299.948 32.1881 297.815 31.4401 296.291 30.8861C294.768 30.332 293.161 29.7779 292.69 29.6394C292.246 29.5286 291.166 29.1407 290.335 28.8083C289.504 28.4758 288.396 28.088 287.869 27.9772C287.343 27.8387 286.761 27.5616 286.512 27.34C286.152 26.9521 286.207 26.7305 287.066 25.2899C289.642 20.9404 290.28 18.0592 289.365 15.0672C289.144 14.3192 288.95 13.4881 288.95 13.2388C288.95 12.4077 287.26 9.08325 285.985 7.42102C283.464 4.12428 279.586 1.76947 275.818 1.2431C274.156 1.02147 273.685 0.827545 273.879 0.522797C273.962 0.384277 273.463 0.273468 272.771 0.273468C271.912 0.273468 271.524 0.384277 271.58 0.605911ZM274.101 10.3022C275.597 10.7178 276.843 11.6597 277.619 12.9341C278.118 13.7375 278.256 14.3746 278.256 15.843C278.256 17.4775 278.145 17.8653 277.425 18.8904C276.261 20.5526 274.793 21.3283 272.798 21.3283C270.499 21.3283 269.502 20.7465 268.033 18.5025C267.479 17.6714 267.341 17.1173 267.341 15.7044C267.341 14.153 267.452 13.7652 268.227 12.7124C269.28 11.2164 269.917 10.7455 271.358 10.3299C272.826 9.91435 272.798 9.91435 274.101 10.3022ZM94.8853 26.7305C96.409 27.2846 98.5422 28.0326 99.595 28.3927C100.675 28.7529 102.781 29.5009 104.305 30.0549C105.828 30.609 107.463 31.1631 107.906 31.3016C108.377 31.4401 109.984 31.9942 111.508 32.5483C113.031 33.1024 115.719 34.0166 117.464 34.6261C119.209 35.2078 121.342 35.9558 122.173 36.2883C123.005 36.6207 124.085 37.0086 124.528 37.1194C125.332 37.341 127.908 38.2552 132.008 39.7235C133.837 40.3884 134.003 40.4161 135.194 40.0283C137.355 39.308 141.649 37.9505 143.228 37.5072C144.059 37.2579 145.195 36.8978 145.722 36.7038C146.248 36.5099 147.439 36.1221 148.353 35.8727C149.268 35.5957 150.459 35.2355 150.985 35.0416C151.927 34.7092 152.897 34.4321 156.388 33.3794C157.302 33.1024 158.493 32.7422 159.019 32.5483C159.546 32.3544 160.737 31.9665 161.651 31.7172C162.565 31.4401 163.757 31.08 164.283 30.8861C164.809 30.6921 165.89 30.3597 166.638 30.1381C169.242 29.3624 173.841 27.8941 174.811 27.5616C175.337 27.3677 176.528 27.0075 177.442 26.7305C178.357 26.4535 179.603 26.0656 180.213 25.8717C181.293 25.4838 181.459 25.5116 185.753 27.0075C188.191 27.8664 191.073 28.8637 192.125 29.2238C193.206 29.584 195.311 30.332 196.835 30.8861C198.359 31.4401 199.993 31.9942 200.436 32.1327C200.907 32.2712 201.822 32.576 202.514 32.853C204.952 33.7672 209.052 35.2078 209.856 35.4572C210.327 35.568 211.379 35.9558 212.211 36.2883C213.042 36.6207 214.122 37.0086 214.565 37.1194C215.036 37.2579 216.643 37.812 218.167 38.3661C224.483 40.6378 223.985 40.4993 225.591 40.0006C226.395 39.7513 227.448 39.3634 227.946 39.1695C228.445 38.9478 229.054 38.7816 229.331 38.7816C229.581 38.7816 230.273 38.6154 230.911 38.3938C232.074 38.0059 233.653 37.5072 236.451 36.7038C237.365 36.4268 238.557 36.0667 239.083 35.8727C239.609 35.6788 240.856 35.291 241.853 35.0416C242.851 34.7646 244.153 34.4044 244.762 34.2105C245.372 34.0166 246.618 33.6287 247.533 33.3794C248.447 33.1024 249.638 32.7422 250.165 32.5483C250.691 32.3544 252.575 31.8003 254.32 31.3016C256.065 30.8029 257.977 30.2212 258.559 30.0273C260.36 29.3624 260.803 29.5009 262.049 31.1631C263.407 32.9638 269.474 39.2803 271.025 40.4993C272.632 41.7736 273.38 41.6628 275.126 39.8621C278.589 36.316 280.639 34.072 282.301 31.9942C283.298 30.7753 284.212 29.6948 284.351 29.6117C284.6 29.4178 286.179 29.7225 286.733 30.0549C286.927 30.1658 287.454 30.3597 287.952 30.4705C288.423 30.609 289.504 30.9692 290.335 31.3016C291.166 31.6341 292.246 31.9942 292.69 32.1327C293.161 32.2712 294.213 32.6314 295.045 32.9638C295.876 33.2963 296.956 33.6841 297.399 33.795C297.87 33.9335 299.477 34.4875 301.001 35.0416C302.525 35.568 304.658 36.316 305.711 36.7038C306.791 37.064 308.896 37.812 310.42 38.3661C311.944 38.9201 313.606 39.5019 314.105 39.6404C315.407 40.0283 315.767 40.7209 317.623 46.1231C318.316 48.1455 318.731 49.2813 319.701 51.8024C320.033 52.6335 320.393 53.6308 320.532 54.0187C320.671 54.4065 321.031 55.4038 321.363 56.235C321.696 57.0661 322.056 58.1465 322.167 58.5898C322.277 59.0607 322.499 59.6702 322.665 59.9749C322.831 60.2797 323.219 61.277 323.524 62.1913C323.856 63.1055 324.383 64.5461 324.688 65.3772C325.02 66.2083 325.38 67.2056 325.519 67.5935C325.657 67.9813 326.017 68.9787 326.35 69.8098C326.682 70.6409 327.042 71.6382 327.181 72.0261C327.319 72.4139 327.68 73.4113 328.012 74.2424C328.344 75.0735 328.705 76.1262 328.843 76.5972C328.982 77.0404 329.342 78.1209 329.674 78.952C330.007 79.7831 330.367 80.7804 330.505 81.1683C330.644 81.5561 331.004 82.5535 331.336 83.3846C331.669 84.2157 332.029 85.213 332.168 85.6009C332.306 85.9887 332.666 86.9861 332.999 87.8172C333.331 88.6483 333.691 89.6456 333.83 90.0335C334.273 91.391 335.741 95.4634 336.323 96.9594C336.656 97.7905 337.016 98.7878 337.154 99.1757C337.293 99.5635 337.653 100.561 337.985 101.392C338.318 102.223 338.678 103.22 338.816 103.608C338.955 103.996 339.315 104.993 339.648 105.825C339.98 106.656 340.34 107.708 340.479 108.179C340.617 108.623 340.977 109.703 341.31 110.534C341.642 111.365 342.002 112.363 342.141 112.751C342.279 113.138 342.64 114.136 342.972 114.967C343.304 115.798 343.665 116.795 343.803 117.183C343.942 117.571 344.44 118.928 344.911 120.231C345.41 121.533 345.964 123.139 346.186 123.804C346.407 124.469 346.684 125.162 346.823 125.328C346.934 125.494 347.128 125.937 347.211 126.325C347.294 126.713 347.626 127.711 347.959 128.542C348.291 129.373 348.651 130.37 348.79 130.758C348.928 131.146 349.288 132.143 349.621 132.974C349.953 133.805 350.341 134.858 350.48 135.329C350.618 135.772 350.84 136.409 350.978 136.714C351.117 137.019 351.505 138.016 351.809 138.931C352.114 139.845 352.641 141.285 352.945 142.116C353.278 142.948 353.638 143.945 353.776 144.333C353.915 144.721 354.275 145.718 354.608 146.549C354.94 147.38 355.3 148.377 355.439 148.765C355.577 149.153 356.076 150.511 356.547 151.813C357.045 153.115 357.6 154.666 357.793 155.276C358.015 155.885 358.431 157.076 358.763 157.908C359.096 158.739 359.456 159.736 359.594 160.124C359.733 160.512 360.093 161.509 360.425 162.34C360.758 163.171 361.118 164.169 361.256 164.556C361.395 164.944 361.755 165.942 362.088 166.773C362.42 167.604 362.78 168.657 362.919 169.128C363.057 169.571 363.417 170.651 363.75 171.482C364.082 172.313 364.442 173.311 364.581 173.699C364.719 174.087 365.08 175.084 365.412 175.915C365.744 176.746 366.105 177.743 366.243 178.131C366.382 178.519 366.742 179.516 367.074 180.348C367.379 181.179 367.905 182.619 368.238 183.533C368.542 184.448 368.986 185.528 369.18 185.944C369.623 186.775 369.706 188.105 369.318 188.105C369.207 188.105 368.736 187.994 368.293 187.855C367.434 187.606 365.08 186.969 362.448 186.332C359.151 185.5 357.212 185.002 355.854 184.642C354.441 184.254 352.308 183.727 349.427 183.007C346.85 182.37 344.329 181.705 342.833 181.317C342.085 181.096 340.645 180.735 339.648 180.486C338.65 180.237 337.237 179.877 336.462 179.655C335.16 179.295 334.328 179.101 330.09 178.048C328.566 177.66 327.042 177.272 323.441 176.331C321.668 175.86 319.064 175.195 316.875 174.641C315.905 174.419 314.52 174.059 313.745 173.837C312.997 173.643 311.584 173.255 310.642 173.034C306.708 172.036 305.378 171.676 304.131 171.316C302.497 170.817 301.333 170.817 299.893 171.316C299.283 171.51 298.092 171.898 297.261 172.12C296.43 172.369 295.045 172.757 294.213 173.006C291.859 173.671 290.058 174.197 288.396 174.668C287.565 174.918 286.263 175.278 285.487 175.499C284.268 175.86 282.606 176.331 276.76 178.02C275.929 178.242 274.682 178.602 273.99 178.824C273.297 179.018 271.94 179.406 270.942 179.655C269.945 179.932 268.643 180.292 268.033 180.486C267.424 180.68 266.177 181.04 265.263 181.289C264.349 181.567 263.047 181.927 262.354 182.148C261.662 182.342 260.304 182.73 259.307 182.979C258.309 183.256 257.007 183.617 256.398 183.811C255.788 184.004 254.542 184.365 253.628 184.614C252.713 184.891 251.411 185.251 250.719 185.473C250.026 185.667 248.669 186.055 247.671 186.304C245.677 186.83 244.43 187.218 242.13 187.994C240.274 188.603 237.892 188.631 235.482 188.049C233.681 187.606 231.769 187.19 227.586 186.332C223.68 185.5 217.751 184.254 215.673 183.811C214.759 183.617 213.014 183.256 211.795 183.007C209.662 182.564 208.637 182.342 203.761 181.317C202.542 181.068 200.797 180.68 199.882 180.486C197.472 179.96 192.236 178.879 187.693 177.965C186.474 177.716 184.784 177.356 183.925 177.134C181.958 176.635 180.517 176.635 175.919 177.162C173.869 177.383 170.156 177.771 167.691 177.993C165.197 178.214 161.18 178.602 158.742 178.824C156.304 179.045 152.287 179.433 149.822 179.655C147.328 179.904 143.45 180.264 141.151 180.486C138.879 180.708 135.056 181.068 132.701 181.317C130.346 181.539 127.049 181.871 125.359 182.037C119.597 182.619 117.325 182.675 115.802 182.176C115.054 181.927 113.835 181.567 113.114 181.345C110.122 180.458 105.884 179.184 104.443 178.768C103.612 178.519 102.421 178.159 101.811 177.993C101.202 177.799 99.9551 177.439 99.0409 177.162C97.3787 176.691 95.5502 176.137 93.5002 175.499C92.8907 175.333 91.644 174.945 90.7298 174.696C88.0148 173.92 86.7127 173.532 83.6653 172.591C82.0585 172.12 80.0639 171.51 79.2327 171.288C78.4016 171.039 77.2104 170.679 76.6009 170.513C75.9914 170.319 74.7447 169.959 73.8305 169.682C72.9163 169.432 71.6696 169.044 71.0602 168.851C69.2317 168.296 65.464 167.188 62.472 166.329C61.5578 166.08 60.3111 165.665 59.7293 165.415C58.2887 164.833 56.0447 164.861 53.4683 165.498C50.5871 166.191 48.3431 166.662 41.8327 168.019C40.6969 168.269 39.007 168.629 38.0927 168.823C36.5136 169.183 34.2696 169.654 30.0587 170.54C29.0059 170.79 27.5653 171.095 26.8727 171.261C26.1802 171.427 25.072 171.649 24.3794 171.759C23.6868 171.87 21.9415 172.258 20.5009 172.591C19.0603 172.923 17.5643 173.255 17.1764 173.339C16.2068 173.505 12.827 174.225 11.3587 174.585C10.6661 174.751 9.50252 174.973 8.72682 175.112C7.97882 175.222 6.89837 175.472 6.372 175.61C5.18075 175.97 3.96178 175.998 3.76786 175.666C3.62934 175.444 6.23349 167.022 7.61867 163.171C7.8126 162.645 8.36667 160.955 8.83763 159.431C9.3363 157.908 9.89037 156.218 10.0843 155.691C10.2782 155.165 10.86 153.42 11.3587 151.813C11.8296 150.206 12.3837 148.599 12.5222 148.211C12.6884 147.823 12.9101 147.131 13.0209 146.688C13.2425 145.912 13.4364 145.275 14.2676 142.948C14.4615 142.421 14.8493 141.23 15.0987 140.316C15.3757 139.401 15.7359 138.21 15.9298 137.684C16.1237 137.157 16.4284 136.271 16.5947 135.745C16.7886 135.218 17.0379 134.387 17.1764 133.944C17.315 133.473 17.5643 132.669 17.7582 132.143C17.9244 131.617 18.2292 130.73 18.4231 130.204C18.617 129.677 18.9772 128.486 19.2542 127.572C19.5036 126.658 19.8914 125.467 20.0853 124.94C20.307 124.414 20.861 122.724 21.3597 121.2C21.8307 119.676 22.3847 117.987 22.5787 117.46C22.7726 116.934 23.7145 114.053 24.6564 111.088C25.5984 108.124 26.5403 105.243 26.7342 104.716C26.9282 104.19 27.2883 103.054 27.5376 102.223C27.8147 101.392 28.2025 100.256 28.3964 99.7298C28.5904 99.2034 29.1444 97.4581 29.6431 95.8512C30.1418 94.2444 30.6681 92.6376 30.8067 92.2498C30.9729 91.8619 31.1945 91.1693 31.3053 90.7261C31.527 89.9227 31.7763 89.2024 32.552 86.9861C32.7459 86.4597 33.3 84.7144 33.7987 83.1075C34.2973 81.5007 34.8514 79.7554 35.0453 79.229C35.821 77.0127 36.0704 76.2924 36.292 75.489C36.4028 75.0181 36.6244 74.3532 36.7907 73.9653C36.9292 73.5775 37.8434 70.8348 38.7853 67.8705C39.7273 64.9062 40.6692 62.025 40.8631 61.4987C41.057 60.9723 41.7496 58.9776 42.3591 57.0661C43.4119 53.9078 43.9105 52.301 44.6031 50.0016C44.9633 48.6995 45.4619 47.3144 45.9883 46.1231C46.4593 45.0704 46.6532 44.9318 50.033 43.519C53.2744 42.1615 55.4907 41.1918 58.1779 39.9729C58.7043 39.7235 59.5631 39.3634 60.0341 39.1418C60.5327 38.9478 61.4193 38.56 61.9733 38.3107C62.5551 38.0613 63.22 37.7843 63.4693 37.6735C63.691 37.535 66.0181 36.5653 68.5945 35.4572C71.171 34.349 73.969 33.1301 74.8001 32.7699C76.961 31.7726 76.5732 31.9388 86.2972 27.7001C89.0399 26.5089 91.4778 25.567 91.6994 25.6224C91.921 25.6778 93.3616 26.1764 94.8853 26.7305Z" fill="#243252"/>
<path d="M89.04 35.8725C88.8461 36.3989 88.6522 37.0083 88.6522 37.2577C88.6522 37.4793 88.4583 38.4489 88.2089 39.4186C87.9873 40.3605 87.6272 41.8288 87.4055 42.6599C87.2116 43.491 86.8792 44.7931 86.7129 45.5688C86.519 46.3168 86.2697 47.4526 86.1589 48.0621C86.048 48.6716 85.7987 49.7797 85.6048 50.5554C84.9399 53.3535 84.5243 55.0434 84.0811 56.9273C83.8318 57.98 83.4439 59.67 83.2223 60.6673C83.0006 61.6646 82.6405 63.1606 82.4189 63.9917C82.2249 64.8229 81.8371 66.4574 81.5878 67.5932C81.3384 68.7291 80.9783 70.3636 80.7566 71.1947C80.1472 73.7434 79.7593 75.4057 79.3438 77.2064C78.7897 79.6997 77.9586 83.2181 77.0166 87.2629C76.8781 87.7892 76.6011 89.0359 76.3795 90.0332C76.1578 91.0306 75.8254 92.4434 75.6315 93.2191C74.7449 96.876 74.551 97.7903 74.1078 99.7295C73.8584 100.865 73.4983 102.5 73.2766 103.331C73.055 104.162 72.6949 105.797 72.4178 106.932C72.1685 108.068 71.8083 109.62 71.6144 110.395C71.4205 111.143 71.0603 112.723 70.7833 113.858C69.8414 118.125 69.4812 119.565 69.0934 120.951C68.8718 121.726 68.7055 122.613 68.7055 122.945C68.7055 123.527 67.9021 125.771 67.7082 125.771C67.6528 125.771 66.9879 125.383 66.2676 124.94C65.5196 124.469 64.7716 124.109 64.6331 124.109C64.2729 124.109 62.0566 126.935 62.0566 127.378C62.0566 127.793 64.4669 129.594 65.8243 130.176C66.9048 130.647 66.9048 130.952 65.7966 135.467C65.575 136.298 65.2149 137.85 64.9655 138.93C64.5223 140.842 64.1067 142.532 63.4418 145.302C63.1094 146.576 62.9709 147.269 62.4722 149.901C62.2783 150.871 62.306 150.926 63.1648 151.12C63.6635 151.231 64.1344 151.203 64.2729 151.092C64.5777 150.732 65.3811 148.183 65.3811 147.518C65.3811 147.186 65.5473 146.383 65.7689 145.69C65.9629 145.025 66.3507 143.474 66.6 142.255C66.8771 141.036 67.2649 139.346 67.4589 138.515C67.6805 137.684 68.096 135.938 68.4008 134.664C68.7055 133.39 69.0103 132.281 69.0934 132.226C69.2042 132.115 70.2569 132.448 73.1381 133.5C73.9692 133.833 74.7726 134.082 74.9389 134.082C75.299 134.082 76.1578 131.977 76.2409 130.785C76.324 129.788 76.2686 129.733 74.2463 128.957C73.5537 128.68 72.3901 128.209 71.6698 127.876C70.34 127.295 70.34 127.267 70.4509 126.187C70.5063 125.577 70.7002 124.441 70.8941 123.693C71.088 122.918 71.4205 121.615 71.6144 120.784C71.8083 119.953 72.1131 118.623 72.307 117.875C72.5009 117.1 72.8057 115.742 73.0273 114.828C73.2212 113.914 73.6091 112.279 73.8307 111.227C74.2463 109.509 74.4679 108.539 75.3544 104.716C75.4929 104.19 75.77 102.943 75.9916 101.946C76.2132 100.948 76.5457 99.5079 76.7396 98.7599C76.9335 97.9842 77.2383 96.6821 77.4322 95.851C77.6261 95.0199 77.9586 93.6901 78.1248 92.9421C78.3187 92.1664 78.568 91.0583 78.6789 90.4488C78.7897 89.8393 79.039 88.7034 79.2329 87.9554C79.8978 85.1851 80.3134 83.4951 80.7566 81.5836C81.006 80.5032 81.3661 78.9517 81.5878 78.1206C81.7817 77.2895 82.1695 75.5996 82.4466 74.3806C82.6959 73.1617 83.0838 71.6103 83.2777 70.9454C83.4993 70.2528 83.6655 69.4494 83.6655 69.1169C83.6655 68.7845 83.8318 67.9811 84.0534 67.2885C84.2473 66.6236 84.6352 65.0722 84.9122 63.8532C85.1892 62.6343 85.5494 60.9443 85.771 60.1132C86.3251 57.7307 86.99 54.8772 87.4609 52.9103C87.8488 51.1649 88.2366 49.5858 88.9292 46.6769C89.1232 45.9012 89.3725 44.7931 89.4833 44.1836C89.5941 43.5741 89.8435 42.4383 90.0374 41.6903C90.2036 40.9146 90.536 39.6125 90.7577 38.7814C91.4226 36.011 91.4503 35.7894 90.9793 35.3461C90.259 34.5981 89.4833 34.792 89.04 35.8725Z" fill="#243252"/>
<path d="M278.477 41.5797C277.868 41.8014 277.84 41.9399 278.006 43.4082C278.089 44.2947 278.339 45.8738 278.56 46.9542C278.782 48.007 279.142 50.0571 279.364 51.4422C280.278 56.7891 280.694 59.1993 281.054 61.2216C281.248 62.3575 281.635 64.4907 281.885 65.9313C282.134 67.3719 282.494 69.5051 282.716 70.6409C282.91 71.7768 283.298 73.9654 283.547 75.4891C283.796 77.0128 284.184 79.1182 284.406 80.1987C284.627 81.2514 284.794 82.3873 284.794 82.692C284.794 82.9968 284.96 84.1049 285.182 85.1854C285.403 86.2381 285.791 88.2328 286.013 89.6179C286.234 90.9754 286.65 93.3025 286.871 94.7431C287.121 96.1837 287.509 98.2338 287.73 99.3142C287.952 100.367 288.118 101.503 288.118 101.808C288.118 102.112 288.284 103.22 288.506 104.301C288.728 105.354 289.115 107.431 289.365 108.872C289.614 110.313 289.974 112.446 290.196 113.582C290.39 114.717 290.778 116.906 291.027 118.43C291.276 119.953 291.664 122.142 291.858 123.278C292.08 124.414 292.44 126.547 292.689 127.988C292.939 129.428 293.299 131.561 293.52 132.697C293.714 133.833 294.102 135.966 294.351 137.407C295.46 144 295.654 145.164 296.014 147.103C296.235 148.239 296.595 150.428 296.872 151.951C297.122 153.475 297.537 155.774 297.787 157.076C298.258 159.376 298.285 159.431 299.116 159.514C300.391 159.653 300.585 159.154 300.169 157.076C299.975 156.079 299.587 154.029 299.338 152.505C299.089 150.982 298.701 148.793 298.507 147.657C298.285 146.521 297.925 144.388 297.676 142.948C297.427 141.507 297.066 139.374 296.845 138.238C296.124 134.332 295.82 132.559 295.709 131.589C295.626 131.063 295.404 129.677 295.21 128.542C294.989 127.406 294.601 125.273 294.351 123.832C294.102 122.391 293.742 120.203 293.52 118.984C292.634 113.997 292.274 111.947 291.027 104.716C290.03 98.9264 289.309 94.8262 288.672 91.5572C288.506 90.643 288.257 89.0916 288.118 88.0942C288.007 87.0969 287.758 85.6563 287.619 84.9083C287.453 84.1326 287.121 82.3319 286.871 80.8913C286.622 79.4507 286.234 77.2344 286.013 75.96C285.791 74.7134 285.431 72.6356 285.209 71.3335C284.988 70.0314 284.627 67.9537 284.406 66.6793C284.184 65.4326 283.796 63.2163 283.547 61.7757C283.298 60.3351 282.91 58.008 282.688 56.6505C282.439 55.2654 282.079 53.2707 281.885 52.2179C281.248 49.032 280.86 46.788 280.638 44.8211C280.389 42.9095 279.89 41.5243 279.391 41.3858C279.253 41.3304 278.837 41.4412 278.477 41.5797Z" fill="#243252"/>
<path d="M183.869 41.7458C183.759 41.8289 183.675 45.929 183.675 50.8326C183.675 60.2519 183.62 60.6674 182.457 60.0579C182.124 59.8917 181.431 59.6424 180.905 59.5316C180.379 59.4485 179.354 59.1991 178.633 58.9775C176.999 58.5342 176.666 58.7836 176.223 60.8059C175.725 62.9945 175.918 63.327 177.802 63.6871C180.213 64.1581 182.29 64.7676 183.011 65.2385L183.675 65.6541L183.731 114.634L183.814 163.587H184.784H185.753L185.892 115.244L186.03 66.9007H186.778C187.194 66.873 187.582 66.8176 187.637 66.7622C188.108 66.2636 189.493 63.7148 189.493 63.3547C189.493 63.133 189.022 62.7175 188.468 62.4128C187.886 62.1357 187.083 61.6647 186.667 61.3877L185.892 60.889V51.2205V41.5519H184.978C184.451 41.5519 183.953 41.635 183.869 41.7458Z" fill="#243252"/>
<path d="M133.726 47.2865C133.615 47.3697 133.532 47.7852 133.532 48.1731C133.532 48.5609 133.366 50.1954 133.144 51.8022C132.424 56.8166 132.119 59.3376 131.842 62.3296C131.704 63.9088 131.399 65.4879 131.205 65.7926C130.928 66.2082 130.873 66.9008 130.956 68.2028C131.15 70.5022 130.762 70.8347 129.487 69.4218C128.989 68.8677 128.435 68.4245 128.296 68.4245C127.825 68.4245 126.08 70.0867 124.778 71.7766C123.254 73.7713 122.284 75.6828 121.592 78.0376C120.927 80.4479 121.093 80.7803 123.337 80.9742C125.415 81.1682 126.052 80.8911 126.052 79.783C126.052 77.9822 129.321 72.7185 130.152 73.2449C130.485 73.4388 130.429 74.4085 129.792 79.3674C129.57 81.0296 129.266 83.6061 129.072 85.0467C128.739 87.8725 128.601 88.3711 128.241 88.3711C127.908 88.3711 127.133 86.8474 126.412 84.7696L125.83 82.9689L124.334 83.052C123.06 83.1074 121.342 83.5507 121.342 83.8277C121.342 83.8831 121.536 84.6034 121.758 85.4622C122.34 87.7894 123.947 90.8368 125.941 93.4686C126.911 94.7707 127.714 96.0451 127.714 96.3221C127.714 96.8762 127.077 102.14 126.44 106.656C126.218 108.262 126.052 109.98 126.052 110.479C126.052 110.977 125.886 112.612 125.664 114.08C125.193 117.211 124.473 123.112 124.224 125.882C124.03 128.015 123.42 128.929 121.98 129.234C121.564 129.317 120.594 129.567 119.819 129.788C117.686 130.398 114.971 131.007 113.558 131.173C112.837 131.256 112.062 131.506 111.785 131.7C111.341 132.032 111.314 132.198 111.591 133.334C111.785 134.027 111.923 134.913 111.923 135.301C111.923 135.938 112.034 136.021 112.837 136.021C113.779 136.021 116.938 135.412 119.265 134.775C120.04 134.553 121.204 134.304 121.869 134.193L123.06 133.999L122.894 136.326C122.783 137.601 122.534 139.955 122.312 141.562C122.09 143.169 121.73 146.216 121.481 148.35C121.232 150.483 120.871 153.53 120.65 155.137C120.428 156.744 120.179 158.849 120.096 159.847C120.013 160.844 119.874 162.035 119.791 162.506C119.653 163.282 119.708 163.42 120.539 163.697C121.065 163.864 121.536 163.919 121.703 163.753C122.007 163.448 123.115 155.719 123.559 150.704C123.67 149.402 123.919 147.297 124.085 145.995C124.279 144.693 124.584 142.199 124.805 140.454C125.027 138.709 125.332 136.326 125.498 135.19C125.664 134.055 125.914 131.866 126.024 130.342C126.163 128.819 126.385 126.63 126.551 125.494C126.717 124.358 127.049 121.726 127.299 119.676C127.797 115.438 128.379 110.7 128.822 107.21C128.989 105.908 129.238 103.608 129.404 102.084C129.543 100.561 129.709 99.1479 129.792 98.9539C129.986 98.3999 130.679 98.5661 131.648 99.4803C132.147 99.9513 133.504 101.059 134.64 101.946C135.776 102.832 137.383 104.245 138.214 105.076C139.655 106.572 139.738 106.6 140.43 106.24C140.818 106.018 141.649 105.409 142.231 104.883C143.284 103.968 143.311 103.913 142.896 103.276C142.37 102.472 139.488 99.8405 135.665 96.6822L132.95 94.4382L131.814 95.5464C131.205 96.1836 130.595 96.6822 130.457 96.6822C130.069 96.6822 130.152 94.3551 130.568 93.9673C130.789 93.7179 130.928 92.6098 130.956 90.7813C130.983 89.2299 131.177 86.5981 131.427 84.9082C132.119 79.9492 132.424 77.3174 132.729 74.3808C133.033 71.084 133.117 70.7793 133.892 70.0867C134.474 69.5049 138.546 67.4825 140.735 66.6237C143.782 65.4602 144.392 65.1 144.198 64.6013C144.087 64.352 143.866 63.7425 143.699 63.2993C142.979 61.1384 142.979 61.1661 142.037 61.3046C140.984 61.4431 139.876 61.8587 137.466 62.9391C136.496 63.3824 135.333 63.7979 134.89 63.9088L134.086 64.0473L134.252 61.8864C134.335 60.6674 134.585 58.6451 134.806 57.343C135.028 56.0409 135.194 54.5172 135.194 53.9077C135.194 53.3259 135.388 51.6637 135.638 50.2231C136.025 48.0068 136.025 47.5359 135.721 47.3419C135.25 47.0649 133.975 47.0095 133.726 47.2865Z" fill="#243252"/>
<path d="M227.863 50.6939C227.669 50.9987 227.973 54.24 228.721 60.1132C228.943 61.8585 229.109 63.7424 229.109 64.2687C229.109 64.7951 229.303 66.5958 229.525 68.2858C229.746 69.948 230.107 73.1339 230.356 75.3502C230.578 77.5665 230.965 80.9741 231.187 82.9687C231.409 84.9357 231.741 88.0108 231.88 89.7561C232.046 91.5015 232.434 94.9367 232.711 97.3747C233.016 99.8126 233.431 103.497 233.653 105.547C234.595 114.135 235.149 119.15 236.174 128.68C236.423 130.813 236.783 134.248 237.033 136.298C237.254 138.348 237.614 141.728 237.836 143.778C238.085 145.828 238.445 149.014 238.667 150.843C238.916 152.671 239.083 154.583 239.083 155.109C239.083 155.636 239.249 157.436 239.47 159.126C240.08 163.78 240.496 167.437 240.745 170.596C240.883 172.175 241.133 173.643 241.327 173.865C241.521 174.086 241.992 174.252 242.379 174.197C243.044 174.114 243.1 173.975 243.21 172.729C243.238 171.953 243.1 169.598 242.85 167.465C242.13 161.398 241.604 156.522 241.465 154.998C241.41 154.223 241.216 152.56 241.05 151.258C240.883 149.956 240.551 147.103 240.329 144.887C240.08 142.67 239.72 139.235 239.498 137.268C239.277 135.273 238.916 131.893 238.667 129.705C237.836 121.892 237.393 117.82 237.005 114.412C236.783 112.501 236.423 109.26 236.201 107.209C235.98 105.159 235.592 101.78 235.343 99.7295C234.844 95.4354 234.816 94.5489 235.176 94.3272C235.315 94.2441 236.589 93.9948 238.03 93.7732C240.329 93.413 241.631 93.0806 245.177 92.0001C245.732 91.8339 246.396 91.5292 246.673 91.3353C247.144 91.0028 247.144 90.9197 246.701 89.5068C246.424 88.7311 246.009 87.7892 245.732 87.4567C245.261 86.9027 245.205 86.875 244.18 87.3182C241.742 88.3155 236.478 89.5622 235.176 89.4237C234.345 89.3406 234.234 89.2298 234.179 88.5095C234.151 88.0385 233.93 86.0161 233.68 84.0215C233.154 79.5058 232.572 74.2698 232.018 68.9784C231.769 66.7621 231.409 63.4099 231.187 61.4984C230.965 59.5868 230.716 57.2874 230.661 56.3732C230.578 55.459 230.384 53.7413 230.19 52.5501L229.885 50.4169H228.943C228.444 50.4169 227.946 50.5554 227.863 50.6939Z" fill="#243252"/>
<path d="M271.912 53.7137C271.607 53.8523 271.219 54.2401 271.053 54.6003C270.72 55.3206 269.834 58.922 269.834 59.5038C269.834 59.7254 269.612 60.3349 269.363 60.8613C268.92 61.8032 268.92 61.8586 269.418 62.2188C269.917 62.5789 272.521 63.4377 273.131 63.4377C273.602 63.4377 274.322 61.2214 275.098 57.2875C275.458 55.4037 275.319 54.7942 274.35 54.0185C273.602 53.4367 272.854 53.3536 271.912 53.7137Z" fill="#FC766A"/>
<path d="M161.291 57.8415C161.041 58.0078 160.958 58.7004 161.013 60.141L161.097 62.191L165.806 62.3573C168.41 62.4404 171.153 62.6343 171.901 62.7451C173.674 62.9944 173.951 62.7174 174.173 60.2795C174.339 58.5341 174.311 58.451 173.646 58.2017C172.704 57.8415 161.734 57.5091 161.291 57.8415Z" fill="#243252"/>
<path d="M154.171 58.3403C151.705 58.7282 148.741 59.3377 146.802 59.864C145.472 60.1965 145.029 60.7228 145.444 61.4985C145.611 61.8033 145.832 62.6067 145.943 63.2439C146.165 64.3797 146.165 64.4074 147.245 64.3797C147.855 64.352 148.907 64.1858 149.6 64.0473C152.564 63.327 155.251 62.8837 156.415 62.8837C158.382 62.8837 158.742 62.5513 158.714 60.8614C158.659 58.5897 158.437 58.0356 157.495 57.9802C157.025 57.9802 155.556 58.1187 154.171 58.3403Z" fill="#FC766A"/>
<path d="M191.349 65.0446C191.072 65.3217 190.878 65.6264 190.878 65.7372C190.878 65.8203 190.574 66.3744 190.186 66.9285C189.798 67.4826 189.493 68.092 189.493 68.2583C189.521 68.4245 190.075 68.9786 190.74 69.4772C191.46 70.0036 193.178 71.9706 194.729 74.076C196.225 76.0984 197.61 77.8438 197.749 77.9546C198.109 78.1762 200.962 75.9045 201.073 75.2673C201.129 75.018 200.63 74.1592 199.993 73.3558C199.356 72.5523 198.414 71.1949 197.86 70.3638C196.807 68.7015 192.734 64.546 192.153 64.546C191.959 64.546 191.599 64.7676 191.349 65.0446Z" fill="#243252"/>
<path d="M267.257 66.4021C265.484 69.8928 264.542 71.3611 262.603 73.8821C261.855 74.8517 261.246 75.8491 261.246 76.1538C261.246 76.8187 263.877 79.0627 264.404 78.8688C265.401 78.4809 269.612 72.2199 271.551 68.2306L272.438 66.4298L271.801 65.9034C271.441 65.5987 270.942 65.3771 270.693 65.3771C270.416 65.3771 269.972 65.1832 269.668 64.9615C268.67 64.2135 268.227 64.4629 267.257 66.4021Z" fill="#243252"/>
<path d="M201.323 78.6192C200.602 79.3395 200.021 80.0598 200.021 80.226C200.021 80.974 205.035 85.3789 208.304 87.5121C211.49 89.5622 211.573 89.6176 212.016 89.2297C212.404 88.925 213.872 86.0992 213.872 85.6836C213.872 85.4897 211.711 83.9937 210.963 83.689C210.382 83.4396 206.448 80.3091 204.869 78.8408C203.954 77.982 203.096 77.2894 202.929 77.2894C202.763 77.2894 202.043 77.8989 201.323 78.6192Z" fill="#FC766A"/>
<path d="M256.952 79.8107C254.625 81.8054 252.547 83.246 250.303 84.4926C247.671 85.9055 247.699 85.8501 248.724 87.9556C249.25 88.9529 249.804 89.7563 250.054 89.7563C250.469 89.7563 252.464 88.759 253.904 87.8171C254.375 87.5123 254.929 87.1799 255.151 87.0691C255.705 86.8198 258.559 84.6589 260.332 83.1352C262.354 81.4175 262.409 81.1128 260.803 79.4783C260.055 78.7303 259.334 78.1208 259.168 78.1485C259.03 78.1485 258.032 78.8965 256.952 79.8107Z" fill="#FC766A"/>
<path d="M215.23 88.7866C214.786 89.7562 214.426 90.6428 214.426 90.7259C214.426 91.0306 218.083 92.3604 221.214 93.1638C222.128 93.4131 224.206 93.8287 225.868 94.078C229.608 94.6321 229.663 94.6044 229.663 91.834C229.663 89.5623 229.58 89.4792 227.225 89.4792C225.508 89.4792 220.493 88.2879 218.36 87.3737C216.559 86.598 216.144 86.7919 215.23 88.7866Z" fill="#243252"/>
<path d="M143.644 106.96C143.2 107.237 142.536 107.597 142.175 107.764C141.372 108.096 141.123 108.733 141.51 109.509C142.702 112.002 142.646 115.715 141.372 117.211C141.178 117.432 141.012 117.737 141.012 117.876C141.012 118.014 140.818 118.319 140.596 118.596C140.181 119.011 140.292 119.178 141.76 120.48C142.619 121.255 143.477 121.893 143.644 121.893C144.087 121.893 144.946 120.646 145.915 118.568C147.55 115.105 147.328 109.925 145.444 106.988C144.946 106.268 144.724 106.24 143.644 106.96Z" fill="#243252"/>
<path d="M55.4353 116.795C54.0501 117.959 54.2164 119.15 56.1833 121.81C57.707 123.86 59.3415 125.494 59.8402 125.494C59.9787 125.494 60.699 124.774 61.4747 123.915L62.8876 122.336L61.6687 121.062C61.0038 120.369 59.951 119.095 59.3138 118.208C58.2888 116.795 57.3469 116.075 56.5158 116.075C56.3772 116.075 55.9063 116.407 55.4353 116.795Z" fill="#FC766A"/>
<path d="M136.191 122.585C134.363 123.97 129.072 126.879 128.351 126.879C128.185 126.879 127.825 127.156 127.603 127.461C127.243 127.987 127.271 128.209 127.936 129.76C128.324 130.675 128.684 131.506 128.739 131.561C129.044 131.949 135.443 128.902 138.048 127.101C140.07 125.716 141.566 124.386 141.566 123.97C141.566 123.499 138.962 121.062 138.519 121.089C138.297 121.089 137.244 121.782 136.191 122.585Z" fill="#FC766A"/>
<path d="M78.8447 130.786C78.7893 131.007 78.5123 131.866 78.263 132.725C77.9859 133.584 77.8197 134.47 77.9028 134.664C78.3184 135.717 91.4776 137.684 92.1702 136.797C92.5304 136.354 92.8351 133.03 92.5304 132.836C92.4196 132.753 90.8404 132.503 89.012 132.282C87.2113 132.06 84.995 131.728 84.0807 131.561C83.1665 131.367 81.8644 131.146 81.1719 131.007C80.4793 130.896 79.7036 130.73 79.4542 130.619C79.1495 130.509 78.9279 130.564 78.8447 130.786Z" fill="#FC766A"/>
<path d="M106.382 132.198C105.551 132.337 102.67 132.531 100.01 132.641L95.162 132.835L94.9958 134.636C94.7188 137.268 94.8573 137.406 97.5999 137.406C99.9271 137.406 107.656 136.908 108.848 136.686C109.485 136.548 109.513 136.492 109.346 134.553C109.208 133.14 109.042 132.475 108.681 132.226C108.432 132.032 108.155 131.893 108.072 131.893C107.989 131.921 107.213 132.06 106.382 132.198Z" fill="#243252"/>
</g>
<defs>
<clipPath id="clip0_207_7066">
<rect width="374" height="204.453" fill="white" transform="translate(0 0.273438)"/>
</clipPath>
</defs>
</svg>
