<svg width="187" height="58" viewBox="0 0 187 58" fill="none" xmlns="http://www.w3.org/2000/svg">
<path fill-rule="evenodd" clip-rule="evenodd" d="M186.139 35.0365L187 31.9546L186.907 28.6762L185.966 25.6065L184.243 22.6755L181.646 19.7929L178.232 17.0029L174.089 14.3773L168.974 11.8464L163.112 9.57369L156.626 7.49694L149.972 5.69209L143.466 4.23443L136.732 3.13962L126.309 1.93185L114.296 0.848531L106.146 0.436549L91.6776 0L82.8748 0.0189838L68.277 0.340757L67.0688 0.646764L67.5789 1.18955L68.4303 1.2863L82.924 0.966865L90.0502 0.93696L94.9484 1.00625L105.99 1.38085L111.269 1.62101L116.862 1.99635L125.924 2.8607L132.088 3.53188L138.75 4.46092L142.007 5.03399L145.182 5.69698L151.653 7.31332L158.2 9.23994L161.337 10.2893L165.424 11.8731L158.342 10.1533L150.673 8.42289L144.819 7.25934L135.027 5.60899L127.698 4.48674L119.985 3.47865L115.646 3.01173L111.703 2.66835L103.646 2.14815L95.2978 1.81407L91.0666 1.73223L82.7226 1.77366L78.6284 1.91074L74.5688 2.12959L66.4741 2.78637L62.0453 3.26461L54.2348 4.31019L46.8592 5.57057L43.3271 6.2902L39.8576 7.08352L33.2026 8.84269L27.023 10.7784L21.4736 12.8125L16.5423 14.9622L14.0223 16.219L9.95074 18.5614L6.54708 20.9589L3.88204 23.362L2.80085 24.5953L1.16775 27.0834L0.226728 29.5842L0 32.194L0.440703 34.6298L0.912728 35.8553L2.40491 38.2669L4.71886 40.6101L7.92257 42.8508L12.2187 45.1544L17.0928 47.2482L22.788 49.1959L29.3182 50.9572L36.7987 52.5854L45.0471 54.0483L53.8401 55.2959L63.4578 56.3398L73.419 57.1438L83.8214 57.7156L94.2433 58L104.399 57.9515L114.693 57.6012L124.86 56.9527L129.786 56.5127L134.924 55.9509L139.43 55.3559L143.77 54.6728L152.089 53.0513L159.768 51.1335L163.306 50.0777L166.587 48.972L169.594 47.8213L172.343 46.6038L175.122 45.1841L179.477 42.4089L182.888 39.4849L185.311 36.5336L186.139 35.0365ZM183.323 25.826L184.253 28.8505L184.345 31.7909L184.045 33.317L183.497 34.8186L182.692 36.2776L180.306 39.1836L176.948 42.0622L174.924 43.4497L172.67 44.7878L170.329 45.9909L167.754 47.1317L164.811 48.2586L161.596 49.3414L154.432 51.356L146.525 53.106L138.099 54.5359L133.769 55.1079L124.552 56.0168L119.583 56.3737L109.404 56.8671L99.3047 57.0679L94.295 57.0519L83.9809 56.7712L73.6793 56.205L63.8143 55.4087L55.1002 54.4654L46.4121 53.2337L38.2699 51.7892L30.898 50.1847L24.4773 48.4529L21.6011 47.5244L16.4118 45.5336L12.282 43.5471L8.72692 41.3839L6.03659 39.1484L4.18911 36.8185L3.09124 34.4337L2.66019 32.0595L2.88056 29.7692L3.80262 27.3131L5.41059 24.8662L7.68851 22.4745L10.6756 20.1141L14.3732 17.7689L16.4497 16.6275L20.809 14.5435L23.2955 13.5094L28.7733 11.5016L34.871 9.59152L41.437 7.85589L48.3119 6.3703L55.5802 5.12824L63.1815 4.11025L70.8248 3.35875L78.797 2.85554L86.8951 2.66524L95.1961 2.76025L99.3316 2.89924L107.477 3.32855L115.28 3.9427L122.598 4.78754L130.082 5.85965L140.307 7.52074L149.17 9.21185L160.983 11.9253L165.747 13.1525L171.712 14.9964L172.755 15.4413L173.758 16.0401L175.708 17.3535L179.072 20.1038L181.63 22.9409L183.323 25.826Z" fill="#FFBEB8"/>
</svg>
