<svg width="164" height="105" viewBox="0 0 164 105" fill="none" xmlns="http://www.w3.org/2000/svg">
<path d="M63.9497 0.141052C69.5459 10.184 73.2744 17.4941 76.1043 23.3958C79.9503 31.4164 82.1366 36.8358 85.0962 42.9787C87.39 47.7398 90.1484 52.9355 94.5038 60.1138C95.2596 61.3594 96.0346 62.5835 96.8281 63.7856C100.73 69.6966 105.078 75.0729 109.781 79.8363C117.157 87.3072 125.405 93.2703 134.174 97.4241C143.426 101.807 153.256 104.175 163.251 104.175C163.486 94.053 162.088 84.7524 159.431 76.2339C157.054 68.6119 153.669 61.616 149.543 55.218C144.843 47.9282 139.183 41.4146 132.959 35.6351C126.916 30.0234 120.342 25.104 113.6 20.8383C106.644 16.4369 99.5087 12.7316 92.5942 9.68032C82.0646 5.03364 72.0465 1.90351 63.9497 0.141052Z" fill="#425785"/>
<g style="mix-blend-mode:multiply">
<path d="M75.7667 22.6938C75.8734 22.6728 75.9867 22.6615 76.1041 22.6615H88.0559C80.4349 14.106 72.3217 6.38785 64.7916 1.65673C64.5158 1.1585 64.2352 0.653331 63.9497 0.141052C64.8231 0.331165 65.7188 0.537191 66.6352 0.759317C74.0872 5.49503 81.954 12.9404 89.2993 21.0994L91.4564 9.59275C91.4792 9.47136 91.5469 9.36046 91.6477 9.26609C91.9627 9.4028 92.2782 9.54088 92.5942 9.68032C92.9486 9.83672 93.3036 9.99484 93.6591 10.1547L91.205 23.245C96.2549 29.0062 101.035 35.0567 105.23 40.7444L112.484 20.6727C112.533 20.5361 112.639 20.4174 112.782 20.3242C113.055 20.4945 113.328 20.6659 113.6 20.8383C113.919 21.0401 114.238 21.2434 114.556 21.4481L106.804 42.8985C110.752 48.3537 114.107 53.3885 116.575 57.3963C117.472 58.8514 118.405 60.2851 119.371 61.6962L131.863 35.4211C131.941 35.2569 132.101 35.123 132.305 35.0322C132.524 35.2322 132.742 35.4332 132.959 35.6351C133.236 35.8926 133.513 36.1515 133.788 36.4118L120.798 63.7331C124.812 69.3321 129.305 74.5489 133.922 79.2895L148.473 54.9553C148.59 54.7599 148.823 54.615 149.102 54.5403C149.25 54.7655 149.397 54.9914 149.543 55.218C149.756 55.548 149.967 55.8795 150.176 56.2126L135.451 80.8372C141.407 86.7852 147.501 91.928 152.983 96.0667L158.302 76.1103C158.384 75.8027 158.753 75.5727 159.203 75.5141C159.28 75.7534 159.356 75.9933 159.431 76.2339C159.644 76.9154 159.848 77.6019 160.045 78.2934L154.923 97.5089C157.989 99.7515 160.819 101.651 163.269 103.17C163.264 103.504 163.258 103.839 163.251 104.175C162.686 104.175 162.122 104.168 161.558 104.153C159.077 102.61 156.235 100.698 153.171 98.4554L135.831 98.1846C135.276 97.9382 134.724 97.6847 134.174 97.4241C133.868 97.2791 133.563 97.132 133.258 96.9827C133.473 96.7999 133.817 96.684 134.202 96.69L151.153 96.9548C145.629 92.7791 139.504 87.6047 133.519 81.6277L110.55 80.6067C110.293 80.3517 110.036 80.0949 109.781 79.8363C109.577 79.6301 109.374 79.4227 109.172 79.2141C109.37 79.1343 109.609 79.0926 109.86 79.1037L131.998 80.0878C127.375 75.3436 122.873 70.1238 118.84 64.52H97.317C97.1533 64.2761 96.9903 64.0313 96.8281 63.7856C96.6796 63.5606 96.5317 63.3348 96.3845 63.1083C96.5209 63.0715 96.6707 63.0513 96.8279 63.0513H117.801C116.635 61.3781 115.513 59.6721 114.444 57.9356C112.023 54.0051 108.737 49.0694 104.868 43.7131H85.4521C85.3321 43.467 85.2136 43.2223 85.0962 42.9787C84.983 42.7437 84.8708 42.5097 84.7597 42.2765C84.8661 42.2556 84.979 42.2444 85.096 42.2444H103.8C99.5106 36.3843 94.5759 30.1014 89.3523 24.1302H76.4553C76.3399 23.8878 76.2229 23.643 76.1043 23.3958C75.9932 23.164 75.8806 22.93 75.7667 22.6938Z" fill="#425785"/>
</g>
</svg>
