<svg width="62" height="52" viewBox="0 0 62 52" fill="none" xmlns="http://www.w3.org/2000/svg">
<path d="M61.7778 0.981201C57.3734 6.34991 54.3023 10.3062 51.8932 13.5257C48.6192 17.901 46.568 20.9154 44.055 24.2645C42.1073 26.8602 39.8821 29.657 36.5952 33.4443C36.0248 34.1014 35.4517 34.7428 34.8762 35.3679C32.0464 38.4423 29.1604 41.126 26.2713 43.384C21.7399 46.9255 17.2008 49.4198 12.8584 50.732C8.27657 52.1164 3.91369 52.1846 0.00991241 50.7778C2.15397 44.5396 4.75459 39.035 7.6742 34.1871C10.2866 29.8493 13.1543 26.0374 16.1789 22.696C19.6251 18.8888 23.2749 15.6926 26.9826 13.0258C30.5826 10.4364 34.2371 8.34609 37.8127 6.68019C41.5022 4.96126 45.1075 3.69419 48.4823 2.79696C53.6216 1.43061 58.226 0.921924 61.7778 0.981201Z" fill="#6177A7"/>
</svg>
