<svg width="82" height="70" viewBox="0 0 82 70" fill="none" xmlns="http://www.w3.org/2000/svg">
<path d="M49.8833 0.460083C47.0728 7.11608 45.2003 11.9608 43.7791 15.8722C41.8476 21.1879 40.7496 24.7796 39.2632 28.8509C38.1112 32.0063 36.7259 35.4498 34.5385 40.2072C34.159 41.0327 33.7698 41.844 33.3713 42.6407C31.4117 46.5582 29.228 50.1214 26.8662 53.2783C23.1619 58.2297 19.0193 62.1817 14.6157 64.9347C9.9693 67.8394 5.03231 69.4091 0.0128517 69.4091C-0.105534 62.7005 0.596542 56.5365 1.93094 50.8908C3.12492 45.8393 4.82513 41.2028 6.89683 36.9625C9.25731 32.1312 12.1 27.8142 15.2257 23.9839C18.2606 20.2647 21.5622 17.0043 24.9481 14.1773C28.4417 11.2602 32.025 8.80454 35.4976 6.78226C40.7857 3.70266 45.8169 1.62816 49.8833 0.460083Z" fill="#6177A7"/>
<g style="mix-blend-mode:multiply">
<path d="M43.9486 15.407C43.8951 15.3931 43.8381 15.3855 43.7792 15.3855H37.7768C41.6042 9.71539 45.6788 4.60017 49.4605 1.46461C49.599 1.1344 49.7399 0.799598 49.8833 0.460083C49.4447 0.586081 48.9948 0.722625 48.5346 0.86984C44.7921 4.00845 40.8413 8.94288 37.1524 14.3503L36.069 6.72422C36.0576 6.64377 36.0236 6.57027 35.973 6.50773C35.8147 6.59833 35.6563 6.68984 35.4976 6.78226C35.3196 6.88592 35.1413 6.99071 34.9628 7.09665L36.1952 15.7723C33.6591 19.5905 31.2585 23.6005 29.1515 27.3701L25.5088 14.0675C25.484 13.977 25.4308 13.8983 25.3591 13.8365C25.222 13.9494 25.085 14.063 24.9481 14.1773C24.7879 14.311 24.6279 14.4457 24.4682 14.5814L28.3611 28.7977C26.3785 32.4132 24.6935 35.75 23.4539 38.4062C23.0038 39.3705 22.5349 40.3207 22.05 41.2559L15.7762 23.842C15.737 23.7332 15.6568 23.6445 15.5542 23.5843C15.4444 23.7169 15.3349 23.8501 15.2257 23.9839C15.0864 24.1545 14.9478 24.3261 14.8097 24.4987L21.3332 42.6059C19.3173 46.3166 17.0611 49.7741 14.7421 52.9159L7.43424 36.7884C7.37557 36.6589 7.25863 36.5628 7.11841 36.5133C7.04409 36.6626 6.97023 36.8123 6.89683 36.9625C6.79 37.1812 6.68417 37.4009 6.57933 37.6216L13.9744 53.9417C10.9833 57.8837 7.92268 61.2922 5.16941 64.0351L2.49825 50.8089C2.45707 50.605 2.27156 50.4526 2.04551 50.4138C2.00682 50.5724 1.96863 50.7314 1.93094 50.8908C1.82419 51.3425 1.72149 51.7975 1.62292 52.2558L4.19492 64.9909C2.65528 66.4772 1.2342 67.736 0.00376892 68.7428C0.00589752 68.9643 0.00892258 69.1864 0.0128517 69.4091C0.296452 69.4091 0.579792 69.4041 0.862827 69.3941C2.10891 68.3716 3.5361 67.1047 5.07514 65.6182L13.7837 65.4387C14.062 65.2754 14.3393 65.1074 14.6157 64.9347C14.7693 64.8386 14.9227 64.7411 15.0757 64.6421C14.9678 64.521 14.7947 64.4442 14.6017 64.4481L6.08825 64.6237C8.86255 61.8562 11.9388 58.4269 14.9444 54.4656L26.4799 53.7889C26.6092 53.6199 26.7379 53.4497 26.8662 53.2783C26.9684 53.1416 27.0704 53.0042 27.172 52.866C27.0724 52.8131 26.9528 52.7854 26.8264 52.7928L15.7083 53.445C18.0299 50.3008 20.2909 46.8413 22.3163 43.1274H33.1257C33.208 42.9658 33.2898 42.8035 33.3713 42.6407C33.4459 42.4916 33.5201 42.3419 33.5941 42.1918C33.5256 42.1674 33.4503 42.154 33.3714 42.154H22.8386C23.4238 41.0451 23.9872 39.9144 24.5244 38.7636C25.7401 36.1587 27.3905 32.8875 29.3337 29.3376H39.0845C39.1447 29.1745 39.2043 29.0123 39.2632 28.8509C39.3201 28.6951 39.3764 28.54 39.4322 28.3855C39.3788 28.3716 39.3221 28.3642 39.2633 28.3642H29.87C32.0241 24.4804 34.5024 20.3164 37.1257 16.3589H43.6028C43.6608 16.1983 43.7195 16.0361 43.7791 15.8722C43.8349 15.7186 43.8914 15.5635 43.9486 15.407Z" fill="#6177A7"/>
</g>
</svg>
