<svg width="87" height="87" viewBox="0 0 87 87" fill="none" xmlns="http://www.w3.org/2000/svg">
<path d="M61.7778 13.981C57.3734 19.3497 54.3023 23.306 51.8932 26.5254C48.6192 30.9008 46.568 33.9152 44.055 37.2643C42.1073 39.86 39.8821 42.6568 36.5952 46.444C36.0248 47.1012 35.4517 47.7425 34.8762 48.3677C32.0464 51.442 29.1604 54.1257 26.2713 56.3837C21.7399 59.9252 17.2008 62.4196 12.8584 63.7317C8.27657 65.1162 3.91369 65.1844 0.00991241 63.7776C2.15397 57.5393 4.75459 52.0347 7.6742 47.1868C10.2866 42.8491 13.1543 39.0371 16.1789 35.6957C19.6251 31.8886 23.2749 28.6924 26.9826 26.0256C30.5826 23.4362 34.2371 21.3458 37.8127 19.6799C41.5022 17.961 45.1075 16.6939 48.4823 15.7967C53.6216 14.4304 58.226 13.9217 61.7778 13.981Z" fill="#6177A7"/>
<g style="mix-blend-mode:multiply">
<path d="M52.1801 26.1427C52.1431 26.1148 52.1014 26.0919 52.0555 26.0753L47.3873 24.393C52.2539 20.2212 57.1279 16.6319 61.1142 14.7916C61.332 14.525 61.5532 14.2548 61.7778 13.981C61.3947 13.9746 60.9993 13.9748 60.5923 13.982C56.6355 15.8361 51.9181 19.2928 47.2467 23.2605L48.9461 15.9032C48.964 15.8256 48.962 15.748 48.9435 15.676C48.7903 15.7155 48.6365 15.7557 48.4823 15.7967C48.3093 15.8427 48.1358 15.8897 47.9616 15.9376L46.0283 24.3075C42.7832 27.1284 39.5795 30.1645 36.6844 33.0606L38.2854 19.7355C38.2963 19.6449 38.2812 19.5572 38.246 19.48C38.1017 19.5459 37.9573 19.6126 37.8127 19.6799C37.6436 19.7587 37.4743 19.8385 37.3048 19.9192L35.5938 34.1595C32.8468 36.948 30.4241 39.5621 28.5746 41.6715C27.9032 42.4373 27.2218 43.1848 26.5329 43.9138L27.458 26.0487C27.4638 25.937 27.431 25.8325 27.3713 25.748C27.2417 25.8399 27.1121 25.9324 26.9826 26.0256C26.8174 26.1444 26.6524 26.2642 26.4875 26.3851L25.5255 44.9616C22.7208 47.8288 19.8136 50.3944 16.9628 52.6505L16.6549 35.6853C16.6525 35.5491 16.5935 35.4274 16.501 35.3424C16.3934 35.4596 16.2861 35.5774 16.1789 35.6957C16.023 35.868 15.8674 36.0416 15.7123 36.2164L16.0239 53.3841C12.3836 56.1919 8.86719 58.4867 5.81161 60.2521L8.14272 47.27C8.17865 47.0699 8.08519 46.8769 7.92233 46.7777C7.83937 46.9135 7.75666 47.0499 7.67421 47.1868C7.44064 47.5747 7.20911 47.9667 6.97969 48.363L4.73513 60.8631C3.04228 61.8063 1.51747 62.5724 0.224964 63.1587C0.152782 63.3642 0.0810982 63.5705 0.009915 63.7776C0.230478 63.857 0.452511 63.9318 0.675965 64.0019C1.98592 63.4054 3.51817 62.6336 5.21059 61.69L12.0433 63.9647C12.3142 63.8917 12.5859 63.814 12.8584 63.7317C13.0099 63.6859 13.1617 63.6387 13.3137 63.59C13.2701 63.4478 13.1611 63.3282 13.0097 63.2778L6.33003 61.054C9.41014 59.2719 12.9457 56.9621 16.6036 54.1405L25.8007 56.7477C25.9576 56.6276 26.1144 56.5063 26.2713 56.3837C26.3964 56.286 26.5215 56.1874 26.6465 56.088C26.5867 56.0112 26.5029 55.9521 26.4022 55.9235L17.5379 53.4107C20.3915 51.1531 23.3031 48.587 26.1162 45.7195L34.523 48.7491C34.6409 48.6226 34.7586 48.4955 34.8762 48.3677C34.984 48.2507 35.0916 48.1331 35.1991 48.0149C35.154 47.9732 35.0999 47.9397 35.0385 47.9176L26.8469 44.9656C27.6716 44.1039 28.4867 43.216 29.2881 42.3021C31.1018 40.2334 33.4758 37.6703 36.1703 34.9315L43.7538 37.6644C43.855 37.5304 43.9554 37.3971 44.055 37.2643C44.1512 37.1361 44.2467 37.0085 44.3416 36.8812C44.3046 36.8534 44.263 36.8306 44.2173 36.8141L36.9119 34.1815C39.8817 31.193 43.1971 28.036 46.5564 25.1109L51.5939 26.9262C51.6925 26.7939 51.7923 26.6603 51.8932 26.5254C51.9878 26.399 52.0834 26.2714 52.1801 26.1427Z" fill="#6177A7"/>
</g>
</svg>
