<svg width="272" height="210" viewBox="0 0 272 210" fill="none" xmlns="http://www.w3.org/2000/svg">
<path d="M221.926 0.0354385C220.196 0.222939 212.03 1.28544 210.196 1.5771C209.259 1.72294 208.613 2.0146 207.488 2.7646C205.301 4.24377 205.176 4.57711 205.092 8.97294C205.051 10.9104 204.926 12.6188 204.801 12.7646C204.696 12.8896 204.301 13.0771 203.946 13.1604C203.571 13.2229 202.738 13.4729 202.071 13.6813C201.28 13.9313 200.717 13.9938 200.405 13.8896C200.155 13.7854 198.217 12.5146 196.092 11.0354C189.884 6.76461 190.301 6.99377 189.113 6.99377C187.53 6.99377 185.697 8.34794 181.134 12.8896C175.905 18.0771 176.092 17.8479 176.092 19.0979C176.092 20.6396 176.072 20.5979 180.613 25.3688C181.78 26.5979 182.342 27.3271 182.342 27.6604C182.322 27.9313 181.322 29.6396 180.092 31.4729L177.863 34.8063L174.113 34.9313L170.363 35.0354L168.884 36.0563C166.801 37.4938 166.905 37.1813 165.78 44.1813C165.613 45.2021 165.342 46.8896 165.155 47.9313C164.676 50.8063 164.717 51.7646 165.447 52.7646C165.78 53.2229 166.322 53.7021 166.634 53.8271C166.967 53.9729 168.822 54.3063 170.738 54.5979C172.655 54.8688 174.322 55.1604 174.447 55.2229C174.655 55.3688 175.551 57.2229 176.905 60.4104C177.155 60.9729 177.342 61.6604 177.342 61.9313C177.342 62.5354 176.134 64.1396 173.697 66.7854C171.801 68.8479 171.384 69.7229 171.634 71.0563C171.801 71.9729 172.176 72.4521 176.342 77.0146C176.592 77.3063 177.676 78.4938 178.697 79.6813C180.801 82.0563 181.572 82.6188 182.78 82.6188C183.842 82.6188 184.384 82.3271 188.78 79.4104C190.78 78.0771 192.592 76.9938 192.822 76.9938C193.467 76.9938 198.342 79.4521 198.592 79.8896C198.717 80.1396 198.801 82.0146 198.801 84.4313C198.821 88.9729 198.946 89.5563 200.113 90.4104C200.696 90.8271 200.946 90.8479 209.592 90.9104C219.551 90.9729 219.488 90.9729 220.363 89.4938C220.717 88.8688 220.78 88.3271 220.842 85.4938C220.926 82.2646 220.926 82.2021 221.446 81.7854C221.738 81.5563 222.134 81.3688 222.321 81.3688C222.53 81.3688 222.759 81.2854 222.884 81.1813C222.988 81.0771 223.405 80.8896 223.801 80.7854C224.196 80.6604 224.905 80.4313 225.363 80.2438C228.53 79.0771 229.571 78.7438 229.842 78.8063C230.009 78.8479 230.946 80.0771 231.926 81.5146C235.634 87.0354 236.009 87.4104 237.905 87.4104H238.988L243.426 83.2646C249.655 77.4729 250.592 76.4521 250.759 75.4104C250.946 74.2854 250.571 73.3479 249.155 71.5979C245.696 67.2854 245.009 66.2438 245.259 65.7646C245.363 65.5771 246.009 64.4938 246.676 63.3271C247.363 62.1813 247.967 61.0354 248.051 60.8063C248.342 59.8688 249.03 59.5771 251.613 59.2021C252.988 59.0146 255.009 58.7021 256.092 58.5354C257.176 58.3688 258.363 58.2438 258.717 58.2438C259.696 58.2438 261.217 57.4938 261.759 56.7229C262.176 56.1396 262.238 55.8063 262.238 54.0771C262.238 50.8896 261.696 40.7021 261.488 39.8688C261.384 39.4521 261.051 38.8271 260.78 38.4938C259.884 37.4313 259.426 37.3479 255.321 37.5354C253.28 37.6396 251.405 37.7021 251.155 37.6604C250.863 37.6188 250.509 37.2438 250.134 36.5146C249.196 34.7646 247.634 31.7854 246.78 30.1604L245.988 28.6396L247.259 27.4521C247.946 26.8063 249.342 25.5146 250.342 24.6188C252.592 22.5771 252.967 22.0146 252.967 20.5979C252.967 19.5146 252.946 19.4938 249.509 14.8896C246.613 11.0146 245.905 10.2229 245.196 9.88961C244.03 9.36877 243.446 9.38961 242.446 10.0146C241.988 10.2854 241.28 10.7021 240.884 10.9313C240.488 11.1396 239.592 11.8271 238.905 12.4521C236.113 14.9104 235.071 15.7438 234.676 15.7438C234.446 15.7438 233.717 15.3479 233.051 14.8479C232.363 14.3688 230.842 13.3063 229.676 12.5146C228.488 11.7021 227.426 10.8896 227.321 10.7021C227.217 10.4938 226.988 9.32711 226.821 8.09794C226.134 3.18127 225.905 1.97294 225.488 1.3896C224.696 0.285439 223.592 -0.131233 221.926 0.0354385ZM221.301 4.49377C221.426 4.72294 221.613 5.63961 221.717 6.53544C221.821 7.41044 222.009 8.63961 222.134 9.26461C222.238 9.86877 222.342 10.7438 222.342 11.1604C222.342 11.5979 222.53 12.3688 222.759 12.8896C223.259 14.0146 223.988 14.5979 228.863 17.8896C231.988 20.0146 232.196 20.1188 233.217 20.1188C234.155 20.1188 234.488 19.9938 235.759 19.1396C236.571 18.5979 237.342 18.0563 237.446 17.9313C237.571 17.8063 238.071 17.3688 238.592 16.9521C239.113 16.5354 240.051 15.7229 240.676 15.1396C241.301 14.5563 242.009 14.0979 242.238 14.0979C242.738 14.0979 248.384 21.4729 248.363 22.1188C248.363 22.3479 247.426 23.3271 246.155 24.4938C242.488 27.7646 242.446 28.0771 244.717 32.4729C248.613 40.0146 248.405 39.7021 249.738 40.3688C250.53 40.7854 250.696 40.7854 253.384 40.5563C257.092 40.2438 258.28 40.2646 258.571 40.5979C258.842 40.9313 259.509 54.7021 259.259 54.9521C259.03 55.1813 253.821 55.9938 250.113 56.3688C247.717 56.6188 246.884 57.1188 245.78 58.9729C242.592 64.3688 242.301 64.9729 242.28 66.1604C242.238 67.4729 242.134 67.2646 245.655 71.8896C246.821 73.4313 247.759 74.8271 247.696 74.9729C247.551 75.3479 238.051 84.4938 237.801 84.4938C237.509 84.4938 237.092 83.9521 234.967 80.7854C232.217 76.7021 232.155 76.6188 231.176 76.1188C230.092 75.5979 229.301 75.6604 226.926 76.5771C225.946 76.9313 223.988 77.6604 222.551 78.1604C218.176 79.7021 218.113 79.8063 217.967 84.3896C217.905 86.2646 217.801 87.8479 217.738 87.9313C217.488 88.1604 202.301 88.0354 202.009 87.8063C201.801 87.6396 201.717 86.4313 201.676 83.1813C201.592 77.4313 202.051 78.0979 196.28 75.2021C193.155 73.6188 192.28 73.4938 190.967 74.4521C190.509 74.7854 190.051 75.0979 189.947 75.1396C189.822 75.1813 188.322 76.1813 186.572 77.3479C184.842 78.4938 183.238 79.5146 183.03 79.5771C182.738 79.6813 182.134 79.1396 180.363 77.1604C175.78 72.0563 174.842 70.9521 174.842 70.6188C174.842 70.1396 178.322 66.0146 180.613 63.7438C181.113 63.2854 181.697 62.4521 181.947 61.9104C182.363 60.9521 182.363 60.8688 182.051 59.9104C181.863 59.3479 181.363 58.1188 180.905 57.1604C180.467 56.2021 179.78 54.7229 179.384 53.8688C178.967 53.0146 178.426 52.0979 178.155 51.8479C177.634 51.3896 175.53 50.7438 174.509 50.7438C174.009 50.7438 171.988 50.4104 169.863 49.9938C169.426 49.8896 169.384 49.8063 169.509 49.1188C169.759 47.6188 170.884 40.1188 170.884 39.9104C170.884 39.8063 171.072 39.5146 171.301 39.2854C171.676 38.9104 171.988 38.8688 174.884 38.8688H178.051L179.447 37.9313C181.051 36.8479 181.363 36.5146 183.051 33.8271C183.738 32.7646 184.926 30.9313 185.697 29.7854C188.134 26.0771 188.092 25.9104 183.03 20.7021C181.863 19.4938 180.884 18.3063 180.884 18.0979C180.863 17.6604 187.217 11.3688 187.676 11.3688C187.926 11.3688 190.051 12.7854 195.009 16.2438C198.092 18.4104 198.467 18.5146 200.259 17.9521C200.78 17.7854 201.759 17.4938 202.446 17.2854C203.134 17.0979 204.051 16.8063 204.488 16.6604C204.905 16.4938 205.426 16.3688 205.634 16.3688C206.238 16.3688 209.092 14.3271 209.467 13.5979C209.759 13.0354 209.821 12.3271 209.842 9.36877C209.842 6.76461 209.905 5.74377 210.113 5.5771C210.238 5.47294 211.259 5.2646 212.342 5.11877C213.426 4.97294 215.551 4.7021 217.03 4.49377C220.759 3.99377 221.03 3.99377 221.301 4.49377Z" fill="#C0C6D5"/>
<path d="M212.968 31.1396C207.364 32.4937 203.301 36.4104 201.905 41.8062C201.28 44.2437 201.405 47.8271 202.239 50.1812C204.259 55.9729 209.78 59.9104 215.884 59.9104C225.197 59.9104 232.259 51.0562 230.072 42.1396C229.384 39.3896 228.134 37.1396 226.197 35.2021C224.509 33.5146 224.301 33.3687 222.03 32.2437C219.28 30.8896 215.78 30.4521 212.968 31.1396ZM218.176 34.3062C219.009 34.6396 221.551 36.3062 222.364 37.0354C223.072 37.6604 224.03 38.9521 224.676 40.1187C226.363 43.2437 226.488 48.1604 224.905 50.7021C223.426 53.0771 222.051 54.2646 218.759 56.0354C217.134 56.9104 216.864 56.9937 215.551 56.9937C212.343 56.9937 208.801 55.1604 206.739 52.4521C205.093 50.2854 204.364 48.1187 204.364 45.4312C204.364 40.2437 207.509 35.9312 212.551 34.2854C213.926 33.8271 217.03 33.8479 218.176 34.3062Z" fill="#C0C6D5"/>
<path d="M72.2383 20.5354C69.5924 20.8479 68.8008 21.3688 68.8008 22.7854C68.8008 24.3271 69.9049 25.0563 71.7383 24.7021C72.3216 24.5771 74.9466 24.4938 77.5716 24.4938H82.3216L82.7383 23.9521C83.3424 23.1813 83.4466 22.7021 83.1758 21.8896C82.7799 20.6813 82.2591 20.5563 77.8216 20.4521C75.6758 20.3896 73.1549 20.4313 72.2383 20.5354Z" fill="#69779B"/>
<path d="M91.7174 21.8478C91.1341 22.3062 90.6758 23.1187 90.6758 23.702C90.6758 24.577 91.8008 25.7437 92.6549 25.7437C93.0299 25.7437 94.0299 25.8895 94.8633 26.0562C95.7174 26.2437 97.1133 26.5353 97.9674 26.702C98.8216 26.8687 100.405 27.2437 101.447 27.5353C103.863 28.1603 104.426 28.1603 105.113 27.5353C106.405 26.3478 105.884 24.2853 104.217 23.952C103.926 23.9103 103.28 23.7228 102.759 23.577C102.238 23.4103 101.072 23.1395 100.155 22.9312C99.2383 22.7437 98.1133 22.5145 97.6549 22.4103C96.3841 22.1187 93.0299 21.577 92.4883 21.577C92.2383 21.577 91.8841 21.702 91.7174 21.8478Z" fill="#69779B"/>
<path d="M60.176 23.5563C59.8635 23.7229 59.4676 23.8688 59.3218 23.8688C59.1551 23.8688 58.7801 23.9938 58.4468 24.1604C58.1343 24.3271 57.5301 24.5979 57.1343 24.7646C56.3635 25.0979 53.2593 26.5354 51.7385 27.2854C50.5301 27.8688 50.0926 28.7438 50.426 29.8688C50.6135 30.4729 50.8635 30.7438 51.4051 31.0146C51.8218 31.2021 52.2385 31.3688 52.3426 31.3688C52.4676 31.3688 53.5093 30.9104 54.6968 30.3479C57.2176 29.1188 59.2593 28.2438 61.051 27.6188C62.5718 27.0563 63.176 26.4313 63.176 25.3479C63.176 24.5146 62.9468 24.1188 62.1343 23.5771C61.5093 23.1604 60.9468 23.1604 60.176 23.5563Z" fill="#69779B"/>
<path d="M113.676 28.2229C112.801 28.7646 112.467 29.7229 112.842 30.6188C113.092 31.2021 113.53 31.4938 116.009 32.7229C117.613 33.5146 119.801 34.6813 120.884 35.3271C124.634 37.5771 125.113 37.7021 126.196 36.6396C126.759 36.0563 126.905 35.0146 126.488 34.2646C126.28 33.8688 123.613 31.9938 123.259 31.9938C123.176 31.9938 122.946 31.8479 122.759 31.6813C122.217 31.1813 115.634 27.9938 114.946 27.9104C114.551 27.8479 114.092 27.9521 113.676 28.2229Z" fill="#69779B"/>
<path d="M42.863 32.4521C39.9672 34.0771 34.5088 38.2438 34.0713 39.1813C33.4463 40.4729 34.363 41.9938 35.7797 41.9938C36.4047 41.9938 37.0297 41.5979 39.8005 39.5354C41.5922 38.1813 43.4047 36.8688 43.8213 36.6188C45.238 35.7646 45.6755 35.2229 45.6755 34.2854C45.6755 32.7438 44.1338 31.7438 42.863 32.4521Z" fill="#69779B"/>
<path d="M132.801 40.4521C132.134 40.9104 131.655 41.9312 131.822 42.5562C131.884 42.8479 133.134 44.2646 134.592 45.7229C136.072 47.1604 138.092 49.2646 139.092 50.3687C140.822 52.3062 140.988 52.4104 141.759 52.4104C143.488 52.4104 144.363 50.5771 143.342 49.1396C141.884 47.1396 136.822 41.9104 135.176 40.7021C134.259 40.0562 133.488 39.9521 132.801 40.4521Z" fill="#69779B"/>
<path d="M73.4884 42.5146C73.155 42.6604 72.5925 43.0771 72.2384 43.4521C71.6342 44.0771 71.6134 44.1812 71.6342 45.8062C71.655 46.7437 71.78 48.0771 71.905 48.7437C72.1342 50.0354 72.2384 61.3062 72.0092 62.1396C71.8842 62.5562 67.4259 66.1812 66.6759 66.4729C66.3425 66.5979 66.1134 66.3479 64.1134 63.7646C56.0717 53.2646 55.1759 52.1604 54.3634 51.7437C52.5717 50.7854 51.4675 51.3687 44.6134 56.9104C42.3634 58.7437 38.7592 61.6187 36.5925 63.3479C31.8634 67.1187 30.1759 68.7229 29.9884 69.6187C29.6967 71.0562 30.0925 71.6396 34.2175 75.9312C36.3842 78.1812 38.8009 80.6604 39.6134 81.4729C40.5925 82.4312 41.0925 83.0771 41.0925 83.3896C41.0925 83.6604 40.8009 84.5146 40.4467 85.2854C39.0509 88.3062 38.7592 88.9312 38.155 90.4729C37.8009 91.3687 37.405 92.2021 37.3009 92.3479C37.0925 92.5979 35.7384 92.9312 32.2384 93.5562C30.2175 93.9104 29.4259 94.0562 26.1759 94.6812C24.3634 95.0146 23.8842 95.2021 22.6342 96.0354C20.3425 97.5771 20.4675 96.9104 20.4675 107.285C20.4675 115.744 20.4884 116.244 20.8634 116.869C21.0925 117.223 21.5925 117.702 21.9675 117.931C22.6134 118.327 23.0925 118.348 28.655 118.41L34.6342 118.473L37.8634 124.952C39.6342 128.494 41.0925 131.64 41.0925 131.89C41.0925 132.16 40.4467 133.39 39.6342 134.64C38.8425 135.869 37.8425 137.452 37.405 138.14C36.9884 138.827 35.8009 140.64 34.8009 142.181C32.6342 145.452 32.3217 146.327 32.8217 147.66C33.1967 148.619 33.28 148.702 40.7592 155.181C42.2384 156.473 44.8009 158.702 46.4675 160.181C49.6342 162.952 50.4467 163.41 51.7592 163.16C52.8634 162.952 55.2592 161.181 56.155 159.89C56.5925 159.265 57.9675 157.41 59.1967 155.744L61.4467 152.723L62.3634 152.744C62.8634 152.744 64.5092 153.015 65.9884 153.306C67.4884 153.619 69.3009 153.973 70.0509 154.098C71.8634 154.431 72.3425 154.744 72.3425 155.577C72.3425 156.223 72.6967 159.369 73.28 164.077C73.4467 165.39 73.5925 166.806 73.5925 167.202C73.6134 168.265 74.2384 169.431 75.1134 170.015C75.9675 170.619 77.28 170.681 80.8217 170.327C81.9467 170.223 84.655 169.994 86.8217 169.806C89.0092 169.64 92.4675 169.327 94.53 169.16L98.28 168.806L99.6759 167.91C102.134 166.285 102.593 165.306 102.051 162.973C101.905 162.265 101.593 160.89 101.405 159.91C101.218 158.931 100.926 157.577 100.78 156.89C100.009 153.431 99.9467 152.973 100.343 152.744C100.53 152.619 101.322 152.098 102.093 151.598C102.863 151.098 103.78 150.535 104.113 150.348C104.468 150.16 105.134 149.744 105.613 149.431C106.113 149.119 106.634 148.869 106.822 148.869C106.988 148.869 108.759 150.077 110.738 151.535C117.405 156.494 117.488 156.535 118.884 156.285C119.572 156.16 121.905 154.681 124.53 152.723C125.218 152.202 126.405 151.348 127.176 150.806C133.28 146.452 135.926 144.452 136.884 143.515C137.905 142.473 137.968 142.369 137.968 141.348C137.968 140.119 137.718 139.681 132.509 131.681C131.384 129.952 130.468 128.348 130.468 128.098C130.468 127.848 130.593 127.223 130.759 126.744C130.905 126.244 131.197 125.244 131.405 124.494C131.593 123.744 131.863 122.848 131.968 122.515C132.093 122.16 132.259 121.515 132.343 121.056C132.655 119.598 133.322 117.431 133.572 117.119C133.884 116.765 134.093 116.681 138.697 115.223C146.718 112.681 147.468 112.41 148.009 111.827C149.072 110.723 149.093 110.056 148.28 104.39C148.009 102.41 147.759 100.64 147.03 94.9521C146.405 90.2646 146.301 89.7229 145.718 89.0354C145.113 88.3062 144.113 87.8271 143.218 87.8271C142.884 87.8271 141.905 88.0562 141.072 88.3271C140.218 88.5771 138.551 89.0979 137.343 89.4729C136.134 89.8479 134.884 90.2437 134.53 90.3479C134.197 90.4729 133.634 90.6604 133.28 90.7437C132.947 90.8479 132.072 91.0979 131.343 91.3271C130.134 91.7229 130.03 91.7229 129.655 91.4104C129.447 91.2021 128.863 89.9729 128.384 88.6604C127.884 87.3479 126.988 84.9729 126.384 83.3896C125.759 81.8062 125.259 80.3062 125.259 80.0354C125.259 79.7021 125.634 79.2437 126.488 78.5146C127.176 77.9521 128.447 76.8271 129.343 76.0354C131.843 73.7854 133.218 72.5771 134.03 71.8896C135.384 70.7021 135.884 69.8687 135.884 68.7437C135.884 68.0979 135.738 67.4937 135.488 67.0979C134.509 65.5771 125.259 54.3479 124.634 53.9312C124.259 53.6604 123.634 53.4521 123.238 53.4521C121.905 53.4521 121.176 53.9312 117.009 57.5562C115.905 58.5354 113.572 60.5354 111.426 62.3687C110.822 62.8896 110.468 63.0562 110.072 62.9729C109.593 62.8896 105.759 61.4937 102.134 60.1187C101.509 59.8687 100.718 59.5771 100.363 59.4729C100.03 59.3687 99.5509 59.2021 99.3217 59.0979C99.0925 58.9937 98.4884 58.7437 97.9675 58.5354C97.4467 58.3271 96.9259 58.0771 96.78 57.9729C96.5925 57.8479 96.5092 56.0146 96.4675 51.0562C96.405 44.6187 96.3842 44.2854 95.9675 43.7437C95.7384 43.4312 95.28 42.9729 94.9675 42.7437C94.405 42.3271 94.1342 42.3062 84.2592 42.2646C76.1342 42.2437 73.9884 42.2854 73.4884 42.5146ZM93.3425 45.3687C93.53 45.5562 93.5925 47.2646 93.5925 51.8062C93.5925 55.2021 93.655 58.2854 93.7175 58.6396C93.8842 59.4104 94.78 60.3896 95.7384 60.8271C96.3425 61.0979 98.2175 61.8062 104.009 63.9104C104.988 64.2646 106.572 64.8479 107.551 65.2229C111.28 66.6396 110.801 66.8271 116.926 61.4937C120.509 58.3896 120.426 58.4521 121.78 57.3479C122.488 56.7646 123.093 56.4312 123.28 56.4937C123.447 56.5771 123.593 56.6812 123.593 56.7646C123.593 56.8479 124.176 57.6187 124.905 58.4937C126.551 60.4937 130.447 65.3687 131.884 67.2229C133.113 68.8479 133.113 69.0146 131.822 69.9937C131.426 70.3062 130.863 70.7646 130.593 71.0146C130.322 71.2646 128.697 72.6812 127.009 74.1812C122.718 77.9521 122.384 78.2854 122.238 79.3479C122.093 80.2854 122.405 81.8687 122.759 82.0979C122.884 82.1604 122.968 82.4104 122.968 82.6187C122.968 82.8271 123.093 83.2646 123.259 83.5979C123.426 83.9104 123.697 84.5562 123.884 85.0146C127.009 93.1812 127.155 93.5354 128.03 94.1604C128.926 94.8062 130.53 94.7229 133.176 93.9104C134.384 93.5146 135.676 93.0771 136.051 92.9104C136.426 92.7437 136.905 92.6187 137.134 92.6187C137.363 92.6187 137.843 92.4937 138.218 92.3271C138.593 92.1604 139.468 91.8687 140.155 91.6812C140.843 91.4729 141.759 91.1812 142.176 91.0354C142.613 90.8687 143.093 90.8062 143.259 90.8687C143.572 90.9937 143.822 92.2437 144.218 95.6396C144.322 96.6604 144.613 98.9729 144.843 100.744C145.613 106.535 145.884 108.765 145.884 109.327C145.884 109.869 145.78 109.931 141.676 111.244C139.343 111.973 136.322 112.931 134.947 113.369C133.572 113.785 132.238 114.285 131.968 114.452C131.28 114.89 130.634 115.89 130.447 116.765C130.363 117.181 129.676 119.765 128.905 122.515C127.218 128.681 127.218 128.848 128.822 131.369C129.426 132.348 130.343 133.723 130.822 134.452C131.322 135.181 131.718 135.806 131.718 135.848C131.718 135.89 132.426 136.973 133.28 138.285C134.134 139.577 134.843 140.785 134.843 140.952C134.822 141.181 128.572 145.973 122.384 150.473C122.197 150.619 121.676 151.015 121.218 151.369C120.78 151.702 120.218 151.994 119.968 151.994C119.738 151.994 118.738 151.39 117.759 150.64C110.051 144.806 109.509 144.473 107.947 144.785C107.405 144.89 103.655 147.015 101.301 148.556C100.905 148.806 99.6134 149.64 98.4675 150.39C94.9884 152.64 94.8634 153.015 95.8842 157.515C95.9884 157.973 96.2175 159.098 96.405 160.015C96.5925 160.931 96.905 162.306 97.0717 163.098C97.4675 164.869 97.3217 165.119 95.8009 165.119C95.2175 165.119 93.1967 165.244 91.3009 165.431C89.405 165.598 86.28 165.869 84.3217 166.056C80.03 166.431 78.7175 166.452 78.4467 166.098C78.3217 165.973 78.0925 164.306 77.905 162.41C76.905 152.535 76.8425 152.181 75.9884 151.369C75.4467 150.869 73.5925 150.119 72.8634 150.119C72.6342 150.119 71.8009 149.994 70.9884 149.827C70.1967 149.64 68.78 149.369 67.8634 149.181C66.9467 149.015 65.5717 148.702 64.78 148.515C64.0092 148.348 62.9884 148.244 62.4884 148.285C61.3217 148.431 58.6759 150.202 57.8425 151.41C57.3217 152.202 55.8009 154.265 53.405 157.473C53.0092 158.015 52.5509 158.452 52.405 158.452C52.1134 158.452 50.6967 157.39 49.3217 156.119C48.5092 155.39 45.5717 152.806 43.0925 150.66C38.0717 146.306 37.3009 145.556 37.4467 145.181C37.5509 144.848 38.4259 143.452 40.4259 140.369C46.03 131.744 45.7592 132.223 45.8425 130.973C45.9259 129.806 45.905 129.744 42.3425 122.66C39.405 116.827 38.6134 115.41 38.0092 114.952L37.28 114.39L31.4259 114.327C27.6967 114.285 25.4884 114.181 25.3217 114.035C24.9259 113.723 24.9259 99.0146 25.3217 98.7021C25.4467 98.5771 25.9467 98.4312 26.405 98.3479C27.3217 98.2021 29.9467 97.7437 32.3425 97.3062C33.1967 97.1396 34.78 96.8479 35.8425 96.6604C37.4884 96.3479 38.0092 96.1604 39.28 95.3271C40.8425 94.3062 41.0092 94.0979 42.2384 91.2646C42.5509 90.5771 42.9675 89.6396 43.1759 89.1812C45.9259 83.0979 46.2384 82.0146 45.5925 80.7854C45.405 80.4312 43.5092 78.3479 41.3425 76.1187C35.8842 70.5146 34.8425 69.3896 34.8425 69.1187C34.8425 68.8479 36.4884 67.4312 41.5717 63.3271C50.8009 55.9104 51.0092 55.7437 51.3425 55.7646C51.4884 55.7646 52.5925 57.0354 53.8009 58.5979C55.0092 60.1604 56.8009 62.4729 57.8009 63.7437C58.78 65.0146 60.28 66.9521 61.1342 68.0354C63.655 71.2854 64.7384 71.5562 67.6134 69.6396C68.5509 69.0146 70.0717 67.9104 70.9884 67.1812C71.905 66.4312 73.4259 65.2646 74.3634 64.5562C76.7175 62.7437 76.905 62.2437 76.4259 59.0354C76.2384 57.7437 75.9259 55.7021 75.7592 54.4937C75.5925 53.2854 75.3634 51.7229 75.2592 51.0354C75.03 49.5771 74.9884 45.4729 75.1967 45.2646C75.2592 45.1812 79.3217 45.1187 84.2175 45.1187C90.8425 45.1187 93.155 45.1812 93.3425 45.3687Z" fill="#C0C6D5"/>
<path d="M80.5923 85.0354C76.6548 86.1187 73.6548 87.7646 71.009 90.3062C69.759 91.5146 67.3423 94.4729 67.3423 94.8062C67.3423 94.8687 67.0923 95.3062 66.8006 95.7854C66.4881 96.2646 66.1756 96.8896 66.0923 97.1812C65.9881 97.4729 65.7173 98.2437 65.4673 98.8687C64.3215 101.89 63.9048 106.598 64.5298 109.556C64.9673 111.515 65.6756 113.848 65.9048 113.994C66.009 114.056 66.0923 114.265 66.0923 114.452C66.0923 114.994 67.9465 118.077 69.2173 119.619C69.8423 120.369 70.9673 121.515 71.7173 122.14C73.5298 123.66 73.6756 123.765 74.009 123.931C74.1756 124.015 74.6132 124.265 74.9465 124.473C76.0507 125.202 77.7173 125.931 79.7382 126.598C83.4882 127.827 90.2381 127.556 93.2381 126.035C93.5715 125.869 93.9465 125.744 94.0923 125.744C94.509 125.744 96.2173 124.785 97.8423 123.64C101.071 121.41 103.28 118.848 104.926 115.494C108.092 108.931 108.134 102.994 105.051 96.4312C102.738 91.4937 98.4048 87.5979 93.0715 85.7021C90.2173 84.6812 89.0298 84.4937 85.634 84.5146C82.9256 84.5354 82.1548 84.6187 80.5923 85.0354ZM89.759 87.9937C97.0507 90.3062 101.717 97.3271 101.717 105.994C101.717 110.077 100.821 113.556 99.0298 116.369C96.5507 120.285 93.509 122.515 88.4673 124.14C87.0715 124.598 84.3632 124.598 82.3423 124.16C74.759 122.515 69.5715 117.494 67.6756 109.994C67.1965 108.098 67.2381 103.39 67.7381 101.473C68.259 99.5771 68.4465 99.0771 69.3631 97.3062C71.9048 92.3687 76.3215 88.9729 81.8215 87.7021C83.5923 87.3062 88.0715 87.4521 89.759 87.9937Z" fill="#C0C6D5"/>
<path d="M26.8838 45.2645C25.613 46.4312 20.6755 51.7853 20.2172 52.5145C19.0505 54.4103 21.0297 56.6187 22.8422 55.4312C23.113 55.2437 24.4463 53.8478 25.7797 52.3062C27.1338 50.7645 28.2797 49.4728 28.363 49.452C28.4255 49.4103 28.9255 48.9103 29.488 48.3062C30.5713 47.0978 30.7588 46.2228 30.0922 45.4103C29.1755 44.2645 28.0713 44.2228 26.8838 45.2645Z" fill="#69779B"/>
<path d="M147.301 58.0979C146.967 58.3687 146.697 58.8687 146.613 59.3271C146.467 60.0354 146.613 60.3479 148.197 62.9729C149.134 64.5562 150.467 66.9312 151.155 68.2437C151.822 69.5562 152.613 70.8479 152.884 71.0979C153.592 71.7437 154.634 71.7229 155.447 71.0354C155.988 70.5979 156.092 70.3479 156.092 69.6396C156.072 68.7646 156.009 68.5979 153.717 64.3896C152.072 61.3687 150.217 58.4521 149.697 58.0354C149.009 57.4937 148.009 57.5146 147.301 58.0979Z" fill="#69779B"/>
<path d="M15.1132 59.8271C14.4049 60.1812 13.3007 61.7437 11.4049 65.1187C8.75903 69.8062 8.6132 70.2854 9.59236 71.3896C10.0299 71.8896 10.3424 72.0354 10.9257 72.0354C12.009 72.0354 12.5924 71.4937 13.5715 69.5979C14.4465 67.9104 14.5299 67.7229 15.4674 66.2646C15.7382 65.8062 16.0715 65.2646 16.1965 65.0771C16.3007 64.8896 16.759 64.1396 17.1965 63.4521C17.6132 62.7437 17.9674 61.9104 17.9674 61.6187C17.9674 60.8479 17.4257 60.1396 16.5924 59.7854C15.759 59.4312 15.9257 59.4312 15.1132 59.8271Z" fill="#69779B"/>
<path d="M268.072 76.6813C257.176 81.7021 257.655 81.4521 257.155 82.2646C256.863 82.7438 256.718 83.3271 256.718 84.0146C256.718 85.2854 257.197 85.8688 259.53 87.4729C260.447 88.0979 261.78 89.0146 262.509 89.5146C263.218 90.0146 264.009 90.5354 264.259 90.6813C264.488 90.8063 264.738 90.9938 264.822 91.0979C264.884 91.1813 265.384 91.5771 265.926 91.9521C267.718 93.2021 269.822 92.9938 270.613 91.4938C271.134 90.5354 272.113 80.0979 271.843 78.5771C271.697 77.8271 271.155 77.2229 270.113 76.7021C269.322 76.3063 268.905 76.3063 268.072 76.6813Z" fill="#69779B"/>
<path d="M6.36318 77.3062C5.25902 77.7854 4.90485 78.5771 3.25902 84.3271C2.15485 88.2646 2.11318 89.0771 2.94652 89.9312C4.27985 91.2437 5.96735 90.3062 6.48818 87.9312C6.77985 86.5771 7.25902 84.9104 7.61318 84.0771C7.71735 83.7854 7.88402 83.2229 7.96735 82.8271C8.07152 82.4312 8.36318 81.4729 8.65485 80.7021C9.19652 79.2854 9.19652 78.7437 8.65485 77.8896C8.42568 77.5562 7.27985 76.9104 7.05068 76.9937C7.02985 77.0146 6.73818 77.1396 6.36318 77.3062Z" fill="#69779B"/>
<path d="M158.238 78.1813C157.988 78.2229 157.53 78.5563 157.217 78.9104C156.634 79.6188 156.613 80.1604 157.134 81.5771C157.655 83.0354 158.03 83.9729 158.197 84.3896C158.301 84.6188 158.592 85.4521 158.863 86.2646C159.676 88.6396 160.676 90.8063 161.259 91.4104C162.176 92.3896 163.697 92.1604 164.322 90.9521C164.759 90.0979 164.738 89.8896 163.884 87.9729C163.467 87.0354 162.947 85.7021 162.717 85.0146C162.509 84.3271 162.238 83.5771 162.134 83.3479C162.03 83.1188 161.717 82.2438 161.426 81.4104C160.634 79.2021 160.322 78.6604 159.53 78.3271C159.134 78.1604 158.78 78.0563 158.759 78.0563C158.717 78.0771 158.488 78.1396 158.238 78.1813Z" fill="#69779B"/>
<path d="M258.238 91.6813C258.009 91.8479 256.988 92.9938 256.009 94.2021C254.468 96.1188 254.218 96.5354 254.218 97.2229C254.218 98.5979 255.718 99.4521 257.218 98.8896C257.78 98.6604 260.572 95.1813 261.03 94.1188C261.384 93.2438 261.197 92.5354 260.426 91.8896C259.738 91.3063 258.905 91.2229 258.238 91.6813Z" fill="#69779B"/>
<path d="M167.238 96.202C166.488 96.6395 166.113 97.2854 166.093 98.1395C166.093 98.9104 166.218 99.077 168.551 101.369C171.759 104.515 174.301 106.369 175.384 106.369C176.822 106.369 177.738 104.952 177.218 103.556C177.134 103.369 176.322 102.64 175.405 101.931C174.468 101.244 172.718 99.702 171.509 98.5354C168.738 95.8687 168.259 95.6187 167.238 96.202Z" fill="#69779B"/>
<path d="M1.7799 96.3688C0.779899 96.7646 0.550732 97.7855 0.259065 102.952C-0.0326013 108.223 0.050732 108.931 1.0299 109.702C1.8424 110.327 2.67573 110.244 3.4674 109.431L4.1549 108.765L4.2799 104.494C4.36323 102.14 4.48823 99.6396 4.55073 98.9313C4.69656 97.6605 4.67573 97.6188 3.94656 96.8896C3.19656 96.1396 2.6549 96.0146 1.7799 96.3688Z" fill="#69779B"/>
<path d="M248.218 101.785C247.968 101.89 246.988 102.494 246.03 103.098C245.093 103.723 243.301 104.785 242.03 105.431C239.072 106.994 238.593 107.431 238.593 108.577C238.593 109.306 238.697 109.556 239.238 109.994C240.134 110.765 240.947 110.681 242.863 109.702C246.218 107.931 249.947 105.535 250.613 104.702C250.988 104.244 250.926 102.994 250.509 102.494C249.843 101.66 249.113 101.431 248.218 101.785Z" fill="#69779B"/>
<path d="M182.363 107.931C181.613 108.806 181.551 109.285 182.134 110.223C182.467 110.765 182.967 111.077 184.592 111.744C187.509 112.952 191.884 114.327 192.905 114.369C194.134 114.41 194.947 113.619 194.947 112.39C194.947 111.348 194.28 110.681 192.905 110.306C192.426 110.181 191.697 109.952 191.301 109.806C190.905 109.66 189.967 109.348 189.217 109.119C188.467 108.89 187.072 108.348 186.134 107.952C183.863 106.973 183.217 106.973 182.363 107.931Z" fill="#69779B"/>
<path d="M230.467 110.119C230.072 110.202 229.03 110.452 228.176 110.702C227.322 110.931 225.676 111.285 224.53 111.473C220.759 112.14 220.217 112.369 219.926 113.535C219.759 114.244 220.405 115.515 221.072 115.785C222.072 116.16 226.572 115.39 231.342 114.056C232.509 113.723 232.801 113.535 233.176 112.91C234.197 111.265 232.634 109.64 230.467 110.119Z" fill="#69779B"/>
<path d="M201.717 112.452C201.426 112.619 201.009 113.077 200.801 113.473C200.447 114.14 200.426 114.306 200.655 114.869C201.113 115.973 201.717 116.202 205.051 116.494C208.842 116.827 212.426 116.869 213.03 116.556C214.28 115.91 214.613 114.39 213.697 113.41C213.051 112.723 212.759 112.66 207.967 112.515C205.842 112.452 203.697 112.348 203.176 112.285C202.592 112.223 202.03 112.285 201.717 112.452Z" fill="#69779B"/>
<path d="M1.77979 116.181C1.42562 116.41 1.07145 116.827 1.00895 117.14C0.842285 117.785 1.02979 120.14 1.40479 122.098C1.55062 122.89 1.84229 124.348 2.02979 125.327C2.19645 126.306 2.46729 127.452 2.59229 127.89C3.09228 129.535 4.75895 130.015 5.92562 128.869C6.65478 128.14 6.65478 127.89 5.92562 124.285C5.67562 123.077 5.34228 121.056 5.15478 119.806C4.73812 116.931 4.73812 116.91 3.98812 116.265C3.21728 115.64 2.67562 115.619 1.77979 116.181Z" fill="#69779B"/>
<path d="M207.03 132.327C206.093 132.806 205.78 133.14 205.322 134.244C204.801 135.39 203.593 139.181 203.593 139.598C203.593 139.765 203.384 140.035 203.134 140.202C202.738 140.473 201.926 140.535 198.322 140.535C193.155 140.535 193.759 140.89 191.613 136.66C190.009 133.494 189.468 132.848 188.197 132.41C187.03 132.035 186.384 132.265 183.738 134.056C182.613 134.806 180.78 136.015 179.676 136.744C177.093 138.431 176.593 138.91 176.301 140.077C176.093 140.952 176.113 141.098 176.697 142.285C177.051 142.994 177.905 144.473 178.613 145.619L179.905 147.66L179.572 148.327C178.863 149.681 176.905 152.744 176.509 153.056C176.051 153.452 175.322 153.348 173.384 152.598C172.759 152.369 171.947 152.098 171.613 152.015C171.259 151.931 170.78 151.744 170.53 151.619C169.905 151.285 168.697 151.306 167.988 151.66C167.384 151.994 166.093 153.327 166.093 153.66C166.093 153.848 165.113 155.994 163.655 159.056C163.051 160.327 162.926 160.744 163.009 161.577C163.072 162.119 163.301 162.827 163.53 163.16C163.78 163.494 165.259 164.556 166.822 165.535C168.384 166.494 169.759 167.452 169.863 167.64C170.155 168.223 170.113 174.973 169.801 175.369C169.655 175.556 169.072 175.952 168.488 176.265C162.113 179.744 161.697 180.098 161.655 181.931C161.655 182.723 162.009 183.556 163.968 187.494C165.363 190.244 166.551 192.369 166.926 192.723C167.509 193.285 167.718 193.348 168.968 193.348C170.426 193.348 170.634 193.244 173.634 191.14C173.947 190.931 174.405 190.744 174.676 190.744C175.447 190.765 181.176 194.348 181.259 194.869C181.322 195.244 180.988 196.244 180.176 198.14C180.009 198.473 179.738 199.181 179.53 199.702C179.343 200.223 179.051 200.869 178.905 201.16C178.384 202.202 178.322 203.369 178.759 204.348C179.259 205.494 179.655 205.765 181.926 206.473C182.905 206.785 184.072 207.16 184.53 207.306C184.988 207.452 185.926 207.744 186.613 207.931C187.301 208.119 188.093 208.39 188.384 208.494C189.072 208.785 190.363 209.098 191.468 209.223C192.53 209.348 193.613 208.91 194.176 208.077C194.509 207.598 196.28 203.202 197.28 200.431C197.447 199.973 197.697 199.535 197.822 199.452C197.968 199.369 199.738 199.285 201.759 199.285C204.822 199.285 205.488 199.348 205.759 199.619C205.947 199.785 206.093 200.035 206.093 200.16C206.093 200.285 206.218 200.556 206.384 200.723C206.53 200.91 206.947 201.577 207.301 202.202C209.697 206.556 209.697 206.556 211.113 207.306C212.697 208.119 213.718 208.035 216.093 206.827C219.801 204.931 222.655 203.41 223.322 202.973C224.155 202.41 224.843 201.202 224.843 200.327C224.843 199.723 224.072 198.119 222.968 196.473C221.509 194.285 220.238 191.931 220.322 191.598C220.363 191.41 221.051 190.369 221.843 189.327L223.28 187.41H228.072C232.634 187.41 232.905 187.39 233.676 186.931C234.134 186.681 234.676 186.181 234.884 185.827C235.426 184.89 236.968 176.91 236.801 175.89C236.572 174.494 235.738 173.806 232.947 172.702C231.551 172.16 230.28 171.577 230.134 171.41C229.738 171.035 229.718 164.535 230.113 164.035C230.238 163.848 231.155 163.223 232.134 162.619C236.697 159.806 237.113 159.473 237.572 158.202C237.78 157.577 237.78 157.265 237.572 156.577C237.238 155.452 233.072 147.452 232.488 146.806C231.947 146.223 230.905 145.744 230.113 145.744C229.301 145.744 226.884 147.056 224.718 148.681C222.801 150.14 222.009 150.41 221.53 149.827C221.384 149.66 220.676 149.077 219.947 148.535C219.197 147.994 218.551 147.39 218.488 147.181C218.405 146.973 218.884 145.202 219.509 143.244C220.155 141.285 220.676 139.306 220.676 138.848C220.676 137.827 220.238 136.952 219.488 136.41C218.947 136.035 215.572 134.598 213.697 133.931C213.238 133.785 212.634 133.556 212.343 133.431C212.051 133.306 211.551 133.077 211.197 132.931C208.822 131.91 208.051 131.785 207.03 132.327ZM187.697 135.577C187.822 135.723 188.634 137.285 189.53 139.035C190.738 141.39 191.343 142.348 191.905 142.785L192.655 143.348L197.447 143.41C205.363 143.535 205.259 143.577 206.718 139.265C207.238 137.744 207.801 136.41 207.988 136.306C208.218 136.16 208.53 136.202 209.03 136.452C209.426 136.66 210.53 137.14 211.509 137.556C215.822 139.327 216.509 139.66 216.509 139.952C216.509 140.223 216.509 140.223 215.155 144.306C213.968 147.89 213.926 148.869 214.926 149.931C215.947 151.077 219.738 153.827 220.572 154.056C221.843 154.41 223.447 153.681 226.488 151.39C227.572 150.577 228.53 149.91 228.613 149.91C228.676 149.91 228.843 150.035 228.947 150.16C229.509 150.869 232.968 157.515 232.968 157.89C232.968 158.015 232.218 158.598 231.28 159.181C225.113 163.015 225.468 162.473 225.488 168.14C225.488 171.66 225.53 172.41 225.843 172.973C226.28 173.765 226.947 174.285 228.176 174.785C228.697 174.994 229.405 175.285 229.738 175.431C230.093 175.577 230.759 175.869 231.259 176.056C231.759 176.265 232.197 176.515 232.259 176.598C232.301 176.702 232.218 177.348 232.051 178.077C231.468 180.577 231.093 182.515 231.093 183.077C231.093 183.64 230.613 184.285 230.197 184.285C230.051 184.285 227.968 184.306 225.572 184.348C220.301 184.41 220.551 184.306 218.343 187.306C216.009 190.452 216.093 190.306 216.093 191.535C216.093 192.535 216.238 192.869 217.697 195.285C218.572 196.744 219.572 198.348 219.905 198.848C220.509 199.723 220.509 199.765 220.134 200.119C219.759 200.473 217.53 201.702 214.134 203.431L212.697 204.16L212.301 203.64C212.072 203.369 211.197 201.931 210.363 200.431C209.53 198.931 208.613 197.494 208.343 197.202C207.405 196.244 205.801 195.952 201.301 195.952C199.072 195.952 196.905 196.056 196.488 196.16C195.176 196.535 194.572 197.348 193.509 200.369C192.968 201.89 192.322 203.785 192.093 204.598C191.863 205.39 191.613 206.119 191.53 206.202C191.343 206.41 181.884 203.515 181.697 203.202C181.447 202.827 181.655 202.202 183.28 198.348C184.78 194.806 184.759 193.827 183.259 192.431C182.697 191.931 182.072 191.452 181.822 191.348C181.593 191.244 181.155 190.994 180.863 190.785C179.676 190.015 176.072 188.015 175.468 187.785C174.53 187.473 173.655 187.723 172.03 188.744C169.759 190.223 169.259 190.452 168.884 190.223C168.551 189.994 164.863 182.952 164.822 182.41C164.759 181.723 164.905 181.577 166.259 180.827C171.093 178.181 171.759 177.765 172.363 176.952L172.968 176.098V171.535C172.968 166.598 172.926 166.348 171.78 165.306C171.468 165.015 170.593 164.39 169.843 163.952C166.509 161.952 166.093 161.64 166.093 161.119C166.093 160.89 166.468 159.931 166.905 158.994C167.363 158.077 168.009 156.681 168.363 155.89C168.884 154.765 169.113 154.494 169.488 154.494C169.738 154.494 171.218 154.931 172.759 155.431C177.009 156.848 177.718 156.702 179.363 154.181C179.884 153.369 180.488 152.473 180.697 152.16C180.926 151.848 181.093 151.556 181.093 151.494C181.093 151.431 181.363 150.994 181.697 150.494C182.009 149.994 182.447 149.16 182.655 148.598L183.03 147.619L182.384 146.306C182.03 145.598 181.301 144.369 180.78 143.598C180.259 142.806 179.843 142.098 179.843 141.994C179.843 141.91 179.697 141.723 179.53 141.577C178.78 140.952 179.176 140.577 183.113 137.931C185.28 136.494 187.134 135.327 187.259 135.327C187.384 135.327 187.593 135.452 187.697 135.577Z" fill="#C0C6D5"/>
<path d="M196.405 158.035C193.801 158.744 192.717 159.348 190.78 161.181C188.259 163.577 186.926 166.681 186.926 170.077C186.926 177.16 192.384 182.619 199.426 182.619C202.717 182.619 205.405 181.535 207.842 179.265C210.53 176.744 211.78 173.91 211.801 170.223C211.801 168.598 211.697 167.785 211.301 166.494C209.405 160.244 202.592 156.369 196.405 158.035ZM202.238 161.16C204.738 162.306 206.863 164.39 207.676 166.473C208.238 167.952 208.197 171.452 207.592 172.952C206.509 175.66 204.655 177.577 201.822 178.89C199.926 179.785 198.405 179.89 196.488 179.285C192.467 177.973 189.863 174.41 189.842 170.098C189.842 166.431 191.78 163.369 195.217 161.64C196.342 161.077 197.113 160.848 198.134 160.765C199.78 160.619 201.363 160.765 202.238 161.16Z" fill="#C0C6D5"/>
<path d="M5.69656 135.681C5.44656 135.973 5.19656 136.431 5.13406 136.66C5.05072 137.035 5.80072 139.744 6.46739 141.369C6.57155 141.66 6.82155 142.265 6.98822 142.723C7.86322 145.035 8.90489 147.41 9.19655 147.806C9.96739 148.806 11.8841 148.702 12.4466 147.619C12.8841 146.765 12.8424 146.327 12.1132 144.535C11.1966 142.306 10.6966 140.994 10.3632 140.015C8.88405 135.535 8.59239 135.119 7.11322 135.119C6.27989 135.119 6.05072 135.202 5.69656 135.681Z" fill="#69779B"/>
<path d="M14.8843 154.223C14.051 154.64 13.5093 155.577 13.6968 156.348C13.8635 157.035 17.0718 161.806 19.0302 164.306C20.9885 166.785 21.9885 167.16 23.2177 165.952C23.7802 165.39 23.8427 165.202 23.7593 164.431C23.676 163.723 23.3635 163.181 22.3218 161.89C21.5927 160.973 20.1135 158.931 19.051 157.369C17.8218 155.556 16.8843 154.39 16.5093 154.181C15.7593 153.806 15.7385 153.806 14.8843 154.223Z" fill="#69779B"/>
<path d="M28.5925 170.369C27.6342 170.723 27.3425 171.16 27.3425 172.202C27.3425 173.119 27.405 173.244 28.4467 174.202C31.905 177.369 36.5717 180.744 37.4884 180.744C38.3425 180.744 39.1759 180.181 39.4259 179.41C39.8009 178.244 39.3425 177.494 37.3217 176.056C35.3842 174.681 33.03 172.848 31.3634 171.431C30.155 170.39 29.3425 170.098 28.5925 170.369Z" fill="#69779B"/>
<path d="M131.697 182.348C130.947 182.785 129.801 183.41 129.134 183.765C127.676 184.494 127.134 185.14 127.134 186.098C127.134 187.077 128.072 188.035 129.051 188.035C130.197 188.035 134.447 185.785 135.259 184.744C135.884 183.973 135.801 182.91 135.072 182.181C134.217 181.348 133.405 181.39 131.697 182.348Z" fill="#69779B"/>
<path d="M45.4881 182.535C44.9673 182.973 44.8423 183.223 44.8423 183.91C44.8423 184.348 44.9465 184.91 45.0506 185.14C45.509 185.973 55.1756 190.119 56.6965 190.119C56.9673 190.119 57.4881 189.806 57.884 189.41C59.0715 188.223 58.7798 186.994 57.0715 186.181C56.5715 185.931 56.0923 185.744 56.009 185.744C55.9256 185.744 55.5506 185.619 55.1965 185.452C54.8215 185.306 54.1131 185.015 53.5923 184.806C52.5506 184.41 52.3215 184.306 49.3631 182.931C47.009 181.848 46.384 181.785 45.4881 182.535Z" fill="#69779B"/>
<path d="M117.03 188.265C115.134 188.785 113.363 189.181 110.676 189.702C107.967 190.223 107.655 190.369 107.134 191.202C106.613 192.077 106.613 192.598 107.196 193.265C107.967 194.181 108.467 194.348 109.801 194.077C113.592 193.348 115.926 192.806 117.571 192.306C118.113 192.14 118.696 191.994 118.884 191.994C119.426 191.994 120.821 191.223 120.967 190.848C121.03 190.66 121.092 190.14 121.092 189.702C121.092 189.077 120.967 188.785 120.446 188.369C119.696 187.723 119.071 187.702 117.03 188.265Z" fill="#69779B"/>
<path d="M65.9464 189.181C65.1756 189.515 64.8006 190.119 64.7797 191.119C64.7589 191.681 64.9047 191.973 65.4256 192.431C65.7797 192.765 66.3006 193.056 66.5506 193.119C66.8214 193.16 67.7381 193.348 68.5922 193.515C72.1131 194.223 76.3422 194.91 77.2589 194.91C77.5922 194.91 78.0714 194.64 78.5089 194.202C79.4047 193.306 79.4256 192.556 78.6339 191.577C78.1339 190.994 77.8422 190.848 76.9047 190.744C74.3422 190.41 68.2381 189.327 66.9256 188.973C66.7589 188.931 66.3214 189.015 65.9464 189.181Z" fill="#69779B"/>
<path d="M90.6759 191.577C86.7384 191.681 86.3009 191.806 85.8842 192.806C85.5717 193.577 85.7175 194.285 86.3842 195.056L86.8842 195.64L92.6342 195.619C98.7175 195.598 99.2175 195.515 99.905 194.598C100.613 193.619 100.572 192.973 99.78 192.14L99.0717 191.369L96.6967 191.41C95.3842 191.431 92.6759 191.515 90.6759 191.577Z" fill="#69779B"/>
</svg>
